G04 Layer_Color=8388736*
%FSLAX25Y25*%
%MOIN*%
G70*
G01*
G75*
%ADD141R,0.04147X0.04147*%
%ADD142R,0.04737X0.04343*%
%ADD143R,0.09855X0.09855*%
G04:AMPARAMS|DCode=144|XSize=43.43mil|YSize=39.5mil|CornerRadius=7.15mil|HoleSize=0mil|Usage=FLASHONLY|Rotation=180.000|XOffset=0mil|YOffset=0mil|HoleType=Round|Shape=RoundedRectangle|*
%AMROUNDEDRECTD144*
21,1,0.04343,0.02520,0,0,180.0*
21,1,0.02913,0.03950,0,0,180.0*
1,1,0.01430,-0.01457,0.01260*
1,1,0.01430,0.01457,0.01260*
1,1,0.01430,0.01457,-0.01260*
1,1,0.01430,-0.01457,-0.01260*
%
%ADD144ROUNDEDRECTD144*%
%ADD145R,0.27178X0.26391*%
%ADD146R,0.07099X0.06706*%
%ADD147R,0.03359X0.04343*%
%ADD148R,0.04343X0.03359*%
G04:AMPARAMS|DCode=149|XSize=31.62mil|YSize=47.37mil|CornerRadius=6.01mil|HoleSize=0mil|Usage=FLASHONLY|Rotation=180.000|XOffset=0mil|YOffset=0mil|HoleType=Round|Shape=RoundedRectangle|*
%AMROUNDEDRECTD149*
21,1,0.03162,0.03535,0,0,180.0*
21,1,0.01961,0.04737,0,0,180.0*
1,1,0.01202,-0.00980,0.01768*
1,1,0.01202,0.00980,0.01768*
1,1,0.01202,0.00980,-0.01768*
1,1,0.01202,-0.00980,-0.01768*
%
%ADD149ROUNDEDRECTD149*%
G04:AMPARAMS|DCode=150|XSize=31.62mil|YSize=47.37mil|CornerRadius=6.01mil|HoleSize=0mil|Usage=FLASHONLY|Rotation=90.000|XOffset=0mil|YOffset=0mil|HoleType=Round|Shape=RoundedRectangle|*
%AMROUNDEDRECTD150*
21,1,0.03162,0.03535,0,0,90.0*
21,1,0.01961,0.04737,0,0,90.0*
1,1,0.01202,0.01768,0.00980*
1,1,0.01202,0.01768,-0.00980*
1,1,0.01202,-0.01768,-0.00980*
1,1,0.01202,-0.01768,0.00980*
%
%ADD150ROUNDEDRECTD150*%
%ADD151R,0.04068X0.03280*%
%ADD152R,0.03280X0.04068*%
G04:AMPARAMS|DCode=153|XSize=17.84mil|YSize=31.62mil|CornerRadius=6.46mil|HoleSize=0mil|Usage=FLASHONLY|Rotation=270.000|XOffset=0mil|YOffset=0mil|HoleType=Round|Shape=RoundedRectangle|*
%AMROUNDEDRECTD153*
21,1,0.01784,0.01870,0,0,270.0*
21,1,0.00492,0.03162,0,0,270.0*
1,1,0.01292,-0.00935,-0.00246*
1,1,0.01292,-0.00935,0.00246*
1,1,0.01292,0.00935,0.00246*
1,1,0.01292,0.00935,-0.00246*
%
%ADD153ROUNDEDRECTD153*%
G04:AMPARAMS|DCode=154|XSize=17.84mil|YSize=31.62mil|CornerRadius=6.46mil|HoleSize=0mil|Usage=FLASHONLY|Rotation=180.000|XOffset=0mil|YOffset=0mil|HoleType=Round|Shape=RoundedRectangle|*
%AMROUNDEDRECTD154*
21,1,0.01784,0.01870,0,0,180.0*
21,1,0.00492,0.03162,0,0,180.0*
1,1,0.01292,-0.00246,0.00935*
1,1,0.01292,0.00246,0.00935*
1,1,0.01292,0.00246,-0.00935*
1,1,0.01292,-0.00246,-0.00935*
%
%ADD154ROUNDEDRECTD154*%
G04:AMPARAMS|DCode=155|XSize=110.36mil|YSize=110.36mil|CornerRadius=6.56mil|HoleSize=0mil|Usage=FLASHONLY|Rotation=180.000|XOffset=0mil|YOffset=0mil|HoleType=Round|Shape=RoundedRectangle|*
%AMROUNDEDRECTD155*
21,1,0.11036,0.09724,0,0,180.0*
21,1,0.09724,0.11036,0,0,180.0*
1,1,0.01312,-0.04862,0.04862*
1,1,0.01312,0.04862,0.04862*
1,1,0.01312,0.04862,-0.04862*
1,1,0.01312,-0.04862,-0.04862*
%
%ADD155ROUNDEDRECTD155*%
%ADD156R,0.03950X0.03950*%
%ADD157R,0.03950X0.03950*%
%ADD158R,0.05328X0.06902*%
%ADD159R,0.04737X0.06312*%
%ADD160R,0.06312X0.04737*%
%ADD161R,0.03398X0.05800*%
%ADD162R,0.05800X0.03398*%
%ADD163R,0.17335X0.08280*%
%ADD164O,0.04737X0.01981*%
%ADD165R,0.04737X0.01981*%
G04:AMPARAMS|DCode=166|XSize=19.81mil|YSize=61.15mil|CornerRadius=5.95mil|HoleSize=0mil|Usage=FLASHONLY|Rotation=90.000|XOffset=0mil|YOffset=0mil|HoleType=Round|Shape=RoundedRectangle|*
%AMROUNDEDRECTD166*
21,1,0.01981,0.04925,0,0,90.0*
21,1,0.00791,0.06115,0,0,90.0*
1,1,0.01190,0.02463,0.00396*
1,1,0.01190,0.02463,-0.00396*
1,1,0.01190,-0.02463,-0.00396*
1,1,0.01190,-0.02463,0.00396*
%
%ADD166ROUNDEDRECTD166*%
G04:AMPARAMS|DCode=167|XSize=69.81mil|YSize=82.02mil|CornerRadius=5.85mil|HoleSize=0mil|Usage=FLASHONLY|Rotation=0.000|XOffset=0mil|YOffset=0mil|HoleType=Round|Shape=RoundedRectangle|*
%AMROUNDEDRECTD167*
21,1,0.06981,0.07031,0,0,0.0*
21,1,0.05810,0.08202,0,0,0.0*
1,1,0.01171,0.02905,-0.03515*
1,1,0.01171,-0.02905,-0.03515*
1,1,0.01171,-0.02905,0.03515*
1,1,0.01171,0.02905,0.03515*
%
%ADD167ROUNDEDRECTD167*%
%ADD168C,0.04737*%
G04:AMPARAMS|DCode=169|XSize=40.55mil|YSize=15.75mil|CornerRadius=3.15mil|HoleSize=0mil|Usage=FLASHONLY|Rotation=270.000|XOffset=0mil|YOffset=0mil|HoleType=Round|Shape=RoundedRectangle|*
%AMROUNDEDRECTD169*
21,1,0.04055,0.00945,0,0,270.0*
21,1,0.03425,0.01575,0,0,270.0*
1,1,0.00630,-0.00472,-0.01713*
1,1,0.00630,-0.00472,0.01713*
1,1,0.00630,0.00472,0.01713*
1,1,0.00630,0.00472,-0.01713*
%
%ADD169ROUNDEDRECTD169*%
G04:AMPARAMS|DCode=170|XSize=40.55mil|YSize=15.75mil|CornerRadius=3.15mil|HoleSize=0mil|Usage=FLASHONLY|Rotation=0.000|XOffset=0mil|YOffset=0mil|HoleType=Round|Shape=RoundedRectangle|*
%AMROUNDEDRECTD170*
21,1,0.04055,0.00945,0,0,0.0*
21,1,0.03425,0.01575,0,0,0.0*
1,1,0.00630,0.01713,-0.00472*
1,1,0.00630,-0.01713,-0.00472*
1,1,0.00630,-0.01713,0.00472*
1,1,0.00630,0.01713,0.00472*
%
%ADD170ROUNDEDRECTD170*%
%ADD171R,0.03950X0.04343*%
%ADD172R,0.04343X0.03950*%
%ADD173R,0.04737X0.02965*%
%ADD174O,0.05131X0.03162*%
%ADD175O,0.03162X0.05131*%
%ADD176O,0.03359X0.09068*%
%ADD177R,0.04343X0.04737*%
G04:AMPARAMS|DCode=178|XSize=51.31mil|YSize=78.87mil|CornerRadius=8.33mil|HoleSize=0mil|Usage=FLASHONLY|Rotation=0.000|XOffset=0mil|YOffset=0mil|HoleType=Round|Shape=RoundedRectangle|*
%AMROUNDEDRECTD178*
21,1,0.05131,0.06221,0,0,0.0*
21,1,0.03465,0.07887,0,0,0.0*
1,1,0.01666,0.01732,-0.03110*
1,1,0.01666,-0.01732,-0.03110*
1,1,0.01666,-0.01732,0.03110*
1,1,0.01666,0.01732,0.03110*
%
%ADD178ROUNDEDRECTD178*%
G04:AMPARAMS|DCode=179|XSize=74.93mil|YSize=74.93mil|CornerRadius=6.01mil|HoleSize=0mil|Usage=FLASHONLY|Rotation=270.000|XOffset=0mil|YOffset=0mil|HoleType=Round|Shape=RoundedRectangle|*
%AMROUNDEDRECTD179*
21,1,0.07493,0.06291,0,0,270.0*
21,1,0.06291,0.07493,0,0,270.0*
1,1,0.01202,-0.03146,-0.03146*
1,1,0.01202,-0.03146,0.03146*
1,1,0.01202,0.03146,0.03146*
1,1,0.01202,0.03146,-0.03146*
%
%ADD179ROUNDEDRECTD179*%
G04:AMPARAMS|DCode=180|XSize=17.84mil|YSize=31.62mil|CornerRadius=5.97mil|HoleSize=0mil|Usage=FLASHONLY|Rotation=270.000|XOffset=0mil|YOffset=0mil|HoleType=Round|Shape=RoundedRectangle|*
%AMROUNDEDRECTD180*
21,1,0.01784,0.01969,0,0,270.0*
21,1,0.00591,0.03162,0,0,270.0*
1,1,0.01194,-0.00984,-0.00295*
1,1,0.01194,-0.00984,0.00295*
1,1,0.01194,0.00984,0.00295*
1,1,0.01194,0.00984,-0.00295*
%
%ADD180ROUNDEDRECTD180*%
G04:AMPARAMS|DCode=181|XSize=17.84mil|YSize=31.62mil|CornerRadius=5.97mil|HoleSize=0mil|Usage=FLASHONLY|Rotation=0.000|XOffset=0mil|YOffset=0mil|HoleType=Round|Shape=RoundedRectangle|*
%AMROUNDEDRECTD181*
21,1,0.01784,0.01969,0,0,0.0*
21,1,0.00591,0.03162,0,0,0.0*
1,1,0.01194,0.00295,-0.00984*
1,1,0.01194,-0.00295,-0.00984*
1,1,0.01194,-0.00295,0.00984*
1,1,0.01194,0.00295,0.00984*
%
%ADD181ROUNDEDRECTD181*%
%ADD182O,0.04107X0.01824*%
%ADD183O,0.01824X0.04107*%
%ADD184R,0.18005X0.18005*%
%ADD185O,0.01981X0.04147*%
%ADD186O,0.04147X0.01981*%
%ADD187R,0.10839X0.10839*%
G04:AMPARAMS|DCode=188|XSize=37.53mil|YSize=15.87mil|CornerRadius=4.79mil|HoleSize=0mil|Usage=FLASHONLY|Rotation=90.000|XOffset=0mil|YOffset=0mil|HoleType=Round|Shape=RoundedRectangle|*
%AMROUNDEDRECTD188*
21,1,0.03753,0.00630,0,0,90.0*
21,1,0.02795,0.01587,0,0,90.0*
1,1,0.00958,0.00315,0.01398*
1,1,0.00958,0.00315,-0.01398*
1,1,0.00958,-0.00315,-0.01398*
1,1,0.00958,-0.00315,0.01398*
%
%ADD188ROUNDEDRECTD188*%
G04:AMPARAMS|DCode=189|XSize=33.59mil|YSize=15.87mil|CornerRadius=4.79mil|HoleSize=0mil|Usage=FLASHONLY|Rotation=90.000|XOffset=0mil|YOffset=0mil|HoleType=Round|Shape=RoundedRectangle|*
%AMROUNDEDRECTD189*
21,1,0.03359,0.00630,0,0,90.0*
21,1,0.02402,0.01587,0,0,90.0*
1,1,0.00958,0.00315,0.01201*
1,1,0.00958,0.00315,-0.01201*
1,1,0.00958,-0.00315,-0.01201*
1,1,0.00958,-0.00315,0.01201*
%
%ADD189ROUNDEDRECTD189*%
G04:AMPARAMS|DCode=190|XSize=33.59mil|YSize=15.87mil|CornerRadius=4.79mil|HoleSize=0mil|Usage=FLASHONLY|Rotation=180.000|XOffset=0mil|YOffset=0mil|HoleType=Round|Shape=RoundedRectangle|*
%AMROUNDEDRECTD190*
21,1,0.03359,0.00630,0,0,180.0*
21,1,0.02402,0.01587,0,0,180.0*
1,1,0.00958,-0.01201,0.00315*
1,1,0.00958,0.01201,0.00315*
1,1,0.00958,0.01201,-0.00315*
1,1,0.00958,-0.01201,-0.00315*
%
%ADD190ROUNDEDRECTD190*%
G04:AMPARAMS|DCode=191|XSize=37.53mil|YSize=15.87mil|CornerRadius=4.79mil|HoleSize=0mil|Usage=FLASHONLY|Rotation=180.000|XOffset=0mil|YOffset=0mil|HoleType=Round|Shape=RoundedRectangle|*
%AMROUNDEDRECTD191*
21,1,0.03753,0.00630,0,0,180.0*
21,1,0.02795,0.01587,0,0,180.0*
1,1,0.00958,-0.01398,0.00315*
1,1,0.00958,0.01398,0.00315*
1,1,0.00958,0.01398,-0.00315*
1,1,0.00958,-0.01398,-0.00315*
%
%ADD191ROUNDEDRECTD191*%
%ADD192O,0.06312X0.02572*%
%ADD193R,0.05131X0.02965*%
%ADD194R,0.05131X0.03753*%
%ADD195R,0.17493X0.15800*%
G04:AMPARAMS|DCode=196|XSize=35.56mil|YSize=45.4mil|CornerRadius=8.55mil|HoleSize=0mil|Usage=FLASHONLY|Rotation=180.000|XOffset=0mil|YOffset=0mil|HoleType=Round|Shape=RoundedRectangle|*
%AMROUNDEDRECTD196*
21,1,0.03556,0.02831,0,0,180.0*
21,1,0.01847,0.04540,0,0,180.0*
1,1,0.01709,-0.00923,0.01415*
1,1,0.01709,0.00923,0.01415*
1,1,0.01709,0.00923,-0.01415*
1,1,0.01709,-0.00923,-0.01415*
%
%ADD196ROUNDEDRECTD196*%
G04:AMPARAMS|DCode=197|XSize=35.56mil|YSize=45.4mil|CornerRadius=8.55mil|HoleSize=0mil|Usage=FLASHONLY|Rotation=270.000|XOffset=0mil|YOffset=0mil|HoleType=Round|Shape=RoundedRectangle|*
%AMROUNDEDRECTD197*
21,1,0.03556,0.02831,0,0,270.0*
21,1,0.01847,0.04540,0,0,270.0*
1,1,0.01709,-0.01415,-0.00923*
1,1,0.01709,-0.01415,0.00923*
1,1,0.01709,0.01415,0.00923*
1,1,0.01709,0.01415,-0.00923*
%
%ADD197ROUNDEDRECTD197*%
%ADD198R,0.05118X0.02362*%
%ADD199C,0.06706*%
G04:AMPARAMS|DCode=200|XSize=67.06mil|YSize=67.06mil|CornerRadius=18.76mil|HoleSize=0mil|Usage=FLASHONLY|Rotation=180.000|XOffset=0mil|YOffset=0mil|HoleType=Round|Shape=RoundedRectangle|*
%AMROUNDEDRECTD200*
21,1,0.06706,0.02953,0,0,180.0*
21,1,0.02953,0.06706,0,0,180.0*
1,1,0.03753,-0.01476,0.01476*
1,1,0.03753,0.01476,0.01476*
1,1,0.03753,0.01476,-0.01476*
1,1,0.03753,-0.01476,-0.01476*
%
%ADD200ROUNDEDRECTD200*%
G04:AMPARAMS|DCode=201|XSize=89.1mil|YSize=88.32mil|CornerRadius=12.03mil|HoleSize=0mil|Usage=FLASHONLY|Rotation=0.000|XOffset=0mil|YOffset=0mil|HoleType=Round|Shape=RoundedRectangle|*
%AMROUNDEDRECTD201*
21,1,0.08910,0.06425,0,0,0.0*
21,1,0.06504,0.08832,0,0,0.0*
1,1,0.02406,0.03252,-0.03213*
1,1,0.02406,-0.03252,-0.03213*
1,1,0.02406,-0.03252,0.03213*
1,1,0.02406,0.03252,0.03213*
%
%ADD201ROUNDEDRECTD201*%
%ADD202R,0.05524X0.03556*%
%ADD203R,0.05918X0.11430*%
%ADD204R,0.11430X0.05918*%
%ADD205R,0.03556X0.04343*%
%ADD206R,0.04343X0.03556*%
%ADD207R,0.14186X0.04658*%
%ADD208R,0.19304X0.05446*%
%ADD209R,0.06902X0.06115*%
%ADD210R,0.06115X0.06902*%
%ADD211R,0.04540X0.06115*%
%ADD212R,0.06115X0.04540*%
%ADD213O,0.03162X0.08674*%
%ADD214O,0.08674X0.03162*%
%ADD215R,0.04147X0.04147*%
G04:AMPARAMS|DCode=216|XSize=82.8mil|YSize=61.15mil|CornerRadius=9.32mil|HoleSize=0mil|Usage=FLASHONLY|Rotation=270.000|XOffset=0mil|YOffset=0mil|HoleType=Round|Shape=RoundedRectangle|*
%AMROUNDEDRECTD216*
21,1,0.08280,0.04252,0,0,270.0*
21,1,0.06417,0.06115,0,0,270.0*
1,1,0.01863,-0.02126,-0.03209*
1,1,0.01863,-0.02126,0.03209*
1,1,0.01863,0.02126,0.03209*
1,1,0.01863,0.02126,-0.03209*
%
%ADD216ROUNDEDRECTD216*%
G04:AMPARAMS|DCode=217|XSize=55.24mil|YSize=47.37mil|CornerRadius=7.94mil|HoleSize=0mil|Usage=FLASHONLY|Rotation=270.000|XOffset=0mil|YOffset=0mil|HoleType=Round|Shape=RoundedRectangle|*
%AMROUNDEDRECTD217*
21,1,0.05524,0.03150,0,0,270.0*
21,1,0.03937,0.04737,0,0,270.0*
1,1,0.01587,-0.01575,-0.01969*
1,1,0.01587,-0.01575,0.01969*
1,1,0.01587,0.01575,0.01969*
1,1,0.01587,0.01575,-0.01969*
%
%ADD217ROUNDEDRECTD217*%
G04:AMPARAMS|DCode=218|XSize=37.53mil|YSize=51.31mil|CornerRadius=6.95mil|HoleSize=0mil|Usage=FLASHONLY|Rotation=270.000|XOffset=0mil|YOffset=0mil|HoleType=Round|Shape=RoundedRectangle|*
%AMROUNDEDRECTD218*
21,1,0.03753,0.03740,0,0,270.0*
21,1,0.02362,0.05131,0,0,270.0*
1,1,0.01391,-0.01870,-0.01181*
1,1,0.01391,-0.01870,0.01181*
1,1,0.01391,0.01870,0.01181*
1,1,0.01391,0.01870,-0.01181*
%
%ADD218ROUNDEDRECTD218*%
G04:AMPARAMS|DCode=219|XSize=78.87mil|YSize=54.06mil|CornerRadius=8.61mil|HoleSize=0mil|Usage=FLASHONLY|Rotation=180.000|XOffset=0mil|YOffset=0mil|HoleType=Round|Shape=RoundedRectangle|*
%AMROUNDEDRECTD219*
21,1,0.07887,0.03685,0,0,180.0*
21,1,0.06165,0.05406,0,0,180.0*
1,1,0.01721,-0.03083,0.01843*
1,1,0.01721,0.03083,0.01843*
1,1,0.01721,0.03083,-0.01843*
1,1,0.01721,-0.03083,-0.01843*
%
%ADD219ROUNDEDRECTD219*%
G04:AMPARAMS|DCode=220|XSize=69.02mil|YSize=61.15mil|CornerRadius=9.32mil|HoleSize=0mil|Usage=FLASHONLY|Rotation=270.000|XOffset=0mil|YOffset=0mil|HoleType=Round|Shape=RoundedRectangle|*
%AMROUNDEDRECTD220*
21,1,0.06902,0.04252,0,0,270.0*
21,1,0.05039,0.06115,0,0,270.0*
1,1,0.01863,-0.02126,-0.02520*
1,1,0.01863,-0.02126,0.02520*
1,1,0.01863,0.02126,0.02520*
1,1,0.01863,0.02126,-0.02520*
%
%ADD220ROUNDEDRECTD220*%
G04:AMPARAMS|DCode=221|XSize=51.31mil|YSize=47.37mil|CornerRadius=7.94mil|HoleSize=0mil|Usage=FLASHONLY|Rotation=90.000|XOffset=0mil|YOffset=0mil|HoleType=Round|Shape=RoundedRectangle|*
%AMROUNDEDRECTD221*
21,1,0.05131,0.03150,0,0,90.0*
21,1,0.03543,0.04737,0,0,90.0*
1,1,0.01587,0.01575,0.01772*
1,1,0.01587,0.01575,-0.01772*
1,1,0.01587,-0.01575,-0.01772*
1,1,0.01587,-0.01575,0.01772*
%
%ADD221ROUNDEDRECTD221*%
%ADD222R,0.04343X0.07099*%
%ADD223R,0.06509X0.05328*%
%ADD224O,0.04304X0.12847*%
%ADD225R,0.21863X0.34422*%
%ADD226R,0.05400X0.15900*%
%ADD227R,0.15900X0.05400*%
%ADD228R,0.04343X0.02178*%
%ADD229R,0.25997X0.04737*%
%ADD230R,0.25997X0.04737*%
%ADD231R,0.06706X0.06706*%
%ADD232C,0.24422*%
%ADD233C,0.22453*%
%ADD234C,0.00800*%
%ADD235C,0.05709*%
%ADD236C,0.13398*%
%ADD237C,0.10249*%
%ADD238C,0.06784*%
%ADD239R,0.06312X0.06312*%
%ADD240C,0.06312*%
%ADD241C,0.06600*%
%ADD242C,0.12611*%
%ADD243C,0.02375*%
%ADD244C,0.02769*%
%ADD245C,0.03162*%
G36*
X417143Y431401D02*
X417194Y431391D01*
X417244Y431374D01*
X417291Y431351D01*
X417335Y431322D01*
X417374Y431287D01*
X417409Y431248D01*
X417438Y431204D01*
X417461Y431157D01*
X417478Y431108D01*
X417488Y431056D01*
X417491Y431004D01*
Y429928D01*
X418567D01*
X418619Y429925D01*
X418671Y429915D01*
X418720Y429898D01*
X418767Y429875D01*
X418811Y429846D01*
X418850Y429811D01*
X418885Y429772D01*
X418914Y429728D01*
X418937Y429681D01*
X418954Y429631D01*
X418964Y429580D01*
X418968Y429528D01*
Y428740D01*
X418964Y428688D01*
X418954Y428636D01*
X418937Y428587D01*
X418914Y428540D01*
X418885Y428496D01*
X418850Y428457D01*
X418811Y428422D01*
X418767Y428393D01*
X418720Y428370D01*
X418671Y428353D01*
X418619Y428343D01*
X418567Y428339D01*
X416303D01*
X416251Y428343D01*
X416199Y428353D01*
X416150Y428370D01*
X416103Y428393D01*
X416059Y428422D01*
X416020Y428457D01*
X415985Y428496D01*
X415956Y428540D01*
X415933Y428587D01*
X415916Y428636D01*
X415906Y428688D01*
X415902Y428740D01*
Y431004D01*
X415906Y431056D01*
X415916Y431108D01*
X415933Y431157D01*
X415956Y431204D01*
X415985Y431248D01*
X416020Y431287D01*
X416059Y431322D01*
X416103Y431351D01*
X416150Y431374D01*
X416199Y431391D01*
X416251Y431401D01*
X416303Y431405D01*
X417091D01*
X417143Y431401D01*
D02*
G37*
G36*
X407554D02*
X407605Y431391D01*
X407655Y431374D01*
X407702Y431351D01*
X407746Y431322D01*
X407785Y431287D01*
X407820Y431248D01*
X407849Y431204D01*
X407872Y431157D01*
X407889Y431108D01*
X407899Y431056D01*
X407902Y431004D01*
Y428740D01*
X407899Y428688D01*
X407889Y428636D01*
X407872Y428587D01*
X407849Y428540D01*
X407820Y428496D01*
X407785Y428457D01*
X407746Y428422D01*
X407702Y428393D01*
X407655Y428370D01*
X407605Y428353D01*
X407554Y428343D01*
X407502Y428339D01*
X405234D01*
X405182Y428343D01*
X405130Y428353D01*
X405081Y428370D01*
X405033Y428393D01*
X404990Y428422D01*
X404950Y428457D01*
X404916Y428496D01*
X404887Y428540D01*
X404864Y428587D01*
X404847Y428636D01*
X404837Y428688D01*
X404833Y428740D01*
Y429528D01*
X404837Y429580D01*
X404847Y429631D01*
X404864Y429681D01*
X404887Y429728D01*
X404916Y429772D01*
X404950Y429811D01*
X404990Y429846D01*
X405033Y429875D01*
X405081Y429898D01*
X405130Y429915D01*
X405182Y429925D01*
X405234Y429928D01*
X406313D01*
Y431004D01*
X406317Y431056D01*
X406327Y431108D01*
X406344Y431157D01*
X406367Y431204D01*
X406396Y431248D01*
X406431Y431287D01*
X406470Y431322D01*
X406514Y431351D01*
X406561Y431374D01*
X406610Y431391D01*
X406662Y431401D01*
X406714Y431405D01*
X407502D01*
X407554Y431401D01*
D02*
G37*
G36*
X418619Y420338D02*
X418671Y420327D01*
X418720Y420310D01*
X418767Y420287D01*
X418811Y420258D01*
X418850Y420224D01*
X418885Y420184D01*
X418914Y420141D01*
X418937Y420094D01*
X418954Y420044D01*
X418964Y419992D01*
X418968Y419940D01*
Y419153D01*
X418964Y419100D01*
X418954Y419049D01*
X418937Y418999D01*
X418914Y418952D01*
X418885Y418909D01*
X418850Y418869D01*
X418811Y418835D01*
X418767Y418806D01*
X418720Y418782D01*
X418671Y418766D01*
X418619Y418755D01*
X418567Y418752D01*
X417491D01*
Y417676D01*
X417488Y417624D01*
X417478Y417573D01*
X417461Y417523D01*
X417438Y417476D01*
X417409Y417432D01*
X417374Y417393D01*
X417335Y417358D01*
X417291Y417329D01*
X417244Y417306D01*
X417194Y417289D01*
X417143Y417279D01*
X417091Y417275D01*
X416303D01*
X416251Y417279D01*
X416199Y417289D01*
X416150Y417306D01*
X416103Y417329D01*
X416059Y417358D01*
X416020Y417393D01*
X415985Y417432D01*
X415956Y417476D01*
X415933Y417523D01*
X415916Y417573D01*
X415906Y417624D01*
X415902Y417676D01*
Y419940D01*
X415906Y419992D01*
X415916Y420044D01*
X415933Y420094D01*
X415956Y420141D01*
X415985Y420184D01*
X416020Y420224D01*
X416059Y420258D01*
X416103Y420287D01*
X416150Y420310D01*
X416199Y420327D01*
X416251Y420338D01*
X416303Y420341D01*
X418567D01*
X418619Y420338D01*
D02*
G37*
G36*
X407554D02*
X407605Y420327D01*
X407655Y420310D01*
X407702Y420287D01*
X407746Y420258D01*
X407785Y420224D01*
X407820Y420184D01*
X407849Y420141D01*
X407872Y420094D01*
X407889Y420044D01*
X407899Y419992D01*
X407902Y419940D01*
Y417676D01*
X407899Y417624D01*
X407889Y417573D01*
X407872Y417523D01*
X407849Y417476D01*
X407820Y417432D01*
X407785Y417393D01*
X407746Y417358D01*
X407702Y417329D01*
X407655Y417306D01*
X407605Y417289D01*
X407554Y417279D01*
X407502Y417275D01*
X406714D01*
X406662Y417279D01*
X406610Y417289D01*
X406561Y417306D01*
X406514Y417329D01*
X406470Y417358D01*
X406431Y417393D01*
X406396Y417432D01*
X406367Y417476D01*
X406344Y417523D01*
X406327Y417573D01*
X406317Y417624D01*
X406313Y417676D01*
Y418752D01*
X405234D01*
X405182Y418755D01*
X405130Y418766D01*
X405081Y418782D01*
X405033Y418806D01*
X404990Y418835D01*
X404950Y418869D01*
X404916Y418909D01*
X404887Y418952D01*
X404864Y418999D01*
X404847Y419049D01*
X404837Y419100D01*
X404833Y419153D01*
Y419940D01*
X404837Y419992D01*
X404847Y420044D01*
X404864Y420094D01*
X404887Y420141D01*
X404916Y420184D01*
X404950Y420224D01*
X404990Y420258D01*
X405033Y420287D01*
X405081Y420310D01*
X405130Y420327D01*
X405182Y420338D01*
X405234Y420341D01*
X407502D01*
X407554Y420338D01*
D02*
G37*
D141*
X23625Y260140D02*
D03*
Y271557D02*
D03*
Y265848D02*
D03*
X75605Y344547D02*
D03*
Y333130D02*
D03*
Y338839D02*
D03*
X462392Y123809D02*
D03*
Y129517D02*
D03*
Y118100D02*
D03*
X456892Y129517D02*
D03*
Y118100D02*
D03*
Y123809D02*
D03*
X451292D02*
D03*
Y129517D02*
D03*
Y118100D02*
D03*
X445892D02*
D03*
Y129517D02*
D03*
Y123809D02*
D03*
X809901Y435539D02*
D03*
Y424122D02*
D03*
Y429831D02*
D03*
X804901D02*
D03*
Y424122D02*
D03*
Y435539D02*
D03*
D142*
X17714Y264960D02*
D03*
Y271260D02*
D03*
X883935Y321462D02*
D03*
Y327762D02*
D03*
X875472Y327762D02*
D03*
Y321462D02*
D03*
X867503D02*
D03*
Y327762D02*
D03*
X288117Y306884D02*
D03*
Y313183D02*
D03*
X170469Y356299D02*
D03*
Y350000D02*
D03*
X257320Y203247D02*
D03*
Y196948D02*
D03*
X269817Y355782D02*
D03*
Y349483D02*
D03*
X236298Y355844D02*
D03*
Y349545D02*
D03*
X201787Y356166D02*
D03*
Y349867D02*
D03*
X261482Y314698D02*
D03*
Y308398D02*
D03*
X64653Y284876D02*
D03*
Y278577D02*
D03*
X20953Y289839D02*
D03*
Y283539D02*
D03*
X64345Y273124D02*
D03*
Y266825D02*
D03*
X510658Y65634D02*
D03*
Y71933D02*
D03*
X612831Y71935D02*
D03*
Y65635D02*
D03*
X270173Y431355D02*
D03*
Y425056D02*
D03*
X276194Y431401D02*
D03*
Y425102D02*
D03*
X249206Y430898D02*
D03*
Y424599D02*
D03*
X243173Y424656D02*
D03*
Y430955D02*
D03*
X209631Y431161D02*
D03*
Y424861D02*
D03*
X215551Y431106D02*
D03*
Y424807D02*
D03*
X188649Y431093D02*
D03*
Y424794D02*
D03*
X182731Y424761D02*
D03*
Y431061D02*
D03*
X148228Y430839D02*
D03*
Y424540D02*
D03*
X127047Y379527D02*
D03*
Y373228D02*
D03*
X127025Y385141D02*
D03*
Y391440D02*
D03*
Y403440D02*
D03*
Y397141D02*
D03*
X154378Y424587D02*
D03*
Y430886D02*
D03*
X124913Y443878D02*
D03*
Y437579D02*
D03*
X125110Y456036D02*
D03*
Y449736D02*
D03*
X241430Y117513D02*
D03*
Y123812D02*
D03*
X235241D02*
D03*
Y117513D02*
D03*
X931344Y50265D02*
D03*
Y56564D02*
D03*
X543903Y412290D02*
D03*
Y405991D02*
D03*
X537603Y412290D02*
D03*
Y405991D02*
D03*
X371503Y443890D02*
D03*
Y450190D02*
D03*
X468003Y443790D02*
D03*
Y450090D02*
D03*
X52560Y111266D02*
D03*
Y117565D02*
D03*
X58560Y111266D02*
D03*
Y117565D02*
D03*
X338846Y52854D02*
D03*
Y46555D02*
D03*
Y71555D02*
D03*
Y77854D02*
D03*
Y103854D02*
D03*
Y97555D02*
D03*
Y122555D02*
D03*
Y128854D02*
D03*
X719046Y431475D02*
D03*
Y437774D02*
D03*
X713046D02*
D03*
Y431475D02*
D03*
X759946Y431275D02*
D03*
Y437574D02*
D03*
X765946D02*
D03*
Y431275D02*
D03*
X751636Y440289D02*
D03*
Y433990D02*
D03*
X475194Y406693D02*
D03*
Y400393D02*
D03*
D143*
X502573Y430096D02*
D03*
X520290D02*
D03*
D144*
X77362Y285830D02*
D03*
X71456D02*
D03*
Y281105D02*
D03*
X77362D02*
D03*
D145*
X56000Y448535D02*
D03*
D146*
X80213Y457591D02*
D03*
Y439480D02*
D03*
D147*
X508474Y86449D02*
D03*
X504734D02*
D03*
X500994D02*
D03*
Y77000D02*
D03*
X508474D02*
D03*
X610648Y77002D02*
D03*
X603168D02*
D03*
Y86450D02*
D03*
X606908D02*
D03*
X610648D02*
D03*
X406732Y64633D02*
D03*
X402992D02*
D03*
X399252D02*
D03*
Y55184D02*
D03*
X406732D02*
D03*
D148*
X71835Y122676D02*
D03*
Y130156D02*
D03*
X81284D02*
D03*
Y126416D02*
D03*
Y122676D02*
D03*
D149*
X500994Y145538D02*
D03*
X504734D02*
D03*
X508474D02*
D03*
Y134711D02*
D03*
X504734D02*
D03*
X500994D02*
D03*
X603168Y134713D02*
D03*
X606908D02*
D03*
X610648D02*
D03*
Y145539D02*
D03*
X606908D02*
D03*
X603168D02*
D03*
X399252Y125822D02*
D03*
X402992D02*
D03*
X406732D02*
D03*
Y114995D02*
D03*
X402992D02*
D03*
X399252D02*
D03*
D150*
X130639Y130081D02*
D03*
Y126341D02*
D03*
Y122601D02*
D03*
X141465D02*
D03*
Y126341D02*
D03*
Y130081D02*
D03*
D151*
X515734Y86614D02*
D03*
Y77835D02*
D03*
X617908Y77836D02*
D03*
Y86616D02*
D03*
X494234Y86614D02*
D03*
Y77835D02*
D03*
X596408Y77836D02*
D03*
Y86616D02*
D03*
X412992Y65298D02*
D03*
Y56519D02*
D03*
X392992Y57019D02*
D03*
Y65798D02*
D03*
X69238Y51585D02*
D03*
Y42805D02*
D03*
X69216Y58609D02*
D03*
Y67388D02*
D03*
Y83388D02*
D03*
Y74609D02*
D03*
Y90609D02*
D03*
Y99388D02*
D03*
D152*
X80950Y115597D02*
D03*
X72170D02*
D03*
Y136035D02*
D03*
X80950D02*
D03*
D153*
X879936Y336018D02*
D03*
Y337986D02*
D03*
Y339955D02*
D03*
Y341923D02*
D03*
Y343892D02*
D03*
Y345861D02*
D03*
X864975D02*
D03*
Y343892D02*
D03*
Y341923D02*
D03*
Y339955D02*
D03*
Y337986D02*
D03*
Y336018D02*
D03*
D154*
X877377Y348419D02*
D03*
X875408D02*
D03*
X873440D02*
D03*
X871471D02*
D03*
X869503D02*
D03*
X867534D02*
D03*
Y333459D02*
D03*
X869503D02*
D03*
X871471D02*
D03*
X873440D02*
D03*
X875408D02*
D03*
X877377D02*
D03*
D155*
X872455Y340939D02*
D03*
D156*
X168898Y363383D02*
D03*
X175197D02*
D03*
X276017Y363617D02*
D03*
X269718D02*
D03*
X235956Y363698D02*
D03*
X242255D02*
D03*
X207915Y363816D02*
D03*
X201616D02*
D03*
X119580Y379726D02*
D03*
X113280D02*
D03*
X113139Y390055D02*
D03*
X119438D02*
D03*
X119580Y400326D02*
D03*
X113280D02*
D03*
X372853Y456540D02*
D03*
X366554D02*
D03*
X462754D02*
D03*
X469053D02*
D03*
D157*
X331846Y52854D02*
D03*
Y46555D02*
D03*
Y71555D02*
D03*
Y77854D02*
D03*
Y103854D02*
D03*
Y97555D02*
D03*
Y122555D02*
D03*
Y128854D02*
D03*
D158*
X533728Y75203D02*
D03*
Y66343D02*
D03*
X548098Y75201D02*
D03*
Y66343D02*
D03*
X650273Y66344D02*
D03*
Y75202D02*
D03*
X635902Y66344D02*
D03*
Y75204D02*
D03*
D159*
X246976Y406946D02*
D03*
Y417183D02*
D03*
X186752Y417271D02*
D03*
Y407035D02*
D03*
X125441Y414697D02*
D03*
Y424933D02*
D03*
D160*
X385785Y411140D02*
D03*
X396021D02*
D03*
X473509Y412753D02*
D03*
X463272D02*
D03*
D161*
X494734Y92740D02*
D03*
Y128724D02*
D03*
X514734D02*
D03*
X504734D02*
D03*
X514734Y92740D02*
D03*
X504891D02*
D03*
X607065Y92742D02*
D03*
X616908D02*
D03*
X606908Y128726D02*
D03*
X616908D02*
D03*
X596908D02*
D03*
Y92742D02*
D03*
X392992Y71924D02*
D03*
Y107909D02*
D03*
X412992D02*
D03*
X402992D02*
D03*
X412992Y71924D02*
D03*
X403150D02*
D03*
D162*
X88068Y126183D02*
D03*
Y116341D02*
D03*
X124052Y126341D02*
D03*
Y116341D02*
D03*
Y136341D02*
D03*
X88068D02*
D03*
D163*
X290286Y385518D02*
D03*
X262727D02*
D03*
X202084Y385924D02*
D03*
X229643D02*
D03*
X169181Y385870D02*
D03*
X141622D02*
D03*
D164*
X924572Y37060D02*
D03*
Y39619D02*
D03*
Y42178D02*
D03*
Y44737D02*
D03*
Y47296D02*
D03*
Y49855D02*
D03*
Y52414D02*
D03*
X900557Y37060D02*
D03*
Y39619D02*
D03*
Y42178D02*
D03*
Y44737D02*
D03*
Y47296D02*
D03*
Y49855D02*
D03*
X839557D02*
D03*
Y47296D02*
D03*
Y44737D02*
D03*
Y42178D02*
D03*
Y39619D02*
D03*
Y37060D02*
D03*
X863572Y52414D02*
D03*
Y49855D02*
D03*
Y47296D02*
D03*
Y44737D02*
D03*
Y42178D02*
D03*
Y39619D02*
D03*
Y37060D02*
D03*
D165*
X900557Y52414D02*
D03*
X839557D02*
D03*
D166*
X516563Y416277D02*
D03*
X499043D02*
D03*
Y414309D02*
D03*
Y412340D02*
D03*
Y410372D02*
D03*
Y408403D02*
D03*
X516563Y414309D02*
D03*
Y412340D02*
D03*
Y410372D02*
D03*
Y408403D02*
D03*
D167*
X507803Y412340D02*
D03*
D168*
X855039Y354029D02*
D03*
X1317005Y184842D02*
D03*
X1197005Y184842D02*
D03*
X1077005D02*
D03*
X957005D02*
D03*
X837005D02*
D03*
X1281375Y185039D02*
D03*
X1161375Y185039D02*
D03*
X1041375D02*
D03*
X921375D02*
D03*
X801375D02*
D03*
X432831Y174765D02*
D03*
X843005Y176659D02*
D03*
X963005Y176659D02*
D03*
X1083005D02*
D03*
X1203005D02*
D03*
X1323005D02*
D03*
X478611Y177720D02*
D03*
X598524Y177559D02*
D03*
X718610Y177855D02*
D03*
X19828Y277076D02*
D03*
X9453Y286989D02*
D03*
X484669Y215968D02*
D03*
X604669Y215968D02*
D03*
X724669D02*
D03*
X434575Y212968D02*
D03*
X554575Y212968D02*
D03*
X674575D02*
D03*
X477669Y212968D02*
D03*
X597669Y212968D02*
D03*
X717669D02*
D03*
X441575Y207968D02*
D03*
X561575Y207968D02*
D03*
X681575D02*
D03*
X483669Y205968D02*
D03*
X603669Y205968D02*
D03*
X723669D02*
D03*
X433575Y202969D02*
D03*
X553575Y202969D02*
D03*
X673575D02*
D03*
X476669Y202969D02*
D03*
X596669Y202969D02*
D03*
X716669D02*
D03*
X441575Y198969D02*
D03*
X561575Y198969D02*
D03*
X681575D02*
D03*
X483669Y196968D02*
D03*
X603669Y196968D02*
D03*
X723669D02*
D03*
X433575Y193968D02*
D03*
X553575Y193968D02*
D03*
X673575D02*
D03*
X476669Y192968D02*
D03*
X596669Y192968D02*
D03*
X716669D02*
D03*
X441575Y188969D02*
D03*
X561575Y188969D02*
D03*
X681575D02*
D03*
X796213Y199969D02*
D03*
X916213D02*
D03*
X1036213D02*
D03*
X1156213D02*
D03*
X1276213Y199969D02*
D03*
X841213Y199969D02*
D03*
X961213D02*
D03*
X1081213D02*
D03*
X1201213D02*
D03*
X1321213Y199969D02*
D03*
X796213Y179969D02*
D03*
X916213D02*
D03*
X1036213D02*
D03*
X1156213D02*
D03*
X1276213Y179969D02*
D03*
X843110Y183071D02*
D03*
X963110D02*
D03*
X1083110D02*
D03*
X1203110D02*
D03*
X1323110Y183071D02*
D03*
X791213Y174969D02*
D03*
X911213D02*
D03*
X1031213D02*
D03*
X1151213D02*
D03*
X1271213Y174969D02*
D03*
X550152Y59268D02*
D03*
X652326Y59269D02*
D03*
X295816Y428032D02*
D03*
X235174Y427244D02*
D03*
X175031Y428524D02*
D03*
X48998Y329443D02*
D03*
X931344Y43414D02*
D03*
X405992Y38909D02*
D03*
X441303Y434040D02*
D03*
X425638Y410968D02*
D03*
X423403Y400140D02*
D03*
X521003Y440840D02*
D03*
X480503Y403740D02*
D03*
X53560Y124416D02*
D03*
X77953Y218110D02*
D03*
X78740Y187008D02*
D03*
D169*
X259338Y189453D02*
D03*
Y171067D02*
D03*
X257370Y189453D02*
D03*
Y171067D02*
D03*
X255401Y189453D02*
D03*
Y171067D02*
D03*
X253433Y189453D02*
D03*
Y171067D02*
D03*
X251465Y189453D02*
D03*
Y171067D02*
D03*
X249496Y189453D02*
D03*
Y171067D02*
D03*
X247528Y189453D02*
D03*
Y171067D02*
D03*
X245559Y189453D02*
D03*
Y171067D02*
D03*
X243590Y189453D02*
D03*
Y171067D02*
D03*
X241622Y189453D02*
D03*
Y171067D02*
D03*
X239653Y189453D02*
D03*
Y171067D02*
D03*
X237685Y189453D02*
D03*
Y171067D02*
D03*
X235717Y189453D02*
D03*
Y171067D02*
D03*
X233748Y189453D02*
D03*
Y171067D02*
D03*
X231780Y189453D02*
D03*
Y171067D02*
D03*
X229811Y189453D02*
D03*
Y171067D02*
D03*
X227842Y189453D02*
D03*
Y171067D02*
D03*
X225874Y189453D02*
D03*
Y171067D02*
D03*
X223905Y189453D02*
D03*
Y171067D02*
D03*
X221937Y189453D02*
D03*
Y171067D02*
D03*
X219969Y189453D02*
D03*
Y171067D02*
D03*
X218000Y189453D02*
D03*
Y171067D02*
D03*
X216032Y189453D02*
D03*
Y171067D02*
D03*
X214063Y189453D02*
D03*
Y171067D02*
D03*
X212094Y189453D02*
D03*
Y171067D02*
D03*
X210126Y189453D02*
D03*
Y171067D02*
D03*
X208157Y189453D02*
D03*
Y171067D02*
D03*
X206189Y189453D02*
D03*
Y171067D02*
D03*
X204220Y189453D02*
D03*
Y171067D02*
D03*
X202252Y189453D02*
D03*
Y171067D02*
D03*
X182567D02*
D03*
Y189453D02*
D03*
X184535Y171067D02*
D03*
Y189453D02*
D03*
X186504Y171067D02*
D03*
Y189453D02*
D03*
X188472Y171067D02*
D03*
Y189453D02*
D03*
X190441Y171067D02*
D03*
Y189453D02*
D03*
X192409Y171067D02*
D03*
Y189453D02*
D03*
X194378Y171067D02*
D03*
Y189453D02*
D03*
X196346Y171067D02*
D03*
Y189453D02*
D03*
X198315Y171067D02*
D03*
Y189453D02*
D03*
X200283Y171067D02*
D03*
Y189453D02*
D03*
X162882Y171067D02*
D03*
Y189453D02*
D03*
X164850Y171067D02*
D03*
Y189453D02*
D03*
X166819Y171067D02*
D03*
Y189453D02*
D03*
X168787Y171067D02*
D03*
Y189453D02*
D03*
X170756Y171067D02*
D03*
Y189453D02*
D03*
X172724Y171067D02*
D03*
Y189453D02*
D03*
X174693Y171067D02*
D03*
Y189453D02*
D03*
X176661Y171067D02*
D03*
Y189453D02*
D03*
X178630Y171067D02*
D03*
Y189453D02*
D03*
X180598Y171067D02*
D03*
Y189453D02*
D03*
X153039Y171067D02*
D03*
Y189453D02*
D03*
X155008Y171067D02*
D03*
Y189453D02*
D03*
X156976Y171067D02*
D03*
Y189453D02*
D03*
X158945Y171067D02*
D03*
Y189453D02*
D03*
X160913Y171067D02*
D03*
Y189453D02*
D03*
X279024D02*
D03*
Y171067D02*
D03*
X277055Y189453D02*
D03*
Y171067D02*
D03*
X275087Y189453D02*
D03*
Y171067D02*
D03*
X273118Y189453D02*
D03*
Y171067D02*
D03*
X271150Y189453D02*
D03*
Y171067D02*
D03*
X269181Y189453D02*
D03*
Y171067D02*
D03*
X267213Y189453D02*
D03*
Y171067D02*
D03*
X265244Y189453D02*
D03*
Y171067D02*
D03*
X263276Y189453D02*
D03*
Y171067D02*
D03*
X261307Y189453D02*
D03*
Y171067D02*
D03*
X298709Y189453D02*
D03*
Y171067D02*
D03*
X296740Y189453D02*
D03*
Y171067D02*
D03*
X294772Y189453D02*
D03*
Y171067D02*
D03*
X292803Y189453D02*
D03*
Y171067D02*
D03*
X290835Y189453D02*
D03*
Y171067D02*
D03*
X288866Y189453D02*
D03*
Y171067D02*
D03*
X286898Y189453D02*
D03*
Y171067D02*
D03*
X284929Y189453D02*
D03*
Y171067D02*
D03*
X282961Y189453D02*
D03*
Y171067D02*
D03*
X280992Y189453D02*
D03*
Y171067D02*
D03*
X308551Y189453D02*
D03*
Y171067D02*
D03*
X306583Y189453D02*
D03*
Y171067D02*
D03*
X304614Y189453D02*
D03*
Y171067D02*
D03*
X302646Y189453D02*
D03*
Y171067D02*
D03*
X300677Y189453D02*
D03*
Y171067D02*
D03*
Y322248D02*
D03*
Y340634D02*
D03*
X302646Y322248D02*
D03*
Y340634D02*
D03*
X304614Y322248D02*
D03*
Y340634D02*
D03*
X306583Y322248D02*
D03*
Y340634D02*
D03*
X308551Y322248D02*
D03*
Y340634D02*
D03*
X280992Y322248D02*
D03*
Y340634D02*
D03*
X282961Y322248D02*
D03*
Y340634D02*
D03*
X284929Y322248D02*
D03*
Y340634D02*
D03*
X286898Y322248D02*
D03*
Y340634D02*
D03*
X288866Y322248D02*
D03*
Y340634D02*
D03*
X290835Y322248D02*
D03*
Y340634D02*
D03*
X292803Y322248D02*
D03*
Y340634D02*
D03*
X294772Y322248D02*
D03*
Y340634D02*
D03*
X296740Y322248D02*
D03*
Y340634D02*
D03*
X298709Y322248D02*
D03*
Y340634D02*
D03*
X261307Y322248D02*
D03*
Y340634D02*
D03*
X263276Y322248D02*
D03*
Y340634D02*
D03*
X265244Y322248D02*
D03*
Y340634D02*
D03*
X267213Y322248D02*
D03*
Y340634D02*
D03*
X269181Y322248D02*
D03*
Y340634D02*
D03*
X271150Y322248D02*
D03*
Y340634D02*
D03*
X273118Y322248D02*
D03*
Y340634D02*
D03*
X275087Y322248D02*
D03*
Y340634D02*
D03*
X277055Y322248D02*
D03*
Y340634D02*
D03*
X279024Y322248D02*
D03*
Y340634D02*
D03*
X160913D02*
D03*
Y322248D02*
D03*
X158945Y340634D02*
D03*
Y322248D02*
D03*
X156976Y340634D02*
D03*
Y322248D02*
D03*
X155008Y340634D02*
D03*
Y322248D02*
D03*
X153039Y340634D02*
D03*
Y322248D02*
D03*
X180598Y340634D02*
D03*
Y322248D02*
D03*
X178630Y340634D02*
D03*
Y322248D02*
D03*
X176661Y340634D02*
D03*
Y322248D02*
D03*
X174693Y340634D02*
D03*
Y322248D02*
D03*
X172724Y340634D02*
D03*
Y322248D02*
D03*
X170756Y340634D02*
D03*
Y322248D02*
D03*
X168787Y340634D02*
D03*
Y322248D02*
D03*
X166819Y340634D02*
D03*
Y322248D02*
D03*
X164850Y340634D02*
D03*
Y322248D02*
D03*
X162882Y340634D02*
D03*
Y322248D02*
D03*
X200283Y340634D02*
D03*
Y322248D02*
D03*
X198315Y340634D02*
D03*
Y322248D02*
D03*
X196346Y340634D02*
D03*
Y322248D02*
D03*
X194378Y340634D02*
D03*
Y322248D02*
D03*
X192409Y340634D02*
D03*
Y322248D02*
D03*
X190441Y340634D02*
D03*
Y322248D02*
D03*
X188472Y340634D02*
D03*
Y322248D02*
D03*
X186504Y340634D02*
D03*
Y322248D02*
D03*
X184535Y340634D02*
D03*
Y322248D02*
D03*
X182567Y340634D02*
D03*
Y322248D02*
D03*
X202252D02*
D03*
Y340634D02*
D03*
X204220Y322248D02*
D03*
Y340634D02*
D03*
X206189Y322248D02*
D03*
Y340634D02*
D03*
X208157Y322248D02*
D03*
Y340634D02*
D03*
X210126Y322248D02*
D03*
Y340634D02*
D03*
X212094Y322248D02*
D03*
Y340634D02*
D03*
X214063Y322248D02*
D03*
Y340634D02*
D03*
X216032Y322248D02*
D03*
Y340634D02*
D03*
X218000Y322248D02*
D03*
Y340634D02*
D03*
X219969Y322248D02*
D03*
Y340634D02*
D03*
X221937Y322248D02*
D03*
Y340634D02*
D03*
X223905Y322248D02*
D03*
Y340634D02*
D03*
X225874Y322248D02*
D03*
Y340634D02*
D03*
X227842Y322248D02*
D03*
Y340634D02*
D03*
X229811Y322248D02*
D03*
Y340634D02*
D03*
X231780Y322248D02*
D03*
Y340634D02*
D03*
X233748Y322248D02*
D03*
Y340634D02*
D03*
X235717Y322248D02*
D03*
Y340634D02*
D03*
X237685Y322248D02*
D03*
Y340634D02*
D03*
X239653Y322248D02*
D03*
Y340634D02*
D03*
X241622Y322248D02*
D03*
Y340634D02*
D03*
X243590Y322248D02*
D03*
Y340634D02*
D03*
X245559Y322248D02*
D03*
Y340634D02*
D03*
X247528Y322248D02*
D03*
Y340634D02*
D03*
X249496Y322248D02*
D03*
Y340634D02*
D03*
X251465Y322248D02*
D03*
Y340634D02*
D03*
X253433Y322248D02*
D03*
Y340634D02*
D03*
X255401Y322248D02*
D03*
Y340634D02*
D03*
X257370Y322248D02*
D03*
Y340634D02*
D03*
X259338Y322248D02*
D03*
Y340634D02*
D03*
D170*
X119240Y284394D02*
D03*
X137626D02*
D03*
X119240Y282425D02*
D03*
X137626D02*
D03*
X119240Y280457D02*
D03*
X137626D02*
D03*
X119240Y278488D02*
D03*
X137626D02*
D03*
X119240Y276520D02*
D03*
X137626D02*
D03*
X119240Y274551D02*
D03*
X137626D02*
D03*
X119240Y272583D02*
D03*
X137626D02*
D03*
X119240Y270614D02*
D03*
X137626D02*
D03*
X119240Y268646D02*
D03*
X137626D02*
D03*
X119240Y266677D02*
D03*
X137626D02*
D03*
X119240Y264709D02*
D03*
X137626D02*
D03*
X119240Y262740D02*
D03*
X137626D02*
D03*
X119240Y260772D02*
D03*
X137626D02*
D03*
X119240Y258803D02*
D03*
X137626D02*
D03*
X119240Y256835D02*
D03*
X137626D02*
D03*
X119240Y254866D02*
D03*
X137626D02*
D03*
X119240Y252898D02*
D03*
X137626D02*
D03*
X119240Y250929D02*
D03*
X137626D02*
D03*
X119240Y248961D02*
D03*
X137626D02*
D03*
X119240Y246992D02*
D03*
X137626D02*
D03*
X119240Y245024D02*
D03*
X137626D02*
D03*
X119240Y243055D02*
D03*
X137626D02*
D03*
X119240Y241087D02*
D03*
X137626D02*
D03*
X119240Y239118D02*
D03*
X137626D02*
D03*
X119240Y237150D02*
D03*
X137626D02*
D03*
X119240Y235181D02*
D03*
X137626D02*
D03*
X119240Y233213D02*
D03*
X137626D02*
D03*
X119240Y231244D02*
D03*
X137626D02*
D03*
X119240Y229276D02*
D03*
X137626D02*
D03*
X119240Y227307D02*
D03*
X137626D02*
D03*
Y207622D02*
D03*
X119240D02*
D03*
X137626Y209591D02*
D03*
X119240D02*
D03*
X137626Y211559D02*
D03*
X119240D02*
D03*
X137626Y213528D02*
D03*
X119240D02*
D03*
X137626Y215496D02*
D03*
X119240D02*
D03*
X137626Y217465D02*
D03*
X119240D02*
D03*
X137626Y219433D02*
D03*
X119240D02*
D03*
X137626Y221402D02*
D03*
X119240D02*
D03*
X137626Y223370D02*
D03*
X119240D02*
D03*
X137626Y225339D02*
D03*
X119240D02*
D03*
X137626Y187937D02*
D03*
X119240D02*
D03*
X137626Y189906D02*
D03*
X119240D02*
D03*
X137626Y191874D02*
D03*
X119240D02*
D03*
X137626Y193842D02*
D03*
X119240D02*
D03*
X137626Y195811D02*
D03*
X119240D02*
D03*
X137626Y197780D02*
D03*
X119240D02*
D03*
X137626Y199748D02*
D03*
X119240D02*
D03*
X137626Y201716D02*
D03*
X119240D02*
D03*
X137626Y203685D02*
D03*
X119240D02*
D03*
X137626Y205654D02*
D03*
X119240D02*
D03*
X137626Y178094D02*
D03*
X119240D02*
D03*
X137626Y180063D02*
D03*
X119240D02*
D03*
X137626Y182032D02*
D03*
X119240D02*
D03*
X137626Y184000D02*
D03*
X119240D02*
D03*
X137626Y185968D02*
D03*
X119240D02*
D03*
Y304079D02*
D03*
X137626D02*
D03*
X119240Y302110D02*
D03*
X137626D02*
D03*
X119240Y300142D02*
D03*
X137626D02*
D03*
X119240Y298173D02*
D03*
X137626D02*
D03*
X119240Y296205D02*
D03*
X137626D02*
D03*
X119240Y294236D02*
D03*
X137626D02*
D03*
X119240Y292268D02*
D03*
X137626D02*
D03*
X119240Y290299D02*
D03*
X137626D02*
D03*
X119240Y288331D02*
D03*
X137626D02*
D03*
X119240Y286362D02*
D03*
X137626D02*
D03*
X119240Y323764D02*
D03*
X137626D02*
D03*
X119240Y321795D02*
D03*
X137626D02*
D03*
X119240Y319827D02*
D03*
X137626D02*
D03*
X119240Y317858D02*
D03*
X137626D02*
D03*
X119240Y315890D02*
D03*
X137626D02*
D03*
X119240Y313921D02*
D03*
X137626D02*
D03*
X119240Y311953D02*
D03*
X137626D02*
D03*
X119240Y309984D02*
D03*
X137626D02*
D03*
X119240Y308016D02*
D03*
X137626D02*
D03*
X119240Y306047D02*
D03*
X137626D02*
D03*
X119240Y333606D02*
D03*
X137626D02*
D03*
X119240Y331638D02*
D03*
X137626D02*
D03*
X119240Y329669D02*
D03*
X137626D02*
D03*
X119240Y327701D02*
D03*
X137626D02*
D03*
X119240Y325732D02*
D03*
X137626D02*
D03*
X342350D02*
D03*
X323965D02*
D03*
X342350Y327701D02*
D03*
X323965D02*
D03*
X342350Y329669D02*
D03*
X323965D02*
D03*
X342350Y331638D02*
D03*
X323965D02*
D03*
X342350Y333606D02*
D03*
X323965D02*
D03*
X342350Y306047D02*
D03*
X323965D02*
D03*
X342350Y308016D02*
D03*
X323965D02*
D03*
X342350Y309984D02*
D03*
X323965D02*
D03*
X342350Y311953D02*
D03*
X323965D02*
D03*
X342350Y313921D02*
D03*
X323965D02*
D03*
X342350Y315890D02*
D03*
X323965D02*
D03*
X342350Y317858D02*
D03*
X323965D02*
D03*
X342350Y319827D02*
D03*
X323965D02*
D03*
X342350Y321795D02*
D03*
X323965D02*
D03*
X342350Y323764D02*
D03*
X323965D02*
D03*
X342350Y286362D02*
D03*
X323965D02*
D03*
X342350Y288331D02*
D03*
X323965D02*
D03*
X342350Y290299D02*
D03*
X323965D02*
D03*
X342350Y292268D02*
D03*
X323965D02*
D03*
X342350Y294236D02*
D03*
X323965D02*
D03*
X342350Y296205D02*
D03*
X323965D02*
D03*
X342350Y298173D02*
D03*
X323965D02*
D03*
X342350Y300142D02*
D03*
X323965D02*
D03*
X342350Y302110D02*
D03*
X323965D02*
D03*
X342350Y304079D02*
D03*
X323965D02*
D03*
Y185968D02*
D03*
X342350D02*
D03*
X323965Y184000D02*
D03*
X342350D02*
D03*
X323965Y182032D02*
D03*
X342350D02*
D03*
X323965Y180063D02*
D03*
X342350D02*
D03*
X323965Y178094D02*
D03*
X342350D02*
D03*
X323965Y205654D02*
D03*
X342350D02*
D03*
X323965Y203685D02*
D03*
X342350D02*
D03*
X323965Y201716D02*
D03*
X342350D02*
D03*
X323965Y199748D02*
D03*
X342350D02*
D03*
X323965Y197780D02*
D03*
X342350D02*
D03*
X323965Y195811D02*
D03*
X342350D02*
D03*
X323965Y193842D02*
D03*
X342350D02*
D03*
X323965Y191874D02*
D03*
X342350D02*
D03*
X323965Y189906D02*
D03*
X342350D02*
D03*
X323965Y187937D02*
D03*
X342350D02*
D03*
X323965Y225339D02*
D03*
X342350D02*
D03*
X323965Y223370D02*
D03*
X342350D02*
D03*
X323965Y221402D02*
D03*
X342350D02*
D03*
X323965Y219433D02*
D03*
X342350D02*
D03*
X323965Y217465D02*
D03*
X342350D02*
D03*
X323965Y215496D02*
D03*
X342350D02*
D03*
X323965Y213528D02*
D03*
X342350D02*
D03*
X323965Y211559D02*
D03*
X342350D02*
D03*
X323965Y209591D02*
D03*
X342350D02*
D03*
X323965Y207622D02*
D03*
X342350D02*
D03*
Y227307D02*
D03*
X323965D02*
D03*
X342350Y229276D02*
D03*
X323965D02*
D03*
X342350Y231244D02*
D03*
X323965D02*
D03*
X342350Y233213D02*
D03*
X323965D02*
D03*
X342350Y235181D02*
D03*
X323965D02*
D03*
X342350Y237150D02*
D03*
X323965D02*
D03*
X342350Y239118D02*
D03*
X323965D02*
D03*
X342350Y241087D02*
D03*
X323965D02*
D03*
X342350Y243055D02*
D03*
X323965D02*
D03*
X342350Y245024D02*
D03*
X323965D02*
D03*
X342350Y246992D02*
D03*
X323965D02*
D03*
X342350Y248961D02*
D03*
X323965D02*
D03*
X342350Y250929D02*
D03*
X323965D02*
D03*
X342350Y252898D02*
D03*
X323965D02*
D03*
X342350Y254866D02*
D03*
X323965D02*
D03*
X342350Y256835D02*
D03*
X323965D02*
D03*
X342350Y258803D02*
D03*
X323965D02*
D03*
X342350Y260772D02*
D03*
X323965D02*
D03*
X342350Y262740D02*
D03*
X323965D02*
D03*
X342350Y264709D02*
D03*
X323965D02*
D03*
X342350Y266677D02*
D03*
X323965D02*
D03*
X342350Y268646D02*
D03*
X323965D02*
D03*
X342350Y270614D02*
D03*
X323965D02*
D03*
X342350Y272583D02*
D03*
X323965D02*
D03*
X342350Y274551D02*
D03*
X323965D02*
D03*
X342350Y276520D02*
D03*
X323965D02*
D03*
X342350Y278488D02*
D03*
X323965D02*
D03*
X342350Y280457D02*
D03*
X323965D02*
D03*
X342350Y282425D02*
D03*
X323965D02*
D03*
X342350Y284394D02*
D03*
X323965D02*
D03*
D171*
X243195Y436336D02*
D03*
X239454Y444210D02*
D03*
X246935D02*
D03*
X185629Y444568D02*
D03*
X178149D02*
D03*
X181889Y436694D02*
D03*
D172*
X117647Y466165D02*
D03*
X125521Y469906D02*
D03*
Y462425D02*
D03*
X83096Y432386D02*
D03*
Y424906D02*
D03*
X90970Y428646D02*
D03*
D173*
X563522Y69004D02*
D03*
X555451Y65067D02*
D03*
Y72941D02*
D03*
X657625Y72943D02*
D03*
Y65069D02*
D03*
X665696Y69006D02*
D03*
D174*
X187005Y353149D02*
D03*
X176769Y349409D02*
D03*
Y356890D02*
D03*
X276281Y356298D02*
D03*
Y348817D02*
D03*
X286517Y352557D02*
D03*
X252780Y352810D02*
D03*
X242543Y349069D02*
D03*
Y356550D02*
D03*
X208095Y356661D02*
D03*
Y349180D02*
D03*
X218331Y352921D02*
D03*
X88228Y258705D02*
D03*
X98465Y262446D02*
D03*
Y254965D02*
D03*
X98372Y234098D02*
D03*
Y241578D02*
D03*
X88135Y237838D02*
D03*
X355965Y50705D02*
D03*
X345728Y46965D02*
D03*
Y54445D02*
D03*
Y79445D02*
D03*
Y71965D02*
D03*
X355965Y75705D02*
D03*
Y101705D02*
D03*
X345728Y97965D02*
D03*
Y105445D02*
D03*
Y130445D02*
D03*
Y122965D02*
D03*
X355965Y126705D02*
D03*
D175*
X382603Y449658D02*
D03*
X386343Y439422D02*
D03*
X378863D02*
D03*
X475063Y439522D02*
D03*
X482543D02*
D03*
X478803Y449758D02*
D03*
D176*
X560234Y128819D02*
D03*
X555234D02*
D03*
X550234D02*
D03*
X545234D02*
D03*
X540234D02*
D03*
X535234D02*
D03*
X530234D02*
D03*
X525234D02*
D03*
X560234Y90630D02*
D03*
X555234D02*
D03*
X550234D02*
D03*
X545234D02*
D03*
X540234D02*
D03*
X535234D02*
D03*
X530234D02*
D03*
X525234D02*
D03*
X627408Y90632D02*
D03*
X632408D02*
D03*
X637408D02*
D03*
X642408D02*
D03*
X647408D02*
D03*
X652408D02*
D03*
X657408D02*
D03*
X662408D02*
D03*
X627408Y128821D02*
D03*
X632408D02*
D03*
X637408D02*
D03*
X642408D02*
D03*
X647408D02*
D03*
X652408D02*
D03*
X657408D02*
D03*
X662408D02*
D03*
D177*
X187795Y363383D02*
D03*
X181496D02*
D03*
X281961Y363649D02*
D03*
X288261D02*
D03*
X248245Y363702D02*
D03*
X254544D02*
D03*
X213685Y363684D02*
D03*
X219984D02*
D03*
X255833Y314487D02*
D03*
X249534D02*
D03*
Y308587D02*
D03*
X255833D02*
D03*
X278135Y308334D02*
D03*
X271836D02*
D03*
X829897Y411604D02*
D03*
X836196D02*
D03*
Y423404D02*
D03*
X829897D02*
D03*
Y417504D02*
D03*
X836196D02*
D03*
X836216Y429439D02*
D03*
X829916D02*
D03*
X799150Y167000D02*
D03*
X792850D02*
D03*
X912850D02*
D03*
X919150D02*
D03*
X849258Y176272D02*
D03*
X855558D02*
D03*
X1032850Y167000D02*
D03*
X1039150D02*
D03*
X969258Y176272D02*
D03*
X975558D02*
D03*
X1152850Y167000D02*
D03*
X1159150D02*
D03*
X1089258Y176272D02*
D03*
X1095557D02*
D03*
X1272850Y167000D02*
D03*
X1279150D02*
D03*
X1209258Y176272D02*
D03*
X1215557D02*
D03*
X433069Y181644D02*
D03*
X439368D02*
D03*
X1329258Y176272D02*
D03*
X1335557D02*
D03*
X553076Y181502D02*
D03*
X559376D02*
D03*
X478724Y183111D02*
D03*
X485024D02*
D03*
X672876Y181902D02*
D03*
X679176D02*
D03*
X598724Y183110D02*
D03*
X605024D02*
D03*
X725024D02*
D03*
X718724D02*
D03*
X102196Y248205D02*
D03*
X95897D02*
D03*
X83897D02*
D03*
X90196D02*
D03*
X90303Y227638D02*
D03*
X84004D02*
D03*
X95904D02*
D03*
X102203D02*
D03*
X840276Y161638D02*
D03*
X846575D02*
D03*
X966575D02*
D03*
X960276D02*
D03*
X1080276D02*
D03*
X1086575D02*
D03*
X1206575D02*
D03*
X1200276D02*
D03*
X1320276Y161638D02*
D03*
X1326575D02*
D03*
X840276Y155638D02*
D03*
X846575D02*
D03*
X966575D02*
D03*
X960276D02*
D03*
X1080276D02*
D03*
X1086575D02*
D03*
X1206575D02*
D03*
X1200276D02*
D03*
X1320276Y155638D02*
D03*
X1326575D02*
D03*
X547583Y81618D02*
D03*
X541284D02*
D03*
X643458Y81620D02*
D03*
X649757D02*
D03*
X535583Y81618D02*
D03*
X529284D02*
D03*
X631458Y81620D02*
D03*
X637757D02*
D03*
X522795Y66380D02*
D03*
X516496D02*
D03*
X618670Y66382D02*
D03*
X624969D02*
D03*
X232871Y71562D02*
D03*
X239170D02*
D03*
X279913Y120148D02*
D03*
X286212D02*
D03*
X292188Y120163D02*
D03*
X298487D02*
D03*
X257308Y120546D02*
D03*
X263607D02*
D03*
X885194Y53414D02*
D03*
X891494D02*
D03*
Y47414D02*
D03*
X885194D02*
D03*
Y41414D02*
D03*
X891494D02*
D03*
Y35414D02*
D03*
X885194D02*
D03*
X879494D02*
D03*
X873195D02*
D03*
Y41414D02*
D03*
X879494D02*
D03*
Y47414D02*
D03*
X873195D02*
D03*
X879494Y53414D02*
D03*
X873195D02*
D03*
X418642Y37909D02*
D03*
X412343D02*
D03*
X418642Y43909D02*
D03*
X412343D02*
D03*
X409754Y400840D02*
D03*
X416053D02*
D03*
X412854Y449240D02*
D03*
X419153D02*
D03*
X406953D02*
D03*
X400654D02*
D03*
X406953Y455340D02*
D03*
X400654D02*
D03*
X537554Y399740D02*
D03*
X543853D02*
D03*
X385453Y456440D02*
D03*
X379154D02*
D03*
X525054Y402340D02*
D03*
X531353D02*
D03*
X494054Y401340D02*
D03*
X500353D02*
D03*
X475554Y456440D02*
D03*
X481853D02*
D03*
X148310Y63392D02*
D03*
X154609D02*
D03*
X53387Y44195D02*
D03*
X47088D02*
D03*
X47066Y59998D02*
D03*
X53365D02*
D03*
Y75998D02*
D03*
X47066D02*
D03*
Y91998D02*
D03*
X53365D02*
D03*
X81387Y41195D02*
D03*
X75088D02*
D03*
X75066Y56998D02*
D03*
X81365D02*
D03*
Y72998D02*
D03*
X75066D02*
D03*
Y88998D02*
D03*
X81365D02*
D03*
X47088Y50195D02*
D03*
X53387D02*
D03*
X53365Y65998D02*
D03*
X47066D02*
D03*
Y81998D02*
D03*
X53365D02*
D03*
Y97998D02*
D03*
X47066D02*
D03*
X93764Y449669D02*
D03*
X87465D02*
D03*
X93676Y438132D02*
D03*
X87376D02*
D03*
X338996Y59705D02*
D03*
X332697D02*
D03*
Y84705D02*
D03*
X338996D02*
D03*
Y110705D02*
D03*
X332697D02*
D03*
Y135705D02*
D03*
X338996D02*
D03*
X474513Y395498D02*
D03*
X480813D02*
D03*
X430408Y401550D02*
D03*
X436707D02*
D03*
X436707Y406569D02*
D03*
X430408D02*
D03*
D178*
X429198Y442640D02*
D03*
X441009D02*
D03*
X504902Y462509D02*
D03*
X528524D02*
D03*
X516713D02*
D03*
D179*
X411903Y424340D02*
D03*
D180*
X417415Y427293D02*
D03*
Y425324D02*
D03*
Y423356D02*
D03*
Y421387D02*
D03*
X406391D02*
D03*
Y423356D02*
D03*
Y425324D02*
D03*
Y427293D02*
D03*
D181*
X414856Y418828D02*
D03*
X412887D02*
D03*
X410919D02*
D03*
X408950D02*
D03*
Y429852D02*
D03*
X410919D02*
D03*
X412887D02*
D03*
X414856D02*
D03*
D182*
X27541Y302184D02*
D03*
Y300216D02*
D03*
Y298247D02*
D03*
Y296279D02*
D03*
Y294310D02*
D03*
Y292342D02*
D03*
Y290373D02*
D03*
Y288405D02*
D03*
Y286436D02*
D03*
Y284468D02*
D03*
Y282499D02*
D03*
Y280531D02*
D03*
Y278562D02*
D03*
Y276594D02*
D03*
X58565D02*
D03*
Y278562D02*
D03*
Y280531D02*
D03*
Y282499D02*
D03*
Y284468D02*
D03*
Y286436D02*
D03*
Y288405D02*
D03*
Y290373D02*
D03*
Y292342D02*
D03*
Y294310D02*
D03*
Y296279D02*
D03*
Y298247D02*
D03*
Y300216D02*
D03*
Y302184D02*
D03*
D183*
X30257Y273877D02*
D03*
X32226D02*
D03*
X34194D02*
D03*
X36163D02*
D03*
X38131D02*
D03*
X40100D02*
D03*
X42068D02*
D03*
X44037D02*
D03*
X46005D02*
D03*
X47974D02*
D03*
X49942D02*
D03*
X51911D02*
D03*
X53879D02*
D03*
X55848D02*
D03*
Y304901D02*
D03*
X53879D02*
D03*
X51911D02*
D03*
X49942D02*
D03*
X47974D02*
D03*
X46005D02*
D03*
X44037D02*
D03*
X42068D02*
D03*
X40100D02*
D03*
X38131D02*
D03*
X36163D02*
D03*
X34194D02*
D03*
X32226D02*
D03*
X30257D02*
D03*
D184*
X43053Y289389D02*
D03*
D185*
X78840Y350191D02*
D03*
X80809D02*
D03*
X82777D02*
D03*
X84746D02*
D03*
X86714D02*
D03*
X88683D02*
D03*
Y365546D02*
D03*
X86714D02*
D03*
X84746D02*
D03*
X82777D02*
D03*
X80809D02*
D03*
X78840D02*
D03*
D186*
X91439Y352947D02*
D03*
Y354916D02*
D03*
Y356884D02*
D03*
Y358853D02*
D03*
Y360821D02*
D03*
Y362790D02*
D03*
X76084D02*
D03*
Y360821D02*
D03*
Y358853D02*
D03*
Y356884D02*
D03*
Y354916D02*
D03*
Y352947D02*
D03*
D187*
X83761Y357869D02*
D03*
D188*
X426854Y126763D02*
D03*
D189*
X425279Y126960D02*
D03*
X423704D02*
D03*
X422130D02*
D03*
Y120858D02*
D03*
X423704D02*
D03*
X425279D02*
D03*
X426854D02*
D03*
X812538Y418856D02*
D03*
X814113D02*
D03*
X815688D02*
D03*
X817263D02*
D03*
Y409604D02*
D03*
X815688D02*
D03*
X814113D02*
D03*
X812538D02*
D03*
D190*
X419866Y126271D02*
D03*
Y124696D02*
D03*
Y123122D02*
D03*
Y121547D02*
D03*
X429118D02*
D03*
Y123122D02*
D03*
Y124696D02*
D03*
Y126271D02*
D03*
X817952Y416593D02*
D03*
Y415018D02*
D03*
Y413443D02*
D03*
Y411868D02*
D03*
X811849D02*
D03*
Y413443D02*
D03*
Y415018D02*
D03*
D191*
X812046Y416593D02*
D03*
D192*
X272074Y91633D02*
D03*
Y94192D02*
D03*
Y96751D02*
D03*
Y99310D02*
D03*
Y101869D02*
D03*
Y104428D02*
D03*
Y106987D02*
D03*
Y109546D02*
D03*
Y112106D02*
D03*
Y114665D02*
D03*
X248846Y91633D02*
D03*
Y94192D02*
D03*
Y96751D02*
D03*
Y99310D02*
D03*
Y101869D02*
D03*
Y104428D02*
D03*
Y106987D02*
D03*
Y109546D02*
D03*
Y112106D02*
D03*
Y114665D02*
D03*
X165574Y69376D02*
D03*
Y71935D02*
D03*
Y74494D02*
D03*
Y77053D02*
D03*
Y79613D02*
D03*
Y82172D02*
D03*
Y84731D02*
D03*
Y87290D02*
D03*
Y89849D02*
D03*
Y92408D02*
D03*
X142346Y69376D02*
D03*
Y71935D02*
D03*
Y74494D02*
D03*
Y77053D02*
D03*
Y79613D02*
D03*
Y82172D02*
D03*
Y84731D02*
D03*
Y87290D02*
D03*
Y89849D02*
D03*
Y92408D02*
D03*
X751560Y405209D02*
D03*
Y407768D02*
D03*
Y410327D02*
D03*
Y412886D02*
D03*
Y415445D02*
D03*
Y418004D02*
D03*
Y420563D02*
D03*
Y423122D02*
D03*
Y425681D02*
D03*
Y428240D02*
D03*
X728332Y405209D02*
D03*
Y407768D02*
D03*
Y410327D02*
D03*
Y412886D02*
D03*
Y415445D02*
D03*
Y418004D02*
D03*
Y420563D02*
D03*
Y423122D02*
D03*
Y425681D02*
D03*
Y428240D02*
D03*
D193*
X850000Y215543D02*
D03*
Y212394D02*
D03*
X857087Y215543D02*
D03*
Y212394D02*
D03*
X977087D02*
D03*
Y215543D02*
D03*
X970000Y212394D02*
D03*
Y215543D02*
D03*
X1090000D02*
D03*
Y212394D02*
D03*
X1097087Y215543D02*
D03*
Y212394D02*
D03*
X1217087D02*
D03*
Y215543D02*
D03*
X1210000Y212394D02*
D03*
Y215543D02*
D03*
X1330000Y215543D02*
D03*
Y212394D02*
D03*
X1337087Y215543D02*
D03*
Y212394D02*
D03*
X857087Y243394D02*
D03*
Y246543D02*
D03*
X850000Y243394D02*
D03*
Y246543D02*
D03*
X970000D02*
D03*
Y243394D02*
D03*
X977087Y246543D02*
D03*
Y243394D02*
D03*
X1097087D02*
D03*
Y246543D02*
D03*
X1090000Y243394D02*
D03*
Y246543D02*
D03*
X1210000D02*
D03*
Y243394D02*
D03*
X1217087Y246543D02*
D03*
Y243394D02*
D03*
X1337087Y243394D02*
D03*
Y246543D02*
D03*
X1330000Y243394D02*
D03*
Y246543D02*
D03*
X790945Y212394D02*
D03*
Y215543D02*
D03*
X783858Y212394D02*
D03*
Y215543D02*
D03*
X903858D02*
D03*
Y212394D02*
D03*
X910945Y215543D02*
D03*
Y212394D02*
D03*
X1030945D02*
D03*
Y215543D02*
D03*
X1023858Y212394D02*
D03*
Y215543D02*
D03*
X1143858D02*
D03*
Y212394D02*
D03*
X1150945Y215543D02*
D03*
Y212394D02*
D03*
X1270945Y212394D02*
D03*
Y215543D02*
D03*
X1263858Y212394D02*
D03*
Y215543D02*
D03*
X783858Y246543D02*
D03*
Y243394D02*
D03*
X790945Y246543D02*
D03*
Y243394D02*
D03*
X910945D02*
D03*
Y246543D02*
D03*
X903858Y243394D02*
D03*
Y246543D02*
D03*
X1023858D02*
D03*
Y243394D02*
D03*
X1030945Y246543D02*
D03*
Y243394D02*
D03*
X1150945D02*
D03*
Y246543D02*
D03*
X1143858Y243394D02*
D03*
Y246543D02*
D03*
X1263858Y246543D02*
D03*
Y243394D02*
D03*
X1270945Y246543D02*
D03*
Y243394D02*
D03*
X790945Y273394D02*
D03*
Y276543D02*
D03*
X783858Y273394D02*
D03*
Y276543D02*
D03*
X903858D02*
D03*
Y273394D02*
D03*
X910945Y276543D02*
D03*
Y273394D02*
D03*
X1030945D02*
D03*
Y276543D02*
D03*
X1023858Y273394D02*
D03*
Y276543D02*
D03*
X1143858D02*
D03*
Y273394D02*
D03*
X1150945Y276543D02*
D03*
Y273394D02*
D03*
X1270945Y273394D02*
D03*
Y276543D02*
D03*
X1263858Y273394D02*
D03*
Y276543D02*
D03*
X783858Y301543D02*
D03*
Y298394D02*
D03*
X790945Y301543D02*
D03*
Y298394D02*
D03*
X910945D02*
D03*
Y301543D02*
D03*
X903858Y298394D02*
D03*
Y301543D02*
D03*
X1023858D02*
D03*
Y298394D02*
D03*
X1030945Y301543D02*
D03*
Y298394D02*
D03*
X1150945D02*
D03*
Y301543D02*
D03*
X1143858Y298394D02*
D03*
Y301543D02*
D03*
X1263858Y301543D02*
D03*
Y298394D02*
D03*
X1270945Y301543D02*
D03*
Y298394D02*
D03*
X850000Y276543D02*
D03*
Y273394D02*
D03*
X857087Y276543D02*
D03*
Y273394D02*
D03*
X977087D02*
D03*
Y276543D02*
D03*
X970000Y273394D02*
D03*
Y276543D02*
D03*
X1090000D02*
D03*
Y273394D02*
D03*
X1097087Y276543D02*
D03*
Y273394D02*
D03*
X1217087D02*
D03*
Y276543D02*
D03*
X1210000Y273394D02*
D03*
Y276543D02*
D03*
X1330000Y276543D02*
D03*
Y273394D02*
D03*
X1337087Y276543D02*
D03*
Y273394D02*
D03*
X857087Y298394D02*
D03*
Y301543D02*
D03*
X850000Y298394D02*
D03*
Y301543D02*
D03*
X970000D02*
D03*
Y298394D02*
D03*
X977087Y301543D02*
D03*
Y298394D02*
D03*
X1097087D02*
D03*
Y301543D02*
D03*
X1090000Y298394D02*
D03*
Y301543D02*
D03*
X1210000D02*
D03*
Y298394D02*
D03*
X1217087Y301543D02*
D03*
Y298394D02*
D03*
X1337087Y298394D02*
D03*
Y301543D02*
D03*
X1330000Y298394D02*
D03*
Y301543D02*
D03*
D194*
X850000Y219087D02*
D03*
Y208850D02*
D03*
X857087Y219087D02*
D03*
Y208850D02*
D03*
X977087D02*
D03*
Y219087D02*
D03*
X970000Y208850D02*
D03*
Y219087D02*
D03*
X1090000D02*
D03*
Y208850D02*
D03*
X1097087Y219087D02*
D03*
Y208850D02*
D03*
X1217087D02*
D03*
Y219087D02*
D03*
X1210000Y208850D02*
D03*
Y219087D02*
D03*
X1330000Y219087D02*
D03*
Y208850D02*
D03*
X1337087Y219087D02*
D03*
Y208850D02*
D03*
X857087Y239850D02*
D03*
Y250087D02*
D03*
X850000Y239850D02*
D03*
Y250087D02*
D03*
X970000D02*
D03*
Y239850D02*
D03*
X977087Y250087D02*
D03*
Y239850D02*
D03*
X1097087D02*
D03*
Y250087D02*
D03*
X1090000Y239850D02*
D03*
Y250087D02*
D03*
X1210000D02*
D03*
Y239850D02*
D03*
X1217087Y250087D02*
D03*
Y239850D02*
D03*
X1337087Y239850D02*
D03*
Y250087D02*
D03*
X1330000Y239850D02*
D03*
Y250087D02*
D03*
X790945Y208850D02*
D03*
Y219087D02*
D03*
X783858Y208850D02*
D03*
Y219087D02*
D03*
X903858D02*
D03*
Y208850D02*
D03*
X910945Y219087D02*
D03*
Y208850D02*
D03*
X1030945D02*
D03*
Y219087D02*
D03*
X1023858Y208850D02*
D03*
Y219087D02*
D03*
X1143858D02*
D03*
Y208850D02*
D03*
X1150945Y219087D02*
D03*
Y208850D02*
D03*
X1270945Y208850D02*
D03*
Y219087D02*
D03*
X1263858Y208850D02*
D03*
Y219087D02*
D03*
X783858Y250087D02*
D03*
Y239850D02*
D03*
X790945Y250087D02*
D03*
Y239850D02*
D03*
X910945D02*
D03*
Y250087D02*
D03*
X903858Y239850D02*
D03*
Y250087D02*
D03*
X1023858D02*
D03*
Y239850D02*
D03*
X1030945Y250087D02*
D03*
Y239850D02*
D03*
X1150945D02*
D03*
Y250087D02*
D03*
X1143858Y239850D02*
D03*
Y250087D02*
D03*
X1263858Y250087D02*
D03*
Y239850D02*
D03*
X1270945Y250087D02*
D03*
Y239850D02*
D03*
X790945Y269850D02*
D03*
Y280087D02*
D03*
X783858Y269850D02*
D03*
Y280087D02*
D03*
X903858D02*
D03*
Y269850D02*
D03*
X910945Y280087D02*
D03*
Y269850D02*
D03*
X1030945D02*
D03*
Y280087D02*
D03*
X1023858Y269850D02*
D03*
Y280087D02*
D03*
X1143858D02*
D03*
Y269850D02*
D03*
X1150945Y280087D02*
D03*
Y269850D02*
D03*
X1270945Y269850D02*
D03*
Y280087D02*
D03*
X1263858Y269850D02*
D03*
Y280087D02*
D03*
X783858Y305087D02*
D03*
Y294850D02*
D03*
X790945Y305087D02*
D03*
Y294850D02*
D03*
X910945D02*
D03*
Y305087D02*
D03*
X903858Y294850D02*
D03*
Y305087D02*
D03*
X1023858D02*
D03*
Y294850D02*
D03*
X1030945Y305087D02*
D03*
Y294850D02*
D03*
X1150945D02*
D03*
Y305087D02*
D03*
X1143858Y294850D02*
D03*
Y305087D02*
D03*
X1263858Y305087D02*
D03*
Y294850D02*
D03*
X1270945Y305087D02*
D03*
Y294850D02*
D03*
X850000Y280087D02*
D03*
Y269850D02*
D03*
X857087Y280087D02*
D03*
Y269850D02*
D03*
X977087D02*
D03*
Y280087D02*
D03*
X970000Y269850D02*
D03*
Y280087D02*
D03*
X1090000D02*
D03*
Y269850D02*
D03*
X1097087Y280087D02*
D03*
Y269850D02*
D03*
X1217087D02*
D03*
Y280087D02*
D03*
X1210000Y269850D02*
D03*
Y280087D02*
D03*
X1330000Y280087D02*
D03*
Y269850D02*
D03*
X1337087Y280087D02*
D03*
Y269850D02*
D03*
X857087Y294850D02*
D03*
Y305087D02*
D03*
X850000Y294850D02*
D03*
Y305087D02*
D03*
X970000D02*
D03*
Y294850D02*
D03*
X977087Y305087D02*
D03*
Y294850D02*
D03*
X1097087D02*
D03*
Y305087D02*
D03*
X1090000Y294850D02*
D03*
Y305087D02*
D03*
X1210000D02*
D03*
Y294850D02*
D03*
X1217087Y305087D02*
D03*
Y294850D02*
D03*
X1337087Y294850D02*
D03*
Y305087D02*
D03*
X1330000Y294850D02*
D03*
Y305087D02*
D03*
D195*
X51016Y473685D02*
D03*
X76213D02*
D03*
D196*
X877690Y290484D02*
D03*
X872099D02*
D03*
D197*
X78153Y296994D02*
D03*
Y302584D02*
D03*
D198*
X812520Y335433D02*
D03*
X825906D02*
D03*
X812520Y332283D02*
D03*
X825906D02*
D03*
X812520Y329134D02*
D03*
X825906D02*
D03*
X812520Y325984D02*
D03*
X825906D02*
D03*
X812520Y322835D02*
D03*
X825906D02*
D03*
X812520Y319685D02*
D03*
X825906D02*
D03*
X812520Y316535D02*
D03*
X825906D02*
D03*
X812520Y313386D02*
D03*
X825906D02*
D03*
X812520Y310236D02*
D03*
X825906D02*
D03*
X812520Y307087D02*
D03*
X825906D02*
D03*
X812520Y303937D02*
D03*
X825906D02*
D03*
X812520Y300787D02*
D03*
X825906D02*
D03*
X812520Y297638D02*
D03*
X825906D02*
D03*
X812520Y294488D02*
D03*
X825906D02*
D03*
X812520Y291339D02*
D03*
X825906D02*
D03*
X812520Y288189D02*
D03*
X825906D02*
D03*
X812520Y285039D02*
D03*
X825906D02*
D03*
X812520Y281890D02*
D03*
X825906D02*
D03*
X812520Y278740D02*
D03*
X825906D02*
D03*
X812520Y275591D02*
D03*
X825906D02*
D03*
X812520Y272441D02*
D03*
X825906D02*
D03*
X812520Y269291D02*
D03*
X825906D02*
D03*
X812520Y266142D02*
D03*
X825906D02*
D03*
X812520Y262992D02*
D03*
X825906D02*
D03*
X812520Y259842D02*
D03*
X825906D02*
D03*
X812520Y256693D02*
D03*
X825906D02*
D03*
X812520Y253543D02*
D03*
X825906D02*
D03*
X812520Y237795D02*
D03*
X825906D02*
D03*
X812520Y234646D02*
D03*
X825906D02*
D03*
X812520Y231496D02*
D03*
X825906D02*
D03*
X812520Y228346D02*
D03*
X825906D02*
D03*
X812520Y225197D02*
D03*
X825906D02*
D03*
X812520Y222047D02*
D03*
X825906D02*
D03*
X812520Y218898D02*
D03*
X825906D02*
D03*
X812520Y215748D02*
D03*
X825906D02*
D03*
X812520Y212598D02*
D03*
X825906D02*
D03*
X812520Y209449D02*
D03*
X825906D02*
D03*
X812520Y206299D02*
D03*
X825906D02*
D03*
X812520Y203150D02*
D03*
X825906D02*
D03*
X812520Y200000D02*
D03*
X825906D02*
D03*
X812520Y196850D02*
D03*
X825906D02*
D03*
X812520Y193701D02*
D03*
X825906D02*
D03*
X812520Y190551D02*
D03*
X825906D02*
D03*
X812520Y187402D02*
D03*
X825906D02*
D03*
X812520Y184252D02*
D03*
X825906D02*
D03*
X812520Y181102D02*
D03*
X825906D02*
D03*
X812520Y177953D02*
D03*
X825906D02*
D03*
X812520Y174803D02*
D03*
X825906D02*
D03*
X812520Y171653D02*
D03*
X825906D02*
D03*
X812520Y168504D02*
D03*
X825906D02*
D03*
X945905D02*
D03*
X932520D02*
D03*
X945905Y171653D02*
D03*
X932520D02*
D03*
X945905Y174803D02*
D03*
X932520D02*
D03*
X945905Y177953D02*
D03*
X932520D02*
D03*
X945905Y181102D02*
D03*
X932520D02*
D03*
X945905Y184252D02*
D03*
X932520D02*
D03*
X945905Y187402D02*
D03*
X932520D02*
D03*
X945905Y190551D02*
D03*
X932520D02*
D03*
X945905Y193701D02*
D03*
X932520D02*
D03*
X945905Y196850D02*
D03*
X932520D02*
D03*
X945905Y200000D02*
D03*
X932520D02*
D03*
X945905Y203150D02*
D03*
X932520D02*
D03*
X945905Y206299D02*
D03*
X932520D02*
D03*
X945905Y209449D02*
D03*
X932520D02*
D03*
X945905Y212598D02*
D03*
X932520D02*
D03*
X945905Y215748D02*
D03*
X932520D02*
D03*
X945905Y218898D02*
D03*
X932520D02*
D03*
X945905Y222047D02*
D03*
X932520D02*
D03*
X945905Y225197D02*
D03*
X932520D02*
D03*
X945905Y228346D02*
D03*
X932520D02*
D03*
X945905Y231496D02*
D03*
X932520D02*
D03*
X945905Y234646D02*
D03*
X932520D02*
D03*
X945905Y237795D02*
D03*
X932520D02*
D03*
X945905Y253543D02*
D03*
X932520D02*
D03*
X945905Y256693D02*
D03*
X932520D02*
D03*
X945905Y259842D02*
D03*
X932520D02*
D03*
X945905Y262992D02*
D03*
X932520D02*
D03*
X945905Y266142D02*
D03*
X932520D02*
D03*
X945905Y269291D02*
D03*
X932520D02*
D03*
X945905Y272441D02*
D03*
X932520D02*
D03*
X945905Y275591D02*
D03*
X932520D02*
D03*
X945905Y278740D02*
D03*
X932520D02*
D03*
X945905Y281890D02*
D03*
X932520D02*
D03*
X945905Y285039D02*
D03*
X932520D02*
D03*
X945905Y288189D02*
D03*
X932520D02*
D03*
X945905Y291339D02*
D03*
X932520D02*
D03*
X945905Y294488D02*
D03*
X932520D02*
D03*
X945905Y297638D02*
D03*
X932520D02*
D03*
X945905Y300787D02*
D03*
X932520D02*
D03*
X945905Y303937D02*
D03*
X932520D02*
D03*
X945905Y307087D02*
D03*
X932520D02*
D03*
X945905Y310236D02*
D03*
X932520D02*
D03*
X945905Y313386D02*
D03*
X932520D02*
D03*
X945905Y316535D02*
D03*
X932520D02*
D03*
X945905Y319685D02*
D03*
X932520D02*
D03*
X945905Y322835D02*
D03*
X932520D02*
D03*
X945905Y325984D02*
D03*
X932520D02*
D03*
X945905Y329134D02*
D03*
X932520D02*
D03*
X945905Y332283D02*
D03*
X932520D02*
D03*
X945905Y335433D02*
D03*
X932520D02*
D03*
X1052520D02*
D03*
X1065905D02*
D03*
X1052520Y332283D02*
D03*
X1065905D02*
D03*
X1052520Y329134D02*
D03*
X1065905D02*
D03*
X1052520Y325984D02*
D03*
X1065905D02*
D03*
X1052520Y322835D02*
D03*
X1065905D02*
D03*
X1052520Y319685D02*
D03*
X1065905D02*
D03*
X1052520Y316535D02*
D03*
X1065905D02*
D03*
X1052520Y313386D02*
D03*
X1065905D02*
D03*
X1052520Y310236D02*
D03*
X1065905D02*
D03*
X1052520Y307087D02*
D03*
X1065905D02*
D03*
X1052520Y303937D02*
D03*
X1065905D02*
D03*
X1052520Y300787D02*
D03*
X1065905D02*
D03*
X1052520Y297638D02*
D03*
X1065905D02*
D03*
X1052520Y294488D02*
D03*
X1065905D02*
D03*
X1052520Y291339D02*
D03*
X1065905D02*
D03*
X1052520Y288189D02*
D03*
X1065905D02*
D03*
X1052520Y285039D02*
D03*
X1065905D02*
D03*
X1052520Y281890D02*
D03*
X1065905D02*
D03*
X1052520Y278740D02*
D03*
X1065905D02*
D03*
X1052520Y275591D02*
D03*
X1065905D02*
D03*
X1052520Y272441D02*
D03*
X1065905D02*
D03*
X1052520Y269291D02*
D03*
X1065905D02*
D03*
X1052520Y266142D02*
D03*
X1065905D02*
D03*
X1052520Y262992D02*
D03*
X1065905D02*
D03*
X1052520Y259842D02*
D03*
X1065905D02*
D03*
X1052520Y256693D02*
D03*
X1065905D02*
D03*
X1052520Y253543D02*
D03*
X1065905D02*
D03*
X1052520Y237795D02*
D03*
X1065905D02*
D03*
X1052520Y234646D02*
D03*
X1065905D02*
D03*
X1052520Y231496D02*
D03*
X1065905D02*
D03*
X1052520Y228346D02*
D03*
X1065905D02*
D03*
X1052520Y225197D02*
D03*
X1065905D02*
D03*
X1052520Y222047D02*
D03*
X1065905D02*
D03*
X1052520Y218898D02*
D03*
X1065905D02*
D03*
X1052520Y215748D02*
D03*
X1065905D02*
D03*
X1052520Y212598D02*
D03*
X1065905D02*
D03*
X1052520Y209449D02*
D03*
X1065905D02*
D03*
X1052520Y206299D02*
D03*
X1065905D02*
D03*
X1052520Y203150D02*
D03*
X1065905D02*
D03*
X1052520Y200000D02*
D03*
X1065905D02*
D03*
X1052520Y196850D02*
D03*
X1065905D02*
D03*
X1052520Y193701D02*
D03*
X1065905D02*
D03*
X1052520Y190551D02*
D03*
X1065905D02*
D03*
X1052520Y187402D02*
D03*
X1065905D02*
D03*
X1052520Y184252D02*
D03*
X1065905D02*
D03*
X1052520Y181102D02*
D03*
X1065905D02*
D03*
X1052520Y177953D02*
D03*
X1065905D02*
D03*
X1052520Y174803D02*
D03*
X1065905D02*
D03*
X1052520Y171653D02*
D03*
X1065905D02*
D03*
X1052520Y168504D02*
D03*
X1065905D02*
D03*
X1185905D02*
D03*
X1172520D02*
D03*
X1185905Y171653D02*
D03*
X1172520D02*
D03*
X1185905Y174803D02*
D03*
X1172520D02*
D03*
X1185905Y177953D02*
D03*
X1172520D02*
D03*
X1185905Y181102D02*
D03*
X1172520D02*
D03*
X1185905Y184252D02*
D03*
X1172520D02*
D03*
X1185905Y187402D02*
D03*
X1172520D02*
D03*
X1185905Y190551D02*
D03*
X1172520D02*
D03*
X1185905Y193701D02*
D03*
X1172520D02*
D03*
X1185905Y196850D02*
D03*
X1172520D02*
D03*
X1185905Y200000D02*
D03*
X1172520D02*
D03*
X1185905Y203150D02*
D03*
X1172520D02*
D03*
X1185905Y206299D02*
D03*
X1172520D02*
D03*
X1185905Y209449D02*
D03*
X1172520D02*
D03*
X1185905Y212598D02*
D03*
X1172520D02*
D03*
X1185905Y215748D02*
D03*
X1172520D02*
D03*
X1185905Y218898D02*
D03*
X1172520D02*
D03*
X1185905Y222047D02*
D03*
X1172520D02*
D03*
X1185905Y225197D02*
D03*
X1172520D02*
D03*
X1185905Y228346D02*
D03*
X1172520D02*
D03*
X1185905Y231496D02*
D03*
X1172520D02*
D03*
X1185905Y234646D02*
D03*
X1172520D02*
D03*
X1185905Y237795D02*
D03*
X1172520D02*
D03*
X1185905Y253543D02*
D03*
X1172520D02*
D03*
X1185905Y256693D02*
D03*
X1172520D02*
D03*
X1185905Y259842D02*
D03*
X1172520D02*
D03*
X1185905Y262992D02*
D03*
X1172520D02*
D03*
X1185905Y266142D02*
D03*
X1172520D02*
D03*
X1185905Y269291D02*
D03*
X1172520D02*
D03*
X1185905Y272441D02*
D03*
X1172520D02*
D03*
X1185905Y275591D02*
D03*
X1172520D02*
D03*
X1185905Y278740D02*
D03*
X1172520D02*
D03*
X1185905Y281890D02*
D03*
X1172520D02*
D03*
X1185905Y285039D02*
D03*
X1172520D02*
D03*
X1185905Y288189D02*
D03*
X1172520D02*
D03*
X1185905Y291339D02*
D03*
X1172520D02*
D03*
X1185905Y294488D02*
D03*
X1172520D02*
D03*
X1185905Y297638D02*
D03*
X1172520D02*
D03*
X1185905Y300787D02*
D03*
X1172520D02*
D03*
X1185905Y303937D02*
D03*
X1172520D02*
D03*
X1185905Y307087D02*
D03*
X1172520D02*
D03*
X1185905Y310236D02*
D03*
X1172520D02*
D03*
X1185905Y313386D02*
D03*
X1172520D02*
D03*
X1185905Y316535D02*
D03*
X1172520D02*
D03*
X1185905Y319685D02*
D03*
X1172520D02*
D03*
X1185905Y322835D02*
D03*
X1172520D02*
D03*
X1185905Y325984D02*
D03*
X1172520D02*
D03*
X1185905Y329134D02*
D03*
X1172520D02*
D03*
X1185905Y332283D02*
D03*
X1172520D02*
D03*
X1185905Y335433D02*
D03*
X1172520D02*
D03*
X1292520Y335433D02*
D03*
X1305906D02*
D03*
X1292520Y332283D02*
D03*
X1305906D02*
D03*
X1292520Y329134D02*
D03*
X1305906D02*
D03*
X1292520Y325984D02*
D03*
X1305906D02*
D03*
X1292520Y322835D02*
D03*
X1305906D02*
D03*
X1292520Y319685D02*
D03*
X1305906D02*
D03*
X1292520Y316535D02*
D03*
X1305906D02*
D03*
X1292520Y313386D02*
D03*
X1305906D02*
D03*
X1292520Y310236D02*
D03*
X1305906D02*
D03*
X1292520Y307087D02*
D03*
X1305906D02*
D03*
X1292520Y303937D02*
D03*
X1305906D02*
D03*
X1292520Y300787D02*
D03*
X1305906D02*
D03*
X1292520Y297638D02*
D03*
X1305906D02*
D03*
X1292520Y294488D02*
D03*
X1305906D02*
D03*
X1292520Y291339D02*
D03*
X1305906D02*
D03*
X1292520Y288189D02*
D03*
X1305906D02*
D03*
X1292520Y285039D02*
D03*
X1305906D02*
D03*
X1292520Y281890D02*
D03*
X1305906D02*
D03*
X1292520Y278740D02*
D03*
X1305906D02*
D03*
X1292520Y275590D02*
D03*
X1305906D02*
D03*
X1292520Y272441D02*
D03*
X1305906D02*
D03*
X1292520Y269291D02*
D03*
X1305906D02*
D03*
X1292520Y266142D02*
D03*
X1305906D02*
D03*
X1292520Y262992D02*
D03*
X1305906D02*
D03*
X1292520Y259842D02*
D03*
X1305906D02*
D03*
X1292520Y256693D02*
D03*
X1305906D02*
D03*
X1292520Y253543D02*
D03*
X1305906D02*
D03*
X1292520Y237795D02*
D03*
X1305906D02*
D03*
X1292520Y234646D02*
D03*
X1305906D02*
D03*
X1292520Y231496D02*
D03*
X1305906D02*
D03*
X1292520Y228346D02*
D03*
X1305906D02*
D03*
X1292520Y225197D02*
D03*
X1305906D02*
D03*
X1292520Y222047D02*
D03*
X1305906D02*
D03*
X1292520Y218898D02*
D03*
X1305906D02*
D03*
X1292520Y215748D02*
D03*
X1305906D02*
D03*
X1292520Y212598D02*
D03*
X1305906D02*
D03*
X1292520Y209449D02*
D03*
X1305906D02*
D03*
X1292520Y206299D02*
D03*
X1305906D02*
D03*
X1292520Y203150D02*
D03*
X1305906D02*
D03*
X1292520Y200000D02*
D03*
X1305906D02*
D03*
X1292520Y196850D02*
D03*
X1305906D02*
D03*
X1292520Y193701D02*
D03*
X1305906D02*
D03*
X1292520Y190551D02*
D03*
X1305906D02*
D03*
X1292520Y187401D02*
D03*
X1305906D02*
D03*
X1292520Y184252D02*
D03*
X1305906D02*
D03*
X1292520Y181102D02*
D03*
X1305906D02*
D03*
X1292520Y177953D02*
D03*
X1305906D02*
D03*
X1292520Y174803D02*
D03*
X1305906D02*
D03*
X1292520Y171653D02*
D03*
X1305906D02*
D03*
X1292520Y168504D02*
D03*
X1305906D02*
D03*
X465906Y184252D02*
D03*
X452520D02*
D03*
X465906Y187402D02*
D03*
X452520D02*
D03*
X465906Y190551D02*
D03*
X452520D02*
D03*
X465906Y193701D02*
D03*
X452520D02*
D03*
X465906Y196850D02*
D03*
X452520D02*
D03*
X465906Y200000D02*
D03*
X452520D02*
D03*
X465906Y203150D02*
D03*
X452520D02*
D03*
X465906Y206299D02*
D03*
X452520D02*
D03*
X465906Y209449D02*
D03*
X452520D02*
D03*
X465906Y212598D02*
D03*
X452520D02*
D03*
X465906Y215748D02*
D03*
X452520D02*
D03*
X465906Y218898D02*
D03*
X452520D02*
D03*
X465906Y222047D02*
D03*
X452520D02*
D03*
X465906Y225197D02*
D03*
X452520D02*
D03*
X465906Y228346D02*
D03*
X452520D02*
D03*
X465906Y231496D02*
D03*
X452520D02*
D03*
X465906Y234646D02*
D03*
X452520D02*
D03*
X465906Y237795D02*
D03*
X452520D02*
D03*
X465906Y253543D02*
D03*
X452520D02*
D03*
X465906Y256693D02*
D03*
X452520D02*
D03*
X465906Y259842D02*
D03*
X452520D02*
D03*
X465906Y262992D02*
D03*
X452520D02*
D03*
X465906Y266142D02*
D03*
X452520D02*
D03*
X465906Y269291D02*
D03*
X452520D02*
D03*
X465906Y272441D02*
D03*
X452520D02*
D03*
X465906Y275590D02*
D03*
X452520D02*
D03*
X465906Y278740D02*
D03*
X452520D02*
D03*
X465906Y281890D02*
D03*
X452520D02*
D03*
X465906Y285039D02*
D03*
X452520D02*
D03*
X465906Y288189D02*
D03*
X452520D02*
D03*
X465906Y291339D02*
D03*
X452520D02*
D03*
X465906Y294488D02*
D03*
X452520D02*
D03*
X465906Y297638D02*
D03*
X452520D02*
D03*
X465906Y300787D02*
D03*
X452520D02*
D03*
X465906Y303937D02*
D03*
X452520D02*
D03*
X465906Y307087D02*
D03*
X452520D02*
D03*
X465906Y310236D02*
D03*
X452520D02*
D03*
X465906Y313386D02*
D03*
X452520D02*
D03*
X465906Y316535D02*
D03*
X452520D02*
D03*
X465906Y319685D02*
D03*
X452520D02*
D03*
X572520Y319685D02*
D03*
X585906D02*
D03*
X572520Y316535D02*
D03*
X585906D02*
D03*
X572520Y313386D02*
D03*
X585906D02*
D03*
X572520Y310236D02*
D03*
X585906D02*
D03*
X572520Y307087D02*
D03*
X585906D02*
D03*
X572520Y303937D02*
D03*
X585906D02*
D03*
X572520Y300787D02*
D03*
X585906D02*
D03*
X572520Y297638D02*
D03*
X585906D02*
D03*
X572520Y294488D02*
D03*
X585906D02*
D03*
X572520Y291339D02*
D03*
X585906D02*
D03*
X572520Y288189D02*
D03*
X585906D02*
D03*
X572520Y285039D02*
D03*
X585906D02*
D03*
X572520Y281890D02*
D03*
X585906D02*
D03*
X572520Y278740D02*
D03*
X585906D02*
D03*
X572520Y275591D02*
D03*
X585906D02*
D03*
X572520Y272441D02*
D03*
X585906D02*
D03*
X572520Y269291D02*
D03*
X585906D02*
D03*
X572520Y266142D02*
D03*
X585906D02*
D03*
X572520Y262992D02*
D03*
X585906D02*
D03*
X572520Y259842D02*
D03*
X585906D02*
D03*
X572520Y256693D02*
D03*
X585906D02*
D03*
X572520Y253543D02*
D03*
X585906D02*
D03*
X572520Y237795D02*
D03*
X585906D02*
D03*
X572520Y234646D02*
D03*
X585906D02*
D03*
X572520Y231496D02*
D03*
X585906D02*
D03*
X572520Y228346D02*
D03*
X585906D02*
D03*
X572520Y225197D02*
D03*
X585906D02*
D03*
X572520Y222047D02*
D03*
X585906D02*
D03*
X572520Y218898D02*
D03*
X585906D02*
D03*
X572520Y215748D02*
D03*
X585906D02*
D03*
X572520Y212598D02*
D03*
X585906D02*
D03*
X572520Y209449D02*
D03*
X585906D02*
D03*
X572520Y206299D02*
D03*
X585906D02*
D03*
X572520Y203150D02*
D03*
X585906D02*
D03*
X572520Y200000D02*
D03*
X585906D02*
D03*
X572520Y196850D02*
D03*
X585906D02*
D03*
X572520Y193701D02*
D03*
X585906D02*
D03*
X572520Y190551D02*
D03*
X585906D02*
D03*
X572520Y187402D02*
D03*
X585906D02*
D03*
X572520Y184252D02*
D03*
X585906D02*
D03*
X705905D02*
D03*
X692520D02*
D03*
X705905Y187402D02*
D03*
X692520D02*
D03*
X705905Y190551D02*
D03*
X692520D02*
D03*
X705905Y193701D02*
D03*
X692520D02*
D03*
X705905Y196850D02*
D03*
X692520D02*
D03*
X705905Y200000D02*
D03*
X692520D02*
D03*
X705905Y203150D02*
D03*
X692520D02*
D03*
X705905Y206299D02*
D03*
X692520D02*
D03*
X705905Y209449D02*
D03*
X692520D02*
D03*
X705905Y212598D02*
D03*
X692520D02*
D03*
X705905Y215748D02*
D03*
X692520D02*
D03*
X705905Y218898D02*
D03*
X692520D02*
D03*
X705905Y222047D02*
D03*
X692520D02*
D03*
X705905Y225197D02*
D03*
X692520D02*
D03*
X705905Y228346D02*
D03*
X692520D02*
D03*
X705905Y231496D02*
D03*
X692520D02*
D03*
X705905Y234646D02*
D03*
X692520D02*
D03*
X705905Y237795D02*
D03*
X692520D02*
D03*
X705905Y253543D02*
D03*
X692520D02*
D03*
X705905Y256693D02*
D03*
X692520D02*
D03*
X705905Y259842D02*
D03*
X692520D02*
D03*
X705905Y262992D02*
D03*
X692520D02*
D03*
X705905Y266142D02*
D03*
X692520D02*
D03*
X705905Y269291D02*
D03*
X692520D02*
D03*
X705905Y272441D02*
D03*
X692520D02*
D03*
X705905Y275591D02*
D03*
X692520D02*
D03*
X705905Y278740D02*
D03*
X692520D02*
D03*
X705905Y281890D02*
D03*
X692520D02*
D03*
X705905Y285039D02*
D03*
X692520D02*
D03*
X705905Y288189D02*
D03*
X692520D02*
D03*
X705905Y291339D02*
D03*
X692520D02*
D03*
X705905Y294488D02*
D03*
X692520D02*
D03*
X705905Y297638D02*
D03*
X692520D02*
D03*
X705905Y300787D02*
D03*
X692520D02*
D03*
X705905Y303937D02*
D03*
X692520D02*
D03*
X705905Y307087D02*
D03*
X692520D02*
D03*
X705905Y310236D02*
D03*
X692520D02*
D03*
X705905Y313386D02*
D03*
X692520D02*
D03*
X705905Y316535D02*
D03*
X692520D02*
D03*
X705905Y319685D02*
D03*
X692520D02*
D03*
D199*
X637831Y140602D02*
D03*
X535658Y140600D02*
D03*
X1180048Y59838D02*
D03*
Y69837D02*
D03*
X1170049Y59838D02*
D03*
Y69837D02*
D03*
X1160048Y59838D02*
D03*
Y69837D02*
D03*
X1150049Y59838D02*
D03*
Y69837D02*
D03*
X1140049Y59838D02*
D03*
Y69837D02*
D03*
X1130048Y59838D02*
D03*
X219432Y52074D02*
D03*
X229432Y62074D02*
D03*
Y52074D02*
D03*
X239432Y62074D02*
D03*
Y52074D02*
D03*
X249432Y62074D02*
D03*
Y52074D02*
D03*
X259432Y62074D02*
D03*
Y52074D02*
D03*
X269432Y62074D02*
D03*
Y52074D02*
D03*
X1264451Y112906D02*
D03*
Y102906D02*
D03*
X1254451Y112906D02*
D03*
Y102906D02*
D03*
X1244451Y112906D02*
D03*
Y102906D02*
D03*
X1234451Y112906D02*
D03*
Y102906D02*
D03*
X1224451Y112906D02*
D03*
Y102906D02*
D03*
X1214451Y112906D02*
D03*
D200*
X647674Y140602D02*
D03*
X545500Y140600D02*
D03*
D201*
X108374Y472181D02*
D03*
X91563D02*
D03*
D202*
X855398Y169075D02*
D03*
X840831D02*
D03*
X960831D02*
D03*
X975398D02*
D03*
X1095398D02*
D03*
X1080831D02*
D03*
X1200831D02*
D03*
X1215398D02*
D03*
X1335398Y169075D02*
D03*
X1320831D02*
D03*
D203*
X24966Y323199D02*
D03*
X13942D02*
D03*
D204*
X496503Y442028D02*
D03*
Y453052D02*
D03*
X509803D02*
D03*
Y442028D02*
D03*
D205*
X410859Y412240D02*
D03*
X405347D02*
D03*
X880715Y353173D02*
D03*
X875203D02*
D03*
X77109Y292089D02*
D03*
X71597D02*
D03*
X840669Y150138D02*
D03*
X846181D02*
D03*
X966181D02*
D03*
X960669D02*
D03*
X1080669D02*
D03*
X1086181D02*
D03*
X1206181D02*
D03*
X1200669D02*
D03*
X1320669Y150138D02*
D03*
X1326181D02*
D03*
X859303Y150756D02*
D03*
X853791D02*
D03*
X973791D02*
D03*
X979303D02*
D03*
X1099303D02*
D03*
X1093791D02*
D03*
X1213791D02*
D03*
X1219303D02*
D03*
X1339303Y150756D02*
D03*
X1333791D02*
D03*
X560490Y137224D02*
D03*
X554978D02*
D03*
X657152Y137226D02*
D03*
X662664D02*
D03*
X560490Y82412D02*
D03*
X554978D02*
D03*
X657152Y82413D02*
D03*
X662664D02*
D03*
X560490Y77824D02*
D03*
X554978D02*
D03*
X657152Y77826D02*
D03*
X662664D02*
D03*
X505752Y72499D02*
D03*
X500240D02*
D03*
X602414Y72501D02*
D03*
X607926D02*
D03*
X500240Y67993D02*
D03*
X505752D02*
D03*
X607926Y67995D02*
D03*
X602414D02*
D03*
X256205Y431839D02*
D03*
X261717D02*
D03*
X201374Y431744D02*
D03*
X195862D02*
D03*
X135118Y431783D02*
D03*
X140630D02*
D03*
X87809Y344865D02*
D03*
X93321D02*
D03*
X274011Y119595D02*
D03*
X268499D02*
D03*
X252213Y121291D02*
D03*
X246702D02*
D03*
X863100Y57414D02*
D03*
X857588D02*
D03*
X918588D02*
D03*
X924100D02*
D03*
X406748Y49909D02*
D03*
X401236D02*
D03*
X401236Y44909D02*
D03*
X406748D02*
D03*
X160204Y63892D02*
D03*
X165716D02*
D03*
X132296Y136341D02*
D03*
X137808D02*
D03*
X93238Y444359D02*
D03*
X87726D02*
D03*
X746470Y433351D02*
D03*
X740958D02*
D03*
X737114Y433331D02*
D03*
X731602D02*
D03*
D206*
X884670Y346746D02*
D03*
Y352258D02*
D03*
X885853Y338183D02*
D03*
Y332671D02*
D03*
X860445Y349502D02*
D03*
Y343990D02*
D03*
X860643Y329325D02*
D03*
Y334837D02*
D03*
X872357Y300957D02*
D03*
Y295445D02*
D03*
X59053Y263433D02*
D03*
Y268945D02*
D03*
X514734Y142880D02*
D03*
Y137369D02*
D03*
X616908Y137370D02*
D03*
Y142882D02*
D03*
X286173Y432261D02*
D03*
Y426750D02*
D03*
X281573D02*
D03*
Y432261D02*
D03*
X225731Y426555D02*
D03*
Y432067D02*
D03*
X221131D02*
D03*
Y426555D02*
D03*
X164748Y430807D02*
D03*
Y425295D02*
D03*
X160031Y425295D02*
D03*
Y430807D02*
D03*
X439492Y123665D02*
D03*
Y118153D02*
D03*
X434992Y123665D02*
D03*
Y118153D02*
D03*
X462792Y107653D02*
D03*
Y113165D02*
D03*
X462188Y73345D02*
D03*
Y67833D02*
D03*
X412283Y117653D02*
D03*
Y123165D02*
D03*
X491703Y422496D02*
D03*
Y416984D02*
D03*
X486703Y413384D02*
D03*
Y418896D02*
D03*
X487403Y400484D02*
D03*
Y405996D02*
D03*
X530503Y413196D02*
D03*
Y407684D02*
D03*
X525703D02*
D03*
Y413196D02*
D03*
X131560Y28636D02*
D03*
Y34148D02*
D03*
X81560Y28636D02*
D03*
Y34148D02*
D03*
X131560Y72636D02*
D03*
Y78148D02*
D03*
X81960Y103842D02*
D03*
Y109354D02*
D03*
X142960Y64648D02*
D03*
Y59136D02*
D03*
X66560Y123660D02*
D03*
Y129172D02*
D03*
X61560Y129172D02*
D03*
Y123660D02*
D03*
X75238Y51951D02*
D03*
Y46439D02*
D03*
X75216Y62243D02*
D03*
Y67754D02*
D03*
Y83754D02*
D03*
Y78242D02*
D03*
Y94243D02*
D03*
Y99754D02*
D03*
X815201Y429287D02*
D03*
Y423775D02*
D03*
X820001Y429287D02*
D03*
Y423775D02*
D03*
D207*
X429403Y424175D02*
D03*
Y433505D02*
D03*
D208*
X539603Y433956D02*
D03*
Y420924D02*
D03*
D209*
X396003Y428077D02*
D03*
Y420203D02*
D03*
D210*
X413340Y440640D02*
D03*
X405466D02*
D03*
D211*
X516096Y72693D02*
D03*
X522395D02*
D03*
X624569Y72695D02*
D03*
X618270D02*
D03*
X255944Y406551D02*
D03*
X262243D02*
D03*
X262256Y413118D02*
D03*
X255957D02*
D03*
Y419618D02*
D03*
X262256D02*
D03*
Y426118D02*
D03*
X255957D02*
D03*
X195402Y406657D02*
D03*
X201701D02*
D03*
X201713Y413124D02*
D03*
X195414D02*
D03*
Y419624D02*
D03*
X201713D02*
D03*
Y426124D02*
D03*
X195414D02*
D03*
X134864Y406766D02*
D03*
X141163D02*
D03*
X141140Y413217D02*
D03*
X134841D02*
D03*
X134835Y419658D02*
D03*
X141134D02*
D03*
Y426154D02*
D03*
X134835D02*
D03*
X412343Y50409D02*
D03*
X418642D02*
D03*
D212*
X480997Y419109D02*
D03*
Y412810D02*
D03*
X65560Y117565D02*
D03*
Y111266D02*
D03*
D213*
X421992Y72692D02*
D03*
X426992D02*
D03*
X431992D02*
D03*
X436992D02*
D03*
X441992D02*
D03*
X446992D02*
D03*
X451992D02*
D03*
X456992D02*
D03*
X421992Y108125D02*
D03*
X426992D02*
D03*
X431992D02*
D03*
X436992D02*
D03*
X441992D02*
D03*
X446992D02*
D03*
X451992D02*
D03*
X456992D02*
D03*
D214*
X124276Y28892D02*
D03*
Y33892D02*
D03*
Y38892D02*
D03*
Y43892D02*
D03*
Y48892D02*
D03*
Y53892D02*
D03*
Y58892D02*
D03*
Y63892D02*
D03*
X88843Y28892D02*
D03*
Y33892D02*
D03*
Y38892D02*
D03*
Y43892D02*
D03*
Y48892D02*
D03*
Y53892D02*
D03*
Y58892D02*
D03*
Y63892D02*
D03*
Y107892D02*
D03*
Y102892D02*
D03*
Y97892D02*
D03*
Y92892D02*
D03*
Y87892D02*
D03*
Y82892D02*
D03*
Y77892D02*
D03*
Y72892D02*
D03*
X124276Y107892D02*
D03*
Y102892D02*
D03*
Y97892D02*
D03*
Y92892D02*
D03*
Y87892D02*
D03*
Y82892D02*
D03*
Y77892D02*
D03*
Y72892D02*
D03*
D215*
X877563Y315766D02*
D03*
X871854D02*
D03*
X883272D02*
D03*
X235243Y111679D02*
D03*
X240951D02*
D03*
X229534D02*
D03*
Y106396D02*
D03*
X240951D02*
D03*
X235243D02*
D03*
Y101202D02*
D03*
X240951D02*
D03*
X229534D02*
D03*
Y95920D02*
D03*
X240951D02*
D03*
X235243D02*
D03*
Y90600D02*
D03*
X240951D02*
D03*
X229534D02*
D03*
Y85369D02*
D03*
X240951D02*
D03*
X235243D02*
D03*
X415206Y406839D02*
D03*
X420915D02*
D03*
X409498D02*
D03*
X159569Y108892D02*
D03*
X148151D02*
D03*
X153860D02*
D03*
Y113892D02*
D03*
X148151D02*
D03*
X159569D02*
D03*
X159069Y52392D02*
D03*
X147651D02*
D03*
X153360D02*
D03*
Y57392D02*
D03*
X147651D02*
D03*
X159069D02*
D03*
X159569Y98892D02*
D03*
X148151D02*
D03*
X153860D02*
D03*
X153360Y47392D02*
D03*
X147651D02*
D03*
X159069D02*
D03*
X159569Y103892D02*
D03*
X148151D02*
D03*
X153860D02*
D03*
X153360Y42392D02*
D03*
X147651D02*
D03*
X159069D02*
D03*
X191569Y74030D02*
D03*
X180151D02*
D03*
X185860D02*
D03*
Y94030D02*
D03*
X180151D02*
D03*
X191569D02*
D03*
Y79030D02*
D03*
X180151D02*
D03*
X185860D02*
D03*
Y99030D02*
D03*
X180151D02*
D03*
X191569D02*
D03*
Y84030D02*
D03*
X180151D02*
D03*
X185860D02*
D03*
Y104030D02*
D03*
X180151D02*
D03*
X191569D02*
D03*
Y89030D02*
D03*
X180151D02*
D03*
X185860D02*
D03*
Y109030D02*
D03*
X180151D02*
D03*
X191569D02*
D03*
X703437Y399124D02*
D03*
X714854D02*
D03*
X709146D02*
D03*
Y404324D02*
D03*
X714854D02*
D03*
X703437D02*
D03*
Y409324D02*
D03*
X714854D02*
D03*
X709146D02*
D03*
Y414324D02*
D03*
X714854D02*
D03*
X703437D02*
D03*
Y419324D02*
D03*
X714854D02*
D03*
X709146D02*
D03*
Y424324D02*
D03*
X714854D02*
D03*
X703437D02*
D03*
X774454D02*
D03*
X763037D02*
D03*
X768746D02*
D03*
Y419324D02*
D03*
X763037D02*
D03*
X774454D02*
D03*
Y414324D02*
D03*
X763037D02*
D03*
X768746D02*
D03*
Y409324D02*
D03*
X763037D02*
D03*
X774454D02*
D03*
Y404324D02*
D03*
X763037D02*
D03*
X768746D02*
D03*
Y399324D02*
D03*
X763037D02*
D03*
X774454D02*
D03*
X817068Y404331D02*
D03*
X805650D02*
D03*
X811359D02*
D03*
X811359Y399688D02*
D03*
X805650D02*
D03*
X817068D02*
D03*
X283627Y314703D02*
D03*
X272210D02*
D03*
X277919D02*
D03*
D216*
X67679Y348058D02*
D03*
Y370774D02*
D03*
D217*
X63840Y333884D02*
D03*
X49273D02*
D03*
D218*
X24765Y374376D02*
D03*
Y370046D02*
D03*
Y365715D02*
D03*
Y361384D02*
D03*
Y357053D02*
D03*
Y352723D02*
D03*
Y348392D02*
D03*
Y344061D02*
D03*
D219*
X26143Y379140D02*
D03*
D220*
X25258Y334573D02*
D03*
D221*
X877536Y296766D02*
D03*
Y304246D02*
D03*
X883442D02*
D03*
Y296766D02*
D03*
D222*
X275235Y409551D02*
D03*
X287440D02*
D03*
Y418051D02*
D03*
X275235D02*
D03*
X214299Y417357D02*
D03*
X226504D02*
D03*
Y408957D02*
D03*
X214299D02*
D03*
X154483Y417238D02*
D03*
X166688D02*
D03*
X166653Y408870D02*
D03*
X154449D02*
D03*
D223*
X61238Y41865D02*
D03*
Y50526D02*
D03*
X61216Y66329D02*
D03*
Y57668D02*
D03*
Y73668D02*
D03*
Y82329D02*
D03*
Y98329D02*
D03*
Y89668D02*
D03*
D224*
X256394Y441610D02*
D03*
X261394D02*
D03*
X266394D02*
D03*
X271394D02*
D03*
X276394D02*
D03*
X281394D02*
D03*
X286394D02*
D03*
X225551Y441516D02*
D03*
X220551D02*
D03*
X215551D02*
D03*
X210551D02*
D03*
X205551D02*
D03*
X200551D02*
D03*
X195551D02*
D03*
X135213Y441563D02*
D03*
X140213D02*
D03*
X145213D02*
D03*
X150213D02*
D03*
X155213D02*
D03*
X160213D02*
D03*
X165213D02*
D03*
D225*
X271394Y470370D02*
D03*
X210551Y470276D02*
D03*
X150213Y470323D02*
D03*
D226*
X1283139Y421996D02*
D03*
X1273139D02*
D03*
X1263139D02*
D03*
X1253139D02*
D03*
X1243139D02*
D03*
X1233139D02*
D03*
X1223139D02*
D03*
X1213139D02*
D03*
X1203139D02*
D03*
X1193139D02*
D03*
X1283139Y446496D02*
D03*
X1273139D02*
D03*
X1263139D02*
D03*
X1253139D02*
D03*
X1243139D02*
D03*
X1233139D02*
D03*
X1223139D02*
D03*
X1213139D02*
D03*
X1203139D02*
D03*
X1193139D02*
D03*
D227*
X289322Y56102D02*
D03*
Y66102D02*
D03*
Y76102D02*
D03*
Y86102D02*
D03*
Y96102D02*
D03*
Y106102D02*
D03*
X313822Y56102D02*
D03*
Y66102D02*
D03*
Y76102D02*
D03*
Y86102D02*
D03*
Y96102D02*
D03*
Y106102D02*
D03*
D228*
X852185Y161528D02*
D03*
Y158968D02*
D03*
Y156410D02*
D03*
X859665D02*
D03*
Y161528D02*
D03*
X979665D02*
D03*
Y156410D02*
D03*
X972185D02*
D03*
Y158968D02*
D03*
Y161528D02*
D03*
X1092185D02*
D03*
Y158968D02*
D03*
Y156410D02*
D03*
X1099665D02*
D03*
Y161528D02*
D03*
X1219665D02*
D03*
Y156410D02*
D03*
X1212185D02*
D03*
Y158968D02*
D03*
Y161528D02*
D03*
X1332185Y161528D02*
D03*
Y158969D02*
D03*
Y156410D02*
D03*
X1339665D02*
D03*
Y161528D02*
D03*
D229*
X271393Y485213D02*
D03*
X210552Y485118D02*
D03*
X150213Y485165D02*
D03*
D230*
X271394Y455528D02*
D03*
X210551Y455433D02*
D03*
X150213Y455481D02*
D03*
D231*
X1130048Y69837D02*
D03*
X219432Y62074D02*
D03*
X1214451Y102906D02*
D03*
D232*
X1105049Y64838D02*
D03*
X194432Y57074D02*
D03*
D233*
X1358268Y19685D02*
D03*
X728346D02*
D03*
X19685D02*
D03*
X1358268Y484252D02*
D03*
X728346D02*
D03*
X19685D02*
D03*
D234*
X813307Y341339D02*
D03*
X819213Y162598D02*
D03*
X939213D02*
D03*
X933307Y341339D02*
D03*
X1053307D02*
D03*
X1059213Y162598D02*
D03*
X1179213D02*
D03*
X1173307Y341339D02*
D03*
X1293307Y341339D02*
D03*
X1299213Y162598D02*
D03*
X459213Y178347D02*
D03*
X453307Y325590D02*
D03*
X573307Y325591D02*
D03*
X579213Y178347D02*
D03*
X699213D02*
D03*
X693307Y325591D02*
D03*
D235*
X819213Y350591D02*
D03*
Y153347D02*
D03*
X939213D02*
D03*
Y350591D02*
D03*
X1059213D02*
D03*
Y153347D02*
D03*
X1179213D02*
D03*
Y350591D02*
D03*
X1299213Y350590D02*
D03*
Y153346D02*
D03*
X459213Y169095D02*
D03*
Y334842D02*
D03*
X579213Y334842D02*
D03*
Y169095D02*
D03*
X699213D02*
D03*
Y334842D02*
D03*
D236*
X65376Y188057D02*
D03*
X20376D02*
D03*
D237*
X11873Y203373D02*
D03*
X73880D02*
D03*
D238*
X16754Y171876D02*
D03*
X68998D02*
D03*
X26754D02*
D03*
X58999D02*
D03*
D239*
X20376Y248058D02*
D03*
D240*
X30376D02*
D03*
X40376D02*
D03*
X50376D02*
D03*
X60376D02*
D03*
X25376Y238057D02*
D03*
X35376D02*
D03*
X45376D02*
D03*
X55376D02*
D03*
X65376D02*
D03*
D241*
X26740Y116491D02*
D03*
Y106491D02*
D03*
Y96491D02*
D03*
Y86491D02*
D03*
Y76491D02*
D03*
X16740Y96491D02*
D03*
Y86491D02*
D03*
Y76491D02*
D03*
Y66491D02*
D03*
Y56491D02*
D03*
Y106491D02*
D03*
Y116491D02*
D03*
Y126491D02*
D03*
X26740Y56491D02*
D03*
Y66491D02*
D03*
Y126491D02*
D03*
X25331Y452024D02*
D03*
Y442024D02*
D03*
Y432024D02*
D03*
Y422024D02*
D03*
Y412024D02*
D03*
X15331Y452024D02*
D03*
Y442024D02*
D03*
Y432024D02*
D03*
Y422024D02*
D03*
Y412024D02*
D03*
X535250Y45051D02*
D03*
X525250D02*
D03*
X515250D02*
D03*
X505250D02*
D03*
X607424Y45053D02*
D03*
X617424D02*
D03*
X627424D02*
D03*
X637424D02*
D03*
X431992Y53609D02*
D03*
X441992D02*
D03*
X451992D02*
D03*
X431992Y43609D02*
D03*
X441992D02*
D03*
X451992D02*
D03*
X64575Y422094D02*
D03*
Y412094D02*
D03*
X54575Y422094D02*
D03*
Y412094D02*
D03*
D242*
X99213Y9843D02*
D03*
X339213D02*
D03*
X579213D02*
D03*
X819213D02*
D03*
X1059213D02*
D03*
X1299213D02*
D03*
Y494094D02*
D03*
X1059213D02*
D03*
X819213D02*
D03*
X579213D02*
D03*
X339213D02*
D03*
X99213D02*
D03*
D243*
X732700Y412900D02*
D03*
Y410600D02*
D03*
X732800Y407800D02*
D03*
X732700Y405200D02*
D03*
X379400Y221800D02*
D03*
X379500Y223800D02*
D03*
Y225800D02*
D03*
Y228000D02*
D03*
X346100Y237100D02*
D03*
Y235100D02*
D03*
X479752Y282952D02*
D03*
X481200Y284400D02*
D03*
X458500Y293400D02*
D03*
X456400Y293100D02*
D03*
X475000Y291390D02*
D03*
Y289343D02*
D03*
X351000Y263800D02*
D03*
X348900Y264000D02*
D03*
X229921Y319291D02*
D03*
X872455Y336805D02*
D03*
X868322Y340939D02*
D03*
X876589D02*
D03*
X872455Y345073D02*
D03*
Y340939D02*
D03*
X879921Y289370D02*
D03*
X150007Y265663D02*
D03*
X148819Y267717D02*
D03*
X147146Y268996D02*
D03*
X149016Y331496D02*
D03*
X147047D02*
D03*
X477362Y395472D02*
D03*
X433858Y399114D02*
D03*
X1035669Y253740D02*
D03*
X1035669Y255905D02*
D03*
X790775Y224186D02*
D03*
X910775Y224265D02*
D03*
X1030709Y223622D02*
D03*
X1270775Y223320D02*
D03*
X1150775Y222847D02*
D03*
X135039Y364567D02*
D03*
X281496Y287300D02*
D03*
X142900Y280100D02*
D03*
X1289200Y256700D02*
D03*
X1302500Y256600D02*
D03*
X1314200Y261700D02*
D03*
X1288700Y261900D02*
D03*
X1314000Y269300D02*
D03*
X1288800D02*
D03*
X1289200Y276800D02*
D03*
X1314000Y275700D02*
D03*
X1310700Y290600D02*
D03*
X829500Y296300D02*
D03*
X949400Y295900D02*
D03*
X1309500Y296000D02*
D03*
X1297000Y298000D02*
D03*
X1295800Y300700D02*
D03*
X1309200D02*
D03*
X1309300Y307100D02*
D03*
X1289000Y307000D02*
D03*
X1189300Y256700D02*
D03*
X1169100D02*
D03*
X1189500Y262000D02*
D03*
X1168800Y261900D02*
D03*
X1189300Y269400D02*
D03*
X1168878Y269292D02*
D03*
X1191800Y275700D02*
D03*
X1169000Y276900D02*
D03*
X1190600Y290500D02*
D03*
X1189700Y296200D02*
D03*
X1168300Y297000D02*
D03*
X1169300Y307000D02*
D03*
Y300800D02*
D03*
X1189100D02*
D03*
Y307100D02*
D03*
X1069200Y256700D02*
D03*
X1049000D02*
D03*
X1069800Y262000D02*
D03*
X1048700D02*
D03*
X1069300Y269300D02*
D03*
X1048700D02*
D03*
X1071700Y275600D02*
D03*
X1049200Y276800D02*
D03*
X1070700Y290800D02*
D03*
X1069500Y296100D02*
D03*
X1048500Y297000D02*
D03*
X1069200Y300800D02*
D03*
X1049200Y300700D02*
D03*
X1069200Y307100D02*
D03*
X1049200D02*
D03*
X949200Y256700D02*
D03*
X929100D02*
D03*
X949400Y262200D02*
D03*
X928800D02*
D03*
Y269300D02*
D03*
X949300Y269400D02*
D03*
X952000Y275800D02*
D03*
X831600Y275400D02*
D03*
X929100Y276800D02*
D03*
X950700Y290500D02*
D03*
X928300Y297000D02*
D03*
X949100Y300800D02*
D03*
X929100Y300700D02*
D03*
X949100Y307100D02*
D03*
X929200Y307000D02*
D03*
X829100Y307200D02*
D03*
X830600Y290700D02*
D03*
X1309600Y233000D02*
D03*
X1288900Y232800D02*
D03*
X1308400Y239900D02*
D03*
X1292500Y245800D02*
D03*
X1189600Y233200D02*
D03*
X1169200Y232600D02*
D03*
X1185800Y239900D02*
D03*
X1172500D02*
D03*
X1069100Y232800D02*
D03*
X1049100Y232700D02*
D03*
X1065900Y239800D02*
D03*
X1052500Y239700D02*
D03*
X949300Y232900D02*
D03*
X929100Y232800D02*
D03*
X946000Y239900D02*
D03*
X932500D02*
D03*
X809000Y232700D02*
D03*
X829600Y232800D02*
D03*
X826000Y239700D02*
D03*
X812500Y240000D02*
D03*
X829100Y256700D02*
D03*
X809200D02*
D03*
X829300Y262800D02*
D03*
X809000D02*
D03*
X829400Y269400D02*
D03*
X808885Y269285D02*
D03*
X809300Y276800D02*
D03*
X816600Y288600D02*
D03*
X816200Y294500D02*
D03*
X829500Y300900D02*
D03*
X808700Y300300D02*
D03*
X809300Y307100D02*
D03*
X442300Y118200D02*
D03*
X709300Y259800D02*
D03*
X689000Y259600D02*
D03*
X709100Y269300D02*
D03*
X688200Y270800D02*
D03*
X709400Y278700D02*
D03*
X687000Y280800D02*
D03*
X709400Y288200D02*
D03*
X687000Y290400D02*
D03*
X581500Y272100D02*
D03*
X576700Y272200D02*
D03*
X589800Y272100D02*
D03*
X568200Y272000D02*
D03*
X589400Y278800D02*
D03*
X568900Y278700D02*
D03*
X590200Y290200D02*
D03*
X568000D02*
D03*
X428700Y185200D02*
D03*
X426700Y220800D02*
D03*
X433800Y228200D02*
D03*
X430100D02*
D03*
X461000Y272000D02*
D03*
X457100D02*
D03*
X470000D02*
D03*
X448200Y272100D02*
D03*
X461800Y276400D02*
D03*
X448200D02*
D03*
X469400Y288300D02*
D03*
X449000Y288200D02*
D03*
X1322400Y263800D02*
D03*
X963200Y263900D02*
D03*
X964600Y262000D02*
D03*
X1082800Y263700D02*
D03*
X1084600Y262000D02*
D03*
X1204300Y261800D02*
D03*
X1213400Y278200D02*
D03*
X1202300Y263700D02*
D03*
X1324600Y262000D02*
D03*
X1333400Y278200D02*
D03*
X1093400Y278200D02*
D03*
X973400D02*
D03*
X853400D02*
D03*
X844600Y262000D02*
D03*
X1286800Y291100D02*
D03*
X1278400Y245500D02*
D03*
X1284700Y288000D02*
D03*
X1309500Y287300D02*
D03*
X1319900Y291000D02*
D03*
X1167800Y291800D02*
D03*
X1164700Y288000D02*
D03*
X1189500Y287300D02*
D03*
X1199900Y291000D02*
D03*
X1047800Y291800D02*
D03*
X1044700Y288000D02*
D03*
X1069500Y287300D02*
D03*
X1079900Y291000D02*
D03*
X927800Y291800D02*
D03*
X924700Y288000D02*
D03*
X949500Y287300D02*
D03*
X959900Y291000D02*
D03*
X839900D02*
D03*
X829500Y287300D02*
D03*
X804700Y288000D02*
D03*
X807800Y291800D02*
D03*
X1278000Y252600D02*
D03*
X1277100Y261700D02*
D03*
X1275000Y286500D02*
D03*
X1267300Y277700D02*
D03*
X1158600Y242300D02*
D03*
X1158000Y252600D02*
D03*
X1157100Y261700D02*
D03*
X1155000Y286500D02*
D03*
X1147300Y277700D02*
D03*
X1038600Y242300D02*
D03*
X1038000Y252600D02*
D03*
X1037100Y261700D02*
D03*
X1035000Y286500D02*
D03*
X1027300Y277700D02*
D03*
X918600Y242300D02*
D03*
X918000Y252600D02*
D03*
X917100Y261700D02*
D03*
X915000Y286500D02*
D03*
X907300Y277700D02*
D03*
X787300D02*
D03*
X795000Y286500D02*
D03*
X797100Y261700D02*
D03*
X798000Y252600D02*
D03*
X798600Y242300D02*
D03*
X1312000Y227400D02*
D03*
X1324200Y242100D02*
D03*
X1325500Y251900D02*
D03*
X1346000Y251000D02*
D03*
X1192000Y227400D02*
D03*
X1204200Y242100D02*
D03*
X1205500Y251900D02*
D03*
X1226000Y251000D02*
D03*
X1072000Y227400D02*
D03*
X1084200Y242100D02*
D03*
X1085500Y251900D02*
D03*
X1106000Y251000D02*
D03*
X952000Y227400D02*
D03*
X964200Y242100D02*
D03*
X965500Y251900D02*
D03*
X986000Y251000D02*
D03*
X866000D02*
D03*
X845500Y251900D02*
D03*
X844200Y242100D02*
D03*
X832000Y227400D02*
D03*
X1298100Y213700D02*
D03*
X1178100Y213700D02*
D03*
X1058100D02*
D03*
X938100D02*
D03*
X818100D02*
D03*
X238500Y85400D02*
D03*
X238400Y90600D02*
D03*
Y96000D02*
D03*
X238500Y101200D02*
D03*
Y106400D02*
D03*
Y111500D02*
D03*
X321200Y215500D02*
D03*
X319842Y210827D02*
D03*
X326800Y227300D02*
D03*
X327000Y239100D02*
D03*
X326900Y245000D02*
D03*
X327000Y250900D02*
D03*
X353543Y211024D02*
D03*
X349213Y185827D02*
D03*
X320472D02*
D03*
X346000Y223700D02*
D03*
X339600Y233200D02*
D03*
X339300Y239100D02*
D03*
X346800Y250900D02*
D03*
X346600Y256800D02*
D03*
X346700Y262700D02*
D03*
X346600Y268600D02*
D03*
X336700Y272200D02*
D03*
X338500Y286400D02*
D03*
X326800Y256900D02*
D03*
Y268600D02*
D03*
X327800Y272500D02*
D03*
X329400Y288000D02*
D03*
Y290300D02*
D03*
X338500D02*
D03*
X337900Y298200D02*
D03*
X328200D02*
D03*
X328000Y304100D02*
D03*
X336700D02*
D03*
X336600Y310100D02*
D03*
X328200Y310000D02*
D03*
X328400Y316000D02*
D03*
X337400Y315900D02*
D03*
X337600Y321900D02*
D03*
X338400Y325700D02*
D03*
X328400Y321800D02*
D03*
X329500Y325700D02*
D03*
X157000Y319500D02*
D03*
X162900D02*
D03*
X168800D02*
D03*
X174700D02*
D03*
X180600Y319600D02*
D03*
X186500Y319500D02*
D03*
X192400D02*
D03*
X198300D02*
D03*
X204200D02*
D03*
X210100D02*
D03*
X216000D02*
D03*
X222000D02*
D03*
X261400Y312100D02*
D03*
X261700Y325200D02*
D03*
X266800Y325300D02*
D03*
X273500D02*
D03*
X285300Y318800D02*
D03*
X290800Y325000D02*
D03*
X292700D02*
D03*
X294700D02*
D03*
X296700D02*
D03*
X298700D02*
D03*
X300700D02*
D03*
Y337900D02*
D03*
X298700D02*
D03*
X296800Y343400D02*
D03*
X294800D02*
D03*
X277100Y337900D02*
D03*
X268701Y334800D02*
D03*
X223800Y337800D02*
D03*
X218000Y343400D02*
D03*
X212100D02*
D03*
X206200D02*
D03*
X200300D02*
D03*
X194300D02*
D03*
X188400D02*
D03*
X182500D02*
D03*
X176600D02*
D03*
X170700D02*
D03*
X164800D02*
D03*
X158900D02*
D03*
X153000D02*
D03*
X171800Y361000D02*
D03*
X201600Y360000D02*
D03*
X235900Y359900D02*
D03*
X269700Y366400D02*
D03*
X276000Y351500D02*
D03*
X239900Y351100D02*
D03*
X211300Y349100D02*
D03*
X176700Y352100D02*
D03*
X122200Y327700D02*
D03*
X125400Y329500D02*
D03*
X141500Y329700D02*
D03*
X140300Y327700D02*
D03*
X140400Y319800D02*
D03*
X122200Y319900D02*
D03*
X130300Y304200D02*
D03*
X140400Y304100D02*
D03*
Y290300D02*
D03*
X116400D02*
D03*
X147400Y272600D02*
D03*
X116500Y274500D02*
D03*
X141000Y257000D02*
D03*
X116400Y260800D02*
D03*
X122100Y245100D02*
D03*
X140400Y245000D02*
D03*
Y239100D02*
D03*
X122000D02*
D03*
X140500Y233200D02*
D03*
X122200Y233300D02*
D03*
X130700Y205600D02*
D03*
X122100Y205300D02*
D03*
X134100Y179500D02*
D03*
X118500Y176700D02*
D03*
X198300Y192200D02*
D03*
X204200D02*
D03*
X210100D02*
D03*
X216000Y192300D02*
D03*
X221900Y192200D02*
D03*
X233700Y192600D02*
D03*
X227800Y192300D02*
D03*
X247638Y194882D02*
D03*
X263386Y192126D02*
D03*
X277953Y184646D02*
D03*
X280709D02*
D03*
X282677D02*
D03*
X283858Y201575D02*
D03*
X281890Y199606D02*
D03*
X285827Y203543D02*
D03*
X300500Y211100D02*
D03*
X298300Y213300D02*
D03*
X164800Y168300D02*
D03*
X158900D02*
D03*
X153000D02*
D03*
X148031Y187402D02*
D03*
X465354Y127953D02*
D03*
X451575Y127165D02*
D03*
X439370Y121260D02*
D03*
X134646Y325590D02*
D03*
X274016Y344094D02*
D03*
X284252Y375984D02*
D03*
X251181Y325197D02*
D03*
X1263780Y433071D02*
D03*
X1261811D02*
D03*
X1253937D02*
D03*
X1251968D02*
D03*
X1244094D02*
D03*
X1242126D02*
D03*
X1234252D02*
D03*
X1232283D02*
D03*
X1224409D02*
D03*
X1222441D02*
D03*
X1214567D02*
D03*
X1212598D02*
D03*
X1296535Y227756D02*
D03*
X1288268Y229134D02*
D03*
X1285905Y229134D02*
D03*
X1283543D02*
D03*
X1282756Y227165D02*
D03*
X1280787D02*
D03*
X1275669Y232283D02*
D03*
Y234252D02*
D03*
Y236220D02*
D03*
Y238386D02*
D03*
X1275866Y242126D02*
D03*
Y244094D02*
D03*
X798819Y387402D02*
D03*
X709685Y174016D02*
D03*
X589685D02*
D03*
X469685D02*
D03*
X798817Y389763D02*
D03*
X707716Y175590D02*
D03*
X587716D02*
D03*
X467716D02*
D03*
X792126Y386221D02*
D03*
X709685Y170866D02*
D03*
X589685D02*
D03*
X469685D02*
D03*
X798819Y392913D02*
D03*
X707716Y178740D02*
D03*
X587716D02*
D03*
X467716D02*
D03*
X779921Y387795D02*
D03*
X768504Y222834D02*
D03*
X1288661Y184252D02*
D03*
X1168661Y184252D02*
D03*
X1048661D02*
D03*
X928661D02*
D03*
X808661D02*
D03*
X760236Y222835D02*
D03*
X707717Y172441D02*
D03*
X587716D02*
D03*
X467717D02*
D03*
X779921Y391339D02*
D03*
X770079Y224410D02*
D03*
X1309921Y184252D02*
D03*
X1189921Y184252D02*
D03*
X1069921D02*
D03*
X949921D02*
D03*
X829921D02*
D03*
X755512Y224410D02*
D03*
X709685Y177165D02*
D03*
X589685D02*
D03*
X469685D02*
D03*
X753937Y384646D02*
D03*
X766535D02*
D03*
X777559Y383071D02*
D03*
X774409Y380709D02*
D03*
X772441D02*
D03*
X770472D02*
D03*
X1309724Y203150D02*
D03*
X1189724Y203150D02*
D03*
X1069724D02*
D03*
X949724D02*
D03*
X829724D02*
D03*
X907874Y57087D02*
D03*
X892518Y57086D02*
D03*
X820079Y192520D02*
D03*
X1168858Y203150D02*
D03*
X1048858D02*
D03*
X1288858Y203150D02*
D03*
X928858Y203150D02*
D03*
X808858D02*
D03*
X844488Y264567D02*
D03*
X1035669Y257874D02*
D03*
Y259843D02*
D03*
X768504Y380709D02*
D03*
X766535D02*
D03*
X1268110Y179331D02*
D03*
X1148819D02*
D03*
X1027953D02*
D03*
X907874D02*
D03*
X133071Y260630D02*
D03*
X143701Y257086D02*
D03*
X789762Y184252D02*
D03*
X789764Y181102D02*
D03*
X1268110Y181299D02*
D03*
X1148819D02*
D03*
X1027953D02*
D03*
X907874D02*
D03*
X133071Y262598D02*
D03*
X143701Y259055D02*
D03*
X787795Y181102D02*
D03*
X709685Y167717D02*
D03*
X589685D02*
D03*
X469685D02*
D03*
X707717Y169291D02*
D03*
X587716D02*
D03*
X467717D02*
D03*
X709684Y180315D02*
D03*
X589684D02*
D03*
X469684D02*
D03*
X803148Y414960D02*
D03*
X798425Y414961D02*
D03*
X805510Y411810D02*
D03*
X800787Y411811D02*
D03*
X742126Y409842D02*
D03*
X742125Y407479D02*
D03*
X740550Y415353D02*
D03*
X740551Y412992D02*
D03*
X284252Y281496D02*
D03*
X259449Y192126D02*
D03*
X285827Y279921D02*
D03*
X261417Y193700D02*
D03*
X143307Y274409D02*
D03*
X122047Y270472D02*
D03*
X141732Y275984D02*
D03*
X122047Y272835D02*
D03*
X1259842Y305118D02*
D03*
Y301575D02*
D03*
Y298031D02*
D03*
Y294488D02*
D03*
X1140158Y305118D02*
D03*
Y301575D02*
D03*
Y298425D02*
D03*
Y294488D02*
D03*
X1020079Y305118D02*
D03*
Y301575D02*
D03*
Y298031D02*
D03*
Y294488D02*
D03*
X779921Y305118D02*
D03*
X779920Y301574D02*
D03*
X779921Y298031D02*
D03*
Y294882D02*
D03*
X93701Y347637D02*
D03*
X80709Y346457D02*
D03*
X116142Y268504D02*
D03*
X122441Y262992D02*
D03*
Y266142D02*
D03*
X116142Y264567D02*
D03*
X96063Y401181D02*
D03*
X106299Y399606D02*
D03*
X116535Y398031D02*
D03*
X136221Y397638D02*
D03*
X150787Y44488D02*
D03*
X150787Y49213D02*
D03*
X129528Y83071D02*
D03*
X129134Y87795D02*
D03*
X134646Y280315D02*
D03*
Y282283D02*
D03*
Y284252D02*
D03*
Y286221D02*
D03*
Y288189D02*
D03*
X122441D02*
D03*
X89370Y348031D02*
D03*
X94095Y352756D02*
D03*
X78740Y347638D02*
D03*
X82677D02*
D03*
X84646D02*
D03*
X94095Y356693D02*
D03*
X134646Y301969D02*
D03*
Y300000D02*
D03*
X124016Y303937D02*
D03*
X134646Y298031D02*
D03*
X125984Y301575D02*
D03*
X134646Y296063D02*
D03*
Y294094D02*
D03*
X125984Y296850D02*
D03*
X134646Y292126D02*
D03*
X35433Y381102D02*
D03*
X10630D02*
D03*
X35433Y371260D02*
D03*
X10630D02*
D03*
X35433Y359842D02*
D03*
X35315Y351063D02*
D03*
X11024Y351181D02*
D03*
X35433Y340945D02*
D03*
Y331102D02*
D03*
X75590Y317717D02*
D03*
X920787Y227165D02*
D03*
X922756D02*
D03*
X923543Y229134D02*
D03*
X925906D02*
D03*
X928268Y229134D02*
D03*
X936535Y227756D02*
D03*
X939094D02*
D03*
X892441Y254331D02*
D03*
X940866Y229134D02*
D03*
X894409Y254331D02*
D03*
X940866Y231102D02*
D03*
X896378Y254331D02*
D03*
X940866Y233071D02*
D03*
X898347Y254331D02*
D03*
X954252Y227362D02*
D03*
X899134Y217913D02*
D03*
X956417Y227362D02*
D03*
X900118Y215551D02*
D03*
X958189Y228740D02*
D03*
X900118Y212598D02*
D03*
X960157Y227362D02*
D03*
X900118Y208858D02*
D03*
X981024Y218110D02*
D03*
X965276Y234252D02*
D03*
X981024Y215551D02*
D03*
X965276Y236221D02*
D03*
X981024Y212205D02*
D03*
X965276Y238189D02*
D03*
X981024Y208661D02*
D03*
X965276Y240158D02*
D03*
X980827Y240157D02*
D03*
X981024Y243307D02*
D03*
X981024Y245669D02*
D03*
X981024Y247638D02*
D03*
X983780Y269685D02*
D03*
X982598Y273425D02*
D03*
X981417Y276575D02*
D03*
X980827Y280118D02*
D03*
Y294882D02*
D03*
Y298425D02*
D03*
Y301575D02*
D03*
Y305118D02*
D03*
X968032Y288583D02*
D03*
X900000Y304725D02*
D03*
X965669Y288583D02*
D03*
X900000Y301772D02*
D03*
X963307Y288583D02*
D03*
X900000Y298425D02*
D03*
X960945Y288583D02*
D03*
X900000Y294882D02*
D03*
X892244Y271654D02*
D03*
X941063Y267323D02*
D03*
X892244Y274016D02*
D03*
X941063Y273819D02*
D03*
X892244Y276378D02*
D03*
X941063Y276181D02*
D03*
X892244Y278740D02*
D03*
X938504Y276969D02*
D03*
X936535Y276968D02*
D03*
X937520Y274803D02*
D03*
Y272441D02*
D03*
X926693Y276969D02*
D03*
X924724D02*
D03*
X922756D02*
D03*
X920787D02*
D03*
X915669Y269685D02*
D03*
Y267717D02*
D03*
X915669Y265748D02*
D03*
X915669Y263779D02*
D03*
X915669Y259843D02*
D03*
Y257874D02*
D03*
X915669Y255905D02*
D03*
X915866Y248032D02*
D03*
Y246063D02*
D03*
Y244094D02*
D03*
Y242126D02*
D03*
X915669Y238386D02*
D03*
Y236220D02*
D03*
Y234252D02*
D03*
Y232283D02*
D03*
X966654Y205118D02*
D03*
X941457Y204724D02*
D03*
X927677Y209055D02*
D03*
X928661Y190551D02*
D03*
X925906Y190354D02*
D03*
X1299094Y227756D02*
D03*
X1252441Y254331D02*
D03*
X1300866Y229134D02*
D03*
X1254409Y254331D02*
D03*
X1300866Y231102D02*
D03*
X1256378Y254331D02*
D03*
X1300866Y233071D02*
D03*
X1258346Y254331D02*
D03*
X1314252Y227362D02*
D03*
X1259134Y217913D02*
D03*
X1316417Y227362D02*
D03*
X1260118Y215551D02*
D03*
X1318189Y228740D02*
D03*
X1260118Y212598D02*
D03*
X1320157Y227362D02*
D03*
X1260118Y208858D02*
D03*
X1341024Y218110D02*
D03*
X1325276Y234252D02*
D03*
X1341024Y215551D02*
D03*
X1325276Y236221D02*
D03*
X1341024Y212205D02*
D03*
X1325276Y238189D02*
D03*
X1341024Y208661D02*
D03*
X1325276Y240158D02*
D03*
X1340827Y240157D02*
D03*
X1341024Y243307D02*
D03*
X1341024Y245669D02*
D03*
X1341024Y247638D02*
D03*
X1343780Y269685D02*
D03*
X1342598Y273425D02*
D03*
X1341417Y276575D02*
D03*
X1340827Y280118D02*
D03*
Y294882D02*
D03*
Y298425D02*
D03*
Y301575D02*
D03*
Y305118D02*
D03*
X1328032Y288583D02*
D03*
X1325669D02*
D03*
X1323307Y288583D02*
D03*
X1320945D02*
D03*
X1252244Y271654D02*
D03*
X1301063Y267323D02*
D03*
X1252244Y274016D02*
D03*
X1301063Y273819D02*
D03*
X1252244Y276378D02*
D03*
X1301063Y276181D02*
D03*
X1252244Y278740D02*
D03*
X1326654Y205118D02*
D03*
X1301457Y204724D02*
D03*
X1287677Y209055D02*
D03*
X1288661Y190551D02*
D03*
X1285906Y190354D02*
D03*
X1179094Y227756D02*
D03*
X1132441Y254331D02*
D03*
X1180866Y229134D02*
D03*
X1134409Y254331D02*
D03*
X1180866Y231102D02*
D03*
X1136378Y254331D02*
D03*
X1180866Y233071D02*
D03*
X1138346Y254331D02*
D03*
X1194252Y227362D02*
D03*
X1139134Y217913D02*
D03*
X1196417Y227362D02*
D03*
X1140118Y215551D02*
D03*
X1198189Y228740D02*
D03*
X1140118Y212598D02*
D03*
X1200157Y227362D02*
D03*
X1140118Y208858D02*
D03*
X1221024Y218110D02*
D03*
X1205276Y234252D02*
D03*
X1221024Y215551D02*
D03*
X1205276Y236221D02*
D03*
X1221024Y212205D02*
D03*
X1205276Y238189D02*
D03*
X1221024Y208661D02*
D03*
X1205276Y240158D02*
D03*
X1220827Y240157D02*
D03*
X1221024Y243307D02*
D03*
X1221024Y245669D02*
D03*
X1221024Y247638D02*
D03*
X1223780Y269685D02*
D03*
X1222598Y273425D02*
D03*
X1221417Y276575D02*
D03*
X1220827Y280118D02*
D03*
Y294882D02*
D03*
Y298425D02*
D03*
Y301575D02*
D03*
Y305118D02*
D03*
X1208031Y288583D02*
D03*
X1205669D02*
D03*
X1203307Y288583D02*
D03*
X1200945D02*
D03*
X1132244Y271654D02*
D03*
X1181063Y267323D02*
D03*
Y269685D02*
D03*
X1132244Y274016D02*
D03*
X1181063Y273819D02*
D03*
X1132244Y276378D02*
D03*
X1181063Y276181D02*
D03*
X1132244Y278740D02*
D03*
X1206654Y205118D02*
D03*
X1181457Y204724D02*
D03*
X1167677Y209055D02*
D03*
X1168661Y190551D02*
D03*
X1165906Y190354D02*
D03*
X1059094Y227756D02*
D03*
X1012441Y254331D02*
D03*
X1060866Y229134D02*
D03*
X1014409Y254331D02*
D03*
X1060866Y231102D02*
D03*
X1016378Y254331D02*
D03*
X1060866Y233071D02*
D03*
X1018347Y254331D02*
D03*
X1074252Y227362D02*
D03*
X1019134Y217913D02*
D03*
X1076417Y227362D02*
D03*
X1020118Y215551D02*
D03*
X1078189Y228740D02*
D03*
X1020118Y212598D02*
D03*
X1080157Y227362D02*
D03*
X1020118Y208858D02*
D03*
X1101024Y218110D02*
D03*
X1085276Y234252D02*
D03*
X1101024Y215551D02*
D03*
X1085276Y236221D02*
D03*
X1101024Y212205D02*
D03*
X1085276Y238189D02*
D03*
X1101024Y208661D02*
D03*
X1085276Y240158D02*
D03*
X1100827Y240157D02*
D03*
X1101024Y243307D02*
D03*
X1101024Y245669D02*
D03*
X1101024Y247638D02*
D03*
X1103780Y269685D02*
D03*
X1102598Y273425D02*
D03*
X1101417Y276575D02*
D03*
X1100827Y280118D02*
D03*
Y294882D02*
D03*
Y298425D02*
D03*
Y301575D02*
D03*
Y305118D02*
D03*
X1088031Y288583D02*
D03*
X1085669D02*
D03*
X1083307Y288583D02*
D03*
X1080945D02*
D03*
X1012244Y271654D02*
D03*
X1061063Y267323D02*
D03*
X1012244Y274016D02*
D03*
X1061063Y273819D02*
D03*
X1012244Y276378D02*
D03*
X1061063Y276181D02*
D03*
X1012244Y278740D02*
D03*
X1086654Y205118D02*
D03*
X1061457Y204724D02*
D03*
X1047677Y209055D02*
D03*
X1048661Y190551D02*
D03*
X1045906Y190354D02*
D03*
X778346Y254331D02*
D03*
X776378D02*
D03*
X774409D02*
D03*
X772441D02*
D03*
X345276Y272441D02*
D03*
Y270472D02*
D03*
Y260630D02*
D03*
X345239Y258661D02*
D03*
X345275Y246850D02*
D03*
X345276Y248819D02*
D03*
X848032Y288583D02*
D03*
X845669D02*
D03*
X821457Y204724D02*
D03*
X861024Y247638D02*
D03*
Y243307D02*
D03*
X380315Y211024D02*
D03*
X378346D02*
D03*
X376378D02*
D03*
X374410D02*
D03*
X293701Y211417D02*
D03*
Y213386D02*
D03*
X291732Y211417D02*
D03*
Y209449D02*
D03*
X292913Y185827D02*
D03*
X289764Y207480D02*
D03*
X287795D02*
D03*
Y205512D02*
D03*
X285827D02*
D03*
X287008Y184646D02*
D03*
X283858Y203543D02*
D03*
X281890Y201575D02*
D03*
X279921Y199606D02*
D03*
Y197638D02*
D03*
X290945Y184646D02*
D03*
X285039D02*
D03*
X275787D02*
D03*
X296850Y185827D02*
D03*
X294882Y184646D02*
D03*
X273228D02*
D03*
X345276Y325590D02*
D03*
X69300Y102100D02*
D03*
X90800Y70900D02*
D03*
X84000Y78000D02*
D03*
X78400Y28700D02*
D03*
X43900Y41700D02*
D03*
X47100Y54000D02*
D03*
Y69900D02*
D03*
X47000Y85700D02*
D03*
Y101400D02*
D03*
X49200Y111300D02*
D03*
X84800Y110100D02*
D03*
X78800Y103800D02*
D03*
X84600Y125100D02*
D03*
X71400D02*
D03*
X58500Y129200D02*
D03*
X83100Y61000D02*
D03*
X91100Y66200D02*
D03*
X78600Y34200D02*
D03*
X625774Y69202D02*
D03*
X654574Y77802D02*
D03*
X640374Y78802D02*
D03*
X603674Y63902D02*
D03*
X613974Y74702D02*
D03*
X647574Y60202D02*
D03*
X661074Y85902D02*
D03*
X655974D02*
D03*
X627374Y85702D02*
D03*
X600974Y88602D02*
D03*
X599474Y72102D02*
D03*
X608974Y91302D02*
D03*
X525200Y85700D02*
D03*
X451992Y67689D02*
D03*
X427000Y67900D02*
D03*
X422000Y68000D02*
D03*
X418500Y35300D02*
D03*
X419600Y46800D02*
D03*
X401100Y42400D02*
D03*
X404000Y68200D02*
D03*
X125591Y219488D02*
D03*
X446500Y114597D02*
D03*
X424000Y117697D02*
D03*
X434900Y112797D02*
D03*
X421500Y117797D02*
D03*
X443600Y126397D02*
D03*
X448900D02*
D03*
X417500Y126597D02*
D03*
X860827Y305118D02*
D03*
Y301575D02*
D03*
Y298425D02*
D03*
Y294882D02*
D03*
Y280118D02*
D03*
X861417Y276575D02*
D03*
X862598Y273425D02*
D03*
X863780Y269685D02*
D03*
X840945Y288583D02*
D03*
X843307D02*
D03*
X821063Y267323D02*
D03*
X772244Y271654D02*
D03*
Y274016D02*
D03*
X821063Y273819D02*
D03*
X772244Y276378D02*
D03*
X821063Y276181D02*
D03*
X772244Y278740D02*
D03*
X840157Y227362D02*
D03*
X780118Y208858D02*
D03*
X838189Y228740D02*
D03*
X780118Y212598D02*
D03*
X836417Y227362D02*
D03*
X780118Y215551D02*
D03*
X834252Y227362D02*
D03*
X779134Y217913D02*
D03*
X861024Y245669D02*
D03*
X860827Y240157D02*
D03*
X861024Y218110D02*
D03*
Y215551D02*
D03*
Y212205D02*
D03*
X84350Y129921D02*
D03*
X68898Y127362D02*
D03*
X399100Y67597D02*
D03*
X398600Y50097D02*
D03*
X498800Y88600D02*
D03*
X497300Y72100D02*
D03*
X552400Y77800D02*
D03*
X538200Y78800D02*
D03*
X84350Y99606D02*
D03*
X83563Y93012D02*
D03*
X87008Y55906D02*
D03*
X84843Y90551D02*
D03*
X85138Y50787D02*
D03*
X81201Y77854D02*
D03*
X88780Y80906D02*
D03*
X71555Y85630D02*
D03*
Y69587D02*
D03*
X71752Y54429D02*
D03*
X501500Y63900D02*
D03*
X276969Y208071D02*
D03*
Y205906D02*
D03*
X808268Y229134D02*
D03*
X274803Y205906D02*
D03*
X818504Y276969D02*
D03*
X816535Y276968D02*
D03*
X345276Y323622D02*
D03*
X366535Y211024D02*
D03*
X817520Y274803D02*
D03*
X345276Y319685D02*
D03*
X368504Y211024D02*
D03*
X817520Y272441D02*
D03*
X345276Y317717D02*
D03*
X370472Y211024D02*
D03*
X806693Y276969D02*
D03*
X345276Y313779D02*
D03*
X372441Y211024D02*
D03*
X804724Y276969D02*
D03*
X345276Y311811D02*
D03*
X802756Y276969D02*
D03*
X345276Y301969D02*
D03*
X800787Y276969D02*
D03*
X345276Y300000D02*
D03*
X795669Y269685D02*
D03*
X345276Y296063D02*
D03*
X795669Y267717D02*
D03*
X345276Y294094D02*
D03*
X295669Y213386D02*
D03*
X795669Y265748D02*
D03*
X345276Y290158D02*
D03*
Y288189D02*
D03*
X795669Y259843D02*
D03*
X345276Y284252D02*
D03*
X795669Y257874D02*
D03*
X345276Y282283D02*
D03*
Y278346D02*
D03*
X289764Y209449D02*
D03*
X345276Y276378D02*
D03*
X795866Y248032D02*
D03*
Y246063D02*
D03*
Y244094D02*
D03*
Y242126D02*
D03*
X795669Y232283D02*
D03*
X807677Y209055D02*
D03*
X808661Y190551D02*
D03*
X805906Y190354D02*
D03*
X545400Y60200D02*
D03*
X404600Y55097D02*
D03*
X455000Y67797D02*
D03*
X846654Y205118D02*
D03*
X553800Y85900D02*
D03*
X506800Y91300D02*
D03*
X523600Y69200D02*
D03*
X558900Y85900D02*
D03*
X511800Y74700D02*
D03*
X795669Y255905D02*
D03*
Y263779D02*
D03*
X805906Y229134D02*
D03*
X816535Y227756D02*
D03*
X800787Y227165D02*
D03*
X795669Y234252D02*
D03*
X803543Y229134D02*
D03*
X795669Y236220D02*
D03*
X802756Y227165D02*
D03*
X795669Y238386D02*
D03*
X820866Y231102D02*
D03*
Y233071D02*
D03*
X819094Y227756D02*
D03*
X820866Y229134D02*
D03*
X845276Y234252D02*
D03*
Y236221D02*
D03*
Y238189D02*
D03*
Y240158D02*
D03*
X861024Y208661D02*
D03*
X345276Y217323D02*
D03*
X335827Y185433D02*
D03*
X345276Y219291D02*
D03*
X478346Y273346D02*
D03*
Y275394D02*
D03*
X326772Y276480D02*
D03*
Y278527D02*
D03*
X427953Y278290D02*
D03*
Y280337D02*
D03*
Y284764D02*
D03*
Y286811D02*
D03*
X326772Y296244D02*
D03*
Y294197D02*
D03*
Y302150D02*
D03*
Y300102D02*
D03*
X427953Y291850D02*
D03*
Y293898D02*
D03*
X345276Y308055D02*
D03*
Y306008D02*
D03*
X475197Y284055D02*
D03*
Y286102D02*
D03*
X326772Y306008D02*
D03*
Y308055D02*
D03*
X480709Y277284D02*
D03*
Y279331D02*
D03*
X326772Y290338D02*
D03*
Y288291D02*
D03*
X427953Y298937D02*
D03*
Y300984D02*
D03*
X326772Y311913D02*
D03*
Y313961D02*
D03*
Y317819D02*
D03*
Y319866D02*
D03*
Y325772D02*
D03*
Y323724D02*
D03*
X332165Y214567D02*
D03*
X330118D02*
D03*
X335315Y211024D02*
D03*
X333268D02*
D03*
X336339Y214961D02*
D03*
X338386D02*
D03*
X350590Y224016D02*
D03*
X352638D02*
D03*
X328346Y218110D02*
D03*
X330709Y218110D02*
D03*
X314685Y220472D02*
D03*
X316732D02*
D03*
X349488Y227953D02*
D03*
X347441D02*
D03*
X319685Y222441D02*
D03*
X317638D02*
D03*
X329331Y226378D02*
D03*
X331378D02*
D03*
X336614Y227165D02*
D03*
X334567D02*
D03*
X600787Y273346D02*
D03*
Y275394D02*
D03*
X551575Y276890D02*
D03*
Y278937D02*
D03*
X315354Y229236D02*
D03*
X332283D02*
D03*
X315354Y231283D02*
D03*
X332283D02*
D03*
X600787Y280039D02*
D03*
Y282087D02*
D03*
X312992Y234449D02*
D03*
Y232402D02*
D03*
X551575Y283976D02*
D03*
Y286024D02*
D03*
X310630Y235551D02*
D03*
Y237598D02*
D03*
X600787Y287126D02*
D03*
Y289173D02*
D03*
X312992Y241047D02*
D03*
Y243094D02*
D03*
X551575Y290276D02*
D03*
Y292323D02*
D03*
X600787Y293425D02*
D03*
Y295472D02*
D03*
X551575Y296575D02*
D03*
Y298622D02*
D03*
X308268Y258764D02*
D03*
Y260811D02*
D03*
X600787Y299724D02*
D03*
Y301772D02*
D03*
X305906Y264669D02*
D03*
Y266717D02*
D03*
X551575Y302874D02*
D03*
Y304921D02*
D03*
X51575Y308267D02*
D03*
X69685Y306299D02*
D03*
X36220Y312598D02*
D03*
X133858Y305906D02*
D03*
X44882Y314173D02*
D03*
X131496Y307874D02*
D03*
X41339Y314173D02*
D03*
X133858Y309842D02*
D03*
X34252Y310630D02*
D03*
X131496Y311811D02*
D03*
X32283Y308661D02*
D03*
X133858Y313779D02*
D03*
X30315Y310630D02*
D03*
X131496Y315748D02*
D03*
X133858Y317717D02*
D03*
X71653Y303937D02*
D03*
X24409Y278740D02*
D03*
X24803Y276378D02*
D03*
X101969Y251969D02*
D03*
Y231496D02*
D03*
X61811Y293307D02*
D03*
Y301575D02*
D03*
X416929Y124409D02*
D03*
X231890Y337795D02*
D03*
X235827D02*
D03*
X239764D02*
D03*
X243701D02*
D03*
X229921D02*
D03*
X233858D02*
D03*
X237795D02*
D03*
X241732D02*
D03*
X249606D02*
D03*
X247638D02*
D03*
X251575D02*
D03*
X255512D02*
D03*
X259449D02*
D03*
X263386D02*
D03*
X181890Y377165D02*
D03*
X218898Y349213D02*
D03*
X257480Y337795D02*
D03*
X231496Y325197D02*
D03*
X235827D02*
D03*
X237795D02*
D03*
X239764D02*
D03*
X241732D02*
D03*
X243701D02*
D03*
X247638D02*
D03*
X269291D02*
D03*
X271260D02*
D03*
X227953D02*
D03*
X140551Y268504D02*
D03*
X140551Y266535D02*
D03*
X151919Y266571D02*
D03*
X143701Y261023D02*
D03*
X140551Y264566D02*
D03*
X259449Y325197D02*
D03*
X257480D02*
D03*
X255512D02*
D03*
X253543D02*
D03*
X760236Y424409D02*
D03*
Y419291D02*
D03*
X760235Y414566D02*
D03*
X760236Y409449D02*
D03*
Y404331D02*
D03*
Y399606D02*
D03*
X746063Y425591D02*
D03*
X717717Y424409D02*
D03*
Y419291D02*
D03*
Y414173D02*
D03*
Y409449D02*
D03*
X717715Y404330D02*
D03*
X717717Y399213D02*
D03*
X494488Y422441D02*
D03*
X516536D02*
D03*
X524016Y416142D02*
D03*
X526378D02*
D03*
X528740D02*
D03*
X531102D02*
D03*
X533465D02*
D03*
X535827D02*
D03*
X538189D02*
D03*
X522047Y414567D02*
D03*
X411024Y432677D02*
D03*
Y453150D02*
D03*
X416536Y446063D02*
D03*
X414961Y432677D02*
D03*
X429134Y436614D02*
D03*
X261417Y337795D02*
D03*
X268898D02*
D03*
X270866D02*
D03*
X272835D02*
D03*
X274803D02*
D03*
X233858Y325197D02*
D03*
X251575Y66535D02*
D03*
X287401Y316929D02*
D03*
X288976Y318898D02*
D03*
X290551Y316929D02*
D03*
X292125Y318897D02*
D03*
X293701Y316929D02*
D03*
X134646Y258661D02*
D03*
X161411Y84684D02*
D03*
X11024Y331102D02*
D03*
X122441Y291732D02*
D03*
X149606Y149606D02*
D03*
X11024Y340945D02*
D03*
X124016Y294488D02*
D03*
X147638Y149606D02*
D03*
X11024Y361024D02*
D03*
X124016Y299213D02*
D03*
X145669Y149212D02*
D03*
X161511Y87246D02*
D03*
X149212Y159449D02*
D03*
X340945Y49606D02*
D03*
X134646Y252756D02*
D03*
X342126Y74410D02*
D03*
X134646Y254724D02*
D03*
Y256693D02*
D03*
X342126Y100000D02*
D03*
Y124803D02*
D03*
X222834Y96850D02*
D03*
X232677Y97638D02*
D03*
X220866Y96850D02*
D03*
X232677Y103150D02*
D03*
X134645Y246850D02*
D03*
X177559Y73622D02*
D03*
X177559Y78740D02*
D03*
Y83858D02*
D03*
Y88976D02*
D03*
Y98819D02*
D03*
Y103937D02*
D03*
X179921Y111811D02*
D03*
X177559Y94095D02*
D03*
X244882Y184646D02*
D03*
X247638Y192323D02*
D03*
X1035669Y263779D02*
D03*
X247638Y184646D02*
D03*
X1035669Y265748D02*
D03*
X249606Y192323D02*
D03*
X1035669Y267717D02*
D03*
X261417Y184646D02*
D03*
X266535Y196063D02*
D03*
X1035669Y269685D02*
D03*
X266535Y198032D02*
D03*
X1040787Y276969D02*
D03*
X263779Y184646D02*
D03*
X268701Y198032D02*
D03*
X1042756Y276969D02*
D03*
X268701Y200000D02*
D03*
X1044724Y276969D02*
D03*
X266142Y184646D02*
D03*
X270866Y200000D02*
D03*
X1046693Y276969D02*
D03*
X268504Y184646D02*
D03*
X270866Y201969D02*
D03*
X1057520Y272441D02*
D03*
X270866Y184646D02*
D03*
X272835Y201969D02*
D03*
X1057520Y274803D02*
D03*
X272835Y203937D02*
D03*
X1056535Y276968D02*
D03*
X274803Y203937D02*
D03*
X1058504Y276969D02*
D03*
X231890Y186220D02*
D03*
X1035669Y236220D02*
D03*
X231693Y182087D02*
D03*
X1035669Y234252D02*
D03*
X229724Y186220D02*
D03*
X1035669Y232283D02*
D03*
X1040787Y227165D02*
D03*
X225984Y186417D02*
D03*
X1042756Y227165D02*
D03*
X1043543Y229134D02*
D03*
X223819Y186417D02*
D03*
X1045905Y229134D02*
D03*
X1048268Y229134D02*
D03*
X1056535Y227756D02*
D03*
X233858Y183858D02*
D03*
X1035669Y238386D02*
D03*
X235827Y186417D02*
D03*
X1035866Y242126D02*
D03*
X236614Y183858D02*
D03*
X1035866Y244094D02*
D03*
X237992Y186417D02*
D03*
X1035866Y246063D02*
D03*
X241732Y178543D02*
D03*
X1035866Y248032D02*
D03*
X241339Y192323D02*
D03*
X241929Y184646D02*
D03*
X243504Y192323D02*
D03*
X1155669Y259843D02*
D03*
X134055Y193898D02*
D03*
X1155669Y263779D02*
D03*
X199409Y185827D02*
D03*
X1155669Y265748D02*
D03*
X129921Y189370D02*
D03*
X1155669Y267717D02*
D03*
X203740Y185039D02*
D03*
X1155669Y269685D02*
D03*
X129921Y187402D02*
D03*
X1160787Y276969D02*
D03*
X1162756D02*
D03*
X129921Y185433D02*
D03*
X1164724Y276969D02*
D03*
X212402Y183465D02*
D03*
X1166693Y276969D02*
D03*
X129921Y183465D02*
D03*
X1177520Y272441D02*
D03*
Y274803D02*
D03*
X129921Y181496D02*
D03*
X1176535Y276968D02*
D03*
X1178504Y276969D02*
D03*
X176575Y196654D02*
D03*
X132874Y203346D02*
D03*
X1155669Y236220D02*
D03*
X174409Y197047D02*
D03*
X1155669Y234252D02*
D03*
X172244Y197441D02*
D03*
X122244Y207480D02*
D03*
X1155669Y232283D02*
D03*
X170079Y197835D02*
D03*
X1160787Y227165D02*
D03*
X167913Y198228D02*
D03*
X123425Y209449D02*
D03*
X1162756Y227165D02*
D03*
X165748Y198622D02*
D03*
X1163543Y229134D02*
D03*
X163583Y199016D02*
D03*
X122441Y211417D02*
D03*
X1165905Y229134D02*
D03*
X161417Y199409D02*
D03*
X1168268Y229134D02*
D03*
X159252Y199803D02*
D03*
X123425Y213386D02*
D03*
X1176535Y227756D02*
D03*
X178740Y196653D02*
D03*
X1155669Y238386D02*
D03*
X180906Y195866D02*
D03*
X131890Y201181D02*
D03*
X1155866Y242126D02*
D03*
X183071Y195669D02*
D03*
X1155866Y244094D02*
D03*
X185236Y195276D02*
D03*
X133071Y199409D02*
D03*
X1155866Y246063D02*
D03*
X187402Y194882D02*
D03*
X1155866Y248032D02*
D03*
X189370Y194291D02*
D03*
X131890Y197638D02*
D03*
X191535Y194291D02*
D03*
X1155669Y255905D02*
D03*
X193307Y192717D02*
D03*
X133071Y195866D02*
D03*
X1155669Y257874D02*
D03*
X128740Y228937D02*
D03*
X1275669Y259843D02*
D03*
X130118Y227165D02*
D03*
X1275669Y263779D02*
D03*
X132480Y227165D02*
D03*
X1275669Y265748D02*
D03*
X134252Y225591D02*
D03*
X1275669Y267717D02*
D03*
X142717Y225000D02*
D03*
X1275669Y269685D02*
D03*
X123819Y223425D02*
D03*
X144685Y224606D02*
D03*
X1280787Y276969D02*
D03*
X146850Y224213D02*
D03*
X1282756Y276969D02*
D03*
X148228Y205709D02*
D03*
X122638Y221260D02*
D03*
X1284724Y276969D02*
D03*
X149606Y203937D02*
D03*
X1286693Y276969D02*
D03*
X123622Y217323D02*
D03*
X150984Y202362D02*
D03*
X1297520Y272441D02*
D03*
X152756Y200984D02*
D03*
X1297520Y274803D02*
D03*
X122441Y215354D02*
D03*
X154921Y200591D02*
D03*
X1296535Y276968D02*
D03*
X157087Y200197D02*
D03*
X1298504Y276969D02*
D03*
X125197Y230906D02*
D03*
X1275669Y255905D02*
D03*
X123032Y231102D02*
D03*
X126575Y229134D02*
D03*
X1275669Y257874D02*
D03*
X269291Y127953D02*
D03*
X1275866Y246063D02*
D03*
X267323Y129528D02*
D03*
X1275866Y248032D02*
D03*
X134645Y248818D02*
D03*
X134646Y250787D02*
D03*
X162205Y151181D02*
D03*
X164173D02*
D03*
X907874Y42520D02*
D03*
X875984Y35039D02*
D03*
X863386Y29134D02*
D03*
X864959Y27559D02*
D03*
X868504Y51181D02*
D03*
X868898Y46063D02*
D03*
X866534Y25984D02*
D03*
X866929Y40945D02*
D03*
X688976Y293898D02*
D03*
X709449Y293976D02*
D03*
X688976Y291850D02*
D03*
X709449Y291929D02*
D03*
X688976Y284528D02*
D03*
X709449D02*
D03*
X688976Y282480D02*
D03*
X709449D02*
D03*
X688976Y275079D02*
D03*
X709449D02*
D03*
X688976Y273031D02*
D03*
X709449D02*
D03*
X688976Y265630D02*
D03*
X709449Y265551D02*
D03*
X688976Y263583D02*
D03*
X709449Y263504D02*
D03*
X685039Y259331D02*
D03*
X709449Y256181D02*
D03*
X685039Y257283D02*
D03*
X709449Y254134D02*
D03*
X326772Y282386D02*
D03*
Y284433D02*
D03*
X253543Y337795D02*
D03*
X268110Y332677D02*
D03*
X249606Y329921D02*
D03*
X795668Y253937D02*
D03*
X915746D02*
D03*
X195079Y186417D02*
D03*
X208071Y184252D02*
D03*
X216732Y182677D02*
D03*
X228346Y182283D02*
D03*
X225984Y180512D02*
D03*
X218898Y182283D02*
D03*
X214567Y183071D02*
D03*
X210236Y183858D02*
D03*
X205906Y184646D02*
D03*
X201575Y185433D02*
D03*
X197244Y186221D02*
D03*
X223228Y177559D02*
D03*
X222441Y179921D02*
D03*
X220866Y181523D02*
D03*
X1301063Y269685D02*
D03*
X1061063Y269685D02*
D03*
X941063D02*
D03*
X821063D02*
D03*
X1275669Y253819D02*
D03*
X1155669D02*
D03*
X84252Y70472D02*
D03*
X27953Y356299D02*
D03*
X28346Y323622D02*
D03*
X173228Y347638D02*
D03*
X1285039Y311024D02*
D03*
X1281887Y311023D02*
D03*
X1283462Y312598D02*
D03*
X1280312D02*
D03*
X1277165Y312598D02*
D03*
X1278738Y311023D02*
D03*
X1275588D02*
D03*
X1274013Y312598D02*
D03*
X1272438Y311023D02*
D03*
X1270866Y312598D02*
D03*
X1269291Y311024D02*
D03*
X1267714Y312598D02*
D03*
X384252Y439370D02*
D03*
X385039Y127953D02*
D03*
X385039Y125984D02*
D03*
X419291Y118898D02*
D03*
X416929Y122047D02*
D03*
X431595Y123031D02*
D03*
X431496Y119291D02*
D03*
X157480Y150787D02*
D03*
X159449D02*
D03*
X367323Y418898D02*
D03*
X719085Y168711D02*
D03*
X717693Y170103D02*
D03*
X971653Y154724D02*
D03*
X886614Y304331D02*
D03*
X869685Y290551D02*
D03*
X115000Y279800D02*
D03*
X116500Y278500D02*
D03*
X857185Y341929D02*
D03*
Y337992D02*
D03*
X889468Y340650D02*
D03*
X887598Y344094D02*
D03*
X857185Y346752D02*
D03*
X877756Y352854D02*
D03*
X887598Y346654D02*
D03*
X888681Y338189D02*
D03*
X879626Y322441D02*
D03*
X880020Y291634D02*
D03*
X857480Y334744D02*
D03*
X857087Y344193D02*
D03*
X857480Y349508D02*
D03*
X880709Y350590D02*
D03*
X882087Y341929D02*
D03*
X888681Y333366D02*
D03*
X857874Y329331D02*
D03*
X867520Y318701D02*
D03*
X329200Y245800D02*
D03*
Y247900D02*
D03*
X308700Y224100D02*
D03*
X307200Y225600D02*
D03*
X310255Y255200D02*
D03*
X308200Y254700D02*
D03*
X330300Y269510D02*
D03*
Y271557D02*
D03*
X310200Y251800D02*
D03*
Y249753D02*
D03*
X345276Y240945D02*
D03*
Y242913D02*
D03*
X161500Y92500D02*
D03*
Y89700D02*
D03*
X161411Y82228D02*
D03*
X161400Y79600D02*
D03*
X138100D02*
D03*
X146400Y82100D02*
D03*
X161300Y77000D02*
D03*
Y74500D02*
D03*
D244*
X507803Y412340D02*
D03*
X509575Y414702D02*
D03*
Y409978D02*
D03*
X506032D02*
D03*
Y414702D02*
D03*
X409935Y426309D02*
D03*
X413872D02*
D03*
Y422372D02*
D03*
X409935D02*
D03*
X411903Y424340D02*
D03*
D245*
X126378Y205512D02*
D03*
X452000Y113900D02*
D03*
X1315100Y216700D02*
D03*
X1195100Y216700D02*
D03*
X1075100D02*
D03*
X955100D02*
D03*
X835100D02*
D03*
X1342200Y226700D02*
D03*
Y221200D02*
D03*
X1326400Y222200D02*
D03*
X1222200Y226700D02*
D03*
Y221200D02*
D03*
X1206400Y222200D02*
D03*
X1102200Y226700D02*
D03*
Y221200D02*
D03*
X1086400Y222200D02*
D03*
X982200Y226700D02*
D03*
Y221200D02*
D03*
X966400Y222200D02*
D03*
X846400D02*
D03*
X862200Y221200D02*
D03*
Y226700D02*
D03*
X1314899Y209264D02*
D03*
X1194899Y209264D02*
D03*
X1074900Y209300D02*
D03*
X954899Y209264D02*
D03*
X834900Y209300D02*
D03*
X818700Y210300D02*
D03*
X821400Y209100D02*
D03*
X802600Y209200D02*
D03*
X1298700Y210300D02*
D03*
X1301400Y209100D02*
D03*
X1282600Y209200D02*
D03*
X1178700Y210300D02*
D03*
X1181400Y209100D02*
D03*
X1162600Y209200D02*
D03*
X1058700Y210300D02*
D03*
X1061400Y209100D02*
D03*
X1042600Y209200D02*
D03*
X922600D02*
D03*
X941400Y209100D02*
D03*
X938700Y210300D02*
D03*
X1283300Y189300D02*
D03*
X1312100Y186200D02*
D03*
X1288800Y196700D02*
D03*
X1309400Y197600D02*
D03*
X1163300Y189300D02*
D03*
X1192100Y186200D02*
D03*
X1168800Y196700D02*
D03*
X1189400Y197600D02*
D03*
X1043300Y189300D02*
D03*
X1072100Y186200D02*
D03*
X1048800Y196700D02*
D03*
X1069400Y197600D02*
D03*
X923300Y189300D02*
D03*
X952100Y186200D02*
D03*
X928800Y196700D02*
D03*
X949400Y197600D02*
D03*
X829400D02*
D03*
X808800Y196700D02*
D03*
X832100Y186200D02*
D03*
X803300Y189300D02*
D03*
X1288500Y171700D02*
D03*
X1309900D02*
D03*
X1168500Y171700D02*
D03*
X1189900D02*
D03*
X1048500D02*
D03*
X1069900D02*
D03*
X928500D02*
D03*
X949900D02*
D03*
X829900D02*
D03*
X808500D02*
D03*
X1338800Y177700D02*
D03*
X1339600Y159500D02*
D03*
X1331400Y154500D02*
D03*
X1272800Y163400D02*
D03*
X1219700Y159600D02*
D03*
X1211500Y154300D02*
D03*
X1152900Y163600D02*
D03*
X912800Y163500D02*
D03*
X1032800Y163400D02*
D03*
X1091300Y154400D02*
D03*
X1099900Y159700D02*
D03*
X979800Y159500D02*
D03*
X859600D02*
D03*
X850900Y154200D02*
D03*
X802400Y163100D02*
D03*
X574400Y170400D02*
D03*
X693200Y170000D02*
D03*
X433000Y185300D02*
D03*
X304400Y56200D02*
D03*
X304300Y66100D02*
D03*
X349276Y47000D02*
D03*
X349176Y72100D02*
D03*
X349276Y98000D02*
D03*
Y123100D02*
D03*
X255600Y116500D02*
D03*
X268300Y123100D02*
D03*
X272400Y89300D02*
D03*
X138100Y122700D02*
D03*
X158700Y67500D02*
D03*
X142900Y56100D02*
D03*
X128400Y35900D02*
D03*
X129500Y63900D02*
D03*
X128400Y80000D02*
D03*
X124300Y110700D02*
D03*
X148200Y95200D02*
D03*
X63386Y370866D02*
D03*
X63779Y348031D02*
D03*
X10236Y323228D02*
D03*
X29528Y334646D02*
D03*
X18898Y366142D02*
D03*
X31102Y379134D02*
D03*
X130315Y388582D02*
D03*
X125197Y407087D02*
D03*
X165748Y374016D02*
D03*
X155905Y373622D02*
D03*
X116142Y370079D02*
D03*
X114173Y372047D02*
D03*
X96063Y370472D02*
D03*
X93701Y372047D02*
D03*
X129921Y364567D02*
D03*
X133465Y350787D02*
D03*
X35110Y401063D02*
D03*
X35039Y391063D02*
D03*
X29992Y401063D02*
D03*
X243294Y420384D02*
D03*
X240539Y419203D02*
D03*
X243294Y417628D02*
D03*
X240539Y416447D02*
D03*
X243294Y414872D02*
D03*
X93701Y434646D02*
D03*
X113779Y470079D02*
D03*
Y472441D02*
D03*
Y474803D02*
D03*
X125110Y459449D02*
D03*
X369685Y454331D02*
D03*
X405512Y409055D02*
D03*
X373622Y407480D02*
D03*
Y411417D02*
D03*
Y415354D02*
D03*
X386614D02*
D03*
X383071D02*
D03*
X386614Y407480D02*
D03*
X383465D02*
D03*
X376772Y409449D02*
D03*
Y413386D02*
D03*
X379921Y411417D02*
D03*
Y407480D02*
D03*
Y415354D02*
D03*
X451181Y439764D02*
D03*
Y442913D02*
D03*
Y446063D02*
D03*
X448032Y447638D02*
D03*
Y438189D02*
D03*
Y441339D02*
D03*
Y444488D02*
D03*
X444882Y439764D02*
D03*
Y442913D02*
D03*
Y446063D02*
D03*
X486221Y395669D02*
D03*
X493110D02*
D03*
X500000D02*
D03*
X506890D02*
D03*
X517913Y469488D02*
D03*
X513976D02*
D03*
X510039D02*
D03*
X512008Y466535D02*
D03*
X493110D02*
D03*
X500984D02*
D03*
X497047D02*
D03*
X499016Y463583D02*
D03*
X495079D02*
D03*
X493110Y460630D02*
D03*
X497047D02*
D03*
X500984D02*
D03*
X457874Y423622D02*
D03*
X461811D02*
D03*
X465748D02*
D03*
X468110Y420472D02*
D03*
X463779D02*
D03*
X459842D02*
D03*
X457874Y416929D02*
D03*
X461811D02*
D03*
X465748D02*
D03*
X477953Y430709D02*
D03*
Y426772D02*
D03*
X481496Y424803D02*
D03*
Y432677D02*
D03*
Y428740D02*
D03*
X485039Y426772D02*
D03*
Y430709D02*
D03*
X488189Y428740D02*
D03*
Y432677D02*
D03*
X491339Y427165D02*
D03*
Y430709D02*
D03*
Y434646D02*
D03*
X511024Y422835D02*
D03*
Y426772D02*
D03*
Y430709D02*
D03*
Y434646D02*
D03*
X485039Y439370D02*
D03*
X471260Y450000D02*
D03*
X805512Y407480D02*
D03*
X818898Y407087D02*
D03*
X816142Y432283D02*
D03*
X820472Y420866D02*
D03*
X817183Y426334D02*
D03*
X810236Y421260D02*
D03*
X777559Y414173D02*
D03*
Y409055D02*
D03*
X774409Y396063D02*
D03*
Y427559D02*
D03*
X756693Y435433D02*
D03*
X740945Y430315D02*
D03*
X709449Y437795D02*
D03*
X927953Y56299D02*
D03*
X915353Y57086D02*
D03*
X900787Y35039D02*
D03*
X882283Y38583D02*
D03*
Y50394D02*
D03*
X865354Y54331D02*
D03*
X854724Y57087D02*
D03*
X839370Y35039D02*
D03*
X665354Y125984D02*
D03*
X659447Y125984D02*
D03*
X624409Y126378D02*
D03*
X603543D02*
D03*
X562992Y125984D02*
D03*
X557086Y125984D02*
D03*
X522441Y126378D02*
D03*
X501575D02*
D03*
X405905Y119685D02*
D03*
X407874Y122047D02*
D03*
X419685Y111417D02*
D03*
X1340945Y283465D02*
D03*
X1332677D02*
D03*
X1354331Y263779D02*
D03*
X1220866Y283465D02*
D03*
X1212598D02*
D03*
X1100787D02*
D03*
X1092520D02*
D03*
X980709D02*
D03*
X972835D02*
D03*
X860630Y284252D02*
D03*
X852756D02*
D03*
X866535Y267717D02*
D03*
X986614D02*
D03*
X1106693D02*
D03*
X1226772D02*
D03*
X1218898Y176772D02*
D03*
X1259842Y176378D02*
D03*
X1098819D02*
D03*
X1140158D02*
D03*
X979528D02*
D03*
X1020079D02*
D03*
X1262596Y225984D02*
D03*
X1279134Y230315D02*
D03*
X1142913Y225590D02*
D03*
X1158661Y230315D02*
D03*
X1022835Y225984D02*
D03*
X1038583Y230315D02*
D03*
X782677Y227559D02*
D03*
X798425Y230315D02*
D03*
X900394Y170866D02*
D03*
X902756Y227559D02*
D03*
X918502Y230708D02*
D03*
X859842Y175984D02*
D03*
X161811Y101575D02*
D03*
X162205Y111417D02*
D03*
X94882Y361024D02*
D03*
X257874Y185039D02*
D03*
X330260Y262740D02*
D03*
X338386Y280512D02*
D03*
X43051Y294114D02*
D03*
X47776D02*
D03*
Y289390D02*
D03*
X38327D02*
D03*
X47776Y284665D02*
D03*
X43051D02*
D03*
X38327D02*
D03*
X43051Y289390D02*
D03*
X38327Y294114D02*
D03*
X21654Y298425D02*
D03*
X38189Y310630D02*
D03*
X44094D02*
D03*
X50787Y265748D02*
D03*
X17717Y283071D02*
D03*
X21654Y295276D02*
D03*
X18504Y294094D02*
D03*
X52362Y270472D02*
D03*
X37795Y270472D02*
D03*
X65354Y288976D02*
D03*
X62992Y290945D02*
D03*
X62598Y297637D02*
D03*
X68504Y301181D02*
D03*
X67716Y266929D02*
D03*
X62598Y262598D02*
D03*
X40157Y258661D02*
D03*
X32283Y261811D02*
D03*
X98425Y238976D02*
D03*
Y259842D02*
D03*
X74016Y288976D02*
D03*
X170866Y410630D02*
D03*
Y413386D02*
D03*
Y416142D02*
D03*
Y418898D02*
D03*
Y407874D02*
D03*
X231102D02*
D03*
Y418898D02*
D03*
Y416142D02*
D03*
Y413386D02*
D03*
Y410630D02*
D03*
X291732Y407874D02*
D03*
Y418898D02*
D03*
Y416142D02*
D03*
Y413386D02*
D03*
Y410630D02*
D03*
X150787Y418898D02*
D03*
Y416142D02*
D03*
Y410630D02*
D03*
Y407874D02*
D03*
X144882Y407874D02*
D03*
Y418898D02*
D03*
Y416142D02*
D03*
Y413386D02*
D03*
Y410630D02*
D03*
X150787Y413386D02*
D03*
X212205D02*
D03*
X206299Y410630D02*
D03*
Y413386D02*
D03*
Y416142D02*
D03*
Y418898D02*
D03*
Y407874D02*
D03*
X212205Y407874D02*
D03*
Y410630D02*
D03*
Y416142D02*
D03*
Y418898D02*
D03*
X272835Y413386D02*
D03*
X266929Y410630D02*
D03*
Y413386D02*
D03*
Y416142D02*
D03*
Y418898D02*
D03*
Y407874D02*
D03*
X272835Y407874D02*
D03*
Y410630D02*
D03*
Y416142D02*
D03*
Y418898D02*
D03*
X128346Y191732D02*
D03*
X88583Y464567D02*
D03*
X93307D02*
D03*
X98032D02*
D03*
X102756D02*
D03*
X107480D02*
D03*
X109843Y461024D02*
D03*
X105118D02*
D03*
X100394D02*
D03*
X95669D02*
D03*
X90945D02*
D03*
X107480Y457480D02*
D03*
X102756D02*
D03*
X98032D02*
D03*
X93307D02*
D03*
X88583D02*
D03*
X338583Y244882D02*
D03*
X329134Y280315D02*
D03*
X327559Y233465D02*
D03*
X115200Y325800D02*
D03*
X114961Y321654D02*
D03*
X244094Y70079D02*
D03*
X276378Y301181D02*
D03*
X134252Y321795D02*
D03*
X1366535Y19685D02*
D03*
X1364956Y24545D02*
D03*
X1360823Y27548D02*
D03*
X1355713D02*
D03*
X1351579Y24545D02*
D03*
X1350000Y19685D02*
D03*
X1351579Y14825D02*
D03*
X1355713Y11822D02*
D03*
X1360823D02*
D03*
X1364956Y14825D02*
D03*
Y479392D02*
D03*
X1360823Y476389D02*
D03*
X1355713D02*
D03*
X1351579Y479392D02*
D03*
X1350000Y484252D02*
D03*
X1351579Y489112D02*
D03*
X1355713Y492115D02*
D03*
X1360823D02*
D03*
X1364956Y489112D02*
D03*
X1366535Y484252D02*
D03*
X735035Y479392D02*
D03*
X730901Y476389D02*
D03*
X725792D02*
D03*
X721658Y479392D02*
D03*
X720079Y484252D02*
D03*
X721658Y489112D02*
D03*
X725792Y492115D02*
D03*
X730901D02*
D03*
X735035Y489112D02*
D03*
X736614Y484252D02*
D03*
X26374Y479392D02*
D03*
X22240Y476389D02*
D03*
X17130D02*
D03*
X12996Y479392D02*
D03*
X11417Y484252D02*
D03*
X12996Y489112D02*
D03*
X17130Y492115D02*
D03*
X22240D02*
D03*
X26374Y489112D02*
D03*
X27953Y484252D02*
D03*
X735035Y14825D02*
D03*
X730901Y11822D02*
D03*
X725792D02*
D03*
X721658Y14825D02*
D03*
X720079Y19685D02*
D03*
X721658Y24545D02*
D03*
X725792Y27548D02*
D03*
X730901D02*
D03*
X735035Y24545D02*
D03*
X736614Y19685D02*
D03*
X26374Y14825D02*
D03*
X22240Y11822D02*
D03*
X17130D02*
D03*
X12996Y14825D02*
D03*
X11417Y19685D02*
D03*
X12996Y24545D02*
D03*
X17130Y27548D02*
D03*
X22240D02*
D03*
X26374Y24545D02*
D03*
X27953Y19685D02*
D03*
X401968Y425984D02*
D03*
Y429134D02*
D03*
Y432283D02*
D03*
X130000Y455000D02*
D03*
X132500Y460000D02*
D03*
X130000Y465000D02*
D03*
X132500Y470000D02*
D03*
X130000Y475000D02*
D03*
X132500Y480000D02*
D03*
X135000Y455000D02*
D03*
Y465000D02*
D03*
X137500Y470000D02*
D03*
X135000Y475000D02*
D03*
X165000Y455000D02*
D03*
X167500Y460000D02*
D03*
X165000Y465000D02*
D03*
X167500Y470000D02*
D03*
X165000Y475000D02*
D03*
X167500Y480000D02*
D03*
X170000Y455000D02*
D03*
X172500Y460000D02*
D03*
X170000Y465000D02*
D03*
X172500Y470000D02*
D03*
X170000Y475000D02*
D03*
X172500Y480000D02*
D03*
X175000Y455000D02*
D03*
X177500Y460000D02*
D03*
X175000Y465000D02*
D03*
X177500Y470000D02*
D03*
X175000Y475000D02*
D03*
X177500Y480000D02*
D03*
X180000Y455000D02*
D03*
X182500Y460000D02*
D03*
X180000Y465000D02*
D03*
X182500Y470000D02*
D03*
X180000Y475000D02*
D03*
X182500Y480000D02*
D03*
X185000Y455000D02*
D03*
X187500Y460000D02*
D03*
X185000Y465000D02*
D03*
X187500Y470000D02*
D03*
X185000Y475000D02*
D03*
X187500Y480000D02*
D03*
X190000Y455000D02*
D03*
X192500Y460000D02*
D03*
X190000Y465000D02*
D03*
X192500Y470000D02*
D03*
X190000Y475000D02*
D03*
X192500Y480000D02*
D03*
X195000Y455000D02*
D03*
X197500Y460000D02*
D03*
X195000Y465000D02*
D03*
X197500Y470000D02*
D03*
X195000Y475000D02*
D03*
X197500Y480000D02*
D03*
X225000Y455000D02*
D03*
X227500Y460000D02*
D03*
X225000Y465000D02*
D03*
X227500Y470000D02*
D03*
X225000Y475000D02*
D03*
X227500Y480000D02*
D03*
X230000Y455000D02*
D03*
X232500Y460000D02*
D03*
X230000Y465000D02*
D03*
X232500Y470000D02*
D03*
X230000Y475000D02*
D03*
X232500Y480000D02*
D03*
X235000Y455000D02*
D03*
X237500Y460000D02*
D03*
X235000Y465000D02*
D03*
X237500Y470000D02*
D03*
X235000Y475000D02*
D03*
X237500Y480000D02*
D03*
X240000Y455000D02*
D03*
X242500Y460000D02*
D03*
X240000Y465000D02*
D03*
X242500Y470000D02*
D03*
X240000Y475000D02*
D03*
X242500Y480000D02*
D03*
X245000Y455000D02*
D03*
X247500Y460000D02*
D03*
X245000Y465000D02*
D03*
X247500Y470000D02*
D03*
X245000Y475000D02*
D03*
X247500Y480000D02*
D03*
X250000Y455000D02*
D03*
X252500Y460000D02*
D03*
X250000Y465000D02*
D03*
X252500Y470000D02*
D03*
X250000Y475000D02*
D03*
X252500Y480000D02*
D03*
X255000Y455000D02*
D03*
X257500Y460000D02*
D03*
X255000Y465000D02*
D03*
X257500Y470000D02*
D03*
X255000Y475000D02*
D03*
X257500Y480000D02*
D03*
X285000Y455000D02*
D03*
X287500Y460000D02*
D03*
X285000Y465000D02*
D03*
X287500Y470000D02*
D03*
X285000Y475000D02*
D03*
X287500Y480000D02*
D03*
X290000Y455000D02*
D03*
X292500Y460000D02*
D03*
X290000Y465000D02*
D03*
X292500Y470000D02*
D03*
X290000Y475000D02*
D03*
X292500Y480000D02*
D03*
X295000Y455000D02*
D03*
X297500Y460000D02*
D03*
X295000Y465000D02*
D03*
X297500Y470000D02*
D03*
X295000Y475000D02*
D03*
X297500Y480000D02*
D03*
X1296063Y329134D02*
D03*
X1302362D02*
D03*
X1296063Y322835D02*
D03*
X1302362D02*
D03*
X1309449D02*
D03*
X1288976D02*
D03*
Y329134D02*
D03*
X1309449D02*
D03*
Y316535D02*
D03*
X1302362D02*
D03*
X1296063D02*
D03*
X1288976D02*
D03*
Y335433D02*
D03*
X1296063D02*
D03*
Y332283D02*
D03*
X1288976D02*
D03*
X1309449Y335433D02*
D03*
X1302362D02*
D03*
X1309449Y332283D02*
D03*
X1302362D02*
D03*
X1309449Y325984D02*
D03*
X1302362D02*
D03*
X1296063Y325984D02*
D03*
X1288976D02*
D03*
X1296063Y319685D02*
D03*
X1288976D02*
D03*
X1309449Y319685D02*
D03*
X1302363D02*
D03*
X1309449Y313386D02*
D03*
X1302363D02*
D03*
X1296063D02*
D03*
X1288976D02*
D03*
X1168976Y313386D02*
D03*
X1176063D02*
D03*
X1182362D02*
D03*
X1189449D02*
D03*
X1182362Y319685D02*
D03*
X1189449D02*
D03*
X1168976Y319685D02*
D03*
X1176063D02*
D03*
X1168976Y325984D02*
D03*
X1176063D02*
D03*
X1182362Y325984D02*
D03*
X1189449D02*
D03*
X1182362Y332283D02*
D03*
X1189449D02*
D03*
X1182362Y335433D02*
D03*
X1189449D02*
D03*
X1168976Y332283D02*
D03*
X1176063D02*
D03*
Y335433D02*
D03*
X1168976D02*
D03*
Y316535D02*
D03*
X1176063D02*
D03*
X1182362D02*
D03*
X1189449D02*
D03*
Y329134D02*
D03*
X1168976D02*
D03*
Y322835D02*
D03*
X1189449D02*
D03*
X1182362D02*
D03*
X1176063D02*
D03*
X1182362Y329134D02*
D03*
X1176063D02*
D03*
X1048976Y313386D02*
D03*
X1056063D02*
D03*
X1062362D02*
D03*
X1069449D02*
D03*
X1062362Y319685D02*
D03*
X1069449D02*
D03*
X1048976Y319685D02*
D03*
X1056063D02*
D03*
X1048976Y325984D02*
D03*
X1056063D02*
D03*
X1062362Y325984D02*
D03*
X1069449D02*
D03*
X1062362Y332283D02*
D03*
X1069449D02*
D03*
X1062362Y335433D02*
D03*
X1069449D02*
D03*
X1048976Y332283D02*
D03*
X1056063D02*
D03*
Y335433D02*
D03*
X1048976D02*
D03*
Y316535D02*
D03*
X1056063D02*
D03*
X1062362D02*
D03*
X1069449D02*
D03*
Y329134D02*
D03*
X1048976D02*
D03*
Y322835D02*
D03*
X1069449D02*
D03*
X1062362D02*
D03*
X1056063D02*
D03*
X1062362Y329134D02*
D03*
X1056063D02*
D03*
X928976Y313386D02*
D03*
X936063D02*
D03*
X942362D02*
D03*
X949449D02*
D03*
X942362Y319685D02*
D03*
X949449D02*
D03*
X928976Y319685D02*
D03*
X936063D02*
D03*
X928976Y325984D02*
D03*
X936063D02*
D03*
X942362Y325984D02*
D03*
X949449D02*
D03*
X942362Y332283D02*
D03*
X949449D02*
D03*
X942362Y335433D02*
D03*
X949449D02*
D03*
X928976Y332283D02*
D03*
X936063D02*
D03*
Y335433D02*
D03*
X928976D02*
D03*
Y316535D02*
D03*
X936063D02*
D03*
X942362D02*
D03*
X949449D02*
D03*
Y329134D02*
D03*
X928976D02*
D03*
Y322835D02*
D03*
X949449D02*
D03*
X942362D02*
D03*
X936063D02*
D03*
X942362Y329134D02*
D03*
X936063D02*
D03*
X808976Y313386D02*
D03*
X816063D02*
D03*
X822363D02*
D03*
X829449D02*
D03*
X822363Y319685D02*
D03*
X829449D02*
D03*
X808976Y319685D02*
D03*
X816063D02*
D03*
X808976Y325984D02*
D03*
X816063D02*
D03*
X822362Y325984D02*
D03*
X829449D02*
D03*
X822362Y332283D02*
D03*
X829449D02*
D03*
X822362Y335433D02*
D03*
X829449D02*
D03*
X808976Y332283D02*
D03*
X816063D02*
D03*
Y335433D02*
D03*
X808976D02*
D03*
Y316535D02*
D03*
X816063D02*
D03*
X822362D02*
D03*
X829449D02*
D03*
Y329134D02*
D03*
X808976D02*
D03*
Y322835D02*
D03*
X829449D02*
D03*
X822362D02*
D03*
X816063D02*
D03*
X822362Y329134D02*
D03*
X816063D02*
D03*
X688976Y297638D02*
D03*
X696063D02*
D03*
X702362D02*
D03*
X709449D02*
D03*
X702362Y303937D02*
D03*
X709449D02*
D03*
X688976Y303937D02*
D03*
X696063D02*
D03*
X688976Y310236D02*
D03*
X696063D02*
D03*
X702362Y310236D02*
D03*
X709449D02*
D03*
X702362Y316535D02*
D03*
X709449D02*
D03*
X702362Y319685D02*
D03*
X709449D02*
D03*
X688976Y316535D02*
D03*
X696063D02*
D03*
Y319685D02*
D03*
X688976D02*
D03*
Y300787D02*
D03*
X696063D02*
D03*
X702362D02*
D03*
X709449D02*
D03*
Y313386D02*
D03*
X688976D02*
D03*
Y307087D02*
D03*
X709449D02*
D03*
X702362D02*
D03*
X696063D02*
D03*
X702362Y313386D02*
D03*
X696063D02*
D03*
X568976Y297638D02*
D03*
X576063D02*
D03*
X582363D02*
D03*
X589449D02*
D03*
X582363Y303937D02*
D03*
X589449D02*
D03*
X568976Y303937D02*
D03*
X576063D02*
D03*
X568976Y310236D02*
D03*
X576063D02*
D03*
X582362Y310236D02*
D03*
X589449D02*
D03*
X582362Y316535D02*
D03*
X589449D02*
D03*
X582362Y319685D02*
D03*
X589449D02*
D03*
X568976Y316535D02*
D03*
X576063D02*
D03*
Y319685D02*
D03*
X568976D02*
D03*
Y300787D02*
D03*
X576063D02*
D03*
X582362D02*
D03*
X589449D02*
D03*
Y313386D02*
D03*
X568976D02*
D03*
Y307087D02*
D03*
X589449D02*
D03*
X582362D02*
D03*
X576063D02*
D03*
X582362Y313386D02*
D03*
X576063D02*
D03*
X448976Y297638D02*
D03*
X456063D02*
D03*
X462362D02*
D03*
X469449D02*
D03*
X462362Y303937D02*
D03*
X469449D02*
D03*
X448976Y303937D02*
D03*
X456063D02*
D03*
X448976Y310236D02*
D03*
X456063D02*
D03*
X462362Y310236D02*
D03*
X469449D02*
D03*
X462362Y316535D02*
D03*
X469449D02*
D03*
X462362Y319685D02*
D03*
X469449D02*
D03*
X448976Y316535D02*
D03*
X456063D02*
D03*
Y319685D02*
D03*
X448976D02*
D03*
Y300787D02*
D03*
X456063D02*
D03*
X462362D02*
D03*
X469449D02*
D03*
Y313386D02*
D03*
X448976D02*
D03*
Y307087D02*
D03*
X469449D02*
D03*
X462362D02*
D03*
X456063D02*
D03*
X462362Y313386D02*
D03*
X456063D02*
D03*
X1193139Y437008D02*
D03*
Y431102D02*
D03*
X1203150Y437008D02*
D03*
X1203139Y431102D02*
D03*
X1273139Y437402D02*
D03*
X1283071D02*
D03*
X1283139Y431102D02*
D03*
X1273139D02*
D03*
X183071Y414961D02*
D03*
X180315Y416535D02*
D03*
X183071Y417717D02*
D03*
X180315Y419291D02*
D03*
X183071Y420472D02*
D03*
X299606Y185039D02*
D03*
X306693D02*
D03*
X309448Y185039D02*
D03*
X302756Y185039D02*
D03*
X327952Y185433D02*
D03*
X308563Y343996D02*
D03*
X304626Y343996D02*
D03*
X302559Y346358D02*
D03*
X306594Y346457D02*
D03*
X304134Y318701D02*
D03*
X301279D02*
D03*
X302658Y315945D02*
D03*
X302756Y312992D02*
D03*
X111417Y339370D02*
D03*
X122736Y331594D02*
D03*
X134153D02*
D03*
X140945Y333661D02*
D03*
X115748Y333563D02*
D03*
X286910Y337205D02*
D03*
X288878Y334941D02*
D03*
X290846Y337303D02*
D03*
X292815Y334941D02*
D03*
X148721Y218898D02*
D03*
X250590Y199803D02*
D03*
X300886Y279724D02*
D03*
X300984Y289469D02*
D03*
X29921Y391063D02*
D03*
X81496Y302756D02*
D03*
X87795Y341732D02*
D03*
X68898Y358853D02*
D03*
X125984Y129134D02*
D03*
X129921Y103150D02*
D03*
X127165Y70472D02*
D03*
X129528Y58661D02*
D03*
X126772Y26378D02*
D03*
X191732Y112598D02*
D03*
X171653Y72047D02*
D03*
X154724Y66929D02*
D03*
X226772Y109843D02*
D03*
Y88189D02*
D03*
X229528Y71653D02*
D03*
X253543Y111417D02*
D03*
X256693Y124016D02*
D03*
X288976Y116929D02*
D03*
X298981Y56102D02*
D03*
Y66102D02*
D03*
X334252Y125197D02*
D03*
Y100000D02*
D03*
X334646Y74410D02*
D03*
X334252Y49213D02*
D03*
X405512Y109449D02*
D03*
X424753Y111760D02*
D03*
X459449Y106299D02*
D03*
X703543Y427559D02*
D03*
X426378Y456693D02*
D03*
X401968Y435433D02*
D03*
X398819Y433858D02*
D03*
X395669D02*
D03*
X397244Y437008D02*
D03*
X398819Y440158D02*
D03*
X395669D02*
D03*
X922441Y54331D02*
D03*
X751575Y402756D02*
D03*
X245669Y440158D02*
D03*
X184646Y440945D02*
D03*
X291339Y353150D02*
D03*
X308268D02*
D03*
X339764Y359842D02*
D03*
X510039Y463583D02*
D03*
X512008Y460630D02*
D03*
X521850Y469488D02*
D03*
Y466535D02*
D03*
Y463484D02*
D03*
X147500Y39200D02*
D03*
M02*
