G04 Layer_Color=16711935*
%FSLAX25Y25*%
%MOIN*%
G70*
G01*
G75*
%ADD142R,0.04737X0.04343*%
%ADD151R,0.04068X0.03280*%
%ADD168C,0.04737*%
%ADD177R,0.04343X0.04737*%
G04:AMPARAMS|DCode=178|XSize=51.31mil|YSize=78.87mil|CornerRadius=8.33mil|HoleSize=0mil|Usage=FLASHONLY|Rotation=0.000|XOffset=0mil|YOffset=0mil|HoleType=Round|Shape=RoundedRectangle|*
%AMROUNDEDRECTD178*
21,1,0.05131,0.06221,0,0,0.0*
21,1,0.03465,0.07887,0,0,0.0*
1,1,0.01666,0.01732,-0.03110*
1,1,0.01666,-0.01732,-0.03110*
1,1,0.01666,-0.01732,0.03110*
1,1,0.01666,0.01732,0.03110*
%
%ADD178ROUNDEDRECTD178*%
G04:AMPARAMS|DCode=196|XSize=35.56mil|YSize=45.4mil|CornerRadius=8.55mil|HoleSize=0mil|Usage=FLASHONLY|Rotation=180.000|XOffset=0mil|YOffset=0mil|HoleType=Round|Shape=RoundedRectangle|*
%AMROUNDEDRECTD196*
21,1,0.03556,0.02831,0,0,180.0*
21,1,0.01847,0.04540,0,0,180.0*
1,1,0.01709,-0.00923,0.01415*
1,1,0.01709,0.00923,0.01415*
1,1,0.01709,0.00923,-0.01415*
1,1,0.01709,-0.00923,-0.01415*
%
%ADD196ROUNDEDRECTD196*%
%ADD199C,0.06706*%
%ADD204R,0.11430X0.05918*%
%ADD205R,0.03556X0.04343*%
%ADD206R,0.04343X0.03556*%
%ADD223R,0.06509X0.05328*%
%ADD226R,0.05400X0.15900*%
%ADD227R,0.15900X0.05400*%
%ADD231R,0.06706X0.06706*%
%ADD232C,0.24422*%
%ADD233C,0.22453*%
%ADD234C,0.00800*%
%ADD235C,0.05709*%
%ADD236C,0.13398*%
%ADD237C,0.10249*%
%ADD238C,0.06784*%
%ADD239R,0.06312X0.06312*%
%ADD240C,0.06312*%
%ADD241C,0.06600*%
%ADD242C,0.12611*%
%ADD243C,0.02375*%
%ADD244C,0.02769*%
%ADD245C,0.03162*%
%ADD246O,0.07887X0.01981*%
%ADD247O,0.01981X0.07887*%
G04:AMPARAMS|DCode=248|XSize=51.31mil|YSize=78.87mil|CornerRadius=8.33mil|HoleSize=0mil|Usage=FLASHONLY|Rotation=270.000|XOffset=0mil|YOffset=0mil|HoleType=Round|Shape=RoundedRectangle|*
%AMROUNDEDRECTD248*
21,1,0.05131,0.06221,0,0,270.0*
21,1,0.03465,0.07887,0,0,270.0*
1,1,0.01666,-0.03110,-0.01732*
1,1,0.01666,-0.03110,0.01732*
1,1,0.01666,0.03110,0.01732*
1,1,0.01666,0.03110,-0.01732*
%
%ADD248ROUNDEDRECTD248*%
G04:AMPARAMS|DCode=249|XSize=56.82mil|YSize=95.4mil|CornerRadius=12.06mil|HoleSize=0mil|Usage=FLASHONLY|Rotation=270.000|XOffset=0mil|YOffset=0mil|HoleType=Round|Shape=RoundedRectangle|*
%AMROUNDEDRECTD249*
21,1,0.05682,0.07129,0,0,270.0*
21,1,0.03271,0.09540,0,0,270.0*
1,1,0.02411,-0.03565,-0.01635*
1,1,0.02411,-0.03565,0.01635*
1,1,0.02411,0.03565,0.01635*
1,1,0.02411,0.03565,-0.01635*
%
%ADD249ROUNDEDRECTD249*%
G04:AMPARAMS|DCode=250|XSize=55.64mil|YSize=79.65mil|CornerRadius=11.86mil|HoleSize=0mil|Usage=FLASHONLY|Rotation=270.000|XOffset=0mil|YOffset=0mil|HoleType=Round|Shape=RoundedRectangle|*
%AMROUNDEDRECTD250*
21,1,0.05564,0.05593,0,0,270.0*
21,1,0.03192,0.07965,0,0,270.0*
1,1,0.02372,-0.02797,-0.01596*
1,1,0.02372,-0.02797,0.01596*
1,1,0.02372,0.02797,0.01596*
1,1,0.02372,0.02797,-0.01596*
%
%ADD250ROUNDEDRECTD250*%
%ADD251R,0.03792X0.05800*%
D142*
X187526Y380517D02*
D03*
Y386817D02*
D03*
X348872Y399535D02*
D03*
Y393236D02*
D03*
X342878D02*
D03*
Y399535D02*
D03*
X337130D02*
D03*
Y393236D02*
D03*
X331382D02*
D03*
Y399535D02*
D03*
X322302D02*
D03*
Y393236D02*
D03*
X316390D02*
D03*
Y399535D02*
D03*
X310442D02*
D03*
Y393236D02*
D03*
X304513D02*
D03*
Y399535D02*
D03*
X295602D02*
D03*
Y393236D02*
D03*
X289602D02*
D03*
Y399535D02*
D03*
X283602D02*
D03*
Y393236D02*
D03*
X277602D02*
D03*
Y399535D02*
D03*
X790499Y206770D02*
D03*
Y213069D02*
D03*
X910499D02*
D03*
Y206770D02*
D03*
X1030499D02*
D03*
Y213069D02*
D03*
X1150499D02*
D03*
Y206770D02*
D03*
X1270499Y206770D02*
D03*
Y213069D02*
D03*
X796499Y213069D02*
D03*
Y206770D02*
D03*
X916499D02*
D03*
Y213069D02*
D03*
X1036499D02*
D03*
Y206770D02*
D03*
X1156499D02*
D03*
Y213069D02*
D03*
X1276499Y213069D02*
D03*
Y206770D02*
D03*
X777825Y258524D02*
D03*
Y264824D02*
D03*
X897825D02*
D03*
Y258524D02*
D03*
X1017825D02*
D03*
Y264824D02*
D03*
X1137825D02*
D03*
Y258524D02*
D03*
X1257825Y258524D02*
D03*
Y264824D02*
D03*
X798499Y288982D02*
D03*
Y295282D02*
D03*
X918499D02*
D03*
Y288982D02*
D03*
X1038499D02*
D03*
Y295282D02*
D03*
X1158499D02*
D03*
Y288982D02*
D03*
X1278499Y288982D02*
D03*
Y295282D02*
D03*
X820680Y289770D02*
D03*
Y296069D02*
D03*
X940680D02*
D03*
Y289770D02*
D03*
X1060680D02*
D03*
Y296069D02*
D03*
X1180680D02*
D03*
Y289770D02*
D03*
X1300680Y289770D02*
D03*
Y296069D02*
D03*
X841696Y214447D02*
D03*
Y208148D02*
D03*
X961696D02*
D03*
Y214447D02*
D03*
X1081696D02*
D03*
Y208148D02*
D03*
X1201696D02*
D03*
Y214447D02*
D03*
X1321696Y214447D02*
D03*
Y208148D02*
D03*
X535334Y60774D02*
D03*
Y54475D02*
D03*
X637508Y54476D02*
D03*
Y60776D02*
D03*
X505334Y60974D02*
D03*
Y54675D02*
D03*
X607508Y54676D02*
D03*
Y60976D02*
D03*
X182040Y380550D02*
D03*
Y386850D02*
D03*
X457992Y61959D02*
D03*
Y68258D02*
D03*
X446992Y61959D02*
D03*
Y68258D02*
D03*
X214170Y333858D02*
D03*
Y327559D02*
D03*
D151*
X69216Y40396D02*
D03*
Y49176D02*
D03*
Y65176D02*
D03*
Y56396D02*
D03*
Y72396D02*
D03*
Y81176D02*
D03*
Y97176D02*
D03*
Y88396D02*
D03*
D168*
X223244Y347630D02*
D03*
X225079Y353535D02*
D03*
X229244Y347630D02*
D03*
X230913Y353929D02*
D03*
X235079Y347630D02*
D03*
X236882Y353929D02*
D03*
X241047Y347630D02*
D03*
X242850Y353929D02*
D03*
X247016Y347630D02*
D03*
X248819Y353929D02*
D03*
X253102Y347630D02*
D03*
X254661Y353929D02*
D03*
X258945Y347630D02*
D03*
X260866Y353929D02*
D03*
X264756Y347630D02*
D03*
X266677Y353929D02*
D03*
X231992Y313772D02*
D03*
X234984Y307882D02*
D03*
X237803Y313772D02*
D03*
X240905Y307866D02*
D03*
X243795Y313772D02*
D03*
X246850Y307866D02*
D03*
X249740Y313772D02*
D03*
X269079Y313772D02*
D03*
X271575Y307866D02*
D03*
X113757Y329854D02*
D03*
X131933Y325110D02*
D03*
X164233Y348609D02*
D03*
X327824Y181318D02*
D03*
X338310Y329845D02*
D03*
X148932Y171312D02*
D03*
X352133Y183009D02*
D03*
X783050Y264927D02*
D03*
X903050D02*
D03*
X1023050D02*
D03*
X1143050D02*
D03*
X1263050Y264927D02*
D03*
X776948Y277730D02*
D03*
X896948D02*
D03*
X1016948D02*
D03*
X1136948D02*
D03*
X1256948Y277730D02*
D03*
X798499Y301557D02*
D03*
X918499D02*
D03*
X1038499D02*
D03*
X1158499D02*
D03*
X1278499Y301557D02*
D03*
X814664Y291502D02*
D03*
X934665Y291504D02*
D03*
X1054665D02*
D03*
X1174665D02*
D03*
X1294665D02*
D03*
X825499Y206920D02*
D03*
X945499D02*
D03*
X1065499D02*
D03*
X1185499D02*
D03*
X1305499Y206920D02*
D03*
X821499Y212919D02*
D03*
X941499D02*
D03*
X1061499D02*
D03*
X1181499D02*
D03*
X1301499Y212919D02*
D03*
X77953Y218110D02*
D03*
X78740Y187008D02*
D03*
D177*
X220898Y327909D02*
D03*
X227197D02*
D03*
X320983Y262789D02*
D03*
X327282D02*
D03*
X345876Y185096D02*
D03*
X339576D02*
D03*
X776893Y270919D02*
D03*
X783192D02*
D03*
X903192D02*
D03*
X896893D02*
D03*
X1016893D02*
D03*
X1023192D02*
D03*
X1143192D02*
D03*
X1136893D02*
D03*
X1256893Y270919D02*
D03*
X1263192D02*
D03*
X866436Y256526D02*
D03*
X860137D02*
D03*
X980137D02*
D03*
X986436D02*
D03*
X1106436D02*
D03*
X1100137D02*
D03*
X1220137D02*
D03*
X1226436D02*
D03*
X1346436Y256526D02*
D03*
X1340137D02*
D03*
X864287Y232920D02*
D03*
X857987D02*
D03*
X977987D02*
D03*
X984287D02*
D03*
X1104287D02*
D03*
X1097987D02*
D03*
X1217987D02*
D03*
X1224287D02*
D03*
X1344287Y232919D02*
D03*
X1337987D02*
D03*
X53365Y47786D02*
D03*
X47066D02*
D03*
Y63786D02*
D03*
X53365D02*
D03*
Y79786D02*
D03*
X47066D02*
D03*
Y95786D02*
D03*
X53365D02*
D03*
X81365Y50786D02*
D03*
X75066D02*
D03*
Y66786D02*
D03*
X81365D02*
D03*
Y82786D02*
D03*
X75066D02*
D03*
Y98786D02*
D03*
X81365D02*
D03*
X47066Y41786D02*
D03*
X53365D02*
D03*
Y57786D02*
D03*
X47066D02*
D03*
Y73786D02*
D03*
X53365D02*
D03*
Y89786D02*
D03*
X47066D02*
D03*
D178*
X144846Y218936D02*
D03*
X133035D02*
D03*
X316564Y285847D02*
D03*
X304753D02*
D03*
X304753Y275862D02*
D03*
X316564D02*
D03*
D196*
X53357Y262789D02*
D03*
X58948D02*
D03*
D199*
X1180048Y59838D02*
D03*
Y69837D02*
D03*
X1170049Y59838D02*
D03*
Y69837D02*
D03*
X1160048Y59838D02*
D03*
Y69837D02*
D03*
X1150049Y59838D02*
D03*
Y69837D02*
D03*
X1140049Y59838D02*
D03*
Y69837D02*
D03*
X1130048Y59838D02*
D03*
X219432Y52074D02*
D03*
X229432Y62074D02*
D03*
Y52074D02*
D03*
X239432Y62074D02*
D03*
Y52074D02*
D03*
X249432Y62074D02*
D03*
Y52074D02*
D03*
X259432Y62074D02*
D03*
Y52074D02*
D03*
X269432Y62074D02*
D03*
Y52074D02*
D03*
X1264451Y112906D02*
D03*
Y102906D02*
D03*
X1254451Y112906D02*
D03*
Y102906D02*
D03*
X1244451Y112906D02*
D03*
Y102906D02*
D03*
X1234451Y112906D02*
D03*
Y102906D02*
D03*
X1224451Y112906D02*
D03*
Y102906D02*
D03*
X1214451Y112906D02*
D03*
D204*
X85929Y206869D02*
D03*
Y217893D02*
D03*
D205*
X20202Y255763D02*
D03*
X25713D02*
D03*
X29809Y282589D02*
D03*
X24297D02*
D03*
X55284Y267895D02*
D03*
X60796D02*
D03*
X59097Y282889D02*
D03*
X64609D02*
D03*
X25097Y298289D02*
D03*
X30609D02*
D03*
X58897Y301889D02*
D03*
X64409D02*
D03*
Y306446D02*
D03*
X58897D02*
D03*
X24485Y292042D02*
D03*
X29997D02*
D03*
X47709Y268489D02*
D03*
X42197D02*
D03*
Y263289D02*
D03*
X47709D02*
D03*
X55197Y287589D02*
D03*
X60709D02*
D03*
X802743Y213919D02*
D03*
X808255D02*
D03*
X928255D02*
D03*
X922743D02*
D03*
X1042743D02*
D03*
X1048255D02*
D03*
X1168255D02*
D03*
X1162743D02*
D03*
X1282743Y213919D02*
D03*
X1288255D02*
D03*
X857743Y250920D02*
D03*
X863255D02*
D03*
X983255D02*
D03*
X977743D02*
D03*
X1097743D02*
D03*
X1103255D02*
D03*
X1223255D02*
D03*
X1217743D02*
D03*
X1337743Y250920D02*
D03*
X1343255D02*
D03*
D206*
X46353Y307445D02*
D03*
Y301933D02*
D03*
X38253Y302033D02*
D03*
Y307545D02*
D03*
X37902Y261927D02*
D03*
Y267439D02*
D03*
X69553Y289933D02*
D03*
Y295445D02*
D03*
X58584Y291539D02*
D03*
Y297051D02*
D03*
X783416Y260265D02*
D03*
Y254753D02*
D03*
X903415D02*
D03*
Y260265D02*
D03*
X1023415D02*
D03*
Y254753D02*
D03*
X1143416D02*
D03*
Y260265D02*
D03*
X1263416Y260265D02*
D03*
Y254753D02*
D03*
X809499Y289163D02*
D03*
Y294675D02*
D03*
X929499D02*
D03*
Y289163D02*
D03*
X1049499D02*
D03*
Y294675D02*
D03*
X1169499D02*
D03*
Y289163D02*
D03*
X1289499Y289163D02*
D03*
Y294675D02*
D03*
X783499Y282675D02*
D03*
Y277164D02*
D03*
X903499D02*
D03*
Y282675D02*
D03*
X1023499D02*
D03*
Y277164D02*
D03*
X1143499D02*
D03*
Y282675D02*
D03*
X1263499Y282675D02*
D03*
Y277164D02*
D03*
X825877Y288770D02*
D03*
Y294282D02*
D03*
X945877D02*
D03*
Y288770D02*
D03*
X1065877D02*
D03*
Y294282D02*
D03*
X1185877D02*
D03*
Y288770D02*
D03*
X1305877Y288770D02*
D03*
Y294282D02*
D03*
X835499Y294282D02*
D03*
Y288770D02*
D03*
X955499D02*
D03*
Y294282D02*
D03*
X1075499D02*
D03*
Y288770D02*
D03*
X1195499D02*
D03*
Y294282D02*
D03*
X1315499Y294282D02*
D03*
Y288770D02*
D03*
X858499Y221164D02*
D03*
Y226675D02*
D03*
X978499D02*
D03*
Y221164D02*
D03*
X1098499D02*
D03*
Y226675D02*
D03*
X1218499D02*
D03*
Y221164D02*
D03*
X1338499Y221164D02*
D03*
Y226675D02*
D03*
X831499Y214675D02*
D03*
Y209163D02*
D03*
X951499D02*
D03*
Y214675D02*
D03*
X1071499D02*
D03*
Y209163D02*
D03*
X1191499D02*
D03*
Y214675D02*
D03*
X1311499Y214675D02*
D03*
Y209163D02*
D03*
X815499Y209163D02*
D03*
Y214675D02*
D03*
X935499D02*
D03*
Y209163D02*
D03*
X1055499D02*
D03*
Y214675D02*
D03*
X1175499D02*
D03*
Y209163D02*
D03*
X1295499Y209163D02*
D03*
Y214675D02*
D03*
X75216Y40030D02*
D03*
Y45542D02*
D03*
Y61542D02*
D03*
Y56030D02*
D03*
Y72030D02*
D03*
Y77542D02*
D03*
Y93542D02*
D03*
Y88030D02*
D03*
D223*
X61216Y50116D02*
D03*
Y41455D02*
D03*
Y57455D02*
D03*
Y66116D02*
D03*
Y82117D02*
D03*
Y73455D02*
D03*
Y89455D02*
D03*
Y98116D02*
D03*
D226*
X170000Y398250D02*
D03*
X160000D02*
D03*
X150000D02*
D03*
X130000D02*
D03*
X120000D02*
D03*
X110000D02*
D03*
X100000D02*
D03*
X90000D02*
D03*
X80000D02*
D03*
X170000Y373750D02*
D03*
X160000D02*
D03*
X150000D02*
D03*
X140000D02*
D03*
X130000D02*
D03*
X120000D02*
D03*
X110000D02*
D03*
X100000D02*
D03*
X90000D02*
D03*
X80000D02*
D03*
X140000Y398250D02*
D03*
D227*
X44604Y331063D02*
D03*
Y341063D02*
D03*
Y351063D02*
D03*
Y361063D02*
D03*
Y371063D02*
D03*
Y381063D02*
D03*
Y391063D02*
D03*
Y401063D02*
D03*
X20104Y331063D02*
D03*
Y341063D02*
D03*
Y351063D02*
D03*
Y361063D02*
D03*
Y371063D02*
D03*
Y381063D02*
D03*
Y391063D02*
D03*
Y401063D02*
D03*
D231*
X1130048Y69837D02*
D03*
X219432Y62074D02*
D03*
X1214451Y102906D02*
D03*
D232*
X1105049Y64838D02*
D03*
X194432Y57074D02*
D03*
D233*
X1358268Y19685D02*
D03*
X728346D02*
D03*
X19685D02*
D03*
X1358268Y484252D02*
D03*
X728346D02*
D03*
X19685D02*
D03*
D234*
X813307Y341339D02*
D03*
X819213Y162598D02*
D03*
X939213D02*
D03*
X933307Y341339D02*
D03*
X1053307D02*
D03*
X1059213Y162598D02*
D03*
X1179213D02*
D03*
X1173307Y341339D02*
D03*
X1293307Y341339D02*
D03*
X1299213Y162598D02*
D03*
X459213Y178347D02*
D03*
X453307Y325590D02*
D03*
X573307Y325591D02*
D03*
X579213Y178347D02*
D03*
X699213D02*
D03*
X693307Y325591D02*
D03*
D235*
X819213Y350591D02*
D03*
Y153347D02*
D03*
X939213D02*
D03*
Y350591D02*
D03*
X1059213D02*
D03*
Y153347D02*
D03*
X1179213D02*
D03*
Y350591D02*
D03*
X1299213Y350590D02*
D03*
Y153346D02*
D03*
X459213Y169095D02*
D03*
Y334842D02*
D03*
X579213Y334842D02*
D03*
Y169095D02*
D03*
X699213D02*
D03*
Y334842D02*
D03*
D236*
X65376Y188057D02*
D03*
X20376D02*
D03*
D237*
X11873Y203373D02*
D03*
X73880D02*
D03*
D238*
X16754Y171876D02*
D03*
X68998D02*
D03*
X26754D02*
D03*
X58999D02*
D03*
D239*
X20376Y248058D02*
D03*
D240*
X30376D02*
D03*
X40376D02*
D03*
X50376D02*
D03*
X60376D02*
D03*
X25376Y238057D02*
D03*
X35376D02*
D03*
X45376D02*
D03*
X55376D02*
D03*
X65376D02*
D03*
D241*
X26740Y116491D02*
D03*
Y106491D02*
D03*
Y96491D02*
D03*
Y86491D02*
D03*
Y76491D02*
D03*
X16740Y96491D02*
D03*
Y86491D02*
D03*
Y76491D02*
D03*
Y66491D02*
D03*
Y56491D02*
D03*
Y106491D02*
D03*
Y116491D02*
D03*
Y126491D02*
D03*
X26740Y56491D02*
D03*
Y66491D02*
D03*
Y126491D02*
D03*
X25331Y452024D02*
D03*
Y442024D02*
D03*
Y432024D02*
D03*
Y422024D02*
D03*
Y412024D02*
D03*
X15331Y452024D02*
D03*
Y442024D02*
D03*
Y432024D02*
D03*
Y422024D02*
D03*
Y412024D02*
D03*
X535250Y45051D02*
D03*
X525250D02*
D03*
X515250D02*
D03*
X505250D02*
D03*
X607424Y45053D02*
D03*
X617424D02*
D03*
X627424D02*
D03*
X637424D02*
D03*
X431992Y53609D02*
D03*
X441992D02*
D03*
X451992D02*
D03*
X431992Y43609D02*
D03*
X441992D02*
D03*
X451992D02*
D03*
X64575Y422094D02*
D03*
Y412094D02*
D03*
X54575Y422094D02*
D03*
Y412094D02*
D03*
D242*
X99213Y9843D02*
D03*
X339213D02*
D03*
X579213D02*
D03*
X819213D02*
D03*
X1059213D02*
D03*
X1299213D02*
D03*
Y494094D02*
D03*
X1059213D02*
D03*
X819213D02*
D03*
X579213D02*
D03*
X339213D02*
D03*
X99213D02*
D03*
D243*
X732700Y412900D02*
D03*
Y410600D02*
D03*
X732800Y407800D02*
D03*
X732700Y405200D02*
D03*
X379400Y221800D02*
D03*
X379500Y223800D02*
D03*
Y225800D02*
D03*
Y228000D02*
D03*
X346100Y237100D02*
D03*
Y235100D02*
D03*
X479752Y282952D02*
D03*
X481200Y284400D02*
D03*
X458500Y293400D02*
D03*
X456400Y293100D02*
D03*
X475000Y291390D02*
D03*
Y289343D02*
D03*
X351000Y263800D02*
D03*
X348900Y264000D02*
D03*
X229921Y319291D02*
D03*
X872455Y336805D02*
D03*
X868322Y340939D02*
D03*
X876589D02*
D03*
X872455Y345073D02*
D03*
Y340939D02*
D03*
X879921Y289370D02*
D03*
X150007Y265663D02*
D03*
X148819Y267717D02*
D03*
X147146Y268996D02*
D03*
X149016Y331496D02*
D03*
X147047D02*
D03*
X477362Y395472D02*
D03*
X433858Y399114D02*
D03*
X1035669Y253740D02*
D03*
X1035669Y255905D02*
D03*
X790775Y224186D02*
D03*
X910775Y224265D02*
D03*
X1030709Y223622D02*
D03*
X1270775Y223320D02*
D03*
X1150775Y222847D02*
D03*
X135039Y364567D02*
D03*
X281496Y287300D02*
D03*
X142900Y280100D02*
D03*
X1289200Y256700D02*
D03*
X1302500Y256600D02*
D03*
X1314200Y261700D02*
D03*
X1288700Y261900D02*
D03*
X1314000Y269300D02*
D03*
X1288800D02*
D03*
X1289200Y276800D02*
D03*
X1314000Y275700D02*
D03*
X1310700Y290600D02*
D03*
X829500Y296300D02*
D03*
X949400Y295900D02*
D03*
X1309500Y296000D02*
D03*
X1297000Y298000D02*
D03*
X1295800Y300700D02*
D03*
X1309200D02*
D03*
X1309300Y307100D02*
D03*
X1289000Y307000D02*
D03*
X1189300Y256700D02*
D03*
X1169100D02*
D03*
X1189500Y262000D02*
D03*
X1168800Y261900D02*
D03*
X1189300Y269400D02*
D03*
X1168878Y269292D02*
D03*
X1191800Y275700D02*
D03*
X1169000Y276900D02*
D03*
X1190600Y290500D02*
D03*
X1189700Y296200D02*
D03*
X1168300Y297000D02*
D03*
X1169300Y307000D02*
D03*
Y300800D02*
D03*
X1189100D02*
D03*
Y307100D02*
D03*
X1069200Y256700D02*
D03*
X1049000D02*
D03*
X1069800Y262000D02*
D03*
X1048700D02*
D03*
X1069300Y269300D02*
D03*
X1048700D02*
D03*
X1071700Y275600D02*
D03*
X1049200Y276800D02*
D03*
X1070700Y290800D02*
D03*
X1069500Y296100D02*
D03*
X1048500Y297000D02*
D03*
X1069200Y300800D02*
D03*
X1049200Y300700D02*
D03*
X1069200Y307100D02*
D03*
X1049200D02*
D03*
X949200Y256700D02*
D03*
X929100D02*
D03*
X949400Y262200D02*
D03*
X928800D02*
D03*
Y269300D02*
D03*
X949300Y269400D02*
D03*
X952000Y275800D02*
D03*
X831600Y275400D02*
D03*
X929100Y276800D02*
D03*
X950700Y290500D02*
D03*
X928300Y297000D02*
D03*
X949100Y300800D02*
D03*
X929100Y300700D02*
D03*
X949100Y307100D02*
D03*
X929200Y307000D02*
D03*
X829100Y307200D02*
D03*
X830600Y290700D02*
D03*
X1309600Y233000D02*
D03*
X1288900Y232800D02*
D03*
X1308400Y239900D02*
D03*
X1292500Y245800D02*
D03*
X1189600Y233200D02*
D03*
X1169200Y232600D02*
D03*
X1185800Y239900D02*
D03*
X1172500D02*
D03*
X1069100Y232800D02*
D03*
X1049100Y232700D02*
D03*
X1065900Y239800D02*
D03*
X1052500Y239700D02*
D03*
X949300Y232900D02*
D03*
X929100Y232800D02*
D03*
X946000Y239900D02*
D03*
X932500D02*
D03*
X809000Y232700D02*
D03*
X829600Y232800D02*
D03*
X826000Y239700D02*
D03*
X812500Y240000D02*
D03*
X829100Y256700D02*
D03*
X809200D02*
D03*
X829300Y262800D02*
D03*
X809000D02*
D03*
X829400Y269400D02*
D03*
X808885Y269285D02*
D03*
X809300Y276800D02*
D03*
X816600Y288600D02*
D03*
X816200Y294500D02*
D03*
X829500Y300900D02*
D03*
X808700Y300300D02*
D03*
X809300Y307100D02*
D03*
X442300Y118200D02*
D03*
X709300Y259800D02*
D03*
X689000Y259600D02*
D03*
X709100Y269300D02*
D03*
X688200Y270800D02*
D03*
X709400Y278700D02*
D03*
X687000Y280800D02*
D03*
X709400Y288200D02*
D03*
X687000Y290400D02*
D03*
X581500Y272100D02*
D03*
X576700Y272200D02*
D03*
X589800Y272100D02*
D03*
X568200Y272000D02*
D03*
X589400Y278800D02*
D03*
X568900Y278700D02*
D03*
X590200Y290200D02*
D03*
X568000D02*
D03*
X428700Y185200D02*
D03*
X426700Y220800D02*
D03*
X433800Y228200D02*
D03*
X430100D02*
D03*
X461000Y272000D02*
D03*
X457100D02*
D03*
X470000D02*
D03*
X448200Y272100D02*
D03*
X461800Y276400D02*
D03*
X448200D02*
D03*
X469400Y288300D02*
D03*
X449000Y288200D02*
D03*
X1322400Y263800D02*
D03*
X963200Y263900D02*
D03*
X964600Y262000D02*
D03*
X1082800Y263700D02*
D03*
X1084600Y262000D02*
D03*
X1204300Y261800D02*
D03*
X1213400Y278200D02*
D03*
X1202300Y263700D02*
D03*
X1324600Y262000D02*
D03*
X1333400Y278200D02*
D03*
X1093400Y278200D02*
D03*
X973400D02*
D03*
X853400D02*
D03*
X844600Y262000D02*
D03*
X1286800Y291100D02*
D03*
X1278400Y245500D02*
D03*
X1284700Y288000D02*
D03*
X1309500Y287300D02*
D03*
X1319900Y291000D02*
D03*
X1167800Y291800D02*
D03*
X1164700Y288000D02*
D03*
X1189500Y287300D02*
D03*
X1199900Y291000D02*
D03*
X1047800Y291800D02*
D03*
X1044700Y288000D02*
D03*
X1069500Y287300D02*
D03*
X1079900Y291000D02*
D03*
X927800Y291800D02*
D03*
X924700Y288000D02*
D03*
X949500Y287300D02*
D03*
X959900Y291000D02*
D03*
X839900D02*
D03*
X829500Y287300D02*
D03*
X804700Y288000D02*
D03*
X807800Y291800D02*
D03*
X1278000Y252600D02*
D03*
X1277100Y261700D02*
D03*
X1275000Y286500D02*
D03*
X1267300Y277700D02*
D03*
X1158600Y242300D02*
D03*
X1158000Y252600D02*
D03*
X1157100Y261700D02*
D03*
X1155000Y286500D02*
D03*
X1147300Y277700D02*
D03*
X1038600Y242300D02*
D03*
X1038000Y252600D02*
D03*
X1037100Y261700D02*
D03*
X1035000Y286500D02*
D03*
X1027300Y277700D02*
D03*
X918600Y242300D02*
D03*
X918000Y252600D02*
D03*
X917100Y261700D02*
D03*
X915000Y286500D02*
D03*
X907300Y277700D02*
D03*
X787300D02*
D03*
X795000Y286500D02*
D03*
X797100Y261700D02*
D03*
X798000Y252600D02*
D03*
X798600Y242300D02*
D03*
X1312000Y227400D02*
D03*
X1324200Y242100D02*
D03*
X1325500Y251900D02*
D03*
X1346000Y251000D02*
D03*
X1192000Y227400D02*
D03*
X1204200Y242100D02*
D03*
X1205500Y251900D02*
D03*
X1226000Y251000D02*
D03*
X1072000Y227400D02*
D03*
X1084200Y242100D02*
D03*
X1085500Y251900D02*
D03*
X1106000Y251000D02*
D03*
X952000Y227400D02*
D03*
X964200Y242100D02*
D03*
X965500Y251900D02*
D03*
X986000Y251000D02*
D03*
X866000D02*
D03*
X845500Y251900D02*
D03*
X844200Y242100D02*
D03*
X832000Y227400D02*
D03*
X1298100Y213700D02*
D03*
X1178100Y213700D02*
D03*
X1058100D02*
D03*
X938100D02*
D03*
X818100D02*
D03*
X238500Y85400D02*
D03*
X238400Y90600D02*
D03*
Y96000D02*
D03*
X238500Y101200D02*
D03*
Y106400D02*
D03*
Y111500D02*
D03*
X321200Y215500D02*
D03*
X319842Y210827D02*
D03*
X326800Y227300D02*
D03*
X327000Y239100D02*
D03*
X326900Y245000D02*
D03*
X327000Y250900D02*
D03*
X353543Y211024D02*
D03*
X349213Y185827D02*
D03*
X320472D02*
D03*
X346000Y223700D02*
D03*
X339600Y233200D02*
D03*
X339300Y239100D02*
D03*
X346800Y250900D02*
D03*
X346600Y256800D02*
D03*
X346700Y262700D02*
D03*
X346600Y268600D02*
D03*
X336700Y272200D02*
D03*
X338500Y286400D02*
D03*
X326800Y256900D02*
D03*
Y268600D02*
D03*
X327800Y272500D02*
D03*
X329400Y288000D02*
D03*
Y290300D02*
D03*
X338500D02*
D03*
X337900Y298200D02*
D03*
X328200D02*
D03*
X328000Y304100D02*
D03*
X336700D02*
D03*
X336600Y310100D02*
D03*
X328200Y310000D02*
D03*
X328400Y316000D02*
D03*
X337400Y315900D02*
D03*
X337600Y321900D02*
D03*
X338400Y325700D02*
D03*
X328400Y321800D02*
D03*
X329500Y325700D02*
D03*
X157000Y319500D02*
D03*
X162900D02*
D03*
X168800D02*
D03*
X174700D02*
D03*
X180600Y319600D02*
D03*
X186500Y319500D02*
D03*
X192400D02*
D03*
X198300D02*
D03*
X204200D02*
D03*
X210100D02*
D03*
X216000D02*
D03*
X222000D02*
D03*
X261400Y312100D02*
D03*
X261700Y325200D02*
D03*
X266800Y325300D02*
D03*
X273500D02*
D03*
X285300Y318800D02*
D03*
X290800Y325000D02*
D03*
X292700D02*
D03*
X294700D02*
D03*
X296700D02*
D03*
X298700D02*
D03*
X300700D02*
D03*
Y337900D02*
D03*
X298700D02*
D03*
X296800Y343400D02*
D03*
X294800D02*
D03*
X277100Y337900D02*
D03*
X268701Y334800D02*
D03*
X223800Y337800D02*
D03*
X218000Y343400D02*
D03*
X212100D02*
D03*
X206200D02*
D03*
X200300D02*
D03*
X194300D02*
D03*
X188400D02*
D03*
X182500D02*
D03*
X176600D02*
D03*
X170700D02*
D03*
X164800D02*
D03*
X158900D02*
D03*
X153000D02*
D03*
X171800Y361000D02*
D03*
X201600Y360000D02*
D03*
X235900Y359900D02*
D03*
X269700Y366400D02*
D03*
X276000Y351500D02*
D03*
X239900Y351100D02*
D03*
X211300Y349100D02*
D03*
X176700Y352100D02*
D03*
X122200Y327700D02*
D03*
X125400Y329500D02*
D03*
X141500Y329700D02*
D03*
X140300Y327700D02*
D03*
X140400Y319800D02*
D03*
X122200Y319900D02*
D03*
X130300Y304200D02*
D03*
X140400Y304100D02*
D03*
Y290300D02*
D03*
X116400D02*
D03*
X147400Y272600D02*
D03*
X116500Y274500D02*
D03*
X141000Y257000D02*
D03*
X116400Y260800D02*
D03*
X122100Y245100D02*
D03*
X140400Y245000D02*
D03*
Y239100D02*
D03*
X122000D02*
D03*
X140500Y233200D02*
D03*
X122200Y233300D02*
D03*
X130700Y205600D02*
D03*
X122100Y205300D02*
D03*
X134100Y179500D02*
D03*
X118500Y176700D02*
D03*
X198300Y192200D02*
D03*
X204200D02*
D03*
X210100D02*
D03*
X216000Y192300D02*
D03*
X221900Y192200D02*
D03*
X233700Y192600D02*
D03*
X227800Y192300D02*
D03*
X247638Y194882D02*
D03*
X263386Y192126D02*
D03*
X277953Y184646D02*
D03*
X280709D02*
D03*
X282677D02*
D03*
X283858Y201575D02*
D03*
X281890Y199606D02*
D03*
X285827Y203543D02*
D03*
X300500Y211100D02*
D03*
X298300Y213300D02*
D03*
X164800Y168300D02*
D03*
X158900D02*
D03*
X153000D02*
D03*
X148031Y187402D02*
D03*
X465354Y127953D02*
D03*
X451575Y127165D02*
D03*
X439370Y121260D02*
D03*
X134646Y325590D02*
D03*
X274016Y344094D02*
D03*
X284252Y375984D02*
D03*
X251181Y325197D02*
D03*
X1263780Y433071D02*
D03*
X1261811D02*
D03*
X1253937D02*
D03*
X1251968D02*
D03*
X1244094D02*
D03*
X1242126D02*
D03*
X1234252D02*
D03*
X1232283D02*
D03*
X1224409D02*
D03*
X1222441D02*
D03*
X1214567D02*
D03*
X1212598D02*
D03*
X1296535Y227756D02*
D03*
X1288268Y229134D02*
D03*
X1285905Y229134D02*
D03*
X1283543D02*
D03*
X1282756Y227165D02*
D03*
X1280787D02*
D03*
X1275669Y232283D02*
D03*
Y234252D02*
D03*
Y236220D02*
D03*
Y238386D02*
D03*
X1275866Y242126D02*
D03*
Y244094D02*
D03*
X798819Y387402D02*
D03*
X709685Y174016D02*
D03*
X589685D02*
D03*
X469685D02*
D03*
X798817Y389763D02*
D03*
X707716Y175590D02*
D03*
X587716D02*
D03*
X467716D02*
D03*
X792126Y386221D02*
D03*
X709685Y170866D02*
D03*
X589685D02*
D03*
X469685D02*
D03*
X798819Y392913D02*
D03*
X707716Y178740D02*
D03*
X587716D02*
D03*
X467716D02*
D03*
X779921Y387795D02*
D03*
X768504Y222834D02*
D03*
X1288661Y184252D02*
D03*
X1168661Y184252D02*
D03*
X1048661D02*
D03*
X928661D02*
D03*
X808661D02*
D03*
X760236Y222835D02*
D03*
X707717Y172441D02*
D03*
X587716D02*
D03*
X467717D02*
D03*
X779921Y391339D02*
D03*
X770079Y224410D02*
D03*
X1309921Y184252D02*
D03*
X1189921Y184252D02*
D03*
X1069921D02*
D03*
X949921D02*
D03*
X829921D02*
D03*
X755512Y224410D02*
D03*
X709685Y177165D02*
D03*
X589685D02*
D03*
X469685D02*
D03*
X753937Y384646D02*
D03*
X766535D02*
D03*
X777559Y383071D02*
D03*
X774409Y380709D02*
D03*
X772441D02*
D03*
X770472D02*
D03*
X1309724Y203150D02*
D03*
X1189724Y203150D02*
D03*
X1069724D02*
D03*
X949724D02*
D03*
X829724D02*
D03*
X907874Y57087D02*
D03*
X892518Y57086D02*
D03*
X820079Y192520D02*
D03*
X1168858Y203150D02*
D03*
X1048858D02*
D03*
X1288858Y203150D02*
D03*
X928858Y203150D02*
D03*
X808858D02*
D03*
X844488Y264567D02*
D03*
X1035669Y257874D02*
D03*
Y259843D02*
D03*
X768504Y380709D02*
D03*
X766535D02*
D03*
X1268110Y179331D02*
D03*
X1148819D02*
D03*
X1027953D02*
D03*
X907874D02*
D03*
X133071Y260630D02*
D03*
X143701Y257086D02*
D03*
X789762Y184252D02*
D03*
X789764Y181102D02*
D03*
X1268110Y181299D02*
D03*
X1148819D02*
D03*
X1027953D02*
D03*
X907874D02*
D03*
X133071Y262598D02*
D03*
X143701Y259055D02*
D03*
X787795Y181102D02*
D03*
X709685Y167717D02*
D03*
X589685D02*
D03*
X469685D02*
D03*
X707717Y169291D02*
D03*
X587716D02*
D03*
X467717D02*
D03*
X709684Y180315D02*
D03*
X589684D02*
D03*
X469684D02*
D03*
X803148Y414960D02*
D03*
X798425Y414961D02*
D03*
X805510Y411810D02*
D03*
X800787Y411811D02*
D03*
X742126Y409842D02*
D03*
X742125Y407479D02*
D03*
X740550Y415353D02*
D03*
X740551Y412992D02*
D03*
X284252Y281496D02*
D03*
X259449Y192126D02*
D03*
X285827Y279921D02*
D03*
X261417Y193700D02*
D03*
X143307Y274409D02*
D03*
X122047Y270472D02*
D03*
X141732Y275984D02*
D03*
X122047Y272835D02*
D03*
X1259842Y305118D02*
D03*
Y301575D02*
D03*
Y298031D02*
D03*
Y294488D02*
D03*
X1140158Y305118D02*
D03*
Y301575D02*
D03*
Y298425D02*
D03*
Y294488D02*
D03*
X1020079Y305118D02*
D03*
Y301575D02*
D03*
Y298031D02*
D03*
Y294488D02*
D03*
X779921Y305118D02*
D03*
X779920Y301574D02*
D03*
X779921Y298031D02*
D03*
Y294882D02*
D03*
X93701Y347637D02*
D03*
X80709Y346457D02*
D03*
X116142Y268504D02*
D03*
X122441Y262992D02*
D03*
Y266142D02*
D03*
X116142Y264567D02*
D03*
X96063Y401181D02*
D03*
X106299Y399606D02*
D03*
X116535Y398031D02*
D03*
X136221Y397638D02*
D03*
X150787Y44488D02*
D03*
X150787Y49213D02*
D03*
X129528Y83071D02*
D03*
X129134Y87795D02*
D03*
X134646Y280315D02*
D03*
Y282283D02*
D03*
Y284252D02*
D03*
Y286221D02*
D03*
Y288189D02*
D03*
X122441D02*
D03*
X89370Y348031D02*
D03*
X94095Y352756D02*
D03*
X78740Y347638D02*
D03*
X82677D02*
D03*
X84646D02*
D03*
X94095Y356693D02*
D03*
X134646Y301969D02*
D03*
Y300000D02*
D03*
X124016Y303937D02*
D03*
X134646Y298031D02*
D03*
X125984Y301575D02*
D03*
X134646Y296063D02*
D03*
Y294094D02*
D03*
X125984Y296850D02*
D03*
X134646Y292126D02*
D03*
X35433Y381102D02*
D03*
X10630D02*
D03*
X35433Y371260D02*
D03*
X10630D02*
D03*
X35433Y359842D02*
D03*
X35315Y351063D02*
D03*
X11024Y351181D02*
D03*
X35433Y340945D02*
D03*
Y331102D02*
D03*
X75590Y317717D02*
D03*
X920787Y227165D02*
D03*
X922756D02*
D03*
X923543Y229134D02*
D03*
X925906D02*
D03*
X928268Y229134D02*
D03*
X936535Y227756D02*
D03*
X939094D02*
D03*
X892441Y254331D02*
D03*
X940866Y229134D02*
D03*
X894409Y254331D02*
D03*
X940866Y231102D02*
D03*
X896378Y254331D02*
D03*
X940866Y233071D02*
D03*
X898347Y254331D02*
D03*
X954252Y227362D02*
D03*
X899134Y217913D02*
D03*
X956417Y227362D02*
D03*
X900118Y215551D02*
D03*
X958189Y228740D02*
D03*
X900118Y212598D02*
D03*
X960157Y227362D02*
D03*
X900118Y208858D02*
D03*
X981024Y218110D02*
D03*
X965276Y234252D02*
D03*
X981024Y215551D02*
D03*
X965276Y236221D02*
D03*
X981024Y212205D02*
D03*
X965276Y238189D02*
D03*
X981024Y208661D02*
D03*
X965276Y240158D02*
D03*
X980827Y240157D02*
D03*
X981024Y243307D02*
D03*
X981024Y245669D02*
D03*
X981024Y247638D02*
D03*
X983780Y269685D02*
D03*
X982598Y273425D02*
D03*
X981417Y276575D02*
D03*
X980827Y280118D02*
D03*
Y294882D02*
D03*
Y298425D02*
D03*
Y301575D02*
D03*
Y305118D02*
D03*
X968032Y288583D02*
D03*
X900000Y304725D02*
D03*
X965669Y288583D02*
D03*
X900000Y301772D02*
D03*
X963307Y288583D02*
D03*
X900000Y298425D02*
D03*
X960945Y288583D02*
D03*
X900000Y294882D02*
D03*
X892244Y271654D02*
D03*
X941063Y267323D02*
D03*
X892244Y274016D02*
D03*
X941063Y273819D02*
D03*
X892244Y276378D02*
D03*
X941063Y276181D02*
D03*
X892244Y278740D02*
D03*
X938504Y276969D02*
D03*
X936535Y276968D02*
D03*
X937520Y274803D02*
D03*
Y272441D02*
D03*
X926693Y276969D02*
D03*
X924724D02*
D03*
X922756D02*
D03*
X920787D02*
D03*
X915669Y269685D02*
D03*
Y267717D02*
D03*
X915669Y265748D02*
D03*
X915669Y263779D02*
D03*
X915669Y259843D02*
D03*
Y257874D02*
D03*
X915669Y255905D02*
D03*
X915866Y248032D02*
D03*
Y246063D02*
D03*
Y244094D02*
D03*
Y242126D02*
D03*
X915669Y238386D02*
D03*
Y236220D02*
D03*
Y234252D02*
D03*
Y232283D02*
D03*
X966654Y205118D02*
D03*
X941457Y204724D02*
D03*
X927677Y209055D02*
D03*
X928661Y190551D02*
D03*
X925906Y190354D02*
D03*
X1299094Y227756D02*
D03*
X1252441Y254331D02*
D03*
X1300866Y229134D02*
D03*
X1254409Y254331D02*
D03*
X1300866Y231102D02*
D03*
X1256378Y254331D02*
D03*
X1300866Y233071D02*
D03*
X1258346Y254331D02*
D03*
X1314252Y227362D02*
D03*
X1259134Y217913D02*
D03*
X1316417Y227362D02*
D03*
X1260118Y215551D02*
D03*
X1318189Y228740D02*
D03*
X1260118Y212598D02*
D03*
X1320157Y227362D02*
D03*
X1260118Y208858D02*
D03*
X1341024Y218110D02*
D03*
X1325276Y234252D02*
D03*
X1341024Y215551D02*
D03*
X1325276Y236221D02*
D03*
X1341024Y212205D02*
D03*
X1325276Y238189D02*
D03*
X1341024Y208661D02*
D03*
X1325276Y240158D02*
D03*
X1340827Y240157D02*
D03*
X1341024Y243307D02*
D03*
X1341024Y245669D02*
D03*
X1341024Y247638D02*
D03*
X1343780Y269685D02*
D03*
X1342598Y273425D02*
D03*
X1341417Y276575D02*
D03*
X1340827Y280118D02*
D03*
Y294882D02*
D03*
Y298425D02*
D03*
Y301575D02*
D03*
Y305118D02*
D03*
X1328032Y288583D02*
D03*
X1325669D02*
D03*
X1323307Y288583D02*
D03*
X1320945D02*
D03*
X1252244Y271654D02*
D03*
X1301063Y267323D02*
D03*
X1252244Y274016D02*
D03*
X1301063Y273819D02*
D03*
X1252244Y276378D02*
D03*
X1301063Y276181D02*
D03*
X1252244Y278740D02*
D03*
X1326654Y205118D02*
D03*
X1301457Y204724D02*
D03*
X1287677Y209055D02*
D03*
X1288661Y190551D02*
D03*
X1285906Y190354D02*
D03*
X1179094Y227756D02*
D03*
X1132441Y254331D02*
D03*
X1180866Y229134D02*
D03*
X1134409Y254331D02*
D03*
X1180866Y231102D02*
D03*
X1136378Y254331D02*
D03*
X1180866Y233071D02*
D03*
X1138346Y254331D02*
D03*
X1194252Y227362D02*
D03*
X1139134Y217913D02*
D03*
X1196417Y227362D02*
D03*
X1140118Y215551D02*
D03*
X1198189Y228740D02*
D03*
X1140118Y212598D02*
D03*
X1200157Y227362D02*
D03*
X1140118Y208858D02*
D03*
X1221024Y218110D02*
D03*
X1205276Y234252D02*
D03*
X1221024Y215551D02*
D03*
X1205276Y236221D02*
D03*
X1221024Y212205D02*
D03*
X1205276Y238189D02*
D03*
X1221024Y208661D02*
D03*
X1205276Y240158D02*
D03*
X1220827Y240157D02*
D03*
X1221024Y243307D02*
D03*
X1221024Y245669D02*
D03*
X1221024Y247638D02*
D03*
X1223780Y269685D02*
D03*
X1222598Y273425D02*
D03*
X1221417Y276575D02*
D03*
X1220827Y280118D02*
D03*
Y294882D02*
D03*
Y298425D02*
D03*
Y301575D02*
D03*
Y305118D02*
D03*
X1208031Y288583D02*
D03*
X1205669D02*
D03*
X1203307Y288583D02*
D03*
X1200945D02*
D03*
X1132244Y271654D02*
D03*
X1181063Y267323D02*
D03*
Y269685D02*
D03*
X1132244Y274016D02*
D03*
X1181063Y273819D02*
D03*
X1132244Y276378D02*
D03*
X1181063Y276181D02*
D03*
X1132244Y278740D02*
D03*
X1206654Y205118D02*
D03*
X1181457Y204724D02*
D03*
X1167677Y209055D02*
D03*
X1168661Y190551D02*
D03*
X1165906Y190354D02*
D03*
X1059094Y227756D02*
D03*
X1012441Y254331D02*
D03*
X1060866Y229134D02*
D03*
X1014409Y254331D02*
D03*
X1060866Y231102D02*
D03*
X1016378Y254331D02*
D03*
X1060866Y233071D02*
D03*
X1018347Y254331D02*
D03*
X1074252Y227362D02*
D03*
X1019134Y217913D02*
D03*
X1076417Y227362D02*
D03*
X1020118Y215551D02*
D03*
X1078189Y228740D02*
D03*
X1020118Y212598D02*
D03*
X1080157Y227362D02*
D03*
X1020118Y208858D02*
D03*
X1101024Y218110D02*
D03*
X1085276Y234252D02*
D03*
X1101024Y215551D02*
D03*
X1085276Y236221D02*
D03*
X1101024Y212205D02*
D03*
X1085276Y238189D02*
D03*
X1101024Y208661D02*
D03*
X1085276Y240158D02*
D03*
X1100827Y240157D02*
D03*
X1101024Y243307D02*
D03*
X1101024Y245669D02*
D03*
X1101024Y247638D02*
D03*
X1103780Y269685D02*
D03*
X1102598Y273425D02*
D03*
X1101417Y276575D02*
D03*
X1100827Y280118D02*
D03*
Y294882D02*
D03*
Y298425D02*
D03*
Y301575D02*
D03*
Y305118D02*
D03*
X1088031Y288583D02*
D03*
X1085669D02*
D03*
X1083307Y288583D02*
D03*
X1080945D02*
D03*
X1012244Y271654D02*
D03*
X1061063Y267323D02*
D03*
X1012244Y274016D02*
D03*
X1061063Y273819D02*
D03*
X1012244Y276378D02*
D03*
X1061063Y276181D02*
D03*
X1012244Y278740D02*
D03*
X1086654Y205118D02*
D03*
X1061457Y204724D02*
D03*
X1047677Y209055D02*
D03*
X1048661Y190551D02*
D03*
X1045906Y190354D02*
D03*
X778346Y254331D02*
D03*
X776378D02*
D03*
X774409D02*
D03*
X772441D02*
D03*
X345276Y272441D02*
D03*
Y270472D02*
D03*
Y260630D02*
D03*
X345239Y258661D02*
D03*
X345275Y246850D02*
D03*
X345276Y248819D02*
D03*
X848032Y288583D02*
D03*
X845669D02*
D03*
X821457Y204724D02*
D03*
X861024Y247638D02*
D03*
Y243307D02*
D03*
X380315Y211024D02*
D03*
X378346D02*
D03*
X376378D02*
D03*
X374410D02*
D03*
X293701Y211417D02*
D03*
Y213386D02*
D03*
X291732Y211417D02*
D03*
Y209449D02*
D03*
X292913Y185827D02*
D03*
X289764Y207480D02*
D03*
X287795D02*
D03*
Y205512D02*
D03*
X285827D02*
D03*
X287008Y184646D02*
D03*
X283858Y203543D02*
D03*
X281890Y201575D02*
D03*
X279921Y199606D02*
D03*
Y197638D02*
D03*
X290945Y184646D02*
D03*
X285039D02*
D03*
X275787D02*
D03*
X296850Y185827D02*
D03*
X294882Y184646D02*
D03*
X273228D02*
D03*
X345276Y325590D02*
D03*
X69300Y102100D02*
D03*
X90800Y70900D02*
D03*
X84000Y78000D02*
D03*
X78400Y28700D02*
D03*
X43900Y41700D02*
D03*
X47100Y54000D02*
D03*
Y69900D02*
D03*
X47000Y85700D02*
D03*
Y101400D02*
D03*
X49200Y111300D02*
D03*
X84800Y110100D02*
D03*
X78800Y103800D02*
D03*
X84600Y125100D02*
D03*
X71400D02*
D03*
X58500Y129200D02*
D03*
X83100Y61000D02*
D03*
X91100Y66200D02*
D03*
X78600Y34200D02*
D03*
X625774Y69202D02*
D03*
X654574Y77802D02*
D03*
X640374Y78802D02*
D03*
X603674Y63902D02*
D03*
X613974Y74702D02*
D03*
X647574Y60202D02*
D03*
X661074Y85902D02*
D03*
X655974D02*
D03*
X627374Y85702D02*
D03*
X600974Y88602D02*
D03*
X599474Y72102D02*
D03*
X608974Y91302D02*
D03*
X525200Y85700D02*
D03*
X451992Y67689D02*
D03*
X427000Y67900D02*
D03*
X422000Y68000D02*
D03*
X418500Y35300D02*
D03*
X419600Y46800D02*
D03*
X401100Y42400D02*
D03*
X404000Y68200D02*
D03*
X125591Y219488D02*
D03*
X446500Y114597D02*
D03*
X424000Y117697D02*
D03*
X434900Y112797D02*
D03*
X421500Y117797D02*
D03*
X443600Y126397D02*
D03*
X448900D02*
D03*
X417500Y126597D02*
D03*
X860827Y305118D02*
D03*
Y301575D02*
D03*
Y298425D02*
D03*
Y294882D02*
D03*
Y280118D02*
D03*
X861417Y276575D02*
D03*
X862598Y273425D02*
D03*
X863780Y269685D02*
D03*
X840945Y288583D02*
D03*
X843307D02*
D03*
X821063Y267323D02*
D03*
X772244Y271654D02*
D03*
Y274016D02*
D03*
X821063Y273819D02*
D03*
X772244Y276378D02*
D03*
X821063Y276181D02*
D03*
X772244Y278740D02*
D03*
X840157Y227362D02*
D03*
X780118Y208858D02*
D03*
X838189Y228740D02*
D03*
X780118Y212598D02*
D03*
X836417Y227362D02*
D03*
X780118Y215551D02*
D03*
X834252Y227362D02*
D03*
X779134Y217913D02*
D03*
X861024Y245669D02*
D03*
X860827Y240157D02*
D03*
X861024Y218110D02*
D03*
Y215551D02*
D03*
Y212205D02*
D03*
X84350Y129921D02*
D03*
X68898Y127362D02*
D03*
X399100Y67597D02*
D03*
X398600Y50097D02*
D03*
X498800Y88600D02*
D03*
X497300Y72100D02*
D03*
X552400Y77800D02*
D03*
X538200Y78800D02*
D03*
X84350Y99606D02*
D03*
X83563Y93012D02*
D03*
X87008Y55906D02*
D03*
X84843Y90551D02*
D03*
X85138Y50787D02*
D03*
X81201Y77854D02*
D03*
X88780Y80906D02*
D03*
X71555Y85630D02*
D03*
Y69587D02*
D03*
X71752Y54429D02*
D03*
X501500Y63900D02*
D03*
X276969Y208071D02*
D03*
Y205906D02*
D03*
X808268Y229134D02*
D03*
X274803Y205906D02*
D03*
X818504Y276969D02*
D03*
X816535Y276968D02*
D03*
X345276Y323622D02*
D03*
X366535Y211024D02*
D03*
X817520Y274803D02*
D03*
X345276Y319685D02*
D03*
X368504Y211024D02*
D03*
X817520Y272441D02*
D03*
X345276Y317717D02*
D03*
X370472Y211024D02*
D03*
X806693Y276969D02*
D03*
X345276Y313779D02*
D03*
X372441Y211024D02*
D03*
X804724Y276969D02*
D03*
X345276Y311811D02*
D03*
X802756Y276969D02*
D03*
X345276Y301969D02*
D03*
X800787Y276969D02*
D03*
X345276Y300000D02*
D03*
X795669Y269685D02*
D03*
X345276Y296063D02*
D03*
X795669Y267717D02*
D03*
X345276Y294094D02*
D03*
X295669Y213386D02*
D03*
X795669Y265748D02*
D03*
X345276Y290158D02*
D03*
Y288189D02*
D03*
X795669Y259843D02*
D03*
X345276Y284252D02*
D03*
X795669Y257874D02*
D03*
X345276Y282283D02*
D03*
Y278346D02*
D03*
X289764Y209449D02*
D03*
X345276Y276378D02*
D03*
X795866Y248032D02*
D03*
Y246063D02*
D03*
Y244094D02*
D03*
Y242126D02*
D03*
X795669Y232283D02*
D03*
X807677Y209055D02*
D03*
X808661Y190551D02*
D03*
X805906Y190354D02*
D03*
X545400Y60200D02*
D03*
X404600Y55097D02*
D03*
X455000Y67797D02*
D03*
X846654Y205118D02*
D03*
X553800Y85900D02*
D03*
X506800Y91300D02*
D03*
X523600Y69200D02*
D03*
X558900Y85900D02*
D03*
X511800Y74700D02*
D03*
X795669Y255905D02*
D03*
Y263779D02*
D03*
X805906Y229134D02*
D03*
X816535Y227756D02*
D03*
X800787Y227165D02*
D03*
X795669Y234252D02*
D03*
X803543Y229134D02*
D03*
X795669Y236220D02*
D03*
X802756Y227165D02*
D03*
X795669Y238386D02*
D03*
X820866Y231102D02*
D03*
Y233071D02*
D03*
X819094Y227756D02*
D03*
X820866Y229134D02*
D03*
X845276Y234252D02*
D03*
Y236221D02*
D03*
Y238189D02*
D03*
Y240158D02*
D03*
X861024Y208661D02*
D03*
X345276Y217323D02*
D03*
X335827Y185433D02*
D03*
X345276Y219291D02*
D03*
X478346Y273346D02*
D03*
Y275394D02*
D03*
X326772Y276480D02*
D03*
Y278527D02*
D03*
X427953Y278290D02*
D03*
Y280337D02*
D03*
Y284764D02*
D03*
Y286811D02*
D03*
X326772Y296244D02*
D03*
Y294197D02*
D03*
Y302150D02*
D03*
Y300102D02*
D03*
X427953Y291850D02*
D03*
Y293898D02*
D03*
X345276Y308055D02*
D03*
Y306008D02*
D03*
X475197Y284055D02*
D03*
Y286102D02*
D03*
X326772Y306008D02*
D03*
Y308055D02*
D03*
X480709Y277284D02*
D03*
Y279331D02*
D03*
X326772Y290338D02*
D03*
Y288291D02*
D03*
X427953Y298937D02*
D03*
Y300984D02*
D03*
X326772Y311913D02*
D03*
Y313961D02*
D03*
Y317819D02*
D03*
Y319866D02*
D03*
Y325772D02*
D03*
Y323724D02*
D03*
X332165Y214567D02*
D03*
X330118D02*
D03*
X335315Y211024D02*
D03*
X333268D02*
D03*
X336339Y214961D02*
D03*
X338386D02*
D03*
X350590Y224016D02*
D03*
X352638D02*
D03*
X328346Y218110D02*
D03*
X330709Y218110D02*
D03*
X314685Y220472D02*
D03*
X316732D02*
D03*
X349488Y227953D02*
D03*
X347441D02*
D03*
X319685Y222441D02*
D03*
X317638D02*
D03*
X329331Y226378D02*
D03*
X331378D02*
D03*
X336614Y227165D02*
D03*
X334567D02*
D03*
X600787Y273346D02*
D03*
Y275394D02*
D03*
X551575Y276890D02*
D03*
Y278937D02*
D03*
X315354Y229236D02*
D03*
X332283D02*
D03*
X315354Y231283D02*
D03*
X332283D02*
D03*
X600787Y280039D02*
D03*
Y282087D02*
D03*
X312992Y234449D02*
D03*
Y232402D02*
D03*
X551575Y283976D02*
D03*
Y286024D02*
D03*
X310630Y235551D02*
D03*
Y237598D02*
D03*
X600787Y287126D02*
D03*
Y289173D02*
D03*
X312992Y241047D02*
D03*
Y243094D02*
D03*
X551575Y290276D02*
D03*
Y292323D02*
D03*
X600787Y293425D02*
D03*
Y295472D02*
D03*
X551575Y296575D02*
D03*
Y298622D02*
D03*
X308268Y258764D02*
D03*
Y260811D02*
D03*
X600787Y299724D02*
D03*
Y301772D02*
D03*
X305906Y264669D02*
D03*
Y266717D02*
D03*
X551575Y302874D02*
D03*
Y304921D02*
D03*
X51575Y308267D02*
D03*
X69685Y306299D02*
D03*
X36220Y312598D02*
D03*
X133858Y305906D02*
D03*
X44882Y314173D02*
D03*
X131496Y307874D02*
D03*
X41339Y314173D02*
D03*
X133858Y309842D02*
D03*
X34252Y310630D02*
D03*
X131496Y311811D02*
D03*
X32283Y308661D02*
D03*
X133858Y313779D02*
D03*
X30315Y310630D02*
D03*
X131496Y315748D02*
D03*
X133858Y317717D02*
D03*
X71653Y303937D02*
D03*
X24409Y278740D02*
D03*
X24803Y276378D02*
D03*
X101969Y251969D02*
D03*
Y231496D02*
D03*
X61811Y293307D02*
D03*
Y301575D02*
D03*
X416929Y124409D02*
D03*
X231890Y337795D02*
D03*
X235827D02*
D03*
X239764D02*
D03*
X243701D02*
D03*
X229921D02*
D03*
X233858D02*
D03*
X237795D02*
D03*
X241732D02*
D03*
X249606D02*
D03*
X247638D02*
D03*
X251575D02*
D03*
X255512D02*
D03*
X259449D02*
D03*
X263386D02*
D03*
X181890Y377165D02*
D03*
X218898Y349213D02*
D03*
X257480Y337795D02*
D03*
X231496Y325197D02*
D03*
X235827D02*
D03*
X237795D02*
D03*
X239764D02*
D03*
X241732D02*
D03*
X243701D02*
D03*
X247638D02*
D03*
X269291D02*
D03*
X271260D02*
D03*
X227953D02*
D03*
X140551Y268504D02*
D03*
X140551Y266535D02*
D03*
X151919Y266571D02*
D03*
X143701Y261023D02*
D03*
X140551Y264566D02*
D03*
X259449Y325197D02*
D03*
X257480D02*
D03*
X255512D02*
D03*
X253543D02*
D03*
X760236Y424409D02*
D03*
Y419291D02*
D03*
X760235Y414566D02*
D03*
X760236Y409449D02*
D03*
Y404331D02*
D03*
Y399606D02*
D03*
X746063Y425591D02*
D03*
X717717Y424409D02*
D03*
Y419291D02*
D03*
Y414173D02*
D03*
Y409449D02*
D03*
X717715Y404330D02*
D03*
X717717Y399213D02*
D03*
X494488Y422441D02*
D03*
X516536D02*
D03*
X524016Y416142D02*
D03*
X526378D02*
D03*
X528740D02*
D03*
X531102D02*
D03*
X533465D02*
D03*
X535827D02*
D03*
X538189D02*
D03*
X522047Y414567D02*
D03*
X411024Y432677D02*
D03*
Y453150D02*
D03*
X416536Y446063D02*
D03*
X414961Y432677D02*
D03*
X429134Y436614D02*
D03*
X261417Y337795D02*
D03*
X268898D02*
D03*
X270866D02*
D03*
X272835D02*
D03*
X274803D02*
D03*
X233858Y325197D02*
D03*
X251575Y66535D02*
D03*
X287401Y316929D02*
D03*
X288976Y318898D02*
D03*
X290551Y316929D02*
D03*
X292125Y318897D02*
D03*
X293701Y316929D02*
D03*
X134646Y258661D02*
D03*
X161411Y84684D02*
D03*
X11024Y331102D02*
D03*
X122441Y291732D02*
D03*
X149606Y149606D02*
D03*
X11024Y340945D02*
D03*
X124016Y294488D02*
D03*
X147638Y149606D02*
D03*
X11024Y361024D02*
D03*
X124016Y299213D02*
D03*
X145669Y149212D02*
D03*
X161511Y87246D02*
D03*
X149212Y159449D02*
D03*
X340945Y49606D02*
D03*
X134646Y252756D02*
D03*
X342126Y74410D02*
D03*
X134646Y254724D02*
D03*
Y256693D02*
D03*
X342126Y100000D02*
D03*
Y124803D02*
D03*
X222834Y96850D02*
D03*
X232677Y97638D02*
D03*
X220866Y96850D02*
D03*
X232677Y103150D02*
D03*
X134645Y246850D02*
D03*
X177559Y73622D02*
D03*
X177559Y78740D02*
D03*
Y83858D02*
D03*
Y88976D02*
D03*
Y98819D02*
D03*
Y103937D02*
D03*
X179921Y111811D02*
D03*
X177559Y94095D02*
D03*
X244882Y184646D02*
D03*
X247638Y192323D02*
D03*
X1035669Y263779D02*
D03*
X247638Y184646D02*
D03*
X1035669Y265748D02*
D03*
X249606Y192323D02*
D03*
X1035669Y267717D02*
D03*
X261417Y184646D02*
D03*
X266535Y196063D02*
D03*
X1035669Y269685D02*
D03*
X266535Y198032D02*
D03*
X1040787Y276969D02*
D03*
X263779Y184646D02*
D03*
X268701Y198032D02*
D03*
X1042756Y276969D02*
D03*
X268701Y200000D02*
D03*
X1044724Y276969D02*
D03*
X266142Y184646D02*
D03*
X270866Y200000D02*
D03*
X1046693Y276969D02*
D03*
X268504Y184646D02*
D03*
X270866Y201969D02*
D03*
X1057520Y272441D02*
D03*
X270866Y184646D02*
D03*
X272835Y201969D02*
D03*
X1057520Y274803D02*
D03*
X272835Y203937D02*
D03*
X1056535Y276968D02*
D03*
X274803Y203937D02*
D03*
X1058504Y276969D02*
D03*
X231890Y186220D02*
D03*
X1035669Y236220D02*
D03*
X231693Y182087D02*
D03*
X1035669Y234252D02*
D03*
X229724Y186220D02*
D03*
X1035669Y232283D02*
D03*
X1040787Y227165D02*
D03*
X225984Y186417D02*
D03*
X1042756Y227165D02*
D03*
X1043543Y229134D02*
D03*
X223819Y186417D02*
D03*
X1045905Y229134D02*
D03*
X1048268Y229134D02*
D03*
X1056535Y227756D02*
D03*
X233858Y183858D02*
D03*
X1035669Y238386D02*
D03*
X235827Y186417D02*
D03*
X1035866Y242126D02*
D03*
X236614Y183858D02*
D03*
X1035866Y244094D02*
D03*
X237992Y186417D02*
D03*
X1035866Y246063D02*
D03*
X241732Y178543D02*
D03*
X1035866Y248032D02*
D03*
X241339Y192323D02*
D03*
X241929Y184646D02*
D03*
X243504Y192323D02*
D03*
X1155669Y259843D02*
D03*
X134055Y193898D02*
D03*
X1155669Y263779D02*
D03*
X199409Y185827D02*
D03*
X1155669Y265748D02*
D03*
X129921Y189370D02*
D03*
X1155669Y267717D02*
D03*
X203740Y185039D02*
D03*
X1155669Y269685D02*
D03*
X129921Y187402D02*
D03*
X1160787Y276969D02*
D03*
X1162756D02*
D03*
X129921Y185433D02*
D03*
X1164724Y276969D02*
D03*
X212402Y183465D02*
D03*
X1166693Y276969D02*
D03*
X129921Y183465D02*
D03*
X1177520Y272441D02*
D03*
Y274803D02*
D03*
X129921Y181496D02*
D03*
X1176535Y276968D02*
D03*
X1178504Y276969D02*
D03*
X176575Y196654D02*
D03*
X132874Y203346D02*
D03*
X1155669Y236220D02*
D03*
X174409Y197047D02*
D03*
X1155669Y234252D02*
D03*
X172244Y197441D02*
D03*
X122244Y207480D02*
D03*
X1155669Y232283D02*
D03*
X170079Y197835D02*
D03*
X1160787Y227165D02*
D03*
X167913Y198228D02*
D03*
X123425Y209449D02*
D03*
X1162756Y227165D02*
D03*
X165748Y198622D02*
D03*
X1163543Y229134D02*
D03*
X163583Y199016D02*
D03*
X122441Y211417D02*
D03*
X1165905Y229134D02*
D03*
X161417Y199409D02*
D03*
X1168268Y229134D02*
D03*
X159252Y199803D02*
D03*
X123425Y213386D02*
D03*
X1176535Y227756D02*
D03*
X178740Y196653D02*
D03*
X1155669Y238386D02*
D03*
X180906Y195866D02*
D03*
X131890Y201181D02*
D03*
X1155866Y242126D02*
D03*
X183071Y195669D02*
D03*
X1155866Y244094D02*
D03*
X185236Y195276D02*
D03*
X133071Y199409D02*
D03*
X1155866Y246063D02*
D03*
X187402Y194882D02*
D03*
X1155866Y248032D02*
D03*
X189370Y194291D02*
D03*
X131890Y197638D02*
D03*
X191535Y194291D02*
D03*
X1155669Y255905D02*
D03*
X193307Y192717D02*
D03*
X133071Y195866D02*
D03*
X1155669Y257874D02*
D03*
X128740Y228937D02*
D03*
X1275669Y259843D02*
D03*
X130118Y227165D02*
D03*
X1275669Y263779D02*
D03*
X132480Y227165D02*
D03*
X1275669Y265748D02*
D03*
X134252Y225591D02*
D03*
X1275669Y267717D02*
D03*
X142717Y225000D02*
D03*
X1275669Y269685D02*
D03*
X123819Y223425D02*
D03*
X144685Y224606D02*
D03*
X1280787Y276969D02*
D03*
X146850Y224213D02*
D03*
X1282756Y276969D02*
D03*
X148228Y205709D02*
D03*
X122638Y221260D02*
D03*
X1284724Y276969D02*
D03*
X149606Y203937D02*
D03*
X1286693Y276969D02*
D03*
X123622Y217323D02*
D03*
X150984Y202362D02*
D03*
X1297520Y272441D02*
D03*
X152756Y200984D02*
D03*
X1297520Y274803D02*
D03*
X122441Y215354D02*
D03*
X154921Y200591D02*
D03*
X1296535Y276968D02*
D03*
X157087Y200197D02*
D03*
X1298504Y276969D02*
D03*
X125197Y230906D02*
D03*
X1275669Y255905D02*
D03*
X123032Y231102D02*
D03*
X126575Y229134D02*
D03*
X1275669Y257874D02*
D03*
X269291Y127953D02*
D03*
X1275866Y246063D02*
D03*
X267323Y129528D02*
D03*
X1275866Y248032D02*
D03*
X134645Y248818D02*
D03*
X134646Y250787D02*
D03*
X162205Y151181D02*
D03*
X164173D02*
D03*
X907874Y42520D02*
D03*
X875984Y35039D02*
D03*
X863386Y29134D02*
D03*
X864959Y27559D02*
D03*
X868504Y51181D02*
D03*
X868898Y46063D02*
D03*
X866534Y25984D02*
D03*
X866929Y40945D02*
D03*
X688976Y293898D02*
D03*
X709449Y293976D02*
D03*
X688976Y291850D02*
D03*
X709449Y291929D02*
D03*
X688976Y284528D02*
D03*
X709449D02*
D03*
X688976Y282480D02*
D03*
X709449D02*
D03*
X688976Y275079D02*
D03*
X709449D02*
D03*
X688976Y273031D02*
D03*
X709449D02*
D03*
X688976Y265630D02*
D03*
X709449Y265551D02*
D03*
X688976Y263583D02*
D03*
X709449Y263504D02*
D03*
X685039Y259331D02*
D03*
X709449Y256181D02*
D03*
X685039Y257283D02*
D03*
X709449Y254134D02*
D03*
X326772Y282386D02*
D03*
Y284433D02*
D03*
X253543Y337795D02*
D03*
X268110Y332677D02*
D03*
X249606Y329921D02*
D03*
X795668Y253937D02*
D03*
X915746D02*
D03*
X195079Y186417D02*
D03*
X208071Y184252D02*
D03*
X216732Y182677D02*
D03*
X228346Y182283D02*
D03*
X225984Y180512D02*
D03*
X218898Y182283D02*
D03*
X214567Y183071D02*
D03*
X210236Y183858D02*
D03*
X205906Y184646D02*
D03*
X201575Y185433D02*
D03*
X197244Y186221D02*
D03*
X223228Y177559D02*
D03*
X222441Y179921D02*
D03*
X220866Y181523D02*
D03*
X1301063Y269685D02*
D03*
X1061063Y269685D02*
D03*
X941063D02*
D03*
X821063D02*
D03*
X1275669Y253819D02*
D03*
X1155669D02*
D03*
X84252Y70472D02*
D03*
X27953Y356299D02*
D03*
X28346Y323622D02*
D03*
X173228Y347638D02*
D03*
X1285039Y311024D02*
D03*
X1281887Y311023D02*
D03*
X1283462Y312598D02*
D03*
X1280312D02*
D03*
X1277165Y312598D02*
D03*
X1278738Y311023D02*
D03*
X1275588D02*
D03*
X1274013Y312598D02*
D03*
X1272438Y311023D02*
D03*
X1270866Y312598D02*
D03*
X1269291Y311024D02*
D03*
X1267714Y312598D02*
D03*
X384252Y439370D02*
D03*
X385039Y127953D02*
D03*
X385039Y125984D02*
D03*
X419291Y118898D02*
D03*
X416929Y122047D02*
D03*
X431595Y123031D02*
D03*
X431496Y119291D02*
D03*
X157480Y150787D02*
D03*
X159449D02*
D03*
X367323Y418898D02*
D03*
X719085Y168711D02*
D03*
X717693Y170103D02*
D03*
X971653Y154724D02*
D03*
X886614Y304331D02*
D03*
X869685Y290551D02*
D03*
X115000Y279800D02*
D03*
X116500Y278500D02*
D03*
X857185Y341929D02*
D03*
Y337992D02*
D03*
X889468Y340650D02*
D03*
X887598Y344094D02*
D03*
X857185Y346752D02*
D03*
X877756Y352854D02*
D03*
X887598Y346654D02*
D03*
X888681Y338189D02*
D03*
X879626Y322441D02*
D03*
X880020Y291634D02*
D03*
X857480Y334744D02*
D03*
X857087Y344193D02*
D03*
X857480Y349508D02*
D03*
X880709Y350590D02*
D03*
X882087Y341929D02*
D03*
X888681Y333366D02*
D03*
X857874Y329331D02*
D03*
X867520Y318701D02*
D03*
X329200Y245800D02*
D03*
Y247900D02*
D03*
X308700Y224100D02*
D03*
X307200Y225600D02*
D03*
X310255Y255200D02*
D03*
X308200Y254700D02*
D03*
X330300Y269510D02*
D03*
Y271557D02*
D03*
X310200Y251800D02*
D03*
Y249753D02*
D03*
X345276Y240945D02*
D03*
Y242913D02*
D03*
X161500Y92500D02*
D03*
Y89700D02*
D03*
X161411Y82228D02*
D03*
X161400Y79600D02*
D03*
X138100D02*
D03*
X146400Y82100D02*
D03*
X161300Y77000D02*
D03*
Y74500D02*
D03*
D244*
X507803Y412340D02*
D03*
X509575Y414702D02*
D03*
Y409978D02*
D03*
X506032D02*
D03*
Y414702D02*
D03*
X409935Y426309D02*
D03*
X413872D02*
D03*
Y422372D02*
D03*
X409935D02*
D03*
X411903Y424340D02*
D03*
D245*
X126378Y205512D02*
D03*
X452000Y113900D02*
D03*
X1315100Y216700D02*
D03*
X1195100Y216700D02*
D03*
X1075100D02*
D03*
X955100D02*
D03*
X835100D02*
D03*
X1342200Y226700D02*
D03*
Y221200D02*
D03*
X1326400Y222200D02*
D03*
X1222200Y226700D02*
D03*
Y221200D02*
D03*
X1206400Y222200D02*
D03*
X1102200Y226700D02*
D03*
Y221200D02*
D03*
X1086400Y222200D02*
D03*
X982200Y226700D02*
D03*
Y221200D02*
D03*
X966400Y222200D02*
D03*
X846400D02*
D03*
X862200Y221200D02*
D03*
Y226700D02*
D03*
X1314899Y209264D02*
D03*
X1194899Y209264D02*
D03*
X1074900Y209300D02*
D03*
X954899Y209264D02*
D03*
X834900Y209300D02*
D03*
X818700Y210300D02*
D03*
X821400Y209100D02*
D03*
X802600Y209200D02*
D03*
X1298700Y210300D02*
D03*
X1301400Y209100D02*
D03*
X1282600Y209200D02*
D03*
X1178700Y210300D02*
D03*
X1181400Y209100D02*
D03*
X1162600Y209200D02*
D03*
X1058700Y210300D02*
D03*
X1061400Y209100D02*
D03*
X1042600Y209200D02*
D03*
X922600D02*
D03*
X941400Y209100D02*
D03*
X938700Y210300D02*
D03*
X1283300Y189300D02*
D03*
X1312100Y186200D02*
D03*
X1288800Y196700D02*
D03*
X1309400Y197600D02*
D03*
X1163300Y189300D02*
D03*
X1192100Y186200D02*
D03*
X1168800Y196700D02*
D03*
X1189400Y197600D02*
D03*
X1043300Y189300D02*
D03*
X1072100Y186200D02*
D03*
X1048800Y196700D02*
D03*
X1069400Y197600D02*
D03*
X923300Y189300D02*
D03*
X952100Y186200D02*
D03*
X928800Y196700D02*
D03*
X949400Y197600D02*
D03*
X829400D02*
D03*
X808800Y196700D02*
D03*
X832100Y186200D02*
D03*
X803300Y189300D02*
D03*
X1288500Y171700D02*
D03*
X1309900D02*
D03*
X1168500Y171700D02*
D03*
X1189900D02*
D03*
X1048500D02*
D03*
X1069900D02*
D03*
X928500D02*
D03*
X949900D02*
D03*
X829900D02*
D03*
X808500D02*
D03*
X1338800Y177700D02*
D03*
X1339600Y159500D02*
D03*
X1331400Y154500D02*
D03*
X1272800Y163400D02*
D03*
X1219700Y159600D02*
D03*
X1211500Y154300D02*
D03*
X1152900Y163600D02*
D03*
X912800Y163500D02*
D03*
X1032800Y163400D02*
D03*
X1091300Y154400D02*
D03*
X1099900Y159700D02*
D03*
X979800Y159500D02*
D03*
X859600D02*
D03*
X850900Y154200D02*
D03*
X802400Y163100D02*
D03*
X574400Y170400D02*
D03*
X693200Y170000D02*
D03*
X433000Y185300D02*
D03*
X304400Y56200D02*
D03*
X304300Y66100D02*
D03*
X349276Y47000D02*
D03*
X349176Y72100D02*
D03*
X349276Y98000D02*
D03*
Y123100D02*
D03*
X255600Y116500D02*
D03*
X268300Y123100D02*
D03*
X272400Y89300D02*
D03*
X138100Y122700D02*
D03*
X158700Y67500D02*
D03*
X142900Y56100D02*
D03*
X128400Y35900D02*
D03*
X129500Y63900D02*
D03*
X128400Y80000D02*
D03*
X124300Y110700D02*
D03*
X148200Y95200D02*
D03*
X63386Y370866D02*
D03*
X63779Y348031D02*
D03*
X10236Y323228D02*
D03*
X29528Y334646D02*
D03*
X18898Y366142D02*
D03*
X31102Y379134D02*
D03*
X130315Y388582D02*
D03*
X125197Y407087D02*
D03*
X165748Y374016D02*
D03*
X155905Y373622D02*
D03*
X116142Y370079D02*
D03*
X114173Y372047D02*
D03*
X96063Y370472D02*
D03*
X93701Y372047D02*
D03*
X129921Y364567D02*
D03*
X133465Y350787D02*
D03*
X35110Y401063D02*
D03*
X35039Y391063D02*
D03*
X29992Y401063D02*
D03*
X243294Y420384D02*
D03*
X240539Y419203D02*
D03*
X243294Y417628D02*
D03*
X240539Y416447D02*
D03*
X243294Y414872D02*
D03*
X93701Y434646D02*
D03*
X113779Y470079D02*
D03*
Y472441D02*
D03*
Y474803D02*
D03*
X125110Y459449D02*
D03*
X369685Y454331D02*
D03*
X405512Y409055D02*
D03*
X373622Y407480D02*
D03*
Y411417D02*
D03*
Y415354D02*
D03*
X386614D02*
D03*
X383071D02*
D03*
X386614Y407480D02*
D03*
X383465D02*
D03*
X376772Y409449D02*
D03*
Y413386D02*
D03*
X379921Y411417D02*
D03*
Y407480D02*
D03*
Y415354D02*
D03*
X451181Y439764D02*
D03*
Y442913D02*
D03*
Y446063D02*
D03*
X448032Y447638D02*
D03*
Y438189D02*
D03*
Y441339D02*
D03*
Y444488D02*
D03*
X444882Y439764D02*
D03*
Y442913D02*
D03*
Y446063D02*
D03*
X486221Y395669D02*
D03*
X493110D02*
D03*
X500000D02*
D03*
X506890D02*
D03*
X517913Y469488D02*
D03*
X513976D02*
D03*
X510039D02*
D03*
X512008Y466535D02*
D03*
X493110D02*
D03*
X500984D02*
D03*
X497047D02*
D03*
X499016Y463583D02*
D03*
X495079D02*
D03*
X493110Y460630D02*
D03*
X497047D02*
D03*
X500984D02*
D03*
X457874Y423622D02*
D03*
X461811D02*
D03*
X465748D02*
D03*
X468110Y420472D02*
D03*
X463779D02*
D03*
X459842D02*
D03*
X457874Y416929D02*
D03*
X461811D02*
D03*
X465748D02*
D03*
X477953Y430709D02*
D03*
Y426772D02*
D03*
X481496Y424803D02*
D03*
Y432677D02*
D03*
Y428740D02*
D03*
X485039Y426772D02*
D03*
Y430709D02*
D03*
X488189Y428740D02*
D03*
Y432677D02*
D03*
X491339Y427165D02*
D03*
Y430709D02*
D03*
Y434646D02*
D03*
X511024Y422835D02*
D03*
Y426772D02*
D03*
Y430709D02*
D03*
Y434646D02*
D03*
X485039Y439370D02*
D03*
X471260Y450000D02*
D03*
X805512Y407480D02*
D03*
X818898Y407087D02*
D03*
X816142Y432283D02*
D03*
X820472Y420866D02*
D03*
X817183Y426334D02*
D03*
X810236Y421260D02*
D03*
X777559Y414173D02*
D03*
Y409055D02*
D03*
X774409Y396063D02*
D03*
Y427559D02*
D03*
X756693Y435433D02*
D03*
X740945Y430315D02*
D03*
X709449Y437795D02*
D03*
X927953Y56299D02*
D03*
X915353Y57086D02*
D03*
X900787Y35039D02*
D03*
X882283Y38583D02*
D03*
Y50394D02*
D03*
X865354Y54331D02*
D03*
X854724Y57087D02*
D03*
X839370Y35039D02*
D03*
X665354Y125984D02*
D03*
X659447Y125984D02*
D03*
X624409Y126378D02*
D03*
X603543D02*
D03*
X562992Y125984D02*
D03*
X557086Y125984D02*
D03*
X522441Y126378D02*
D03*
X501575D02*
D03*
X405905Y119685D02*
D03*
X407874Y122047D02*
D03*
X419685Y111417D02*
D03*
X1340945Y283465D02*
D03*
X1332677D02*
D03*
X1354331Y263779D02*
D03*
X1220866Y283465D02*
D03*
X1212598D02*
D03*
X1100787D02*
D03*
X1092520D02*
D03*
X980709D02*
D03*
X972835D02*
D03*
X860630Y284252D02*
D03*
X852756D02*
D03*
X866535Y267717D02*
D03*
X986614D02*
D03*
X1106693D02*
D03*
X1226772D02*
D03*
X1218898Y176772D02*
D03*
X1259842Y176378D02*
D03*
X1098819D02*
D03*
X1140158D02*
D03*
X979528D02*
D03*
X1020079D02*
D03*
X1262596Y225984D02*
D03*
X1279134Y230315D02*
D03*
X1142913Y225590D02*
D03*
X1158661Y230315D02*
D03*
X1022835Y225984D02*
D03*
X1038583Y230315D02*
D03*
X782677Y227559D02*
D03*
X798425Y230315D02*
D03*
X900394Y170866D02*
D03*
X902756Y227559D02*
D03*
X918502Y230708D02*
D03*
X859842Y175984D02*
D03*
X161811Y101575D02*
D03*
X162205Y111417D02*
D03*
X94882Y361024D02*
D03*
X257874Y185039D02*
D03*
X330260Y262740D02*
D03*
X338386Y280512D02*
D03*
X43051Y294114D02*
D03*
X47776D02*
D03*
Y289390D02*
D03*
X38327D02*
D03*
X47776Y284665D02*
D03*
X43051D02*
D03*
X38327D02*
D03*
X43051Y289390D02*
D03*
X38327Y294114D02*
D03*
X21654Y298425D02*
D03*
X38189Y310630D02*
D03*
X44094D02*
D03*
X50787Y265748D02*
D03*
X17717Y283071D02*
D03*
X21654Y295276D02*
D03*
X18504Y294094D02*
D03*
X52362Y270472D02*
D03*
X37795Y270472D02*
D03*
X65354Y288976D02*
D03*
X62992Y290945D02*
D03*
X62598Y297637D02*
D03*
X68504Y301181D02*
D03*
X67716Y266929D02*
D03*
X62598Y262598D02*
D03*
X40157Y258661D02*
D03*
X32283Y261811D02*
D03*
X98425Y238976D02*
D03*
Y259842D02*
D03*
X74016Y288976D02*
D03*
X170866Y410630D02*
D03*
Y413386D02*
D03*
Y416142D02*
D03*
Y418898D02*
D03*
Y407874D02*
D03*
X231102D02*
D03*
Y418898D02*
D03*
Y416142D02*
D03*
Y413386D02*
D03*
Y410630D02*
D03*
X291732Y407874D02*
D03*
Y418898D02*
D03*
Y416142D02*
D03*
Y413386D02*
D03*
Y410630D02*
D03*
X150787Y418898D02*
D03*
Y416142D02*
D03*
Y410630D02*
D03*
Y407874D02*
D03*
X144882Y407874D02*
D03*
Y418898D02*
D03*
Y416142D02*
D03*
Y413386D02*
D03*
Y410630D02*
D03*
X150787Y413386D02*
D03*
X212205D02*
D03*
X206299Y410630D02*
D03*
Y413386D02*
D03*
Y416142D02*
D03*
Y418898D02*
D03*
Y407874D02*
D03*
X212205Y407874D02*
D03*
Y410630D02*
D03*
Y416142D02*
D03*
Y418898D02*
D03*
X272835Y413386D02*
D03*
X266929Y410630D02*
D03*
Y413386D02*
D03*
Y416142D02*
D03*
Y418898D02*
D03*
Y407874D02*
D03*
X272835Y407874D02*
D03*
Y410630D02*
D03*
Y416142D02*
D03*
Y418898D02*
D03*
X128346Y191732D02*
D03*
X88583Y464567D02*
D03*
X93307D02*
D03*
X98032D02*
D03*
X102756D02*
D03*
X107480D02*
D03*
X109843Y461024D02*
D03*
X105118D02*
D03*
X100394D02*
D03*
X95669D02*
D03*
X90945D02*
D03*
X107480Y457480D02*
D03*
X102756D02*
D03*
X98032D02*
D03*
X93307D02*
D03*
X88583D02*
D03*
X338583Y244882D02*
D03*
X329134Y280315D02*
D03*
X327559Y233465D02*
D03*
X115200Y325800D02*
D03*
X114961Y321654D02*
D03*
X244094Y70079D02*
D03*
X276378Y301181D02*
D03*
X134252Y321795D02*
D03*
X1366535Y19685D02*
D03*
X1364956Y24545D02*
D03*
X1360823Y27548D02*
D03*
X1355713D02*
D03*
X1351579Y24545D02*
D03*
X1350000Y19685D02*
D03*
X1351579Y14825D02*
D03*
X1355713Y11822D02*
D03*
X1360823D02*
D03*
X1364956Y14825D02*
D03*
Y479392D02*
D03*
X1360823Y476389D02*
D03*
X1355713D02*
D03*
X1351579Y479392D02*
D03*
X1350000Y484252D02*
D03*
X1351579Y489112D02*
D03*
X1355713Y492115D02*
D03*
X1360823D02*
D03*
X1364956Y489112D02*
D03*
X1366535Y484252D02*
D03*
X735035Y479392D02*
D03*
X730901Y476389D02*
D03*
X725792D02*
D03*
X721658Y479392D02*
D03*
X720079Y484252D02*
D03*
X721658Y489112D02*
D03*
X725792Y492115D02*
D03*
X730901D02*
D03*
X735035Y489112D02*
D03*
X736614Y484252D02*
D03*
X26374Y479392D02*
D03*
X22240Y476389D02*
D03*
X17130D02*
D03*
X12996Y479392D02*
D03*
X11417Y484252D02*
D03*
X12996Y489112D02*
D03*
X17130Y492115D02*
D03*
X22240D02*
D03*
X26374Y489112D02*
D03*
X27953Y484252D02*
D03*
X735035Y14825D02*
D03*
X730901Y11822D02*
D03*
X725792D02*
D03*
X721658Y14825D02*
D03*
X720079Y19685D02*
D03*
X721658Y24545D02*
D03*
X725792Y27548D02*
D03*
X730901D02*
D03*
X735035Y24545D02*
D03*
X736614Y19685D02*
D03*
X26374Y14825D02*
D03*
X22240Y11822D02*
D03*
X17130D02*
D03*
X12996Y14825D02*
D03*
X11417Y19685D02*
D03*
X12996Y24545D02*
D03*
X17130Y27548D02*
D03*
X22240D02*
D03*
X26374Y24545D02*
D03*
X27953Y19685D02*
D03*
X401968Y425984D02*
D03*
Y429134D02*
D03*
Y432283D02*
D03*
X130000Y455000D02*
D03*
X132500Y460000D02*
D03*
X130000Y465000D02*
D03*
X132500Y470000D02*
D03*
X130000Y475000D02*
D03*
X132500Y480000D02*
D03*
X135000Y455000D02*
D03*
Y465000D02*
D03*
X137500Y470000D02*
D03*
X135000Y475000D02*
D03*
X165000Y455000D02*
D03*
X167500Y460000D02*
D03*
X165000Y465000D02*
D03*
X167500Y470000D02*
D03*
X165000Y475000D02*
D03*
X167500Y480000D02*
D03*
X170000Y455000D02*
D03*
X172500Y460000D02*
D03*
X170000Y465000D02*
D03*
X172500Y470000D02*
D03*
X170000Y475000D02*
D03*
X172500Y480000D02*
D03*
X175000Y455000D02*
D03*
X177500Y460000D02*
D03*
X175000Y465000D02*
D03*
X177500Y470000D02*
D03*
X175000Y475000D02*
D03*
X177500Y480000D02*
D03*
X180000Y455000D02*
D03*
X182500Y460000D02*
D03*
X180000Y465000D02*
D03*
X182500Y470000D02*
D03*
X180000Y475000D02*
D03*
X182500Y480000D02*
D03*
X185000Y455000D02*
D03*
X187500Y460000D02*
D03*
X185000Y465000D02*
D03*
X187500Y470000D02*
D03*
X185000Y475000D02*
D03*
X187500Y480000D02*
D03*
X190000Y455000D02*
D03*
X192500Y460000D02*
D03*
X190000Y465000D02*
D03*
X192500Y470000D02*
D03*
X190000Y475000D02*
D03*
X192500Y480000D02*
D03*
X195000Y455000D02*
D03*
X197500Y460000D02*
D03*
X195000Y465000D02*
D03*
X197500Y470000D02*
D03*
X195000Y475000D02*
D03*
X197500Y480000D02*
D03*
X225000Y455000D02*
D03*
X227500Y460000D02*
D03*
X225000Y465000D02*
D03*
X227500Y470000D02*
D03*
X225000Y475000D02*
D03*
X227500Y480000D02*
D03*
X230000Y455000D02*
D03*
X232500Y460000D02*
D03*
X230000Y465000D02*
D03*
X232500Y470000D02*
D03*
X230000Y475000D02*
D03*
X232500Y480000D02*
D03*
X235000Y455000D02*
D03*
X237500Y460000D02*
D03*
X235000Y465000D02*
D03*
X237500Y470000D02*
D03*
X235000Y475000D02*
D03*
X237500Y480000D02*
D03*
X240000Y455000D02*
D03*
X242500Y460000D02*
D03*
X240000Y465000D02*
D03*
X242500Y470000D02*
D03*
X240000Y475000D02*
D03*
X242500Y480000D02*
D03*
X245000Y455000D02*
D03*
X247500Y460000D02*
D03*
X245000Y465000D02*
D03*
X247500Y470000D02*
D03*
X245000Y475000D02*
D03*
X247500Y480000D02*
D03*
X250000Y455000D02*
D03*
X252500Y460000D02*
D03*
X250000Y465000D02*
D03*
X252500Y470000D02*
D03*
X250000Y475000D02*
D03*
X252500Y480000D02*
D03*
X255000Y455000D02*
D03*
X257500Y460000D02*
D03*
X255000Y465000D02*
D03*
X257500Y470000D02*
D03*
X255000Y475000D02*
D03*
X257500Y480000D02*
D03*
X285000Y455000D02*
D03*
X287500Y460000D02*
D03*
X285000Y465000D02*
D03*
X287500Y470000D02*
D03*
X285000Y475000D02*
D03*
X287500Y480000D02*
D03*
X290000Y455000D02*
D03*
X292500Y460000D02*
D03*
X290000Y465000D02*
D03*
X292500Y470000D02*
D03*
X290000Y475000D02*
D03*
X292500Y480000D02*
D03*
X295000Y455000D02*
D03*
X297500Y460000D02*
D03*
X295000Y465000D02*
D03*
X297500Y470000D02*
D03*
X295000Y475000D02*
D03*
X297500Y480000D02*
D03*
X1296063Y329134D02*
D03*
X1302362D02*
D03*
X1296063Y322835D02*
D03*
X1302362D02*
D03*
X1309449D02*
D03*
X1288976D02*
D03*
Y329134D02*
D03*
X1309449D02*
D03*
Y316535D02*
D03*
X1302362D02*
D03*
X1296063D02*
D03*
X1288976D02*
D03*
Y335433D02*
D03*
X1296063D02*
D03*
Y332283D02*
D03*
X1288976D02*
D03*
X1309449Y335433D02*
D03*
X1302362D02*
D03*
X1309449Y332283D02*
D03*
X1302362D02*
D03*
X1309449Y325984D02*
D03*
X1302362D02*
D03*
X1296063Y325984D02*
D03*
X1288976D02*
D03*
X1296063Y319685D02*
D03*
X1288976D02*
D03*
X1309449Y319685D02*
D03*
X1302363D02*
D03*
X1309449Y313386D02*
D03*
X1302363D02*
D03*
X1296063D02*
D03*
X1288976D02*
D03*
X1168976Y313386D02*
D03*
X1176063D02*
D03*
X1182362D02*
D03*
X1189449D02*
D03*
X1182362Y319685D02*
D03*
X1189449D02*
D03*
X1168976Y319685D02*
D03*
X1176063D02*
D03*
X1168976Y325984D02*
D03*
X1176063D02*
D03*
X1182362Y325984D02*
D03*
X1189449D02*
D03*
X1182362Y332283D02*
D03*
X1189449D02*
D03*
X1182362Y335433D02*
D03*
X1189449D02*
D03*
X1168976Y332283D02*
D03*
X1176063D02*
D03*
Y335433D02*
D03*
X1168976D02*
D03*
Y316535D02*
D03*
X1176063D02*
D03*
X1182362D02*
D03*
X1189449D02*
D03*
Y329134D02*
D03*
X1168976D02*
D03*
Y322835D02*
D03*
X1189449D02*
D03*
X1182362D02*
D03*
X1176063D02*
D03*
X1182362Y329134D02*
D03*
X1176063D02*
D03*
X1048976Y313386D02*
D03*
X1056063D02*
D03*
X1062362D02*
D03*
X1069449D02*
D03*
X1062362Y319685D02*
D03*
X1069449D02*
D03*
X1048976Y319685D02*
D03*
X1056063D02*
D03*
X1048976Y325984D02*
D03*
X1056063D02*
D03*
X1062362Y325984D02*
D03*
X1069449D02*
D03*
X1062362Y332283D02*
D03*
X1069449D02*
D03*
X1062362Y335433D02*
D03*
X1069449D02*
D03*
X1048976Y332283D02*
D03*
X1056063D02*
D03*
Y335433D02*
D03*
X1048976D02*
D03*
Y316535D02*
D03*
X1056063D02*
D03*
X1062362D02*
D03*
X1069449D02*
D03*
Y329134D02*
D03*
X1048976D02*
D03*
Y322835D02*
D03*
X1069449D02*
D03*
X1062362D02*
D03*
X1056063D02*
D03*
X1062362Y329134D02*
D03*
X1056063D02*
D03*
X928976Y313386D02*
D03*
X936063D02*
D03*
X942362D02*
D03*
X949449D02*
D03*
X942362Y319685D02*
D03*
X949449D02*
D03*
X928976Y319685D02*
D03*
X936063D02*
D03*
X928976Y325984D02*
D03*
X936063D02*
D03*
X942362Y325984D02*
D03*
X949449D02*
D03*
X942362Y332283D02*
D03*
X949449D02*
D03*
X942362Y335433D02*
D03*
X949449D02*
D03*
X928976Y332283D02*
D03*
X936063D02*
D03*
Y335433D02*
D03*
X928976D02*
D03*
Y316535D02*
D03*
X936063D02*
D03*
X942362D02*
D03*
X949449D02*
D03*
Y329134D02*
D03*
X928976D02*
D03*
Y322835D02*
D03*
X949449D02*
D03*
X942362D02*
D03*
X936063D02*
D03*
X942362Y329134D02*
D03*
X936063D02*
D03*
X808976Y313386D02*
D03*
X816063D02*
D03*
X822363D02*
D03*
X829449D02*
D03*
X822363Y319685D02*
D03*
X829449D02*
D03*
X808976Y319685D02*
D03*
X816063D02*
D03*
X808976Y325984D02*
D03*
X816063D02*
D03*
X822362Y325984D02*
D03*
X829449D02*
D03*
X822362Y332283D02*
D03*
X829449D02*
D03*
X822362Y335433D02*
D03*
X829449D02*
D03*
X808976Y332283D02*
D03*
X816063D02*
D03*
Y335433D02*
D03*
X808976D02*
D03*
Y316535D02*
D03*
X816063D02*
D03*
X822362D02*
D03*
X829449D02*
D03*
Y329134D02*
D03*
X808976D02*
D03*
Y322835D02*
D03*
X829449D02*
D03*
X822362D02*
D03*
X816063D02*
D03*
X822362Y329134D02*
D03*
X816063D02*
D03*
X688976Y297638D02*
D03*
X696063D02*
D03*
X702362D02*
D03*
X709449D02*
D03*
X702362Y303937D02*
D03*
X709449D02*
D03*
X688976Y303937D02*
D03*
X696063D02*
D03*
X688976Y310236D02*
D03*
X696063D02*
D03*
X702362Y310236D02*
D03*
X709449D02*
D03*
X702362Y316535D02*
D03*
X709449D02*
D03*
X702362Y319685D02*
D03*
X709449D02*
D03*
X688976Y316535D02*
D03*
X696063D02*
D03*
Y319685D02*
D03*
X688976D02*
D03*
Y300787D02*
D03*
X696063D02*
D03*
X702362D02*
D03*
X709449D02*
D03*
Y313386D02*
D03*
X688976D02*
D03*
Y307087D02*
D03*
X709449D02*
D03*
X702362D02*
D03*
X696063D02*
D03*
X702362Y313386D02*
D03*
X696063D02*
D03*
X568976Y297638D02*
D03*
X576063D02*
D03*
X582363D02*
D03*
X589449D02*
D03*
X582363Y303937D02*
D03*
X589449D02*
D03*
X568976Y303937D02*
D03*
X576063D02*
D03*
X568976Y310236D02*
D03*
X576063D02*
D03*
X582362Y310236D02*
D03*
X589449D02*
D03*
X582362Y316535D02*
D03*
X589449D02*
D03*
X582362Y319685D02*
D03*
X589449D02*
D03*
X568976Y316535D02*
D03*
X576063D02*
D03*
Y319685D02*
D03*
X568976D02*
D03*
Y300787D02*
D03*
X576063D02*
D03*
X582362D02*
D03*
X589449D02*
D03*
Y313386D02*
D03*
X568976D02*
D03*
Y307087D02*
D03*
X589449D02*
D03*
X582362D02*
D03*
X576063D02*
D03*
X582362Y313386D02*
D03*
X576063D02*
D03*
X448976Y297638D02*
D03*
X456063D02*
D03*
X462362D02*
D03*
X469449D02*
D03*
X462362Y303937D02*
D03*
X469449D02*
D03*
X448976Y303937D02*
D03*
X456063D02*
D03*
X448976Y310236D02*
D03*
X456063D02*
D03*
X462362Y310236D02*
D03*
X469449D02*
D03*
X462362Y316535D02*
D03*
X469449D02*
D03*
X462362Y319685D02*
D03*
X469449D02*
D03*
X448976Y316535D02*
D03*
X456063D02*
D03*
Y319685D02*
D03*
X448976D02*
D03*
Y300787D02*
D03*
X456063D02*
D03*
X462362D02*
D03*
X469449D02*
D03*
Y313386D02*
D03*
X448976D02*
D03*
Y307087D02*
D03*
X469449D02*
D03*
X462362D02*
D03*
X456063D02*
D03*
X462362Y313386D02*
D03*
X456063D02*
D03*
X1193139Y437008D02*
D03*
Y431102D02*
D03*
X1203150Y437008D02*
D03*
X1203139Y431102D02*
D03*
X1273139Y437402D02*
D03*
X1283071D02*
D03*
X1283139Y431102D02*
D03*
X1273139D02*
D03*
X183071Y414961D02*
D03*
X180315Y416535D02*
D03*
X183071Y417717D02*
D03*
X180315Y419291D02*
D03*
X183071Y420472D02*
D03*
X299606Y185039D02*
D03*
X306693D02*
D03*
X309448Y185039D02*
D03*
X302756Y185039D02*
D03*
X327952Y185433D02*
D03*
X308563Y343996D02*
D03*
X304626Y343996D02*
D03*
X302559Y346358D02*
D03*
X306594Y346457D02*
D03*
X304134Y318701D02*
D03*
X301279D02*
D03*
X302658Y315945D02*
D03*
X302756Y312992D02*
D03*
X111417Y339370D02*
D03*
X122736Y331594D02*
D03*
X134153D02*
D03*
X140945Y333661D02*
D03*
X115748Y333563D02*
D03*
X286910Y337205D02*
D03*
X288878Y334941D02*
D03*
X290846Y337303D02*
D03*
X292815Y334941D02*
D03*
X148721Y218898D02*
D03*
X250590Y199803D02*
D03*
X300886Y279724D02*
D03*
X300984Y289469D02*
D03*
X29921Y391063D02*
D03*
X81496Y302756D02*
D03*
X87795Y341732D02*
D03*
X68898Y358853D02*
D03*
X125984Y129134D02*
D03*
X129921Y103150D02*
D03*
X127165Y70472D02*
D03*
X129528Y58661D02*
D03*
X126772Y26378D02*
D03*
X191732Y112598D02*
D03*
X171653Y72047D02*
D03*
X154724Y66929D02*
D03*
X226772Y109843D02*
D03*
Y88189D02*
D03*
X229528Y71653D02*
D03*
X253543Y111417D02*
D03*
X256693Y124016D02*
D03*
X288976Y116929D02*
D03*
X298981Y56102D02*
D03*
Y66102D02*
D03*
X334252Y125197D02*
D03*
Y100000D02*
D03*
X334646Y74410D02*
D03*
X334252Y49213D02*
D03*
X405512Y109449D02*
D03*
X424753Y111760D02*
D03*
X459449Y106299D02*
D03*
X703543Y427559D02*
D03*
X426378Y456693D02*
D03*
X401968Y435433D02*
D03*
X398819Y433858D02*
D03*
X395669D02*
D03*
X397244Y437008D02*
D03*
X398819Y440158D02*
D03*
X395669D02*
D03*
X922441Y54331D02*
D03*
X751575Y402756D02*
D03*
X245669Y440158D02*
D03*
X184646Y440945D02*
D03*
X291339Y353150D02*
D03*
X308268D02*
D03*
X339764Y359842D02*
D03*
X510039Y463583D02*
D03*
X512008Y460630D02*
D03*
X521850Y469488D02*
D03*
Y466535D02*
D03*
Y463484D02*
D03*
X147500Y39200D02*
D03*
D246*
X790775Y228297D02*
D03*
Y230266D02*
D03*
Y232234D02*
D03*
Y234203D02*
D03*
Y236171D02*
D03*
Y238140D02*
D03*
Y240108D02*
D03*
Y242077D02*
D03*
Y244045D02*
D03*
Y246014D02*
D03*
Y247982D02*
D03*
Y249951D02*
D03*
Y251920D02*
D03*
Y253888D02*
D03*
Y255856D02*
D03*
Y257825D02*
D03*
Y259793D02*
D03*
Y261762D02*
D03*
Y263731D02*
D03*
Y265699D02*
D03*
Y267668D02*
D03*
Y269636D02*
D03*
Y271604D02*
D03*
Y273573D02*
D03*
Y275541D02*
D03*
X850224D02*
D03*
Y273573D02*
D03*
Y271604D02*
D03*
Y269636D02*
D03*
Y267668D02*
D03*
Y265699D02*
D03*
Y263731D02*
D03*
Y261762D02*
D03*
Y259793D02*
D03*
Y257825D02*
D03*
Y255856D02*
D03*
Y253888D02*
D03*
Y251920D02*
D03*
Y249951D02*
D03*
Y247982D02*
D03*
Y246014D02*
D03*
Y244045D02*
D03*
Y242077D02*
D03*
Y240108D02*
D03*
Y238140D02*
D03*
Y236171D02*
D03*
Y234203D02*
D03*
Y232234D02*
D03*
Y230266D02*
D03*
Y228297D02*
D03*
X970224D02*
D03*
Y230266D02*
D03*
Y232234D02*
D03*
Y234203D02*
D03*
Y236171D02*
D03*
Y238140D02*
D03*
Y240108D02*
D03*
Y242077D02*
D03*
Y244045D02*
D03*
Y246014D02*
D03*
Y247982D02*
D03*
Y249951D02*
D03*
Y251920D02*
D03*
Y253888D02*
D03*
Y255856D02*
D03*
Y257825D02*
D03*
Y259793D02*
D03*
Y261762D02*
D03*
Y263731D02*
D03*
Y265699D02*
D03*
Y267668D02*
D03*
Y269636D02*
D03*
Y271604D02*
D03*
Y273573D02*
D03*
Y275541D02*
D03*
X910775D02*
D03*
Y273573D02*
D03*
Y271604D02*
D03*
Y269636D02*
D03*
Y267668D02*
D03*
Y265699D02*
D03*
Y263731D02*
D03*
Y261762D02*
D03*
Y259793D02*
D03*
Y257825D02*
D03*
Y255856D02*
D03*
Y253888D02*
D03*
Y251920D02*
D03*
Y249951D02*
D03*
Y247982D02*
D03*
Y246014D02*
D03*
Y244045D02*
D03*
Y242077D02*
D03*
Y240108D02*
D03*
Y238140D02*
D03*
Y236171D02*
D03*
Y234203D02*
D03*
Y232234D02*
D03*
Y230266D02*
D03*
Y228297D02*
D03*
X1030775D02*
D03*
Y230266D02*
D03*
Y232234D02*
D03*
Y234203D02*
D03*
Y236171D02*
D03*
Y238140D02*
D03*
Y240108D02*
D03*
Y242077D02*
D03*
Y244045D02*
D03*
Y246014D02*
D03*
Y247982D02*
D03*
Y249951D02*
D03*
Y251920D02*
D03*
Y253888D02*
D03*
Y255856D02*
D03*
Y257825D02*
D03*
Y259793D02*
D03*
Y261762D02*
D03*
Y263731D02*
D03*
Y265699D02*
D03*
Y267668D02*
D03*
Y269636D02*
D03*
Y271604D02*
D03*
Y273573D02*
D03*
Y275541D02*
D03*
X1090224D02*
D03*
Y273573D02*
D03*
Y271604D02*
D03*
Y269636D02*
D03*
Y267668D02*
D03*
Y265699D02*
D03*
Y263731D02*
D03*
Y261762D02*
D03*
Y259793D02*
D03*
Y257825D02*
D03*
Y255856D02*
D03*
Y253888D02*
D03*
Y251920D02*
D03*
Y249951D02*
D03*
Y247982D02*
D03*
Y246014D02*
D03*
Y244045D02*
D03*
Y242077D02*
D03*
Y240108D02*
D03*
Y238140D02*
D03*
Y236171D02*
D03*
Y234203D02*
D03*
Y232234D02*
D03*
Y230266D02*
D03*
Y228297D02*
D03*
X1210224D02*
D03*
Y230266D02*
D03*
Y232234D02*
D03*
Y234203D02*
D03*
Y236171D02*
D03*
Y238140D02*
D03*
Y240108D02*
D03*
Y242077D02*
D03*
Y244045D02*
D03*
Y246014D02*
D03*
Y247982D02*
D03*
Y249951D02*
D03*
Y251920D02*
D03*
Y253888D02*
D03*
Y255856D02*
D03*
Y257825D02*
D03*
Y259793D02*
D03*
Y261762D02*
D03*
Y263731D02*
D03*
Y265699D02*
D03*
Y267668D02*
D03*
Y269636D02*
D03*
Y271604D02*
D03*
Y273573D02*
D03*
Y275541D02*
D03*
X1150775D02*
D03*
Y273573D02*
D03*
Y271604D02*
D03*
Y269636D02*
D03*
Y267668D02*
D03*
Y265699D02*
D03*
Y263731D02*
D03*
Y261762D02*
D03*
Y259793D02*
D03*
Y257825D02*
D03*
Y255856D02*
D03*
Y253888D02*
D03*
Y251920D02*
D03*
Y249951D02*
D03*
Y247982D02*
D03*
Y246014D02*
D03*
Y244045D02*
D03*
Y242077D02*
D03*
Y240108D02*
D03*
Y238140D02*
D03*
Y236171D02*
D03*
Y234203D02*
D03*
Y232234D02*
D03*
Y230266D02*
D03*
Y228297D02*
D03*
X1270775Y228297D02*
D03*
Y230266D02*
D03*
Y232234D02*
D03*
Y234203D02*
D03*
Y236171D02*
D03*
Y238140D02*
D03*
Y240108D02*
D03*
Y242077D02*
D03*
Y244045D02*
D03*
Y246014D02*
D03*
Y247982D02*
D03*
Y249951D02*
D03*
Y251919D02*
D03*
Y253888D02*
D03*
Y255856D02*
D03*
Y257825D02*
D03*
Y259793D02*
D03*
Y261762D02*
D03*
Y263731D02*
D03*
Y265699D02*
D03*
Y267668D02*
D03*
Y269636D02*
D03*
Y271604D02*
D03*
Y273573D02*
D03*
Y275541D02*
D03*
X1330224D02*
D03*
Y273573D02*
D03*
Y271604D02*
D03*
Y269636D02*
D03*
Y267668D02*
D03*
Y265699D02*
D03*
Y263731D02*
D03*
Y261762D02*
D03*
Y259793D02*
D03*
Y257825D02*
D03*
Y255856D02*
D03*
Y253888D02*
D03*
Y251919D02*
D03*
Y249951D02*
D03*
Y247982D02*
D03*
Y246014D02*
D03*
Y244045D02*
D03*
Y242077D02*
D03*
Y240108D02*
D03*
Y238140D02*
D03*
Y236171D02*
D03*
Y234203D02*
D03*
Y232234D02*
D03*
Y230266D02*
D03*
Y228297D02*
D03*
D247*
X796877Y281644D02*
D03*
X798846D02*
D03*
X800814D02*
D03*
X802783D02*
D03*
X804751D02*
D03*
X806720D02*
D03*
X808688D02*
D03*
X810657D02*
D03*
X812625D02*
D03*
X814594D02*
D03*
X816562D02*
D03*
X818531D02*
D03*
X820499D02*
D03*
X822468D02*
D03*
X824436D02*
D03*
X826405D02*
D03*
X828373D02*
D03*
X830342D02*
D03*
X832310D02*
D03*
X834279D02*
D03*
X836247D02*
D03*
X838216D02*
D03*
X840184D02*
D03*
X842153D02*
D03*
X844121D02*
D03*
Y222195D02*
D03*
X842153D02*
D03*
X840184D02*
D03*
X838216D02*
D03*
X836247D02*
D03*
X834279D02*
D03*
X832310D02*
D03*
X830342D02*
D03*
X828373D02*
D03*
X826405D02*
D03*
X824436D02*
D03*
X822468D02*
D03*
X820499D02*
D03*
X818531D02*
D03*
X816562D02*
D03*
X814594D02*
D03*
X812625D02*
D03*
X810657D02*
D03*
X808688D02*
D03*
X806720D02*
D03*
X804751D02*
D03*
X802783D02*
D03*
X800814D02*
D03*
X798846D02*
D03*
X796877D02*
D03*
X916877D02*
D03*
X918846D02*
D03*
X920814D02*
D03*
X922783D02*
D03*
X924751D02*
D03*
X926720D02*
D03*
X928688D02*
D03*
X930657D02*
D03*
X932625D02*
D03*
X934594D02*
D03*
X936562D02*
D03*
X938531D02*
D03*
X940499D02*
D03*
X942468D02*
D03*
X944436D02*
D03*
X946405D02*
D03*
X948373D02*
D03*
X950342D02*
D03*
X952310D02*
D03*
X954279D02*
D03*
X956247D02*
D03*
X958216D02*
D03*
X960184D02*
D03*
X962153D02*
D03*
X964121D02*
D03*
Y281644D02*
D03*
X962153D02*
D03*
X960184D02*
D03*
X958216D02*
D03*
X956247D02*
D03*
X954279D02*
D03*
X952310D02*
D03*
X950342D02*
D03*
X948373D02*
D03*
X946405D02*
D03*
X944436D02*
D03*
X942468D02*
D03*
X940499D02*
D03*
X938531D02*
D03*
X936562D02*
D03*
X934594D02*
D03*
X932625D02*
D03*
X930657D02*
D03*
X928688D02*
D03*
X926720D02*
D03*
X924751D02*
D03*
X922783D02*
D03*
X920814D02*
D03*
X918846D02*
D03*
X916877D02*
D03*
X1036877D02*
D03*
X1038846D02*
D03*
X1040814D02*
D03*
X1042783D02*
D03*
X1044751D02*
D03*
X1046720D02*
D03*
X1048688D02*
D03*
X1050657D02*
D03*
X1052625D02*
D03*
X1054594D02*
D03*
X1056562D02*
D03*
X1058531D02*
D03*
X1060499D02*
D03*
X1062468D02*
D03*
X1064436D02*
D03*
X1066405D02*
D03*
X1068373D02*
D03*
X1070342D02*
D03*
X1072310D02*
D03*
X1074279D02*
D03*
X1076247D02*
D03*
X1078216D02*
D03*
X1080184D02*
D03*
X1082153D02*
D03*
X1084121D02*
D03*
Y222195D02*
D03*
X1082153D02*
D03*
X1080184D02*
D03*
X1078216D02*
D03*
X1076247D02*
D03*
X1074279D02*
D03*
X1072310D02*
D03*
X1070342D02*
D03*
X1068373D02*
D03*
X1066405D02*
D03*
X1064436D02*
D03*
X1062468D02*
D03*
X1060499D02*
D03*
X1058531D02*
D03*
X1056562D02*
D03*
X1054594D02*
D03*
X1052625D02*
D03*
X1050657D02*
D03*
X1048688D02*
D03*
X1046720D02*
D03*
X1044751D02*
D03*
X1042783D02*
D03*
X1040814D02*
D03*
X1038846D02*
D03*
X1036877D02*
D03*
X1156877D02*
D03*
X1158846D02*
D03*
X1160814D02*
D03*
X1162783D02*
D03*
X1164751D02*
D03*
X1166720D02*
D03*
X1168688D02*
D03*
X1170657D02*
D03*
X1172625D02*
D03*
X1174594D02*
D03*
X1176562D02*
D03*
X1178531D02*
D03*
X1180499D02*
D03*
X1182468D02*
D03*
X1184436D02*
D03*
X1186405D02*
D03*
X1188373D02*
D03*
X1190342D02*
D03*
X1192310D02*
D03*
X1194279D02*
D03*
X1196247D02*
D03*
X1198216D02*
D03*
X1200184D02*
D03*
X1202153D02*
D03*
X1204121D02*
D03*
Y281644D02*
D03*
X1202153D02*
D03*
X1200184D02*
D03*
X1198216D02*
D03*
X1196247D02*
D03*
X1194279D02*
D03*
X1192310D02*
D03*
X1190342D02*
D03*
X1188373D02*
D03*
X1186405D02*
D03*
X1184436D02*
D03*
X1182468D02*
D03*
X1180499D02*
D03*
X1178531D02*
D03*
X1176562D02*
D03*
X1174594D02*
D03*
X1172625D02*
D03*
X1170657D02*
D03*
X1168688D02*
D03*
X1166720D02*
D03*
X1164751D02*
D03*
X1162783D02*
D03*
X1160814D02*
D03*
X1158846D02*
D03*
X1156877D02*
D03*
X1276877Y281644D02*
D03*
X1278846D02*
D03*
X1280814D02*
D03*
X1282783D02*
D03*
X1284751D02*
D03*
X1286720D02*
D03*
X1288688D02*
D03*
X1290657D02*
D03*
X1292625D02*
D03*
X1294594D02*
D03*
X1296562D02*
D03*
X1298531D02*
D03*
X1300499D02*
D03*
X1302468D02*
D03*
X1304436D02*
D03*
X1306405D02*
D03*
X1308373D02*
D03*
X1310342D02*
D03*
X1312310D02*
D03*
X1314279D02*
D03*
X1316247D02*
D03*
X1318216D02*
D03*
X1320184D02*
D03*
X1322153D02*
D03*
X1324121D02*
D03*
Y222195D02*
D03*
X1322153D02*
D03*
X1320184D02*
D03*
X1318216D02*
D03*
X1316247D02*
D03*
X1314279D02*
D03*
X1312310D02*
D03*
X1310342D02*
D03*
X1308373D02*
D03*
X1306405D02*
D03*
X1304436D02*
D03*
X1302468D02*
D03*
X1300499D02*
D03*
X1298531D02*
D03*
X1296562D02*
D03*
X1294594D02*
D03*
X1292625D02*
D03*
X1290657D02*
D03*
X1288688D02*
D03*
X1286720D02*
D03*
X1284751D02*
D03*
X1282783D02*
D03*
X1280814D02*
D03*
X1278846D02*
D03*
X1276877D02*
D03*
D248*
X124722Y188153D02*
D03*
Y199964D02*
D03*
X252935Y184216D02*
D03*
Y196027D02*
D03*
X84529Y198987D02*
D03*
Y187176D02*
D03*
D249*
X117854Y339452D02*
D03*
Y348035D02*
D03*
D250*
X128254Y339535D02*
D03*
Y350952D02*
D03*
D251*
X347524Y356441D02*
D03*
X342524D02*
D03*
X337524D02*
D03*
X332524D02*
D03*
Y386441D02*
D03*
X337524D02*
D03*
X342524D02*
D03*
X347524D02*
D03*
X320870D02*
D03*
X315870D02*
D03*
X310870D02*
D03*
X305870D02*
D03*
Y356441D02*
D03*
X310870D02*
D03*
X315870D02*
D03*
X320870D02*
D03*
X294139Y356398D02*
D03*
X289139D02*
D03*
X284139D02*
D03*
X279139D02*
D03*
Y386398D02*
D03*
X284139D02*
D03*
X289139D02*
D03*
X294139D02*
D03*
M02*
