G04*
G04 #@! TF.GenerationSoftware,Altium Limited,Altium Designer,19.1.9 (167)*
G04*
G04 Layer_Color=16711935*
%FSLAX44Y44*%
%MOMM*%
G71*
G01*
G75*
%ADD10C,0.2000*%
%ADD14C,0.2540*%
%ADD18C,0.1000*%
%ADD21C,0.3810*%
%ADD136C,0.0254*%
%ADD137C,0.3048*%
G36*
X3405028Y137529D02*
X3440028D01*
Y172529D01*
X3405028D01*
Y137529D01*
D02*
G37*
D10*
X1606992Y344424D02*
Y369824D01*
X1657792D01*
Y344424D02*
Y369824D01*
X1606992Y344424D02*
X1657792D01*
X1347470D02*
Y369824D01*
X1398270D01*
Y344424D02*
Y369824D01*
X1347470Y344424D02*
X1398270D01*
D14*
X747201Y1268075D02*
Y1252840D01*
X757358D01*
X764976Y1262997D02*
X770054D01*
X772593Y1260458D01*
Y1252840D01*
X764976D01*
X762436Y1255379D01*
X764976Y1257919D01*
X772593D01*
X777672Y1262997D02*
Y1255379D01*
X780211Y1252840D01*
X787828D01*
Y1250301D01*
X785289Y1247762D01*
X782750D01*
X787828Y1252840D02*
Y1262997D01*
X800524Y1252840D02*
X795446D01*
X792907Y1255379D01*
Y1260458D01*
X795446Y1262997D01*
X800524D01*
X803063Y1260458D01*
Y1257919D01*
X792907D01*
X808142Y1262997D02*
Y1252840D01*
Y1257919D01*
X810681Y1260458D01*
X813220Y1262997D01*
X815759D01*
X757358Y871835D02*
X752280Y869296D01*
X747201Y864218D01*
Y859139D01*
X749741Y856600D01*
X754819D01*
X757358Y859139D01*
Y861679D01*
X754819Y864218D01*
X747201D01*
X757358Y932795D02*
X747201D01*
Y925178D01*
X752280Y927717D01*
X754819D01*
X757358Y925178D01*
Y920099D01*
X754819Y917560D01*
X749741D01*
X747201Y920099D01*
X754819Y978520D02*
Y993755D01*
X747201Y986138D01*
X757358D01*
X747201Y1052176D02*
X749741Y1054715D01*
X754819D01*
X757358Y1052176D01*
Y1049637D01*
X754819Y1047098D01*
X752280D01*
X754819D01*
X757358Y1044559D01*
Y1042020D01*
X754819Y1039480D01*
X749741D01*
X747201Y1042020D01*
X757358Y1100440D02*
X747201D01*
X757358Y1110597D01*
Y1113136D01*
X754819Y1115675D01*
X749741D01*
X747201Y1113136D01*
Y1161400D02*
X752280D01*
X749741D01*
Y1176635D01*
X747201Y1174096D01*
X851319Y1252840D02*
Y1268075D01*
X861476Y1252840D01*
Y1268075D01*
X869093Y1262997D02*
X874172D01*
X876711Y1260458D01*
Y1252840D01*
X869093D01*
X866554Y1255379D01*
X869093Y1257919D01*
X876711D01*
X881789Y1252840D02*
Y1262997D01*
X884329D01*
X886868Y1260458D01*
Y1252840D01*
Y1260458D01*
X889407Y1262997D01*
X891946Y1260458D01*
Y1252840D01*
X904642D02*
X899564D01*
X897024Y1255379D01*
Y1260458D01*
X899564Y1262997D01*
X904642D01*
X907181Y1260458D01*
Y1257919D01*
X897024D01*
X851319Y810875D02*
Y795640D01*
X858937D01*
X861476Y798179D01*
Y800719D01*
X858937Y803258D01*
X851319D01*
X858937D01*
X861476Y805797D01*
Y808336D01*
X858937Y810875D01*
X851319D01*
X869093Y795640D02*
X874172D01*
X876711Y798179D01*
Y803258D01*
X874172Y805797D01*
X869093D01*
X866554Y803258D01*
Y798179D01*
X869093Y795640D01*
X884329Y808336D02*
Y805797D01*
X881789D01*
X886868D01*
X884329D01*
Y798179D01*
X886868Y795640D01*
X897024Y808336D02*
Y805797D01*
X894485D01*
X899564D01*
X897024D01*
Y798179D01*
X899564Y795640D01*
X909720D02*
X914799D01*
X917338Y798179D01*
Y803258D01*
X914799Y805797D01*
X909720D01*
X907181Y803258D01*
Y798179D01*
X909720Y795640D01*
X922416D02*
Y805797D01*
X924955D01*
X927495Y803258D01*
Y795640D01*
Y803258D01*
X930034Y805797D01*
X932573Y803258D01*
Y795640D01*
X960504Y810875D02*
X955425D01*
X952886Y808336D01*
Y798179D01*
X955425Y795640D01*
X960504D01*
X963043Y798179D01*
Y808336D01*
X960504Y810875D01*
X968121Y805797D02*
X973200Y795640D01*
X978278Y805797D01*
X990974Y795640D02*
X985896D01*
X983356Y798179D01*
Y803258D01*
X985896Y805797D01*
X990974D01*
X993513Y803258D01*
Y800719D01*
X983356D01*
X998592Y805797D02*
Y795640D01*
Y800719D01*
X1001131Y803258D01*
X1003670Y805797D01*
X1006209D01*
X1013827Y795640D02*
X1018905D01*
X1016366D01*
Y810875D01*
X1013827D01*
X1029062Y805797D02*
X1034140D01*
X1036679Y803258D01*
Y795640D01*
X1029062D01*
X1026523Y798179D01*
X1029062Y800719D01*
X1036679D01*
X1041758Y805797D02*
Y798179D01*
X1044297Y795640D01*
X1051914D01*
Y793101D01*
X1049375Y790562D01*
X1046836D01*
X1051914Y795640D02*
Y805797D01*
X851319Y841355D02*
Y826120D01*
X858937D01*
X861476Y828660D01*
Y831199D01*
X858937Y833738D01*
X851319D01*
X858937D01*
X861476Y836277D01*
Y838816D01*
X858937Y841355D01*
X851319D01*
X869093Y826120D02*
X874172D01*
X876711Y828660D01*
Y833738D01*
X874172Y836277D01*
X869093D01*
X866554Y833738D01*
Y828660D01*
X869093Y826120D01*
X884329Y838816D02*
Y836277D01*
X881789D01*
X886868D01*
X884329D01*
Y828660D01*
X886868Y826120D01*
X897024Y838816D02*
Y836277D01*
X894485D01*
X899564D01*
X897024D01*
Y828660D01*
X899564Y826120D01*
X909720D02*
X914799D01*
X917338Y828660D01*
Y833738D01*
X914799Y836277D01*
X909720D01*
X907181Y833738D01*
Y828660D01*
X909720Y826120D01*
X922416D02*
Y836277D01*
X924955D01*
X927495Y833738D01*
Y826120D01*
Y833738D01*
X930034Y836277D01*
X932573Y833738D01*
Y826120D01*
X963043Y838816D02*
X960504Y841355D01*
X955425D01*
X952886Y838816D01*
Y836277D01*
X955425Y833738D01*
X960504D01*
X963043Y831199D01*
Y828660D01*
X960504Y826120D01*
X955425D01*
X952886Y828660D01*
X970661Y826120D02*
X975739D01*
X978278Y828660D01*
Y833738D01*
X975739Y836277D01*
X970661D01*
X968121Y833738D01*
Y828660D01*
X970661Y826120D01*
X983356D02*
X988435D01*
X985896D01*
Y841355D01*
X983356D01*
X1006209D02*
Y826120D01*
X998592D01*
X996052Y828660D01*
Y833738D01*
X998592Y836277D01*
X1006209D01*
X1018905Y826120D02*
X1013827D01*
X1011287Y828660D01*
Y833738D01*
X1013827Y836277D01*
X1018905D01*
X1021444Y833738D01*
Y831199D01*
X1011287D01*
X1026523Y836277D02*
Y826120D01*
Y831199D01*
X1029062Y833738D01*
X1031601Y836277D01*
X1034140D01*
X851319Y871835D02*
Y856600D01*
X858937D01*
X861476Y859139D01*
Y861679D01*
X858937Y864218D01*
X851319D01*
X858937D01*
X861476Y866757D01*
Y869296D01*
X858937Y871835D01*
X851319D01*
X869093Y856600D02*
X874172D01*
X876711Y859139D01*
Y864218D01*
X874172Y866757D01*
X869093D01*
X866554Y864218D01*
Y859139D01*
X869093Y856600D01*
X884329Y869296D02*
Y866757D01*
X881789D01*
X886868D01*
X884329D01*
Y859139D01*
X886868Y856600D01*
X897024Y869296D02*
Y866757D01*
X894485D01*
X899564D01*
X897024D01*
Y859139D01*
X899564Y856600D01*
X909720D02*
X914799D01*
X917338Y859139D01*
Y864218D01*
X914799Y866757D01*
X909720D01*
X907181Y864218D01*
Y859139D01*
X909720Y856600D01*
X922416D02*
Y866757D01*
X924955D01*
X927495Y864218D01*
Y856600D01*
Y864218D01*
X930034Y866757D01*
X932573Y864218D01*
Y856600D01*
X952886Y871835D02*
Y856600D01*
X963043D01*
X970661Y866757D02*
X975739D01*
X978278Y864218D01*
Y856600D01*
X970661D01*
X968121Y859139D01*
X970661Y861679D01*
X978278D01*
X983356Y866757D02*
Y859139D01*
X985896Y856600D01*
X993513D01*
Y854061D01*
X990974Y851522D01*
X988435D01*
X993513Y856600D02*
Y866757D01*
X1006209Y856600D02*
X1001131D01*
X998592Y859139D01*
Y864218D01*
X1001131Y866757D01*
X1006209D01*
X1008748Y864218D01*
Y861679D01*
X998592D01*
X1013827Y866757D02*
Y856600D01*
Y861679D01*
X1016366Y864218D01*
X1018905Y866757D01*
X1021444D01*
X851319Y902315D02*
Y887080D01*
X858937D01*
X861476Y889620D01*
Y899776D01*
X858937Y902315D01*
X851319D01*
X866554Y887080D02*
X871633D01*
X869093D01*
Y897237D01*
X866554D01*
X886868Y887080D02*
X881789D01*
X879250Y889620D01*
Y894698D01*
X881789Y897237D01*
X886868D01*
X889407Y894698D01*
Y892159D01*
X879250D01*
X894485Y887080D02*
X899564D01*
X897024D01*
Y902315D01*
X894485D01*
X914799Y887080D02*
X909720D01*
X907181Y889620D01*
Y894698D01*
X909720Y897237D01*
X914799D01*
X917338Y894698D01*
Y892159D01*
X907181D01*
X932573Y897237D02*
X924955D01*
X922416Y894698D01*
Y889620D01*
X924955Y887080D01*
X932573D01*
X940190Y899776D02*
Y897237D01*
X937651D01*
X942730D01*
X940190D01*
Y889620D01*
X942730Y887080D01*
X950347Y897237D02*
Y887080D01*
Y892159D01*
X952886Y894698D01*
X955425Y897237D01*
X957965D01*
X965582Y887080D02*
X970660D01*
X968121D01*
Y897237D01*
X965582D01*
X988435D02*
X980817D01*
X978278Y894698D01*
Y889620D01*
X980817Y887080D01*
X988435D01*
X1008748Y899776D02*
X1011287Y902315D01*
X1016366D01*
X1018905Y899776D01*
Y897237D01*
X1016366Y894698D01*
X1013827D01*
X1016366D01*
X1018905Y892159D01*
Y889620D01*
X1016366Y887080D01*
X1011287D01*
X1008748Y889620D01*
X851319Y932795D02*
Y917560D01*
X861476D01*
X866554Y930256D02*
X869093Y932795D01*
X874172D01*
X876711Y930256D01*
Y920099D01*
X874172Y917560D01*
X869093D01*
X866554Y920099D01*
Y930256D01*
X891946Y932795D02*
X881789D01*
Y925178D01*
X886868Y927717D01*
X889407D01*
X891946Y925178D01*
Y920099D01*
X889407Y917560D01*
X884329D01*
X881789Y920099D01*
X897024Y915021D02*
X907181D01*
X912260Y932795D02*
Y922639D01*
X917338Y917560D01*
X922416Y922639D01*
Y932795D01*
X937651Y930256D02*
X935112Y932795D01*
X930034D01*
X927495Y930256D01*
Y920099D01*
X930034Y917560D01*
X935112D01*
X937651Y920099D01*
X952886Y930256D02*
X950347Y932795D01*
X945269D01*
X942730Y930256D01*
Y920099D01*
X945269Y917560D01*
X950347D01*
X952886Y920099D01*
X851319Y963275D02*
Y948040D01*
X858937D01*
X861476Y950580D01*
Y960736D01*
X858937Y963275D01*
X851319D01*
X866554Y948040D02*
X871633D01*
X869093D01*
Y958197D01*
X866554D01*
X886868Y948040D02*
X881789D01*
X879250Y950580D01*
Y955658D01*
X881789Y958197D01*
X886868D01*
X889407Y955658D01*
Y953119D01*
X879250D01*
X894485Y948040D02*
X899564D01*
X897024D01*
Y963275D01*
X894485D01*
X914799Y948040D02*
X909720D01*
X907181Y950580D01*
Y955658D01*
X909720Y958197D01*
X914799D01*
X917338Y955658D01*
Y953119D01*
X907181D01*
X932573Y958197D02*
X924955D01*
X922416Y955658D01*
Y950580D01*
X924955Y948040D01*
X932573D01*
X940190Y960736D02*
Y958197D01*
X937651D01*
X942730D01*
X940190D01*
Y950580D01*
X942730Y948040D01*
X950347Y958197D02*
Y948040D01*
Y953119D01*
X952886Y955658D01*
X955425Y958197D01*
X957965D01*
X965582Y948040D02*
X970660D01*
X968121D01*
Y958197D01*
X965582D01*
X988435D02*
X980817D01*
X978278Y955658D01*
Y950580D01*
X980817Y948040D01*
X988435D01*
X1018905Y963275D02*
X1008748D01*
Y955658D01*
X1013827Y958197D01*
X1016366D01*
X1018905Y955658D01*
Y950580D01*
X1016366Y948040D01*
X1011287D01*
X1008748Y950580D01*
X851319Y993755D02*
Y978520D01*
X861476D01*
X866554Y991216D02*
X869093Y993755D01*
X874172D01*
X876711Y991216D01*
Y981059D01*
X874172Y978520D01*
X869093D01*
X866554Y981059D01*
Y991216D01*
X889407Y978520D02*
Y993755D01*
X881789Y986138D01*
X891946D01*
X897024Y975981D02*
X907181D01*
X922416Y991216D02*
X919877Y993755D01*
X914799D01*
X912260Y991216D01*
Y988677D01*
X914799Y986138D01*
X919877D01*
X922416Y983599D01*
Y981059D01*
X919877Y978520D01*
X914799D01*
X912260Y981059D01*
X927495Y978520D02*
X932573D01*
X930034D01*
Y988677D01*
X927495D01*
X945269Y973442D02*
X947808D01*
X950347Y975981D01*
Y988677D01*
X942730D01*
X940190Y986138D01*
Y981059D01*
X942730Y978520D01*
X950347D01*
X851319Y1024235D02*
Y1009000D01*
X858937D01*
X861476Y1011540D01*
Y1021696D01*
X858937Y1024235D01*
X851319D01*
X866554Y1009000D02*
X871633D01*
X869093D01*
Y1019157D01*
X866554D01*
X886868Y1009000D02*
X881789D01*
X879250Y1011540D01*
Y1016618D01*
X881789Y1019157D01*
X886868D01*
X889407Y1016618D01*
Y1014079D01*
X879250D01*
X894485Y1009000D02*
X899564D01*
X897024D01*
Y1024235D01*
X894485D01*
X914799Y1009000D02*
X909720D01*
X907181Y1011540D01*
Y1016618D01*
X909720Y1019157D01*
X914799D01*
X917338Y1016618D01*
Y1014079D01*
X907181D01*
X932573Y1019157D02*
X924955D01*
X922416Y1016618D01*
Y1011540D01*
X924955Y1009000D01*
X932573D01*
X940190Y1021696D02*
Y1019157D01*
X937651D01*
X942730D01*
X940190D01*
Y1011540D01*
X942730Y1009000D01*
X950347Y1019157D02*
Y1009000D01*
Y1014079D01*
X952886Y1016618D01*
X955425Y1019157D01*
X957965D01*
X965582Y1009000D02*
X970660D01*
X968121D01*
Y1019157D01*
X965582D01*
X988435D02*
X980817D01*
X978278Y1016618D01*
Y1011540D01*
X980817Y1009000D01*
X988435D01*
X1016366D02*
Y1024235D01*
X1008748Y1016618D01*
X1018905D01*
X851319Y1054715D02*
Y1039480D01*
X861476D01*
X866554Y1052176D02*
X869093Y1054715D01*
X874172D01*
X876711Y1052176D01*
Y1042020D01*
X874172Y1039480D01*
X869093D01*
X866554Y1042020D01*
Y1052176D01*
X881789D02*
X884329Y1054715D01*
X889407D01*
X891946Y1052176D01*
Y1049637D01*
X889407Y1047098D01*
X886868D01*
X889407D01*
X891946Y1044559D01*
Y1042020D01*
X889407Y1039480D01*
X884329D01*
X881789Y1042020D01*
X897024Y1036941D02*
X907181D01*
X922416Y1052176D02*
X919877Y1054715D01*
X914799D01*
X912260Y1052176D01*
Y1049637D01*
X914799Y1047098D01*
X919877D01*
X922416Y1044559D01*
Y1042020D01*
X919877Y1039480D01*
X914799D01*
X912260Y1042020D01*
X927495Y1039480D02*
X932573D01*
X930034D01*
Y1049637D01*
X927495D01*
X945269Y1034402D02*
X947808D01*
X950347Y1036941D01*
Y1049637D01*
X942730D01*
X940190Y1047098D01*
Y1042020D01*
X942730Y1039480D01*
X950347D01*
X851319Y1085195D02*
Y1069960D01*
X858937D01*
X861476Y1072499D01*
Y1082656D01*
X858937Y1085195D01*
X851319D01*
X866554Y1069960D02*
X871633D01*
X869093D01*
Y1080117D01*
X866554D01*
X886868Y1069960D02*
X881789D01*
X879250Y1072499D01*
Y1077578D01*
X881789Y1080117D01*
X886868D01*
X889407Y1077578D01*
Y1075039D01*
X879250D01*
X894485Y1069960D02*
X899564D01*
X897024D01*
Y1085195D01*
X894485D01*
X914799Y1069960D02*
X909720D01*
X907181Y1072499D01*
Y1077578D01*
X909720Y1080117D01*
X914799D01*
X917338Y1077578D01*
Y1075039D01*
X907181D01*
X932573Y1080117D02*
X924955D01*
X922416Y1077578D01*
Y1072499D01*
X924955Y1069960D01*
X932573D01*
X940190Y1082656D02*
Y1080117D01*
X937651D01*
X942730D01*
X940190D01*
Y1072499D01*
X942730Y1069960D01*
X950347Y1080117D02*
Y1069960D01*
Y1075039D01*
X952886Y1077578D01*
X955425Y1080117D01*
X957965D01*
X965582Y1069960D02*
X970660D01*
X968121D01*
Y1080117D01*
X965582D01*
X988435D02*
X980817D01*
X978278Y1077578D01*
Y1072499D01*
X980817Y1069960D01*
X988435D01*
X1018905D02*
X1008748D01*
X1018905Y1080117D01*
Y1082656D01*
X1016366Y1085195D01*
X1011287D01*
X1008748Y1082656D01*
X851319Y1115675D02*
Y1100440D01*
X861476D01*
X866554Y1113136D02*
X869093Y1115675D01*
X874172D01*
X876711Y1113136D01*
Y1102980D01*
X874172Y1100440D01*
X869093D01*
X866554Y1102980D01*
Y1113136D01*
X891946Y1100440D02*
X881789D01*
X891946Y1110597D01*
Y1113136D01*
X889407Y1115675D01*
X884329D01*
X881789Y1113136D01*
X897024Y1097901D02*
X907181D01*
X922416Y1113136D02*
X919877Y1115675D01*
X914799D01*
X912260Y1113136D01*
Y1102980D01*
X914799Y1100440D01*
X919877D01*
X922416Y1102980D01*
Y1108058D01*
X917338D01*
X927495Y1100440D02*
Y1115675D01*
X937651Y1100440D01*
Y1115675D01*
X942730D02*
Y1100440D01*
X950347D01*
X952886Y1102980D01*
Y1113136D01*
X950347Y1115675D01*
X942730D01*
X851319Y1146155D02*
Y1130920D01*
X858937D01*
X861476Y1133459D01*
Y1143616D01*
X858937Y1146155D01*
X851319D01*
X866554Y1130920D02*
X871633D01*
X869093D01*
Y1141077D01*
X866554D01*
X886868Y1130920D02*
X881789D01*
X879250Y1133459D01*
Y1138538D01*
X881789Y1141077D01*
X886868D01*
X889407Y1138538D01*
Y1135999D01*
X879250D01*
X894485Y1130920D02*
X899564D01*
X897024D01*
Y1146155D01*
X894485D01*
X914799Y1130920D02*
X909720D01*
X907181Y1133459D01*
Y1138538D01*
X909720Y1141077D01*
X914799D01*
X917338Y1138538D01*
Y1135999D01*
X907181D01*
X932573Y1141077D02*
X924955D01*
X922416Y1138538D01*
Y1133459D01*
X924955Y1130920D01*
X932573D01*
X940190Y1143616D02*
Y1141077D01*
X937651D01*
X942730D01*
X940190D01*
Y1133459D01*
X942730Y1130920D01*
X950347Y1141077D02*
Y1130920D01*
Y1135999D01*
X952886Y1138538D01*
X955425Y1141077D01*
X957965D01*
X965582Y1130920D02*
X970660D01*
X968121D01*
Y1141077D01*
X965582D01*
X988435D02*
X980817D01*
X978278Y1138538D01*
Y1133459D01*
X980817Y1130920D01*
X988435D01*
X1008748D02*
X1013827D01*
X1011287D01*
Y1146155D01*
X1008748Y1143616D01*
X851319Y1176635D02*
X861476D01*
X856397D01*
Y1161400D01*
X869093D02*
X874172D01*
X876711Y1163940D01*
Y1169018D01*
X874172Y1171557D01*
X869093D01*
X866554Y1169018D01*
Y1163940D01*
X869093Y1161400D01*
X881789Y1156322D02*
Y1171557D01*
X889407D01*
X891946Y1169018D01*
Y1163940D01*
X889407Y1161400D01*
X881789D01*
X912260Y1176635D02*
Y1161400D01*
X922416D01*
X930034Y1171557D02*
X935112D01*
X937651Y1169018D01*
Y1161400D01*
X930034D01*
X927495Y1163940D01*
X930034Y1166479D01*
X937651D01*
X942730Y1171557D02*
Y1163940D01*
X945269Y1161400D01*
X952886D01*
Y1158861D01*
X950347Y1156322D01*
X947808D01*
X952886Y1161400D02*
Y1171557D01*
X965582Y1161400D02*
X960504D01*
X957965Y1163940D01*
Y1169018D01*
X960504Y1171557D01*
X965582D01*
X968121Y1169018D01*
Y1166479D01*
X957965D01*
X973200Y1171557D02*
Y1161400D01*
Y1166479D01*
X975739Y1169018D01*
X978278Y1171557D01*
X980817D01*
X851319Y1207115D02*
X861476D01*
X856397D01*
Y1191880D01*
X869093D02*
X874172D01*
X876711Y1194419D01*
Y1199498D01*
X874172Y1202037D01*
X869093D01*
X866554Y1199498D01*
Y1194419D01*
X869093Y1191880D01*
X881789Y1186802D02*
Y1202037D01*
X889407D01*
X891946Y1199498D01*
Y1194419D01*
X889407Y1191880D01*
X881789D01*
X922416Y1204576D02*
X919877Y1207115D01*
X914799D01*
X912260Y1204576D01*
Y1202037D01*
X914799Y1199498D01*
X919877D01*
X922416Y1196959D01*
Y1194419D01*
X919877Y1191880D01*
X914799D01*
X912260Y1194419D01*
X930034Y1191880D02*
X935112D01*
X937651Y1194419D01*
Y1199498D01*
X935112Y1202037D01*
X930034D01*
X927495Y1199498D01*
Y1194419D01*
X930034Y1191880D01*
X942730D02*
X947808D01*
X945269D01*
Y1207115D01*
X942730D01*
X965582D02*
Y1191880D01*
X957965D01*
X955425Y1194419D01*
Y1199498D01*
X957965Y1202037D01*
X965582D01*
X978278Y1191880D02*
X973200D01*
X970661Y1194419D01*
Y1199498D01*
X973200Y1202037D01*
X978278D01*
X980817Y1199498D01*
Y1196959D01*
X970661D01*
X985896Y1202037D02*
Y1191880D01*
Y1196959D01*
X988435Y1199498D01*
X990974Y1202037D01*
X993513D01*
X851319Y1237595D02*
X861476D01*
X856397D01*
Y1222360D01*
X869093D02*
X874172D01*
X876711Y1224900D01*
Y1229978D01*
X874172Y1232517D01*
X869093D01*
X866554Y1229978D01*
Y1224900D01*
X869093Y1222360D01*
X881789Y1217282D02*
Y1232517D01*
X889407D01*
X891946Y1229978D01*
Y1224900D01*
X889407Y1222360D01*
X881789D01*
X919877Y1237595D02*
X914799D01*
X912260Y1235056D01*
Y1224900D01*
X914799Y1222360D01*
X919877D01*
X922416Y1224900D01*
Y1235056D01*
X919877Y1237595D01*
X927495Y1232517D02*
X932573Y1222360D01*
X937651Y1232517D01*
X950347Y1222360D02*
X945269D01*
X942730Y1224900D01*
Y1229978D01*
X945269Y1232517D01*
X950347D01*
X952886Y1229978D01*
Y1227439D01*
X942730D01*
X957965Y1232517D02*
Y1222360D01*
Y1227439D01*
X960504Y1229978D01*
X963043Y1232517D01*
X965582D01*
X973200Y1222360D02*
X978278D01*
X975739D01*
Y1237595D01*
X973200D01*
X988435Y1232517D02*
X993513D01*
X996052Y1229978D01*
Y1222360D01*
X988435D01*
X985896Y1224900D01*
X988435Y1227439D01*
X996052D01*
X1001131Y1232517D02*
Y1224900D01*
X1003670Y1222360D01*
X1011287D01*
Y1219821D01*
X1008748Y1217282D01*
X1006209D01*
X1011287Y1222360D02*
Y1232517D01*
X1087474Y1252840D02*
Y1268075D01*
X1092553Y1262997D01*
X1097631Y1268075D01*
Y1252840D01*
X1105248Y1262997D02*
X1110327D01*
X1112866Y1260458D01*
Y1252840D01*
X1105248D01*
X1102709Y1255379D01*
X1105248Y1257919D01*
X1112866D01*
X1120484Y1265536D02*
Y1262997D01*
X1117944D01*
X1123023D01*
X1120484D01*
Y1255379D01*
X1123023Y1252840D01*
X1138258D02*
X1133179D01*
X1130640Y1255379D01*
Y1260458D01*
X1133179Y1262997D01*
X1138258D01*
X1140797Y1260458D01*
Y1257919D01*
X1130640D01*
X1145875Y1262997D02*
Y1252840D01*
Y1257919D01*
X1148415Y1260458D01*
X1150954Y1262997D01*
X1153493D01*
X1161111Y1252840D02*
X1166189D01*
X1163650D01*
Y1262997D01*
X1161111D01*
X1176346D02*
X1181424D01*
X1183963Y1260458D01*
Y1252840D01*
X1176346D01*
X1173806Y1255379D01*
X1176346Y1257919D01*
X1183963D01*
X1189041Y1252840D02*
X1194120D01*
X1191581D01*
Y1268075D01*
X1189041D01*
X1097631Y838816D02*
X1095092Y841355D01*
X1090014D01*
X1087474Y838816D01*
Y836277D01*
X1090014Y833738D01*
X1095092D01*
X1097631Y831199D01*
Y828660D01*
X1095092Y826120D01*
X1090014D01*
X1087474Y828660D01*
X1105248Y826120D02*
X1110327D01*
X1112866Y828660D01*
Y833738D01*
X1110327Y836277D01*
X1105248D01*
X1102709Y833738D01*
Y828660D01*
X1105248Y826120D01*
X1117944D02*
X1123023D01*
X1120484D01*
Y841355D01*
X1117944D01*
X1140797D02*
Y826120D01*
X1133179D01*
X1130640Y828660D01*
Y833738D01*
X1133179Y836277D01*
X1140797D01*
X1153493Y826120D02*
X1148415D01*
X1145875Y828660D01*
Y833738D01*
X1148415Y836277D01*
X1153493D01*
X1156032Y833738D01*
Y831199D01*
X1145875D01*
X1161111Y836277D02*
Y826120D01*
Y831199D01*
X1163650Y833738D01*
X1166189Y836277D01*
X1168728D01*
X1191581Y826120D02*
Y841355D01*
X1199198D01*
X1201737Y838816D01*
Y833738D01*
X1199198Y831199D01*
X1191581D01*
X1196659D02*
X1201737Y826120D01*
X1214433D02*
X1209355D01*
X1206816Y828660D01*
Y833738D01*
X1209355Y836277D01*
X1214433D01*
X1216972Y833738D01*
Y831199D01*
X1206816D01*
X1222051Y826120D02*
X1229668D01*
X1232207Y828660D01*
X1229668Y831199D01*
X1224590D01*
X1222051Y833738D01*
X1224590Y836277D01*
X1232207D01*
X1237286Y826120D02*
X1242364D01*
X1239825D01*
Y836277D01*
X1237286D01*
X1249982Y826120D02*
X1257599D01*
X1260138Y828660D01*
X1257599Y831199D01*
X1252521D01*
X1249982Y833738D01*
X1252521Y836277D01*
X1260138D01*
X1267756Y838816D02*
Y836277D01*
X1265217D01*
X1270295D01*
X1267756D01*
Y828660D01*
X1270295Y826120D01*
X1097631Y869296D02*
X1095092Y871835D01*
X1090014D01*
X1087474Y869296D01*
Y859139D01*
X1090014Y856600D01*
X1095092D01*
X1097631Y859139D01*
X1105248Y856600D02*
X1110327D01*
X1112866Y859139D01*
Y864218D01*
X1110327Y866757D01*
X1105248D01*
X1102709Y864218D01*
Y859139D01*
X1105248Y856600D01*
X1117944Y851522D02*
Y866757D01*
X1125562D01*
X1128101Y864218D01*
Y859139D01*
X1125562Y856600D01*
X1117944D01*
X1133179Y851522D02*
Y866757D01*
X1140797D01*
X1143336Y864218D01*
Y859139D01*
X1140797Y856600D01*
X1133179D01*
X1156032D02*
X1150954D01*
X1148415Y859139D01*
Y864218D01*
X1150954Y866757D01*
X1156032D01*
X1158571Y864218D01*
Y861679D01*
X1148415D01*
X1163650Y866757D02*
Y856600D01*
Y861679D01*
X1166189Y864218D01*
X1168728Y866757D01*
X1171267D01*
X1097631Y902315D02*
X1087474D01*
Y894698D01*
X1092553D01*
X1087474D01*
Y887080D01*
X1102709D02*
Y902315D01*
X1110327D01*
X1112866Y899776D01*
Y894698D01*
X1110327Y892159D01*
X1102709D01*
X1107788D02*
X1112866Y887080D01*
X1117944Y894698D02*
X1128101D01*
X1140797Y887080D02*
Y902315D01*
X1133179Y894698D01*
X1143336D01*
X1097631Y930256D02*
X1095092Y932795D01*
X1090014D01*
X1087474Y930256D01*
Y920099D01*
X1090014Y917560D01*
X1095092D01*
X1097631Y920099D01*
X1105248Y917560D02*
X1110327D01*
X1112866Y920099D01*
Y925178D01*
X1110327Y927717D01*
X1105248D01*
X1102709Y925178D01*
Y920099D01*
X1105248Y917560D01*
X1117944Y912482D02*
Y927717D01*
X1125562D01*
X1128101Y925178D01*
Y920099D01*
X1125562Y917560D01*
X1117944D01*
X1133179Y912482D02*
Y927717D01*
X1140797D01*
X1143336Y925178D01*
Y920099D01*
X1140797Y917560D01*
X1133179D01*
X1156032D02*
X1150954D01*
X1148415Y920099D01*
Y925178D01*
X1150954Y927717D01*
X1156032D01*
X1158571Y925178D01*
Y922639D01*
X1148415D01*
X1163650Y927717D02*
Y917560D01*
Y922639D01*
X1166189Y925178D01*
X1168728Y927717D01*
X1171267D01*
X1097631Y963275D02*
X1087474D01*
Y955658D01*
X1092553D01*
X1087474D01*
Y948040D01*
X1102709D02*
Y963275D01*
X1110327D01*
X1112866Y960736D01*
Y955658D01*
X1110327Y953119D01*
X1102709D01*
X1107788D02*
X1112866Y948040D01*
X1117944Y955658D02*
X1128101D01*
X1140797Y948040D02*
Y963275D01*
X1133179Y955658D01*
X1143336D01*
X1097631Y991216D02*
X1095092Y993755D01*
X1090014D01*
X1087474Y991216D01*
Y981059D01*
X1090014Y978520D01*
X1095092D01*
X1097631Y981059D01*
X1105248Y978520D02*
X1110327D01*
X1112866Y981059D01*
Y986138D01*
X1110327Y988677D01*
X1105248D01*
X1102709Y986138D01*
Y981059D01*
X1105248Y978520D01*
X1117944Y973442D02*
Y988677D01*
X1125562D01*
X1128101Y986138D01*
Y981059D01*
X1125562Y978520D01*
X1117944D01*
X1133179Y973442D02*
Y988677D01*
X1140797D01*
X1143336Y986138D01*
Y981059D01*
X1140797Y978520D01*
X1133179D01*
X1156032D02*
X1150954D01*
X1148415Y981059D01*
Y986138D01*
X1150954Y988677D01*
X1156032D01*
X1158571Y986138D01*
Y983599D01*
X1148415D01*
X1163650Y988677D02*
Y978520D01*
Y983599D01*
X1166189Y986138D01*
X1168728Y988677D01*
X1171267D01*
X1097631Y1024235D02*
X1087474D01*
Y1016618D01*
X1092553D01*
X1087474D01*
Y1009000D01*
X1102709D02*
Y1024235D01*
X1110327D01*
X1112866Y1021696D01*
Y1016618D01*
X1110327Y1014079D01*
X1102709D01*
X1107788D02*
X1112866Y1009000D01*
X1117944Y1016618D02*
X1128101D01*
X1140797Y1009000D02*
Y1024235D01*
X1133179Y1016618D01*
X1143336D01*
X1097631Y1052176D02*
X1095092Y1054715D01*
X1090014D01*
X1087474Y1052176D01*
Y1042020D01*
X1090014Y1039480D01*
X1095092D01*
X1097631Y1042020D01*
X1105248Y1039480D02*
X1110327D01*
X1112866Y1042020D01*
Y1047098D01*
X1110327Y1049637D01*
X1105248D01*
X1102709Y1047098D01*
Y1042020D01*
X1105248Y1039480D01*
X1117944Y1034402D02*
Y1049637D01*
X1125562D01*
X1128101Y1047098D01*
Y1042020D01*
X1125562Y1039480D01*
X1117944D01*
X1133179Y1034402D02*
Y1049637D01*
X1140797D01*
X1143336Y1047098D01*
Y1042020D01*
X1140797Y1039480D01*
X1133179D01*
X1156032D02*
X1150954D01*
X1148415Y1042020D01*
Y1047098D01*
X1150954Y1049637D01*
X1156032D01*
X1158571Y1047098D01*
Y1044559D01*
X1148415D01*
X1163650Y1049637D02*
Y1039480D01*
Y1044559D01*
X1166189Y1047098D01*
X1168728Y1049637D01*
X1171267D01*
X1097631Y1085195D02*
X1087474D01*
Y1077578D01*
X1092553D01*
X1087474D01*
Y1069960D01*
X1102709D02*
Y1085195D01*
X1110327D01*
X1112866Y1082656D01*
Y1077578D01*
X1110327Y1075039D01*
X1102709D01*
X1107788D02*
X1112866Y1069960D01*
X1117944Y1077578D02*
X1128101D01*
X1140797Y1069960D02*
Y1085195D01*
X1133179Y1077578D01*
X1143336D01*
X1097631Y1113136D02*
X1095092Y1115675D01*
X1090014D01*
X1087474Y1113136D01*
Y1102980D01*
X1090014Y1100440D01*
X1095092D01*
X1097631Y1102980D01*
X1105248Y1100440D02*
X1110327D01*
X1112866Y1102980D01*
Y1108058D01*
X1110327Y1110597D01*
X1105248D01*
X1102709Y1108058D01*
Y1102980D01*
X1105248Y1100440D01*
X1117944Y1095362D02*
Y1110597D01*
X1125562D01*
X1128101Y1108058D01*
Y1102980D01*
X1125562Y1100440D01*
X1117944D01*
X1133179Y1095362D02*
Y1110597D01*
X1140797D01*
X1143336Y1108058D01*
Y1102980D01*
X1140797Y1100440D01*
X1133179D01*
X1156032D02*
X1150954D01*
X1148415Y1102980D01*
Y1108058D01*
X1150954Y1110597D01*
X1156032D01*
X1158571Y1108058D01*
Y1105519D01*
X1148415D01*
X1163650Y1110597D02*
Y1100440D01*
Y1105519D01*
X1166189Y1108058D01*
X1168728Y1110597D01*
X1171267D01*
X1097631Y1146155D02*
X1087474D01*
Y1138538D01*
X1092553D01*
X1087474D01*
Y1130920D01*
X1102709D02*
Y1146155D01*
X1110327D01*
X1112866Y1143616D01*
Y1138538D01*
X1110327Y1135999D01*
X1102709D01*
X1107788D02*
X1112866Y1130920D01*
X1117944Y1138538D02*
X1128101D01*
X1140797Y1130920D02*
Y1146155D01*
X1133179Y1138538D01*
X1143336D01*
X1097631Y1174096D02*
X1095092Y1176635D01*
X1090014D01*
X1087474Y1174096D01*
Y1163940D01*
X1090014Y1161400D01*
X1095092D01*
X1097631Y1163940D01*
X1105248Y1161400D02*
X1110327D01*
X1112866Y1163940D01*
Y1169018D01*
X1110327Y1171557D01*
X1105248D01*
X1102709Y1169018D01*
Y1163940D01*
X1105248Y1161400D01*
X1117944Y1156322D02*
Y1171557D01*
X1125562D01*
X1128101Y1169018D01*
Y1163940D01*
X1125562Y1161400D01*
X1117944D01*
X1133179Y1156322D02*
Y1171557D01*
X1140797D01*
X1143336Y1169018D01*
Y1163940D01*
X1140797Y1161400D01*
X1133179D01*
X1156032D02*
X1150954D01*
X1148415Y1163940D01*
Y1169018D01*
X1150954Y1171557D01*
X1156032D01*
X1158571Y1169018D01*
Y1166479D01*
X1148415D01*
X1163650Y1171557D02*
Y1161400D01*
Y1166479D01*
X1166189Y1169018D01*
X1168728Y1171557D01*
X1171267D01*
X1097631Y1204576D02*
X1095092Y1207115D01*
X1090014D01*
X1087474Y1204576D01*
Y1202037D01*
X1090014Y1199498D01*
X1095092D01*
X1097631Y1196959D01*
Y1194419D01*
X1095092Y1191880D01*
X1090014D01*
X1087474Y1194419D01*
X1105248Y1191880D02*
X1110327D01*
X1112866Y1194419D01*
Y1199498D01*
X1110327Y1202037D01*
X1105248D01*
X1102709Y1199498D01*
Y1194419D01*
X1105248Y1191880D01*
X1117944D02*
X1123023D01*
X1120484D01*
Y1207115D01*
X1117944D01*
X1140797D02*
Y1191880D01*
X1133179D01*
X1130640Y1194419D01*
Y1199498D01*
X1133179Y1202037D01*
X1140797D01*
X1153493Y1191880D02*
X1148415D01*
X1145875Y1194419D01*
Y1199498D01*
X1148415Y1202037D01*
X1153493D01*
X1156032Y1199498D01*
Y1196959D01*
X1145875D01*
X1161111Y1202037D02*
Y1191880D01*
Y1196959D01*
X1163650Y1199498D01*
X1166189Y1202037D01*
X1168728D01*
X1191581Y1191880D02*
Y1207115D01*
X1199198D01*
X1201737Y1204576D01*
Y1199498D01*
X1199198Y1196959D01*
X1191581D01*
X1196659D02*
X1201737Y1191880D01*
X1214433D02*
X1209355D01*
X1206816Y1194419D01*
Y1199498D01*
X1209355Y1202037D01*
X1214433D01*
X1216972Y1199498D01*
Y1196959D01*
X1206816D01*
X1222051Y1191880D02*
X1229668D01*
X1232207Y1194419D01*
X1229668Y1196959D01*
X1224590D01*
X1222051Y1199498D01*
X1224590Y1202037D01*
X1232207D01*
X1237286Y1191880D02*
X1242364D01*
X1239825D01*
Y1202037D01*
X1237286D01*
X1249982Y1191880D02*
X1257599D01*
X1260138Y1194419D01*
X1257599Y1196959D01*
X1252521D01*
X1249982Y1199498D01*
X1252521Y1202037D01*
X1260138D01*
X1267756Y1204576D02*
Y1202037D01*
X1265217D01*
X1270295D01*
X1267756D01*
Y1194419D01*
X1270295Y1191880D01*
X1305855Y1268075D02*
X1316012D01*
X1310934D01*
Y1252840D01*
X1321090Y1268075D02*
Y1252840D01*
Y1260458D01*
X1323629Y1262997D01*
X1328708D01*
X1331247Y1260458D01*
Y1252840D01*
X1336325D02*
X1341404D01*
X1338864D01*
Y1262997D01*
X1336325D01*
X1359178D02*
X1351560D01*
X1349021Y1260458D01*
Y1255379D01*
X1351560Y1252840D01*
X1359178D01*
X1364256D02*
Y1268075D01*
Y1257919D02*
X1371874Y1262997D01*
X1364256Y1257919D02*
X1371874Y1252840D01*
X1379491D02*
Y1262997D01*
X1387109D01*
X1389648Y1260458D01*
Y1252840D01*
X1402344D02*
X1397266D01*
X1394726Y1255379D01*
Y1260458D01*
X1397266Y1262997D01*
X1402344D01*
X1404883Y1260458D01*
Y1257919D01*
X1394726D01*
X1409961Y1252840D02*
X1417579D01*
X1420118Y1255379D01*
X1417579Y1257919D01*
X1412501D01*
X1409961Y1260458D01*
X1412501Y1262997D01*
X1420118D01*
X1425197Y1252840D02*
X1432814D01*
X1435353Y1255379D01*
X1432814Y1257919D01*
X1427736D01*
X1425197Y1260458D01*
X1427736Y1262997D01*
X1435353D01*
X1305855Y838816D02*
X1308394Y841355D01*
X1313473D01*
X1316012Y838816D01*
Y828660D01*
X1313473Y826120D01*
X1308394D01*
X1305855Y828660D01*
Y838816D01*
X1323629Y823581D02*
X1326169Y826120D01*
Y828660D01*
X1323629D01*
Y826120D01*
X1326169D01*
X1323629Y823581D01*
X1321090Y821042D01*
X1336325Y838816D02*
X1338864Y841355D01*
X1343943D01*
X1346482Y838816D01*
Y828660D01*
X1343943Y826120D01*
X1338864D01*
X1336325Y828660D01*
Y838816D01*
X1351560Y826120D02*
X1356639D01*
X1354099D01*
Y841355D01*
X1351560Y838816D01*
X1364256D02*
X1366795Y841355D01*
X1371874D01*
X1374413Y838816D01*
Y828660D01*
X1371874Y826120D01*
X1366795D01*
X1364256Y828660D01*
Y838816D01*
X1379491Y826120D02*
Y836277D01*
X1382030D01*
X1384570Y833738D01*
Y826120D01*
Y833738D01*
X1387109Y836277D01*
X1389648Y833738D01*
Y826120D01*
X1394726D02*
Y836277D01*
X1397266D01*
X1399805Y833738D01*
Y826120D01*
Y833738D01*
X1402344Y836277D01*
X1404883Y833738D01*
Y826120D01*
X1305855Y869296D02*
X1308394Y871835D01*
X1313473D01*
X1316012Y869296D01*
Y859139D01*
X1313473Y856600D01*
X1308394D01*
X1305855Y859139D01*
Y869296D01*
X1323629Y854061D02*
X1326169Y856600D01*
Y859139D01*
X1323629D01*
Y856600D01*
X1326169D01*
X1323629Y854061D01*
X1321090Y851522D01*
X1336325Y869296D02*
X1338864Y871835D01*
X1343943D01*
X1346482Y869296D01*
Y859139D01*
X1343943Y856600D01*
X1338864D01*
X1336325Y859139D01*
Y869296D01*
X1351560D02*
X1354099Y871835D01*
X1359178D01*
X1361717Y869296D01*
Y866757D01*
X1359178Y864218D01*
X1356639D01*
X1359178D01*
X1361717Y861679D01*
Y859139D01*
X1359178Y856600D01*
X1354099D01*
X1351560Y859139D01*
X1376952Y871835D02*
X1366795D01*
Y864218D01*
X1371874Y866757D01*
X1374413D01*
X1376952Y864218D01*
Y859139D01*
X1374413Y856600D01*
X1369335D01*
X1366795Y859139D01*
X1382030Y856600D02*
Y866757D01*
X1384570D01*
X1387109Y864218D01*
Y856600D01*
Y864218D01*
X1389648Y866757D01*
X1392187Y864218D01*
Y856600D01*
X1397266D02*
Y866757D01*
X1399805D01*
X1402344Y864218D01*
Y856600D01*
Y864218D01*
X1404883Y866757D01*
X1407422Y864218D01*
Y856600D01*
X1305855Y899776D02*
X1308394Y902315D01*
X1313473D01*
X1316012Y899776D01*
Y889620D01*
X1313473Y887080D01*
X1308394D01*
X1305855Y889620D01*
Y899776D01*
X1323629Y884541D02*
X1326169Y887080D01*
Y889620D01*
X1323629D01*
Y887080D01*
X1326169D01*
X1323629Y884541D01*
X1321090Y882002D01*
X1336325Y887080D02*
X1341404D01*
X1338864D01*
Y902315D01*
X1336325Y899776D01*
X1356639Y887080D02*
Y902315D01*
X1349021Y894698D01*
X1359178D01*
X1364256Y899776D02*
X1366795Y902315D01*
X1371874D01*
X1374413Y899776D01*
Y889620D01*
X1371874Y887080D01*
X1366795D01*
X1364256Y889620D01*
Y899776D01*
X1379491Y887080D02*
Y897237D01*
X1382030D01*
X1384570Y894698D01*
Y887080D01*
Y894698D01*
X1387109Y897237D01*
X1389648Y894698D01*
Y887080D01*
X1394726D02*
Y897237D01*
X1397266D01*
X1399805Y894698D01*
Y887080D01*
Y894698D01*
X1402344Y897237D01*
X1404883Y894698D01*
Y887080D01*
X1305855Y930256D02*
X1308394Y932795D01*
X1313473D01*
X1316012Y930256D01*
Y920099D01*
X1313473Y917560D01*
X1308394D01*
X1305855Y920099D01*
Y930256D01*
X1323629Y915021D02*
X1326169Y917560D01*
Y920099D01*
X1323629D01*
Y917560D01*
X1326169D01*
X1323629Y915021D01*
X1321090Y912482D01*
X1336325Y930256D02*
X1338864Y932795D01*
X1343943D01*
X1346482Y930256D01*
Y920099D01*
X1343943Y917560D01*
X1338864D01*
X1336325Y920099D01*
Y930256D01*
X1351560Y917560D02*
X1356639D01*
X1354099D01*
Y932795D01*
X1351560Y930256D01*
X1364256D02*
X1366795Y932795D01*
X1371874D01*
X1374413Y930256D01*
Y927717D01*
X1371874Y925178D01*
X1374413Y922639D01*
Y920099D01*
X1371874Y917560D01*
X1366795D01*
X1364256Y920099D01*
Y922639D01*
X1366795Y925178D01*
X1364256Y927717D01*
Y930256D01*
X1366795Y925178D02*
X1371874D01*
X1379491Y917560D02*
Y927717D01*
X1382030D01*
X1384570Y925178D01*
Y917560D01*
Y925178D01*
X1387109Y927717D01*
X1389648Y925178D01*
Y917560D01*
X1394726D02*
Y927717D01*
X1397266D01*
X1399805Y925178D01*
Y917560D01*
Y925178D01*
X1402344Y927717D01*
X1404883Y925178D01*
Y917560D01*
X1305855Y960736D02*
X1308394Y963275D01*
X1313473D01*
X1316012Y960736D01*
Y950580D01*
X1313473Y948040D01*
X1308394D01*
X1305855Y950580D01*
Y960736D01*
X1323629Y945501D02*
X1326169Y948040D01*
Y950580D01*
X1323629D01*
Y948040D01*
X1326169D01*
X1323629Y945501D01*
X1321090Y942962D01*
X1336325Y960736D02*
X1338864Y963275D01*
X1343943D01*
X1346482Y960736D01*
Y958197D01*
X1343943Y955658D01*
X1341404D01*
X1343943D01*
X1346482Y953119D01*
Y950580D01*
X1343943Y948040D01*
X1338864D01*
X1336325Y950580D01*
X1351560Y960736D02*
X1354099Y963275D01*
X1359178D01*
X1361717Y960736D01*
Y950580D01*
X1359178Y948040D01*
X1354099D01*
X1351560Y950580D01*
Y960736D01*
X1366795D02*
X1369335Y963275D01*
X1374413D01*
X1376952Y960736D01*
Y950580D01*
X1374413Y948040D01*
X1369335D01*
X1366795Y950580D01*
Y960736D01*
X1382030Y948040D02*
Y958197D01*
X1384570D01*
X1387109Y955658D01*
Y948040D01*
Y955658D01*
X1389648Y958197D01*
X1392187Y955658D01*
Y948040D01*
X1397266D02*
Y958197D01*
X1399805D01*
X1402344Y955658D01*
Y948040D01*
Y955658D01*
X1404883Y958197D01*
X1407422Y955658D01*
Y948040D01*
X1305855Y991216D02*
X1308394Y993755D01*
X1313473D01*
X1316012Y991216D01*
Y981059D01*
X1313473Y978520D01*
X1308394D01*
X1305855Y981059D01*
Y991216D01*
X1323629Y975981D02*
X1326169Y978520D01*
Y981059D01*
X1323629D01*
Y978520D01*
X1326169D01*
X1323629Y975981D01*
X1321090Y973442D01*
X1336325Y991216D02*
X1338864Y993755D01*
X1343943D01*
X1346482Y991216D01*
Y981059D01*
X1343943Y978520D01*
X1338864D01*
X1336325Y981059D01*
Y991216D01*
X1351560Y978520D02*
X1356639D01*
X1354099D01*
Y993755D01*
X1351560Y991216D01*
X1364256D02*
X1366795Y993755D01*
X1371874D01*
X1374413Y991216D01*
Y988677D01*
X1371874Y986138D01*
X1374413Y983599D01*
Y981059D01*
X1371874Y978520D01*
X1366795D01*
X1364256Y981059D01*
Y983599D01*
X1366795Y986138D01*
X1364256Y988677D01*
Y991216D01*
X1366795Y986138D02*
X1371874D01*
X1379491Y978520D02*
Y988677D01*
X1382030D01*
X1384570Y986138D01*
Y978520D01*
Y986138D01*
X1387109Y988677D01*
X1389648Y986138D01*
Y978520D01*
X1394726D02*
Y988677D01*
X1397266D01*
X1399805Y986138D01*
Y978520D01*
Y986138D01*
X1402344Y988677D01*
X1404883Y986138D01*
Y978520D01*
X1305855Y1009000D02*
X1310934D01*
X1308394D01*
Y1024235D01*
X1305855Y1021696D01*
X1321090Y1006461D02*
X1323629Y1009000D01*
Y1011540D01*
X1321090D01*
Y1009000D01*
X1323629D01*
X1321090Y1006461D01*
X1318551Y1003922D01*
X1333786Y1021696D02*
X1336325Y1024235D01*
X1341404D01*
X1343943Y1021696D01*
Y1011540D01*
X1341404Y1009000D01*
X1336325D01*
X1333786Y1011540D01*
Y1021696D01*
X1349021D02*
X1351560Y1024235D01*
X1356639D01*
X1359178Y1021696D01*
Y1011540D01*
X1356639Y1009000D01*
X1351560D01*
X1349021Y1011540D01*
Y1021696D01*
X1364256D02*
X1366795Y1024235D01*
X1371874D01*
X1374413Y1021696D01*
Y1011540D01*
X1371874Y1009000D01*
X1366795D01*
X1364256Y1011540D01*
Y1021696D01*
X1379491Y1009000D02*
Y1019157D01*
X1382030D01*
X1384570Y1016618D01*
Y1009000D01*
Y1016618D01*
X1387109Y1019157D01*
X1389648Y1016618D01*
Y1009000D01*
X1394726D02*
Y1019157D01*
X1397266D01*
X1399805Y1016618D01*
Y1009000D01*
Y1016618D01*
X1402344Y1019157D01*
X1404883Y1016618D01*
Y1009000D01*
X1305855Y1052176D02*
X1308394Y1054715D01*
X1313473D01*
X1316012Y1052176D01*
Y1042020D01*
X1313473Y1039480D01*
X1308394D01*
X1305855Y1042020D01*
Y1052176D01*
X1323629Y1036941D02*
X1326169Y1039480D01*
Y1042020D01*
X1323629D01*
Y1039480D01*
X1326169D01*
X1323629Y1036941D01*
X1321090Y1034402D01*
X1336325Y1052176D02*
X1338864Y1054715D01*
X1343943D01*
X1346482Y1052176D01*
Y1042020D01*
X1343943Y1039480D01*
X1338864D01*
X1336325Y1042020D01*
Y1052176D01*
X1351560Y1039480D02*
X1356639D01*
X1354099D01*
Y1054715D01*
X1351560Y1052176D01*
X1364256D02*
X1366795Y1054715D01*
X1371874D01*
X1374413Y1052176D01*
Y1049637D01*
X1371874Y1047098D01*
X1374413Y1044559D01*
Y1042020D01*
X1371874Y1039480D01*
X1366795D01*
X1364256Y1042020D01*
Y1044559D01*
X1366795Y1047098D01*
X1364256Y1049637D01*
Y1052176D01*
X1366795Y1047098D02*
X1371874D01*
X1379491Y1039480D02*
Y1049637D01*
X1382030D01*
X1384570Y1047098D01*
Y1039480D01*
Y1047098D01*
X1387109Y1049637D01*
X1389648Y1047098D01*
Y1039480D01*
X1394726D02*
Y1049637D01*
X1397266D01*
X1399805Y1047098D01*
Y1039480D01*
Y1047098D01*
X1402344Y1049637D01*
X1404883Y1047098D01*
Y1039480D01*
X1305855Y1082656D02*
X1308394Y1085195D01*
X1313473D01*
X1316012Y1082656D01*
Y1072499D01*
X1313473Y1069960D01*
X1308394D01*
X1305855Y1072499D01*
Y1082656D01*
X1323629Y1067421D02*
X1326169Y1069960D01*
Y1072499D01*
X1323629D01*
Y1069960D01*
X1326169D01*
X1323629Y1067421D01*
X1321090Y1064882D01*
X1336325Y1082656D02*
X1338864Y1085195D01*
X1343943D01*
X1346482Y1082656D01*
Y1080117D01*
X1343943Y1077578D01*
X1341404D01*
X1343943D01*
X1346482Y1075039D01*
Y1072499D01*
X1343943Y1069960D01*
X1338864D01*
X1336325Y1072499D01*
X1351560Y1082656D02*
X1354099Y1085195D01*
X1359178D01*
X1361717Y1082656D01*
Y1072499D01*
X1359178Y1069960D01*
X1354099D01*
X1351560Y1072499D01*
Y1082656D01*
X1366795D02*
X1369335Y1085195D01*
X1374413D01*
X1376952Y1082656D01*
Y1072499D01*
X1374413Y1069960D01*
X1369335D01*
X1366795Y1072499D01*
Y1082656D01*
X1382030Y1069960D02*
Y1080117D01*
X1384570D01*
X1387109Y1077578D01*
Y1069960D01*
Y1077578D01*
X1389648Y1080117D01*
X1392187Y1077578D01*
Y1069960D01*
X1397266D02*
Y1080117D01*
X1399805D01*
X1402344Y1077578D01*
Y1069960D01*
Y1077578D01*
X1404883Y1080117D01*
X1407422Y1077578D01*
Y1069960D01*
X1305855Y1113136D02*
X1308394Y1115675D01*
X1313473D01*
X1316012Y1113136D01*
Y1102980D01*
X1313473Y1100440D01*
X1308394D01*
X1305855Y1102980D01*
Y1113136D01*
X1323629Y1097901D02*
X1326169Y1100440D01*
Y1102980D01*
X1323629D01*
Y1100440D01*
X1326169D01*
X1323629Y1097901D01*
X1321090Y1095362D01*
X1336325Y1113136D02*
X1338864Y1115675D01*
X1343943D01*
X1346482Y1113136D01*
Y1102980D01*
X1343943Y1100440D01*
X1338864D01*
X1336325Y1102980D01*
Y1113136D01*
X1351560Y1100440D02*
X1356639D01*
X1354099D01*
Y1115675D01*
X1351560Y1113136D01*
X1364256D02*
X1366795Y1115675D01*
X1371874D01*
X1374413Y1113136D01*
Y1110597D01*
X1371874Y1108058D01*
X1374413Y1105519D01*
Y1102980D01*
X1371874Y1100440D01*
X1366795D01*
X1364256Y1102980D01*
Y1105519D01*
X1366795Y1108058D01*
X1364256Y1110597D01*
Y1113136D01*
X1366795Y1108058D02*
X1371874D01*
X1379491Y1100440D02*
Y1110597D01*
X1382030D01*
X1384570Y1108058D01*
Y1100440D01*
Y1108058D01*
X1387109Y1110597D01*
X1389648Y1108058D01*
Y1100440D01*
X1394726D02*
Y1110597D01*
X1397266D01*
X1399805Y1108058D01*
Y1100440D01*
Y1108058D01*
X1402344Y1110597D01*
X1404883Y1108058D01*
Y1100440D01*
X1305855Y1143616D02*
X1308394Y1146155D01*
X1313473D01*
X1316012Y1143616D01*
Y1133459D01*
X1313473Y1130920D01*
X1308394D01*
X1305855Y1133459D01*
Y1143616D01*
X1323629Y1128381D02*
X1326169Y1130920D01*
Y1133459D01*
X1323629D01*
Y1130920D01*
X1326169D01*
X1323629Y1128381D01*
X1321090Y1125842D01*
X1336325Y1130920D02*
X1341404D01*
X1338864D01*
Y1146155D01*
X1336325Y1143616D01*
X1356639Y1130920D02*
Y1146155D01*
X1349021Y1138538D01*
X1359178D01*
X1364256Y1143616D02*
X1366795Y1146155D01*
X1371874D01*
X1374413Y1143616D01*
Y1133459D01*
X1371874Y1130920D01*
X1366795D01*
X1364256Y1133459D01*
Y1143616D01*
X1379491Y1130920D02*
Y1141077D01*
X1382030D01*
X1384570Y1138538D01*
Y1130920D01*
Y1138538D01*
X1387109Y1141077D01*
X1389648Y1138538D01*
Y1130920D01*
X1394726D02*
Y1141077D01*
X1397266D01*
X1399805Y1138538D01*
Y1130920D01*
Y1138538D01*
X1402344Y1141077D01*
X1404883Y1138538D01*
Y1130920D01*
X1305855Y1174096D02*
X1308394Y1176635D01*
X1313473D01*
X1316012Y1174096D01*
Y1163940D01*
X1313473Y1161400D01*
X1308394D01*
X1305855Y1163940D01*
Y1174096D01*
X1323629Y1158861D02*
X1326169Y1161400D01*
Y1163940D01*
X1323629D01*
Y1161400D01*
X1326169D01*
X1323629Y1158861D01*
X1321090Y1156322D01*
X1336325Y1174096D02*
X1338864Y1176635D01*
X1343943D01*
X1346482Y1174096D01*
Y1163940D01*
X1343943Y1161400D01*
X1338864D01*
X1336325Y1163940D01*
Y1174096D01*
X1351560D02*
X1354099Y1176635D01*
X1359178D01*
X1361717Y1174096D01*
Y1171557D01*
X1359178Y1169018D01*
X1356639D01*
X1359178D01*
X1361717Y1166479D01*
Y1163940D01*
X1359178Y1161400D01*
X1354099D01*
X1351560Y1163940D01*
X1376952Y1176635D02*
X1366795D01*
Y1169018D01*
X1371874Y1171557D01*
X1374413D01*
X1376952Y1169018D01*
Y1163940D01*
X1374413Y1161400D01*
X1369335D01*
X1366795Y1163940D01*
X1382030Y1161400D02*
Y1171557D01*
X1384570D01*
X1387109Y1169018D01*
Y1161400D01*
Y1169018D01*
X1389648Y1171557D01*
X1392187Y1169018D01*
Y1161400D01*
X1397266D02*
Y1171557D01*
X1399805D01*
X1402344Y1169018D01*
Y1161400D01*
Y1169018D01*
X1404883Y1171557D01*
X1407422Y1169018D01*
Y1161400D01*
X1305855Y1204576D02*
X1308394Y1207115D01*
X1313473D01*
X1316012Y1204576D01*
Y1194419D01*
X1313473Y1191880D01*
X1308394D01*
X1305855Y1194419D01*
Y1204576D01*
X1323629Y1189341D02*
X1326169Y1191880D01*
Y1194419D01*
X1323629D01*
Y1191880D01*
X1326169D01*
X1323629Y1189341D01*
X1321090Y1186802D01*
X1336325Y1204576D02*
X1338864Y1207115D01*
X1343943D01*
X1346482Y1204576D01*
Y1194419D01*
X1343943Y1191880D01*
X1338864D01*
X1336325Y1194419D01*
Y1204576D01*
X1351560Y1191880D02*
X1356639D01*
X1354099D01*
Y1207115D01*
X1351560Y1204576D01*
X1364256D02*
X1366795Y1207115D01*
X1371874D01*
X1374413Y1204576D01*
Y1194419D01*
X1371874Y1191880D01*
X1366795D01*
X1364256Y1194419D01*
Y1204576D01*
X1379491Y1191880D02*
Y1202037D01*
X1382030D01*
X1384570Y1199498D01*
Y1191880D01*
Y1199498D01*
X1387109Y1202037D01*
X1389648Y1199498D01*
Y1191880D01*
X1394726D02*
Y1202037D01*
X1397266D01*
X1399805Y1199498D01*
Y1191880D01*
Y1199498D01*
X1402344Y1202037D01*
X1404883Y1199498D01*
Y1191880D01*
X1481070Y1265536D02*
X1478531Y1268075D01*
X1473452D01*
X1470913Y1265536D01*
Y1255379D01*
X1473452Y1252840D01*
X1478531D01*
X1481070Y1255379D01*
X1488687Y1252840D02*
X1493766D01*
X1496305Y1255379D01*
Y1260458D01*
X1493766Y1262997D01*
X1488687D01*
X1486148Y1260458D01*
Y1255379D01*
X1488687Y1252840D01*
X1501383D02*
Y1262997D01*
X1509001D01*
X1511540Y1260458D01*
Y1252840D01*
X1516618D02*
X1524236D01*
X1526775Y1255379D01*
X1524236Y1257919D01*
X1519158D01*
X1516618Y1260458D01*
X1519158Y1262997D01*
X1526775D01*
X1534393Y1265536D02*
Y1262997D01*
X1531853D01*
X1536932D01*
X1534393D01*
Y1255379D01*
X1536932Y1252840D01*
X1547089Y1262997D02*
X1552167D01*
X1554706Y1260458D01*
Y1252840D01*
X1547089D01*
X1544549Y1255379D01*
X1547089Y1257919D01*
X1554706D01*
X1559785Y1252840D02*
Y1262997D01*
X1567402D01*
X1569941Y1260458D01*
Y1252840D01*
X1577559Y1265536D02*
Y1262997D01*
X1575020D01*
X1580098D01*
X1577559D01*
Y1255379D01*
X1580098Y1252840D01*
X1470913Y838816D02*
X1473452Y841355D01*
X1478531D01*
X1481070Y838816D01*
Y836277D01*
X1478531Y833738D01*
X1475992D01*
X1478531D01*
X1481070Y831199D01*
Y828660D01*
X1478531Y826120D01*
X1473452D01*
X1470913Y828660D01*
X1488687Y823581D02*
X1491227Y826120D01*
Y828660D01*
X1488687D01*
Y826120D01*
X1491227D01*
X1488687Y823581D01*
X1486148Y821042D01*
X1511540Y841355D02*
X1501383D01*
Y833738D01*
X1506462Y836277D01*
X1509001D01*
X1511540Y833738D01*
Y828660D01*
X1509001Y826120D01*
X1503923D01*
X1501383Y828660D01*
X1478531Y887080D02*
Y902315D01*
X1470913Y894698D01*
X1481070D01*
X1478531Y948040D02*
Y963275D01*
X1470913Y955658D01*
X1481070D01*
X1488687Y945501D02*
X1491227Y948040D01*
Y950580D01*
X1488687D01*
Y948040D01*
X1491227D01*
X1488687Y945501D01*
X1486148Y942962D01*
X1511540Y963275D02*
X1501383D01*
Y955658D01*
X1506462Y958197D01*
X1509001D01*
X1511540Y955658D01*
Y950580D01*
X1509001Y948040D01*
X1503923D01*
X1501383Y950580D01*
X1478531Y1009000D02*
Y1024235D01*
X1470913Y1016618D01*
X1481070D01*
X1488687Y1006461D02*
X1491227Y1009000D01*
Y1011540D01*
X1488687D01*
Y1009000D01*
X1491227D01*
X1488687Y1006461D01*
X1486148Y1003922D01*
X1511540Y1024235D02*
X1501383D01*
Y1016618D01*
X1506462Y1019157D01*
X1509001D01*
X1511540Y1016618D01*
Y1011540D01*
X1509001Y1009000D01*
X1503923D01*
X1501383Y1011540D01*
X1478531Y1069960D02*
Y1085195D01*
X1470913Y1077578D01*
X1481070D01*
X1488687Y1067421D02*
X1491227Y1069960D01*
Y1072499D01*
X1488687D01*
Y1069960D01*
X1491227D01*
X1488687Y1067421D01*
X1486148Y1064882D01*
X1511540Y1085195D02*
X1501383D01*
Y1077578D01*
X1506462Y1080117D01*
X1509001D01*
X1511540Y1077578D01*
Y1072499D01*
X1509001Y1069960D01*
X1503923D01*
X1501383Y1072499D01*
X1478531Y1130920D02*
Y1146155D01*
X1470913Y1138538D01*
X1481070D01*
X1470913Y1204576D02*
X1473452Y1207115D01*
X1478531D01*
X1481070Y1204576D01*
Y1202037D01*
X1478531Y1199498D01*
X1475992D01*
X1478531D01*
X1481070Y1196959D01*
Y1194419D01*
X1478531Y1191880D01*
X1473452D01*
X1470913Y1194419D01*
X1488687Y1189341D02*
X1491227Y1191880D01*
Y1194419D01*
X1488687D01*
Y1191880D01*
X1491227D01*
X1488687Y1189341D01*
X1486148Y1186802D01*
X1511540Y1207115D02*
X1501383D01*
Y1199498D01*
X1506462Y1202037D01*
X1509001D01*
X1511540Y1199498D01*
Y1194419D01*
X1509001Y1191880D01*
X1503923D01*
X1501383Y1194419D01*
X1615658Y1268075D02*
Y1252840D01*
X1623275D01*
X1625815Y1255379D01*
Y1257919D01*
X1623275Y1260458D01*
X1615658D01*
X1623275D01*
X1625815Y1262997D01*
Y1265536D01*
X1623275Y1268075D01*
X1615658D01*
X1633432Y1252840D02*
X1638510D01*
X1641050Y1255379D01*
Y1260458D01*
X1638510Y1262997D01*
X1633432D01*
X1630893Y1260458D01*
Y1255379D01*
X1633432Y1252840D01*
X1648667Y1262997D02*
X1653746D01*
X1656285Y1260458D01*
Y1252840D01*
X1648667D01*
X1646128Y1255379D01*
X1648667Y1257919D01*
X1656285D01*
X1661363Y1262997D02*
Y1252840D01*
Y1257919D01*
X1663902Y1260458D01*
X1666441Y1262997D01*
X1668981D01*
X1686755Y1268075D02*
Y1252840D01*
X1679137D01*
X1676598Y1255379D01*
Y1260458D01*
X1679137Y1262997D01*
X1686755D01*
X1707068Y1268075D02*
Y1252840D01*
X1717225D01*
X1724843Y1262997D02*
X1729921D01*
X1732460Y1260458D01*
Y1252840D01*
X1724843D01*
X1722303Y1255379D01*
X1724843Y1257919D01*
X1732460D01*
X1737538Y1262997D02*
Y1255379D01*
X1740078Y1252840D01*
X1747695D01*
Y1250301D01*
X1745156Y1247762D01*
X1742617D01*
X1747695Y1252840D02*
Y1262997D01*
X1760391Y1252840D02*
X1755313D01*
X1752774Y1255379D01*
Y1260458D01*
X1755313Y1262997D01*
X1760391D01*
X1762930Y1260458D01*
Y1257919D01*
X1752774D01*
X1768009Y1262997D02*
Y1252840D01*
Y1257919D01*
X1770548Y1260458D01*
X1773087Y1262997D01*
X1775626D01*
X1808636Y1265536D02*
X1806096Y1268075D01*
X1801018D01*
X1798479Y1265536D01*
Y1262997D01*
X1801018Y1260458D01*
X1806096D01*
X1808636Y1257919D01*
Y1255379D01*
X1806096Y1252840D01*
X1801018D01*
X1798479Y1255379D01*
X1816253Y1265536D02*
Y1262997D01*
X1813714D01*
X1818792D01*
X1816253D01*
Y1255379D01*
X1818792Y1252840D01*
X1828949Y1262997D02*
X1834027D01*
X1836566Y1260458D01*
Y1252840D01*
X1828949D01*
X1826410Y1255379D01*
X1828949Y1257919D01*
X1836566D01*
X1851801Y1262997D02*
X1844184D01*
X1841645Y1260458D01*
Y1255379D01*
X1844184Y1252840D01*
X1851801D01*
X1856880D02*
Y1268075D01*
Y1257919D02*
X1864497Y1262997D01*
X1856880Y1257919D02*
X1864497Y1252840D01*
X747201Y780395D02*
X757358D01*
X752280D01*
Y765160D01*
X764976D02*
X770054D01*
X772593Y767700D01*
Y772778D01*
X770054Y775317D01*
X764976D01*
X762436Y772778D01*
Y767700D01*
X764976Y765160D01*
X780211Y777856D02*
Y775317D01*
X777672D01*
X782750D01*
X780211D01*
Y767700D01*
X782750Y765160D01*
X792907Y775317D02*
X797985D01*
X800524Y772778D01*
Y765160D01*
X792907D01*
X790367Y767700D01*
X792907Y770239D01*
X800524D01*
X805602Y765160D02*
X810681D01*
X808142D01*
Y780395D01*
X805602D01*
X833533D02*
Y765160D01*
X841151D01*
X843690Y767700D01*
Y770239D01*
Y772778D01*
X841151Y775317D01*
X833533D01*
X851308Y765160D02*
X856386D01*
X858925Y767700D01*
Y772778D01*
X856386Y775317D01*
X851308D01*
X848768Y772778D01*
Y767700D01*
X851308Y765160D01*
X866543Y775317D02*
X871621D01*
X874160Y772778D01*
Y765160D01*
X866543D01*
X864004Y767700D01*
X866543Y770239D01*
X874160D01*
X879239Y775317D02*
Y765160D01*
Y770239D01*
X881778Y772778D01*
X884317Y775317D01*
X886856D01*
X904630Y780395D02*
Y765160D01*
X897013D01*
X894474Y767700D01*
Y772778D01*
X897013Y775317D01*
X904630D01*
X927483Y777856D02*
Y775317D01*
X924944D01*
X930022D01*
X927483D01*
Y767700D01*
X930022Y765160D01*
X937640Y780395D02*
Y765160D01*
Y772778D01*
X940179Y775317D01*
X945257D01*
X947796Y772778D01*
Y765160D01*
X952875D02*
X957953D01*
X955414D01*
Y775317D01*
X952875D01*
X975727D02*
X968110D01*
X965571Y772778D01*
Y767700D01*
X968110Y765160D01*
X975727D01*
X980806D02*
Y780395D01*
Y770239D02*
X988423Y775317D01*
X980806Y770239D02*
X988423Y765160D01*
X996041D02*
Y775317D01*
X1003658D01*
X1006198Y772778D01*
Y765160D01*
X1018893D02*
X1013815D01*
X1011276Y767700D01*
Y772778D01*
X1013815Y775317D01*
X1018893D01*
X1021433Y772778D01*
Y770239D01*
X1011276D01*
X1026511Y765160D02*
X1034128D01*
X1036668Y767700D01*
X1034128Y770239D01*
X1029050D01*
X1026511Y772778D01*
X1029050Y775317D01*
X1036668D01*
X1041746Y765160D02*
X1049364D01*
X1051903Y767700D01*
X1049364Y770239D01*
X1044285D01*
X1041746Y772778D01*
X1044285Y775317D01*
X1051903D01*
X1056981D02*
X1059520D01*
Y772778D01*
X1056981D01*
Y775317D01*
Y767700D02*
X1059520D01*
Y765160D01*
X1056981D01*
Y767700D01*
X1316012Y765160D02*
X1305855D01*
X1316012Y775317D01*
Y777856D01*
X1313473Y780395D01*
X1308394D01*
X1305855Y777856D01*
X1323629Y762621D02*
X1326169Y765160D01*
Y767700D01*
X1323629D01*
Y765160D01*
X1326169D01*
X1323629Y762621D01*
X1321090Y760082D01*
X1336325Y777856D02*
X1338864Y780395D01*
X1343943D01*
X1346482Y777856D01*
Y767700D01*
X1343943Y765160D01*
X1338864D01*
X1336325Y767700D01*
Y777856D01*
X1359178Y765160D02*
Y780395D01*
X1351560Y772778D01*
X1361717D01*
X1366795Y765160D02*
X1371874D01*
X1369335D01*
Y780395D01*
X1366795Y777856D01*
X1379491Y765160D02*
Y775317D01*
X1382030D01*
X1384570Y772778D01*
Y765160D01*
Y772778D01*
X1387109Y775317D01*
X1389648Y772778D01*
Y765160D01*
X1394726D02*
Y775317D01*
X1397266D01*
X1399805Y772778D01*
Y765160D01*
Y772778D01*
X1402344Y775317D01*
X1404883Y772778D01*
Y765160D01*
D18*
X3398528Y123529D02*
X3461529D01*
Y186529D01*
X3398528D02*
X3461529D01*
X3398528Y123529D02*
Y186529D01*
X3452860Y175364D02*
X3454026Y176530D01*
Y178863D01*
X3452860Y180029D01*
X3451694D01*
X3450527Y178863D01*
Y176530D01*
X3449361Y175364D01*
X3448195D01*
X3447029Y176530D01*
Y178863D01*
X3448195Y180029D01*
X3447029Y169532D02*
Y171865D01*
X3448195Y173031D01*
X3450527D01*
X3451694Y171865D01*
Y169532D01*
X3450527Y168366D01*
X3449361D01*
Y173031D01*
X3451694Y166033D02*
X3447029D01*
X3449361D01*
X3450527Y164867D01*
X3451694Y163701D01*
Y162535D01*
X3447029Y159036D02*
Y156703D01*
Y157869D01*
X3451694D01*
Y159036D01*
Y152038D02*
Y149705D01*
X3450527Y148539D01*
X3447029D01*
Y152038D01*
X3448195Y153204D01*
X3449361Y152038D01*
Y148539D01*
X3447029Y146207D02*
Y143874D01*
Y145040D01*
X3454026D01*
Y146207D01*
X3447029Y140375D02*
X3454026D01*
X3447029Y135710D01*
X3454026D01*
X3451694Y133377D02*
X3447029D01*
X3449361D01*
X3450527Y132211D01*
X3451694Y131045D01*
Y129878D01*
X3500000Y1280000D02*
X3500000Y0D01*
X0D02*
Y1280000D01*
X3500000D01*
X0Y0D02*
X3500000D01*
D21*
X729421Y1245220D02*
X1882277D01*
X729421Y1275700D02*
X1882277D01*
X729421Y788020D02*
Y1275700D01*
Y788020D02*
X833539D01*
X729421Y818500D02*
X833539D01*
X729421Y848980D02*
X833539D01*
X729421Y879460D02*
X833539D01*
X729421Y909940D02*
X833539D01*
X729421Y940420D02*
X833539D01*
X729421Y970900D02*
X833539D01*
X729421Y1001380D02*
X833539D01*
X729421Y1031860D02*
X833539D01*
X729421Y1062340D02*
X833539D01*
X729421Y1092820D02*
X833539D01*
X729421Y1123300D02*
X833539D01*
X729421Y1153780D02*
X833539D01*
X729421Y1184260D02*
X833539D01*
X729421Y1214740D02*
X833539D01*
Y788020D02*
Y1275700D01*
Y788020D02*
X1069694D01*
X833539Y818500D02*
X1069694D01*
X833539Y848980D02*
X1069694D01*
X833539Y879460D02*
X1069694D01*
X833539Y909940D02*
X1069694D01*
X833539Y940420D02*
X1069694D01*
X833539Y970900D02*
X1069694D01*
X833539Y1001380D02*
X1069694D01*
X833539Y1031860D02*
X1069694D01*
X833539Y1062340D02*
X1069694D01*
X833539Y1092820D02*
X1069694D01*
X833539Y1123300D02*
X1069694D01*
X833539Y1153780D02*
X1069694D01*
X833539Y1184260D02*
X1069694D01*
X833539Y1214740D02*
X1069694D01*
Y788020D02*
Y1275700D01*
Y788020D02*
X1288075D01*
X1069694Y818500D02*
X1288075D01*
X1069694Y848980D02*
X1288075D01*
X1069694Y879460D02*
X1288075D01*
X1069694Y909940D02*
X1288075D01*
X1069694Y940420D02*
X1288075D01*
X1069694Y970900D02*
X1288075D01*
X1069694Y1001380D02*
X1288075D01*
X1069694Y1031860D02*
X1288075D01*
X1069694Y1062340D02*
X1288075D01*
X1069694Y1092820D02*
X1288075D01*
X1069694Y1123300D02*
X1288075D01*
X1069694Y1153780D02*
X1288075D01*
X1069694Y1184260D02*
X1288075D01*
X1069694Y1214740D02*
X1288075D01*
Y788020D02*
Y1275700D01*
Y788020D02*
X1453133D01*
X1288075Y818500D02*
X1453133D01*
X1288075Y848980D02*
X1453133D01*
X1288075Y879460D02*
X1453133D01*
X1288075Y909940D02*
X1453133D01*
X1288075Y940420D02*
X1453133D01*
X1288075Y970900D02*
X1453133D01*
X1288075Y1001380D02*
X1453133D01*
X1288075Y1031860D02*
X1453133D01*
X1288075Y1062340D02*
X1453133D01*
X1288075Y1092820D02*
X1453133D01*
X1288075Y1123300D02*
X1453133D01*
X1288075Y1153780D02*
X1453133D01*
X1288075Y1184260D02*
X1453133D01*
X1288075Y1214740D02*
X1453133D01*
Y788020D02*
Y1275700D01*
Y788020D02*
X1597878D01*
X1453133Y818500D02*
X1597878D01*
X1453133Y848980D02*
X1597878D01*
X1453133Y879460D02*
X1597878D01*
X1453133Y909940D02*
X1597878D01*
X1453133Y940420D02*
X1597878D01*
X1453133Y970900D02*
X1597878D01*
X1453133Y1001380D02*
X1597878D01*
X1453133Y1031860D02*
X1597878D01*
X1453133Y1062340D02*
X1597878D01*
X1453133Y1092820D02*
X1597878D01*
X1453133Y1123300D02*
X1597878D01*
X1453133Y1153780D02*
X1597878D01*
X1453133Y1184260D02*
X1597878D01*
X1453133Y1214740D02*
X1597878D01*
Y788020D02*
Y1275700D01*
Y788020D02*
X1882277D01*
X1597878Y818500D02*
X1882277D01*
X1597878Y848980D02*
X1882277D01*
X1597878Y879460D02*
X1882277D01*
X1597878Y909940D02*
X1882277D01*
X1597878Y940420D02*
X1882277D01*
X1597878Y970900D02*
X1882277D01*
X1597878Y1001380D02*
X1882277D01*
X1597878Y1031860D02*
X1882277D01*
X1597878Y1062340D02*
X1882277D01*
X1597878Y1092820D02*
X1882277D01*
X1597878Y1123300D02*
X1882277D01*
X1597878Y1153780D02*
X1882277D01*
X1597878Y1184260D02*
X1882277D01*
X1597878Y1214740D02*
X1882277D01*
Y788020D02*
Y1275700D01*
X729421Y307223D02*
X1939920Y307223D01*
Y749920D01*
X729421Y749920D02*
X1939920Y749920D01*
X729421Y307223D02*
Y749920D01*
D136*
X1867037Y788020D02*
X1882277Y803260D01*
X1851797Y788020D02*
X1882277Y818500D01*
X1836557Y788020D02*
X1867037Y818500D01*
X1821317Y788020D02*
X1851797Y818500D01*
X1806077Y788020D02*
X1836557Y818500D01*
X1790837Y788020D02*
X1821317Y818500D01*
X1775597Y788020D02*
X1806077Y818500D01*
X1760357Y788020D02*
X1790837Y818500D01*
X1745117Y788020D02*
X1775597Y818500D01*
X1729877Y788020D02*
X1760357Y818500D01*
X1714637Y788020D02*
X1745117Y818500D01*
X1699397Y788020D02*
X1729877Y818500D01*
X1684157Y788020D02*
X1714637Y818500D01*
X1668917Y788020D02*
X1699397Y818500D01*
X1653677Y788020D02*
X1684157Y818500D01*
X1638437Y788020D02*
X1668917Y818500D01*
X1623197Y788020D02*
X1653677Y818500D01*
X1607957Y788020D02*
X1638437Y818500D01*
X1597878Y793181D02*
X1623197Y818500D01*
X1597878Y808421D02*
X1607957Y818500D01*
X1867037D02*
X1882277Y833740D01*
X1851797Y818500D02*
X1882277Y848980D01*
X1836557Y818500D02*
X1867037Y848980D01*
X1821317Y818500D02*
X1851797Y848980D01*
X1806077Y818500D02*
X1836557Y848980D01*
X1790837Y818500D02*
X1821317Y848980D01*
X1775597Y818500D02*
X1806077Y848980D01*
X1760357Y818500D02*
X1790837Y848980D01*
X1745117Y818500D02*
X1775597Y848980D01*
X1729877Y818500D02*
X1760357Y848980D01*
X1714637Y818500D02*
X1745117Y848980D01*
X1699397Y818500D02*
X1729877Y848980D01*
X1684157Y818500D02*
X1714637Y848980D01*
X1668917Y818500D02*
X1699397Y848980D01*
X1653677Y818500D02*
X1684157Y848980D01*
X1638437Y818500D02*
X1668917Y848980D01*
X1623197Y818500D02*
X1653677Y848980D01*
X1607957Y818500D02*
X1638437Y848980D01*
X1597878Y823661D02*
X1623197Y848980D01*
X1597878Y838901D02*
X1607957Y848980D01*
X1867037D02*
X1882277Y864220D01*
X1851797Y848980D02*
X1882277Y879460D01*
X1836557Y848980D02*
X1867037Y879460D01*
X1821317Y848980D02*
X1851797Y879460D01*
X1806077Y848980D02*
X1836557Y879460D01*
X1790837Y848980D02*
X1821317Y879460D01*
X1775597Y848980D02*
X1806077Y879460D01*
X1760357Y848980D02*
X1790837Y879460D01*
X1745117Y848980D02*
X1775597Y879460D01*
X1729877Y848980D02*
X1760357Y879460D01*
X1714637Y848980D02*
X1745117Y879460D01*
X1699397Y848980D02*
X1729877Y879460D01*
X1684157Y848980D02*
X1714637Y879460D01*
X1668917Y848980D02*
X1699397Y879460D01*
X1653677Y848980D02*
X1684157Y879460D01*
X1638437Y848980D02*
X1668917Y879460D01*
X1623197Y848980D02*
X1653677Y879460D01*
X1607957Y848980D02*
X1638437Y879460D01*
X1597878Y854141D02*
X1623197Y879460D01*
X1597878Y869381D02*
X1607957Y879460D01*
X1867037D02*
X1882277Y894700D01*
X1851797Y879460D02*
X1882277Y909940D01*
X1836557Y879460D02*
X1867037Y909940D01*
X1821317Y879460D02*
X1851797Y909940D01*
X1806077Y879460D02*
X1836557Y909940D01*
X1790837Y879460D02*
X1821317Y909940D01*
X1775597Y879460D02*
X1806077Y909940D01*
X1760357Y879460D02*
X1790837Y909940D01*
X1745117Y879460D02*
X1775597Y909940D01*
X1729877Y879460D02*
X1760357Y909940D01*
X1714637Y879460D02*
X1745117Y909940D01*
X1699397Y879460D02*
X1729877Y909940D01*
X1684157Y879460D02*
X1714637Y909940D01*
X1668917Y879460D02*
X1699397Y909940D01*
X1653677Y879460D02*
X1684157Y909940D01*
X1638437Y879460D02*
X1668917Y909940D01*
X1623197Y879460D02*
X1653677Y909940D01*
X1607957Y879460D02*
X1638437Y909940D01*
X1597878Y884621D02*
X1623197Y909940D01*
X1597878Y899861D02*
X1607957Y909940D01*
X1867037D02*
X1882277Y925180D01*
X1851797Y909940D02*
X1882277Y940420D01*
X1836557Y909940D02*
X1867037Y940420D01*
X1821317Y909940D02*
X1851797Y940420D01*
X1806077Y909940D02*
X1836557Y940420D01*
X1790837Y909940D02*
X1821317Y940420D01*
X1775597Y909940D02*
X1806077Y940420D01*
X1760357Y909940D02*
X1790837Y940420D01*
X1745117Y909940D02*
X1775597Y940420D01*
X1729877Y909940D02*
X1760357Y940420D01*
X1714637Y909940D02*
X1745117Y940420D01*
X1699397Y909940D02*
X1729877Y940420D01*
X1684157Y909940D02*
X1714637Y940420D01*
X1668917Y909940D02*
X1699397Y940420D01*
X1653677Y909940D02*
X1684157Y940420D01*
X1638437Y909940D02*
X1668917Y940420D01*
X1623197Y909940D02*
X1653677Y940420D01*
X1607957Y909940D02*
X1638437Y940420D01*
X1597878Y915101D02*
X1623197Y940420D01*
X1597878Y930341D02*
X1607957Y940420D01*
X1867037D02*
X1882277Y955660D01*
X1851797Y940420D02*
X1882277Y970900D01*
X1836557Y940420D02*
X1867037Y970900D01*
X1821317Y940420D02*
X1851797Y970900D01*
X1806077Y940420D02*
X1836557Y970900D01*
X1790837Y940420D02*
X1821317Y970900D01*
X1775597Y940420D02*
X1806077Y970900D01*
X1760357Y940420D02*
X1790837Y970900D01*
X1745117Y940420D02*
X1775597Y970900D01*
X1729877Y940420D02*
X1760357Y970900D01*
X1714637Y940420D02*
X1745117Y970900D01*
X1699397Y940420D02*
X1729877Y970900D01*
X1684157Y940420D02*
X1714637Y970900D01*
X1668917Y940420D02*
X1699397Y970900D01*
X1653677Y940420D02*
X1684157Y970900D01*
X1638437Y940420D02*
X1668917Y970900D01*
X1623197Y940420D02*
X1653677Y970900D01*
X1607957Y940420D02*
X1638437Y970900D01*
X1597878Y945581D02*
X1623197Y970900D01*
X1597878Y960821D02*
X1607957Y970900D01*
X1867037D02*
X1882277Y986140D01*
X1851797Y970900D02*
X1882277Y1001380D01*
X1836557Y970900D02*
X1867037Y1001380D01*
X1821317Y970900D02*
X1851797Y1001380D01*
X1806077Y970900D02*
X1836557Y1001380D01*
X1790837Y970900D02*
X1821317Y1001380D01*
X1775597Y970900D02*
X1806077Y1001380D01*
X1760357Y970900D02*
X1790837Y1001380D01*
X1745117Y970900D02*
X1775597Y1001380D01*
X1729877Y970900D02*
X1760357Y1001380D01*
X1714637Y970900D02*
X1745117Y1001380D01*
X1699397Y970900D02*
X1729877Y1001380D01*
X1684157Y970900D02*
X1714637Y1001380D01*
X1668917Y970900D02*
X1699397Y1001380D01*
X1653677Y970900D02*
X1684157Y1001380D01*
X1638437Y970900D02*
X1668917Y1001380D01*
X1623197Y970900D02*
X1653677Y1001380D01*
X1607957Y970900D02*
X1638437Y1001380D01*
X1597878Y976061D02*
X1623197Y1001380D01*
X1597878Y991301D02*
X1607957Y1001380D01*
X1867037D02*
X1882277Y1016620D01*
X1851797Y1001380D02*
X1882277Y1031860D01*
X1836557Y1001380D02*
X1867037Y1031860D01*
X1821317Y1001380D02*
X1851797Y1031860D01*
X1806077Y1001380D02*
X1836557Y1031860D01*
X1790837Y1001380D02*
X1821317Y1031860D01*
X1775597Y1001380D02*
X1806077Y1031860D01*
X1760357Y1001380D02*
X1790837Y1031860D01*
X1745117Y1001380D02*
X1775597Y1031860D01*
X1729877Y1001380D02*
X1760357Y1031860D01*
X1714637Y1001380D02*
X1745117Y1031860D01*
X1699397Y1001380D02*
X1729877Y1031860D01*
X1684157Y1001380D02*
X1714637Y1031860D01*
X1668917Y1001380D02*
X1699397Y1031860D01*
X1653677Y1001380D02*
X1684157Y1031860D01*
X1638437Y1001380D02*
X1668917Y1031860D01*
X1623197Y1001380D02*
X1653677Y1031860D01*
X1607957Y1001380D02*
X1638437Y1031860D01*
X1597878Y1006541D02*
X1623197Y1031860D01*
X1597878Y1021781D02*
X1607957Y1031860D01*
X1867037D02*
X1882277Y1047100D01*
X1851797Y1031860D02*
X1882277Y1062340D01*
X1836557Y1031860D02*
X1867037Y1062340D01*
X1821317Y1031860D02*
X1851797Y1062340D01*
X1806077Y1031860D02*
X1836557Y1062340D01*
X1790837Y1031860D02*
X1821317Y1062340D01*
X1775597Y1031860D02*
X1806077Y1062340D01*
X1760357Y1031860D02*
X1790837Y1062340D01*
X1745117Y1031860D02*
X1775597Y1062340D01*
X1729877Y1031860D02*
X1760357Y1062340D01*
X1714637Y1031860D02*
X1745117Y1062340D01*
X1699397Y1031860D02*
X1729877Y1062340D01*
X1684157Y1031860D02*
X1714637Y1062340D01*
X1668917Y1031860D02*
X1699397Y1062340D01*
X1653677Y1031860D02*
X1684157Y1062340D01*
X1638437Y1031860D02*
X1668917Y1062340D01*
X1623197Y1031860D02*
X1653677Y1062340D01*
X1607957Y1031860D02*
X1638437Y1062340D01*
X1597878Y1037021D02*
X1623197Y1062340D01*
X1597878Y1052261D02*
X1607957Y1062340D01*
X1867037D02*
X1882277Y1077580D01*
X1851797Y1062340D02*
X1882277Y1092820D01*
X1836557Y1062340D02*
X1867037Y1092820D01*
X1821317Y1062340D02*
X1851797Y1092820D01*
X1806077Y1062340D02*
X1836557Y1092820D01*
X1790837Y1062340D02*
X1821317Y1092820D01*
X1775597Y1062340D02*
X1806077Y1092820D01*
X1760357Y1062340D02*
X1790837Y1092820D01*
X1745117Y1062340D02*
X1775597Y1092820D01*
X1729877Y1062340D02*
X1760357Y1092820D01*
X1714637Y1062340D02*
X1745117Y1092820D01*
X1699397Y1062340D02*
X1729877Y1092820D01*
X1684157Y1062340D02*
X1714637Y1092820D01*
X1668917Y1062340D02*
X1699397Y1092820D01*
X1653677Y1062340D02*
X1684157Y1092820D01*
X1638437Y1062340D02*
X1668917Y1092820D01*
X1623197Y1062340D02*
X1653677Y1092820D01*
X1607957Y1062340D02*
X1638437Y1092820D01*
X1597878Y1067501D02*
X1623197Y1092820D01*
X1597878Y1082741D02*
X1607957Y1092820D01*
X1867037D02*
X1882277Y1108060D01*
X1851797Y1092820D02*
X1882277Y1123300D01*
X1836557Y1092820D02*
X1867037Y1123300D01*
X1821317Y1092820D02*
X1851797Y1123300D01*
X1806077Y1092820D02*
X1836557Y1123300D01*
X1790837Y1092820D02*
X1821317Y1123300D01*
X1775597Y1092820D02*
X1806077Y1123300D01*
X1760357Y1092820D02*
X1790837Y1123300D01*
X1745117Y1092820D02*
X1775597Y1123300D01*
X1729877Y1092820D02*
X1760357Y1123300D01*
X1714637Y1092820D02*
X1745117Y1123300D01*
X1699397Y1092820D02*
X1729877Y1123300D01*
X1684157Y1092820D02*
X1714637Y1123300D01*
X1668917Y1092820D02*
X1699397Y1123300D01*
X1653677Y1092820D02*
X1684157Y1123300D01*
X1638437Y1092820D02*
X1668917Y1123300D01*
X1623197Y1092820D02*
X1653677Y1123300D01*
X1607957Y1092820D02*
X1638437Y1123300D01*
X1597878Y1097981D02*
X1623197Y1123300D01*
X1597878Y1113221D02*
X1607957Y1123300D01*
X1867037D02*
X1882277Y1138540D01*
X1851797Y1123300D02*
X1882277Y1153780D01*
X1836557Y1123300D02*
X1867037Y1153780D01*
X1821317Y1123300D02*
X1851797Y1153780D01*
X1806077Y1123300D02*
X1836557Y1153780D01*
X1790837Y1123300D02*
X1821317Y1153780D01*
X1775597Y1123300D02*
X1806077Y1153780D01*
X1760357Y1123300D02*
X1790837Y1153780D01*
X1745117Y1123300D02*
X1775597Y1153780D01*
X1729877Y1123300D02*
X1760357Y1153780D01*
X1714637Y1123300D02*
X1745117Y1153780D01*
X1699397Y1123300D02*
X1729877Y1153780D01*
X1684157Y1123300D02*
X1714637Y1153780D01*
X1668917Y1123300D02*
X1699397Y1153780D01*
X1653677Y1123300D02*
X1684157Y1153780D01*
X1638437Y1123300D02*
X1668917Y1153780D01*
X1623197Y1123300D02*
X1653677Y1153780D01*
X1607957Y1123300D02*
X1638437Y1153780D01*
X1597878Y1128461D02*
X1623197Y1153780D01*
X1597878Y1143701D02*
X1607957Y1153780D01*
X1867037D02*
X1882277Y1169020D01*
X1851797Y1153780D02*
X1882277Y1184260D01*
X1836557Y1153780D02*
X1867037Y1184260D01*
X1821317Y1153780D02*
X1851797Y1184260D01*
X1806077Y1153780D02*
X1836557Y1184260D01*
X1790837Y1153780D02*
X1821317Y1184260D01*
X1775597Y1153780D02*
X1806077Y1184260D01*
X1760357Y1153780D02*
X1790837Y1184260D01*
X1745117Y1153780D02*
X1775597Y1184260D01*
X1729877Y1153780D02*
X1760357Y1184260D01*
X1714637Y1153780D02*
X1745117Y1184260D01*
X1699397Y1153780D02*
X1729877Y1184260D01*
X1684157Y1153780D02*
X1714637Y1184260D01*
X1668917Y1153780D02*
X1699397Y1184260D01*
X1653677Y1153780D02*
X1684157Y1184260D01*
X1638437Y1153780D02*
X1668917Y1184260D01*
X1623197Y1153780D02*
X1653677Y1184260D01*
X1607957Y1153780D02*
X1638437Y1184260D01*
X1597878Y1158941D02*
X1623197Y1184260D01*
X1597878Y1174181D02*
X1607957Y1184260D01*
X1867037D02*
X1882277Y1199500D01*
X1851797Y1184260D02*
X1882277Y1214740D01*
X1836557Y1184260D02*
X1867037Y1214740D01*
X1821317Y1184260D02*
X1851797Y1214740D01*
X1806077Y1184260D02*
X1836557Y1214740D01*
X1790837Y1184260D02*
X1821317Y1214740D01*
X1775597Y1184260D02*
X1806077Y1214740D01*
X1760357Y1184260D02*
X1790837Y1214740D01*
X1745117Y1184260D02*
X1775597Y1214740D01*
X1729877Y1184260D02*
X1760357Y1214740D01*
X1714637Y1184260D02*
X1745117Y1214740D01*
X1699397Y1184260D02*
X1729877Y1214740D01*
X1684157Y1184260D02*
X1714637Y1214740D01*
X1668917Y1184260D02*
X1699397Y1214740D01*
X1653677Y1184260D02*
X1684157Y1214740D01*
X1638437Y1184260D02*
X1668917Y1214740D01*
X1623197Y1184260D02*
X1653677Y1214740D01*
X1607957Y1184260D02*
X1638437Y1214740D01*
X1597878Y1189421D02*
X1623197Y1214740D01*
X1597878Y1204661D02*
X1607957Y1214740D01*
X1867037D02*
X1882277Y1229980D01*
X1851797Y1214740D02*
X1882277Y1245220D01*
X1836557Y1214740D02*
X1867037Y1245220D01*
X1821317Y1214740D02*
X1851797Y1245220D01*
X1806077Y1214740D02*
X1836557Y1245220D01*
X1790837Y1214740D02*
X1821317Y1245220D01*
X1775597Y1214740D02*
X1806077Y1245220D01*
X1760357Y1214740D02*
X1790837Y1245220D01*
X1745117Y1214740D02*
X1775597Y1245220D01*
X1729877Y1214740D02*
X1760357Y1245220D01*
X1714637Y1214740D02*
X1745117Y1245220D01*
X1699397Y1214740D02*
X1729877Y1245220D01*
X1684157Y1214740D02*
X1714637Y1245220D01*
X1668917Y1214740D02*
X1699397Y1245220D01*
X1653677Y1214740D02*
X1684157Y1245220D01*
X1638437Y1214740D02*
X1668917Y1245220D01*
X1623197Y1214740D02*
X1653677Y1245220D01*
X1607957Y1214740D02*
X1638437Y1245220D01*
X1597878Y1219901D02*
X1623197Y1245220D01*
X1597878Y1235141D02*
X1607957Y1245220D01*
X1924543Y307086D02*
X1939920Y322463D01*
X1909303Y307086D02*
X1939920Y337704D01*
X1894063Y307086D02*
X1939920Y352943D01*
X1878823Y307086D02*
X1939920Y368184D01*
X1863583Y307086D02*
X1939920Y383424D01*
X1848343Y307086D02*
X1939920Y398663D01*
X1833103Y307086D02*
X1939920Y413904D01*
X1817863Y307086D02*
X1939920Y429143D01*
X1802623Y307086D02*
X1939920Y444384D01*
X1787383Y307086D02*
X1939920Y459623D01*
X1772143Y307086D02*
X1939920Y474864D01*
X1756903Y307086D02*
X1939920Y490103D01*
X1741663Y307086D02*
X1939920Y505344D01*
X1726423Y307086D02*
X1939920Y520583D01*
X1711183Y307086D02*
X1939920Y535824D01*
X1695943Y307086D02*
X1939920Y551063D01*
X1680703Y307086D02*
X1939920Y566303D01*
X1665463Y307086D02*
X1939920Y581544D01*
X1650223Y307086D02*
X1939920Y596783D01*
X1634983Y307086D02*
X1939920Y612024D01*
X1619743Y307086D02*
X1939920Y627263D01*
X1604503Y307086D02*
X1939920Y642504D01*
X1589263Y307086D02*
X1939920Y657744D01*
X1574023Y307086D02*
X1939920Y672983D01*
X1558783Y307086D02*
X1939920Y688223D01*
X1543543Y307086D02*
X1939920Y703464D01*
X1528303Y307086D02*
X1939920Y718704D01*
X1513063Y307086D02*
X1939920Y733943D01*
X1497823Y307086D02*
X1939920Y749184D01*
X1482583Y307086D02*
X1925555Y750058D01*
X1467343Y307086D02*
X1910315Y750058D01*
X1452103Y307086D02*
X1895075Y750058D01*
X1436863Y307086D02*
X1879835Y750058D01*
X1421623Y307086D02*
X1864595Y750058D01*
X1406383Y307086D02*
X1849355Y750058D01*
X1391143Y307086D02*
X1834115Y750058D01*
X1375903Y307086D02*
X1818875Y750058D01*
X1360663Y307086D02*
X1803635Y750058D01*
X1345423Y307086D02*
X1788395Y750058D01*
X1330183Y307086D02*
X1773155Y750058D01*
X1314943Y307086D02*
X1757915Y750058D01*
X1299703Y307086D02*
X1742675Y750058D01*
X1284463Y307086D02*
X1727435Y750058D01*
X1269223Y307086D02*
X1712195Y750058D01*
X1253983Y307086D02*
X1696955Y750058D01*
X1238743Y307086D02*
X1681715Y750058D01*
X1223503Y307086D02*
X1666475Y750058D01*
X1208263Y307086D02*
X1651235Y750058D01*
X1193023Y307086D02*
X1635995Y750058D01*
X1177783Y307086D02*
X1620755Y750058D01*
X1162543Y307086D02*
X1605515Y750058D01*
X1147303Y307086D02*
X1590275Y750058D01*
X1132063Y307086D02*
X1575035Y750058D01*
X1116823Y307086D02*
X1559795Y750058D01*
X1101583Y307086D02*
X1544555Y750058D01*
X1086343Y307086D02*
X1529315Y750058D01*
X1071103Y307086D02*
X1514075Y750058D01*
X1055863Y307086D02*
X1498835Y750058D01*
X1040623Y307086D02*
X1483595Y750058D01*
X1025383Y307086D02*
X1468355Y750058D01*
X1010143Y307086D02*
X1453115Y750058D01*
X994903Y307086D02*
X1437875Y750058D01*
X979663Y307086D02*
X1422635Y750058D01*
X964423Y307086D02*
X1407395Y750058D01*
X949183Y307086D02*
X1392155Y750058D01*
X933943Y307086D02*
X1376915Y750058D01*
X918703Y307086D02*
X1361675Y750058D01*
X903463Y307086D02*
X1346435Y750058D01*
X888223Y307086D02*
X1331195Y750058D01*
X872983Y307086D02*
X1315955Y750058D01*
X857743Y307086D02*
X1300715Y750058D01*
X842503Y307086D02*
X1285475Y750058D01*
X827263Y307086D02*
X1270235Y750058D01*
X812023Y307086D02*
X1254995Y750058D01*
X796783Y307086D02*
X1239755Y750058D01*
X781543Y307086D02*
X1224515Y750058D01*
X766303Y307086D02*
X1209275Y750058D01*
X751063Y307086D02*
X1194035Y750058D01*
X735823Y307086D02*
X1178795Y750058D01*
X729421Y315924D02*
X1163555Y750058D01*
X729421Y331165D02*
X1148315Y750058D01*
X729421Y346404D02*
X1133075Y750058D01*
X729421Y361645D02*
X1117835Y750058D01*
X729421Y376884D02*
X1102595Y750058D01*
X729421Y392124D02*
X1087355Y750058D01*
X729421Y407365D02*
X1072115Y750058D01*
X729421Y422604D02*
X1056875Y750058D01*
X729421Y437845D02*
X1041635Y750058D01*
X729421Y453084D02*
X1026395Y750058D01*
X729421Y468325D02*
X1011155Y750058D01*
X729421Y483564D02*
X995915Y750058D01*
X729421Y498805D02*
X980675Y750058D01*
X729421Y514044D02*
X965435Y750058D01*
X729421Y529285D02*
X950195Y750058D01*
X729421Y544524D02*
X934955Y750058D01*
X729421Y559765D02*
X919715Y750058D01*
X729421Y575005D02*
X904475Y750058D01*
X729421Y590244D02*
X889235Y750058D01*
X729421Y605485D02*
X873995Y750058D01*
X729421Y620724D02*
X858755Y750058D01*
X729421Y635965D02*
X843515Y750058D01*
X729421Y651205D02*
X828275Y750058D01*
X729421Y666444D02*
X813035Y750058D01*
X729421Y681684D02*
X797795Y750058D01*
X729421Y696925D02*
X782555Y750058D01*
X729421Y712165D02*
X767315Y750058D01*
X729421Y727404D02*
X752075Y750058D01*
X729421Y742645D02*
X736835Y750058D01*
D137*
X1613908Y349118D02*
Y364353D01*
X1621526D01*
X1624065Y361814D01*
Y356735D01*
X1621526Y354196D01*
X1613908D01*
X1629143Y349118D02*
X1634221D01*
X1631682D01*
Y364353D01*
X1629143Y361814D01*
X1641839Y364353D02*
Y349118D01*
X1649456D01*
X1651996Y351657D01*
Y354196D01*
X1649456Y356735D01*
X1641839D01*
X1649456D01*
X1651996Y359275D01*
Y361814D01*
X1649456Y364353D01*
X1641839D01*
X1353430Y349126D02*
Y364361D01*
X1361048D01*
X1363587Y361822D01*
Y356744D01*
X1361048Y354204D01*
X1353430D01*
X1368665Y349126D02*
X1373743D01*
X1371204D01*
Y364361D01*
X1368665Y361822D01*
X1381361Y349126D02*
Y359283D01*
X1386439Y364361D01*
X1391518Y359283D01*
Y349126D01*
Y356744D01*
X1381361D01*
M02*
