G04*
G04 #@! TF.GenerationSoftware,Altium Limited,Altium Designer,19.1.9 (167)*
G04*
G04 Layer_Color=32896*
%FSLAX44Y44*%
%MOMM*%
G71*
G01*
G75*
%ADD10C,0.2000*%
%ADD11C,0.2500*%
%ADD12C,0.4000*%
%ADD13C,0.3000*%
%ADD14C,0.2540*%
%ADD15C,0.5000*%
%ADD17C,0.1200*%
%ADD18C,0.1000*%
%ADD22C,0.2032*%
%ADD23C,0.2030*%
%ADD133C,0.6000*%
G36*
X1858000Y1142000D02*
X1826693D01*
Y1161612D01*
X1858000D01*
Y1142000D01*
D02*
G37*
G36*
X1888000Y74355D02*
X1810559D01*
Y96612D01*
X1888000D01*
Y74355D01*
D02*
G37*
G36*
X417000Y948823D02*
X336966D01*
Y968768D01*
X417000D01*
Y948823D01*
D02*
G37*
G36*
X945100Y911000D02*
X939936D01*
Y921883D01*
X929220D01*
Y926214D01*
X939936D01*
Y932294D01*
X927526D01*
Y936625D01*
X945100D01*
Y911000D01*
D02*
G37*
G36*
X923251D02*
X918087D01*
Y921883D01*
X907371D01*
Y926214D01*
X918087D01*
Y932294D01*
X905677D01*
Y936625D01*
X923251D01*
Y911000D01*
D02*
G37*
G36*
X962756Y936985D02*
X963811Y936874D01*
X964283Y936791D01*
X964755Y936708D01*
X965172Y936625D01*
X965560Y936541D01*
X965921Y936430D01*
X966227Y936347D01*
X966504Y936264D01*
X966726Y936180D01*
X966893Y936097D01*
X967032Y936069D01*
X967115Y936014D01*
X967143D01*
X967809Y935708D01*
X968420Y935347D01*
X969003Y934959D01*
X969475Y934570D01*
X969891Y934237D01*
X970058Y934098D01*
X970197Y933959D01*
X970308Y933848D01*
X970391Y933765D01*
X970446Y933737D01*
X970474Y933709D01*
X971002Y933099D01*
X971474Y932516D01*
X971890Y931905D01*
X972223Y931377D01*
X972473Y930878D01*
X972584Y930683D01*
X972667Y930517D01*
X972751Y930378D01*
X972806Y930267D01*
X972834Y930211D01*
Y930184D01*
X973028Y929684D01*
X973223Y929129D01*
X973500Y928046D01*
X973722Y926936D01*
X973778Y926408D01*
X973861Y925908D01*
X973889Y925408D01*
X973944Y924992D01*
X973972Y924603D01*
Y924270D01*
X974000Y923993D01*
Y923771D01*
Y923660D01*
Y923604D01*
X973972Y922494D01*
X973861Y921439D01*
X973695Y920439D01*
X973473Y919523D01*
X973223Y918662D01*
X972945Y917885D01*
X972640Y917163D01*
X972307Y916525D01*
X972001Y915942D01*
X971696Y915442D01*
X971418Y914998D01*
X971168Y914637D01*
X970946Y914359D01*
X970780Y914165D01*
X970668Y914054D01*
X970641Y913998D01*
X969975Y913388D01*
X969280Y912860D01*
X968559Y912388D01*
X967809Y911999D01*
X967059Y911666D01*
X966282Y911389D01*
X965560Y911139D01*
X964838Y910972D01*
X964172Y910806D01*
X963561Y910722D01*
X962978Y910639D01*
X962506Y910583D01*
X962118Y910556D01*
X961812Y910528D01*
X961562D01*
X960535Y910556D01*
X959536Y910667D01*
X958620Y910861D01*
X957759Y911083D01*
X956954Y911333D01*
X956204Y911638D01*
X955538Y911944D01*
X954927Y912277D01*
X954372Y912610D01*
X953900Y912915D01*
X953484Y913221D01*
X953151Y913471D01*
X952873Y913693D01*
X952706Y913887D01*
X952568Y913998D01*
X952540Y914026D01*
X951929Y914720D01*
X951429Y915442D01*
X950957Y916219D01*
X950569Y917024D01*
X950263Y917830D01*
X949986Y918635D01*
X949764Y919440D01*
X949569Y920189D01*
X949430Y920911D01*
X949319Y921605D01*
X949264Y922188D01*
X949208Y922716D01*
X949181Y923160D01*
X949153Y923326D01*
Y923465D01*
Y923576D01*
Y923660D01*
Y923715D01*
Y923743D01*
X949181Y924881D01*
X949292Y925964D01*
X949458Y926963D01*
X949680Y927907D01*
X949930Y928768D01*
X950236Y929573D01*
X950541Y930322D01*
X950846Y930961D01*
X951180Y931572D01*
X951485Y932072D01*
X951762Y932516D01*
X952040Y932877D01*
X952262Y933154D01*
X952429Y933348D01*
X952540Y933487D01*
X952568Y933515D01*
X953234Y934126D01*
X953928Y934681D01*
X954650Y935153D01*
X955399Y935542D01*
X956177Y935903D01*
X956926Y936180D01*
X957648Y936402D01*
X958370Y936597D01*
X959036Y936736D01*
X959647Y936847D01*
X960202Y936930D01*
X960674Y936985D01*
X961063Y937013D01*
X961368Y937041D01*
X961618D01*
X962756Y936985D01*
D02*
G37*
G36*
X936044Y950000D02*
X931269D01*
Y966824D01*
X920886Y950000D01*
X915722D01*
Y975624D01*
X920497D01*
Y958412D01*
X931047Y975624D01*
X936044D01*
Y950000D01*
D02*
G37*
G36*
X953756Y975985D02*
X954811Y975874D01*
X955283Y975791D01*
X955755Y975708D01*
X956172Y975624D01*
X956560Y975541D01*
X956921Y975430D01*
X957227Y975347D01*
X957504Y975264D01*
X957726Y975180D01*
X957893Y975097D01*
X958032Y975069D01*
X958115Y975014D01*
X958143D01*
X958809Y974708D01*
X959420Y974347D01*
X960003Y973959D01*
X960475Y973570D01*
X960891Y973237D01*
X961058Y973098D01*
X961197Y972959D01*
X961308Y972848D01*
X961391Y972765D01*
X961447Y972737D01*
X961474Y972710D01*
X962002Y972099D01*
X962474Y971516D01*
X962890Y970905D01*
X963223Y970377D01*
X963473Y969878D01*
X963584Y969683D01*
X963667Y969517D01*
X963751Y969378D01*
X963806Y969267D01*
X963834Y969211D01*
Y969184D01*
X964028Y968684D01*
X964223Y968129D01*
X964500Y967046D01*
X964722Y965936D01*
X964778Y965408D01*
X964861Y964908D01*
X964889Y964409D01*
X964945Y963992D01*
X964972Y963604D01*
Y963270D01*
X965000Y962993D01*
Y962771D01*
Y962660D01*
Y962604D01*
X964972Y961494D01*
X964861Y960439D01*
X964695Y959439D01*
X964473Y958523D01*
X964223Y957662D01*
X963945Y956885D01*
X963640Y956163D01*
X963307Y955525D01*
X963001Y954942D01*
X962696Y954442D01*
X962418Y953998D01*
X962168Y953637D01*
X961946Y953359D01*
X961780Y953165D01*
X961669Y953054D01*
X961641Y952998D01*
X960975Y952387D01*
X960281Y951860D01*
X959559Y951388D01*
X958809Y950999D01*
X958059Y950666D01*
X957282Y950389D01*
X956560Y950139D01*
X955838Y949972D01*
X955172Y949806D01*
X954561Y949722D01*
X953978Y949639D01*
X953506Y949584D01*
X953118Y949556D01*
X952812Y949528D01*
X952563D01*
X951535Y949556D01*
X950536Y949667D01*
X949620Y949861D01*
X948759Y950083D01*
X947954Y950333D01*
X947205Y950639D01*
X946538Y950944D01*
X945927Y951277D01*
X945372Y951610D01*
X944900Y951916D01*
X944484Y952221D01*
X944151Y952471D01*
X943873Y952693D01*
X943706Y952887D01*
X943568Y952998D01*
X943540Y953026D01*
X942929Y953720D01*
X942429Y954442D01*
X941957Y955219D01*
X941569Y956024D01*
X941263Y956830D01*
X940986Y957635D01*
X940764Y958440D01*
X940569Y959189D01*
X940431Y959911D01*
X940319Y960605D01*
X940264Y961188D01*
X940208Y961716D01*
X940181Y962160D01*
X940153Y962326D01*
Y962465D01*
Y962576D01*
Y962660D01*
Y962715D01*
Y962743D01*
X940181Y963881D01*
X940292Y964964D01*
X940458Y965963D01*
X940680Y966907D01*
X940930Y967768D01*
X941236Y968573D01*
X941541Y969323D01*
X941846Y969961D01*
X942179Y970572D01*
X942485Y971071D01*
X942763Y971516D01*
X943040Y971877D01*
X943262Y972154D01*
X943429Y972349D01*
X943540Y972487D01*
X943568Y972515D01*
X944234Y973126D01*
X944928Y973681D01*
X945650Y974153D01*
X946399Y974542D01*
X947177Y974903D01*
X947926Y975180D01*
X948648Y975402D01*
X949370Y975597D01*
X950036Y975735D01*
X950647Y975847D01*
X951202Y975930D01*
X951674Y975985D01*
X952063Y976013D01*
X952368Y976041D01*
X952618D01*
X953756Y975985D01*
D02*
G37*
%LPC*%
G36*
X1839316Y1156612D02*
X1837442D01*
X1833484Y1150155D01*
Y1156612D01*
X1831693D01*
Y1147000D01*
X1833630D01*
X1837525Y1153311D01*
Y1147000D01*
X1839316D01*
Y1156612D01*
D02*
G37*
G36*
X1853000D02*
X1850907D01*
X1848470Y1149499D01*
X1846116Y1156612D01*
X1844054D01*
X1847491Y1147000D01*
X1849574D01*
X1853000Y1156612D01*
D02*
G37*
G36*
X1843127D02*
X1841190D01*
Y1147000D01*
X1843127D01*
Y1156612D01*
D02*
G37*
G36*
X1838064Y89123D02*
X1837605D01*
X1837512Y89113D01*
X1837387D01*
X1837262Y89102D01*
X1837116Y89081D01*
X1836814Y89050D01*
X1836512Y88998D01*
X1836220Y88925D01*
X1836095Y88873D01*
X1835970Y88821D01*
X1835960D01*
X1835939Y88811D01*
X1835908Y88790D01*
X1835877Y88769D01*
X1835762Y88707D01*
X1835637Y88623D01*
X1835491Y88509D01*
X1835356Y88384D01*
X1835221Y88238D01*
X1835116Y88082D01*
X1835106Y88061D01*
X1835096Y88030D01*
X1835075Y87999D01*
X1835054Y87946D01*
X1835033Y87873D01*
X1835012Y87801D01*
X1834991Y87707D01*
X1834971Y87603D01*
X1834950Y87488D01*
X1834929Y87353D01*
X1834908Y87197D01*
X1834887Y87030D01*
X1834877Y86853D01*
X1834866Y86655D01*
Y86436D01*
X1834898Y84281D01*
Y84270D01*
Y84239D01*
Y84197D01*
Y84135D01*
Y84052D01*
Y83968D01*
X1834887Y83770D01*
X1834877Y83552D01*
X1834866Y83323D01*
X1834846Y83114D01*
X1834825Y83010D01*
X1834814Y82927D01*
Y82906D01*
X1834794Y82854D01*
X1834773Y82760D01*
X1834742Y82646D01*
X1834700Y82510D01*
X1834637Y82354D01*
X1834565Y82177D01*
X1834481Y82000D01*
X1836304D01*
Y82010D01*
X1836314Y82031D01*
X1836335Y82073D01*
X1836356Y82135D01*
X1836376Y82208D01*
X1836418Y82302D01*
X1836449Y82416D01*
X1836491Y82542D01*
Y82552D01*
X1836501Y82573D01*
X1836512Y82635D01*
X1836533Y82708D01*
X1836543Y82739D01*
X1836554Y82760D01*
X1836574Y82739D01*
X1836637Y82687D01*
X1836731Y82604D01*
X1836856Y82500D01*
X1837001Y82396D01*
X1837178Y82281D01*
X1837366Y82167D01*
X1837564Y82073D01*
X1837574D01*
X1837585Y82063D01*
X1837616Y82052D01*
X1837657Y82042D01*
X1837762Y82000D01*
X1837907Y81958D01*
X1838074Y81917D01*
X1838272Y81875D01*
X1838480Y81854D01*
X1838709Y81844D01*
X1838813D01*
X1838886Y81854D01*
X1838980Y81865D01*
X1839084Y81875D01*
X1839199Y81896D01*
X1839324Y81917D01*
X1839594Y81979D01*
X1839876Y82083D01*
X1840021Y82156D01*
X1840157Y82229D01*
X1840282Y82312D01*
X1840407Y82416D01*
X1840417Y82427D01*
X1840438Y82448D01*
X1840459Y82479D01*
X1840500Y82521D01*
X1840553Y82583D01*
X1840605Y82646D01*
X1840657Y82729D01*
X1840709Y82823D01*
X1840771Y82927D01*
X1840823Y83031D01*
X1840927Y83291D01*
X1840969Y83427D01*
X1840990Y83573D01*
X1841011Y83729D01*
X1841021Y83895D01*
Y84000D01*
X1841011Y84104D01*
X1840990Y84249D01*
X1840948Y84416D01*
X1840907Y84593D01*
X1840834Y84770D01*
X1840740Y84947D01*
Y84958D01*
X1840730Y84968D01*
X1840688Y85020D01*
X1840625Y85103D01*
X1840532Y85208D01*
X1840428Y85322D01*
X1840292Y85437D01*
X1840136Y85551D01*
X1839959Y85645D01*
X1839948D01*
X1839938Y85655D01*
X1839907Y85666D01*
X1839865Y85687D01*
X1839813Y85707D01*
X1839751Y85739D01*
X1839667Y85759D01*
X1839584Y85791D01*
X1839490Y85822D01*
X1839376Y85864D01*
X1839251Y85895D01*
X1839126Y85936D01*
X1838980Y85968D01*
X1838824Y86009D01*
X1838668Y86051D01*
X1838491Y86082D01*
X1838480D01*
X1838439Y86093D01*
X1838366Y86103D01*
X1838282Y86124D01*
X1838178Y86145D01*
X1838053Y86166D01*
X1837918Y86197D01*
X1837772Y86228D01*
X1837480Y86301D01*
X1837178Y86374D01*
X1837043Y86416D01*
X1836908Y86457D01*
X1836793Y86499D01*
X1836689Y86540D01*
Y86718D01*
Y86728D01*
Y86738D01*
Y86811D01*
X1836699Y86905D01*
X1836720Y87020D01*
X1836751Y87144D01*
X1836803Y87269D01*
X1836866Y87394D01*
X1836960Y87488D01*
X1836970Y87499D01*
X1837012Y87519D01*
X1837085Y87561D01*
X1837178Y87603D01*
X1837314Y87644D01*
X1837491Y87686D01*
X1837595Y87696D01*
X1837699Y87707D01*
X1837824Y87717D01*
X1838043D01*
X1838136Y87707D01*
X1838241Y87696D01*
X1838366Y87665D01*
X1838501Y87634D01*
X1838626Y87582D01*
X1838741Y87519D01*
X1838751Y87509D01*
X1838782Y87478D01*
X1838834Y87436D01*
X1838897Y87363D01*
X1838970Y87269D01*
X1839043Y87144D01*
X1839115Y86999D01*
X1839178Y86832D01*
X1840834Y87134D01*
Y87144D01*
X1840823Y87176D01*
X1840802Y87228D01*
X1840782Y87301D01*
X1840750Y87384D01*
X1840709Y87478D01*
X1840605Y87696D01*
X1840469Y87946D01*
X1840303Y88196D01*
X1840105Y88425D01*
X1839990Y88540D01*
X1839865Y88634D01*
X1839855Y88644D01*
X1839834Y88654D01*
X1839792Y88675D01*
X1839740Y88707D01*
X1839667Y88748D01*
X1839574Y88790D01*
X1839469Y88832D01*
X1839355Y88884D01*
X1839209Y88925D01*
X1839063Y88967D01*
X1838897Y89009D01*
X1838709Y89050D01*
X1838511Y89081D01*
X1838293Y89102D01*
X1838064Y89123D01*
D02*
G37*
G36*
X1851268Y91435D02*
Y88967D01*
X1850008D01*
Y87499D01*
X1851268D01*
Y84687D01*
Y84676D01*
Y84645D01*
Y84604D01*
Y84551D01*
Y84489D01*
Y84406D01*
Y84239D01*
X1851258Y84072D01*
Y83906D01*
X1851248Y83833D01*
Y83770D01*
X1851237Y83718D01*
Y83687D01*
Y83677D01*
X1851227Y83666D01*
X1851206Y83604D01*
X1851154Y83531D01*
X1851081Y83458D01*
X1851071D01*
X1851060Y83448D01*
X1851029Y83437D01*
X1850987Y83416D01*
X1850894Y83385D01*
X1850769Y83375D01*
X1850717D01*
X1850665Y83385D01*
X1850581Y83396D01*
X1850477Y83416D01*
X1850342Y83448D01*
X1850196Y83489D01*
X1850029Y83541D01*
X1849863Y82114D01*
X1849873D01*
X1849894Y82104D01*
X1849925Y82094D01*
X1849977Y82073D01*
X1850040Y82052D01*
X1850113Y82031D01*
X1850196Y82000D01*
X1850290Y81979D01*
X1850498Y81927D01*
X1850748Y81885D01*
X1851029Y81854D01*
X1851321Y81844D01*
X1851404D01*
X1851498Y81854D01*
X1851623Y81865D01*
X1851758Y81885D01*
X1851904Y81917D01*
X1852060Y81958D01*
X1852216Y82010D01*
X1852237Y82021D01*
X1852279Y82042D01*
X1852352Y82073D01*
X1852435Y82125D01*
X1852529Y82187D01*
X1852633Y82260D01*
X1852716Y82344D01*
X1852799Y82437D01*
X1852810Y82448D01*
X1852831Y82489D01*
X1852862Y82552D01*
X1852903Y82625D01*
X1852945Y82729D01*
X1852987Y82854D01*
X1853029Y83000D01*
X1853060Y83156D01*
Y83177D01*
X1853070Y83218D01*
Y83260D01*
X1853081Y83312D01*
Y83375D01*
Y83437D01*
X1853091Y83520D01*
Y83614D01*
X1853101Y83718D01*
Y83843D01*
X1853112Y83979D01*
Y84124D01*
Y84281D01*
Y84458D01*
Y87499D01*
X1853955D01*
Y88967D01*
X1853112D01*
Y90352D01*
X1851268Y91435D01*
D02*
G37*
G36*
X1822224Y89123D02*
X1822151D01*
X1822078Y89113D01*
X1821964Y89102D01*
X1821839Y89092D01*
X1821682Y89071D01*
X1821516Y89040D01*
X1821339Y88998D01*
X1821141Y88936D01*
X1820943Y88873D01*
X1820745Y88790D01*
X1820537Y88686D01*
X1820339Y88571D01*
X1820141Y88436D01*
X1819954Y88269D01*
X1819777Y88092D01*
X1819766Y88082D01*
X1819735Y88040D01*
X1819693Y87988D01*
X1819641Y87905D01*
X1819568Y87790D01*
X1819495Y87655D01*
X1819412Y87499D01*
X1819329Y87322D01*
X1819245Y87113D01*
X1819173Y86874D01*
X1819100Y86624D01*
X1819037Y86343D01*
X1818985Y86030D01*
X1818943Y85697D01*
X1818912Y85343D01*
Y84958D01*
X1823526D01*
Y84947D01*
Y84926D01*
Y84874D01*
X1823515Y84822D01*
X1823505Y84749D01*
X1823494Y84666D01*
X1823463Y84489D01*
X1823411Y84281D01*
X1823338Y84062D01*
X1823234Y83854D01*
X1823088Y83666D01*
X1823078D01*
X1823067Y83645D01*
X1823015Y83593D01*
X1822922Y83520D01*
X1822797Y83448D01*
X1822640Y83364D01*
X1822453Y83291D01*
X1822245Y83239D01*
X1822130Y83229D01*
X1822016Y83218D01*
X1821943D01*
X1821870Y83229D01*
X1821766Y83250D01*
X1821651Y83271D01*
X1821537Y83312D01*
X1821412Y83375D01*
X1821297Y83448D01*
X1821287Y83458D01*
X1821245Y83489D01*
X1821193Y83552D01*
X1821130Y83635D01*
X1821047Y83739D01*
X1820974Y83875D01*
X1820901Y84031D01*
X1820839Y84218D01*
X1819006Y83906D01*
Y83895D01*
X1819027Y83864D01*
X1819048Y83812D01*
X1819068Y83739D01*
X1819110Y83656D01*
X1819162Y83562D01*
X1819214Y83448D01*
X1819277Y83333D01*
X1819433Y83083D01*
X1819631Y82833D01*
X1819860Y82583D01*
X1819995Y82469D01*
X1820131Y82365D01*
X1820141Y82354D01*
X1820162Y82344D01*
X1820204Y82312D01*
X1820266Y82281D01*
X1820339Y82240D01*
X1820433Y82198D01*
X1820537Y82156D01*
X1820651Y82104D01*
X1820787Y82052D01*
X1820933Y82010D01*
X1821089Y81969D01*
X1821255Y81927D01*
X1821432Y81896D01*
X1821630Y81865D01*
X1821828Y81854D01*
X1822036Y81844D01*
X1822120D01*
X1822213Y81854D01*
X1822338Y81865D01*
X1822484Y81875D01*
X1822661Y81906D01*
X1822849Y81938D01*
X1823057Y81990D01*
X1823276Y82052D01*
X1823494Y82135D01*
X1823713Y82229D01*
X1823942Y82344D01*
X1824151Y82479D01*
X1824359Y82635D01*
X1824546Y82812D01*
X1824723Y83021D01*
X1824734Y83031D01*
X1824754Y83062D01*
X1824786Y83114D01*
X1824827Y83198D01*
X1824879Y83291D01*
X1824942Y83396D01*
X1825004Y83531D01*
X1825067Y83677D01*
X1825129Y83843D01*
X1825192Y84031D01*
X1825254Y84229D01*
X1825306Y84437D01*
X1825348Y84666D01*
X1825379Y84906D01*
X1825400Y85166D01*
X1825411Y85426D01*
Y85499D01*
X1825400Y85593D01*
Y85707D01*
X1825379Y85853D01*
X1825358Y86030D01*
X1825338Y86207D01*
X1825296Y86416D01*
X1825254Y86624D01*
X1825192Y86842D01*
X1825119Y87072D01*
X1825036Y87301D01*
X1824931Y87519D01*
X1824807Y87738D01*
X1824671Y87946D01*
X1824515Y88134D01*
X1824505Y88144D01*
X1824473Y88175D01*
X1824421Y88228D01*
X1824348Y88290D01*
X1824265Y88363D01*
X1824151Y88446D01*
X1824026Y88540D01*
X1823890Y88634D01*
X1823734Y88717D01*
X1823557Y88811D01*
X1823369Y88894D01*
X1823161Y88967D01*
X1822953Y89029D01*
X1822724Y89081D01*
X1822474Y89113D01*
X1822224Y89123D01*
D02*
G37*
G36*
X1883000Y91612D02*
X1876408D01*
Y89987D01*
X1881063D01*
Y87707D01*
X1877043D01*
Y86082D01*
X1881063D01*
Y82000D01*
X1883000D01*
Y91612D01*
D02*
G37*
G36*
X1871607Y89123D02*
X1871503D01*
X1871440Y89113D01*
X1871378Y89102D01*
X1871222Y89081D01*
X1871034Y89040D01*
X1870826Y88977D01*
X1870607Y88884D01*
X1870389Y88769D01*
X1870961Y87165D01*
X1870982Y87176D01*
X1871045Y87217D01*
X1871128Y87259D01*
X1871243Y87322D01*
X1871378Y87374D01*
X1871524Y87426D01*
X1871670Y87457D01*
X1871826Y87467D01*
X1871888D01*
X1871961Y87457D01*
X1872055Y87436D01*
X1872159Y87415D01*
X1872263Y87374D01*
X1872378Y87322D01*
X1872482Y87249D01*
X1872492Y87238D01*
X1872523Y87207D01*
X1872576Y87155D01*
X1872638Y87072D01*
X1872701Y86967D01*
X1872773Y86832D01*
X1872846Y86676D01*
X1872909Y86478D01*
Y86468D01*
X1872919Y86447D01*
Y86416D01*
X1872930Y86363D01*
X1872940Y86301D01*
X1872950Y86207D01*
X1872971Y86103D01*
X1872982Y85978D01*
X1872992Y85832D01*
X1873013Y85666D01*
X1873023Y85478D01*
X1873034Y85260D01*
X1873044Y85020D01*
Y84760D01*
X1873055Y84468D01*
Y84145D01*
Y82000D01*
X1874898D01*
Y88967D01*
X1873190D01*
Y87967D01*
X1873180Y87978D01*
X1873169Y87999D01*
X1873148Y88030D01*
X1873117Y88082D01*
X1873034Y88207D01*
X1872930Y88352D01*
X1872805Y88509D01*
X1872680Y88654D01*
X1872544Y88790D01*
X1872471Y88852D01*
X1872409Y88894D01*
X1872388Y88904D01*
X1872346Y88925D01*
X1872274Y88967D01*
X1872180Y89009D01*
X1872055Y89050D01*
X1871920Y89092D01*
X1871774Y89113D01*
X1871607Y89123D01*
D02*
G37*
G36*
X1857423D02*
X1857319D01*
X1857204Y89113D01*
X1857048Y89092D01*
X1856882Y89071D01*
X1856694Y89029D01*
X1856496Y88967D01*
X1856309Y88894D01*
X1856299D01*
X1856288Y88884D01*
X1856226Y88852D01*
X1856132Y88811D01*
X1856028Y88738D01*
X1855903Y88665D01*
X1855778Y88561D01*
X1855653Y88457D01*
X1855549Y88332D01*
X1855538Y88321D01*
X1855507Y88269D01*
X1855465Y88207D01*
X1855403Y88113D01*
X1855340Y87999D01*
X1855288Y87863D01*
X1855226Y87717D01*
X1855184Y87561D01*
Y87540D01*
X1855163Y87478D01*
X1855153Y87384D01*
X1855132Y87249D01*
X1855111Y87072D01*
X1855101Y86863D01*
X1855080Y86613D01*
Y82000D01*
X1856923D01*
Y85551D01*
Y85562D01*
Y85603D01*
Y85655D01*
Y85739D01*
Y85822D01*
X1856934Y85926D01*
Y86155D01*
X1856955Y86405D01*
X1856975Y86645D01*
X1856986Y86759D01*
X1857007Y86853D01*
X1857027Y86936D01*
X1857048Y87009D01*
Y87020D01*
X1857069Y87061D01*
X1857100Y87124D01*
X1857142Y87197D01*
X1857194Y87280D01*
X1857257Y87374D01*
X1857340Y87457D01*
X1857434Y87530D01*
X1857444Y87540D01*
X1857475Y87561D01*
X1857538Y87592D01*
X1857611Y87624D01*
X1857704Y87655D01*
X1857809Y87686D01*
X1857923Y87707D01*
X1858058Y87717D01*
X1858142D01*
X1858225Y87707D01*
X1858350Y87686D01*
X1858475Y87655D01*
X1858621Y87603D01*
X1858777Y87540D01*
X1858923Y87446D01*
X1858944Y87436D01*
X1858985Y87394D01*
X1859048Y87342D01*
X1859131Y87259D01*
X1859214Y87165D01*
X1859298Y87040D01*
X1859371Y86905D01*
X1859433Y86749D01*
X1859444Y86728D01*
Y86707D01*
X1859454Y86665D01*
X1859464Y86613D01*
X1859475Y86551D01*
X1859485Y86478D01*
X1859496Y86395D01*
X1859516Y86291D01*
X1859527Y86176D01*
X1859537Y86041D01*
X1859548Y85895D01*
X1859558Y85739D01*
Y85562D01*
X1859568Y85364D01*
Y85155D01*
Y82000D01*
X1861412D01*
Y88967D01*
X1859704D01*
Y87936D01*
X1859693Y87946D01*
X1859662Y87988D01*
X1859610Y88050D01*
X1859537Y88123D01*
X1859454Y88207D01*
X1859339Y88311D01*
X1859225Y88415D01*
X1859079Y88530D01*
X1858923Y88644D01*
X1858746Y88748D01*
X1858558Y88852D01*
X1858360Y88936D01*
X1858142Y89019D01*
X1857913Y89071D01*
X1857673Y89113D01*
X1857423Y89123D01*
D02*
G37*
G36*
X1829097D02*
X1828993D01*
X1828878Y89113D01*
X1828722Y89092D01*
X1828556Y89071D01*
X1828368Y89029D01*
X1828170Y88967D01*
X1827983Y88894D01*
X1827972D01*
X1827962Y88884D01*
X1827899Y88852D01*
X1827806Y88811D01*
X1827702Y88738D01*
X1827577Y88665D01*
X1827452Y88561D01*
X1827327Y88457D01*
X1827223Y88332D01*
X1827212Y88321D01*
X1827181Y88269D01*
X1827139Y88207D01*
X1827077Y88113D01*
X1827014Y87999D01*
X1826962Y87863D01*
X1826900Y87717D01*
X1826858Y87561D01*
Y87540D01*
X1826837Y87478D01*
X1826827Y87384D01*
X1826806Y87249D01*
X1826785Y87072D01*
X1826775Y86863D01*
X1826754Y86613D01*
Y82000D01*
X1828597D01*
Y85551D01*
Y85562D01*
Y85603D01*
Y85655D01*
Y85739D01*
Y85822D01*
X1828608Y85926D01*
Y86155D01*
X1828629Y86405D01*
X1828649Y86645D01*
X1828660Y86759D01*
X1828681Y86853D01*
X1828701Y86936D01*
X1828722Y87009D01*
Y87020D01*
X1828743Y87061D01*
X1828774Y87124D01*
X1828816Y87197D01*
X1828868Y87280D01*
X1828931Y87374D01*
X1829014Y87457D01*
X1829108Y87530D01*
X1829118Y87540D01*
X1829149Y87561D01*
X1829212Y87592D01*
X1829285Y87624D01*
X1829378Y87655D01*
X1829482Y87686D01*
X1829597Y87707D01*
X1829732Y87717D01*
X1829816D01*
X1829899Y87707D01*
X1830024Y87686D01*
X1830149Y87655D01*
X1830295Y87603D01*
X1830451Y87540D01*
X1830597Y87446D01*
X1830618Y87436D01*
X1830659Y87394D01*
X1830722Y87342D01*
X1830805Y87259D01*
X1830888Y87165D01*
X1830972Y87040D01*
X1831044Y86905D01*
X1831107Y86749D01*
X1831117Y86728D01*
Y86707D01*
X1831128Y86665D01*
X1831138Y86613D01*
X1831149Y86551D01*
X1831159Y86478D01*
X1831169Y86395D01*
X1831190Y86291D01*
X1831201Y86176D01*
X1831211Y86041D01*
X1831222Y85895D01*
X1831232Y85739D01*
Y85562D01*
X1831242Y85364D01*
Y85155D01*
Y82000D01*
X1833086D01*
Y88967D01*
X1831378D01*
Y87936D01*
X1831367Y87946D01*
X1831336Y87988D01*
X1831284Y88050D01*
X1831211Y88123D01*
X1831128Y88207D01*
X1831013Y88311D01*
X1830899Y88415D01*
X1830753Y88530D01*
X1830597Y88644D01*
X1830420Y88748D01*
X1830232Y88852D01*
X1830034Y88936D01*
X1829816Y89019D01*
X1829587Y89071D01*
X1829347Y89113D01*
X1829097Y89123D01*
D02*
G37*
G36*
X1817402Y91612D02*
X1815559D01*
Y82000D01*
X1817402D01*
Y91612D01*
D02*
G37*
G36*
X1866629Y89123D02*
X1866369D01*
X1866286Y89113D01*
X1866181Y89102D01*
X1866046Y89092D01*
X1865890Y89071D01*
X1865713Y89040D01*
X1865525Y88998D01*
X1865327Y88936D01*
X1865119Y88873D01*
X1864901Y88790D01*
X1864692Y88686D01*
X1864474Y88571D01*
X1864255Y88436D01*
X1864057Y88269D01*
X1863859Y88092D01*
X1863849Y88082D01*
X1863817Y88040D01*
X1863765Y87988D01*
X1863703Y87905D01*
X1863620Y87801D01*
X1863536Y87686D01*
X1863453Y87540D01*
X1863349Y87384D01*
X1863255Y87207D01*
X1863172Y87009D01*
X1863078Y86790D01*
X1863005Y86561D01*
X1862943Y86322D01*
X1862891Y86061D01*
X1862859Y85791D01*
X1862849Y85499D01*
Y85426D01*
X1862859Y85343D01*
Y85239D01*
X1862880Y85103D01*
X1862901Y84947D01*
X1862932Y84770D01*
X1862974Y84583D01*
X1863026Y84374D01*
X1863099Y84166D01*
X1863182Y83947D01*
X1863276Y83729D01*
X1863401Y83500D01*
X1863536Y83291D01*
X1863692Y83073D01*
X1863869Y82875D01*
X1863880Y82864D01*
X1863911Y82833D01*
X1863974Y82781D01*
X1864057Y82719D01*
X1864151Y82635D01*
X1864276Y82552D01*
X1864411Y82458D01*
X1864567Y82365D01*
X1864744Y82260D01*
X1864942Y82167D01*
X1865150Y82083D01*
X1865379Y82010D01*
X1865619Y81938D01*
X1865879Y81885D01*
X1866150Y81854D01*
X1866431Y81844D01*
X1866525D01*
X1866598Y81854D01*
X1866681D01*
X1866775Y81865D01*
X1866889Y81875D01*
X1867014Y81896D01*
X1867296Y81948D01*
X1867608Y82021D01*
X1867931Y82125D01*
X1868254Y82271D01*
X1868264Y82281D01*
X1868295Y82292D01*
X1868337Y82312D01*
X1868400Y82354D01*
X1868472Y82396D01*
X1868545Y82458D01*
X1868743Y82594D01*
X1868952Y82771D01*
X1869170Y82989D01*
X1869379Y83250D01*
X1869566Y83541D01*
Y83552D01*
X1869587Y83583D01*
X1869608Y83625D01*
X1869639Y83687D01*
X1869670Y83770D01*
X1869712Y83864D01*
X1869743Y83979D01*
X1869785Y84104D01*
X1869826Y84249D01*
X1869868Y84406D01*
X1869910Y84572D01*
X1869941Y84749D01*
X1869972Y84937D01*
X1869993Y85145D01*
X1870003Y85353D01*
X1870014Y85572D01*
Y85666D01*
X1870003Y85728D01*
Y85812D01*
X1869993Y85916D01*
X1869972Y86020D01*
X1869962Y86145D01*
X1869899Y86416D01*
X1869826Y86718D01*
X1869712Y87030D01*
X1869649Y87197D01*
X1869566Y87353D01*
X1869556Y87363D01*
X1869545Y87394D01*
X1869514Y87436D01*
X1869483Y87499D01*
X1869441Y87571D01*
X1869379Y87655D01*
X1869243Y87842D01*
X1869056Y88050D01*
X1868837Y88269D01*
X1868587Y88477D01*
X1868295Y88665D01*
X1868285Y88675D01*
X1868254Y88686D01*
X1868212Y88707D01*
X1868150Y88738D01*
X1868066Y88769D01*
X1867973Y88811D01*
X1867868Y88852D01*
X1867754Y88894D01*
X1867619Y88936D01*
X1867473Y88977D01*
X1867160Y89050D01*
X1866817Y89102D01*
X1866629Y89123D01*
D02*
G37*
G36*
X1844906D02*
X1844854D01*
X1844791Y89113D01*
X1844697D01*
X1844593Y89092D01*
X1844479Y89071D01*
X1844343Y89040D01*
X1844187Y89009D01*
X1844031Y88956D01*
X1843864Y88894D01*
X1843698Y88811D01*
X1843521Y88717D01*
X1843344Y88613D01*
X1843177Y88477D01*
X1843010Y88332D01*
X1842844Y88165D01*
X1842833Y88155D01*
X1842802Y88123D01*
X1842760Y88071D01*
X1842708Y87988D01*
X1842646Y87894D01*
X1842573Y87780D01*
X1842500Y87634D01*
X1842417Y87478D01*
X1842333Y87301D01*
X1842260Y87103D01*
X1842188Y86884D01*
X1842125Y86645D01*
X1842073Y86395D01*
X1842021Y86124D01*
X1842000Y85832D01*
X1841990Y85520D01*
Y85447D01*
X1842000Y85353D01*
Y85228D01*
X1842010Y85083D01*
X1842031Y84916D01*
X1842063Y84728D01*
X1842094Y84520D01*
X1842146Y84312D01*
X1842198Y84083D01*
X1842271Y83864D01*
X1842354Y83635D01*
X1842448Y83416D01*
X1842562Y83198D01*
X1842698Y82989D01*
X1842844Y82802D01*
X1842854Y82792D01*
X1842885Y82760D01*
X1842927Y82719D01*
X1843000Y82656D01*
X1843083Y82583D01*
X1843177Y82500D01*
X1843291Y82416D01*
X1843427Y82323D01*
X1843562Y82229D01*
X1843729Y82146D01*
X1843895Y82063D01*
X1844083Y81990D01*
X1844270Y81938D01*
X1844479Y81885D01*
X1844687Y81854D01*
X1844916Y81844D01*
X1845010D01*
X1845124Y81854D01*
X1845270Y81875D01*
X1845426Y81896D01*
X1845603Y81938D01*
X1845791Y82000D01*
X1845968Y82073D01*
X1845989Y82083D01*
X1846051Y82114D01*
X1846145Y82177D01*
X1846270Y82260D01*
X1846416Y82365D01*
X1846582Y82500D01*
X1846759Y82667D01*
X1846947Y82854D01*
Y79355D01*
X1848790D01*
Y88967D01*
X1847072D01*
Y87946D01*
X1847051Y87957D01*
X1847009Y88019D01*
X1846936Y88123D01*
X1846832Y88238D01*
X1846707Y88373D01*
X1846551Y88519D01*
X1846374Y88665D01*
X1846176Y88790D01*
X1846166D01*
X1846145Y88800D01*
X1846114Y88821D01*
X1846072Y88842D01*
X1846020Y88863D01*
X1845957Y88894D01*
X1845801Y88956D01*
X1845614Y89019D01*
X1845395Y89071D01*
X1845155Y89113D01*
X1844906Y89123D01*
D02*
G37*
%LPD*%
G36*
X1836710Y85332D02*
X1836762Y85322D01*
X1836845Y85291D01*
X1836970Y85260D01*
X1837126Y85218D01*
X1837324Y85166D01*
X1837553Y85114D01*
X1837824Y85051D01*
X1837834D01*
X1837855Y85041D01*
X1837897D01*
X1837949Y85020D01*
X1838074Y84989D01*
X1838230Y84958D01*
X1838397Y84906D01*
X1838564Y84853D01*
X1838709Y84801D01*
X1838772Y84770D01*
X1838824Y84739D01*
X1838834Y84728D01*
X1838876Y84697D01*
X1838938Y84635D01*
X1839001Y84562D01*
X1839063Y84468D01*
X1839126Y84354D01*
X1839167Y84229D01*
X1839178Y84093D01*
Y84072D01*
Y84031D01*
X1839167Y83958D01*
X1839147Y83864D01*
X1839105Y83760D01*
X1839063Y83645D01*
X1838990Y83541D01*
X1838897Y83427D01*
X1838886Y83416D01*
X1838845Y83385D01*
X1838782Y83333D01*
X1838699Y83291D01*
X1838584Y83239D01*
X1838459Y83187D01*
X1838313Y83156D01*
X1838157Y83146D01*
X1838136D01*
X1838074Y83156D01*
X1837980Y83166D01*
X1837855Y83187D01*
X1837710Y83229D01*
X1837543Y83281D01*
X1837376Y83364D01*
X1837210Y83468D01*
X1837199Y83479D01*
X1837158Y83510D01*
X1837095Y83562D01*
X1837033Y83635D01*
X1836949Y83729D01*
X1836876Y83833D01*
X1836814Y83947D01*
X1836762Y84072D01*
Y84083D01*
X1836751Y84124D01*
X1836741Y84187D01*
X1836720Y84270D01*
X1836710Y84395D01*
X1836699Y84551D01*
X1836689Y84739D01*
Y84968D01*
Y85343D01*
X1836710Y85332D01*
D02*
G37*
G36*
X1822224Y87707D02*
X1822328Y87696D01*
X1822474Y87665D01*
X1822630Y87613D01*
X1822797Y87530D01*
X1822953Y87415D01*
X1823036Y87353D01*
X1823109Y87269D01*
X1823130Y87249D01*
X1823172Y87186D01*
X1823234Y87092D01*
X1823307Y86957D01*
X1823380Y86790D01*
X1823442Y86582D01*
X1823484Y86353D01*
X1823494Y86082D01*
X1820745D01*
Y86093D01*
Y86114D01*
Y86155D01*
X1820755Y86218D01*
X1820766Y86280D01*
X1820776Y86353D01*
X1820808Y86530D01*
X1820860Y86728D01*
X1820933Y86926D01*
X1821026Y87124D01*
X1821162Y87290D01*
X1821183Y87311D01*
X1821235Y87353D01*
X1821318Y87426D01*
X1821432Y87509D01*
X1821568Y87582D01*
X1821734Y87655D01*
X1821922Y87696D01*
X1822120Y87717D01*
X1822182D01*
X1822224Y87707D01*
D02*
G37*
G36*
X1866556Y87613D02*
X1866619Y87603D01*
X1866692Y87592D01*
X1866858Y87551D01*
X1867056Y87488D01*
X1867254Y87394D01*
X1867358Y87332D01*
X1867452Y87259D01*
X1867556Y87165D01*
X1867650Y87072D01*
Y87061D01*
X1867671Y87051D01*
X1867691Y87009D01*
X1867723Y86967D01*
X1867764Y86915D01*
X1867806Y86842D01*
X1867848Y86759D01*
X1867889Y86665D01*
X1867931Y86561D01*
X1867973Y86436D01*
X1868014Y86311D01*
X1868056Y86166D01*
X1868087Y86009D01*
X1868108Y85843D01*
X1868118Y85666D01*
X1868129Y85478D01*
Y85468D01*
Y85437D01*
Y85374D01*
X1868118Y85312D01*
Y85218D01*
X1868108Y85124D01*
X1868087Y85010D01*
X1868066Y84885D01*
X1868014Y84635D01*
X1867931Y84364D01*
X1867806Y84114D01*
X1867733Y83989D01*
X1867650Y83885D01*
X1867639Y83875D01*
X1867629Y83864D01*
X1867598Y83833D01*
X1867566Y83802D01*
X1867452Y83718D01*
X1867316Y83614D01*
X1867139Y83510D01*
X1866931Y83427D01*
X1866702Y83364D01*
X1866577Y83354D01*
X1866442Y83343D01*
X1866369D01*
X1866317Y83354D01*
X1866265Y83364D01*
X1866192Y83375D01*
X1866025Y83416D01*
X1865827Y83479D01*
X1865629Y83573D01*
X1865525Y83635D01*
X1865421Y83708D01*
X1865327Y83791D01*
X1865234Y83885D01*
X1865223Y83895D01*
X1865213Y83916D01*
X1865192Y83947D01*
X1865161Y83989D01*
X1865119Y84041D01*
X1865078Y84114D01*
X1865036Y84197D01*
X1864984Y84291D01*
X1864942Y84395D01*
X1864901Y84520D01*
X1864859Y84656D01*
X1864817Y84791D01*
X1864786Y84947D01*
X1864765Y85114D01*
X1864744Y85301D01*
Y85489D01*
Y85499D01*
Y85530D01*
Y85593D01*
X1864755Y85655D01*
Y85749D01*
X1864765Y85843D01*
X1864786Y85957D01*
X1864807Y86072D01*
X1864859Y86332D01*
X1864953Y86593D01*
X1865067Y86842D01*
X1865150Y86967D01*
X1865234Y87072D01*
X1865244Y87082D01*
X1865255Y87092D01*
X1865286Y87124D01*
X1865317Y87155D01*
X1865421Y87249D01*
X1865567Y87353D01*
X1865744Y87446D01*
X1865952Y87540D01*
X1866181Y87603D01*
X1866306Y87613D01*
X1866442Y87624D01*
X1866515D01*
X1866556Y87613D01*
D02*
G37*
G36*
X1845530Y87655D02*
X1845582Y87644D01*
X1845655Y87634D01*
X1845812Y87603D01*
X1845989Y87540D01*
X1846176Y87446D01*
X1846270Y87384D01*
X1846364Y87311D01*
X1846457Y87228D01*
X1846541Y87134D01*
Y87124D01*
X1846561Y87113D01*
X1846582Y87082D01*
X1846613Y87040D01*
X1846645Y86978D01*
X1846676Y86915D01*
X1846718Y86832D01*
X1846759Y86749D01*
X1846801Y86645D01*
X1846843Y86530D01*
X1846874Y86405D01*
X1846905Y86270D01*
X1846936Y86114D01*
X1846957Y85957D01*
X1846968Y85780D01*
X1846978Y85593D01*
Y85582D01*
Y85541D01*
Y85478D01*
X1846968Y85405D01*
Y85301D01*
X1846957Y85187D01*
X1846936Y85072D01*
X1846915Y84937D01*
X1846863Y84656D01*
X1846780Y84364D01*
X1846665Y84093D01*
X1846603Y83968D01*
X1846520Y83854D01*
X1846509Y83843D01*
X1846499Y83833D01*
X1846436Y83770D01*
X1846332Y83677D01*
X1846197Y83583D01*
X1846030Y83479D01*
X1845843Y83385D01*
X1845614Y83323D01*
X1845499Y83312D01*
X1845374Y83302D01*
X1845312D01*
X1845270Y83312D01*
X1845155Y83333D01*
X1844999Y83364D01*
X1844833Y83427D01*
X1844656Y83520D01*
X1844572Y83573D01*
X1844479Y83645D01*
X1844395Y83718D01*
X1844312Y83812D01*
X1844302Y83822D01*
X1844291Y83833D01*
X1844270Y83864D01*
X1844239Y83906D01*
X1844208Y83968D01*
X1844177Y84031D01*
X1844135Y84114D01*
X1844093Y84218D01*
X1844052Y84322D01*
X1844010Y84447D01*
X1843979Y84583D01*
X1843947Y84739D01*
X1843916Y84906D01*
X1843895Y85093D01*
X1843875Y85291D01*
Y85499D01*
Y85510D01*
Y85551D01*
Y85603D01*
X1843885Y85676D01*
Y85770D01*
X1843895Y85874D01*
X1843916Y85989D01*
X1843927Y86114D01*
X1843979Y86374D01*
X1844062Y86645D01*
X1844177Y86905D01*
X1844239Y87020D01*
X1844322Y87124D01*
Y87134D01*
X1844343Y87144D01*
X1844406Y87207D01*
X1844499Y87290D01*
X1844624Y87394D01*
X1844781Y87499D01*
X1844968Y87582D01*
X1845176Y87644D01*
X1845291Y87655D01*
X1845416Y87665D01*
X1845478D01*
X1845530Y87655D01*
D02*
G37*
%LPC*%
G36*
X391651Y963612D02*
X388745D01*
X387017Y957051D01*
X385309Y963612D01*
X382393D01*
Y954000D01*
X384184D01*
X384195Y961561D01*
X386090Y954000D01*
X387965D01*
X389860Y961561D01*
Y954000D01*
X391651D01*
Y963612D01*
D02*
G37*
G36*
X380675Y958405D02*
X377051D01*
Y956562D01*
X380675D01*
Y958405D01*
D02*
G37*
G36*
X346433Y963768D02*
X346007D01*
X345892Y963758D01*
X345736Y963747D01*
X345559Y963727D01*
X345371Y963706D01*
X345163Y963675D01*
X344944Y963633D01*
X344715Y963581D01*
X344486Y963529D01*
X344246Y963456D01*
X344017Y963362D01*
X343799Y963269D01*
X343590Y963154D01*
X343393Y963018D01*
X343382Y963008D01*
X343351Y962987D01*
X343299Y962946D01*
X343226Y962883D01*
X343153Y962800D01*
X343059Y962717D01*
X342955Y962602D01*
X342851Y962477D01*
X342737Y962342D01*
X342632Y962185D01*
X342518Y962008D01*
X342414Y961831D01*
X342320Y961634D01*
X342226Y961415D01*
X342153Y961186D01*
X342091Y960946D01*
X344017Y960582D01*
Y960592D01*
X344028Y960613D01*
X344038Y960655D01*
X344059Y960696D01*
X344080Y960759D01*
X344111Y960832D01*
X344194Y960988D01*
X344299Y961165D01*
X344434Y961352D01*
X344590Y961529D01*
X344788Y961696D01*
X344798D01*
X344809Y961717D01*
X344840Y961738D01*
X344892Y961758D01*
X344944Y961790D01*
X345007Y961831D01*
X345090Y961863D01*
X345173Y961904D01*
X345371Y961977D01*
X345611Y962050D01*
X345882Y962092D01*
X346184Y962113D01*
X346309D01*
X346392Y962102D01*
X346496Y962092D01*
X346621Y962071D01*
X346767Y962040D01*
X346912Y962008D01*
X347069Y961967D01*
X347235Y961915D01*
X347402Y961852D01*
X347569Y961769D01*
X347735Y961675D01*
X347902Y961571D01*
X348058Y961446D01*
X348204Y961300D01*
X348214Y961290D01*
X348235Y961259D01*
X348277Y961217D01*
X348318Y961144D01*
X348381Y961061D01*
X348443Y960956D01*
X348506Y960842D01*
X348579Y960696D01*
X348652Y960540D01*
X348714Y960363D01*
X348777Y960165D01*
X348839Y959946D01*
X348881Y959717D01*
X348922Y959467D01*
X348943Y959197D01*
X348954Y958905D01*
Y958884D01*
Y958832D01*
X348943Y958738D01*
Y958624D01*
X348933Y958478D01*
X348912Y958322D01*
X348891Y958134D01*
X348860Y957936D01*
X348818Y957739D01*
X348766Y957520D01*
X348704Y957312D01*
X348631Y957093D01*
X348548Y956885D01*
X348443Y956687D01*
X348329Y956499D01*
X348193Y956333D01*
X348183Y956322D01*
X348162Y956301D01*
X348110Y956249D01*
X348058Y956197D01*
X347975Y956135D01*
X347891Y956062D01*
X347777Y955989D01*
X347662Y955906D01*
X347527Y955822D01*
X347371Y955750D01*
X347215Y955677D01*
X347038Y955614D01*
X346840Y955562D01*
X346642Y955520D01*
X346433Y955489D01*
X346204Y955479D01*
X346100D01*
X346048Y955489D01*
X345975D01*
X345819Y955510D01*
X345632Y955541D01*
X345434Y955583D01*
X345215Y955635D01*
X344986Y955718D01*
X344976D01*
X344955Y955729D01*
X344923Y955739D01*
X344882Y955760D01*
X344767Y955812D01*
X344621Y955885D01*
X344455Y955968D01*
X344278Y956062D01*
X344101Y956166D01*
X343924Y956291D01*
Y957520D01*
X346142D01*
Y959145D01*
X341966D01*
Y955302D01*
X341976Y955291D01*
X341997Y955281D01*
X342028Y955250D01*
X342080Y955208D01*
X342143Y955156D01*
X342216Y955094D01*
X342309Y955031D01*
X342414Y954958D01*
X342539Y954875D01*
X342664Y954791D01*
X342809Y954708D01*
X342976Y954625D01*
X343143Y954531D01*
X343330Y954448D01*
X343528Y954354D01*
X343736Y954271D01*
X343747D01*
X343788Y954250D01*
X343851Y954229D01*
X343934Y954198D01*
X344038Y954167D01*
X344163Y954125D01*
X344309Y954094D01*
X344465Y954052D01*
X344632Y954010D01*
X344819Y953969D01*
X345007Y953927D01*
X345215Y953896D01*
X345642Y953844D01*
X345861Y953833D01*
X346079Y953823D01*
X346225D01*
X346329Y953833D01*
X346465Y953844D01*
X346621Y953854D01*
X346787Y953875D01*
X346975Y953906D01*
X347173Y953938D01*
X347381Y953979D01*
X347600Y954031D01*
X347829Y954083D01*
X348058Y954156D01*
X348277Y954240D01*
X348495Y954333D01*
X348714Y954448D01*
X348725Y954458D01*
X348766Y954479D01*
X348818Y954510D01*
X348902Y954562D01*
X348985Y954635D01*
X349099Y954708D01*
X349214Y954802D01*
X349339Y954916D01*
X349474Y955031D01*
X349610Y955166D01*
X349756Y955323D01*
X349891Y955479D01*
X350026Y955656D01*
X350162Y955843D01*
X350276Y956041D01*
X350391Y956260D01*
X350401Y956270D01*
X350412Y956312D01*
X350443Y956374D01*
X350474Y956468D01*
X350516Y956572D01*
X350568Y956708D01*
X350620Y956853D01*
X350672Y957020D01*
X350724Y957207D01*
X350776Y957405D01*
X350818Y957614D01*
X350870Y957832D01*
X350901Y958072D01*
X350932Y958311D01*
X350943Y958561D01*
X350953Y958822D01*
Y958968D01*
X350943Y959072D01*
X350932Y959207D01*
X350922Y959363D01*
X350901Y959530D01*
X350870Y959717D01*
X350839Y959915D01*
X350797Y960134D01*
X350745Y960352D01*
X350693Y960582D01*
X350620Y960811D01*
X350537Y961040D01*
X350443Y961269D01*
X350328Y961488D01*
X350318Y961498D01*
X350297Y961540D01*
X350266Y961602D01*
X350214Y961685D01*
X350141Y961779D01*
X350068Y961894D01*
X349974Y962019D01*
X349860Y962154D01*
X349745Y962300D01*
X349599Y962446D01*
X349454Y962591D01*
X349287Y962748D01*
X349110Y962894D01*
X348912Y963029D01*
X348704Y963164D01*
X348485Y963289D01*
X348475Y963300D01*
X348443Y963310D01*
X348391Y963331D01*
X348318Y963362D01*
X348225Y963404D01*
X348120Y963446D01*
X347995Y963487D01*
X347850Y963529D01*
X347693Y963570D01*
X347517Y963612D01*
X347329Y963654D01*
X347121Y963695D01*
X346902Y963727D01*
X346673Y963747D01*
X346433Y963768D01*
D02*
G37*
G36*
X408261Y963612D02*
X406199D01*
X402346Y954000D01*
X404460D01*
X405304Y956187D01*
X409147D01*
X409948Y954000D01*
X412000D01*
X408261Y963612D01*
D02*
G37*
G36*
X401326D02*
X396993D01*
X396868Y963602D01*
X396723D01*
X396556Y963591D01*
X396389Y963581D01*
X396015Y963550D01*
X395650Y963498D01*
X395473Y963477D01*
X395296Y963435D01*
X395140Y963393D01*
X395004Y963352D01*
X394994D01*
X394973Y963341D01*
X394942Y963320D01*
X394890Y963300D01*
X394827Y963269D01*
X394765Y963237D01*
X394598Y963143D01*
X394421Y963008D01*
X394244Y962852D01*
X394057Y962654D01*
X393890Y962425D01*
Y962414D01*
X393869Y962394D01*
X393848Y962362D01*
X393828Y962310D01*
X393786Y962248D01*
X393755Y962175D01*
X393713Y962081D01*
X393671Y961988D01*
X393599Y961769D01*
X393526Y961508D01*
X393484Y961227D01*
X393463Y960915D01*
Y960904D01*
Y960863D01*
Y960811D01*
X393474Y960738D01*
X393484Y960644D01*
X393494Y960540D01*
X393515Y960415D01*
X393546Y960290D01*
X393619Y959998D01*
X393671Y959853D01*
X393734Y959707D01*
X393807Y959551D01*
X393890Y959405D01*
X393984Y959259D01*
X394098Y959124D01*
X394109Y959113D01*
X394130Y959092D01*
X394161Y959061D01*
X394213Y959009D01*
X394286Y958957D01*
X394369Y958895D01*
X394463Y958822D01*
X394577Y958749D01*
X394702Y958665D01*
X394838Y958593D01*
X394994Y958520D01*
X395171Y958447D01*
X395358Y958384D01*
X395556Y958322D01*
X395775Y958270D01*
X396004Y958228D01*
X395994D01*
X395973Y958207D01*
X395942Y958197D01*
X395900Y958166D01*
X395785Y958093D01*
X395640Y957989D01*
X395473Y957874D01*
X395296Y957739D01*
X395119Y957582D01*
X394963Y957426D01*
X394942Y957405D01*
X394921Y957374D01*
X394890Y957343D01*
X394848Y957291D01*
X394796Y957228D01*
X394734Y957155D01*
X394671Y957072D01*
X394598Y956968D01*
X394515Y956853D01*
X394421Y956729D01*
X394327Y956583D01*
X394223Y956426D01*
X394109Y956249D01*
X393984Y956072D01*
X393859Y955864D01*
X392682Y954000D01*
X395004D01*
X396410Y956093D01*
X396421Y956104D01*
X396441Y956145D01*
X396483Y956197D01*
X396535Y956270D01*
X396587Y956364D01*
X396660Y956458D01*
X396816Y956687D01*
X396993Y956926D01*
X397160Y957155D01*
X397243Y957260D01*
X397316Y957353D01*
X397379Y957437D01*
X397441Y957499D01*
X397452Y957510D01*
X397483Y957551D01*
X397545Y957593D01*
X397618Y957655D01*
X397702Y957728D01*
X397806Y957791D01*
X397910Y957853D01*
X398024Y957895D01*
X398035Y957905D01*
X398087Y957916D01*
X398160Y957936D01*
X398264Y957957D01*
X398399Y957978D01*
X398566Y957989D01*
X398764Y958009D01*
X399389D01*
Y954000D01*
X401326D01*
Y963612D01*
D02*
G37*
G36*
X369188D02*
X361565D01*
Y961988D01*
X364398D01*
Y954000D01*
X366335D01*
Y961988D01*
X369188D01*
Y963612D01*
D02*
G37*
G36*
X357556D02*
X355494D01*
X351640Y954000D01*
X353755D01*
X354598Y956187D01*
X358441D01*
X359243Y954000D01*
X361294D01*
X357556Y963612D01*
D02*
G37*
G36*
X372510D02*
X370573D01*
Y957312D01*
X370583Y957218D01*
Y957103D01*
X370594Y956968D01*
X370604Y956833D01*
X370625Y956541D01*
X370667Y956239D01*
X370719Y955937D01*
X370750Y955802D01*
X370792Y955677D01*
Y955666D01*
X370802Y955635D01*
X370823Y955593D01*
X370844Y955541D01*
X370875Y955468D01*
X370917Y955385D01*
X371021Y955187D01*
X371167Y954979D01*
X371344Y954750D01*
X371552Y954531D01*
X371677Y954427D01*
X371812Y954323D01*
X371823Y954312D01*
X371844Y954302D01*
X371885Y954281D01*
X371948Y954250D01*
X372021Y954208D01*
X372114Y954167D01*
X372219Y954125D01*
X372333Y954073D01*
X372468Y954031D01*
X372614Y953979D01*
X372781Y953938D01*
X372948Y953906D01*
X373135Y953865D01*
X373333Y953844D01*
X373551Y953833D01*
X373770Y953823D01*
X373833D01*
X373906Y953833D01*
X373999D01*
X374124Y953844D01*
X374260Y953865D01*
X374405Y953885D01*
X374572Y953927D01*
X374749Y953969D01*
X374926Y954021D01*
X375103Y954083D01*
X375291Y954156D01*
X375468Y954250D01*
X375645Y954354D01*
X375801Y954479D01*
X375957Y954614D01*
X375967Y954625D01*
X375988Y954656D01*
X376030Y954698D01*
X376082Y954760D01*
X376134Y954844D01*
X376197Y954948D01*
X376270Y955073D01*
X376343Y955208D01*
X376415Y955364D01*
X376488Y955541D01*
X376551Y955729D01*
X376603Y955937D01*
X376655Y956166D01*
X376697Y956416D01*
X376717Y956676D01*
X376728Y956958D01*
X374895Y957166D01*
Y957155D01*
Y957135D01*
Y957083D01*
X374884Y957030D01*
Y956958D01*
X374874Y956885D01*
X374853Y956708D01*
X374822Y956510D01*
X374780Y956322D01*
X374728Y956135D01*
X374697Y956062D01*
X374655Y955989D01*
Y955979D01*
X374645Y955968D01*
X374593Y955906D01*
X374520Y955833D01*
X374416Y955739D01*
X374281Y955645D01*
X374114Y955562D01*
X373926Y955500D01*
X373812Y955489D01*
X373697Y955479D01*
X373635D01*
X373593Y955489D01*
X373479Y955500D01*
X373343Y955520D01*
X373187Y955573D01*
X373041Y955635D01*
X372895Y955718D01*
X372781Y955843D01*
X372771Y955864D01*
X372760Y955885D01*
X372739Y955916D01*
X372718Y955968D01*
X372698Y956020D01*
X372666Y956093D01*
X372645Y956177D01*
X372625Y956270D01*
X372593Y956385D01*
X372573Y956510D01*
X372552Y956656D01*
X372531Y956812D01*
X372520Y956989D01*
X372510Y957176D01*
Y957384D01*
Y963612D01*
D02*
G37*
%LPD*%
G36*
X408553Y957812D02*
X405918D01*
X407251Y961373D01*
X408553Y957812D01*
D02*
G37*
G36*
X399389Y959540D02*
X397618D01*
X397493Y959551D01*
X397212D01*
X396910Y959572D01*
X396629Y959592D01*
X396504Y959603D01*
X396389Y959613D01*
X396285Y959634D01*
X396212Y959655D01*
X396191Y959665D01*
X396150Y959676D01*
X396087Y959707D01*
X396015Y959749D01*
X395921Y959801D01*
X395827Y959874D01*
X395744Y959957D01*
X395660Y960061D01*
X395650Y960071D01*
X395629Y960113D01*
X395598Y960175D01*
X395556Y960259D01*
X395525Y960363D01*
X395494Y960488D01*
X395473Y960634D01*
X395463Y960790D01*
Y960800D01*
Y960811D01*
Y960873D01*
X395473Y960956D01*
X395494Y961071D01*
X395525Y961196D01*
X395577Y961321D01*
X395640Y961446D01*
X395723Y961571D01*
X395733Y961581D01*
X395775Y961623D01*
X395827Y961675D01*
X395910Y961727D01*
X396015Y961800D01*
X396139Y961852D01*
X396296Y961904D01*
X396462Y961946D01*
X396473D01*
X396514Y961956D01*
X396598D01*
X396650Y961967D01*
X396806D01*
X396910Y961977D01*
X397160D01*
X397306Y961988D01*
X399389D01*
Y959540D01*
D02*
G37*
G36*
X357847Y957812D02*
X355212D01*
X356545Y961373D01*
X357847Y957812D01*
D02*
G37*
%LPC*%
G36*
X961868Y932627D02*
X961562D01*
X960980Y932599D01*
X960424Y932543D01*
X959897Y932432D01*
X959425Y932294D01*
X958953Y932127D01*
X958537Y931933D01*
X958148Y931738D01*
X957787Y931544D01*
X957482Y931322D01*
X957204Y931128D01*
X956982Y930933D01*
X956787Y930767D01*
X956621Y930628D01*
X956510Y930517D01*
X956454Y930461D01*
X956426Y930434D01*
X956093Y930017D01*
X955788Y929517D01*
X955538Y929018D01*
X955288Y928490D01*
X955122Y927963D01*
X954955Y927407D01*
X954816Y926852D01*
X954733Y926325D01*
X954650Y925825D01*
X954594Y925353D01*
X954539Y924937D01*
X954511Y924576D01*
X954483Y924270D01*
Y924048D01*
Y923909D01*
Y923854D01*
X954511Y923049D01*
X954566Y922271D01*
X954678Y921577D01*
X954789Y920911D01*
X954955Y920328D01*
X955122Y919773D01*
X955288Y919273D01*
X955483Y918829D01*
X955677Y918440D01*
X955844Y918107D01*
X956010Y917802D01*
X956177Y917580D01*
X956288Y917385D01*
X956399Y917274D01*
X956454Y917191D01*
X956482Y917163D01*
X956871Y916775D01*
X957287Y916441D01*
X957704Y916136D01*
X958120Y915886D01*
X958537Y915664D01*
X958981Y915497D01*
X959369Y915331D01*
X959758Y915220D01*
X960147Y915136D01*
X960480Y915053D01*
X960785Y914998D01*
X961035Y914970D01*
X961257D01*
X961424Y914942D01*
X961562D01*
X962118Y914970D01*
X962673Y915053D01*
X963201Y915164D01*
X963672Y915303D01*
X964117Y915470D01*
X964533Y915664D01*
X964922Y915858D01*
X965283Y916080D01*
X965588Y916275D01*
X965866Y916469D01*
X966115Y916663D01*
X966310Y916830D01*
X966477Y916997D01*
X966588Y917108D01*
X966643Y917163D01*
X966671Y917191D01*
X967032Y917635D01*
X967337Y918135D01*
X967587Y918635D01*
X967837Y919162D01*
X968031Y919717D01*
X968170Y920273D01*
X968309Y920800D01*
X968420Y921328D01*
X968503Y921827D01*
X968559Y922299D01*
X968614Y922716D01*
X968642Y923076D01*
Y923382D01*
X968670Y923604D01*
Y923743D01*
Y923798D01*
X968642Y924603D01*
X968586Y925353D01*
X968503Y926047D01*
X968364Y926686D01*
X968225Y927296D01*
X968059Y927824D01*
X967865Y928324D01*
X967698Y928768D01*
X967504Y929156D01*
X967337Y929490D01*
X967170Y929767D01*
X967032Y929989D01*
X966893Y930184D01*
X966810Y930295D01*
X966754Y930378D01*
X966726Y930406D01*
X966338Y930794D01*
X965949Y931128D01*
X965505Y931433D01*
X965088Y931683D01*
X964644Y931905D01*
X964228Y932099D01*
X963811Y932238D01*
X963395Y932349D01*
X963034Y932432D01*
X962673Y932516D01*
X962368Y932571D01*
X962090Y932599D01*
X961868Y932627D01*
D02*
G37*
G36*
X952868Y971627D02*
X952563D01*
X951980Y971599D01*
X951424Y971543D01*
X950897Y971432D01*
X950425Y971294D01*
X949953Y971127D01*
X949537Y970933D01*
X949148Y970738D01*
X948787Y970544D01*
X948482Y970322D01*
X948204Y970128D01*
X947982Y969933D01*
X947787Y969767D01*
X947621Y969628D01*
X947510Y969517D01*
X947454Y969461D01*
X947427Y969434D01*
X947093Y969017D01*
X946788Y968517D01*
X946538Y968018D01*
X946288Y967490D01*
X946122Y966963D01*
X945955Y966407D01*
X945816Y965852D01*
X945733Y965325D01*
X945650Y964825D01*
X945594Y964353D01*
X945539Y963937D01*
X945511Y963576D01*
X945483Y963270D01*
Y963048D01*
Y962909D01*
Y962854D01*
X945511Y962049D01*
X945566Y961271D01*
X945677Y960577D01*
X945789Y959911D01*
X945955Y959328D01*
X946122Y958773D01*
X946288Y958273D01*
X946483Y957829D01*
X946677Y957440D01*
X946843Y957107D01*
X947010Y956802D01*
X947177Y956580D01*
X947288Y956385D01*
X947399Y956274D01*
X947454Y956191D01*
X947482Y956163D01*
X947871Y955775D01*
X948287Y955441D01*
X948704Y955136D01*
X949120Y954886D01*
X949537Y954664D01*
X949981Y954498D01*
X950369Y954331D01*
X950758Y954220D01*
X951147Y954137D01*
X951480Y954053D01*
X951785Y953998D01*
X952035Y953970D01*
X952257D01*
X952424Y953942D01*
X952563D01*
X953118Y953970D01*
X953673Y954053D01*
X954201Y954164D01*
X954672Y954303D01*
X955117Y954470D01*
X955533Y954664D01*
X955922Y954858D01*
X956283Y955080D01*
X956588Y955275D01*
X956866Y955469D01*
X957116Y955664D01*
X957310Y955830D01*
X957477Y955997D01*
X957588Y956108D01*
X957643Y956163D01*
X957671Y956191D01*
X958032Y956635D01*
X958337Y957135D01*
X958587Y957635D01*
X958837Y958162D01*
X959031Y958717D01*
X959170Y959273D01*
X959309Y959800D01*
X959420Y960328D01*
X959503Y960827D01*
X959559Y961299D01*
X959614Y961716D01*
X959642Y962076D01*
Y962382D01*
X959670Y962604D01*
Y962743D01*
Y962798D01*
X959642Y963604D01*
X959586Y964353D01*
X959503Y965047D01*
X959364Y965686D01*
X959225Y966296D01*
X959059Y966824D01*
X958865Y967324D01*
X958698Y967768D01*
X958504Y968157D01*
X958337Y968490D01*
X958170Y968767D01*
X958032Y968989D01*
X957893Y969184D01*
X957810Y969295D01*
X957754Y969378D01*
X957726Y969406D01*
X957338Y969794D01*
X956949Y970128D01*
X956505Y970433D01*
X956088Y970683D01*
X955644Y970905D01*
X955228Y971099D01*
X954811Y971238D01*
X954395Y971349D01*
X954034Y971432D01*
X953673Y971516D01*
X953368Y971571D01*
X953090Y971599D01*
X952868Y971627D01*
D02*
G37*
%LPD*%
D10*
X420501Y141000D02*
G03*
X420501Y141000I-1000J0D01*
G01*
X419501Y268551D02*
G03*
X419501Y268551I-1000J0D01*
G01*
X1986250Y237760D02*
Y255250D01*
X1955750Y237750D02*
Y255240D01*
X1950508Y318501D02*
Y326001D01*
Y318501D02*
X1959008D01*
X1950508Y340001D02*
Y347501D01*
X1959008D01*
X274500Y81850D02*
X344500D01*
X274500Y186850D02*
X344500D01*
X88256Y1080434D02*
X99256D01*
X88256Y1098434D02*
X99256D01*
X1969750Y199750D02*
X1974750D01*
X1969750Y185750D02*
X1974750D01*
X397501Y139000D02*
Y143000D01*
Y117000D02*
Y121000D01*
X415501Y117000D02*
Y121000D01*
Y139000D02*
Y143000D01*
X306603Y880650D02*
X331703D01*
Y909500D01*
Y944503D02*
Y973353D01*
X306603D02*
X331703D01*
X1500D02*
X26600D01*
X1500Y944503D02*
Y973353D01*
Y880650D02*
Y909500D01*
Y880650D02*
X26600D01*
X760650Y917000D02*
X766150D01*
X760650D02*
Y929000D01*
Y971000D02*
X766150D01*
X760650Y959000D02*
Y971000D01*
X821150Y917000D02*
X826650D01*
Y929000D01*
X821150Y971000D02*
X826650D01*
Y959000D02*
Y971000D01*
X223704Y484926D02*
Y495926D01*
X205704Y484926D02*
Y495926D01*
X830000Y917000D02*
X835500D01*
X830000D02*
Y929000D01*
Y971000D02*
X835500D01*
X830000Y959000D02*
Y971000D01*
X890500Y917000D02*
X896000D01*
Y929000D01*
X890500Y971000D02*
X896000D01*
Y959000D02*
Y971000D01*
X196367Y241030D02*
X201367D01*
X196367Y227030D02*
X201367D01*
X195036Y293144D02*
X200035D01*
X195036Y279144D02*
X200035D01*
X656077Y498970D02*
Y509970D01*
X638077Y498970D02*
Y509970D01*
X783572Y691690D02*
X794572D01*
X783572Y709690D02*
X794572D01*
X783572Y717052D02*
X794572D01*
X783572Y735052D02*
X794572D01*
X325794Y487408D02*
Y498408D01*
X307794Y487408D02*
Y498408D01*
X347408Y547098D02*
X358408D01*
X347408Y565098D02*
X358408D01*
X209260Y534448D02*
Y544448D01*
X227260Y534448D02*
Y544448D01*
X242000Y831000D02*
Y841000D01*
X260000Y831000D02*
Y841000D01*
X691600Y917000D02*
X697100D01*
X691600D02*
Y929000D01*
Y971000D02*
X697100D01*
X691600Y959000D02*
Y971000D01*
X752100Y917000D02*
X757600D01*
Y929000D01*
X752100Y971000D02*
X757600D01*
Y959000D02*
Y971000D01*
X137778Y1098434D02*
X147778D01*
X137778Y1080434D02*
X147778D01*
X196367Y222247D02*
X201367D01*
X196367Y208247D02*
X201367D01*
X195077Y184014D02*
X200077D01*
X195077Y170014D02*
X200077D01*
X195077Y165231D02*
X200077D01*
X195077Y151232D02*
X200077D01*
X196409Y114625D02*
X201409D01*
X196409Y100625D02*
X201409D01*
X196409Y95452D02*
X201409D01*
X196409Y81453D02*
X201409D01*
X274500Y209050D02*
X344500D01*
X274500Y314050D02*
X344500D01*
X396501Y266551D02*
Y270551D01*
Y244551D02*
Y248551D01*
X414501Y244551D02*
Y248551D01*
Y266551D02*
Y270551D01*
X195036Y310809D02*
X200035D01*
X195036Y296809D02*
X200035D01*
X1950508Y418501D02*
Y426001D01*
Y418501D02*
X1959008D01*
X1950508Y440001D02*
Y447501D01*
X1959008D01*
X1950508Y385501D02*
Y393001D01*
Y385501D02*
X1959008D01*
X1950508Y407001D02*
Y414501D01*
X1959008D01*
X1950508Y352501D02*
Y360001D01*
Y352501D02*
X1959008D01*
X1950508Y374001D02*
Y381501D01*
X1959008D01*
X1967500Y307500D02*
X1972500D01*
X1967500Y293500D02*
X1972500D01*
X1967500Y287500D02*
X1972500D01*
X1967500Y273500D02*
X1972500D01*
X1969750Y220250D02*
X1974750D01*
X1969750Y206250D02*
X1974750D01*
D11*
X822900Y912750D02*
G03*
X822900Y912750I-1250J0D01*
G01*
X892250D02*
G03*
X892250Y912750I-1250J0D01*
G01*
X753850D02*
G03*
X753850Y912750I-1250J0D01*
G01*
D12*
X358000Y187300D02*
G03*
X358000Y187300I-2000J0D01*
G01*
X358000Y314500D02*
G03*
X358000Y314500I-2000J0D01*
G01*
D13*
X1956000Y260000D02*
G03*
X1956000Y260000I-1500J0D01*
G01*
X1973008Y349751D02*
G03*
X1973008Y349751I-1500J0D01*
G01*
X2008068Y572375D02*
G03*
X2008068Y572375I-1500J0D01*
G01*
X3227268Y572375D02*
G03*
X3227268Y572375I-1500J0D01*
G01*
X2922468Y572375D02*
G03*
X2922468Y572375I-1500J0D01*
G01*
X2617668D02*
G03*
X2617668Y572375I-1500J0D01*
G01*
X2312868D02*
G03*
X2312868Y572375I-1500J0D01*
G01*
X1973008Y449751D02*
G03*
X1973008Y449751I-1500J0D01*
G01*
Y416751D02*
G03*
X1973008Y416751I-1500J0D01*
G01*
Y383751D02*
G03*
X1973008Y383751I-1500J0D01*
G01*
D14*
X1813170Y455166D02*
X1886830D01*
X1813170Y447546D02*
Y455166D01*
X1886830Y447546D02*
Y455166D01*
Y109726D02*
Y117346D01*
X1813170Y109726D02*
Y117346D01*
Y109726D02*
X1886830D01*
X456280Y274945D02*
X463900D01*
X456280Y201285D02*
X463900D01*
X456280D02*
Y274945D01*
X674720Y201285D02*
Y274945D01*
X667100Y201285D02*
X674720D01*
X667100Y274945D02*
X674720D01*
X1966341Y1170912D02*
Y1178532D01*
X1892681Y1170912D02*
Y1178532D01*
X1966341D01*
X1892681Y1036292D02*
X1966341D01*
X1892681D02*
Y1043912D01*
X1966341Y1036292D02*
Y1043912D01*
X1901190Y482087D02*
X1891033Y466852D01*
Y482087D02*
X1901190Y466852D01*
X1885955D02*
X1880877D01*
X1883416D01*
Y482087D01*
X1885955Y479548D01*
X1873259D02*
X1870720Y482087D01*
X1865641D01*
X1863102Y479548D01*
Y477009D01*
X1865641Y474469D01*
X1863102Y471930D01*
Y469391D01*
X1865641Y466852D01*
X1870720D01*
X1873259Y469391D01*
Y471930D01*
X1870720Y474469D01*
X1873259Y477009D01*
Y479548D01*
X1870720Y474469D02*
X1865641D01*
X329500Y994235D02*
X319343Y979000D01*
Y994235D02*
X329500Y979000D01*
X314265Y981539D02*
X311726Y979000D01*
X306647D01*
X304108Y981539D01*
Y991696D01*
X306647Y994235D01*
X311726D01*
X314265Y991696D01*
Y989157D01*
X311726Y986618D01*
X304108D01*
D15*
X1807000Y450046D02*
G03*
X1807000Y450046I-2500J0D01*
G01*
X463900Y192615D02*
G03*
X463900Y192615I-2500J0D01*
G01*
X1886511Y1173412D02*
G03*
X1886511Y1173412I-2500J0D01*
G01*
X900000Y943000D02*
X980000D01*
D17*
X194087Y122722D02*
G03*
X194087Y122722I-600J0D01*
G01*
X1994600Y250400D02*
G03*
X1994600Y250400I-600J0D01*
G01*
X193310Y250749D02*
G03*
X193310Y250749I-600J0D01*
G01*
X2147268Y568375D02*
X2155068D01*
Y576175D01*
X2147268Y710375D02*
X2155068D01*
Y702575D02*
Y710375D01*
X2013068D02*
X2020868D01*
X2013068Y702575D02*
Y710375D01*
Y568375D02*
X2020868D01*
X2013068D02*
Y576175D01*
X3366468Y568375D02*
X3374268D01*
Y576175D01*
X3366468Y710375D02*
X3374268D01*
Y702575D02*
Y710375D01*
X3232268D02*
X3240068D01*
X3232268Y702575D02*
Y710375D01*
Y568375D02*
X3240068D01*
X3232268D02*
Y576175D01*
X3061668Y568375D02*
X3069468D01*
Y576175D01*
X3061668Y710375D02*
X3069468D01*
Y702575D02*
Y710375D01*
X2927468D02*
X2935268D01*
X2927468Y702575D02*
Y710375D01*
Y568375D02*
X2935268D01*
X2927468D02*
Y576175D01*
X2756868Y568375D02*
X2764668D01*
Y576175D01*
X2756868Y710375D02*
X2764668D01*
Y702575D02*
Y710375D01*
X2622668D02*
X2630468D01*
X2622668Y702575D02*
Y710375D01*
Y568375D02*
X2630468D01*
X2622668D02*
Y576175D01*
X2452068Y568375D02*
X2459868D01*
Y576175D01*
X2452068Y710375D02*
X2459868D01*
Y702575D02*
Y710375D01*
X2317868D02*
X2325668D01*
X2317868Y702575D02*
Y710375D01*
Y568375D02*
X2325668D01*
X2317868D02*
Y576175D01*
D18*
X194137Y125722D02*
Y144221D01*
X207637Y121222D02*
X207638Y144221D01*
X1997000Y249750D02*
X2015500D01*
X1992500Y236250D02*
X2015499Y236249D01*
X193360Y253749D02*
Y272249D01*
X206860Y249249D02*
X206861Y272249D01*
X3500000Y1280000D02*
X3500000Y0D01*
X0D02*
Y1280000D01*
X3500000D01*
X0Y0D02*
X3500000D01*
D22*
X2179086Y732359D02*
Y723895D01*
X2177393Y722202D01*
X2174007D01*
X2172315Y723895D01*
Y732359D01*
X2163851Y722202D02*
Y732359D01*
X2168929Y727281D01*
X2162158D01*
X2158772Y722202D02*
Y728973D01*
X2155387Y732359D01*
X2152001Y728973D01*
Y722202D01*
Y727281D01*
X2158772D01*
X283000Y820157D02*
Y810000D01*
X276229D01*
X272843D02*
X269458D01*
X271150D01*
Y820157D01*
X272843Y818464D01*
X518160Y850900D02*
X508003D01*
Y845822D01*
X509696Y844129D01*
X513082D01*
X514774Y845822D01*
Y850900D01*
Y847514D02*
X518160Y844129D01*
Y840743D02*
Y837358D01*
Y839051D01*
X508003D01*
X509696Y840743D01*
X516467Y832279D02*
X518160Y830587D01*
Y827201D01*
X516467Y825508D01*
X509696D01*
X508003Y827201D01*
Y830587D01*
X509696Y832279D01*
X511389D01*
X513082Y830587D01*
Y825508D01*
X516467Y822123D02*
X518160Y820430D01*
Y817044D01*
X516467Y815351D01*
X509696D01*
X508003Y817044D01*
Y820430D01*
X509696Y822123D01*
X511389D01*
X513082Y820430D01*
Y815351D01*
X237000Y504000D02*
X226843D01*
Y498922D01*
X228536Y497229D01*
X231922D01*
X233614Y498922D01*
Y504000D01*
Y500614D02*
X237000Y497229D01*
X226843Y487072D02*
Y493843D01*
X231922D01*
X230229Y490458D01*
Y488765D01*
X231922Y487072D01*
X235307D01*
X237000Y488765D01*
Y492150D01*
X235307Y493843D01*
X226843Y476915D02*
Y483687D01*
X231922D01*
X230229Y480301D01*
Y478608D01*
X231922Y476915D01*
X235307D01*
X237000Y478608D01*
Y481994D01*
X235307Y483687D01*
X3398286Y732359D02*
Y723895D01*
X3396593Y722202D01*
X3393207D01*
X3391515Y723895D01*
Y732359D01*
X3383051Y722202D02*
Y732359D01*
X3388129Y727281D01*
X3381358D01*
X3371201Y732359D02*
X3377972D01*
Y722202D01*
X3371201D01*
X3377972Y727281D02*
X3374587D01*
X3093486Y732359D02*
Y723895D01*
X3091793Y722202D01*
X3088408D01*
X3086715Y723895D01*
Y732359D01*
X3078251Y722202D02*
Y732359D01*
X3083329Y727281D01*
X3076558D01*
X3073172Y732359D02*
Y722202D01*
X3068094D01*
X3066401Y723895D01*
Y730666D01*
X3068094Y732359D01*
X3073172D01*
X2788686D02*
Y723895D01*
X2786993Y722202D01*
X2783607D01*
X2781915Y723895D01*
Y732359D01*
X2773451Y722202D02*
Y732359D01*
X2778529Y727281D01*
X2771758D01*
X2761601Y730666D02*
X2763294Y732359D01*
X2766680D01*
X2768372Y730666D01*
Y723895D01*
X2766680Y722202D01*
X2763294D01*
X2761601Y723895D01*
X2483886Y732359D02*
Y723895D01*
X2482193Y722202D01*
X2478807D01*
X2477115Y723895D01*
Y732359D01*
X2468651Y722202D02*
Y732359D01*
X2473729Y727281D01*
X2466958D01*
X2463572Y732359D02*
Y722202D01*
X2458494D01*
X2456801Y723895D01*
Y725588D01*
X2458494Y727281D01*
X2463572D01*
X2458494D01*
X2456801Y728973D01*
Y730666D01*
X2458494Y732359D01*
X2463572D01*
X3296473Y525490D02*
Y518719D01*
Y522104D01*
X3306630D01*
Y515333D02*
X3296473D01*
Y510255D01*
X3298166Y508562D01*
X3301552D01*
X3303245Y510255D01*
Y515333D01*
X3296473Y498405D02*
X3298166Y501791D01*
X3301552Y505176D01*
X3304937D01*
X3306630Y503484D01*
Y500098D01*
X3304937Y498405D01*
X3303245D01*
X3301552Y500098D01*
Y505176D01*
X3296473Y488249D02*
X3298166Y491634D01*
X3301552Y495020D01*
X3304937D01*
X3306630Y493327D01*
Y489941D01*
X3304937Y488249D01*
X3303245D01*
X3301552Y489941D01*
Y495020D01*
X3296473Y478092D02*
Y484863D01*
X3306630D01*
Y478092D01*
X3301552Y484863D02*
Y481477D01*
X2991674Y525490D02*
Y518719D01*
Y522104D01*
X3001830D01*
Y515333D02*
X2991674D01*
Y510255D01*
X2993366Y508562D01*
X2996752D01*
X2998445Y510255D01*
Y515333D01*
X2991674Y498405D02*
X2993366Y501791D01*
X2996752Y505176D01*
X3000138D01*
X3001830Y503484D01*
Y500098D01*
X3000138Y498405D01*
X2998445D01*
X2996752Y500098D01*
Y505176D01*
X2991674Y488249D02*
X2993366Y491634D01*
X2996752Y495020D01*
X3000138D01*
X3001830Y493327D01*
Y489941D01*
X3000138Y488249D01*
X2998445D01*
X2996752Y489941D01*
Y495020D01*
X2991674Y484863D02*
X3001830D01*
Y479785D01*
X3000138Y478092D01*
X2993366D01*
X2991674Y479785D01*
Y484863D01*
X2686873Y525490D02*
Y518719D01*
Y522104D01*
X2697030D01*
Y515333D02*
X2686873D01*
Y510255D01*
X2688566Y508562D01*
X2691952D01*
X2693645Y510255D01*
Y515333D01*
X2686873Y498405D02*
X2688566Y501791D01*
X2691952Y505176D01*
X2695338D01*
X2697030Y503484D01*
Y500098D01*
X2695338Y498405D01*
X2693645D01*
X2691952Y500098D01*
Y505176D01*
X2686873Y488249D02*
X2688566Y491634D01*
X2691952Y495020D01*
X2695338D01*
X2697030Y493327D01*
Y489941D01*
X2695338Y488249D01*
X2693645D01*
X2691952Y489941D01*
Y495020D01*
X2688566Y478092D02*
X2686873Y479785D01*
Y483170D01*
X2688566Y484863D01*
X2695338D01*
X2697030Y483170D01*
Y479785D01*
X2695338Y478092D01*
X2382074Y525490D02*
Y518719D01*
Y522104D01*
X2392230D01*
Y515333D02*
X2382074D01*
Y510255D01*
X2383766Y508562D01*
X2387152D01*
X2388845Y510255D01*
Y515333D01*
X2382074Y498405D02*
X2383766Y501791D01*
X2387152Y505176D01*
X2390538D01*
X2392230Y503484D01*
Y500098D01*
X2390538Y498405D01*
X2388845D01*
X2387152Y500098D01*
Y505176D01*
X2382074Y488249D02*
X2383766Y491634D01*
X2387152Y495020D01*
X2390538D01*
X2392230Y493327D01*
Y489941D01*
X2390538Y488249D01*
X2388845D01*
X2387152Y489941D01*
Y495020D01*
X2382074Y484863D02*
X2392230D01*
Y479785D01*
X2390538Y478092D01*
X2388845D01*
X2387152Y479785D01*
Y484863D01*
Y479785D01*
X2385459Y478092D01*
X2383766D01*
X2382074Y479785D01*
Y484863D01*
X2077274Y525490D02*
Y518719D01*
Y522104D01*
X2087430D01*
Y515333D02*
X2077274D01*
Y510255D01*
X2078966Y508562D01*
X2082352D01*
X2084045Y510255D01*
Y515333D01*
X2077274Y498405D02*
X2078966Y501791D01*
X2082352Y505176D01*
X2085737D01*
X2087430Y503484D01*
Y500098D01*
X2085737Y498405D01*
X2084045D01*
X2082352Y500098D01*
Y505176D01*
X2077274Y488249D02*
X2078966Y491634D01*
X2082352Y495020D01*
X2085737D01*
X2087430Y493327D01*
Y489941D01*
X2085737Y488249D01*
X2084045D01*
X2082352Y489941D01*
Y495020D01*
X2087430Y484863D02*
X2080659D01*
X2077274Y481477D01*
X2080659Y478092D01*
X2087430D01*
X2082352D01*
Y484863D01*
X3311288Y516760D02*
Y509989D01*
Y513375D01*
X3321445D01*
Y506604D02*
X3311288D01*
Y501525D01*
X3312981Y499832D01*
X3316367D01*
X3318060Y501525D01*
Y506604D01*
X3311288Y489676D02*
X3312981Y493061D01*
X3316367Y496447D01*
X3319753D01*
X3321445Y494754D01*
Y491368D01*
X3319753Y489676D01*
X3318060D01*
X3316367Y491368D01*
Y496447D01*
X3312981Y486290D02*
X3311288Y484597D01*
Y481212D01*
X3312981Y479519D01*
X3314674D01*
X3316367Y481212D01*
Y482904D01*
Y481212D01*
X3318060Y479519D01*
X3319753D01*
X3321445Y481212D01*
Y484597D01*
X3319753Y486290D01*
X3311288Y469362D02*
Y476133D01*
X3321445D01*
Y469362D01*
X3316367Y476133D02*
Y472748D01*
X3006489Y516760D02*
Y509989D01*
Y513375D01*
X3016646D01*
Y506604D02*
X3006489D01*
Y501525D01*
X3008181Y499832D01*
X3011567D01*
X3013260Y501525D01*
Y506604D01*
X3006489Y489676D02*
X3008181Y493061D01*
X3011567Y496447D01*
X3014953D01*
X3016646Y494754D01*
Y491368D01*
X3014953Y489676D01*
X3013260D01*
X3011567Y491368D01*
Y496447D01*
X3008181Y486290D02*
X3006489Y484597D01*
Y481212D01*
X3008181Y479519D01*
X3009874D01*
X3011567Y481212D01*
Y482904D01*
Y481212D01*
X3013260Y479519D01*
X3014953D01*
X3016646Y481212D01*
Y484597D01*
X3014953Y486290D01*
X3006489Y476133D02*
X3016646D01*
Y471055D01*
X3014953Y469362D01*
X3008181D01*
X3006489Y471055D01*
Y476133D01*
X2701689Y516760D02*
Y509989D01*
Y513375D01*
X2711845D01*
Y506604D02*
X2701689D01*
Y501525D01*
X2703381Y499832D01*
X2706767D01*
X2708460Y501525D01*
Y506604D01*
X2701689Y489676D02*
X2703381Y493061D01*
X2706767Y496447D01*
X2710153D01*
X2711845Y494754D01*
Y491368D01*
X2710153Y489676D01*
X2708460D01*
X2706767Y491368D01*
Y496447D01*
X2703381Y486290D02*
X2701689Y484597D01*
Y481212D01*
X2703381Y479519D01*
X2705074D01*
X2706767Y481212D01*
Y482905D01*
Y481212D01*
X2708460Y479519D01*
X2710153D01*
X2711845Y481212D01*
Y484597D01*
X2710153Y486290D01*
X2703381Y469362D02*
X2701689Y471055D01*
Y474440D01*
X2703381Y476133D01*
X2710153D01*
X2711845Y474440D01*
Y471055D01*
X2710153Y469362D01*
X2396889Y516760D02*
Y509989D01*
Y513375D01*
X2407045D01*
Y506604D02*
X2396889D01*
Y501525D01*
X2398581Y499832D01*
X2401967D01*
X2403660Y501525D01*
Y506604D01*
X2396889Y489676D02*
X2398581Y493061D01*
X2401967Y496447D01*
X2405353D01*
X2407045Y494754D01*
Y491368D01*
X2405353Y489676D01*
X2403660D01*
X2401967Y491368D01*
Y496447D01*
X2398581Y486290D02*
X2396889Y484597D01*
Y481212D01*
X2398581Y479519D01*
X2400274D01*
X2401967Y481212D01*
Y482904D01*
Y481212D01*
X2403660Y479519D01*
X2405353D01*
X2407045Y481212D01*
Y484597D01*
X2405353Y486290D01*
X2396889Y476133D02*
X2407045D01*
Y471055D01*
X2405353Y469362D01*
X2403660D01*
X2401967Y471055D01*
Y476133D01*
Y471055D01*
X2400274Y469362D01*
X2398581D01*
X2396889Y471055D01*
Y476133D01*
X2092089Y516760D02*
Y509989D01*
Y513375D01*
X2102245D01*
Y506604D02*
X2092089D01*
Y501525D01*
X2093781Y499832D01*
X2097167D01*
X2098860Y501525D01*
Y506604D01*
X2092089Y489676D02*
X2093781Y493061D01*
X2097167Y496447D01*
X2100553D01*
X2102245Y494754D01*
Y491368D01*
X2100553Y489676D01*
X2098860D01*
X2097167Y491368D01*
Y496447D01*
X2093781Y486290D02*
X2092089Y484597D01*
Y481212D01*
X2093781Y479519D01*
X2095474D01*
X2097167Y481212D01*
Y482904D01*
Y481212D01*
X2098860Y479519D01*
X2100553D01*
X2102245Y481212D01*
Y484597D01*
X2100553Y486290D01*
X2102245Y476133D02*
X2095474D01*
X2092089Y472748D01*
X2095474Y469362D01*
X2102245D01*
X2097167D01*
Y476133D01*
X3282843Y799000D02*
Y792229D01*
Y795614D01*
X3293000D01*
Y788843D02*
X3282843D01*
Y783765D01*
X3284536Y782072D01*
X3287921D01*
X3289614Y783765D01*
Y788843D01*
X3282843Y771915D02*
X3284536Y775301D01*
X3287921Y778687D01*
X3291307D01*
X3293000Y776994D01*
Y773608D01*
X3291307Y771915D01*
X3289614D01*
X3287921Y773608D01*
Y778687D01*
X3293000Y761759D02*
Y768530D01*
X3286229Y761759D01*
X3284536D01*
X3282843Y763452D01*
Y766837D01*
X3284536Y768530D01*
X3282843Y751602D02*
Y758373D01*
X3293000D01*
Y751602D01*
X3287921Y758373D02*
Y754987D01*
X2977843Y799000D02*
Y792229D01*
Y795614D01*
X2988000D01*
Y788843D02*
X2977843D01*
Y783765D01*
X2979536Y782072D01*
X2982921D01*
X2984614Y783765D01*
Y788843D01*
X2977843Y771915D02*
X2979536Y775301D01*
X2982921Y778687D01*
X2986307D01*
X2988000Y776994D01*
Y773608D01*
X2986307Y771915D01*
X2984614D01*
X2982921Y773608D01*
Y778687D01*
X2988000Y761759D02*
Y768530D01*
X2981229Y761759D01*
X2979536D01*
X2977843Y763452D01*
Y766837D01*
X2979536Y768530D01*
X2977843Y758373D02*
X2988000D01*
Y753295D01*
X2986307Y751602D01*
X2979536D01*
X2977843Y753295D01*
Y758373D01*
X2672782Y798797D02*
Y792026D01*
Y795412D01*
X2682938D01*
Y788640D02*
X2672782D01*
Y783562D01*
X2674474Y781869D01*
X2677860D01*
X2679553Y783562D01*
Y788640D01*
X2672782Y771712D02*
X2674474Y775098D01*
X2677860Y778484D01*
X2681245D01*
X2682938Y776791D01*
Y773405D01*
X2681245Y771712D01*
X2679553D01*
X2677860Y773405D01*
Y778484D01*
X2682938Y761556D02*
Y768327D01*
X2676167Y761556D01*
X2674474D01*
X2672782Y763249D01*
Y766634D01*
X2674474Y768327D01*
Y751399D02*
X2672782Y753092D01*
Y756477D01*
X2674474Y758170D01*
X2681245D01*
X2682938Y756477D01*
Y753092D01*
X2681245Y751399D01*
X2367982Y798797D02*
Y792026D01*
Y795412D01*
X2378138D01*
Y788640D02*
X2367982D01*
Y783562D01*
X2369674Y781869D01*
X2373060D01*
X2374753Y783562D01*
Y788640D01*
X2367982Y771712D02*
X2369674Y775098D01*
X2373060Y778484D01*
X2376446D01*
X2378138Y776791D01*
Y773405D01*
X2376446Y771712D01*
X2374753D01*
X2373060Y773405D01*
Y778484D01*
X2378138Y761556D02*
Y768327D01*
X2371367Y761556D01*
X2369674D01*
X2367982Y763249D01*
Y766634D01*
X2369674Y768327D01*
X2367982Y758170D02*
X2378138D01*
Y753092D01*
X2376446Y751399D01*
X2374753D01*
X2373060Y753092D01*
Y758170D01*
Y753092D01*
X2371367Y751399D01*
X2369674D01*
X2367982Y753092D01*
Y758170D01*
X2063180Y798792D02*
Y792021D01*
Y795407D01*
X2073336D01*
Y788636D02*
X2063180D01*
Y783557D01*
X2064872Y781865D01*
X2068258D01*
X2069951Y783557D01*
Y788636D01*
X2063180Y771708D02*
X2064872Y775094D01*
X2068258Y778479D01*
X2071644D01*
X2073336Y776786D01*
Y773401D01*
X2071644Y771708D01*
X2069951D01*
X2068258Y773401D01*
Y778479D01*
X2073336Y761551D02*
Y768322D01*
X2066565Y761551D01*
X2064872D01*
X2063180Y763244D01*
Y766629D01*
X2064872Y768322D01*
X2073336Y758166D02*
X2066565D01*
X2063180Y754780D01*
X2066565Y751395D01*
X2073336D01*
X2068258D01*
Y758166D01*
X3264733Y786087D02*
X3257962D01*
X3261347D01*
Y775931D01*
X3254576D02*
Y786087D01*
X3249498D01*
X3247805Y784395D01*
Y781009D01*
X3249498Y779316D01*
X3254576D01*
X3237649Y786087D02*
X3241034Y784395D01*
X3244420Y781009D01*
Y777624D01*
X3242727Y775931D01*
X3239341D01*
X3237649Y777624D01*
Y779316D01*
X3239341Y781009D01*
X3244420D01*
X3234263Y775931D02*
X3230877D01*
X3232570D01*
Y786087D01*
X3234263Y784395D01*
X3219028Y786087D02*
X3225799D01*
Y775931D01*
X3219028D01*
X3225799Y781009D02*
X3222413D01*
X2959933Y786087D02*
X2953162D01*
X2956548D01*
Y775931D01*
X2949776D02*
Y786087D01*
X2944698D01*
X2943005Y784395D01*
Y781009D01*
X2944698Y779316D01*
X2949776D01*
X2932849Y786087D02*
X2936234Y784395D01*
X2939620Y781009D01*
Y777624D01*
X2937927Y775931D01*
X2934541D01*
X2932849Y777624D01*
Y779316D01*
X2934541Y781009D01*
X2939620D01*
X2929463Y775931D02*
X2926077D01*
X2927770D01*
Y786087D01*
X2929463Y784395D01*
X2920999Y786087D02*
Y775931D01*
X2915921D01*
X2914228Y777624D01*
Y784395D01*
X2915921Y786087D01*
X2920999D01*
X2655133D02*
X2648362D01*
X2651747D01*
Y775931D01*
X2644977D02*
Y786087D01*
X2639898D01*
X2638205Y784395D01*
Y781009D01*
X2639898Y779316D01*
X2644977D01*
X2628048Y786087D02*
X2631434Y784395D01*
X2634820Y781009D01*
Y777624D01*
X2633127Y775931D01*
X2629741D01*
X2628048Y777624D01*
Y779316D01*
X2629741Y781009D01*
X2634820D01*
X2624663Y775931D02*
X2621277D01*
X2622970D01*
Y786087D01*
X2624663Y784395D01*
X2609428D02*
X2611121Y786087D01*
X2614506D01*
X2616199Y784395D01*
Y777624D01*
X2614506Y775931D01*
X2611121D01*
X2609428Y777624D01*
X2350333Y786087D02*
X2343562D01*
X2346947D01*
Y775931D01*
X2340176D02*
Y786087D01*
X2335098D01*
X2333405Y784395D01*
Y781009D01*
X2335098Y779316D01*
X2340176D01*
X2323248Y786087D02*
X2326634Y784395D01*
X2330020Y781009D01*
Y777624D01*
X2328327Y775931D01*
X2324941D01*
X2323248Y777624D01*
Y779316D01*
X2324941Y781009D01*
X2330020D01*
X2319863Y775931D02*
X2316477D01*
X2318170D01*
Y786087D01*
X2319863Y784395D01*
X2311399Y786087D02*
Y775931D01*
X2306321D01*
X2304628Y777624D01*
Y779316D01*
X2306321Y781009D01*
X2311399D01*
X2306321D01*
X2304628Y782702D01*
Y784395D01*
X2306321Y786087D01*
X2311399D01*
X2045533D02*
X2038762D01*
X2042148D01*
Y775931D01*
X2035376D02*
Y786087D01*
X2030298D01*
X2028605Y784395D01*
Y781009D01*
X2030298Y779316D01*
X2035376D01*
X2018448Y786087D02*
X2021834Y784395D01*
X2025220Y781009D01*
Y777624D01*
X2023527Y775931D01*
X2020141D01*
X2018448Y777624D01*
Y779316D01*
X2020141Y781009D01*
X2025220D01*
X2015063Y775931D02*
X2011677D01*
X2013370D01*
Y786087D01*
X2015063Y784395D01*
X2006599Y775931D02*
Y782702D01*
X2003213Y786087D01*
X1999828Y782702D01*
Y775931D01*
Y781009D01*
X2006599D01*
X3188179Y762864D02*
Y756093D01*
Y759479D01*
X3198335D01*
Y752708D02*
X3188179D01*
Y747629D01*
X3189871Y745937D01*
X3193257D01*
X3194950Y747629D01*
Y752708D01*
X3188179Y735780D02*
X3189871Y739165D01*
X3193257Y742551D01*
X3196642D01*
X3198335Y740858D01*
Y737473D01*
X3196642Y735780D01*
X3194950D01*
X3193257Y737473D01*
Y742551D01*
X3189871Y732394D02*
X3188179Y730701D01*
Y727316D01*
X3189871Y725623D01*
X3196642D01*
X3198335Y727316D01*
Y730701D01*
X3196642Y732394D01*
X3189871D01*
X3188179Y715466D02*
Y722237D01*
X3198335D01*
Y715466D01*
X3193257Y722237D02*
Y718852D01*
X2882152Y763460D02*
Y756689D01*
Y760075D01*
X2892308D01*
Y753304D02*
X2882152D01*
Y748225D01*
X2883845Y746533D01*
X2887230D01*
X2888923Y748225D01*
Y753304D01*
X2882152Y736376D02*
X2883845Y739762D01*
X2887230Y743147D01*
X2890616D01*
X2892308Y741454D01*
Y738069D01*
X2890616Y736376D01*
X2888923D01*
X2887230Y738069D01*
Y743147D01*
X2883845Y732990D02*
X2882152Y731298D01*
Y727912D01*
X2883845Y726219D01*
X2890616D01*
X2892308Y727912D01*
Y731298D01*
X2890616Y732990D01*
X2883845D01*
X2882152Y722834D02*
X2892308D01*
Y717755D01*
X2890616Y716062D01*
X2883845D01*
X2882152Y717755D01*
Y722834D01*
X2577352Y763460D02*
Y756689D01*
Y760075D01*
X2587509D01*
Y753304D02*
X2577352D01*
Y748225D01*
X2579044Y746533D01*
X2582430D01*
X2584123Y748225D01*
Y753304D01*
X2577352Y736376D02*
X2579044Y739762D01*
X2582430Y743147D01*
X2585816D01*
X2587509Y741454D01*
Y738069D01*
X2585816Y736376D01*
X2584123D01*
X2582430Y738069D01*
Y743147D01*
X2579044Y732990D02*
X2577352Y731298D01*
Y727912D01*
X2579044Y726219D01*
X2585816D01*
X2587509Y727912D01*
Y731298D01*
X2585816Y732990D01*
X2579044D01*
Y716062D02*
X2577352Y717755D01*
Y721141D01*
X2579044Y722834D01*
X2585816D01*
X2587509Y721141D01*
Y717755D01*
X2585816Y716062D01*
X2272552Y763460D02*
Y756689D01*
Y760075D01*
X2282708D01*
Y753304D02*
X2272552D01*
Y748225D01*
X2274245Y746533D01*
X2277630D01*
X2279323Y748225D01*
Y753304D01*
X2272552Y736376D02*
X2274245Y739762D01*
X2277630Y743147D01*
X2281016D01*
X2282708Y741454D01*
Y738069D01*
X2281016Y736376D01*
X2279323D01*
X2277630Y738069D01*
Y743147D01*
X2274245Y732990D02*
X2272552Y731298D01*
Y727912D01*
X2274245Y726219D01*
X2281016D01*
X2282708Y727912D01*
Y731298D01*
X2281016Y732990D01*
X2274245D01*
X2272552Y722834D02*
X2282708D01*
Y717755D01*
X2281016Y716062D01*
X2279323D01*
X2277630Y717755D01*
Y722834D01*
Y717755D01*
X2275937Y716062D01*
X2274245D01*
X2272552Y717755D01*
Y722834D01*
X1967752Y763460D02*
Y756689D01*
Y760075D01*
X1977908D01*
Y753304D02*
X1967752D01*
Y748225D01*
X1969444Y746533D01*
X1972830D01*
X1974523Y748225D01*
Y753304D01*
X1967752Y736376D02*
X1969444Y739762D01*
X1972830Y743147D01*
X1976216D01*
X1977908Y741454D01*
Y738069D01*
X1976216Y736376D01*
X1974523D01*
X1972830Y738069D01*
Y743147D01*
X1969444Y732990D02*
X1967752Y731298D01*
Y727912D01*
X1969444Y726219D01*
X1976216D01*
X1977908Y727912D01*
Y731298D01*
X1976216Y732990D01*
X1969444D01*
X1977908Y722834D02*
X1971137D01*
X1967752Y719448D01*
X1971137Y716062D01*
X1977908D01*
X1972830D01*
Y722834D01*
X3188000Y679157D02*
X3181229D01*
X3184614D01*
Y669000D01*
X3177843D02*
Y679157D01*
X3172765D01*
X3171072Y677464D01*
Y674078D01*
X3172765Y672386D01*
X3177843D01*
X3160916Y679157D02*
X3167686D01*
Y674078D01*
X3164301Y675771D01*
X3162608D01*
X3160916Y674078D01*
Y670693D01*
X3162608Y669000D01*
X3165994D01*
X3167686Y670693D01*
X3157530D02*
X3155837Y669000D01*
X3152451D01*
X3150759Y670693D01*
Y677464D01*
X3152451Y679157D01*
X3155837D01*
X3157530Y677464D01*
Y675771D01*
X3155837Y674078D01*
X3150759D01*
X3140602Y679157D02*
X3147373D01*
Y669000D01*
X3140602D01*
X3147373Y674078D02*
X3143987D01*
X2885000Y681157D02*
X2878229D01*
X2881614D01*
Y671000D01*
X2874843D02*
Y681157D01*
X2869765D01*
X2868072Y679464D01*
Y676078D01*
X2869765Y674386D01*
X2874843D01*
X2857915Y681157D02*
X2864687D01*
Y676078D01*
X2861301Y677771D01*
X2859608D01*
X2857915Y676078D01*
Y672693D01*
X2859608Y671000D01*
X2862994D01*
X2864687Y672693D01*
X2854530D02*
X2852837Y671000D01*
X2849452D01*
X2847759Y672693D01*
Y679464D01*
X2849452Y681157D01*
X2852837D01*
X2854530Y679464D01*
Y677771D01*
X2852837Y676078D01*
X2847759D01*
X2844373Y681157D02*
Y671000D01*
X2839295D01*
X2837602Y672693D01*
Y679464D01*
X2839295Y681157D01*
X2844373D01*
X2579000D02*
X2572229D01*
X2575614D01*
Y671000D01*
X2568843D02*
Y681157D01*
X2563765D01*
X2562072Y679464D01*
Y676078D01*
X2563765Y674386D01*
X2568843D01*
X2551915Y681157D02*
X2558687D01*
Y676078D01*
X2555301Y677771D01*
X2553608D01*
X2551915Y676078D01*
Y672693D01*
X2553608Y671000D01*
X2556994D01*
X2558687Y672693D01*
X2548530D02*
X2546837Y671000D01*
X2543452D01*
X2541759Y672693D01*
Y679464D01*
X2543452Y681157D01*
X2546837D01*
X2548530Y679464D01*
Y677771D01*
X2546837Y676078D01*
X2541759D01*
X2531602Y679464D02*
X2533295Y681157D01*
X2536680D01*
X2538373Y679464D01*
Y672693D01*
X2536680Y671000D01*
X2533295D01*
X2531602Y672693D01*
X2275000Y681157D02*
X2268229D01*
X2271614D01*
Y671000D01*
X2264843D02*
Y681157D01*
X2259765D01*
X2258072Y679464D01*
Y676078D01*
X2259765Y674386D01*
X2264843D01*
X2247915Y681157D02*
X2254686D01*
Y676078D01*
X2251301Y677771D01*
X2249608D01*
X2247915Y676078D01*
Y672693D01*
X2249608Y671000D01*
X2252994D01*
X2254686Y672693D01*
X2244530D02*
X2242837Y671000D01*
X2239451D01*
X2237759Y672693D01*
Y679464D01*
X2239451Y681157D01*
X2242837D01*
X2244530Y679464D01*
Y677771D01*
X2242837Y676078D01*
X2237759D01*
X2234373Y681157D02*
Y671000D01*
X2229295D01*
X2227602Y672693D01*
Y674386D01*
X2229295Y676078D01*
X2234373D01*
X2229295D01*
X2227602Y677771D01*
Y679464D01*
X2229295Y681157D01*
X2234373D01*
X1970000D02*
X1963229D01*
X1966614D01*
Y671000D01*
X1959843D02*
Y681157D01*
X1954765D01*
X1953072Y679464D01*
Y676078D01*
X1954765Y674386D01*
X1959843D01*
X1942915Y681157D02*
X1949687D01*
Y676078D01*
X1946301Y677771D01*
X1944608D01*
X1942915Y676078D01*
Y672693D01*
X1944608Y671000D01*
X1947994D01*
X1949687Y672693D01*
X1939530D02*
X1937837Y671000D01*
X1934451D01*
X1932759Y672693D01*
Y679464D01*
X1934451Y681157D01*
X1937837D01*
X1939530Y679464D01*
Y677771D01*
X1937837Y676078D01*
X1932759D01*
X1929373Y671000D02*
Y677771D01*
X1925988Y681157D01*
X1922602Y677771D01*
Y671000D01*
Y676078D01*
X1929373D01*
X936000Y484157D02*
X929229D01*
X932614D01*
Y474000D01*
X925843D02*
Y484157D01*
X920765D01*
X919072Y482464D01*
Y479078D01*
X920765Y477386D01*
X925843D01*
X915687Y482464D02*
X913994Y484157D01*
X910608D01*
X908915Y482464D01*
Y480771D01*
X910608Y479078D01*
X912301D01*
X910608D01*
X908915Y477386D01*
Y475693D01*
X910608Y474000D01*
X913994D01*
X915687Y475693D01*
X898759Y474000D02*
X905530D01*
X898759Y480771D01*
Y482464D01*
X900452Y484157D01*
X903837D01*
X905530Y482464D01*
X367354Y440405D02*
X360583D01*
X363968D01*
Y430248D01*
X357197D02*
Y440405D01*
X352119D01*
X350426Y438712D01*
Y435326D01*
X352119Y433634D01*
X357197D01*
X347041Y438712D02*
X345348Y440405D01*
X341962D01*
X340269Y438712D01*
Y437019D01*
X341962Y435326D01*
X343655D01*
X341962D01*
X340269Y433634D01*
Y431941D01*
X341962Y430248D01*
X345348D01*
X347041Y431941D01*
X336884Y430248D02*
X333498D01*
X335191D01*
Y440405D01*
X336884Y438712D01*
X832064Y839537D02*
X825293D01*
X828679D01*
Y829380D01*
X821907D02*
Y839537D01*
X816829D01*
X815136Y837844D01*
Y834458D01*
X816829Y832766D01*
X821907D01*
X811751Y837844D02*
X810058Y839537D01*
X806672D01*
X804979Y837844D01*
Y836151D01*
X806672Y834458D01*
X808365D01*
X806672D01*
X804979Y832766D01*
Y831073D01*
X806672Y829380D01*
X810058D01*
X811751Y831073D01*
X801594Y837844D02*
X799901Y839537D01*
X796516D01*
X794823Y837844D01*
Y831073D01*
X796516Y829380D01*
X799901D01*
X801594Y831073D01*
Y837844D01*
X419000Y906157D02*
X412229D01*
X415614D01*
Y896000D01*
X408843D02*
Y906157D01*
X403765D01*
X402072Y904464D01*
Y901078D01*
X403765Y899386D01*
X408843D01*
X391915Y896000D02*
X398687D01*
X391915Y902771D01*
Y904464D01*
X393608Y906157D01*
X396994D01*
X398687Y904464D01*
X388530D02*
X386837Y906157D01*
X383451D01*
X381759Y904464D01*
Y902771D01*
X383451Y901078D01*
X381759Y899386D01*
Y897693D01*
X383451Y896000D01*
X386837D01*
X388530Y897693D01*
Y899386D01*
X386837Y901078D01*
X388530Y902771D01*
Y904464D01*
X386837Y901078D02*
X383451D01*
X228014Y837115D02*
X221243D01*
X224628D01*
Y826958D01*
X217857D02*
Y837115D01*
X212779D01*
X211086Y835422D01*
Y832036D01*
X212779Y830344D01*
X217857D01*
X200929Y826958D02*
X207701D01*
X200929Y833729D01*
Y835422D01*
X202622Y837115D01*
X206008D01*
X207701Y835422D01*
X190773Y837115D02*
X194158Y835422D01*
X197544Y832036D01*
Y828651D01*
X195851Y826958D01*
X192465D01*
X190773Y828651D01*
Y830344D01*
X192465Y832036D01*
X197544D01*
X686653Y769506D02*
Y762735D01*
Y766120D01*
X696810D01*
Y759349D02*
X686653D01*
Y754271D01*
X688346Y752578D01*
X691732D01*
X693424Y754271D01*
Y759349D01*
X696810Y742421D02*
Y749193D01*
X690039Y742421D01*
X688346D01*
X686653Y744114D01*
Y747500D01*
X688346Y749193D01*
X686653Y732265D02*
Y739036D01*
X691732D01*
X690039Y735650D01*
Y733957D01*
X691732Y732265D01*
X695117D01*
X696810Y733957D01*
Y737343D01*
X695117Y739036D01*
X670843Y776000D02*
Y769229D01*
Y772614D01*
X681000D01*
Y765843D02*
X670843D01*
Y760765D01*
X672536Y759072D01*
X675922D01*
X677614Y760765D01*
Y765843D01*
X681000Y748915D02*
Y755687D01*
X674229Y748915D01*
X672536D01*
X670843Y750608D01*
Y753994D01*
X672536Y755687D01*
X681000Y740452D02*
X670843D01*
X675922Y745530D01*
Y738759D01*
X629815Y769298D02*
Y762527D01*
Y765912D01*
X639972D01*
Y759141D02*
X629815D01*
Y754063D01*
X631508Y752370D01*
X634894D01*
X636586Y754063D01*
Y759141D01*
X639972Y742213D02*
Y748985D01*
X633201Y742213D01*
X631508D01*
X629815Y743906D01*
Y747292D01*
X631508Y748985D01*
Y738828D02*
X629815Y737135D01*
Y733749D01*
X631508Y732057D01*
X633201D01*
X634894Y733749D01*
Y735442D01*
Y733749D01*
X636586Y732057D01*
X638279D01*
X639972Y733749D01*
Y737135D01*
X638279Y738828D01*
X621793Y727024D02*
Y720253D01*
Y723638D01*
X631950D01*
Y716867D02*
X621793D01*
Y711789D01*
X623486Y710096D01*
X626872D01*
X628564Y711789D01*
Y716867D01*
X631950Y699939D02*
Y706711D01*
X625179Y699939D01*
X623486D01*
X621793Y701632D01*
Y705018D01*
X623486Y706711D01*
X631950Y689783D02*
Y696554D01*
X625179Y689783D01*
X623486D01*
X621793Y691476D01*
Y694861D01*
X623486Y696554D01*
X614811Y769298D02*
Y762527D01*
Y765912D01*
X624968D01*
Y759141D02*
X614811D01*
Y754063D01*
X616504Y752370D01*
X619890D01*
X621582Y754063D01*
Y759141D01*
X624968Y742213D02*
Y748985D01*
X618197Y742213D01*
X616504D01*
X614811Y743906D01*
Y747292D01*
X616504Y748985D01*
X624968Y738828D02*
Y735442D01*
Y737135D01*
X614811D01*
X616504Y738828D01*
X607811Y727024D02*
Y720253D01*
Y723638D01*
X617968D01*
Y716867D02*
X607811D01*
Y711789D01*
X609504Y710096D01*
X612890D01*
X614582Y711789D01*
Y716867D01*
X617968Y699939D02*
Y706711D01*
X611197Y699939D01*
X609504D01*
X607811Y701632D01*
Y705018D01*
X609504Y706711D01*
Y696554D02*
X607811Y694861D01*
Y691476D01*
X609504Y689783D01*
X616275D01*
X617968Y691476D01*
Y694861D01*
X616275Y696554D01*
X609504D01*
X598811Y769298D02*
Y762527D01*
Y765912D01*
X608968D01*
Y759141D02*
X598811D01*
Y754063D01*
X600504Y752370D01*
X603890D01*
X605583Y754063D01*
Y759141D01*
X608968Y748985D02*
Y745599D01*
Y747292D01*
X598811D01*
X600504Y748985D01*
X607275Y740521D02*
X608968Y738828D01*
Y735442D01*
X607275Y733749D01*
X600504D01*
X598811Y735442D01*
Y738828D01*
X600504Y740521D01*
X602197D01*
X603890Y738828D01*
Y733749D01*
X592601Y727024D02*
Y720253D01*
Y723638D01*
X602758D01*
Y716867D02*
X592601D01*
Y711789D01*
X594294Y710096D01*
X597680D01*
X599372Y711789D01*
Y716867D01*
X602758Y706711D02*
Y703325D01*
Y705018D01*
X592601D01*
X594294Y706711D01*
Y698247D02*
X592601Y696554D01*
Y693168D01*
X594294Y691476D01*
X595987D01*
X597680Y693168D01*
X599372Y691476D01*
X601065D01*
X602758Y693168D01*
Y696554D01*
X601065Y698247D01*
X599372D01*
X597680Y696554D01*
X595987Y698247D01*
X594294D01*
X597680Y696554D02*
Y693168D01*
X576843Y727024D02*
Y720253D01*
Y723638D01*
X587000D01*
Y716867D02*
X576843D01*
Y711789D01*
X578536Y710096D01*
X581922D01*
X583614Y711789D01*
Y716867D01*
X587000Y706711D02*
Y703325D01*
Y705018D01*
X576843D01*
X578536Y706711D01*
X576843Y698247D02*
Y691476D01*
X578536D01*
X585307Y698247D01*
X587000D01*
X671833Y942340D02*
Y935569D01*
Y938954D01*
X681990D01*
Y932183D02*
X671833D01*
Y927105D01*
X673526Y925412D01*
X676912D01*
X678604Y927105D01*
Y932183D01*
X681990Y922027D02*
Y918641D01*
Y920334D01*
X671833D01*
X673526Y922027D01*
X671833Y906792D02*
X673526Y910177D01*
X676912Y913563D01*
X680297D01*
X681990Y911870D01*
Y908484D01*
X680297Y906792D01*
X678604D01*
X676912Y908484D01*
Y913563D01*
X668023Y873106D02*
Y866335D01*
Y869721D01*
X678180D01*
Y862949D02*
X668023D01*
Y857871D01*
X669716Y856178D01*
X673102D01*
X674794Y857871D01*
Y862949D01*
X678180Y852793D02*
Y849407D01*
Y851100D01*
X668023D01*
X669716Y852793D01*
X668023Y837558D02*
Y844329D01*
X673102D01*
X671409Y840943D01*
Y839250D01*
X673102Y837558D01*
X676487D01*
X678180Y839250D01*
Y842636D01*
X676487Y844329D01*
X656775Y942340D02*
Y935569D01*
Y938954D01*
X666931D01*
Y932183D02*
X656775D01*
Y927105D01*
X658467Y925412D01*
X661853D01*
X663546Y927105D01*
Y932183D01*
X666931Y922027D02*
Y918641D01*
Y920334D01*
X656775D01*
X658467Y922027D01*
X666931Y908484D02*
X656775D01*
X661853Y913563D01*
Y906792D01*
X652783Y873106D02*
Y866335D01*
Y869721D01*
X662940D01*
Y862949D02*
X652783D01*
Y857871D01*
X654476Y856178D01*
X657862D01*
X659554Y857871D01*
Y862949D01*
X662940Y852793D02*
Y849407D01*
Y851100D01*
X652783D01*
X654476Y852793D01*
Y844329D02*
X652783Y842636D01*
Y839250D01*
X654476Y837558D01*
X656169D01*
X657862Y839250D01*
Y840943D01*
Y839250D01*
X659554Y837558D01*
X661247D01*
X662940Y839250D01*
Y842636D01*
X661247Y844329D01*
X641716Y942340D02*
Y935569D01*
Y938954D01*
X651873D01*
Y932183D02*
X641716D01*
Y927105D01*
X643409Y925412D01*
X646795D01*
X648487Y927105D01*
Y932183D01*
X651873Y922027D02*
Y918641D01*
Y920334D01*
X641716D01*
X643409Y922027D01*
X651873Y906792D02*
Y913563D01*
X645102Y906792D01*
X643409D01*
X641716Y908484D01*
Y911870D01*
X643409Y913563D01*
X637543Y873106D02*
Y866335D01*
Y869721D01*
X647700D01*
Y862949D02*
X637543D01*
Y857871D01*
X639236Y856178D01*
X642622D01*
X644314Y857871D01*
Y862949D01*
X647700Y852793D02*
Y849407D01*
Y851100D01*
X637543D01*
X639236Y852793D01*
X647700Y844329D02*
Y840943D01*
Y842636D01*
X637543D01*
X639236Y844329D01*
X626657Y942340D02*
Y935569D01*
Y938954D01*
X636814D01*
Y932183D02*
X626657D01*
Y927105D01*
X628350Y925412D01*
X631736D01*
X633429Y927105D01*
Y932183D01*
X636814Y922027D02*
Y918641D01*
Y920334D01*
X626657D01*
X628350Y922027D01*
Y913563D02*
X626657Y911870D01*
Y908484D01*
X628350Y906792D01*
X635121D01*
X636814Y908484D01*
Y911870D01*
X635121Y913563D01*
X628350D01*
X622303Y873106D02*
Y866335D01*
Y869721D01*
X632460D01*
Y862949D02*
X622303D01*
Y857871D01*
X623996Y856178D01*
X627382D01*
X629074Y857871D01*
Y862949D01*
X630767Y852793D02*
X632460Y851100D01*
Y847714D01*
X630767Y846021D01*
X623996D01*
X622303Y847714D01*
Y851100D01*
X623996Y852793D01*
X625689D01*
X627382Y851100D01*
Y846021D01*
X611599Y942340D02*
Y935569D01*
Y938954D01*
X621756D01*
Y932183D02*
X611599D01*
Y927105D01*
X613292Y925412D01*
X616677D01*
X618370Y927105D01*
Y932183D01*
X613292Y922027D02*
X611599Y920334D01*
Y916948D01*
X613292Y915255D01*
X614985D01*
X616677Y916948D01*
X618370Y915255D01*
X620063D01*
X621756Y916948D01*
Y920334D01*
X620063Y922027D01*
X618370D01*
X616677Y920334D01*
X614985Y922027D01*
X613292D01*
X616677Y920334D02*
Y916948D01*
X591823Y873106D02*
Y866335D01*
Y869721D01*
X601980D01*
Y862949D02*
X591823D01*
Y857871D01*
X593516Y856178D01*
X596902D01*
X598594Y857871D01*
Y862949D01*
X591823Y846021D02*
Y852793D01*
X596902D01*
X595209Y849407D01*
Y847714D01*
X596902Y846021D01*
X600287D01*
X601980Y847714D01*
Y851100D01*
X600287Y852793D01*
X581482Y942340D02*
Y935569D01*
Y938954D01*
X591639D01*
Y932183D02*
X581482D01*
Y927105D01*
X583175Y925412D01*
X586560D01*
X588253Y927105D01*
Y932183D01*
X591639Y916948D02*
X581482D01*
X586560Y922027D01*
Y915255D01*
X576583Y873106D02*
Y866335D01*
Y869721D01*
X586740D01*
Y862949D02*
X576583D01*
Y857871D01*
X578276Y856178D01*
X581662D01*
X583354Y857871D01*
Y862949D01*
X578276Y852793D02*
X576583Y851100D01*
Y847714D01*
X578276Y846021D01*
X579969D01*
X581662Y847714D01*
Y849407D01*
Y847714D01*
X583354Y846021D01*
X585047D01*
X586740Y847714D01*
Y851100D01*
X585047Y852793D01*
X566423Y942340D02*
Y935569D01*
Y938954D01*
X576580D01*
Y932183D02*
X566423D01*
Y927105D01*
X568116Y925412D01*
X571502D01*
X573194Y927105D01*
Y932183D01*
X576580Y915255D02*
Y922027D01*
X569809Y915255D01*
X568116D01*
X566423Y916948D01*
Y920334D01*
X568116Y922027D01*
X561343Y873106D02*
Y866335D01*
Y869721D01*
X571500D01*
Y862949D02*
X561343D01*
Y857871D01*
X563036Y856178D01*
X566422D01*
X568114Y857871D01*
Y862949D01*
X571500Y852793D02*
Y849407D01*
Y851100D01*
X561343D01*
X563036Y852793D01*
X869229Y990464D02*
X870922Y992157D01*
X874307D01*
X876000Y990464D01*
Y988771D01*
X874307Y987078D01*
X870922D01*
X869229Y985386D01*
Y983693D01*
X870922Y982000D01*
X874307D01*
X876000Y983693D01*
X865843Y992157D02*
Y982000D01*
X862458Y985386D01*
X859072Y982000D01*
Y992157D01*
X855687Y982000D02*
X852301D01*
X853994D01*
Y992157D01*
X855687Y990464D01*
X669623Y520562D02*
X659466D01*
Y515484D01*
X661159Y513791D01*
X664544D01*
X666237Y515484D01*
Y520562D01*
Y517177D02*
X669623Y513791D01*
Y510405D02*
Y507020D01*
Y508713D01*
X659466D01*
X661159Y510405D01*
Y501941D02*
X659466Y500249D01*
Y496863D01*
X661159Y495170D01*
X662852D01*
X664544Y496863D01*
Y498556D01*
Y496863D01*
X666237Y495170D01*
X667930D01*
X669623Y496863D01*
Y500249D01*
X667930Y501941D01*
X659466Y485014D02*
X661159Y488399D01*
X664544Y491785D01*
X667930D01*
X669623Y490092D01*
Y486706D01*
X667930Y485014D01*
X666237D01*
X664544Y486706D01*
Y491785D01*
X764000Y696000D02*
Y706157D01*
X758922D01*
X757229Y704464D01*
Y701078D01*
X758922Y699386D01*
X764000D01*
X760614D02*
X757229Y696000D01*
X753843D02*
X750458D01*
X752150D01*
Y706157D01*
X753843Y704464D01*
X745379D02*
X743687Y706157D01*
X740301D01*
X738608Y704464D01*
Y702771D01*
X740301Y701078D01*
X741994D01*
X740301D01*
X738608Y699386D01*
Y697693D01*
X740301Y696000D01*
X743687D01*
X745379Y697693D01*
X735223Y704464D02*
X733530Y706157D01*
X730144D01*
X728452Y704464D01*
Y702771D01*
X730144Y701078D01*
X731837D01*
X730144D01*
X728452Y699386D01*
Y697693D01*
X730144Y696000D01*
X733530D01*
X735223Y697693D01*
X764000Y722000D02*
Y732157D01*
X758922D01*
X757229Y730464D01*
Y727078D01*
X758922Y725386D01*
X764000D01*
X760614D02*
X757229Y722000D01*
X753843D02*
X750458D01*
X752150D01*
Y732157D01*
X753843Y730464D01*
X745379D02*
X743687Y732157D01*
X740301D01*
X738608Y730464D01*
Y728771D01*
X740301Y727078D01*
X741994D01*
X740301D01*
X738608Y725386D01*
Y723693D01*
X740301Y722000D01*
X743687D01*
X745379Y723693D01*
X735223Y722000D02*
X731837D01*
X733530D01*
Y732157D01*
X735223Y730464D01*
X339000Y511000D02*
X328843D01*
Y505922D01*
X330536Y504229D01*
X333922D01*
X335614Y505922D01*
Y511000D01*
Y507614D02*
X339000Y504229D01*
Y500843D02*
Y497458D01*
Y499151D01*
X328843D01*
X330536Y500843D01*
X339000Y485608D02*
Y492379D01*
X332229Y485608D01*
X330536D01*
X328843Y487301D01*
Y490686D01*
X330536Y492379D01*
X337307Y482223D02*
X339000Y480530D01*
Y477144D01*
X337307Y475452D01*
X330536D01*
X328843Y477144D01*
Y480530D01*
X330536Y482223D01*
X332229D01*
X333922Y480530D01*
Y475452D01*
X373000Y569500D02*
Y579657D01*
X367922D01*
X366229Y577964D01*
Y574578D01*
X367922Y572886D01*
X373000D01*
X369614D02*
X366229Y569500D01*
X362843D02*
X359458D01*
X361151D01*
Y579657D01*
X362843Y577964D01*
X347608Y569500D02*
X354379D01*
X347608Y576271D01*
Y577964D01*
X349301Y579657D01*
X352687D01*
X354379Y577964D01*
X344223D02*
X342530Y579657D01*
X339144D01*
X337452Y577964D01*
Y576271D01*
X339144Y574578D01*
X337452Y572886D01*
Y571193D01*
X339144Y569500D01*
X342530D01*
X344223Y571193D01*
Y572886D01*
X342530Y574578D01*
X344223Y576271D01*
Y577964D01*
X342530Y574578D02*
X339144D01*
X1154000Y182000D02*
X1143843D01*
Y176922D01*
X1145536Y175229D01*
X1148922D01*
X1150614Y176922D01*
Y182000D01*
Y178614D02*
X1154000Y175229D01*
Y171843D02*
Y168458D01*
Y170151D01*
X1143843D01*
X1145536Y171843D01*
X1154000Y156608D02*
Y163379D01*
X1147229Y156608D01*
X1145536D01*
X1143843Y158301D01*
Y161686D01*
X1145536Y163379D01*
X1154000Y153223D02*
Y149837D01*
Y151530D01*
X1143843D01*
X1145536Y153223D01*
X1181000Y184000D02*
X1170843D01*
Y178922D01*
X1172536Y177229D01*
X1175922D01*
X1177614Y178922D01*
Y184000D01*
Y180614D02*
X1181000Y177229D01*
Y173843D02*
Y170458D01*
Y172150D01*
X1170843D01*
X1172536Y173843D01*
X1181000Y158608D02*
Y165379D01*
X1174229Y158608D01*
X1172536D01*
X1170843Y160301D01*
Y163687D01*
X1172536Y165379D01*
Y155223D02*
X1170843Y153530D01*
Y150144D01*
X1172536Y148451D01*
X1179307D01*
X1181000Y150144D01*
Y153530D01*
X1179307Y155223D01*
X1172536D01*
X347090Y896000D02*
X336933D01*
Y890922D01*
X338626Y889229D01*
X342012D01*
X343704Y890922D01*
Y896000D01*
Y892614D02*
X347090Y889229D01*
X345397Y885843D02*
X347090Y884150D01*
Y880765D01*
X345397Y879072D01*
X338626D01*
X336933Y880765D01*
Y884150D01*
X338626Y885843D01*
X340319D01*
X342012Y884150D01*
Y879072D01*
X345397Y875687D02*
X347090Y873994D01*
Y870608D01*
X345397Y868915D01*
X338626D01*
X336933Y870608D01*
Y873994D01*
X338626Y875687D01*
X340319D01*
X342012Y873994D01*
Y868915D01*
X1561522Y165000D02*
X1551365D01*
Y159922D01*
X1553058Y158229D01*
X1556444D01*
X1558136Y159922D01*
Y165000D01*
Y161614D02*
X1561522Y158229D01*
X1551365Y154843D02*
Y148072D01*
X1553058D01*
X1559829Y154843D01*
X1561522D01*
X1559829Y144687D02*
X1561522Y142994D01*
Y139608D01*
X1559829Y137915D01*
X1553058D01*
X1551365Y139608D01*
Y142994D01*
X1553058Y144687D01*
X1554751D01*
X1556444Y142994D01*
Y137915D01*
X1551365Y134530D02*
X1561522D01*
Y129452D01*
X1559829Y127759D01*
X1558136D01*
X1556444Y129452D01*
Y134530D01*
Y129452D01*
X1554751Y127759D01*
X1553058D01*
X1551365Y129452D01*
Y134530D01*
X1302000Y165000D02*
X1291843D01*
Y159922D01*
X1293536Y158229D01*
X1296922D01*
X1298614Y159922D01*
Y165000D01*
Y161614D02*
X1302000Y158229D01*
X1291843Y154843D02*
Y148072D01*
X1293536D01*
X1300307Y154843D01*
X1302000D01*
X1300307Y144687D02*
X1302000Y142994D01*
Y139608D01*
X1300307Y137915D01*
X1293536D01*
X1291843Y139608D01*
Y142994D01*
X1293536Y144687D01*
X1295229D01*
X1296922Y142994D01*
Y137915D01*
X1302000Y134530D02*
X1295229D01*
X1291843Y131144D01*
X1295229Y127759D01*
X1302000D01*
X1296922D01*
Y134530D01*
X1637522Y165000D02*
X1627365D01*
Y159922D01*
X1629058Y158229D01*
X1632444D01*
X1634137Y159922D01*
Y165000D01*
Y161614D02*
X1637522Y158229D01*
X1627365Y154843D02*
Y148072D01*
X1629058D01*
X1635829Y154843D01*
X1637522D01*
X1629058Y144687D02*
X1627365Y142994D01*
Y139608D01*
X1629058Y137915D01*
X1630751D01*
X1632444Y139608D01*
X1634137Y137915D01*
X1635829D01*
X1637522Y139608D01*
Y142994D01*
X1635829Y144687D01*
X1634137D01*
X1632444Y142994D01*
X1630751Y144687D01*
X1629058D01*
X1632444Y142994D02*
Y139608D01*
X1627365Y134530D02*
X1637522D01*
Y129452D01*
X1635829Y127759D01*
X1634137D01*
X1632444Y129452D01*
Y134530D01*
Y129452D01*
X1630751Y127759D01*
X1629058D01*
X1627365Y129452D01*
Y134530D01*
X1378000Y165000D02*
X1367843D01*
Y159922D01*
X1369536Y158229D01*
X1372922D01*
X1374614Y159922D01*
Y165000D01*
Y161614D02*
X1378000Y158229D01*
X1367843Y154843D02*
Y148072D01*
X1369536D01*
X1376307Y154843D01*
X1378000D01*
X1369536Y144687D02*
X1367843Y142994D01*
Y139608D01*
X1369536Y137915D01*
X1371229D01*
X1372922Y139608D01*
X1374614Y137915D01*
X1376307D01*
X1378000Y139608D01*
Y142994D01*
X1376307Y144687D01*
X1374614D01*
X1372922Y142994D01*
X1371229Y144687D01*
X1369536D01*
X1372922Y142994D02*
Y139608D01*
X1378000Y134530D02*
X1371229D01*
X1367843Y131144D01*
X1371229Y127759D01*
X1378000D01*
X1372922D01*
Y134530D01*
X3058776Y522500D02*
X3048619D01*
Y517421D01*
X3050312Y515729D01*
X3053698D01*
X3055391Y517421D01*
Y522500D01*
Y519114D02*
X3058776Y515729D01*
X3048619Y512343D02*
Y505572D01*
X3050312D01*
X3057083Y512343D01*
X3058776D01*
X3050312Y502186D02*
X3048619Y500494D01*
Y497108D01*
X3050312Y495415D01*
X3052005D01*
X3053698Y497108D01*
Y498801D01*
Y497108D01*
X3055391Y495415D01*
X3057083D01*
X3058776Y497108D01*
Y500494D01*
X3057083Y502186D01*
X3048619Y492030D02*
X3058776D01*
Y486951D01*
X3057083Y485258D01*
X3050312D01*
X3048619Y486951D01*
Y492030D01*
X2751000Y523000D02*
X2740843D01*
Y517922D01*
X2742536Y516229D01*
X2745922D01*
X2747614Y517922D01*
Y523000D01*
Y519614D02*
X2751000Y516229D01*
X2740843Y512843D02*
Y506072D01*
X2742536D01*
X2749307Y512843D01*
X2751000D01*
X2742536Y502687D02*
X2740843Y500994D01*
Y497608D01*
X2742536Y495915D01*
X2744229D01*
X2745922Y497608D01*
Y499301D01*
Y497608D01*
X2747614Y495915D01*
X2749307D01*
X2751000Y497608D01*
Y500994D01*
X2749307Y502687D01*
X2742536Y485759D02*
X2740843Y487452D01*
Y490837D01*
X2742536Y492530D01*
X2749307D01*
X2751000Y490837D01*
Y487452D01*
X2749307Y485759D01*
X2447000Y524000D02*
X2436843D01*
Y518922D01*
X2438536Y517229D01*
X2441922D01*
X2443614Y518922D01*
Y524000D01*
Y520614D02*
X2447000Y517229D01*
X2436843Y513843D02*
Y507072D01*
X2438536D01*
X2445307Y513843D01*
X2447000D01*
X2438536Y503686D02*
X2436843Y501994D01*
Y498608D01*
X2438536Y496915D01*
X2440229D01*
X2441922Y498608D01*
Y500301D01*
Y498608D01*
X2443614Y496915D01*
X2445307D01*
X2447000Y498608D01*
Y501994D01*
X2445307Y503686D01*
X2436843Y493530D02*
X2447000D01*
Y488451D01*
X2445307Y486759D01*
X2443614D01*
X2441922Y488451D01*
Y493530D01*
Y488451D01*
X2440229Y486759D01*
X2438536D01*
X2436843Y488451D01*
Y493530D01*
X2144376Y522500D02*
X2134220D01*
Y517421D01*
X2135912Y515729D01*
X2139298D01*
X2140991Y517421D01*
Y522500D01*
Y519114D02*
X2144376Y515729D01*
X2134220Y512343D02*
Y505572D01*
X2135912D01*
X2142683Y512343D01*
X2144376D01*
X2135912Y502186D02*
X2134220Y500494D01*
Y497108D01*
X2135912Y495415D01*
X2137605D01*
X2139298Y497108D01*
Y498801D01*
Y497108D01*
X2140991Y495415D01*
X2142683D01*
X2144376Y497108D01*
Y500494D01*
X2142683Y502186D01*
X2144376Y492030D02*
X2137605D01*
X2134220Y488644D01*
X2137605Y485258D01*
X2144376D01*
X2139298D01*
Y492030D01*
X3457000Y587000D02*
Y597157D01*
X3451922D01*
X3450229Y595464D01*
Y592078D01*
X3451922Y590386D01*
X3457000D01*
X3453615D02*
X3450229Y587000D01*
X3446843Y597157D02*
X3440072D01*
Y595464D01*
X3446843Y588693D01*
Y587000D01*
X3429915D02*
X3436686D01*
X3429915Y593771D01*
Y595464D01*
X3431608Y597157D01*
X3434994D01*
X3436686Y595464D01*
X3419759Y597157D02*
X3426530D01*
Y587000D01*
X3419759D01*
X3426530Y592078D02*
X3423144D01*
X3152000Y587000D02*
Y597157D01*
X3146922D01*
X3145229Y595464D01*
Y592078D01*
X3146922Y590386D01*
X3152000D01*
X3148615D02*
X3145229Y587000D01*
X3141843Y597157D02*
X3135072D01*
Y595464D01*
X3141843Y588693D01*
Y587000D01*
X3124915D02*
X3131686D01*
X3124915Y593771D01*
Y595464D01*
X3126608Y597157D01*
X3129994D01*
X3131686Y595464D01*
X3121530Y597157D02*
Y587000D01*
X3116451D01*
X3114759Y588693D01*
Y595464D01*
X3116451Y597157D01*
X3121530D01*
X2848000Y586000D02*
Y596157D01*
X2842921D01*
X2841229Y594464D01*
Y591078D01*
X2842921Y589386D01*
X2848000D01*
X2844614D02*
X2841229Y586000D01*
X2837843Y596157D02*
X2831072D01*
Y594464D01*
X2837843Y587693D01*
Y586000D01*
X2820916D02*
X2827686D01*
X2820916Y592771D01*
Y594464D01*
X2822608Y596157D01*
X2825994D01*
X2827686Y594464D01*
X2810759D02*
X2812451Y596157D01*
X2815837D01*
X2817530Y594464D01*
Y587693D01*
X2815837Y586000D01*
X2812451D01*
X2810759Y587693D01*
X2542000Y586000D02*
Y596157D01*
X2536922D01*
X2535229Y594464D01*
Y591078D01*
X2536922Y589386D01*
X2542000D01*
X2538614D02*
X2535229Y586000D01*
X2531843Y596157D02*
X2525072D01*
Y594464D01*
X2531843Y587693D01*
Y586000D01*
X2514915D02*
X2521687D01*
X2514915Y592771D01*
Y594464D01*
X2516608Y596157D01*
X2519994D01*
X2521687Y594464D01*
X2511530Y596157D02*
Y586000D01*
X2506452D01*
X2504759Y587693D01*
Y589386D01*
X2506452Y591078D01*
X2511530D01*
X2506452D01*
X2504759Y592771D01*
Y594464D01*
X2506452Y596157D01*
X2511530D01*
X2238000Y587000D02*
Y597157D01*
X2232922D01*
X2231229Y595464D01*
Y592078D01*
X2232922Y590386D01*
X2238000D01*
X2234614D02*
X2231229Y587000D01*
X2227843Y597157D02*
X2221072D01*
Y595464D01*
X2227843Y588693D01*
Y587000D01*
X2210915D02*
X2217686D01*
X2210915Y593771D01*
Y595464D01*
X2212608Y597157D01*
X2215994D01*
X2217686Y595464D01*
X2207530Y587000D02*
Y593771D01*
X2204144Y597157D01*
X2200759Y593771D01*
Y587000D01*
Y592078D01*
X2207530D01*
X3309000Y793000D02*
X3298843D01*
Y787922D01*
X3300536Y786229D01*
X3303922D01*
X3305614Y787922D01*
Y793000D01*
Y789614D02*
X3309000Y786229D01*
X3298843Y782843D02*
Y776072D01*
X3300536D01*
X3307307Y782843D01*
X3309000D01*
Y772686D02*
Y769301D01*
Y770994D01*
X3298843D01*
X3300536Y772686D01*
X3298843Y757451D02*
Y764223D01*
X3309000D01*
Y757451D01*
X3303922Y764223D02*
Y760837D01*
X3004000Y793000D02*
X2993843D01*
Y787922D01*
X2995536Y786229D01*
X2998922D01*
X3000614Y787922D01*
Y793000D01*
Y789614D02*
X3004000Y786229D01*
X2993843Y782843D02*
Y776072D01*
X2995536D01*
X3002307Y782843D01*
X3004000D01*
Y772686D02*
Y769301D01*
Y770994D01*
X2993843D01*
X2995536Y772686D01*
X2993843Y764223D02*
X3004000D01*
Y759144D01*
X3002307Y757451D01*
X2995536D01*
X2993843Y759144D01*
Y764223D01*
X2699000Y793000D02*
X2688843D01*
Y787922D01*
X2690536Y786229D01*
X2693922D01*
X2695614Y787922D01*
Y793000D01*
Y789614D02*
X2699000Y786229D01*
X2688843Y782843D02*
Y776072D01*
X2690536D01*
X2697307Y782843D01*
X2699000D01*
Y772686D02*
Y769301D01*
Y770994D01*
X2688843D01*
X2690536Y772686D01*
Y757451D02*
X2688843Y759144D01*
Y762530D01*
X2690536Y764223D01*
X2697307D01*
X2699000Y762530D01*
Y759144D01*
X2697307Y757451D01*
X2395000Y793000D02*
X2384843D01*
Y787922D01*
X2386536Y786229D01*
X2389922D01*
X2391614Y787922D01*
Y793000D01*
Y789614D02*
X2395000Y786229D01*
X2384843Y782843D02*
Y776072D01*
X2386536D01*
X2393307Y782843D01*
X2395000D01*
Y772686D02*
Y769301D01*
Y770994D01*
X2384843D01*
X2386536Y772686D01*
X2384843Y764223D02*
X2395000D01*
Y759144D01*
X2393307Y757451D01*
X2391614D01*
X2389922Y759144D01*
Y764223D01*
Y759144D01*
X2388229Y757451D01*
X2386536D01*
X2384843Y759144D01*
Y764223D01*
X2089000Y793000D02*
X2078843D01*
Y787922D01*
X2080536Y786229D01*
X2083922D01*
X2085614Y787922D01*
Y793000D01*
Y789614D02*
X2089000Y786229D01*
X2078843Y782843D02*
Y776072D01*
X2080536D01*
X2087307Y782843D01*
X2089000D01*
Y772686D02*
Y769301D01*
Y770994D01*
X2078843D01*
X2080536Y772686D01*
X2089000Y764223D02*
X2082229D01*
X2078843Y760837D01*
X2082229Y757451D01*
X2089000D01*
X2083922D01*
Y764223D01*
X3462000Y647000D02*
Y657157D01*
X3456922D01*
X3455229Y655464D01*
Y652078D01*
X3456922Y650386D01*
X3462000D01*
X3458615D02*
X3455229Y647000D01*
X3451843Y657157D02*
X3445072D01*
Y655464D01*
X3451843Y648693D01*
Y647000D01*
X3441687Y655464D02*
X3439994Y657157D01*
X3436608D01*
X3434915Y655464D01*
Y648693D01*
X3436608Y647000D01*
X3439994D01*
X3441687Y648693D01*
Y655464D01*
X3424759Y657157D02*
X3431530D01*
Y647000D01*
X3424759D01*
X3431530Y652078D02*
X3428144D01*
X3157000Y647000D02*
Y657157D01*
X3151922D01*
X3150229Y655464D01*
Y652078D01*
X3151922Y650386D01*
X3157000D01*
X3153615D02*
X3150229Y647000D01*
X3146843Y657157D02*
X3140072D01*
Y655464D01*
X3146843Y648693D01*
Y647000D01*
X3136687Y655464D02*
X3134994Y657157D01*
X3131608D01*
X3129915Y655464D01*
Y648693D01*
X3131608Y647000D01*
X3134994D01*
X3136687Y648693D01*
Y655464D01*
X3126530Y657157D02*
Y647000D01*
X3121451D01*
X3119759Y648693D01*
Y655464D01*
X3121451Y657157D01*
X3126530D01*
X2853000Y647000D02*
Y657157D01*
X2847922D01*
X2846229Y655464D01*
Y652078D01*
X2847922Y650386D01*
X2853000D01*
X2849614D02*
X2846229Y647000D01*
X2842843Y657157D02*
X2836072D01*
Y655464D01*
X2842843Y648693D01*
Y647000D01*
X2832686Y655464D02*
X2830994Y657157D01*
X2827608D01*
X2825916Y655464D01*
Y648693D01*
X2827608Y647000D01*
X2830994D01*
X2832686Y648693D01*
Y655464D01*
X2815759D02*
X2817451Y657157D01*
X2820837D01*
X2822530Y655464D01*
Y648693D01*
X2820837Y647000D01*
X2817451D01*
X2815759Y648693D01*
X2547000Y647000D02*
Y657157D01*
X2541922D01*
X2540229Y655464D01*
Y652078D01*
X2541922Y650386D01*
X2547000D01*
X2543614D02*
X2540229Y647000D01*
X2536843Y657157D02*
X2530072D01*
Y655464D01*
X2536843Y648693D01*
Y647000D01*
X2526687Y655464D02*
X2524994Y657157D01*
X2521608D01*
X2519915Y655464D01*
Y648693D01*
X2521608Y647000D01*
X2524994D01*
X2526687Y648693D01*
Y655464D01*
X2516530Y657157D02*
Y647000D01*
X2511452D01*
X2509759Y648693D01*
Y650386D01*
X2511452Y652078D01*
X2516530D01*
X2511452D01*
X2509759Y653771D01*
Y655464D01*
X2511452Y657157D01*
X2516530D01*
X2243000Y647000D02*
Y657157D01*
X2237922D01*
X2236229Y655464D01*
Y652078D01*
X2237922Y650386D01*
X2243000D01*
X2239614D02*
X2236229Y647000D01*
X2232843Y657157D02*
X2226072D01*
Y655464D01*
X2232843Y648693D01*
Y647000D01*
X2222687Y655464D02*
X2220994Y657157D01*
X2217608D01*
X2215915Y655464D01*
Y648693D01*
X2217608Y647000D01*
X2220994D01*
X2222687Y648693D01*
Y655464D01*
X2212530Y647000D02*
Y653771D01*
X2209144Y657157D01*
X2205759Y653771D01*
Y647000D01*
Y652078D01*
X2212530D01*
X3238000Y753000D02*
X3227843D01*
Y747922D01*
X3229536Y746229D01*
X3232922D01*
X3234614Y747922D01*
Y753000D01*
Y749614D02*
X3238000Y746229D01*
X3227843Y736072D02*
X3229536Y739458D01*
X3232922Y742843D01*
X3236307D01*
X3238000Y741151D01*
Y737765D01*
X3236307Y736072D01*
X3234614D01*
X3232922Y737765D01*
Y742843D01*
X3236307Y732686D02*
X3238000Y730994D01*
Y727608D01*
X3236307Y725915D01*
X3229536D01*
X3227843Y727608D01*
Y730994D01*
X3229536Y732686D01*
X3231229D01*
X3232922Y730994D01*
Y725915D01*
X3227843Y715759D02*
Y722530D01*
X3238000D01*
Y715759D01*
X3232922Y722530D02*
Y719144D01*
X2932000Y751000D02*
X2921843D01*
Y745922D01*
X2923536Y744229D01*
X2926922D01*
X2928615Y745922D01*
Y751000D01*
Y747614D02*
X2932000Y744229D01*
X2921843Y734072D02*
X2923536Y737458D01*
X2926922Y740843D01*
X2930307D01*
X2932000Y739150D01*
Y735765D01*
X2930307Y734072D01*
X2928615D01*
X2926922Y735765D01*
Y740843D01*
X2930307Y730686D02*
X2932000Y728994D01*
Y725608D01*
X2930307Y723915D01*
X2923536D01*
X2921843Y725608D01*
Y728994D01*
X2923536Y730686D01*
X2925229D01*
X2926922Y728994D01*
Y723915D01*
X2921843Y720530D02*
X2932000D01*
Y715452D01*
X2930307Y713759D01*
X2923536D01*
X2921843Y715452D01*
Y720530D01*
X2629000Y754000D02*
X2618843D01*
Y748922D01*
X2620536Y747229D01*
X2623922D01*
X2625614Y748922D01*
Y754000D01*
Y750614D02*
X2629000Y747229D01*
X2618843Y737072D02*
X2620536Y740458D01*
X2623922Y743843D01*
X2627307D01*
X2629000Y742150D01*
Y738765D01*
X2627307Y737072D01*
X2625614D01*
X2623922Y738765D01*
Y743843D01*
X2627307Y733687D02*
X2629000Y731994D01*
Y728608D01*
X2627307Y726915D01*
X2620536D01*
X2618843Y728608D01*
Y731994D01*
X2620536Y733687D01*
X2622229D01*
X2623922Y731994D01*
Y726915D01*
X2620536Y716759D02*
X2618843Y718452D01*
Y721837D01*
X2620536Y723530D01*
X2627307D01*
X2629000Y721837D01*
Y718452D01*
X2627307Y716759D01*
X2324000Y756000D02*
X2313843D01*
Y750922D01*
X2315536Y749229D01*
X2318922D01*
X2320614Y750922D01*
Y756000D01*
Y752614D02*
X2324000Y749229D01*
X2313843Y739072D02*
X2315536Y742458D01*
X2318922Y745843D01*
X2322307D01*
X2324000Y744150D01*
Y740765D01*
X2322307Y739072D01*
X2320614D01*
X2318922Y740765D01*
Y745843D01*
X2322307Y735687D02*
X2324000Y733994D01*
Y730608D01*
X2322307Y728915D01*
X2315536D01*
X2313843Y730608D01*
Y733994D01*
X2315536Y735687D01*
X2317229D01*
X2318922Y733994D01*
Y728915D01*
X2313843Y725530D02*
X2324000D01*
Y720452D01*
X2322307Y718759D01*
X2320614D01*
X2318922Y720452D01*
Y725530D01*
Y720452D01*
X2317229Y718759D01*
X2315536D01*
X2313843Y720452D01*
Y725530D01*
X2019000Y754000D02*
X2008843D01*
Y748922D01*
X2010536Y747229D01*
X2013922D01*
X2015614Y748922D01*
Y754000D01*
Y750614D02*
X2019000Y747229D01*
X2008843Y737072D02*
X2010536Y740458D01*
X2013922Y743843D01*
X2017307D01*
X2019000Y742150D01*
Y738765D01*
X2017307Y737072D01*
X2015614D01*
X2013922Y738765D01*
Y743843D01*
X2017307Y733687D02*
X2019000Y731994D01*
Y728608D01*
X2017307Y726915D01*
X2010536D01*
X2008843Y728608D01*
Y731994D01*
X2010536Y733687D01*
X2012229D01*
X2013922Y731994D01*
Y726915D01*
X2019000Y723530D02*
X2012229D01*
X2008843Y720144D01*
X2012229Y716759D01*
X2019000D01*
X2013922D01*
Y723530D01*
X3248000Y518000D02*
X3237843D01*
Y512922D01*
X3239536Y511229D01*
X3242922D01*
X3244614Y512922D01*
Y518000D01*
Y514614D02*
X3248000Y511229D01*
X3237843Y501072D02*
X3239536Y504458D01*
X3242922Y507843D01*
X3246307D01*
X3248000Y506151D01*
Y502765D01*
X3246307Y501072D01*
X3244614D01*
X3242922Y502765D01*
Y507843D01*
X3237843Y490915D02*
X3239536Y494301D01*
X3242922Y497687D01*
X3246307D01*
X3248000Y495994D01*
Y492608D01*
X3246307Y490915D01*
X3244614D01*
X3242922Y492608D01*
Y497687D01*
X3237843Y480759D02*
Y487530D01*
X3248000D01*
Y480759D01*
X3242922Y487530D02*
Y484144D01*
X2943000Y520000D02*
X2932843D01*
Y514922D01*
X2934536Y513229D01*
X2937922D01*
X2939614Y514922D01*
Y520000D01*
Y516614D02*
X2943000Y513229D01*
X2932843Y503072D02*
X2934536Y506458D01*
X2937922Y509843D01*
X2941307D01*
X2943000Y508150D01*
Y504765D01*
X2941307Y503072D01*
X2939614D01*
X2937922Y504765D01*
Y509843D01*
X2932843Y492915D02*
X2934536Y496301D01*
X2937922Y499687D01*
X2941307D01*
X2943000Y497994D01*
Y494608D01*
X2941307Y492915D01*
X2939614D01*
X2937922Y494608D01*
Y499687D01*
X2932843Y489530D02*
X2943000D01*
Y484451D01*
X2941307Y482759D01*
X2934536D01*
X2932843Y484451D01*
Y489530D01*
X2637000Y520000D02*
X2626843D01*
Y514922D01*
X2628536Y513229D01*
X2631922D01*
X2633615Y514922D01*
Y520000D01*
Y516614D02*
X2637000Y513229D01*
X2626843Y503072D02*
X2628536Y506458D01*
X2631922Y509843D01*
X2635307D01*
X2637000Y508150D01*
Y504765D01*
X2635307Y503072D01*
X2633615D01*
X2631922Y504765D01*
Y509843D01*
X2626843Y492915D02*
X2628536Y496301D01*
X2631922Y499687D01*
X2635307D01*
X2637000Y497994D01*
Y494608D01*
X2635307Y492915D01*
X2633615D01*
X2631922Y494608D01*
Y499687D01*
X2628536Y482759D02*
X2626843Y484451D01*
Y487837D01*
X2628536Y489530D01*
X2635307D01*
X2637000Y487837D01*
Y484451D01*
X2635307Y482759D01*
X2331000Y518000D02*
X2320843D01*
Y512922D01*
X2322536Y511229D01*
X2325922D01*
X2327614Y512922D01*
Y518000D01*
Y514614D02*
X2331000Y511229D01*
X2320843Y501072D02*
X2322536Y504458D01*
X2325922Y507843D01*
X2329307D01*
X2331000Y506151D01*
Y502765D01*
X2329307Y501072D01*
X2327614D01*
X2325922Y502765D01*
Y507843D01*
X2320843Y490915D02*
X2322536Y494301D01*
X2325922Y497687D01*
X2329307D01*
X2331000Y495994D01*
Y492608D01*
X2329307Y490915D01*
X2327614D01*
X2325922Y492608D01*
Y497687D01*
X2320843Y487530D02*
X2331000D01*
Y482452D01*
X2329307Y480759D01*
X2327614D01*
X2325922Y482452D01*
Y487530D01*
Y482452D01*
X2324229Y480759D01*
X2322536D01*
X2320843Y482452D01*
Y487530D01*
X2027708Y520089D02*
X2017551D01*
Y515011D01*
X2019244Y513318D01*
X2022630D01*
X2024322Y515011D01*
Y520089D01*
Y516704D02*
X2027708Y513318D01*
X2017551Y503162D02*
X2019244Y506547D01*
X2022630Y509933D01*
X2026015D01*
X2027708Y508240D01*
Y504854D01*
X2026015Y503162D01*
X2024322D01*
X2022630Y504854D01*
Y509933D01*
X2017551Y493005D02*
X2019244Y496390D01*
X2022630Y499776D01*
X2026015D01*
X2027708Y498083D01*
Y494698D01*
X2026015Y493005D01*
X2024322D01*
X2022630Y494698D01*
Y499776D01*
X2027708Y489619D02*
X2020937D01*
X2017551Y486234D01*
X2020937Y482848D01*
X2027708D01*
X2022630D01*
Y489619D01*
X3232000Y518000D02*
X3221843D01*
Y512922D01*
X3223536Y511229D01*
X3226922D01*
X3228615Y512922D01*
Y518000D01*
Y514614D02*
X3232000Y511229D01*
X3221843Y501072D02*
X3223536Y504458D01*
X3226922Y507843D01*
X3230307D01*
X3232000Y506151D01*
Y502765D01*
X3230307Y501072D01*
X3228615D01*
X3226922Y502765D01*
Y507843D01*
X3221843Y490915D02*
Y497687D01*
X3226922D01*
X3225229Y494301D01*
Y492608D01*
X3226922Y490915D01*
X3230307D01*
X3232000Y492608D01*
Y495994D01*
X3230307Y497687D01*
X3221843Y480759D02*
Y487530D01*
X3232000D01*
Y480759D01*
X3226922Y487530D02*
Y484144D01*
X2926000Y520000D02*
X2915843D01*
Y514922D01*
X2917536Y513229D01*
X2920922D01*
X2922614Y514922D01*
Y520000D01*
Y516614D02*
X2926000Y513229D01*
X2915843Y503072D02*
X2917536Y506458D01*
X2920922Y509843D01*
X2924307D01*
X2926000Y508150D01*
Y504765D01*
X2924307Y503072D01*
X2922614D01*
X2920922Y504765D01*
Y509843D01*
X2915843Y492915D02*
Y499687D01*
X2920922D01*
X2919229Y496301D01*
Y494608D01*
X2920922Y492915D01*
X2924307D01*
X2926000Y494608D01*
Y497994D01*
X2924307Y499687D01*
X2915843Y489530D02*
X2926000D01*
Y484451D01*
X2924307Y482759D01*
X2917536D01*
X2915843Y484451D01*
Y489530D01*
X2620000Y520000D02*
X2609843D01*
Y514922D01*
X2611536Y513229D01*
X2614922D01*
X2616614Y514922D01*
Y520000D01*
Y516614D02*
X2620000Y513229D01*
X2609843Y503072D02*
X2611536Y506458D01*
X2614922Y509843D01*
X2618307D01*
X2620000Y508150D01*
Y504765D01*
X2618307Y503072D01*
X2616614D01*
X2614922Y504765D01*
Y509843D01*
X2609843Y492915D02*
Y499687D01*
X2614922D01*
X2613229Y496301D01*
Y494608D01*
X2614922Y492915D01*
X2618307D01*
X2620000Y494608D01*
Y497994D01*
X2618307Y499687D01*
X2611536Y482759D02*
X2609843Y484451D01*
Y487837D01*
X2611536Y489530D01*
X2618307D01*
X2620000Y487837D01*
Y484451D01*
X2618307Y482759D01*
X2318000Y518000D02*
X2307843D01*
Y512922D01*
X2309536Y511229D01*
X2312922D01*
X2314614Y512922D01*
Y518000D01*
Y514614D02*
X2318000Y511229D01*
X2307843Y501072D02*
X2309536Y504458D01*
X2312922Y507843D01*
X2316307D01*
X2318000Y506151D01*
Y502765D01*
X2316307Y501072D01*
X2314614D01*
X2312922Y502765D01*
Y507843D01*
X2307843Y490915D02*
Y497687D01*
X2312922D01*
X2311229Y494301D01*
Y492608D01*
X2312922Y490915D01*
X2316307D01*
X2318000Y492608D01*
Y495994D01*
X2316307Y497687D01*
X2307843Y487530D02*
X2318000D01*
Y482452D01*
X2316307Y480759D01*
X2314614D01*
X2312922Y482452D01*
Y487530D01*
Y482452D01*
X2311229Y480759D01*
X2309536D01*
X2307843Y482452D01*
Y487530D01*
X2012722Y520089D02*
X2002566D01*
Y515011D01*
X2004259Y513318D01*
X2007644D01*
X2009337Y515011D01*
Y520089D01*
Y516704D02*
X2012722Y513318D01*
X2002566Y503162D02*
X2004259Y506547D01*
X2007644Y509933D01*
X2011030D01*
X2012722Y508240D01*
Y504854D01*
X2011030Y503162D01*
X2009337D01*
X2007644Y504854D01*
Y509933D01*
X2002566Y493005D02*
Y499776D01*
X2007644D01*
X2005951Y496390D01*
Y494698D01*
X2007644Y493005D01*
X2011030D01*
X2012722Y494698D01*
Y498083D01*
X2011030Y499776D01*
X2012722Y489619D02*
X2005951D01*
X2002566Y486234D01*
X2005951Y482848D01*
X2012722D01*
X2007644D01*
Y489619D01*
X880000Y478000D02*
Y488157D01*
X874922D01*
X873229Y486464D01*
Y483078D01*
X874922Y481386D01*
X880000D01*
X876614D02*
X873229Y478000D01*
X863072D02*
X869843D01*
X863072Y484771D01*
Y486464D01*
X864765Y488157D01*
X868150D01*
X869843Y486464D01*
X859687Y488157D02*
X852915D01*
Y486464D01*
X859687Y479693D01*
Y478000D01*
X836000Y676000D02*
Y686157D01*
X830922D01*
X829229Y684464D01*
Y681078D01*
X830922Y679386D01*
X836000D01*
X832614D02*
X829229Y676000D01*
X819072D02*
X825843D01*
X819072Y682771D01*
Y684464D01*
X820765Y686157D01*
X824150D01*
X825843Y684464D01*
X808915Y686157D02*
X812301Y684464D01*
X815687Y681078D01*
Y677693D01*
X813994Y676000D01*
X810608D01*
X808915Y677693D01*
Y679386D01*
X810608Y681078D01*
X815687D01*
X710443Y1046557D02*
X700286D01*
Y1041479D01*
X701979Y1039786D01*
X705365D01*
X707057Y1041479D01*
Y1046557D01*
Y1043171D02*
X710443Y1039786D01*
Y1029629D02*
Y1036400D01*
X703672Y1029629D01*
X701979D01*
X700286Y1031322D01*
Y1034708D01*
X701979Y1036400D01*
X700286Y1019473D02*
Y1026244D01*
X705365D01*
X703672Y1022858D01*
Y1021165D01*
X705365Y1019473D01*
X708750D01*
X710443Y1021165D01*
Y1024551D01*
X708750Y1026244D01*
X726443Y1046557D02*
X716286D01*
Y1041479D01*
X717979Y1039786D01*
X721365D01*
X723057Y1041479D01*
Y1046557D01*
Y1043171D02*
X726443Y1039786D01*
Y1029629D02*
Y1036400D01*
X719672Y1029629D01*
X717979D01*
X716286Y1031322D01*
Y1034708D01*
X717979Y1036400D01*
X726443Y1021165D02*
X716286D01*
X721365Y1026244D01*
Y1019473D01*
X741443Y1046557D02*
X731286D01*
Y1041479D01*
X732979Y1039786D01*
X736365D01*
X738057Y1041479D01*
Y1046557D01*
Y1043171D02*
X741443Y1039786D01*
Y1029629D02*
Y1036400D01*
X734672Y1029629D01*
X732979D01*
X731286Y1031322D01*
Y1034708D01*
X732979Y1036400D01*
Y1026244D02*
X731286Y1024551D01*
Y1021165D01*
X732979Y1019473D01*
X734672D01*
X736365Y1021165D01*
Y1022858D01*
Y1021165D01*
X738057Y1019473D01*
X739750D01*
X741443Y1021165D01*
Y1024551D01*
X739750Y1026244D01*
X756443Y1046557D02*
X746286D01*
Y1041479D01*
X747979Y1039786D01*
X751365D01*
X753057Y1041479D01*
Y1046557D01*
Y1043171D02*
X756443Y1039786D01*
Y1029629D02*
Y1036400D01*
X749672Y1029629D01*
X747979D01*
X746286Y1031322D01*
Y1034708D01*
X747979Y1036400D01*
X756443Y1019473D02*
Y1026244D01*
X749672Y1019473D01*
X747979D01*
X746286Y1021165D01*
Y1024551D01*
X747979Y1026244D01*
X778443Y1046557D02*
X768286D01*
Y1041479D01*
X769979Y1039786D01*
X773365D01*
X775057Y1041479D01*
Y1046557D01*
Y1043171D02*
X778443Y1039786D01*
Y1029629D02*
Y1036400D01*
X771672Y1029629D01*
X769979D01*
X768286Y1031322D01*
Y1034708D01*
X769979Y1036400D01*
X778443Y1026244D02*
Y1022858D01*
Y1024551D01*
X768286D01*
X769979Y1026244D01*
X794443Y1046557D02*
X784286D01*
Y1041479D01*
X785979Y1039786D01*
X789365D01*
X791057Y1041479D01*
Y1046557D01*
Y1043171D02*
X794443Y1039786D01*
Y1029629D02*
Y1036400D01*
X787672Y1029629D01*
X785979D01*
X784286Y1031322D01*
Y1034708D01*
X785979Y1036400D01*
Y1026244D02*
X784286Y1024551D01*
Y1021165D01*
X785979Y1019473D01*
X792750D01*
X794443Y1021165D01*
Y1024551D01*
X792750Y1026244D01*
X785979D01*
X809443Y1046557D02*
X799286D01*
Y1041479D01*
X800979Y1039786D01*
X804365D01*
X806057Y1041479D01*
Y1046557D01*
Y1043171D02*
X809443Y1039786D01*
Y1036400D02*
Y1033015D01*
Y1034708D01*
X799286D01*
X800979Y1036400D01*
Y1027936D02*
X799286Y1026244D01*
Y1022858D01*
X800979Y1021165D01*
X802672D01*
X804365Y1022858D01*
X806057Y1021165D01*
X807750D01*
X809443Y1022858D01*
Y1026244D01*
X807750Y1027936D01*
X806057D01*
X804365Y1026244D01*
X802672Y1027936D01*
X800979D01*
X804365Y1026244D02*
Y1022858D01*
X825443Y1046557D02*
X815286D01*
Y1041479D01*
X816979Y1039786D01*
X820365D01*
X822057Y1041479D01*
Y1046557D01*
Y1043171D02*
X825443Y1039786D01*
Y1036400D02*
Y1033015D01*
Y1034708D01*
X815286D01*
X816979Y1036400D01*
X815286Y1027936D02*
Y1021165D01*
X816979D01*
X823750Y1027936D01*
X825443D01*
X581660Y815340D02*
Y825497D01*
X576582D01*
X574889Y823804D01*
Y820418D01*
X576582Y818726D01*
X581660D01*
X578274D02*
X574889Y815340D01*
X571503D02*
X568118D01*
X569810D01*
Y825497D01*
X571503Y823804D01*
X556268Y825497D02*
X559654Y823804D01*
X563039Y820418D01*
Y817033D01*
X561347Y815340D01*
X557961D01*
X556268Y817033D01*
Y818726D01*
X557961Y820418D01*
X563039D01*
X847443Y1046557D02*
X837286D01*
Y1041479D01*
X838979Y1039786D01*
X842365D01*
X844057Y1041479D01*
Y1046557D01*
Y1043171D02*
X847443Y1039786D01*
Y1036400D02*
Y1033015D01*
Y1034708D01*
X837286D01*
X838979Y1036400D01*
X847443Y1022858D02*
X837286D01*
X842365Y1027936D01*
Y1021165D01*
X861443Y1046557D02*
X851286D01*
Y1041479D01*
X852979Y1039786D01*
X856365D01*
X858057Y1041479D01*
Y1046557D01*
Y1043171D02*
X861443Y1039786D01*
Y1036400D02*
Y1033015D01*
Y1034708D01*
X851286D01*
X852979Y1036400D01*
Y1027936D02*
X851286Y1026244D01*
Y1022858D01*
X852979Y1021165D01*
X854672D01*
X856365Y1022858D01*
Y1024551D01*
Y1022858D01*
X858057Y1021165D01*
X859750D01*
X861443Y1022858D01*
Y1026244D01*
X859750Y1027936D01*
X875443Y1046557D02*
X865286D01*
Y1041479D01*
X866979Y1039786D01*
X870365D01*
X872057Y1041479D01*
Y1046557D01*
Y1043171D02*
X875443Y1039786D01*
Y1036400D02*
Y1033015D01*
Y1034708D01*
X865286D01*
X866979Y1036400D01*
X875443Y1021165D02*
Y1027936D01*
X868672Y1021165D01*
X866979D01*
X865286Y1022858D01*
Y1026244D01*
X866979Y1027936D01*
X891443Y1046557D02*
X881286D01*
Y1041479D01*
X882979Y1039786D01*
X886365D01*
X888057Y1041479D01*
Y1046557D01*
Y1043171D02*
X891443Y1039786D01*
Y1036400D02*
Y1033015D01*
Y1034708D01*
X881286D01*
X882979Y1036400D01*
X891443Y1027936D02*
Y1024551D01*
Y1026244D01*
X881286D01*
X882979Y1027936D01*
X173372Y670673D02*
Y660516D01*
X166601D01*
X158137D02*
Y670673D01*
X163215Y665594D01*
X156444D01*
X132536Y755229D02*
X130843Y756922D01*
Y760307D01*
X132536Y762000D01*
X139307D01*
X141000Y760307D01*
Y756922D01*
X139307Y755229D01*
X141000Y745072D02*
Y751843D01*
X134229Y745072D01*
X132536D01*
X130843Y746765D01*
Y750151D01*
X132536Y751843D01*
X141000Y741687D02*
Y738301D01*
Y739994D01*
X130843D01*
X132536Y741687D01*
X185536Y747229D02*
X183843Y748922D01*
Y752307D01*
X185536Y754000D01*
X192307D01*
X194000Y752307D01*
Y748922D01*
X192307Y747229D01*
X194000Y743843D02*
Y740458D01*
Y742150D01*
X183843D01*
X185536Y743843D01*
X192307Y735379D02*
X194000Y733687D01*
Y730301D01*
X192307Y728608D01*
X185536D01*
X183843Y730301D01*
Y733687D01*
X185536Y735379D01*
X187229D01*
X188922Y733687D01*
Y728608D01*
X121229Y657464D02*
X122922Y659157D01*
X126307D01*
X128000Y657464D01*
Y650693D01*
X126307Y649000D01*
X122922D01*
X121229Y650693D01*
X117843Y649000D02*
X114458D01*
X116151D01*
Y659157D01*
X117843Y657464D01*
X109379Y659157D02*
X102608D01*
Y657464D01*
X109379Y650693D01*
Y649000D01*
X121229Y698464D02*
X122922Y700157D01*
X126307D01*
X128000Y698464D01*
Y691693D01*
X126307Y690000D01*
X122922D01*
X121229Y691693D01*
X117843Y690000D02*
X114458D01*
X116151D01*
Y700157D01*
X117843Y698464D01*
X102608Y700157D02*
X105994Y698464D01*
X109379Y695078D01*
Y691693D01*
X107687Y690000D01*
X104301D01*
X102608Y691693D01*
Y693386D01*
X104301Y695078D01*
X109379D01*
X48229Y745464D02*
X49922Y747157D01*
X53307D01*
X55000Y745464D01*
Y738693D01*
X53307Y737000D01*
X49922D01*
X48229Y738693D01*
X44843Y737000D02*
X41458D01*
X43151D01*
Y747157D01*
X44843Y745464D01*
X29608Y747157D02*
X36379D01*
Y742078D01*
X32994Y743771D01*
X31301D01*
X29608Y742078D01*
Y738693D01*
X31301Y737000D01*
X34687D01*
X36379Y738693D01*
X189229Y783464D02*
X190922Y785157D01*
X194307D01*
X196000Y783464D01*
Y776693D01*
X194307Y775000D01*
X190922D01*
X189229Y776693D01*
X185843Y775000D02*
X182458D01*
X184151D01*
Y785157D01*
X185843Y783464D01*
X172301Y775000D02*
Y785157D01*
X177379Y780078D01*
X170608D01*
X189229Y770464D02*
X190922Y772157D01*
X194307D01*
X196000Y770464D01*
Y763693D01*
X194307Y762000D01*
X190922D01*
X189229Y763693D01*
X185843Y762000D02*
X182458D01*
X184151D01*
Y772157D01*
X185843Y770464D01*
X177379D02*
X175686Y772157D01*
X172301D01*
X170608Y770464D01*
Y768771D01*
X172301Y767078D01*
X173994D01*
X172301D01*
X170608Y765386D01*
Y763693D01*
X172301Y762000D01*
X175686D01*
X177379Y763693D01*
X233536Y544229D02*
X231843Y545922D01*
Y549307D01*
X233536Y551000D01*
X240307D01*
X242000Y549307D01*
Y545922D01*
X240307Y544229D01*
X242000Y540843D02*
Y537458D01*
Y539151D01*
X231843D01*
X233536Y540843D01*
X242000Y525608D02*
Y532379D01*
X235229Y525608D01*
X233536D01*
X231843Y527301D01*
Y530686D01*
X233536Y532379D01*
X79536Y679229D02*
X77843Y680922D01*
Y684307D01*
X79536Y686000D01*
X86307D01*
X88000Y684307D01*
Y680922D01*
X86307Y679229D01*
X88000Y675843D02*
Y672458D01*
Y674150D01*
X77843D01*
X79536Y675843D01*
X88000Y667379D02*
Y663994D01*
Y665687D01*
X77843D01*
X79536Y667379D01*
X48229Y761464D02*
X49922Y763157D01*
X53307D01*
X55000Y761464D01*
Y754693D01*
X53307Y753000D01*
X49922D01*
X48229Y754693D01*
X44843Y753000D02*
X41458D01*
X43151D01*
Y763157D01*
X44843Y761464D01*
X36379D02*
X34687Y763157D01*
X31301D01*
X29608Y761464D01*
Y754693D01*
X31301Y753000D01*
X34687D01*
X36379Y754693D01*
Y761464D01*
X159229Y709464D02*
X160922Y711157D01*
X164307D01*
X166000Y709464D01*
Y702693D01*
X164307Y701000D01*
X160922D01*
X159229Y702693D01*
X155843D02*
X154150Y701000D01*
X150765D01*
X149072Y702693D01*
Y709464D01*
X150765Y711157D01*
X154150D01*
X155843Y709464D01*
Y707771D01*
X154150Y706078D01*
X149072D01*
X172229Y683464D02*
X173922Y685157D01*
X177307D01*
X179000Y683464D01*
Y676693D01*
X177307Y675000D01*
X173922D01*
X172229Y676693D01*
X168843Y683464D02*
X167150Y685157D01*
X163765D01*
X162072Y683464D01*
Y681771D01*
X163765Y680078D01*
X162072Y678386D01*
Y676693D01*
X163765Y675000D01*
X167150D01*
X168843Y676693D01*
Y678386D01*
X167150Y680078D01*
X168843Y681771D01*
Y683464D01*
X167150Y680078D02*
X163765D01*
X95536Y798229D02*
X93843Y799922D01*
Y803307D01*
X95536Y805000D01*
X102307D01*
X104000Y803307D01*
Y799922D01*
X102307Y798229D01*
X93843Y794843D02*
Y788072D01*
X95536D01*
X102307Y794843D01*
X104000D01*
X114536Y798229D02*
X112843Y799922D01*
Y803307D01*
X114536Y805000D01*
X121307D01*
X123000Y803307D01*
Y799922D01*
X121307Y798229D01*
X112843Y788072D02*
X114536Y791458D01*
X117922Y794843D01*
X121307D01*
X123000Y793150D01*
Y789765D01*
X121307Y788072D01*
X119614D01*
X117922Y789765D01*
Y794843D01*
X47229Y721464D02*
X48922Y723157D01*
X52307D01*
X54000Y721464D01*
Y714693D01*
X52307Y713000D01*
X48922D01*
X47229Y714693D01*
X37072Y723157D02*
X43843D01*
Y718078D01*
X40458Y719771D01*
X38765D01*
X37072Y718078D01*
Y714693D01*
X38765Y713000D01*
X42151D01*
X43843Y714693D01*
X60229Y666464D02*
X61922Y668157D01*
X65307D01*
X67000Y666464D01*
Y659693D01*
X65307Y658000D01*
X61922D01*
X60229Y659693D01*
X51765Y658000D02*
Y668157D01*
X56843Y663078D01*
X50072D01*
X502920Y850900D02*
X492763D01*
Y845822D01*
X494456Y844129D01*
X497842D01*
X499534Y845822D01*
Y850900D01*
Y847514D02*
X502920Y844129D01*
Y833972D02*
Y840743D01*
X496149Y833972D01*
X494456D01*
X492763Y835665D01*
Y839051D01*
X494456Y840743D01*
Y830587D02*
X492763Y828894D01*
Y825508D01*
X494456Y823815D01*
X501227D01*
X502920Y825508D01*
Y828894D01*
X501227Y830587D01*
X494456D01*
X502920Y820430D02*
Y817044D01*
Y818737D01*
X492763D01*
X494456Y820430D01*
X780000Y766000D02*
Y776157D01*
X774922D01*
X773229Y774464D01*
Y771078D01*
X774922Y769386D01*
X780000D01*
X776614D02*
X773229Y766000D01*
X763072D02*
X769843D01*
X763072Y772771D01*
Y774464D01*
X764765Y776157D01*
X768150D01*
X769843Y774464D01*
X759687D02*
X757994Y776157D01*
X754608D01*
X752915Y774464D01*
Y767693D01*
X754608Y766000D01*
X757994D01*
X759687Y767693D01*
Y774464D01*
X742759Y766000D02*
X749530D01*
X742759Y772771D01*
Y774464D01*
X744452Y776157D01*
X747837D01*
X749530Y774464D01*
X607063Y873106D02*
Y866335D01*
Y869721D01*
X617220D01*
Y862949D02*
X607063D01*
Y857871D01*
X608756Y856178D01*
X612142D01*
X613834Y857871D01*
Y862949D01*
X607063Y852793D02*
Y846021D01*
X608756D01*
X615527Y852793D01*
X617220D01*
X596540Y942340D02*
Y935569D01*
Y938954D01*
X606697D01*
Y932183D02*
X596540D01*
Y927105D01*
X598233Y925412D01*
X601619D01*
X603312Y927105D01*
Y932183D01*
X596540Y915255D02*
X598233Y918641D01*
X601619Y922027D01*
X605004D01*
X606697Y920334D01*
Y916948D01*
X605004Y915255D01*
X603312D01*
X601619Y916948D01*
Y922027D01*
X730829Y990464D02*
X732522Y992157D01*
X735907D01*
X737600Y990464D01*
Y988771D01*
X735907Y987078D01*
X732522D01*
X730829Y985386D01*
Y983693D01*
X732522Y982000D01*
X735907D01*
X737600Y983693D01*
X727443Y992157D02*
Y982000D01*
X724058Y985386D01*
X720672Y982000D01*
Y992157D01*
X717287Y990464D02*
X715594Y992157D01*
X712208D01*
X710515Y990464D01*
Y988771D01*
X712208Y987078D01*
X713901D01*
X712208D01*
X710515Y985386D01*
Y983693D01*
X712208Y982000D01*
X715594D01*
X717287Y983693D01*
X582843Y769298D02*
Y762527D01*
Y765912D01*
X593000D01*
Y759141D02*
X582843D01*
Y754063D01*
X584536Y752370D01*
X587922D01*
X589614Y754063D01*
Y759141D01*
X593000Y743906D02*
X582843D01*
X587922Y748985D01*
Y742213D01*
X593000Y733749D02*
X582843D01*
X587922Y738828D01*
Y732057D01*
X900929Y565497D02*
X894158D01*
X897544D01*
Y555341D01*
X890773D02*
Y565497D01*
X885694D01*
X884002Y563805D01*
Y560419D01*
X885694Y558726D01*
X890773D01*
X873845Y555341D02*
X880616D01*
X873845Y562112D01*
Y563805D01*
X875538Y565497D01*
X878923D01*
X880616Y563805D01*
X870459Y557034D02*
X868767Y555341D01*
X865381D01*
X863688Y557034D01*
Y563805D01*
X865381Y565497D01*
X868767D01*
X870459Y563805D01*
Y562112D01*
X868767Y560419D01*
X863688D01*
D23*
X2016843Y260000D02*
X2027000D01*
Y254922D01*
X2025307Y253229D01*
X2018536D01*
X2016843Y254922D01*
Y260000D01*
X2027000Y243072D02*
Y249843D01*
X2020229Y243072D01*
X2018536D01*
X2016843Y244765D01*
Y248151D01*
X2018536Y249843D01*
X2016843Y232915D02*
X2018536Y236301D01*
X2021922Y239687D01*
X2025307D01*
X2027000Y237994D01*
Y234608D01*
X2025307Y232915D01*
X2023614D01*
X2021922Y234608D01*
Y239687D01*
X1946000Y324157D02*
X1939229D01*
X1942614D01*
Y314000D01*
X1935843D02*
X1932458D01*
X1934151D01*
Y324157D01*
X1935843Y322464D01*
X1922301Y314000D02*
Y324157D01*
X1927379Y319078D01*
X1920608D01*
X1917223Y324157D02*
Y314000D01*
X1912144D01*
X1910452Y315693D01*
Y322464D01*
X1912144Y324157D01*
X1917223D01*
X329000Y202157D02*
Y193693D01*
X327307Y192000D01*
X323922D01*
X322229Y193693D01*
Y202157D01*
X312072Y192000D02*
X318843D01*
X312072Y198771D01*
Y200464D01*
X313765Y202157D01*
X317150D01*
X318843Y200464D01*
X303608Y192000D02*
Y202157D01*
X308687Y197078D01*
X301915D01*
X291759Y200464D02*
X293451Y202157D01*
X296837D01*
X298530Y200464D01*
Y193693D01*
X296837Y192000D01*
X293451D01*
X291759Y193693D01*
X115062Y1108202D02*
Y1118359D01*
X109984D01*
X108291Y1116666D01*
Y1113280D01*
X109984Y1111588D01*
X115062D01*
X111676D02*
X108291Y1108202D01*
X98134D02*
X104905D01*
X98134Y1114973D01*
Y1116666D01*
X99827Y1118359D01*
X103212D01*
X104905Y1116666D01*
X94749D02*
X93056Y1118359D01*
X89670D01*
X87977Y1116666D01*
Y1114973D01*
X89670Y1113280D01*
X91363D01*
X89670D01*
X87977Y1111588D01*
Y1109895D01*
X89670Y1108202D01*
X93056D01*
X94749Y1109895D01*
X84592Y1118359D02*
X77821D01*
Y1116666D01*
X84592Y1109895D01*
Y1108202D01*
X301000Y1183000D02*
X290843D01*
Y1177922D01*
X292536Y1176229D01*
X295922D01*
X297614Y1177922D01*
Y1183000D01*
Y1179614D02*
X301000Y1176229D01*
Y1172843D02*
Y1169458D01*
Y1171151D01*
X290843D01*
X292536Y1172843D01*
X290843Y1157608D02*
Y1164379D01*
X295922D01*
X294229Y1160994D01*
Y1159301D01*
X295922Y1157608D01*
X299307D01*
X301000Y1159301D01*
Y1162686D01*
X299307Y1164379D01*
X290843Y1147451D02*
Y1154223D01*
X295922D01*
X294229Y1150837D01*
Y1149144D01*
X295922Y1147451D01*
X299307D01*
X301000Y1149144D01*
Y1152530D01*
X299307Y1154223D01*
X676910Y309115D02*
X670139Y298958D01*
Y309115D02*
X676910Y298958D01*
X666753D02*
X663368D01*
X665061D01*
Y309115D01*
X666753Y307422D01*
X658289Y298958D02*
X654904D01*
X656597D01*
Y309115D01*
X658289Y307422D01*
X1929892Y1194023D02*
X1923121Y1183866D01*
Y1194023D02*
X1929892Y1183866D01*
X1919735D02*
X1916350D01*
X1918042D01*
Y1194023D01*
X1919735Y1192330D01*
X1906193Y1183866D02*
Y1194023D01*
X1911271Y1188944D01*
X1904500D01*
X1901115Y1194023D02*
Y1183866D01*
X1896036D01*
X1894344Y1185559D01*
Y1187252D01*
X1896036Y1188944D01*
X1901115D01*
X1896036D01*
X1894344Y1190637D01*
Y1192330D01*
X1896036Y1194023D01*
X1901115D01*
X274693Y1013470D02*
X264536D01*
Y1020241D01*
Y1023627D02*
Y1027012D01*
Y1025320D01*
X274693D01*
X273000Y1023627D01*
Y1032091D02*
X274693Y1033783D01*
Y1037169D01*
X273000Y1038862D01*
X266229D01*
X264536Y1037169D01*
Y1033783D01*
X266229Y1032091D01*
X273000D01*
X152000Y141157D02*
Y131000D01*
X146922D01*
X145229Y132693D01*
Y139464D01*
X146922Y141157D01*
X152000D01*
X135072Y131000D02*
X141843D01*
X135072Y137771D01*
Y139464D01*
X136765Y141157D01*
X140150D01*
X141843Y139464D01*
X131687Y141157D02*
X124915D01*
Y139464D01*
X131687Y132693D01*
Y131000D01*
X114759Y139464D02*
X116452Y141157D01*
X119837D01*
X121530Y139464D01*
Y132693D01*
X119837Y131000D01*
X116452D01*
X114759Y132693D01*
X802771Y990386D02*
X804464Y992078D01*
X807850D01*
X809542Y990386D01*
Y988693D01*
X807850Y987000D01*
X804464D01*
X802771Y985307D01*
Y983614D01*
X804464Y981922D01*
X807850D01*
X809542Y983614D01*
X799386Y992078D02*
Y981922D01*
X796000Y985307D01*
X792614Y981922D01*
Y992078D01*
X782458Y981922D02*
X789229D01*
X782458Y988693D01*
Y990386D01*
X784150Y992078D01*
X787536D01*
X789229Y990386D01*
X405841Y817378D02*
X399070D01*
X402455D01*
Y807222D01*
X395684D02*
Y817378D01*
X390606D01*
X388913Y815686D01*
Y812300D01*
X390606Y810607D01*
X395684D01*
X378756Y807222D02*
X385527D01*
X378756Y813993D01*
Y815686D01*
X380449Y817378D01*
X383834D01*
X385527Y815686D01*
X375370Y817378D02*
X368599D01*
Y815686D01*
X375370Y808914D01*
Y807222D01*
X3360000Y523000D02*
X3349843D01*
Y517922D01*
X3351536Y516229D01*
X3354922D01*
X3356614Y517922D01*
Y523000D01*
Y519614D02*
X3360000Y516229D01*
X3349843Y512843D02*
Y506072D01*
X3351536D01*
X3358307Y512843D01*
X3360000D01*
X3351536Y502687D02*
X3349843Y500994D01*
Y497608D01*
X3351536Y495915D01*
X3353229D01*
X3354922Y497608D01*
Y499301D01*
Y497608D01*
X3356614Y495915D01*
X3358307D01*
X3360000Y497608D01*
Y500994D01*
X3358307Y502687D01*
X3349843Y485759D02*
Y492530D01*
X3360000D01*
Y485759D01*
X3354922Y492530D02*
Y489144D01*
X157313Y1116666D02*
X159006Y1118359D01*
X162391D01*
X164084Y1116666D01*
Y1109895D01*
X162391Y1108202D01*
X159006D01*
X157313Y1109895D01*
X153927Y1108202D02*
X150542D01*
X152234D01*
Y1118359D01*
X153927Y1116666D01*
X145463D02*
X143771Y1118359D01*
X140385D01*
X138692Y1116666D01*
Y1114973D01*
X140385Y1113280D01*
X142078D01*
X140385D01*
X138692Y1111588D01*
Y1109895D01*
X140385Y1108202D01*
X143771D01*
X145463Y1109895D01*
X135307Y1116666D02*
X133614Y1118359D01*
X130228D01*
X128535Y1116666D01*
Y1109895D01*
X130228Y1108202D01*
X133614D01*
X135307Y1109895D01*
Y1116666D01*
X51000Y848000D02*
X40843D01*
Y842922D01*
X42536Y841229D01*
X45922D01*
X47614Y842922D01*
Y848000D01*
Y844614D02*
X51000Y841229D01*
Y831072D02*
Y837843D01*
X44229Y831072D01*
X42536D01*
X40843Y832765D01*
Y836151D01*
X42536Y837843D01*
X51000Y822608D02*
X40843D01*
X45922Y827687D01*
Y820915D01*
X42536Y817530D02*
X40843Y815837D01*
Y812451D01*
X42536Y810759D01*
X49307D01*
X51000Y812451D01*
Y815837D01*
X49307Y817530D01*
X42536D01*
X34000Y848000D02*
X23843D01*
Y842922D01*
X25536Y841229D01*
X28922D01*
X30614Y842922D01*
Y848000D01*
Y844614D02*
X34000Y841229D01*
Y831072D02*
Y837843D01*
X27229Y831072D01*
X25536D01*
X23843Y832765D01*
Y836151D01*
X25536Y837843D01*
X34000Y822608D02*
X23843D01*
X28922Y827687D01*
Y820915D01*
X34000Y817530D02*
Y814144D01*
Y815837D01*
X23843D01*
X25536Y817530D01*
X443000Y317000D02*
Y327157D01*
X437922D01*
X436229Y325464D01*
Y322078D01*
X437922Y320386D01*
X443000D01*
X439614D02*
X436229Y317000D01*
X432843D02*
X429458D01*
X431151D01*
Y327157D01*
X432843Y325464D01*
X417608Y327157D02*
X424379D01*
Y322078D01*
X420994Y323771D01*
X419301D01*
X417608Y322078D01*
Y318693D01*
X419301Y317000D01*
X422687D01*
X424379Y318693D01*
X414223Y327157D02*
X407452D01*
Y325464D01*
X414223Y318693D01*
Y317000D01*
X404066Y327157D02*
Y317000D01*
X398988D01*
X397295Y318693D01*
Y320386D01*
X398988Y322078D01*
X404066D01*
X398988D01*
X397295Y323771D01*
Y325464D01*
X398988Y327157D01*
X404066D01*
X443000Y200000D02*
Y210157D01*
X437922D01*
X436229Y208464D01*
Y205078D01*
X437922Y203386D01*
X443000D01*
X439614D02*
X436229Y200000D01*
X432843D02*
X429458D01*
X431151D01*
Y210157D01*
X432843Y208464D01*
X417608Y210157D02*
X420994Y208464D01*
X424379Y205078D01*
Y201693D01*
X422687Y200000D01*
X419301D01*
X417608Y201693D01*
Y203386D01*
X419301Y205078D01*
X424379D01*
X414223Y208464D02*
X412530Y210157D01*
X409144D01*
X407452Y208464D01*
Y201693D01*
X409144Y200000D01*
X412530D01*
X414223Y201693D01*
Y208464D01*
X404066Y210157D02*
Y200000D01*
X398988D01*
X397295Y201693D01*
Y203386D01*
X398988Y205078D01*
X404066D01*
X398988D01*
X397295Y206771D01*
Y208464D01*
X398988Y210157D01*
X404066D01*
X329000Y328157D02*
Y319693D01*
X327307Y318000D01*
X323922D01*
X322229Y319693D01*
Y328157D01*
X312072Y318000D02*
X318843D01*
X312072Y324771D01*
Y326464D01*
X313765Y328157D01*
X317150D01*
X318843Y326464D01*
X303608Y318000D02*
Y328157D01*
X308687Y323078D01*
X301915D01*
X298530Y328157D02*
Y318000D01*
X293451D01*
X291759Y319693D01*
Y321386D01*
X293451Y323078D01*
X298530D01*
X293451D01*
X291759Y324771D01*
Y326464D01*
X293451Y328157D01*
X298530D01*
X443000Y183000D02*
Y193157D01*
X437922D01*
X436229Y191464D01*
Y188078D01*
X437922Y186386D01*
X443000D01*
X439614D02*
X436229Y183000D01*
X432843D02*
X429458D01*
X431151D01*
Y193157D01*
X432843Y191464D01*
X417608Y193157D02*
X424379D01*
Y188078D01*
X420994Y189771D01*
X419301D01*
X417608Y188078D01*
Y184693D01*
X419301Y183000D01*
X422687D01*
X424379Y184693D01*
X414223Y193157D02*
X407452D01*
Y191464D01*
X414223Y184693D01*
Y183000D01*
X397295Y191464D02*
X398988Y193157D01*
X402373D01*
X404066Y191464D01*
Y184693D01*
X402373Y183000D01*
X398988D01*
X397295Y184693D01*
X461000Y144000D02*
Y154157D01*
X455922D01*
X454229Y152464D01*
Y149078D01*
X455922Y147386D01*
X461000D01*
X457614D02*
X454229Y144000D01*
X450843D02*
X447458D01*
X449151D01*
Y154157D01*
X450843Y152464D01*
X435608Y154157D02*
X442379D01*
Y149078D01*
X438994Y150771D01*
X437301D01*
X435608Y149078D01*
Y145693D01*
X437301Y144000D01*
X440686D01*
X442379Y145693D01*
X432223Y152464D02*
X430530Y154157D01*
X427144D01*
X425452Y152464D01*
Y150771D01*
X427144Y149078D01*
X425452Y147386D01*
Y145693D01*
X427144Y144000D01*
X430530D01*
X432223Y145693D01*
Y147386D01*
X430530Y149078D01*
X432223Y150771D01*
Y152464D01*
X430530Y149078D02*
X427144D01*
X415295Y152464D02*
X416987Y154157D01*
X420373D01*
X422066Y152464D01*
Y145693D01*
X420373Y144000D01*
X416987D01*
X415295Y145693D01*
X465000Y108000D02*
Y118157D01*
X459922D01*
X458229Y116464D01*
Y113078D01*
X459922Y111386D01*
X465000D01*
X461614D02*
X458229Y108000D01*
X454843D02*
X451458D01*
X453150D01*
Y118157D01*
X454843Y116464D01*
X439608Y118157D02*
X446379D01*
Y113078D01*
X442994Y114771D01*
X441301D01*
X439608Y113078D01*
Y109693D01*
X441301Y108000D01*
X444687D01*
X446379Y109693D01*
X436223D02*
X434530Y108000D01*
X431144D01*
X429451Y109693D01*
Y116464D01*
X431144Y118157D01*
X434530D01*
X436223Y116464D01*
Y114771D01*
X434530Y113078D01*
X429451D01*
X419295Y116464D02*
X420988Y118157D01*
X424373D01*
X426066Y116464D01*
Y109693D01*
X424373Y108000D01*
X420988D01*
X419295Y109693D01*
X443000Y68000D02*
Y78157D01*
X437922D01*
X436229Y76464D01*
Y73078D01*
X437922Y71386D01*
X443000D01*
X439614D02*
X436229Y68000D01*
X432843D02*
X429458D01*
X431151D01*
Y78157D01*
X432843Y76464D01*
X417608Y78157D02*
X420994Y76464D01*
X424379Y73078D01*
Y69693D01*
X422687Y68000D01*
X419301D01*
X417608Y69693D01*
Y71386D01*
X419301Y73078D01*
X424379D01*
X414223Y76464D02*
X412530Y78157D01*
X409144D01*
X407452Y76464D01*
Y69693D01*
X409144Y68000D01*
X412530D01*
X414223Y69693D01*
Y76464D01*
X397295D02*
X398988Y78157D01*
X402373D01*
X404066Y76464D01*
Y69693D01*
X402373Y68000D01*
X398988D01*
X397295Y69693D01*
X1946000Y423157D02*
X1939229D01*
X1942614D01*
Y413000D01*
X1935843D02*
X1932458D01*
X1934151D01*
Y423157D01*
X1935843Y421464D01*
X1922301Y413000D02*
Y423157D01*
X1927379Y418078D01*
X1920608D01*
X1917223Y413000D02*
Y419771D01*
X1913837Y423157D01*
X1910452Y419771D01*
Y413000D01*
Y418078D01*
X1917223D01*
X1946000Y390157D02*
X1939229D01*
X1942614D01*
Y380000D01*
X1935843D02*
X1932458D01*
X1934151D01*
Y390157D01*
X1935843Y388464D01*
X1922301Y380000D02*
Y390157D01*
X1927379Y385078D01*
X1920608D01*
X1917223Y390157D02*
Y380000D01*
X1912144D01*
X1910452Y381693D01*
Y383386D01*
X1912144Y385078D01*
X1917223D01*
X1912144D01*
X1910452Y386771D01*
Y388464D01*
X1912144Y390157D01*
X1917223D01*
X1946000Y357157D02*
X1939229D01*
X1942614D01*
Y347000D01*
X1935843D02*
X1932458D01*
X1934151D01*
Y357157D01*
X1935843Y355464D01*
X1922301Y347000D02*
Y357157D01*
X1927379Y352078D01*
X1920608D01*
X1910452Y355464D02*
X1912144Y357157D01*
X1915530D01*
X1917223Y355464D01*
Y348693D01*
X1915530Y347000D01*
X1912144D01*
X1910452Y348693D01*
X2032593Y260732D02*
X2042750D01*
Y255654D01*
X2041057Y253961D01*
X2034286D01*
X2032593Y255654D01*
Y260732D01*
X2042750Y243804D02*
Y250575D01*
X2035979Y243804D01*
X2034286D01*
X2032593Y245497D01*
Y248883D01*
X2034286Y250575D01*
X2042750Y240419D02*
Y237033D01*
Y238726D01*
X2032593D01*
X2034286Y240419D01*
X352000Y707000D02*
X341843D01*
Y701922D01*
X343536Y700229D01*
X346922D01*
X348614Y701922D01*
Y707000D01*
Y703614D02*
X352000Y700229D01*
Y696843D02*
Y693458D01*
Y695151D01*
X341843D01*
X343536Y696843D01*
Y688379D02*
X341843Y686687D01*
Y683301D01*
X343536Y681608D01*
X345229D01*
X346922Y683301D01*
Y684994D01*
Y683301D01*
X348614Y681608D01*
X350307D01*
X352000Y683301D01*
Y686687D01*
X350307Y688379D01*
X341843Y671451D02*
Y678223D01*
X346922D01*
X345229Y674837D01*
Y673144D01*
X346922Y671451D01*
X350307D01*
X352000Y673144D01*
Y676530D01*
X350307Y678223D01*
X369000Y707000D02*
X358843D01*
Y701922D01*
X360536Y700229D01*
X363922D01*
X365614Y701922D01*
Y707000D01*
Y703615D02*
X369000Y700229D01*
Y696843D02*
Y693458D01*
Y695151D01*
X358843D01*
X360536Y696843D01*
Y688379D02*
X358843Y686687D01*
Y683301D01*
X360536Y681608D01*
X362229D01*
X363922Y683301D01*
Y684994D01*
Y683301D01*
X365614Y681608D01*
X367307D01*
X369000Y683301D01*
Y686687D01*
X367307Y688379D01*
X358843Y678223D02*
Y671451D01*
X360536D01*
X367307Y678223D01*
X369000D01*
X286000Y1183000D02*
X275843D01*
Y1177922D01*
X277536Y1176229D01*
X280922D01*
X282614Y1177922D01*
Y1183000D01*
Y1179614D02*
X286000Y1176229D01*
Y1172843D02*
Y1169458D01*
Y1171151D01*
X275843D01*
X277536Y1172843D01*
X275843Y1157608D02*
Y1164379D01*
X280922D01*
X279229Y1160994D01*
Y1159301D01*
X280922Y1157608D01*
X284307D01*
X286000Y1159301D01*
Y1162687D01*
X284307Y1164379D01*
X286000Y1149144D02*
X275843D01*
X280922Y1154223D01*
Y1147451D01*
X152000Y275157D02*
Y265000D01*
X146922D01*
X145229Y266693D01*
Y273464D01*
X146922Y275157D01*
X152000D01*
X135072Y265000D02*
X141843D01*
X135072Y271771D01*
Y273464D01*
X136765Y275157D01*
X140150D01*
X141843Y273464D01*
X131687Y275157D02*
X124915D01*
Y273464D01*
X131687Y266693D01*
Y265000D01*
X121530Y275157D02*
Y265000D01*
X116452D01*
X114759Y266693D01*
Y268386D01*
X116452Y270078D01*
X121530D01*
X116452D01*
X114759Y271771D01*
Y273464D01*
X116452Y275157D01*
X121530D01*
D133*
X39103Y981000D02*
G03*
X39103Y981000I-3000J0D01*
G01*
M02*
