G04*
G04 #@! TF.GenerationSoftware,Altium Limited,Altium Designer,19.1.9 (167)*
G04*
G04 Layer_Color=16711935*
%FSLAX44Y44*%
%MOMM*%
G71*
G01*
G75*
%ADD10C,0.2540*%
%ADD11C,0.1524*%
D10*
X1166400Y-70000D02*
X1181640Y-64920D01*
X1166400Y-70000D02*
X1181640Y-75080D01*
X1455960D02*
X1471200Y-70000D01*
X1455960Y-64920D02*
X1471200Y-70000D01*
X1166400D02*
X1198888D01*
X1308584D02*
X1471200D01*
X1166400Y-72540D02*
Y429500D01*
X1471200Y-72540D02*
Y429500D01*
X0Y-70000D02*
X15240Y-64920D01*
X0Y-70000D02*
X15240Y-75080D01*
X1151160D02*
X1166400Y-70000D01*
X1151160Y-64920D02*
X1166400Y-70000D01*
X0D02*
X519210D01*
X639062D02*
X1166400D01*
X0Y-72540D02*
Y0D01*
X1166400Y-72540D02*
Y429500D01*
X404400Y-40000D02*
X419640Y-34920D01*
X404400Y-40000D02*
X419640Y-45080D01*
X846360D02*
X861600Y-40000D01*
X846360Y-34920D02*
X861600Y-40000D01*
X404400D02*
X574088D01*
X683784D02*
X861600D01*
X404400Y-42540D02*
Y7960D01*
X861600Y-42540D02*
Y7460D01*
X-95080Y15240D02*
X-90000Y0D01*
X-84920Y15240D01*
X-90000Y1280000D02*
X-84920Y1264760D01*
X-95080D02*
X-90000Y1280000D01*
Y0D02*
Y574740D01*
Y697132D02*
Y1280000D01*
X-92540Y0D02*
X0D01*
X-92540Y1280000D02*
X0D01*
Y-160000D02*
X15240Y-154920D01*
X0Y-160000D02*
X15240Y-165080D01*
X3484760D02*
X3500000Y-160000D01*
X3484760Y-154920D02*
X3500000Y-160000D01*
X0D02*
X1683471D01*
X1808401D02*
X3500000D01*
X0Y-162540D02*
Y0D01*
X3500000Y-162540D02*
Y0D01*
X1166400Y-70000D02*
X1181640Y-64920D01*
X1166400Y-70000D02*
X1181640Y-75080D01*
X1455960D02*
X1471200Y-70000D01*
X1455960Y-64920D02*
X1471200Y-70000D01*
X1166400D02*
X1198888D01*
X1308584D02*
X1471200D01*
X1166400Y-72540D02*
Y429500D01*
X1471200Y-72540D02*
Y429500D01*
X0Y-70000D02*
X15240Y-64920D01*
X0Y-70000D02*
X15240Y-75080D01*
X1151160D02*
X1166400Y-70000D01*
X1151160Y-64920D02*
X1166400Y-70000D01*
X0D02*
X519210D01*
X639062D02*
X1166400D01*
X0Y-72540D02*
Y0D01*
X1166400Y-72540D02*
Y429500D01*
X404400Y-40000D02*
X419640Y-34920D01*
X404400Y-40000D02*
X419640Y-45080D01*
X846360D02*
X861600Y-40000D01*
X846360Y-34920D02*
X861600Y-40000D01*
X404400D02*
X574088D01*
X683784D02*
X861600D01*
X404400Y-42540D02*
Y7960D01*
X861600Y-42540D02*
Y7460D01*
X-95080Y15240D02*
X-90000Y0D01*
X-84920Y15240D01*
X-90000Y1280000D02*
X-84920Y1264760D01*
X-95080D02*
X-90000Y1280000D01*
Y0D02*
Y574740D01*
Y697132D02*
Y1280000D01*
X-92540Y0D02*
X0D01*
X-92540Y1280000D02*
X0D01*
Y-160000D02*
X15240Y-154920D01*
X0Y-160000D02*
X15240Y-165080D01*
X3484760D02*
X3500000Y-160000D01*
X3484760Y-154920D02*
X3500000Y-160000D01*
X0D02*
X1683471D01*
X1808401D02*
X3500000D01*
X0Y-162540D02*
Y0D01*
X3500000Y-162540D02*
Y0D01*
D11*
X1612752Y-66237D02*
X1607674Y-61159D01*
Y-56080D01*
X1612752Y-51002D01*
X1620370Y-66237D02*
X1625448D01*
X1622909D01*
Y-51002D01*
X1620370Y-53541D01*
X1633065Y-66237D02*
Y-63698D01*
X1635605D01*
Y-66237D01*
X1633065D01*
X1655918D02*
X1645761D01*
X1655918Y-56080D01*
Y-53541D01*
X1653379Y-51002D01*
X1648300D01*
X1645761Y-53541D01*
X1660996D02*
X1663536Y-51002D01*
X1668614D01*
X1671153Y-53541D01*
Y-63698D01*
X1668614Y-66237D01*
X1663536D01*
X1660996Y-63698D01*
Y-53541D01*
X1691467Y-66237D02*
X1696545D01*
X1694006D01*
Y-56080D01*
X1691467D01*
X1704162Y-66237D02*
Y-56080D01*
X1711780D01*
X1714319Y-58620D01*
Y-66237D01*
X1729554Y-56080D02*
X1721937D01*
X1719397Y-58620D01*
Y-63698D01*
X1721937Y-66237D01*
X1729554D01*
X1734633Y-51002D02*
Y-66237D01*
Y-58620D01*
X1737172Y-56080D01*
X1742250D01*
X1744789Y-58620D01*
Y-66237D01*
X1749868D02*
X1754946Y-61159D01*
Y-56080D01*
X1749868Y-51002D01*
X619998Y-37140D02*
X614920Y-32062D01*
Y-26983D01*
X619998Y-21905D01*
X637773Y-37140D02*
X627616D01*
X637773Y-26983D01*
Y-24444D01*
X635233Y-21905D01*
X630155D01*
X627616Y-24444D01*
X642851Y-37140D02*
Y-34601D01*
X645390D01*
Y-37140D01*
X642851D01*
X663164D02*
Y-21905D01*
X655547Y-29522D01*
X665704D01*
X670782Y-24444D02*
X673321Y-21905D01*
X678400D01*
X680939Y-24444D01*
Y-34601D01*
X678400Y-37140D01*
X673321D01*
X670782Y-34601D01*
Y-24444D01*
X701252Y-37140D02*
X706330D01*
X703791D01*
Y-26983D01*
X701252D01*
X713948Y-37140D02*
Y-26983D01*
X721565D01*
X724105Y-29522D01*
Y-37140D01*
X739340Y-26983D02*
X731722D01*
X729183Y-29522D01*
Y-34601D01*
X731722Y-37140D01*
X739340D01*
X744418Y-21905D02*
Y-37140D01*
Y-29522D01*
X746957Y-26983D01*
X752036D01*
X754575Y-29522D01*
Y-37140D01*
X759653D02*
X764732Y-32062D01*
Y-26983D01*
X759653Y-21905D01*
X1202952Y-69985D02*
X1205492Y-67446D01*
X1210570D01*
X1213109Y-69985D01*
Y-72524D01*
X1210570Y-75063D01*
X1208031D01*
X1210570D01*
X1213109Y-77602D01*
Y-80141D01*
X1210570Y-82681D01*
X1205492D01*
X1202952Y-80141D01*
X1218187Y-69985D02*
X1220727Y-67446D01*
X1225805D01*
X1228344Y-69985D01*
Y-80141D01*
X1225805Y-82681D01*
X1220727D01*
X1218187Y-80141D01*
Y-69985D01*
X1235962Y-85220D02*
X1238501Y-82681D01*
Y-80141D01*
X1235962D01*
Y-82681D01*
X1238501D01*
X1235962Y-85220D01*
X1233422Y-87759D01*
X1256275Y-82681D02*
Y-67446D01*
X1248658Y-75063D01*
X1258814D01*
X1263893Y-69985D02*
X1266432Y-67446D01*
X1271510D01*
X1274049Y-69985D01*
Y-72524D01*
X1271510Y-75063D01*
X1274049Y-77602D01*
Y-80141D01*
X1271510Y-82681D01*
X1266432D01*
X1263893Y-80141D01*
Y-77602D01*
X1266432Y-75063D01*
X1263893Y-72524D01*
Y-69985D01*
X1266432Y-75063D02*
X1271510D01*
X1279128Y-82681D02*
Y-72524D01*
X1281667D01*
X1284206Y-75063D01*
Y-82681D01*
Y-75063D01*
X1286745Y-72524D01*
X1289285Y-75063D01*
Y-82681D01*
X1294363D02*
Y-72524D01*
X1296902D01*
X1299441Y-75063D01*
Y-82681D01*
Y-75063D01*
X1301980Y-72524D01*
X1304520Y-75063D01*
Y-82681D01*
X523274Y-81681D02*
X528352D01*
X525813D01*
Y-66446D01*
X523274Y-68985D01*
X535970Y-81681D02*
X541048D01*
X538509D01*
Y-66446D01*
X535970Y-68985D01*
X558823Y-66446D02*
X553744Y-68985D01*
X548666Y-74063D01*
Y-79142D01*
X551205Y-81681D01*
X556283D01*
X558823Y-79142D01*
Y-76602D01*
X556283Y-74063D01*
X548666D01*
X566440Y-84220D02*
X568979Y-81681D01*
Y-79142D01*
X566440D01*
Y-81681D01*
X568979D01*
X566440Y-84220D01*
X563901Y-86759D01*
X589293Y-66446D02*
X584214Y-68985D01*
X579136Y-74063D01*
Y-79142D01*
X581675Y-81681D01*
X586754D01*
X589293Y-79142D01*
Y-76602D01*
X586754Y-74063D01*
X579136D01*
X601989Y-81681D02*
Y-66446D01*
X594371Y-74063D01*
X604528D01*
X609606Y-81681D02*
Y-71524D01*
X612145D01*
X614684Y-74063D01*
Y-81681D01*
Y-74063D01*
X617224Y-71524D01*
X619763Y-74063D01*
Y-81681D01*
X624841D02*
Y-71524D01*
X627380D01*
X629920Y-74063D01*
Y-81681D01*
Y-74063D01*
X632459Y-71524D01*
X634998Y-74063D01*
Y-81681D01*
X585770Y-51681D02*
Y-36446D01*
X578152Y-44063D01*
X588309D01*
X603544Y-36446D02*
X593387D01*
Y-44063D01*
X598466Y-41524D01*
X601005D01*
X603544Y-44063D01*
Y-49142D01*
X601005Y-51681D01*
X595927D01*
X593387Y-49142D01*
X611162Y-54220D02*
X613701Y-51681D01*
Y-49142D01*
X611162D01*
Y-51681D01*
X613701D01*
X611162Y-54220D01*
X608623Y-56759D01*
X623858Y-36446D02*
X634014D01*
Y-38985D01*
X623858Y-49142D01*
Y-51681D01*
X649249D02*
X639093D01*
X649249Y-41524D01*
Y-38985D01*
X646710Y-36446D01*
X641632D01*
X639093Y-38985D01*
X654328Y-51681D02*
Y-41524D01*
X656867D01*
X659406Y-44063D01*
Y-51681D01*
Y-44063D01*
X661945Y-41524D01*
X664484Y-44063D01*
Y-51681D01*
X669563D02*
Y-41524D01*
X672102D01*
X674641Y-44063D01*
Y-51681D01*
Y-44063D01*
X677180Y-41524D01*
X679720Y-44063D01*
Y-51681D01*
X-78319Y578805D02*
Y583883D01*
Y581344D01*
X-93554D01*
X-91015Y578805D01*
X-78319Y601657D02*
Y591500D01*
X-88476Y601657D01*
X-91015D01*
X-93554Y599118D01*
Y594039D01*
X-91015Y591500D01*
Y606735D02*
X-93554Y609275D01*
Y614353D01*
X-91015Y616892D01*
X-88476D01*
X-85937Y614353D01*
X-83398Y616892D01*
X-80858D01*
X-78319Y614353D01*
Y609275D01*
X-80858Y606735D01*
X-83398D01*
X-85937Y609275D01*
X-88476Y606735D01*
X-91015D01*
X-85937Y609275D02*
Y614353D01*
X-75780Y624510D02*
X-78319Y627049D01*
X-80858D01*
Y624510D01*
X-78319D01*
Y627049D01*
X-75780Y624510D01*
X-73241Y621970D01*
X-91015Y637206D02*
X-93554Y639745D01*
Y644823D01*
X-91015Y647362D01*
X-80858D01*
X-78319Y644823D01*
Y639745D01*
X-80858Y637206D01*
X-91015D01*
Y652441D02*
X-93554Y654980D01*
Y660058D01*
X-91015Y662597D01*
X-80858D01*
X-78319Y660058D01*
Y654980D01*
X-80858Y652441D01*
X-91015D01*
X-78319Y667676D02*
X-88476D01*
Y670215D01*
X-85937Y672754D01*
X-78319D01*
X-85937D01*
X-88476Y675293D01*
X-85937Y677832D01*
X-78319D01*
Y682911D02*
X-88476D01*
Y685450D01*
X-85937Y687989D01*
X-78319D01*
X-85937D01*
X-88476Y690528D01*
X-85937Y693067D01*
X-78319D01*
X1687535Y-158985D02*
X1690074Y-156446D01*
X1695152D01*
X1697692Y-158985D01*
Y-161524D01*
X1695152Y-164063D01*
X1692613D01*
X1695152D01*
X1697692Y-166602D01*
Y-169142D01*
X1695152Y-171681D01*
X1690074D01*
X1687535Y-169142D01*
X1712927Y-156446D02*
X1702770D01*
Y-164063D01*
X1707848Y-161524D01*
X1710388D01*
X1712927Y-164063D01*
Y-169142D01*
X1710388Y-171681D01*
X1705309D01*
X1702770Y-169142D01*
X1718005Y-158985D02*
X1720544Y-156446D01*
X1725623D01*
X1728162Y-158985D01*
Y-169142D01*
X1725623Y-171681D01*
X1720544D01*
X1718005Y-169142D01*
Y-158985D01*
X1735779Y-174220D02*
X1738318Y-171681D01*
Y-169142D01*
X1735779D01*
Y-171681D01*
X1738318D01*
X1735779Y-174220D01*
X1733240Y-176759D01*
X1748475Y-158985D02*
X1751014Y-156446D01*
X1756093D01*
X1758632Y-158985D01*
Y-169142D01*
X1756093Y-171681D01*
X1751014D01*
X1748475Y-169142D01*
Y-158985D01*
X1763710D02*
X1766250Y-156446D01*
X1771328D01*
X1773867Y-158985D01*
Y-169142D01*
X1771328Y-171681D01*
X1766250D01*
X1763710Y-169142D01*
Y-158985D01*
X1778945Y-171681D02*
Y-161524D01*
X1781485D01*
X1784024Y-164063D01*
Y-171681D01*
Y-164063D01*
X1786563Y-161524D01*
X1789102Y-164063D01*
Y-171681D01*
X1794180D02*
Y-161524D01*
X1796720D01*
X1799259Y-164063D01*
Y-171681D01*
Y-164063D01*
X1801798Y-161524D01*
X1804337Y-164063D01*
Y-171681D01*
X1612752Y-66237D02*
X1607674Y-61159D01*
Y-56080D01*
X1612752Y-51002D01*
X1620370Y-66237D02*
X1625448D01*
X1622909D01*
Y-51002D01*
X1620370Y-53541D01*
X1633065Y-66237D02*
Y-63698D01*
X1635605D01*
Y-66237D01*
X1633065D01*
X1655918D02*
X1645761D01*
X1655918Y-56080D01*
Y-53541D01*
X1653379Y-51002D01*
X1648300D01*
X1645761Y-53541D01*
X1660996D02*
X1663536Y-51002D01*
X1668614D01*
X1671153Y-53541D01*
Y-63698D01*
X1668614Y-66237D01*
X1663536D01*
X1660996Y-63698D01*
Y-53541D01*
X1691467Y-66237D02*
X1696545D01*
X1694006D01*
Y-56080D01*
X1691467D01*
X1704162Y-66237D02*
Y-56080D01*
X1711780D01*
X1714319Y-58620D01*
Y-66237D01*
X1729554Y-56080D02*
X1721937D01*
X1719397Y-58620D01*
Y-63698D01*
X1721937Y-66237D01*
X1729554D01*
X1734633Y-51002D02*
Y-66237D01*
Y-58620D01*
X1737172Y-56080D01*
X1742250D01*
X1744789Y-58620D01*
Y-66237D01*
X1749868D02*
X1754946Y-61159D01*
Y-56080D01*
X1749868Y-51002D01*
X619998Y-37140D02*
X614920Y-32062D01*
Y-26983D01*
X619998Y-21905D01*
X637773Y-37140D02*
X627616D01*
X637773Y-26983D01*
Y-24444D01*
X635233Y-21905D01*
X630155D01*
X627616Y-24444D01*
X642851Y-37140D02*
Y-34601D01*
X645390D01*
Y-37140D01*
X642851D01*
X663164D02*
Y-21905D01*
X655547Y-29522D01*
X665704D01*
X670782Y-24444D02*
X673321Y-21905D01*
X678400D01*
X680939Y-24444D01*
Y-34601D01*
X678400Y-37140D01*
X673321D01*
X670782Y-34601D01*
Y-24444D01*
X701252Y-37140D02*
X706330D01*
X703791D01*
Y-26983D01*
X701252D01*
X713948Y-37140D02*
Y-26983D01*
X721565D01*
X724105Y-29522D01*
Y-37140D01*
X739340Y-26983D02*
X731722D01*
X729183Y-29522D01*
Y-34601D01*
X731722Y-37140D01*
X739340D01*
X744418Y-21905D02*
Y-37140D01*
Y-29522D01*
X746957Y-26983D01*
X752036D01*
X754575Y-29522D01*
Y-37140D01*
X759653D02*
X764732Y-32062D01*
Y-26983D01*
X759653Y-21905D01*
X1202952Y-69985D02*
X1205492Y-67446D01*
X1210570D01*
X1213109Y-69985D01*
Y-72524D01*
X1210570Y-75063D01*
X1208031D01*
X1210570D01*
X1213109Y-77602D01*
Y-80141D01*
X1210570Y-82681D01*
X1205492D01*
X1202952Y-80141D01*
X1218187Y-69985D02*
X1220727Y-67446D01*
X1225805D01*
X1228344Y-69985D01*
Y-80141D01*
X1225805Y-82681D01*
X1220727D01*
X1218187Y-80141D01*
Y-69985D01*
X1235962Y-85220D02*
X1238501Y-82681D01*
Y-80141D01*
X1235962D01*
Y-82681D01*
X1238501D01*
X1235962Y-85220D01*
X1233422Y-87759D01*
X1256275Y-82681D02*
Y-67446D01*
X1248658Y-75063D01*
X1258814D01*
X1263893Y-69985D02*
X1266432Y-67446D01*
X1271510D01*
X1274049Y-69985D01*
Y-72524D01*
X1271510Y-75063D01*
X1274049Y-77602D01*
Y-80141D01*
X1271510Y-82681D01*
X1266432D01*
X1263893Y-80141D01*
Y-77602D01*
X1266432Y-75063D01*
X1263893Y-72524D01*
Y-69985D01*
X1266432Y-75063D02*
X1271510D01*
X1279128Y-82681D02*
Y-72524D01*
X1281667D01*
X1284206Y-75063D01*
Y-82681D01*
Y-75063D01*
X1286745Y-72524D01*
X1289285Y-75063D01*
Y-82681D01*
X1294363D02*
Y-72524D01*
X1296902D01*
X1299441Y-75063D01*
Y-82681D01*
Y-75063D01*
X1301980Y-72524D01*
X1304520Y-75063D01*
Y-82681D01*
X523274Y-81681D02*
X528352D01*
X525813D01*
Y-66446D01*
X523274Y-68985D01*
X535970Y-81681D02*
X541048D01*
X538509D01*
Y-66446D01*
X535970Y-68985D01*
X558823Y-66446D02*
X553744Y-68985D01*
X548666Y-74063D01*
Y-79142D01*
X551205Y-81681D01*
X556283D01*
X558823Y-79142D01*
Y-76602D01*
X556283Y-74063D01*
X548666D01*
X566440Y-84220D02*
X568979Y-81681D01*
Y-79142D01*
X566440D01*
Y-81681D01*
X568979D01*
X566440Y-84220D01*
X563901Y-86759D01*
X589293Y-66446D02*
X584214Y-68985D01*
X579136Y-74063D01*
Y-79142D01*
X581675Y-81681D01*
X586754D01*
X589293Y-79142D01*
Y-76602D01*
X586754Y-74063D01*
X579136D01*
X601989Y-81681D02*
Y-66446D01*
X594371Y-74063D01*
X604528D01*
X609606Y-81681D02*
Y-71524D01*
X612145D01*
X614684Y-74063D01*
Y-81681D01*
Y-74063D01*
X617224Y-71524D01*
X619763Y-74063D01*
Y-81681D01*
X624841D02*
Y-71524D01*
X627380D01*
X629920Y-74063D01*
Y-81681D01*
Y-74063D01*
X632459Y-71524D01*
X634998Y-74063D01*
Y-81681D01*
X585770Y-51681D02*
Y-36446D01*
X578152Y-44063D01*
X588309D01*
X603544Y-36446D02*
X593387D01*
Y-44063D01*
X598466Y-41524D01*
X601005D01*
X603544Y-44063D01*
Y-49142D01*
X601005Y-51681D01*
X595927D01*
X593387Y-49142D01*
X611162Y-54220D02*
X613701Y-51681D01*
Y-49142D01*
X611162D01*
Y-51681D01*
X613701D01*
X611162Y-54220D01*
X608623Y-56759D01*
X623858Y-36446D02*
X634014D01*
Y-38985D01*
X623858Y-49142D01*
Y-51681D01*
X649249D02*
X639093D01*
X649249Y-41524D01*
Y-38985D01*
X646710Y-36446D01*
X641632D01*
X639093Y-38985D01*
X654328Y-51681D02*
Y-41524D01*
X656867D01*
X659406Y-44063D01*
Y-51681D01*
Y-44063D01*
X661945Y-41524D01*
X664484Y-44063D01*
Y-51681D01*
X669563D02*
Y-41524D01*
X672102D01*
X674641Y-44063D01*
Y-51681D01*
Y-44063D01*
X677180Y-41524D01*
X679720Y-44063D01*
Y-51681D01*
X-78319Y578805D02*
Y583883D01*
Y581344D01*
X-93554D01*
X-91015Y578805D01*
X-78319Y601657D02*
Y591500D01*
X-88476Y601657D01*
X-91015D01*
X-93554Y599118D01*
Y594039D01*
X-91015Y591500D01*
Y606735D02*
X-93554Y609275D01*
Y614353D01*
X-91015Y616892D01*
X-88476D01*
X-85937Y614353D01*
X-83398Y616892D01*
X-80858D01*
X-78319Y614353D01*
Y609275D01*
X-80858Y606735D01*
X-83398D01*
X-85937Y609275D01*
X-88476Y606735D01*
X-91015D01*
X-85937Y609275D02*
Y614353D01*
X-75780Y624510D02*
X-78319Y627049D01*
X-80858D01*
Y624510D01*
X-78319D01*
Y627049D01*
X-75780Y624510D01*
X-73241Y621970D01*
X-91015Y637206D02*
X-93554Y639745D01*
Y644823D01*
X-91015Y647362D01*
X-80858D01*
X-78319Y644823D01*
Y639745D01*
X-80858Y637206D01*
X-91015D01*
Y652441D02*
X-93554Y654980D01*
Y660058D01*
X-91015Y662597D01*
X-80858D01*
X-78319Y660058D01*
Y654980D01*
X-80858Y652441D01*
X-91015D01*
X-78319Y667676D02*
X-88476D01*
Y670215D01*
X-85937Y672754D01*
X-78319D01*
X-85937D01*
X-88476Y675293D01*
X-85937Y677832D01*
X-78319D01*
Y682911D02*
X-88476D01*
Y685450D01*
X-85937Y687989D01*
X-78319D01*
X-85937D01*
X-88476Y690528D01*
X-85937Y693067D01*
X-78319D01*
X1687535Y-158985D02*
X1690074Y-156446D01*
X1695152D01*
X1697692Y-158985D01*
Y-161524D01*
X1695152Y-164063D01*
X1692613D01*
X1695152D01*
X1697692Y-166602D01*
Y-169142D01*
X1695152Y-171681D01*
X1690074D01*
X1687535Y-169142D01*
X1712927Y-156446D02*
X1702770D01*
Y-164063D01*
X1707848Y-161524D01*
X1710388D01*
X1712927Y-164063D01*
Y-169142D01*
X1710388Y-171681D01*
X1705309D01*
X1702770Y-169142D01*
X1718005Y-158985D02*
X1720544Y-156446D01*
X1725623D01*
X1728162Y-158985D01*
Y-169142D01*
X1725623Y-171681D01*
X1720544D01*
X1718005Y-169142D01*
Y-158985D01*
X1735779Y-174220D02*
X1738318Y-171681D01*
Y-169142D01*
X1735779D01*
Y-171681D01*
X1738318D01*
X1735779Y-174220D01*
X1733240Y-176759D01*
X1748475Y-158985D02*
X1751014Y-156446D01*
X1756093D01*
X1758632Y-158985D01*
Y-169142D01*
X1756093Y-171681D01*
X1751014D01*
X1748475Y-169142D01*
Y-158985D01*
X1763710D02*
X1766250Y-156446D01*
X1771328D01*
X1773867Y-158985D01*
Y-169142D01*
X1771328Y-171681D01*
X1766250D01*
X1763710Y-169142D01*
Y-158985D01*
X1778945Y-171681D02*
Y-161524D01*
X1781485D01*
X1784024Y-164063D01*
Y-171681D01*
Y-164063D01*
X1786563Y-161524D01*
X1789102Y-164063D01*
Y-171681D01*
X1794180D02*
Y-161524D01*
X1796720D01*
X1799259Y-164063D01*
Y-171681D01*
Y-164063D01*
X1801798Y-161524D01*
X1804337Y-164063D01*
Y-171681D01*
M02*
