G04*
G04 #@! TF.GenerationSoftware,Altium Limited,Altium Designer,19.1.9 (167)*
G04*
G04 Layer_Color=8388736*
%FSLAX44Y44*%
%MOMM*%
G71*
G01*
G75*
%ADD18C,0.1000*%
%ADD24O,1.0500X0.4500*%
G04:AMPARAMS|DCode=25|XSize=1.55mm|YSize=1.15mm|CornerRadius=0.115mm|HoleSize=0mm|Usage=FLASHONLY|Rotation=90.000|XOffset=0mm|YOffset=0mm|HoleType=Round|Shape=RoundedRectangle|*
%AMROUNDEDRECTD25*
21,1,1.5500,0.9200,0,0,90.0*
21,1,1.3200,1.1500,0,0,90.0*
1,1,0.2300,0.4600,0.6600*
1,1,0.2300,0.4600,-0.6600*
1,1,0.2300,-0.4600,-0.6600*
1,1,0.2300,-0.4600,0.6600*
%
%ADD25ROUNDEDRECTD25*%
%ADD26O,1.4000X0.3000*%
%ADD27R,1.5700X1.8800*%
G04:AMPARAMS|DCode=28|XSize=0.5mm|YSize=0.9mm|CornerRadius=0.0825mm|HoleSize=0mm|Usage=FLASHONLY|Rotation=0.000|XOffset=0mm|YOffset=0mm|HoleType=Round|Shape=RoundedRectangle|*
%AMROUNDEDRECTD28*
21,1,0.5000,0.7350,0,0,0.0*
21,1,0.3350,0.9000,0,0,0.0*
1,1,0.1650,0.1675,-0.3675*
1,1,0.1650,-0.1675,-0.3675*
1,1,0.1650,-0.1675,0.3675*
1,1,0.1650,0.1675,0.3675*
%
%ADD28ROUNDEDRECTD28*%
G04:AMPARAMS|DCode=29|XSize=0.93mm|YSize=0.3mm|CornerRadius=0.03mm|HoleSize=0mm|Usage=FLASHONLY|Rotation=270.000|XOffset=0mm|YOffset=0mm|HoleType=Round|Shape=RoundedRectangle|*
%AMROUNDEDRECTD29*
21,1,0.9300,0.2400,0,0,270.0*
21,1,0.8700,0.3000,0,0,270.0*
1,1,0.0600,-0.1200,-0.4350*
1,1,0.0600,-0.1200,0.4350*
1,1,0.0600,0.1200,0.4350*
1,1,0.0600,0.1200,-0.4350*
%
%ADD29ROUNDEDRECTD29*%
%ADD30O,0.6700X0.3000*%
%ADD31O,0.5900X1.3200*%
%ADD32O,0.6000X1.0500*%
%ADD33O,1.5000X0.4500*%
G04:AMPARAMS|DCode=34|XSize=1.47mm|YSize=0.41mm|CornerRadius=0.0677mm|HoleSize=0mm|Usage=FLASHONLY|Rotation=0.000|XOffset=0mm|YOffset=0mm|HoleType=Round|Shape=RoundedRectangle|*
%AMROUNDEDRECTD34*
21,1,1.4700,0.2747,0,0,0.0*
21,1,1.3347,0.4100,0,0,0.0*
1,1,0.1353,0.6674,-0.1374*
1,1,0.1353,-0.6674,-0.1374*
1,1,0.1353,-0.6674,0.1374*
1,1,0.1353,0.6674,0.1374*
%
%ADD34ROUNDEDRECTD34*%
%ADD35O,2.0000X0.6000*%
G04:AMPARAMS|DCode=36|XSize=0.8mm|YSize=1mm|CornerRadius=0.08mm|HoleSize=0mm|Usage=FLASHONLY|Rotation=180.000|XOffset=0mm|YOffset=0mm|HoleType=Round|Shape=RoundedRectangle|*
%AMROUNDEDRECTD36*
21,1,0.8000,0.8400,0,0,180.0*
21,1,0.6400,1.0000,0,0,180.0*
1,1,0.1600,-0.3200,0.4200*
1,1,0.1600,0.3200,0.4200*
1,1,0.1600,0.3200,-0.4200*
1,1,0.1600,-0.3200,-0.4200*
%
%ADD36ROUNDEDRECTD36*%
G04:AMPARAMS|DCode=37|XSize=1.21mm|YSize=0.72mm|CornerRadius=0.072mm|HoleSize=0mm|Usage=FLASHONLY|Rotation=0.000|XOffset=0mm|YOffset=0mm|HoleType=Round|Shape=RoundedRectangle|*
%AMROUNDEDRECTD37*
21,1,1.2100,0.5760,0,0,0.0*
21,1,1.0660,0.7200,0,0,0.0*
1,1,0.1440,0.5330,-0.2880*
1,1,0.1440,-0.5330,-0.2880*
1,1,0.1440,-0.5330,0.2880*
1,1,0.1440,0.5330,0.2880*
%
%ADD37ROUNDEDRECTD37*%
G04:AMPARAMS|DCode=38|XSize=0.75mm|YSize=1mm|CornerRadius=0.075mm|HoleSize=0mm|Usage=FLASHONLY|Rotation=0.000|XOffset=0mm|YOffset=0mm|HoleType=Round|Shape=RoundedRectangle|*
%AMROUNDEDRECTD38*
21,1,0.7500,0.8500,0,0,0.0*
21,1,0.6000,1.0000,0,0,0.0*
1,1,0.1500,0.3000,-0.4250*
1,1,0.1500,-0.3000,-0.4250*
1,1,0.1500,-0.3000,0.4250*
1,1,0.1500,0.3000,0.4250*
%
%ADD38ROUNDEDRECTD38*%
G04:AMPARAMS|DCode=39|XSize=0.41mm|YSize=0.54mm|CornerRadius=0.0677mm|HoleSize=0mm|Usage=FLASHONLY|Rotation=180.000|XOffset=0mm|YOffset=0mm|HoleType=Round|Shape=RoundedRectangle|*
%AMROUNDEDRECTD39*
21,1,0.4100,0.4047,0,0,180.0*
21,1,0.2747,0.5400,0,0,180.0*
1,1,0.1353,-0.1374,0.2024*
1,1,0.1353,0.1374,0.2024*
1,1,0.1353,0.1374,-0.2024*
1,1,0.1353,-0.1374,-0.2024*
%
%ADD39ROUNDEDRECTD39*%
%ADD40R,4.3700X4.3700*%
%ADD41O,0.8400X0.2600*%
%ADD42O,0.2600X0.8400*%
%ADD43R,2.5500X2.5500*%
%ADD44O,0.8500X0.3000*%
%ADD45O,0.3000X0.8500*%
%ADD46R,2.6000X2.6000*%
G04:AMPARAMS|DCode=47|XSize=0.8mm|YSize=0.8mm|CornerRadius=0.12mm|HoleSize=0mm|Usage=FLASHONLY|Rotation=270.000|XOffset=0mm|YOffset=0mm|HoleType=Round|Shape=RoundedRectangle|*
%AMROUNDEDRECTD47*
21,1,0.8000,0.5600,0,0,270.0*
21,1,0.5600,0.8000,0,0,270.0*
1,1,0.2400,-0.2800,-0.2800*
1,1,0.2400,-0.2800,0.2800*
1,1,0.2400,0.2800,0.2800*
1,1,0.2400,0.2800,-0.2800*
%
%ADD47ROUNDEDRECTD47*%
G04:AMPARAMS|DCode=48|XSize=0.8mm|YSize=0.8mm|CornerRadius=0.12mm|HoleSize=0mm|Usage=FLASHONLY|Rotation=180.000|XOffset=0mm|YOffset=0mm|HoleType=Round|Shape=RoundedRectangle|*
%AMROUNDEDRECTD48*
21,1,0.8000,0.5600,0,0,180.0*
21,1,0.5600,0.8000,0,0,180.0*
1,1,0.2400,-0.2800,0.2800*
1,1,0.2400,0.2800,0.2800*
1,1,0.2400,0.2800,-0.2800*
1,1,0.2400,-0.2800,-0.2800*
%
%ADD48ROUNDEDRECTD48*%
G04:AMPARAMS|DCode=52|XSize=1mm|YSize=1.31mm|CornerRadius=0.165mm|HoleSize=0mm|Usage=FLASHONLY|Rotation=180.000|XOffset=0mm|YOffset=0mm|HoleType=Round|Shape=RoundedRectangle|*
%AMROUNDEDRECTD52*
21,1,1.0000,0.9800,0,0,180.0*
21,1,0.6700,1.3100,0,0,180.0*
1,1,0.3300,-0.3350,0.4900*
1,1,0.3300,0.3350,0.4900*
1,1,0.3300,0.3350,-0.4900*
1,1,0.3300,-0.3350,-0.4900*
%
%ADD52ROUNDEDRECTD52*%
G04:AMPARAMS|DCode=53|XSize=1.18mm|YSize=4.4mm|CornerRadius=0.118mm|HoleSize=0mm|Usage=FLASHONLY|Rotation=90.000|XOffset=0mm|YOffset=0mm|HoleType=Round|Shape=RoundedRectangle|*
%AMROUNDEDRECTD53*
21,1,1.1800,4.1640,0,0,90.0*
21,1,0.9440,4.4000,0,0,90.0*
1,1,0.2360,2.0820,0.4720*
1,1,0.2360,2.0820,-0.4720*
1,1,0.2360,-2.0820,-0.4720*
1,1,0.2360,-2.0820,0.4720*
%
%ADD53ROUNDEDRECTD53*%
G04:AMPARAMS|DCode=55|XSize=1.5mm|YSize=1.5mm|CornerRadius=0.375mm|HoleSize=0mm|Usage=FLASHONLY|Rotation=180.000|XOffset=0mm|YOffset=0mm|HoleType=Round|Shape=RoundedRectangle|*
%AMROUNDEDRECTD55*
21,1,1.5000,0.7500,0,0,180.0*
21,1,0.7500,1.5000,0,0,180.0*
1,1,0.7500,-0.3750,0.3750*
1,1,0.7500,0.3750,0.3750*
1,1,0.7500,0.3750,-0.3750*
1,1,0.7500,-0.3750,-0.3750*
%
%ADD55ROUNDEDRECTD55*%
%ADD56C,1.5000*%
G04:AMPARAMS|DCode=57|XSize=2.2mm|YSize=2.12mm|CornerRadius=0.212mm|HoleSize=0mm|Usage=FLASHONLY|Rotation=180.000|XOffset=0mm|YOffset=0mm|HoleType=Round|Shape=RoundedRectangle|*
%AMROUNDEDRECTD57*
21,1,2.2000,1.6960,0,0,180.0*
21,1,1.7760,2.1200,0,0,180.0*
1,1,0.4240,-0.8880,0.8480*
1,1,0.4240,0.8880,0.8480*
1,1,0.4240,0.8880,-0.8480*
1,1,0.4240,-0.8880,-0.8480*
%
%ADD57ROUNDEDRECTD57*%
G04:AMPARAMS|DCode=58|XSize=2.06mm|YSize=2.04mm|CornerRadius=0.204mm|HoleSize=0mm|Usage=FLASHONLY|Rotation=180.000|XOffset=0mm|YOffset=0mm|HoleType=Round|Shape=RoundedRectangle|*
%AMROUNDEDRECTD58*
21,1,2.0600,1.6320,0,0,180.0*
21,1,1.6520,2.0400,0,0,180.0*
1,1,0.4080,-0.8260,0.8160*
1,1,0.4080,0.8260,0.8160*
1,1,0.4080,0.8260,-0.8160*
1,1,0.4080,-0.8260,-0.8160*
%
%ADD58ROUNDEDRECTD58*%
G04:AMPARAMS|DCode=59|XSize=1.21mm|YSize=1.82mm|CornerRadius=0.1997mm|HoleSize=0mm|Usage=FLASHONLY|Rotation=180.000|XOffset=0mm|YOffset=0mm|HoleType=Round|Shape=RoundedRectangle|*
%AMROUNDEDRECTD59*
21,1,1.2100,1.4207,0,0,180.0*
21,1,0.8107,1.8200,0,0,180.0*
1,1,0.3993,-0.4053,0.7104*
1,1,0.3993,0.4053,0.7104*
1,1,0.3993,0.4053,-0.7104*
1,1,0.3993,-0.4053,-0.7104*
%
%ADD59ROUNDEDRECTD59*%
G04:AMPARAMS|DCode=60|XSize=1mm|YSize=1.31mm|CornerRadius=0.165mm|HoleSize=0mm|Usage=FLASHONLY|Rotation=90.000|XOffset=0mm|YOffset=0mm|HoleType=Round|Shape=RoundedRectangle|*
%AMROUNDEDRECTD60*
21,1,1.0000,0.9800,0,0,90.0*
21,1,0.6700,1.3100,0,0,90.0*
1,1,0.3300,0.4900,0.3350*
1,1,0.3300,0.4900,-0.3350*
1,1,0.3300,-0.4900,-0.3350*
1,1,0.3300,-0.4900,0.3350*
%
%ADD60ROUNDEDRECTD60*%
G04:AMPARAMS|DCode=61|XSize=0.27mm|YSize=0.33mm|CornerRadius=0.0446mm|HoleSize=0mm|Usage=FLASHONLY|Rotation=0.000|XOffset=0mm|YOffset=0mm|HoleType=Round|Shape=RoundedRectangle|*
%AMROUNDEDRECTD61*
21,1,0.2700,0.2409,0,0,0.0*
21,1,0.1809,0.3300,0,0,0.0*
1,1,0.0891,0.0905,-0.1205*
1,1,0.0891,-0.0905,-0.1205*
1,1,0.0891,-0.0905,0.1205*
1,1,0.0891,0.0905,0.1205*
%
%ADD61ROUNDEDRECTD61*%
%ADD62R,5.3500X8.5400*%
%ADD63O,0.8900X3.0600*%
G04:AMPARAMS|DCode=64|XSize=1.27mm|YSize=0.66mm|CornerRadius=0.099mm|HoleSize=0mm|Usage=FLASHONLY|Rotation=90.000|XOffset=0mm|YOffset=0mm|HoleType=Round|Shape=RoundedRectangle|*
%AMROUNDEDRECTD64*
21,1,1.2700,0.4620,0,0,90.0*
21,1,1.0720,0.6600,0,0,90.0*
1,1,0.1980,0.2310,0.5360*
1,1,0.1980,0.2310,-0.5360*
1,1,0.1980,-0.2310,-0.5360*
1,1,0.1980,-0.2310,0.5360*
%
%ADD64ROUNDEDRECTD64*%
%ADD65O,0.9000X2.4000*%
G04:AMPARAMS|DCode=66|XSize=0.9mm|YSize=0.8mm|CornerRadius=0.08mm|HoleSize=0mm|Usage=FLASHONLY|Rotation=90.000|XOffset=0mm|YOffset=0mm|HoleType=Round|Shape=RoundedRectangle|*
%AMROUNDEDRECTD66*
21,1,0.9000,0.6400,0,0,90.0*
21,1,0.7400,0.8000,0,0,90.0*
1,1,0.1600,0.3200,0.3700*
1,1,0.1600,0.3200,-0.3700*
1,1,0.1600,-0.3200,-0.3700*
1,1,0.1600,-0.3200,0.3700*
%
%ADD66ROUNDEDRECTD66*%
G04:AMPARAMS|DCode=67|XSize=1.9mm|YSize=1.35mm|CornerRadius=0.135mm|HoleSize=0mm|Usage=FLASHONLY|Rotation=270.000|XOffset=0mm|YOffset=0mm|HoleType=Round|Shape=RoundedRectangle|*
%AMROUNDEDRECTD67*
21,1,1.9000,1.0800,0,0,270.0*
21,1,1.6300,1.3500,0,0,270.0*
1,1,0.2700,-0.5400,-0.8150*
1,1,0.2700,-0.5400,0.8150*
1,1,0.2700,0.5400,0.8150*
1,1,0.2700,0.5400,-0.8150*
%
%ADD67ROUNDEDRECTD67*%
G04:AMPARAMS|DCode=68|XSize=1.2mm|YSize=1mm|CornerRadius=0.1mm|HoleSize=0mm|Usage=FLASHONLY|Rotation=270.000|XOffset=0mm|YOffset=0mm|HoleType=Round|Shape=RoundedRectangle|*
%AMROUNDEDRECTD68*
21,1,1.2000,0.8000,0,0,270.0*
21,1,1.0000,1.0000,0,0,270.0*
1,1,0.2000,-0.4000,-0.5000*
1,1,0.2000,-0.4000,0.5000*
1,1,0.2000,0.4000,0.5000*
1,1,0.2000,0.4000,-0.5000*
%
%ADD68ROUNDEDRECTD68*%
G04:AMPARAMS|DCode=69|XSize=0.75mm|YSize=1.1mm|CornerRadius=0.075mm|HoleSize=0mm|Usage=FLASHONLY|Rotation=270.000|XOffset=0mm|YOffset=0mm|HoleType=Round|Shape=RoundedRectangle|*
%AMROUNDEDRECTD69*
21,1,0.7500,0.9500,0,0,270.0*
21,1,0.6000,1.1000,0,0,270.0*
1,1,0.1500,-0.4750,-0.3000*
1,1,0.1500,-0.4750,0.3000*
1,1,0.1500,0.4750,0.3000*
1,1,0.1500,0.4750,-0.3000*
%
%ADD69ROUNDEDRECTD69*%
G04:AMPARAMS|DCode=70|XSize=1.8mm|YSize=1.17mm|CornerRadius=0.117mm|HoleSize=0mm|Usage=FLASHONLY|Rotation=180.000|XOffset=0mm|YOffset=0mm|HoleType=Round|Shape=RoundedRectangle|*
%AMROUNDEDRECTD70*
21,1,1.8000,0.9360,0,0,180.0*
21,1,1.5660,1.1700,0,0,180.0*
1,1,0.2340,-0.7830,0.4680*
1,1,0.2340,0.7830,0.4680*
1,1,0.2340,0.7830,-0.4680*
1,1,0.2340,-0.7830,-0.4680*
%
%ADD70ROUNDEDRECTD70*%
G04:AMPARAMS|DCode=71|XSize=1.55mm|YSize=1.35mm|CornerRadius=0.135mm|HoleSize=0mm|Usage=FLASHONLY|Rotation=270.000|XOffset=0mm|YOffset=0mm|HoleType=Round|Shape=RoundedRectangle|*
%AMROUNDEDRECTD71*
21,1,1.5500,1.0800,0,0,270.0*
21,1,1.2800,1.3500,0,0,270.0*
1,1,0.2700,-0.5400,-0.6400*
1,1,0.2700,-0.5400,0.6400*
1,1,0.2700,0.5400,0.6400*
1,1,0.2700,0.5400,-0.6400*
%
%ADD71ROUNDEDRECTD71*%
G04:AMPARAMS|DCode=72|XSize=4.24mm|YSize=3.81mm|CornerRadius=0.381mm|HoleSize=0mm|Usage=FLASHONLY|Rotation=0.000|XOffset=0mm|YOffset=0mm|HoleType=Round|Shape=RoundedRectangle|*
%AMROUNDEDRECTD72*
21,1,4.2400,3.0480,0,0,0.0*
21,1,3.4780,3.8100,0,0,0.0*
1,1,0.7620,1.7390,-1.5240*
1,1,0.7620,-1.7390,-1.5240*
1,1,0.7620,-1.7390,1.5240*
1,1,0.7620,1.7390,1.5240*
%
%ADD72ROUNDEDRECTD72*%
G04:AMPARAMS|DCode=73|XSize=0.5mm|YSize=0.9mm|CornerRadius=0.0825mm|HoleSize=0mm|Usage=FLASHONLY|Rotation=90.000|XOffset=0mm|YOffset=0mm|HoleType=Round|Shape=RoundedRectangle|*
%AMROUNDEDRECTD73*
21,1,0.5000,0.7350,0,0,90.0*
21,1,0.3350,0.9000,0,0,90.0*
1,1,0.1650,0.3675,0.1675*
1,1,0.1650,0.3675,-0.1675*
1,1,0.1650,-0.3675,-0.1675*
1,1,0.1650,-0.3675,0.1675*
%
%ADD73ROUNDEDRECTD73*%
G04:AMPARAMS|DCode=74|XSize=0.9mm|YSize=0.8mm|CornerRadius=0.08mm|HoleSize=0mm|Usage=FLASHONLY|Rotation=180.000|XOffset=0mm|YOffset=0mm|HoleType=Round|Shape=RoundedRectangle|*
%AMROUNDEDRECTD74*
21,1,0.9000,0.6400,0,0,180.0*
21,1,0.7400,0.8000,0,0,180.0*
1,1,0.1600,-0.3700,0.3200*
1,1,0.1600,0.3700,0.3200*
1,1,0.1600,0.3700,-0.3200*
1,1,0.1600,-0.3700,-0.3200*
%
%ADD74ROUNDEDRECTD74*%
%ADD75O,1.4000X0.6000*%
G04:AMPARAMS|DCode=76|XSize=1.27mm|YSize=0.66mm|CornerRadius=0.099mm|HoleSize=0mm|Usage=FLASHONLY|Rotation=0.000|XOffset=0mm|YOffset=0mm|HoleType=Round|Shape=RoundedRectangle|*
%AMROUNDEDRECTD76*
21,1,1.2700,0.4620,0,0,0.0*
21,1,1.0720,0.6600,0,0,0.0*
1,1,0.1980,0.5360,-0.2310*
1,1,0.1980,-0.5360,-0.2310*
1,1,0.1980,-0.5360,0.2310*
1,1,0.1980,0.5360,0.2310*
%
%ADD76ROUNDEDRECTD76*%
%ADD77O,0.6000X1.4000*%
G04:AMPARAMS|DCode=78|XSize=0.75mm|YSize=0.2mm|CornerRadius=0.02mm|HoleSize=0mm|Usage=FLASHONLY|Rotation=90.000|XOffset=0mm|YOffset=0mm|HoleType=Round|Shape=RoundedRectangle|*
%AMROUNDEDRECTD78*
21,1,0.7500,0.1600,0,0,90.0*
21,1,0.7100,0.2000,0,0,90.0*
1,1,0.0400,0.0800,0.3550*
1,1,0.0400,0.0800,-0.3550*
1,1,0.0400,-0.0800,-0.3550*
1,1,0.0400,-0.0800,0.3550*
%
%ADD78ROUNDEDRECTD78*%
G04:AMPARAMS|DCode=79|XSize=0.6mm|YSize=0.2mm|CornerRadius=0.02mm|HoleSize=0mm|Usage=FLASHONLY|Rotation=90.000|XOffset=0mm|YOffset=0mm|HoleType=Round|Shape=RoundedRectangle|*
%AMROUNDEDRECTD79*
21,1,0.6000,0.1600,0,0,90.0*
21,1,0.5600,0.2000,0,0,90.0*
1,1,0.0400,0.0800,0.2800*
1,1,0.0400,0.0800,-0.2800*
1,1,0.0400,-0.0800,-0.2800*
1,1,0.0400,-0.0800,0.2800*
%
%ADD79ROUNDEDRECTD79*%
G04:AMPARAMS|DCode=80|XSize=0.6mm|YSize=0.2mm|CornerRadius=0.02mm|HoleSize=0mm|Usage=FLASHONLY|Rotation=180.000|XOffset=0mm|YOffset=0mm|HoleType=Round|Shape=RoundedRectangle|*
%AMROUNDEDRECTD80*
21,1,0.6000,0.1600,0,0,180.0*
21,1,0.5600,0.2000,0,0,180.0*
1,1,0.0400,-0.2800,0.0800*
1,1,0.0400,0.2800,0.0800*
1,1,0.0400,0.2800,-0.0800*
1,1,0.0400,-0.2800,-0.0800*
%
%ADD80ROUNDEDRECTD80*%
%ADD81O,0.6000X2.0000*%
%ADD82R,4.3700X4.3700*%
%ADD83O,1.1000X0.6000*%
%ADD84O,0.6000X1.1000*%
G04:AMPARAMS|DCode=85|XSize=1mm|YSize=1.5mm|CornerRadius=0.165mm|HoleSize=0mm|Usage=FLASHONLY|Rotation=180.000|XOffset=0mm|YOffset=0mm|HoleType=Round|Shape=RoundedRectangle|*
%AMROUNDEDRECTD85*
21,1,1.0000,1.1700,0,0,180.0*
21,1,0.6700,1.5000,0,0,180.0*
1,1,0.3300,-0.3350,0.5850*
1,1,0.3300,0.3350,0.5850*
1,1,0.3300,0.3350,-0.5850*
1,1,0.3300,-0.3350,-0.5850*
%
%ADD85ROUNDEDRECTD85*%
G04:AMPARAMS|DCode=86|XSize=1.1mm|YSize=1.66mm|CornerRadius=0.11mm|HoleSize=0mm|Usage=FLASHONLY|Rotation=0.000|XOffset=0mm|YOffset=0mm|HoleType=Round|Shape=RoundedRectangle|*
%AMROUNDEDRECTD86*
21,1,1.1000,1.4400,0,0,0.0*
21,1,0.8800,1.6600,0,0,0.0*
1,1,0.2200,0.4400,-0.7200*
1,1,0.2200,-0.4400,-0.7200*
1,1,0.2200,-0.4400,0.7200*
1,1,0.2200,0.4400,0.7200*
%
%ADD86ROUNDEDRECTD86*%
G04:AMPARAMS|DCode=87|XSize=0.41mm|YSize=0.54mm|CornerRadius=0.0677mm|HoleSize=0mm|Usage=FLASHONLY|Rotation=90.000|XOffset=0mm|YOffset=0mm|HoleType=Round|Shape=RoundedRectangle|*
%AMROUNDEDRECTD87*
21,1,0.4100,0.4047,0,0,90.0*
21,1,0.2747,0.5400,0,0,90.0*
1,1,0.1353,0.2024,0.1374*
1,1,0.1353,0.2024,-0.1374*
1,1,0.1353,-0.2024,-0.1374*
1,1,0.1353,-0.2024,0.1374*
%
%ADD87ROUNDEDRECTD87*%
G04:AMPARAMS|DCode=88|XSize=0.71mm|YSize=0.88mm|CornerRadius=0.1172mm|HoleSize=0mm|Usage=FLASHONLY|Rotation=270.000|XOffset=0mm|YOffset=0mm|HoleType=Round|Shape=RoundedRectangle|*
%AMROUNDEDRECTD88*
21,1,0.7100,0.6457,0,0,270.0*
21,1,0.4757,0.8800,0,0,270.0*
1,1,0.2343,-0.3229,-0.2378*
1,1,0.2343,-0.3229,0.2378*
1,1,0.2343,0.3229,0.2378*
1,1,0.2343,0.3229,-0.2378*
%
%ADD88ROUNDEDRECTD88*%
G04:AMPARAMS|DCode=89|XSize=0.71mm|YSize=0.88mm|CornerRadius=0.1172mm|HoleSize=0mm|Usage=FLASHONLY|Rotation=180.000|XOffset=0mm|YOffset=0mm|HoleType=Round|Shape=RoundedRectangle|*
%AMROUNDEDRECTD89*
21,1,0.7100,0.6457,0,0,180.0*
21,1,0.4757,0.8800,0,0,180.0*
1,1,0.2343,-0.2378,0.3229*
1,1,0.2343,0.2378,0.3229*
1,1,0.2343,0.2378,-0.3229*
1,1,0.2343,-0.2378,-0.3229*
%
%ADD89ROUNDEDRECTD89*%
G04:AMPARAMS|DCode=90|XSize=0.8mm|YSize=1mm|CornerRadius=0.08mm|HoleSize=0mm|Usage=FLASHONLY|Rotation=90.000|XOffset=0mm|YOffset=0mm|HoleType=Round|Shape=RoundedRectangle|*
%AMROUNDEDRECTD90*
21,1,0.8000,0.8400,0,0,90.0*
21,1,0.6400,1.0000,0,0,90.0*
1,1,0.1600,0.4200,0.3200*
1,1,0.1600,0.4200,-0.3200*
1,1,0.1600,-0.4200,-0.3200*
1,1,0.1600,-0.4200,0.3200*
%
%ADD90ROUNDEDRECTD90*%
%ADD91O,1.0500X0.6000*%
G04:AMPARAMS|DCode=92|XSize=0.75mm|YSize=0.2mm|CornerRadius=0.02mm|HoleSize=0mm|Usage=FLASHONLY|Rotation=180.000|XOffset=0mm|YOffset=0mm|HoleType=Round|Shape=RoundedRectangle|*
%AMROUNDEDRECTD92*
21,1,0.7500,0.1600,0,0,180.0*
21,1,0.7100,0.2000,0,0,180.0*
1,1,0.0400,-0.3550,0.0800*
1,1,0.0400,0.3550,0.0800*
1,1,0.0400,0.3550,-0.0800*
1,1,0.0400,-0.3550,-0.0800*
%
%ADD92ROUNDEDRECTD92*%
G04:AMPARAMS|DCode=93|XSize=0.93mm|YSize=0.3mm|CornerRadius=0.03mm|HoleSize=0mm|Usage=FLASHONLY|Rotation=180.000|XOffset=0mm|YOffset=0mm|HoleType=Round|Shape=RoundedRectangle|*
%AMROUNDEDRECTD93*
21,1,0.9300,0.2400,0,0,180.0*
21,1,0.8700,0.3000,0,0,180.0*
1,1,0.0600,-0.4350,0.1200*
1,1,0.0600,0.4350,0.1200*
1,1,0.0600,0.4350,-0.1200*
1,1,0.0600,-0.4350,-0.1200*
%
%ADD93ROUNDEDRECTD93*%
G04:AMPARAMS|DCode=94|XSize=1.21mm|YSize=1.82mm|CornerRadius=0.1997mm|HoleSize=0mm|Usage=FLASHONLY|Rotation=90.000|XOffset=0mm|YOffset=0mm|HoleType=Round|Shape=RoundedRectangle|*
%AMROUNDEDRECTD94*
21,1,1.2100,1.4207,0,0,90.0*
21,1,0.8107,1.8200,0,0,90.0*
1,1,0.3993,0.7104,0.4053*
1,1,0.3993,0.7104,-0.4053*
1,1,0.3993,-0.7104,-0.4053*
1,1,0.3993,-0.7104,0.4053*
%
%ADD94ROUNDEDRECTD94*%
G04:AMPARAMS|DCode=95|XSize=0.27mm|YSize=0.33mm|CornerRadius=0.0446mm|HoleSize=0mm|Usage=FLASHONLY|Rotation=270.000|XOffset=0mm|YOffset=0mm|HoleType=Round|Shape=RoundedRectangle|*
%AMROUNDEDRECTD95*
21,1,0.2700,0.2409,0,0,270.0*
21,1,0.1809,0.3300,0,0,270.0*
1,1,0.0891,-0.1205,-0.0905*
1,1,0.0891,-0.1205,0.0905*
1,1,0.0891,0.1205,0.0905*
1,1,0.0891,0.1205,-0.0905*
%
%ADD95ROUNDEDRECTD95*%
%ADD96R,0.3800X0.3000*%
%ADD97R,6.4000X1.0000*%
%ADD98R,6.4000X1.0000*%
%ADD99C,2.0000*%
%ADD100C,1.0000*%
G04:AMPARAMS|DCode=101|XSize=4.0386mm|YSize=1.3716mm|CornerRadius=0.2413mm|HoleSize=0mm|Usage=FLASHONLY|Rotation=90.000|XOffset=0mm|YOffset=0mm|HoleType=Round|Shape=RoundedRectangle|*
%AMROUNDEDRECTD101*
21,1,4.0386,0.8890,0,0,90.0*
21,1,3.5560,1.3716,0,0,90.0*
1,1,0.4826,0.4445,1.7780*
1,1,0.4826,0.4445,-1.7780*
1,1,0.4826,-0.4445,-1.7780*
1,1,0.4826,-0.4445,1.7780*
%
%ADD101ROUNDEDRECTD101*%
G04:AMPARAMS|DCode=102|XSize=4.0386mm|YSize=1.3716mm|CornerRadius=0.2413mm|HoleSize=0mm|Usage=FLASHONLY|Rotation=180.000|XOffset=0mm|YOffset=0mm|HoleType=Round|Shape=RoundedRectangle|*
%AMROUNDEDRECTD102*
21,1,4.0386,0.8890,0,0,180.0*
21,1,3.5560,1.3716,0,0,180.0*
1,1,0.4826,-1.7780,0.4445*
1,1,0.4826,1.7780,0.4445*
1,1,0.4826,1.7780,-0.4445*
1,1,0.4826,-1.7780,-0.4445*
%
%ADD102ROUNDEDRECTD102*%
G04:AMPARAMS|DCode=103|XSize=4.0416mm|YSize=1.3716mm|CornerRadius=0.2413mm|HoleSize=0mm|Usage=FLASHONLY|Rotation=270.000|XOffset=0mm|YOffset=0mm|HoleType=Round|Shape=RoundedRectangle|*
%AMROUNDEDRECTD103*
21,1,4.0416,0.8890,0,0,270.0*
21,1,3.5590,1.3716,0,0,270.0*
1,1,0.4826,-0.4445,-1.7795*
1,1,0.4826,-0.4445,1.7795*
1,1,0.4826,0.4445,1.7795*
1,1,0.4826,0.4445,-1.7795*
%
%ADD103ROUNDEDRECTD103*%
G04:AMPARAMS|DCode=104|XSize=1.3mm|YSize=0.6mm|CornerRadius=0.125mm|HoleSize=0mm|Usage=FLASHONLY|Rotation=0.000|XOffset=0mm|YOffset=0mm|HoleType=Round|Shape=RoundedRectangle|*
%AMROUNDEDRECTD104*
21,1,1.3000,0.3500,0,0,0.0*
21,1,1.0500,0.6000,0,0,0.0*
1,1,0.2500,0.5250,-0.1750*
1,1,0.2500,-0.5250,-0.1750*
1,1,0.2500,-0.5250,0.1750*
1,1,0.2500,0.5250,0.1750*
%
%ADD104ROUNDEDRECTD104*%
%ADD105C,6.0000*%
%ADD106R,1.5000X1.5000*%
%ADD107C,7.5000*%
%ADD108C,1.4000*%
%ADD109R,1.4000X1.4000*%
%ADD110C,1.5200*%
%ADD111C,2.4000*%
%ADD112C,3.2000*%
%ADD113C,2.0000*%
%ADD114R,1.4000X1.4000*%
%ADD115C,3.0000*%
G36*
X205789Y182763D02*
X195789D01*
Y185763D01*
X205789D01*
Y182763D01*
D02*
G37*
D18*
X3500000Y1280000D02*
X3500000Y0D01*
X0D02*
Y1280000D01*
X3500000D01*
X0Y0D02*
X3500000D01*
D24*
X3378700Y749920D02*
D03*
X3395700D02*
D03*
X3378700Y757920D02*
D03*
X3395700D02*
D03*
X3378700Y765920D02*
D03*
X3395700D02*
D03*
X3378700Y773920D02*
D03*
X3395700D02*
D03*
X3073900Y749920D02*
D03*
X3090900D02*
D03*
X3073900Y757920D02*
D03*
X3090900D02*
D03*
X3073900Y765920D02*
D03*
X3090900D02*
D03*
X3073900Y773920D02*
D03*
X3090900D02*
D03*
X2769100Y749920D02*
D03*
X2786100D02*
D03*
X2769100Y757920D02*
D03*
X2786100D02*
D03*
X2769100Y765920D02*
D03*
X2786100D02*
D03*
X2769100Y773920D02*
D03*
X2786100D02*
D03*
X2464300Y749920D02*
D03*
X2481300D02*
D03*
X2464300Y757920D02*
D03*
X2481300D02*
D03*
X2464300Y765920D02*
D03*
X2481300D02*
D03*
X2464300Y773920D02*
D03*
X2481300D02*
D03*
X2159500Y749920D02*
D03*
X2176500D02*
D03*
X2159500Y757920D02*
D03*
X2176500D02*
D03*
X2159500Y765920D02*
D03*
X2176500D02*
D03*
X2159500Y773920D02*
D03*
X2176500D02*
D03*
X3378700Y686420D02*
D03*
X3395700D02*
D03*
X3378700Y694420D02*
D03*
X3395700D02*
D03*
X3378700Y702420D02*
D03*
X3395700D02*
D03*
X3378700Y710420D02*
D03*
X3395700D02*
D03*
X3073900Y686420D02*
D03*
X3090900D02*
D03*
X3073900Y694420D02*
D03*
X3090900D02*
D03*
X3073900Y702420D02*
D03*
X3090900D02*
D03*
X3073900Y710420D02*
D03*
X3090900D02*
D03*
X2769100Y686420D02*
D03*
X2786100D02*
D03*
X2769100Y694420D02*
D03*
X2786100D02*
D03*
X2769100Y702420D02*
D03*
X2786100D02*
D03*
X2769100Y710420D02*
D03*
X2786100D02*
D03*
X2464300Y686420D02*
D03*
X2481300D02*
D03*
X2464300Y694420D02*
D03*
X2481300D02*
D03*
X2464300Y702420D02*
D03*
X2481300D02*
D03*
X2464300Y710420D02*
D03*
X2481300D02*
D03*
X2159500Y686420D02*
D03*
X2176500D02*
D03*
X2159500Y694420D02*
D03*
X2176500D02*
D03*
X2159500Y702420D02*
D03*
X2176500D02*
D03*
X2159500Y710420D02*
D03*
X2176500D02*
D03*
X3227700Y773920D02*
D03*
X3210700D02*
D03*
X3227700Y765920D02*
D03*
X3210700D02*
D03*
X3227700Y757920D02*
D03*
X3210700D02*
D03*
X3227700Y749920D02*
D03*
X3210700D02*
D03*
X2922900Y773920D02*
D03*
X2905900D02*
D03*
X2922900Y765920D02*
D03*
X2905900D02*
D03*
X2922900Y757920D02*
D03*
X2905900D02*
D03*
X2922900Y749920D02*
D03*
X2905900D02*
D03*
X2618100Y773920D02*
D03*
X2601100D02*
D03*
X2618100Y765920D02*
D03*
X2601100D02*
D03*
X2618100Y757920D02*
D03*
X2601100D02*
D03*
X2618100Y749920D02*
D03*
X2601100D02*
D03*
X2313300Y773920D02*
D03*
X2296300D02*
D03*
X2313300Y765920D02*
D03*
X2296300D02*
D03*
X2313300Y757920D02*
D03*
X2296300D02*
D03*
X2313300Y749920D02*
D03*
X2296300D02*
D03*
X2008500Y773920D02*
D03*
X1991500D02*
D03*
X2008500Y765920D02*
D03*
X1991500D02*
D03*
X2008500Y757920D02*
D03*
X1991500D02*
D03*
X2008500Y749920D02*
D03*
X1991500D02*
D03*
X3227700Y710420D02*
D03*
X3210700D02*
D03*
X3227700Y702420D02*
D03*
X3210700D02*
D03*
X3227700Y694420D02*
D03*
X3210700D02*
D03*
X3227700Y686420D02*
D03*
X3210700D02*
D03*
X2922900Y710420D02*
D03*
X2905900D02*
D03*
X2922900Y702420D02*
D03*
X2905900D02*
D03*
X2922900Y694420D02*
D03*
X2905900D02*
D03*
X2922900Y686420D02*
D03*
X2905900D02*
D03*
X2618100Y710420D02*
D03*
X2601100D02*
D03*
X2618100Y702420D02*
D03*
X2601100D02*
D03*
X2618100Y694420D02*
D03*
X2601100D02*
D03*
X2618100Y686420D02*
D03*
X2601100D02*
D03*
X2313300Y710420D02*
D03*
X2296300D02*
D03*
X2313300Y702420D02*
D03*
X2296300D02*
D03*
X2313300Y694420D02*
D03*
X2296300D02*
D03*
X2313300Y686420D02*
D03*
X2296300D02*
D03*
X2008500Y710420D02*
D03*
X1991500D02*
D03*
X2008500Y702420D02*
D03*
X1991500D02*
D03*
X2008500Y694420D02*
D03*
X1991500D02*
D03*
X2008500Y686420D02*
D03*
X1991500D02*
D03*
X3227700Y634220D02*
D03*
X3210700D02*
D03*
X3227700Y626220D02*
D03*
X3210700D02*
D03*
X3227700Y618220D02*
D03*
X3210700D02*
D03*
X3227700Y610220D02*
D03*
X3210700D02*
D03*
X2922900Y634220D02*
D03*
X2905900D02*
D03*
X2922900Y626220D02*
D03*
X2905900D02*
D03*
X2922900Y618220D02*
D03*
X2905900D02*
D03*
X2922900Y610220D02*
D03*
X2905900D02*
D03*
X2618100Y634220D02*
D03*
X2601100D02*
D03*
X2618100Y626220D02*
D03*
X2601100D02*
D03*
X2618100Y618220D02*
D03*
X2601100D02*
D03*
X2618100Y610220D02*
D03*
X2601100D02*
D03*
X2313300Y634220D02*
D03*
X2296300D02*
D03*
X2313300Y626220D02*
D03*
X2296300D02*
D03*
X2313300Y618220D02*
D03*
X2296300D02*
D03*
X2313300Y610220D02*
D03*
X2296300D02*
D03*
X2008500Y634220D02*
D03*
X1991500D02*
D03*
X2008500Y626220D02*
D03*
X1991500D02*
D03*
X2008500Y618220D02*
D03*
X1991500D02*
D03*
X2008500Y610220D02*
D03*
X1991500D02*
D03*
X3227700Y555480D02*
D03*
X3210700D02*
D03*
X3227700Y547480D02*
D03*
X3210700D02*
D03*
X3227700Y539480D02*
D03*
X3210700D02*
D03*
X3227700Y531480D02*
D03*
X3210700D02*
D03*
X2922900Y555480D02*
D03*
X2905900D02*
D03*
X2922900Y547480D02*
D03*
X2905900D02*
D03*
X2922900Y539480D02*
D03*
X2905900D02*
D03*
X2922900Y531480D02*
D03*
X2905900D02*
D03*
X2618100Y555480D02*
D03*
X2601100D02*
D03*
X2618100Y547480D02*
D03*
X2601100D02*
D03*
X2618100Y539480D02*
D03*
X2601100D02*
D03*
X2618100Y531480D02*
D03*
X2601100D02*
D03*
X2313300Y555480D02*
D03*
X2296300D02*
D03*
X2313300Y547480D02*
D03*
X2296300D02*
D03*
X2313300Y539480D02*
D03*
X2296300D02*
D03*
X2313300Y531480D02*
D03*
X2296300D02*
D03*
X2008500Y555480D02*
D03*
X1991500D02*
D03*
X2008500Y547480D02*
D03*
X1991500D02*
D03*
X2008500Y539480D02*
D03*
X1991500D02*
D03*
X2008500Y531480D02*
D03*
X1991500D02*
D03*
X3378700Y610220D02*
D03*
X3395700D02*
D03*
X3378700Y618220D02*
D03*
X3395700D02*
D03*
X3378700Y626220D02*
D03*
X3395700D02*
D03*
X3378700Y634220D02*
D03*
X3395700D02*
D03*
X3073900Y610220D02*
D03*
X3090900D02*
D03*
X3073900Y618220D02*
D03*
X3090900D02*
D03*
X3073900Y626220D02*
D03*
X3090900D02*
D03*
X3073900Y634220D02*
D03*
X3090900D02*
D03*
X2769100Y610220D02*
D03*
X2786100D02*
D03*
X2769100Y618220D02*
D03*
X2786100D02*
D03*
X2769100Y626220D02*
D03*
X2786100D02*
D03*
X2769100Y634220D02*
D03*
X2786100D02*
D03*
X2464300Y610220D02*
D03*
X2481300D02*
D03*
X2464300Y618220D02*
D03*
X2481300D02*
D03*
X2464300Y626220D02*
D03*
X2481300D02*
D03*
X2464300Y634220D02*
D03*
X2481300D02*
D03*
X2159500Y610220D02*
D03*
X2176500D02*
D03*
X2159500Y618220D02*
D03*
X2176500D02*
D03*
X2159500Y626220D02*
D03*
X2176500D02*
D03*
X2159500Y634220D02*
D03*
X2176500D02*
D03*
X3378700Y531480D02*
D03*
X3395700D02*
D03*
X3378700Y539480D02*
D03*
X3395700D02*
D03*
X3378700Y547480D02*
D03*
X3395700D02*
D03*
X3378700Y555480D02*
D03*
X3395700D02*
D03*
X3073900Y531480D02*
D03*
X3090900D02*
D03*
X3073900Y539480D02*
D03*
X3090900D02*
D03*
X3073900Y547480D02*
D03*
X3090900D02*
D03*
X3073900Y555480D02*
D03*
X3090900D02*
D03*
X2769100Y531480D02*
D03*
X2786100D02*
D03*
X2769100Y539480D02*
D03*
X2786100D02*
D03*
X2769100Y547480D02*
D03*
X2786100D02*
D03*
X2769100Y555480D02*
D03*
X2786100D02*
D03*
X2464300Y531480D02*
D03*
X2481300D02*
D03*
X2464300Y539480D02*
D03*
X2481300D02*
D03*
X2464300Y547480D02*
D03*
X2481300D02*
D03*
X2464300Y555480D02*
D03*
X2481300D02*
D03*
X2159500Y531480D02*
D03*
X2176500D02*
D03*
X2159500Y539480D02*
D03*
X2176500D02*
D03*
X2159500Y547480D02*
D03*
X2176500D02*
D03*
X2159500Y555480D02*
D03*
X2176500D02*
D03*
D25*
X1651693Y168508D02*
D03*
Y191008D02*
D03*
X1615193Y168508D02*
D03*
Y191013D02*
D03*
X1392171Y168508D02*
D03*
Y191008D02*
D03*
X1355671Y168508D02*
D03*
Y191013D02*
D03*
D26*
X1561527Y1110731D02*
D03*
Y1105731D02*
D03*
Y1100731D02*
D03*
Y1095731D02*
D03*
Y1090731D02*
D03*
X1605527Y1110731D02*
D03*
Y1105731D02*
D03*
Y1100731D02*
D03*
Y1095731D02*
D03*
Y1090731D02*
D03*
X1305179Y1110731D02*
D03*
Y1105731D02*
D03*
Y1100731D02*
D03*
Y1095731D02*
D03*
Y1090731D02*
D03*
X1349179Y1110731D02*
D03*
Y1105731D02*
D03*
Y1100731D02*
D03*
Y1095731D02*
D03*
Y1090731D02*
D03*
D27*
X1583527Y1100731D02*
D03*
X1327179Y1100731D02*
D03*
D28*
X683000Y209430D02*
D03*
X668400D02*
D03*
X697600D02*
D03*
X706167Y799345D02*
D03*
X691567D02*
D03*
X720768D02*
D03*
X844312Y345576D02*
D03*
X858912D02*
D03*
X844400Y282000D02*
D03*
X859000D02*
D03*
X2280393Y1172314D02*
D03*
X2265793D02*
D03*
Y1159614D02*
D03*
X2280393D02*
D03*
X174300Y191688D02*
D03*
X159700D02*
D03*
X174510Y178500D02*
D03*
X159910D02*
D03*
X220989Y191529D02*
D03*
X235589D02*
D03*
X220989Y178829D02*
D03*
X235589D02*
D03*
X174300Y204877D02*
D03*
X159700D02*
D03*
X174510Y165312D02*
D03*
X159910D02*
D03*
X177115Y247208D02*
D03*
X191716D02*
D03*
Y258892D02*
D03*
X177115D02*
D03*
X1258250Y1212698D02*
D03*
X1272850D02*
D03*
X1045510Y114068D02*
D03*
X1060110D02*
D03*
X1060130Y101600D02*
D03*
X1045530D02*
D03*
X559746Y277418D02*
D03*
X574346D02*
D03*
X545146D02*
D03*
X559746Y264000D02*
D03*
X574346D02*
D03*
X545146D02*
D03*
X559730Y250754D02*
D03*
X574330D02*
D03*
X545130D02*
D03*
X559730Y236754D02*
D03*
X574330D02*
D03*
X545130D02*
D03*
X559746Y223878D02*
D03*
X574346D02*
D03*
X545146D02*
D03*
X559746Y210590D02*
D03*
X574346D02*
D03*
X545146D02*
D03*
X592192Y181768D02*
D03*
X606792D02*
D03*
X1570482Y163830D02*
D03*
X1585082D02*
D03*
X1310960D02*
D03*
X1325560D02*
D03*
X3368800Y395320D02*
D03*
X3354200D02*
D03*
X3064000Y395320D02*
D03*
X3049400D02*
D03*
X2759200D02*
D03*
X2744600D02*
D03*
X2454400D02*
D03*
X2439800D02*
D03*
X2149790Y395478D02*
D03*
X2135190D02*
D03*
X3368300Y409000D02*
D03*
X3353700D02*
D03*
X3064300D02*
D03*
X3049700D02*
D03*
X2759300D02*
D03*
X2744700D02*
D03*
X2454300D02*
D03*
X2439700D02*
D03*
X2149300D02*
D03*
X2134700D02*
D03*
X244296Y578200D02*
D03*
X258896D02*
D03*
X228670D02*
D03*
X214070D02*
D03*
X228398Y630442D02*
D03*
X213798D02*
D03*
X244278D02*
D03*
X258878D02*
D03*
X1826260Y465100D02*
D03*
X1840860D02*
D03*
X1521460D02*
D03*
X1536060D02*
D03*
X1709806Y462030D02*
D03*
X1724406D02*
D03*
X1209025Y468000D02*
D03*
X1223625D02*
D03*
X1405514Y461014D02*
D03*
X1420114D02*
D03*
X3377016Y447732D02*
D03*
X3391616D02*
D03*
X1100694Y461376D02*
D03*
X1115294D02*
D03*
X3072216Y447732D02*
D03*
X3086816D02*
D03*
X3233740Y424180D02*
D03*
X3248340D02*
D03*
X2767416Y447732D02*
D03*
X2782016D02*
D03*
X2928940Y424180D02*
D03*
X2943540D02*
D03*
X2462616Y447732D02*
D03*
X2477216D02*
D03*
X2624140Y424180D02*
D03*
X2638740D02*
D03*
X2157816Y447732D02*
D03*
X2172416D02*
D03*
X2319340Y424180D02*
D03*
X2333940D02*
D03*
X2014540D02*
D03*
X2029140D02*
D03*
X691164Y783168D02*
D03*
X705764D02*
D03*
X649116Y783810D02*
D03*
X634516D02*
D03*
X649116Y798796D02*
D03*
X634516D02*
D03*
X843460Y958756D02*
D03*
X858060D02*
D03*
X931242Y958804D02*
D03*
X945842D02*
D03*
X1016882Y958668D02*
D03*
X1031482D02*
D03*
X776301Y957992D02*
D03*
X761701D02*
D03*
X1856856Y896278D02*
D03*
X1842256D02*
D03*
X1871456D02*
D03*
X1856856Y912924D02*
D03*
X1842256D02*
D03*
X1871456D02*
D03*
X1856856Y946216D02*
D03*
X1842256D02*
D03*
X1871456D02*
D03*
X1856856Y929570D02*
D03*
X1842256D02*
D03*
X1871456D02*
D03*
X1856856Y979508D02*
D03*
X1842256D02*
D03*
X1871456D02*
D03*
X1856856Y962862D02*
D03*
X1842256D02*
D03*
X1871456D02*
D03*
X1705856Y896958D02*
D03*
X1720456D02*
D03*
X1691256D02*
D03*
X2233214Y135672D02*
D03*
X2218614D02*
D03*
X2233214Y120432D02*
D03*
X2218614D02*
D03*
X2233214Y105192D02*
D03*
X2218614D02*
D03*
X2233214Y89952D02*
D03*
X2218614D02*
D03*
X2249094D02*
D03*
X2263694D02*
D03*
X2249094Y105192D02*
D03*
X2263694D02*
D03*
X2249094Y120432D02*
D03*
X2263694D02*
D03*
X2249094Y135672D02*
D03*
X2263694D02*
D03*
X1353700Y513500D02*
D03*
X1368300D02*
D03*
X1353700Y540500D02*
D03*
X1368300D02*
D03*
Y554000D02*
D03*
X1353700D02*
D03*
X1368300Y581000D02*
D03*
X1353700D02*
D03*
Y527000D02*
D03*
X1368300D02*
D03*
X1353700Y567500D02*
D03*
X1368300D02*
D03*
X1992700Y585000D02*
D03*
X2007300D02*
D03*
X2158700D02*
D03*
X2173300D02*
D03*
X2472700D02*
D03*
X2487300D02*
D03*
X2767700D02*
D03*
X2782300D02*
D03*
X3077700D02*
D03*
X3092300D02*
D03*
X3376700D02*
D03*
X3391300D02*
D03*
X1705856Y930000D02*
D03*
X1720456D02*
D03*
X1691256D02*
D03*
X1705856Y946488D02*
D03*
X1720456D02*
D03*
X1691256D02*
D03*
X1705856Y979508D02*
D03*
X1720456D02*
D03*
X1691256D02*
D03*
X1706210Y913214D02*
D03*
X1720810D02*
D03*
X1691610D02*
D03*
X2019019Y1069444D02*
D03*
X2004419D02*
D03*
Y1055474D02*
D03*
X2019019D02*
D03*
X859725Y993389D02*
D03*
X874325D02*
D03*
X716725Y1087389D02*
D03*
X731326D02*
D03*
X683000Y274430D02*
D03*
X668400D02*
D03*
X697600D02*
D03*
X683000Y261430D02*
D03*
X668400D02*
D03*
X697600D02*
D03*
X683000Y248430D02*
D03*
X668400D02*
D03*
X697600D02*
D03*
X683000Y235430D02*
D03*
X668400D02*
D03*
X697600D02*
D03*
X683000Y222430D02*
D03*
X668400D02*
D03*
X697600D02*
D03*
X1418452Y1068340D02*
D03*
X1403852D02*
D03*
X1674800Y1068340D02*
D03*
X1660200D02*
D03*
X1372284Y1075266D02*
D03*
X1386884D02*
D03*
X1628632Y1075266D02*
D03*
X1643232D02*
D03*
X1292852Y1073340D02*
D03*
X1307452D02*
D03*
X1549200Y1073340D02*
D03*
X1563800D02*
D03*
X1243811Y1057720D02*
D03*
X1258411D02*
D03*
X1500159Y1057720D02*
D03*
X1514758D02*
D03*
X1299300Y505206D02*
D03*
X1284700D02*
D03*
X1308502D02*
D03*
X1323102D02*
D03*
X1299300Y493414D02*
D03*
X1284700D02*
D03*
X1308402D02*
D03*
X1323002D02*
D03*
X2214510Y802045D02*
D03*
X2229111D02*
D03*
X2253300D02*
D03*
X2238700D02*
D03*
X1682700Y963000D02*
D03*
X1697300D02*
D03*
X1720810Y962998D02*
D03*
X1706210D02*
D03*
X280190Y1119722D02*
D03*
X265590D02*
D03*
X279485Y1140470D02*
D03*
X294085D02*
D03*
X270391D02*
D03*
X255791D02*
D03*
X310616Y1033536D02*
D03*
X325216D02*
D03*
X174510Y152124D02*
D03*
X159910D02*
D03*
X220989Y166129D02*
D03*
X235589D02*
D03*
X174510Y138936D02*
D03*
X159910D02*
D03*
X843600Y152000D02*
D03*
X858200D02*
D03*
X1353700Y500000D02*
D03*
X1368300D02*
D03*
X1856856Y881000D02*
D03*
X1871456D02*
D03*
X844400Y214600D02*
D03*
X859000D02*
D03*
X174510Y218065D02*
D03*
X159910D02*
D03*
X220989Y204229D02*
D03*
X235589D02*
D03*
X174510Y231253D02*
D03*
X159910D02*
D03*
X416797Y141179D02*
D03*
X402197D02*
D03*
X427197D02*
D03*
X441797D02*
D03*
X416797Y155179D02*
D03*
X402197D02*
D03*
X427197D02*
D03*
X441797D02*
D03*
X427197Y207179D02*
D03*
X441797D02*
D03*
X416797D02*
D03*
X402197D02*
D03*
X427197Y219179D02*
D03*
X441797D02*
D03*
X416797D02*
D03*
X402197D02*
D03*
X1511700Y1209000D02*
D03*
X1526300D02*
D03*
D29*
X553720Y481210D02*
D03*
X558720D02*
D03*
X658720D02*
D03*
Y434510D02*
D03*
X653720Y481210D02*
D03*
Y434510D02*
D03*
X648720Y481210D02*
D03*
Y434510D02*
D03*
X643720Y481210D02*
D03*
Y434510D02*
D03*
X638720Y481210D02*
D03*
Y434510D02*
D03*
X633720Y481210D02*
D03*
Y434510D02*
D03*
X628720Y481210D02*
D03*
Y434510D02*
D03*
X623720Y481210D02*
D03*
Y434510D02*
D03*
X618720Y481210D02*
D03*
Y434510D02*
D03*
X613720Y481210D02*
D03*
Y434510D02*
D03*
X608720Y481210D02*
D03*
Y434510D02*
D03*
X603720Y481210D02*
D03*
Y434510D02*
D03*
X598720Y481210D02*
D03*
Y434510D02*
D03*
X593720Y481210D02*
D03*
Y434510D02*
D03*
X588720Y481210D02*
D03*
Y434510D02*
D03*
X583720Y481210D02*
D03*
Y434510D02*
D03*
X578720Y481210D02*
D03*
Y434510D02*
D03*
X573720Y481210D02*
D03*
Y434510D02*
D03*
X568720Y481210D02*
D03*
Y434510D02*
D03*
X563720Y481210D02*
D03*
Y434510D02*
D03*
X558720D02*
D03*
X553720D02*
D03*
X548720Y481210D02*
D03*
Y434510D02*
D03*
X543720Y481210D02*
D03*
Y434510D02*
D03*
X538720Y481210D02*
D03*
Y434510D02*
D03*
X533720Y481210D02*
D03*
Y434510D02*
D03*
X528720Y481210D02*
D03*
Y434510D02*
D03*
X523720Y481210D02*
D03*
Y434510D02*
D03*
X518720Y481210D02*
D03*
Y434510D02*
D03*
X513720Y481210D02*
D03*
Y434510D02*
D03*
X463720D02*
D03*
Y481210D02*
D03*
X468720Y434510D02*
D03*
Y481210D02*
D03*
X473720Y434510D02*
D03*
Y481210D02*
D03*
X478720Y434510D02*
D03*
Y481210D02*
D03*
X483720Y434510D02*
D03*
Y481210D02*
D03*
X488720Y434510D02*
D03*
Y481210D02*
D03*
X493720Y434510D02*
D03*
Y481210D02*
D03*
X498720Y434510D02*
D03*
Y481210D02*
D03*
X503720Y434510D02*
D03*
Y481210D02*
D03*
X508720Y434510D02*
D03*
Y481210D02*
D03*
X413720Y434510D02*
D03*
Y481210D02*
D03*
X418720Y434510D02*
D03*
Y481210D02*
D03*
X423720Y434510D02*
D03*
Y481210D02*
D03*
X428720Y434510D02*
D03*
Y481210D02*
D03*
X433720Y434510D02*
D03*
Y481210D02*
D03*
X438720Y434510D02*
D03*
Y481210D02*
D03*
X443720Y434510D02*
D03*
Y481210D02*
D03*
X448720Y434510D02*
D03*
Y481210D02*
D03*
X453720Y434510D02*
D03*
Y481210D02*
D03*
X458720Y434510D02*
D03*
Y481210D02*
D03*
X388720Y434510D02*
D03*
Y481210D02*
D03*
X393720Y434510D02*
D03*
Y481210D02*
D03*
X398720Y434510D02*
D03*
Y481210D02*
D03*
X403720Y434510D02*
D03*
Y481210D02*
D03*
X408720Y434510D02*
D03*
Y481210D02*
D03*
X708720D02*
D03*
Y434510D02*
D03*
X703720Y481210D02*
D03*
Y434510D02*
D03*
X698720Y481210D02*
D03*
Y434510D02*
D03*
X693720Y481210D02*
D03*
Y434510D02*
D03*
X688720Y481210D02*
D03*
Y434510D02*
D03*
X683720Y481210D02*
D03*
Y434510D02*
D03*
X678720Y481210D02*
D03*
Y434510D02*
D03*
X673720Y481210D02*
D03*
Y434510D02*
D03*
X668720Y481210D02*
D03*
Y434510D02*
D03*
X663720Y481210D02*
D03*
Y434510D02*
D03*
X758720Y481210D02*
D03*
Y434510D02*
D03*
X753720Y481210D02*
D03*
Y434510D02*
D03*
X748720Y481210D02*
D03*
Y434510D02*
D03*
X743720Y481210D02*
D03*
Y434510D02*
D03*
X738720Y481210D02*
D03*
Y434510D02*
D03*
X733720Y481210D02*
D03*
Y434510D02*
D03*
X728720Y481210D02*
D03*
Y434510D02*
D03*
X723720Y481210D02*
D03*
Y434510D02*
D03*
X718720Y481210D02*
D03*
Y434510D02*
D03*
X713720Y481210D02*
D03*
Y434510D02*
D03*
X783720Y481210D02*
D03*
Y434510D02*
D03*
X778720Y481210D02*
D03*
Y434510D02*
D03*
X773720Y481210D02*
D03*
Y434510D02*
D03*
X768720Y481210D02*
D03*
Y434510D02*
D03*
X763720Y481210D02*
D03*
Y434510D02*
D03*
X658720Y865210D02*
D03*
Y818510D02*
D03*
X653720Y865210D02*
D03*
Y818510D02*
D03*
X648720Y865210D02*
D03*
Y818510D02*
D03*
X643720Y865210D02*
D03*
Y818510D02*
D03*
X638720Y865210D02*
D03*
Y818510D02*
D03*
X633720Y865210D02*
D03*
Y818510D02*
D03*
X628720Y865210D02*
D03*
Y818510D02*
D03*
X623720Y865210D02*
D03*
Y818510D02*
D03*
X618720Y865210D02*
D03*
Y818510D02*
D03*
X613720Y865210D02*
D03*
Y818510D02*
D03*
X608720Y865210D02*
D03*
Y818510D02*
D03*
X603720Y865210D02*
D03*
Y818510D02*
D03*
X598720Y865210D02*
D03*
Y818510D02*
D03*
X593720Y865210D02*
D03*
Y818510D02*
D03*
X588720Y865210D02*
D03*
Y818510D02*
D03*
X583720Y865210D02*
D03*
Y818510D02*
D03*
X578720Y865210D02*
D03*
Y818510D02*
D03*
X573720Y865210D02*
D03*
Y818510D02*
D03*
X568720Y865210D02*
D03*
Y818510D02*
D03*
X563720D02*
D03*
X553720Y865210D02*
D03*
X548720Y818510D02*
D03*
X543720D02*
D03*
X538720Y865210D02*
D03*
Y818510D02*
D03*
X533720D02*
D03*
X523720Y865210D02*
D03*
X518720D02*
D03*
Y818510D02*
D03*
X513720Y865210D02*
D03*
Y818510D02*
D03*
X463720D02*
D03*
Y865210D02*
D03*
X468720Y818510D02*
D03*
Y865210D02*
D03*
X473720Y818510D02*
D03*
Y865210D02*
D03*
X478720Y818510D02*
D03*
Y865210D02*
D03*
X483720Y818510D02*
D03*
Y865210D02*
D03*
X488720Y818510D02*
D03*
Y865210D02*
D03*
X493720Y818510D02*
D03*
Y865210D02*
D03*
X498720Y818510D02*
D03*
Y865210D02*
D03*
X503720Y818510D02*
D03*
Y865210D02*
D03*
X508720Y818510D02*
D03*
Y865210D02*
D03*
X413720Y818510D02*
D03*
Y865210D02*
D03*
X418720Y818510D02*
D03*
Y865210D02*
D03*
X423720Y818510D02*
D03*
Y865210D02*
D03*
X428720Y818510D02*
D03*
Y865210D02*
D03*
X433720Y818510D02*
D03*
Y865210D02*
D03*
X438720Y818510D02*
D03*
Y865210D02*
D03*
X443720Y818510D02*
D03*
Y865210D02*
D03*
X448720Y818510D02*
D03*
Y865210D02*
D03*
X453720Y818510D02*
D03*
Y865210D02*
D03*
X458720Y818510D02*
D03*
Y865210D02*
D03*
X388720Y818510D02*
D03*
Y865210D02*
D03*
X393720Y818510D02*
D03*
Y865210D02*
D03*
X398720Y818510D02*
D03*
Y865210D02*
D03*
X403720Y818510D02*
D03*
Y865210D02*
D03*
X408720Y818510D02*
D03*
Y865210D02*
D03*
X708720D02*
D03*
Y818510D02*
D03*
X703720Y865210D02*
D03*
Y818510D02*
D03*
X698720Y865210D02*
D03*
Y818510D02*
D03*
X693720Y865210D02*
D03*
Y818510D02*
D03*
X688720Y865210D02*
D03*
Y818510D02*
D03*
X683720Y865210D02*
D03*
Y818510D02*
D03*
X678720Y865210D02*
D03*
Y818510D02*
D03*
X673720Y865210D02*
D03*
Y818510D02*
D03*
X668720Y865210D02*
D03*
Y818510D02*
D03*
X663720Y865210D02*
D03*
Y818510D02*
D03*
X758720Y865210D02*
D03*
Y818510D02*
D03*
X753720Y865210D02*
D03*
Y818510D02*
D03*
X748720Y865210D02*
D03*
Y818510D02*
D03*
X743720Y865210D02*
D03*
Y818510D02*
D03*
X738720Y865210D02*
D03*
Y818510D02*
D03*
X733720Y865210D02*
D03*
Y818510D02*
D03*
X728720Y865210D02*
D03*
Y818510D02*
D03*
X723720Y865210D02*
D03*
Y818510D02*
D03*
X718720Y865210D02*
D03*
Y818510D02*
D03*
X713720Y865210D02*
D03*
Y818510D02*
D03*
X783720Y865210D02*
D03*
Y818510D02*
D03*
X778720Y865210D02*
D03*
Y818510D02*
D03*
X773720Y865210D02*
D03*
Y818510D02*
D03*
X768720Y865210D02*
D03*
Y818510D02*
D03*
X763720Y865210D02*
D03*
Y818510D02*
D03*
X558720D02*
D03*
X553720D02*
D03*
X563720Y865210D02*
D03*
X558720D02*
D03*
X528720Y818510D02*
D03*
X523720D02*
D03*
X533720Y865210D02*
D03*
X528720D02*
D03*
X548720D02*
D03*
X543720D02*
D03*
D30*
X2181450Y408780D02*
D03*
Y398780D02*
D03*
X2166650D02*
D03*
Y403780D02*
D03*
Y408780D02*
D03*
X3400650Y408781D02*
D03*
Y398781D02*
D03*
X3385850D02*
D03*
Y403781D02*
D03*
Y408781D02*
D03*
X3095850Y408780D02*
D03*
Y398780D02*
D03*
X3081050D02*
D03*
Y403780D02*
D03*
Y408780D02*
D03*
X2791050D02*
D03*
Y398780D02*
D03*
X2776250D02*
D03*
Y403780D02*
D03*
Y408780D02*
D03*
X2486250D02*
D03*
Y398780D02*
D03*
X2471450D02*
D03*
Y403780D02*
D03*
Y408780D02*
D03*
D31*
X1293000Y197550D02*
D03*
X1274000D02*
D03*
Y220450D02*
D03*
X1283500D02*
D03*
X1293000D02*
D03*
X191740Y275870D02*
D03*
X172740D02*
D03*
Y298770D02*
D03*
X182240D02*
D03*
X191740D02*
D03*
X1034390Y137140D02*
D03*
X1015390D02*
D03*
Y160040D02*
D03*
X1024890D02*
D03*
X1034390D02*
D03*
X1552522Y197550D02*
D03*
X1533522D02*
D03*
Y220450D02*
D03*
X1543022D02*
D03*
X1552522D02*
D03*
D32*
X1027589Y1117983D02*
D03*
X1008589D02*
D03*
X1018089Y1094983D02*
D03*
X871873Y1118891D02*
D03*
X852874D02*
D03*
X862373Y1095891D02*
D03*
D33*
X651000Y219750D02*
D03*
Y226250D02*
D03*
Y232750D02*
D03*
Y239250D02*
D03*
Y245750D02*
D03*
Y252250D02*
D03*
Y258750D02*
D03*
Y265250D02*
D03*
Y271750D02*
D03*
Y278250D02*
D03*
X593000Y219750D02*
D03*
Y226250D02*
D03*
Y232750D02*
D03*
Y239250D02*
D03*
Y245750D02*
D03*
Y252250D02*
D03*
Y258750D02*
D03*
Y265250D02*
D03*
Y271750D02*
D03*
Y278250D02*
D03*
X1813000Y894750D02*
D03*
Y901250D02*
D03*
Y907750D02*
D03*
Y914250D02*
D03*
Y920750D02*
D03*
Y927250D02*
D03*
Y933750D02*
D03*
Y940250D02*
D03*
Y946750D02*
D03*
Y953250D02*
D03*
X1755000Y894750D02*
D03*
Y901250D02*
D03*
Y907750D02*
D03*
Y914250D02*
D03*
Y920750D02*
D03*
Y927250D02*
D03*
Y933750D02*
D03*
Y940250D02*
D03*
Y946750D02*
D03*
Y953250D02*
D03*
D34*
X2287474Y131882D02*
D03*
Y125382D02*
D03*
Y118882D02*
D03*
Y112382D02*
D03*
Y105882D02*
D03*
Y99382D02*
D03*
Y92882D02*
D03*
X2344874D02*
D03*
Y99382D02*
D03*
Y105882D02*
D03*
Y112382D02*
D03*
Y118882D02*
D03*
Y125382D02*
D03*
Y131882D02*
D03*
X2131300D02*
D03*
Y125382D02*
D03*
Y118882D02*
D03*
Y112382D02*
D03*
Y105882D02*
D03*
Y99382D02*
D03*
Y92882D02*
D03*
X2188700D02*
D03*
Y99382D02*
D03*
Y105882D02*
D03*
Y112382D02*
D03*
Y118882D02*
D03*
Y125382D02*
D03*
Y131882D02*
D03*
D35*
X2067614Y1090994D02*
D03*
Y1103694D02*
D03*
Y1116394D02*
D03*
Y1129094D02*
D03*
X2018614Y1090994D02*
D03*
Y1103694D02*
D03*
Y1116394D02*
D03*
Y1129094D02*
D03*
X2233433D02*
D03*
Y1116394D02*
D03*
Y1103694D02*
D03*
Y1090994D02*
D03*
X2282433Y1129094D02*
D03*
Y1116394D02*
D03*
Y1103694D02*
D03*
Y1090994D02*
D03*
X355997Y140729D02*
D03*
Y153429D02*
D03*
Y166129D02*
D03*
Y178829D02*
D03*
Y191529D02*
D03*
Y204229D02*
D03*
Y216929D02*
D03*
Y229629D02*
D03*
X262997Y140729D02*
D03*
Y153429D02*
D03*
Y166129D02*
D03*
Y178829D02*
D03*
Y191529D02*
D03*
Y204229D02*
D03*
Y216929D02*
D03*
Y229629D02*
D03*
D36*
X1318260Y227550D02*
D03*
Y191550D02*
D03*
X998000Y164220D02*
D03*
Y128220D02*
D03*
X1052830Y164220D02*
D03*
Y128220D02*
D03*
X1515522Y222000D02*
D03*
Y186000D02*
D03*
X1256000Y222000D02*
D03*
Y186000D02*
D03*
X1577782Y227550D02*
D03*
Y191550D02*
D03*
D37*
X2137410Y429450D02*
D03*
X2171010D02*
D03*
X3356610Y429450D02*
D03*
X3390210D02*
D03*
X3051810Y429450D02*
D03*
X3085410D02*
D03*
X2747010D02*
D03*
X2780610D02*
D03*
X2442210D02*
D03*
X2475810D02*
D03*
D38*
X2245153Y1149234D02*
D03*
Y1185234D02*
D03*
D39*
X285254Y1034552D02*
D03*
X294054D02*
D03*
X1610504Y207310D02*
D03*
X1619304D02*
D03*
X1350982D02*
D03*
X1359782D02*
D03*
X1634984D02*
D03*
X1643784D02*
D03*
X1375462D02*
D03*
X1384262D02*
D03*
D40*
X337378Y1089490D02*
D03*
D41*
X376778Y1121990D02*
D03*
Y1116990D02*
D03*
Y1111990D02*
D03*
Y1106990D02*
D03*
Y1101990D02*
D03*
Y1096990D02*
D03*
Y1091990D02*
D03*
Y1086990D02*
D03*
Y1081990D02*
D03*
Y1076990D02*
D03*
Y1071990D02*
D03*
Y1066990D02*
D03*
Y1061990D02*
D03*
Y1056990D02*
D03*
X297978D02*
D03*
Y1061990D02*
D03*
Y1066990D02*
D03*
Y1071990D02*
D03*
Y1076990D02*
D03*
Y1081990D02*
D03*
Y1086990D02*
D03*
Y1091990D02*
D03*
Y1096990D02*
D03*
Y1101990D02*
D03*
Y1106990D02*
D03*
Y1111990D02*
D03*
Y1116990D02*
D03*
Y1121990D02*
D03*
X69954Y767548D02*
D03*
Y762548D02*
D03*
Y757548D02*
D03*
Y752548D02*
D03*
Y747548D02*
D03*
Y742548D02*
D03*
Y737548D02*
D03*
Y732548D02*
D03*
Y727548D02*
D03*
Y722548D02*
D03*
Y717548D02*
D03*
Y712548D02*
D03*
Y707548D02*
D03*
Y702548D02*
D03*
X148754D02*
D03*
Y707548D02*
D03*
Y712548D02*
D03*
Y717548D02*
D03*
Y722548D02*
D03*
Y727548D02*
D03*
Y732548D02*
D03*
Y737548D02*
D03*
Y742548D02*
D03*
Y747548D02*
D03*
Y752548D02*
D03*
Y757548D02*
D03*
Y762548D02*
D03*
Y767548D02*
D03*
D42*
X369878Y1050090D02*
D03*
X364878D02*
D03*
X359878D02*
D03*
X354878D02*
D03*
X349878D02*
D03*
X344878D02*
D03*
X339878D02*
D03*
X334878D02*
D03*
X329878D02*
D03*
X324878D02*
D03*
X319878D02*
D03*
X314878D02*
D03*
X309878D02*
D03*
X304878D02*
D03*
Y1128890D02*
D03*
X309878D02*
D03*
X314878D02*
D03*
X319878D02*
D03*
X324878D02*
D03*
X329878D02*
D03*
X334878D02*
D03*
X339878D02*
D03*
X344878D02*
D03*
X349878D02*
D03*
X354878D02*
D03*
X359878D02*
D03*
X364878D02*
D03*
X369878D02*
D03*
X76854Y695648D02*
D03*
X81854D02*
D03*
X86854D02*
D03*
X91854D02*
D03*
X96854D02*
D03*
X101854D02*
D03*
X106854D02*
D03*
X111854D02*
D03*
X116854D02*
D03*
X121854D02*
D03*
X126854D02*
D03*
X131854D02*
D03*
X136854D02*
D03*
X141854D02*
D03*
Y774448D02*
D03*
X136854D02*
D03*
X131854D02*
D03*
X126854D02*
D03*
X121854D02*
D03*
X116854D02*
D03*
X111854D02*
D03*
X106854D02*
D03*
X101854D02*
D03*
X96854D02*
D03*
X91854D02*
D03*
X86854D02*
D03*
X81854D02*
D03*
X76854D02*
D03*
D43*
X212754Y908986D02*
D03*
D44*
X193254Y896486D02*
D03*
Y901486D02*
D03*
Y906486D02*
D03*
Y911486D02*
D03*
Y916486D02*
D03*
Y921486D02*
D03*
X232254D02*
D03*
Y916486D02*
D03*
Y911486D02*
D03*
Y906486D02*
D03*
Y901486D02*
D03*
Y896486D02*
D03*
X2196537Y853486D02*
D03*
Y858486D02*
D03*
Y863486D02*
D03*
Y868486D02*
D03*
Y873486D02*
D03*
Y878486D02*
D03*
X2235537D02*
D03*
Y873486D02*
D03*
Y868486D02*
D03*
Y863486D02*
D03*
Y858486D02*
D03*
Y853486D02*
D03*
D45*
X200254Y928486D02*
D03*
X205254D02*
D03*
X210254D02*
D03*
X215254D02*
D03*
X220254D02*
D03*
X225254D02*
D03*
Y889486D02*
D03*
X220254D02*
D03*
X215254D02*
D03*
X210254D02*
D03*
X205254D02*
D03*
X200254D02*
D03*
X2228537Y846486D02*
D03*
X2223537D02*
D03*
X2218537D02*
D03*
X2213537D02*
D03*
X2208537D02*
D03*
X2203537D02*
D03*
Y885486D02*
D03*
X2208537D02*
D03*
X2213537D02*
D03*
X2218537D02*
D03*
X2223537D02*
D03*
X2228537D02*
D03*
D46*
X2216037Y865986D02*
D03*
D47*
X840740Y181500D02*
D03*
Y196500D02*
D03*
X841451Y312876D02*
D03*
Y327876D02*
D03*
X841540Y249300D02*
D03*
Y264300D02*
D03*
X840740Y119300D02*
D03*
Y134300D02*
D03*
D48*
X1000584Y958586D02*
D03*
X985584D02*
D03*
X729501Y957992D02*
D03*
X744501D02*
D03*
X1497280Y1208566D02*
D03*
X1482280D02*
D03*
X1241046Y1212952D02*
D03*
X1226046D02*
D03*
X1252568Y992880D02*
D03*
X1267568D02*
D03*
X1267208Y966792D02*
D03*
X1252208D02*
D03*
X1252568Y940556D02*
D03*
X1267568D02*
D03*
X827604Y959094D02*
D03*
X812604D02*
D03*
X914828Y958792D02*
D03*
X899828D02*
D03*
D52*
X1474598Y1101851D02*
D03*
X1492598D02*
D03*
X174510Y316550D02*
D03*
X192510D02*
D03*
X1092000Y148000D02*
D03*
X1074000D02*
D03*
X54000Y822000D02*
D03*
X36000D02*
D03*
X1586782Y177800D02*
D03*
X1568782D02*
D03*
X1327260D02*
D03*
X1309260D02*
D03*
X1218250Y1101851D02*
D03*
X1236250D02*
D03*
D53*
X1665500Y1155890D02*
D03*
Y1122790D02*
D03*
X1409152Y1155890D02*
D03*
Y1122790D02*
D03*
D55*
X1645092Y357124D02*
D03*
X1385570D02*
D03*
D56*
X1620092D02*
D03*
X1360570D02*
D03*
X2870323Y151987D02*
D03*
X2895723Y177387D02*
D03*
Y151987D02*
D03*
X2921123Y177387D02*
D03*
Y151987D02*
D03*
X2946523Y177387D02*
D03*
Y151987D02*
D03*
X2971923Y177387D02*
D03*
Y151987D02*
D03*
X2997323Y177387D02*
D03*
Y151987D02*
D03*
X557357Y132267D02*
D03*
X582757Y157667D02*
D03*
Y132267D02*
D03*
X608157Y157667D02*
D03*
Y132267D02*
D03*
X633557Y157667D02*
D03*
Y132267D02*
D03*
X658957Y157667D02*
D03*
Y132267D02*
D03*
X684357Y157667D02*
D03*
Y132267D02*
D03*
D57*
X1615550Y1145340D02*
D03*
X1571450D02*
D03*
X1359202Y1145340D02*
D03*
X1315102D02*
D03*
D58*
X2233662Y1046706D02*
D03*
X2276362D02*
D03*
D59*
X1129473Y976000D02*
D03*
X1100473D02*
D03*
X793675Y1024939D02*
D03*
X822675D02*
D03*
X793675Y1047973D02*
D03*
X822675D02*
D03*
X793675Y1001389D02*
D03*
X822675D02*
D03*
X734355Y1068543D02*
D03*
X763355D02*
D03*
X734355Y1046033D02*
D03*
X763355D02*
D03*
X734371Y1023523D02*
D03*
X763371D02*
D03*
X734429Y1001097D02*
D03*
X763429D02*
D03*
X947695Y1024939D02*
D03*
X976695D02*
D03*
X947695Y1047973D02*
D03*
X976695D02*
D03*
X947695Y1001389D02*
D03*
X976695D02*
D03*
X892728Y1068543D02*
D03*
X921728D02*
D03*
X892728Y1046033D02*
D03*
X921728D02*
D03*
X892728Y1023523D02*
D03*
X921728D02*
D03*
X892695Y1001097D02*
D03*
X921695D02*
D03*
X1100473Y1047973D02*
D03*
X1129473D02*
D03*
X1100473Y1023982D02*
D03*
X1129473D02*
D03*
Y999991D02*
D03*
X1100473D02*
D03*
X1043973Y1068543D02*
D03*
X1072973D02*
D03*
X1043973Y1046033D02*
D03*
X1072973D02*
D03*
X1043973Y1023523D02*
D03*
X1072973D02*
D03*
X1043973Y1001097D02*
D03*
X1072973D02*
D03*
X2014579Y1150724D02*
D03*
X2043579D02*
D03*
X2416534Y1094458D02*
D03*
X2445534D02*
D03*
X2416534Y1068550D02*
D03*
X2445534D02*
D03*
X2416534Y1042642D02*
D03*
X2445534D02*
D03*
D60*
X1586500Y1202340D02*
D03*
Y1184340D02*
D03*
X716995Y1063519D02*
D03*
Y1045519D02*
D03*
X874025Y1044389D02*
D03*
Y1026389D02*
D03*
X1027026Y1042389D02*
D03*
Y1024389D02*
D03*
X1302152Y1202340D02*
D03*
Y1184340D02*
D03*
X1556500Y1202340D02*
D03*
Y1184340D02*
D03*
X1331152Y1202340D02*
D03*
Y1184340D02*
D03*
D61*
X1237700Y445000D02*
D03*
X1232300D02*
D03*
X1198467Y499251D02*
D03*
X1203867D02*
D03*
X1198467Y493249D02*
D03*
X1203867D02*
D03*
X1114700Y493299D02*
D03*
X1109300D02*
D03*
X1114700Y499500D02*
D03*
X1109300D02*
D03*
X529300Y783000D02*
D03*
X534700D02*
D03*
X523700D02*
D03*
X518300D02*
D03*
X359300Y1154000D02*
D03*
X364700D02*
D03*
X375700D02*
D03*
X370300D02*
D03*
X1243300Y445000D02*
D03*
X1248700D02*
D03*
D62*
X1089716Y1182809D02*
D03*
X781916D02*
D03*
X935176D02*
D03*
D63*
X1127816Y1109759D02*
D03*
X1115116D02*
D03*
X1102416D02*
D03*
X1089716D02*
D03*
X1077016D02*
D03*
X1064316D02*
D03*
X1051616D02*
D03*
X820016D02*
D03*
X807316D02*
D03*
X794616D02*
D03*
X781916D02*
D03*
X769216D02*
D03*
X756516D02*
D03*
X743816D02*
D03*
X973276D02*
D03*
X960576D02*
D03*
X947876D02*
D03*
X935176D02*
D03*
X922476D02*
D03*
X909776D02*
D03*
X897076D02*
D03*
D64*
X1282424Y235560D02*
D03*
X1307424D02*
D03*
X1282024Y326960D02*
D03*
X1307424D02*
D03*
X1256624D02*
D03*
Y235560D02*
D03*
X1024000Y182688D02*
D03*
X1049000D02*
D03*
X1023600Y274088D02*
D03*
X1049000D02*
D03*
X998200D02*
D03*
Y182688D02*
D03*
X1541946Y235560D02*
D03*
X1566946D02*
D03*
X1541546Y326960D02*
D03*
X1566946D02*
D03*
X1516146D02*
D03*
Y235560D02*
D03*
D65*
X556900Y1091000D02*
D03*
X569600D02*
D03*
X582300D02*
D03*
X595000D02*
D03*
X607700D02*
D03*
X620400D02*
D03*
X633100D02*
D03*
X554248Y1209480D02*
D03*
X566948D02*
D03*
X579648D02*
D03*
X592348D02*
D03*
X605048D02*
D03*
X617748D02*
D03*
X630448D02*
D03*
D66*
X316338Y1002342D02*
D03*
Y1017342D02*
D03*
X328338D02*
D03*
Y1002342D02*
D03*
X2229285Y757630D02*
D03*
Y772630D02*
D03*
X2241286D02*
D03*
Y757630D02*
D03*
D67*
X171750Y884066D02*
D03*
Y941766D02*
D03*
D68*
X162000Y848066D02*
D03*
X125000D02*
D03*
D69*
X62750Y950916D02*
D03*
Y939916D02*
D03*
Y928916D02*
D03*
Y917916D02*
D03*
Y906916D02*
D03*
Y895916D02*
D03*
Y884916D02*
D03*
Y873916D02*
D03*
D70*
X66250Y963016D02*
D03*
D71*
X64000Y849816D02*
D03*
D72*
X2184488Y1110194D02*
D03*
X2120688D02*
D03*
D73*
X44992Y673699D02*
D03*
Y688299D02*
D03*
X859231Y312876D02*
D03*
Y327476D02*
D03*
X859320Y249300D02*
D03*
Y263900D02*
D03*
X1483228Y1195868D02*
D03*
Y1181268D02*
D03*
X1238118Y1196122D02*
D03*
Y1181522D02*
D03*
X603000Y309700D02*
D03*
Y324300D02*
D03*
X588000Y309700D02*
D03*
Y324300D02*
D03*
X718155Y1145819D02*
D03*
Y1131219D02*
D03*
X717655Y1100339D02*
D03*
Y1114939D02*
D03*
X794566Y1082499D02*
D03*
Y1067899D02*
D03*
X1154980Y980780D02*
D03*
Y995380D02*
D03*
X1155000Y954692D02*
D03*
Y969292D02*
D03*
X1155036Y928456D02*
D03*
Y943056D02*
D03*
X863620Y1082499D02*
D03*
Y1067899D02*
D03*
X878026Y1081689D02*
D03*
Y1067089D02*
D03*
X949025Y1068089D02*
D03*
Y1082689D02*
D03*
X935655Y1082801D02*
D03*
Y1068201D02*
D03*
X1016091Y1082844D02*
D03*
Y1068243D02*
D03*
X1029963Y1081722D02*
D03*
Y1067122D02*
D03*
X1101908Y1068647D02*
D03*
Y1083247D02*
D03*
X1088459Y1082846D02*
D03*
Y1068246D02*
D03*
X1556592Y182010D02*
D03*
Y167410D02*
D03*
X1297070Y182010D02*
D03*
Y167410D02*
D03*
X164218Y708286D02*
D03*
Y722886D02*
D03*
X664164Y798632D02*
D03*
Y784032D02*
D03*
X812538Y924362D02*
D03*
Y938962D02*
D03*
X900196Y923544D02*
D03*
Y938144D02*
D03*
X985334Y923386D02*
D03*
Y937986D02*
D03*
X732992Y924699D02*
D03*
Y939299D02*
D03*
X2204000Y832300D02*
D03*
Y817700D02*
D03*
X2223698Y817215D02*
D03*
Y831815D02*
D03*
X2245000Y831300D02*
D03*
Y816700D02*
D03*
X1818894Y981776D02*
D03*
Y996376D02*
D03*
X1805432Y981776D02*
D03*
Y996376D02*
D03*
X1765006Y981776D02*
D03*
Y996376D02*
D03*
X2365547Y125430D02*
D03*
Y140031D02*
D03*
X1750006Y981776D02*
D03*
Y996376D02*
D03*
X854025Y1023689D02*
D03*
Y1009089D02*
D03*
X700025Y1103689D02*
D03*
Y1089089D02*
D03*
X708250Y319800D02*
D03*
Y305200D02*
D03*
X730250Y319300D02*
D03*
Y304700D02*
D03*
X1420152Y1099640D02*
D03*
Y1085040D02*
D03*
X1676500Y1099640D02*
D03*
Y1085040D02*
D03*
X1403152Y1085040D02*
D03*
Y1099640D02*
D03*
X1659500Y1085040D02*
D03*
Y1099640D02*
D03*
X1245152Y1072040D02*
D03*
Y1086640D02*
D03*
X1501500Y1072040D02*
D03*
Y1086640D02*
D03*
X1304798Y569776D02*
D03*
Y555176D02*
D03*
X1305000Y578700D02*
D03*
Y593300D02*
D03*
X1292000Y569776D02*
D03*
Y555176D02*
D03*
Y578700D02*
D03*
Y593300D02*
D03*
X192036Y836700D02*
D03*
Y851300D02*
D03*
Y875150D02*
D03*
Y860550D02*
D03*
X1174476Y323700D02*
D03*
Y338300D02*
D03*
Y314474D02*
D03*
Y299874D02*
D03*
X1160506Y314474D02*
D03*
Y299874D02*
D03*
Y323700D02*
D03*
Y338300D02*
D03*
X1146282Y323700D02*
D03*
Y338300D02*
D03*
Y314474D02*
D03*
Y299874D02*
D03*
X1132566Y323700D02*
D03*
Y338300D02*
D03*
Y314474D02*
D03*
Y299874D02*
D03*
X60008Y677155D02*
D03*
Y691755D02*
D03*
Y668061D02*
D03*
Y653461D02*
D03*
X354334Y1186332D02*
D03*
Y1200932D02*
D03*
Y1211362D02*
D03*
Y1225962D02*
D03*
X411092Y1211362D02*
D03*
Y1225962D02*
D03*
Y1186332D02*
D03*
Y1200932D02*
D03*
X858520Y119300D02*
D03*
Y133900D02*
D03*
X1339264Y474700D02*
D03*
Y489300D02*
D03*
X858000Y182700D02*
D03*
Y197300D02*
D03*
X402000Y1097700D02*
D03*
Y1112300D02*
D03*
X422000Y1143300D02*
D03*
Y1128700D02*
D03*
X430000Y1097700D02*
D03*
Y1112300D02*
D03*
X416000Y1097700D02*
D03*
Y1112300D02*
D03*
X450000Y1143300D02*
D03*
Y1128700D02*
D03*
X436000Y1143300D02*
D03*
Y1128700D02*
D03*
D74*
X196499Y714008D02*
D03*
X181499D02*
D03*
Y726008D02*
D03*
X196499D02*
D03*
D75*
X373072Y310406D02*
D03*
Y300906D02*
D03*
Y291406D02*
D03*
X396072D02*
D03*
Y310406D02*
D03*
Y300906D02*
D03*
D76*
X263692Y300506D02*
D03*
Y275506D02*
D03*
X355092Y300906D02*
D03*
Y275506D02*
D03*
Y326306D02*
D03*
X263692D02*
D03*
D77*
X1014100Y292838D02*
D03*
X1023600D02*
D03*
X1033100D02*
D03*
Y315838D02*
D03*
X1014100D02*
D03*
X1023600D02*
D03*
X1532046Y342916D02*
D03*
X1541546D02*
D03*
X1551046D02*
D03*
Y365916D02*
D03*
X1532046D02*
D03*
X1541546D02*
D03*
X1272524Y342916D02*
D03*
X1282024D02*
D03*
X1291524D02*
D03*
Y365916D02*
D03*
X1272524D02*
D03*
X1282024D02*
D03*
D78*
X1084209Y321979D02*
D03*
D79*
X1080209Y322729D02*
D03*
X1076209D02*
D03*
X1072209D02*
D03*
Y306729D02*
D03*
X1076209D02*
D03*
X1080209D02*
D03*
X1084209D02*
D03*
X1311497Y518351D02*
D03*
X1315497D02*
D03*
X1319497D02*
D03*
X1323497D02*
D03*
Y542351D02*
D03*
X1319497D02*
D03*
X1315497D02*
D03*
X1311497D02*
D03*
X411497Y193180D02*
D03*
X407497D02*
D03*
X403498D02*
D03*
X399497D02*
D03*
Y169180D02*
D03*
X403498D02*
D03*
X407497D02*
D03*
X411497D02*
D03*
D80*
X1066209Y320729D02*
D03*
Y316729D02*
D03*
Y312729D02*
D03*
Y308729D02*
D03*
X1090209D02*
D03*
Y312729D02*
D03*
Y316729D02*
D03*
Y320729D02*
D03*
X1309497Y532351D02*
D03*
Y528351D02*
D03*
Y524351D02*
D03*
X1325497D02*
D03*
Y528351D02*
D03*
Y532351D02*
D03*
Y536351D02*
D03*
X413498Y179180D02*
D03*
Y183180D02*
D03*
Y187180D02*
D03*
X397497D02*
D03*
Y183180D02*
D03*
Y179180D02*
D03*
Y175180D02*
D03*
D81*
X1682516Y325200D02*
D03*
X1669816D02*
D03*
X1657116D02*
D03*
X1644416D02*
D03*
X1631716D02*
D03*
X1619016D02*
D03*
X1606316D02*
D03*
X1593616D02*
D03*
X1682516Y232200D02*
D03*
X1669816D02*
D03*
X1657116D02*
D03*
X1644416D02*
D03*
X1631716D02*
D03*
X1619016D02*
D03*
X1606316D02*
D03*
X1593616D02*
D03*
X1422994Y325200D02*
D03*
X1410294D02*
D03*
X1397594D02*
D03*
X1384894D02*
D03*
X1372194D02*
D03*
X1359494D02*
D03*
X1346794D02*
D03*
X1334094D02*
D03*
X1422994Y232200D02*
D03*
X1410294D02*
D03*
X1397594D02*
D03*
X1384894D02*
D03*
X1372194D02*
D03*
X1359494D02*
D03*
X1346794D02*
D03*
X1334094D02*
D03*
X1161550Y275638D02*
D03*
X1148850D02*
D03*
X1136150D02*
D03*
X1123450D02*
D03*
X1110750D02*
D03*
X1098050D02*
D03*
X1085350D02*
D03*
X1072650D02*
D03*
X1161550Y182638D02*
D03*
X1148850D02*
D03*
X1136150D02*
D03*
X1123450D02*
D03*
X1110750D02*
D03*
X1098050D02*
D03*
X1085350D02*
D03*
X1072650D02*
D03*
D82*
X109354Y735048D02*
D03*
D83*
X876712Y332216D02*
D03*
Y313216D02*
D03*
X902712Y322716D02*
D03*
X876800Y268640D02*
D03*
Y249640D02*
D03*
X902800Y259140D02*
D03*
X223864Y604108D02*
D03*
X249864Y613608D02*
D03*
Y594608D02*
D03*
X224100Y657112D02*
D03*
X250100Y666612D02*
D03*
Y647612D02*
D03*
X828560Y940918D02*
D03*
Y921918D02*
D03*
X854560Y931418D02*
D03*
X916060Y940636D02*
D03*
Y921636D02*
D03*
X942060Y931136D02*
D03*
X1001754Y939996D02*
D03*
Y920996D02*
D03*
X1027754Y930496D02*
D03*
X748992Y941499D02*
D03*
Y922499D02*
D03*
X774992Y931999D02*
D03*
X876000Y138640D02*
D03*
Y119640D02*
D03*
X902000Y129140D02*
D03*
X876000Y201500D02*
D03*
Y182500D02*
D03*
X902000Y192000D02*
D03*
D84*
X1510660Y1195726D02*
D03*
X1520160Y1169726D02*
D03*
X1501160D02*
D03*
X1266312Y1195472D02*
D03*
X1275812Y1169472D02*
D03*
X1256812D02*
D03*
X371504Y1190360D02*
D03*
X390504D02*
D03*
X381004Y1216360D02*
D03*
X427500Y1190360D02*
D03*
X446500D02*
D03*
X437000Y1216360D02*
D03*
D85*
X207879Y209773D02*
D03*
X187079D02*
D03*
X209400Y158000D02*
D03*
X188600D02*
D03*
X209211Y139994D02*
D03*
X188411D02*
D03*
X207879Y228556D02*
D03*
X187079D02*
D03*
D86*
X1445662Y1180146D02*
D03*
X1415662D02*
D03*
X1592500Y1234340D02*
D03*
X1562500D02*
D03*
X1605500D02*
D03*
X1635500D02*
D03*
D87*
X778916Y1082483D02*
D03*
Y1073683D02*
D03*
X163535Y683145D02*
D03*
Y691945D02*
D03*
X53189Y731948D02*
D03*
Y723148D02*
D03*
D88*
X198508Y769164D02*
D03*
Y753764D02*
D03*
X237489Y232689D02*
D03*
Y217289D02*
D03*
Y137721D02*
D03*
Y153121D02*
D03*
X159126Y299612D02*
D03*
Y284212D02*
D03*
X1047200Y298138D02*
D03*
Y313538D02*
D03*
X1179490Y288138D02*
D03*
Y272738D02*
D03*
X1104880Y314808D02*
D03*
Y299408D02*
D03*
X1116310D02*
D03*
Y314808D02*
D03*
X806856Y1083139D02*
D03*
Y1067739D02*
D03*
X819026Y1083089D02*
D03*
Y1067689D02*
D03*
X962048Y1086339D02*
D03*
Y1070939D02*
D03*
X974416Y1086130D02*
D03*
Y1070730D02*
D03*
X1115572Y1086833D02*
D03*
Y1071433D02*
D03*
X1128041Y1086744D02*
D03*
Y1071344D02*
D03*
X1566946Y348216D02*
D03*
Y363616D02*
D03*
X1307424Y348216D02*
D03*
Y363616D02*
D03*
X149994Y683820D02*
D03*
Y668420D02*
D03*
X2215788Y749730D02*
D03*
Y765130D02*
D03*
X2186034Y851185D02*
D03*
Y835785D02*
D03*
X2186000Y889700D02*
D03*
Y874300D02*
D03*
X2250066Y859685D02*
D03*
Y844285D02*
D03*
X2248000Y895700D02*
D03*
Y880300D02*
D03*
X1336802Y569548D02*
D03*
Y554148D02*
D03*
X1324864Y554148D02*
D03*
Y569548D02*
D03*
X846026Y1055089D02*
D03*
Y1039689D02*
D03*
X704026Y1131089D02*
D03*
Y1115689D02*
D03*
X1286152Y1128040D02*
D03*
Y1112640D02*
D03*
X1542500Y1128040D02*
D03*
Y1112640D02*
D03*
X1272152Y1118040D02*
D03*
Y1102640D02*
D03*
X1528500Y1118040D02*
D03*
Y1102640D02*
D03*
X1276152Y1069640D02*
D03*
Y1085040D02*
D03*
X1532500Y1069640D02*
D03*
Y1085040D02*
D03*
X1386152Y1088640D02*
D03*
Y1104040D02*
D03*
X1642500Y1088640D02*
D03*
Y1104040D02*
D03*
X1372152Y1088640D02*
D03*
Y1104040D02*
D03*
X1628500Y1088640D02*
D03*
Y1104040D02*
D03*
X344236Y1017868D02*
D03*
Y1002468D02*
D03*
X222889Y137721D02*
D03*
Y153121D02*
D03*
Y232689D02*
D03*
Y217289D02*
D03*
X389958Y155088D02*
D03*
Y139688D02*
D03*
X376793D02*
D03*
Y155088D02*
D03*
X377497Y229879D02*
D03*
Y214479D02*
D03*
D89*
X2229932Y737830D02*
D03*
X2214532D02*
D03*
X2280793Y1146914D02*
D03*
X2265393D02*
D03*
X206036Y258792D02*
D03*
X221436D02*
D03*
X375332Y326306D02*
D03*
X390732D02*
D03*
X1032590Y109220D02*
D03*
X1017190D02*
D03*
Y121920D02*
D03*
X1032590D02*
D03*
X1146730Y161290D02*
D03*
X1162130D02*
D03*
X222334Y875956D02*
D03*
X237734D02*
D03*
X757726Y1085389D02*
D03*
X742326D02*
D03*
X911725D02*
D03*
X896326D02*
D03*
X1065725D02*
D03*
X1050325D02*
D03*
X1544832Y172702D02*
D03*
X1529432D02*
D03*
X1285310D02*
D03*
X1269910D02*
D03*
X1529432Y184148D02*
D03*
X1544832D02*
D03*
X1269910D02*
D03*
X1285310D02*
D03*
X1668466Y197674D02*
D03*
X1683866D02*
D03*
X1408944D02*
D03*
X1424344D02*
D03*
X1668466Y209326D02*
D03*
X1683866D02*
D03*
X1408944D02*
D03*
X1424344D02*
D03*
X1668466Y348550D02*
D03*
X1683866D02*
D03*
X1408944D02*
D03*
X1424344D02*
D03*
X3387130Y382920D02*
D03*
X3402530D02*
D03*
X3082330Y382920D02*
D03*
X3097730D02*
D03*
X2777530D02*
D03*
X2792930D02*
D03*
X2472730D02*
D03*
X2488130D02*
D03*
X2167930D02*
D03*
X2183330D02*
D03*
X3353800Y381350D02*
D03*
X3369200D02*
D03*
X3049000Y381350D02*
D03*
X3064400D02*
D03*
X2744200D02*
D03*
X2759600D02*
D03*
X2439400D02*
D03*
X2454800D02*
D03*
X2134600D02*
D03*
X2150000D02*
D03*
X181156Y741906D02*
D03*
X196556D02*
D03*
X2223300Y897000D02*
D03*
X2238700D02*
D03*
X2329453Y144496D02*
D03*
X2344853D02*
D03*
X2173600D02*
D03*
X2189000D02*
D03*
X602300Y292000D02*
D03*
X617700D02*
D03*
X642700Y292000D02*
D03*
X627300D02*
D03*
X1765300Y966000D02*
D03*
X1780700D02*
D03*
X1805700Y966000D02*
D03*
X1790300D02*
D03*
X271286Y1048776D02*
D03*
X286686D02*
D03*
X371014Y1000356D02*
D03*
X355614D02*
D03*
X268606Y246646D02*
D03*
X253206D02*
D03*
D90*
X247230Y314010D02*
D03*
X211230D02*
D03*
X247230Y287340D02*
D03*
X211230D02*
D03*
D91*
X1669118Y184770D02*
D03*
Y165770D02*
D03*
X1692118Y175270D02*
D03*
X1409596Y184770D02*
D03*
Y165770D02*
D03*
X1432596Y175270D02*
D03*
X720700Y1162749D02*
D03*
Y1181749D02*
D03*
X697700Y1172249D02*
D03*
D92*
X1310247Y536351D02*
D03*
X412747Y175180D02*
D03*
D93*
X869570Y827360D02*
D03*
X822870D02*
D03*
X869570Y832360D02*
D03*
X822870D02*
D03*
X869570Y837360D02*
D03*
X822870D02*
D03*
X869570Y842360D02*
D03*
X822870D02*
D03*
X869570Y847360D02*
D03*
X822870D02*
D03*
X869570Y777360D02*
D03*
X822870D02*
D03*
X869570Y782360D02*
D03*
X822870D02*
D03*
X869570Y787360D02*
D03*
X822870D02*
D03*
X869570Y792360D02*
D03*
X822870D02*
D03*
X869570Y797360D02*
D03*
X822870D02*
D03*
X869570Y802360D02*
D03*
X822870D02*
D03*
X869570Y807360D02*
D03*
X822870D02*
D03*
X869570Y812360D02*
D03*
X822870D02*
D03*
X869570Y817360D02*
D03*
X822870D02*
D03*
X869570Y822360D02*
D03*
X822870D02*
D03*
X869570Y727360D02*
D03*
X822870D02*
D03*
X869570Y732360D02*
D03*
X822870D02*
D03*
X869570Y737360D02*
D03*
X822870D02*
D03*
X869570Y742360D02*
D03*
X822870D02*
D03*
X869570Y747360D02*
D03*
X822870D02*
D03*
X869570Y752360D02*
D03*
X822870D02*
D03*
X869570Y757360D02*
D03*
X822870D02*
D03*
X869570Y762360D02*
D03*
X822870D02*
D03*
X869570Y767360D02*
D03*
X822870D02*
D03*
X869570Y772360D02*
D03*
X822870D02*
D03*
Y472360D02*
D03*
X869570D02*
D03*
X822870Y467360D02*
D03*
X869570D02*
D03*
X822870Y462360D02*
D03*
X869570D02*
D03*
X822870Y457360D02*
D03*
X869570D02*
D03*
X822870Y452360D02*
D03*
X869570D02*
D03*
X822870Y522360D02*
D03*
X869570D02*
D03*
X822870Y517360D02*
D03*
X869570D02*
D03*
X822870Y512360D02*
D03*
X869570D02*
D03*
X822870Y507360D02*
D03*
X869570D02*
D03*
X822870Y502360D02*
D03*
X869570D02*
D03*
X822870Y497360D02*
D03*
X869570D02*
D03*
X822870Y492360D02*
D03*
X869570D02*
D03*
X822870Y487360D02*
D03*
X869570D02*
D03*
X822870Y482360D02*
D03*
X869570D02*
D03*
X822870Y477360D02*
D03*
X869570D02*
D03*
X822870Y572360D02*
D03*
X869570D02*
D03*
X822870Y567360D02*
D03*
X869570D02*
D03*
X822870Y562360D02*
D03*
X869570D02*
D03*
X822870Y557360D02*
D03*
X869570D02*
D03*
X822870Y552360D02*
D03*
X869570D02*
D03*
X822870Y547360D02*
D03*
X869570D02*
D03*
X822870Y542360D02*
D03*
X869570D02*
D03*
X822870Y537360D02*
D03*
X869570D02*
D03*
X822870Y532360D02*
D03*
X869570D02*
D03*
X822870Y527360D02*
D03*
X869570D02*
D03*
Y577360D02*
D03*
X822870D02*
D03*
X869570Y582360D02*
D03*
X822870D02*
D03*
X869570Y587360D02*
D03*
X822870D02*
D03*
X869570Y592360D02*
D03*
X822870D02*
D03*
X869570Y597360D02*
D03*
X822870D02*
D03*
X869570Y602360D02*
D03*
X822870D02*
D03*
X869570Y607360D02*
D03*
X822870D02*
D03*
X869570Y612360D02*
D03*
X822870D02*
D03*
X869570Y617360D02*
D03*
X822870D02*
D03*
X869570Y622360D02*
D03*
X822870D02*
D03*
X869570Y627360D02*
D03*
X822870D02*
D03*
X869570Y632360D02*
D03*
X822870D02*
D03*
X869570Y637360D02*
D03*
X822870D02*
D03*
X869570Y642360D02*
D03*
X822870D02*
D03*
X869570Y647360D02*
D03*
X822870D02*
D03*
X869570Y652360D02*
D03*
X822870D02*
D03*
X869570Y657360D02*
D03*
X822870D02*
D03*
X869570Y662360D02*
D03*
X822870D02*
D03*
X869570Y667360D02*
D03*
X822870D02*
D03*
X869570Y672360D02*
D03*
X822870D02*
D03*
X869570Y677360D02*
D03*
X822870D02*
D03*
X869570Y682360D02*
D03*
X822870D02*
D03*
X869570Y687360D02*
D03*
X822870D02*
D03*
X869570Y692360D02*
D03*
X822870D02*
D03*
X869570Y697360D02*
D03*
X822870D02*
D03*
X869570Y702360D02*
D03*
X822870D02*
D03*
X869570Y707360D02*
D03*
X822870D02*
D03*
X869570Y712360D02*
D03*
X822870D02*
D03*
X869570Y717360D02*
D03*
X822870D02*
D03*
X869570Y722360D02*
D03*
X822870D02*
D03*
X349570Y827360D02*
D03*
X302870D02*
D03*
X349570Y832360D02*
D03*
X302870D02*
D03*
X349570Y837360D02*
D03*
X302870D02*
D03*
X349570Y842360D02*
D03*
X302870D02*
D03*
X349570Y847360D02*
D03*
X302870D02*
D03*
X349570Y777360D02*
D03*
X302870D02*
D03*
X349570Y782360D02*
D03*
X302870D02*
D03*
X349570Y787360D02*
D03*
X302870D02*
D03*
X349570Y792360D02*
D03*
X302870D02*
D03*
X349570Y797360D02*
D03*
X302870D02*
D03*
X349570Y802360D02*
D03*
X302870D02*
D03*
X349570Y807360D02*
D03*
X302870D02*
D03*
X349570Y812360D02*
D03*
X302870D02*
D03*
X349570Y817360D02*
D03*
X302870D02*
D03*
X349570Y822360D02*
D03*
X302870D02*
D03*
X349570Y727360D02*
D03*
X302870D02*
D03*
X349570Y732360D02*
D03*
X302870D02*
D03*
X349570Y737360D02*
D03*
X302870D02*
D03*
X349570Y742360D02*
D03*
X302870D02*
D03*
X349570Y747360D02*
D03*
X302870D02*
D03*
X349570Y752360D02*
D03*
X302870D02*
D03*
X349570Y757360D02*
D03*
X302870D02*
D03*
X349570Y762360D02*
D03*
X302870D02*
D03*
X349570Y767360D02*
D03*
X302870D02*
D03*
X349570Y772360D02*
D03*
X302870D02*
D03*
Y472360D02*
D03*
X349570D02*
D03*
X302870Y467360D02*
D03*
X349570D02*
D03*
X302870Y462360D02*
D03*
X349570D02*
D03*
X302870Y457360D02*
D03*
X349570D02*
D03*
X302870Y452360D02*
D03*
X349570D02*
D03*
X302870Y522360D02*
D03*
X349570D02*
D03*
X302870Y517360D02*
D03*
X349570D02*
D03*
X302870Y512360D02*
D03*
X349570D02*
D03*
X302870Y507360D02*
D03*
X349570D02*
D03*
X302870Y502360D02*
D03*
X349570D02*
D03*
X302870Y497360D02*
D03*
X349570D02*
D03*
X302870Y492360D02*
D03*
X349570D02*
D03*
X302870Y487360D02*
D03*
X349570D02*
D03*
X302870Y482360D02*
D03*
X349570D02*
D03*
X302870Y477360D02*
D03*
X349570D02*
D03*
X302870Y572360D02*
D03*
X349570D02*
D03*
X302870Y567360D02*
D03*
X349570D02*
D03*
X302870Y562360D02*
D03*
X349570D02*
D03*
X302870Y557360D02*
D03*
X349570D02*
D03*
X302870Y552360D02*
D03*
X349570D02*
D03*
X302870Y547360D02*
D03*
X349570D02*
D03*
X302870Y542360D02*
D03*
X349570D02*
D03*
X302870Y537360D02*
D03*
X349570D02*
D03*
X302870Y532360D02*
D03*
X349570D02*
D03*
X302870Y527360D02*
D03*
X349570D02*
D03*
Y577360D02*
D03*
X302870D02*
D03*
X349570Y582360D02*
D03*
X302870D02*
D03*
X349570Y587360D02*
D03*
X302870D02*
D03*
X349570Y592360D02*
D03*
X302870D02*
D03*
X349570Y597360D02*
D03*
X302870D02*
D03*
X349570Y602360D02*
D03*
X302870D02*
D03*
X349570Y607360D02*
D03*
X302870D02*
D03*
X349570Y612360D02*
D03*
X302870D02*
D03*
X349570Y617360D02*
D03*
X302870D02*
D03*
X349570Y622360D02*
D03*
X302870D02*
D03*
X349570Y627360D02*
D03*
X302870D02*
D03*
X349570Y632360D02*
D03*
X302870D02*
D03*
X349570Y637360D02*
D03*
X302870D02*
D03*
X349570Y642360D02*
D03*
X302870D02*
D03*
X349570Y647360D02*
D03*
X302870D02*
D03*
X349570Y652360D02*
D03*
X302870D02*
D03*
X349570Y657360D02*
D03*
X302870D02*
D03*
X349570Y662360D02*
D03*
X302870D02*
D03*
X349570Y667360D02*
D03*
X302870D02*
D03*
X349570Y672360D02*
D03*
X302870D02*
D03*
X349570Y677360D02*
D03*
X302870D02*
D03*
X349570Y682360D02*
D03*
X302870D02*
D03*
X349570Y687360D02*
D03*
X302870D02*
D03*
X349570Y692360D02*
D03*
X302870D02*
D03*
X349570Y697360D02*
D03*
X302870D02*
D03*
X349570Y702360D02*
D03*
X302870D02*
D03*
X349570Y707360D02*
D03*
X302870D02*
D03*
X349570Y712360D02*
D03*
X302870D02*
D03*
X349570Y717360D02*
D03*
X302870D02*
D03*
X349570Y722360D02*
D03*
X302870D02*
D03*
D94*
X1254152Y1101840D02*
D03*
Y1130840D02*
D03*
X1510500Y1101840D02*
D03*
Y1130840D02*
D03*
D95*
X559500Y796300D02*
D03*
Y801700D02*
D03*
X553000Y796300D02*
D03*
Y801700D02*
D03*
X608000Y1180400D02*
D03*
Y1175000D02*
D03*
X614500Y1180400D02*
D03*
Y1175000D02*
D03*
X617250Y1032000D02*
D03*
Y1026600D02*
D03*
X610750Y1032000D02*
D03*
Y1026600D02*
D03*
X538000Y796300D02*
D03*
Y801700D02*
D03*
X544500Y796300D02*
D03*
Y801700D02*
D03*
X529500Y796300D02*
D03*
Y801700D02*
D03*
X523000Y796300D02*
D03*
Y801700D02*
D03*
X508500Y1175600D02*
D03*
Y1181000D02*
D03*
X502000D02*
D03*
Y1175600D02*
D03*
X553000Y499700D02*
D03*
Y494300D02*
D03*
X559500Y499700D02*
D03*
Y494300D02*
D03*
X524000Y887000D02*
D03*
Y881600D02*
D03*
X538000Y887000D02*
D03*
Y881600D02*
D03*
X491000Y1191700D02*
D03*
Y1186300D02*
D03*
X519000Y1191700D02*
D03*
Y1186300D02*
D03*
D96*
X203889Y184263D02*
D03*
X197689D02*
D03*
X203889Y194263D02*
D03*
Y189263D02*
D03*
Y179263D02*
D03*
Y174263D02*
D03*
X197689D02*
D03*
Y179263D02*
D03*
Y189263D02*
D03*
Y194263D02*
D03*
D97*
X1089716Y1145112D02*
D03*
X781916Y1145109D02*
D03*
X935176Y1145112D02*
D03*
D98*
X1089716Y1220507D02*
D03*
X781913Y1220508D02*
D03*
X935176Y1220507D02*
D03*
D99*
X36000Y1245000D02*
G03*
X36000Y1245000I-1000J0D01*
G01*
X3466000Y35000D02*
G03*
X3466000Y35000I-1000J0D01*
G01*
X36000D02*
G03*
X36000Y35000I-1000J0D01*
G01*
D100*
X297000Y1009000D02*
D03*
X261000Y50000D02*
D03*
X1031220Y81048D02*
D03*
X127000Y830580D02*
D03*
X844955Y1076639D02*
D03*
X997717Y1073389D02*
D03*
X1151749Y1075391D02*
D03*
X1656908Y150540D02*
D03*
X1397386D02*
D03*
X3228880Y444420D02*
D03*
X2924080Y444420D02*
D03*
X2619280D02*
D03*
X2314480D02*
D03*
X2009680D02*
D03*
X3360700Y465000D02*
D03*
X3055900Y465000D02*
D03*
X2751100D02*
D03*
X2446300D02*
D03*
X2141500D02*
D03*
X3241580Y457120D02*
D03*
X2936780Y457120D02*
D03*
X2631980D02*
D03*
X2327180D02*
D03*
X2022380D02*
D03*
X3355880Y507920D02*
D03*
X3051080Y507920D02*
D03*
X2746280D02*
D03*
X2441480D02*
D03*
X2136680D02*
D03*
X3241580Y507920D02*
D03*
X2936780Y507920D02*
D03*
X2631980D02*
D03*
X2327180D02*
D03*
X2022380D02*
D03*
X1822880Y515540D02*
D03*
X1518080Y515770D02*
D03*
X1213280Y516000D02*
D03*
X1840660Y523580D02*
D03*
X1535860D02*
D03*
X1231060Y524000D02*
D03*
X1822880Y540940D02*
D03*
X1518080D02*
D03*
X1213280Y540940D02*
D03*
X1713420Y540940D02*
D03*
X1408620D02*
D03*
X1103820Y540940D02*
D03*
X1840660Y548560D02*
D03*
X1535860D02*
D03*
X1231060Y548560D02*
D03*
X24010Y728952D02*
D03*
X50362Y703774D02*
D03*
X1824990Y449580D02*
D03*
X1520252D02*
D03*
X1209000Y456000D02*
D03*
X3360432Y448714D02*
D03*
X3055632D02*
D03*
X2750832D02*
D03*
X2446032D02*
D03*
X2141232Y448714D02*
D03*
X1099390Y443904D02*
D03*
X2035492Y470000D02*
D03*
X2340292D02*
D03*
X2645092D02*
D03*
X2949892D02*
D03*
X3254692Y469999D02*
D03*
X2125992Y469500D02*
D03*
X2430792D02*
D03*
X2735592D02*
D03*
X3040392D02*
D03*
X3345192Y469499D02*
D03*
X2171799Y899235D02*
D03*
X2365547Y107331D02*
D03*
X1731000Y476000D02*
D03*
X1427000D02*
D03*
X1114056Y476000D02*
D03*
X1361500Y1173074D02*
D03*
X1617848Y1173074D02*
D03*
X1258630Y1078840D02*
D03*
X1514978Y1078840D02*
D03*
X657352Y499364D02*
D03*
X35000Y1245000D02*
D03*
X3465000Y35000D02*
D03*
X35000D02*
D03*
X314038Y1144120D02*
D03*
X327000Y1158000D02*
D03*
X1114056Y549825D02*
D03*
X1425000Y549000D02*
D03*
X1725803Y550000D02*
D03*
X2120000Y518000D02*
D03*
X2424000Y517000D02*
D03*
X2730000D02*
D03*
X3036000D02*
D03*
X3341000Y517000D02*
D03*
X1103820Y564000D02*
D03*
X1408620D02*
D03*
X1713420D02*
D03*
X2044000Y518000D02*
D03*
X2348000Y517000D02*
D03*
X2652310Y518414D02*
D03*
X2954000Y517000D02*
D03*
X3266000D02*
D03*
X415000Y1071500D02*
D03*
X399000Y1051000D02*
D03*
X415000Y1059000D02*
D03*
X399000Y1065000D02*
D03*
Y1079000D02*
D03*
X415000Y1084000D02*
D03*
D101*
X3259174Y1071871D02*
D03*
X3233774D02*
D03*
X3208374D02*
D03*
X3182974D02*
D03*
X3157574D02*
D03*
X3132174D02*
D03*
X3106774D02*
D03*
X3081374D02*
D03*
X3055974D02*
D03*
X3030574D02*
D03*
X3259174Y1134101D02*
D03*
X3233774D02*
D03*
X3208374D02*
D03*
X3182974D02*
D03*
X3157574D02*
D03*
X3132174D02*
D03*
X3106774D02*
D03*
X3081374D02*
D03*
X3055974D02*
D03*
X3030574D02*
D03*
X1092600Y116115D02*
D03*
Y53885D02*
D03*
X1143400D02*
D03*
X1118000D02*
D03*
X1143400Y116115D02*
D03*
X1118000D02*
D03*
D102*
X797107Y269499D02*
D03*
Y244099D02*
D03*
Y218699D02*
D03*
Y193299D02*
D03*
Y167899D02*
D03*
Y142499D02*
D03*
X734877Y269499D02*
D03*
Y244099D02*
D03*
Y218699D02*
D03*
Y193299D02*
D03*
Y167899D02*
D03*
Y142499D02*
D03*
X233115Y103000D02*
D03*
Y77600D02*
D03*
X170885Y103000D02*
D03*
Y77600D02*
D03*
X2464562Y1158466D02*
D03*
Y1133066D02*
D03*
X2402332Y1158466D02*
D03*
Y1133066D02*
D03*
X1960626Y1158212D02*
D03*
Y1132812D02*
D03*
Y1107412D02*
D03*
Y1082012D02*
D03*
Y1056612D02*
D03*
X1898396Y1158212D02*
D03*
Y1132812D02*
D03*
Y1107412D02*
D03*
Y1082012D02*
D03*
Y1056612D02*
D03*
X92230Y306200D02*
D03*
Y280800D02*
D03*
Y255400D02*
D03*
Y230000D02*
D03*
Y204600D02*
D03*
Y179200D02*
D03*
Y153800D02*
D03*
Y128400D02*
D03*
Y103000D02*
D03*
Y77600D02*
D03*
X30000Y306200D02*
D03*
Y280800D02*
D03*
Y255400D02*
D03*
Y230000D02*
D03*
Y204600D02*
D03*
Y179200D02*
D03*
Y153800D02*
D03*
Y128400D02*
D03*
Y103000D02*
D03*
Y77600D02*
D03*
D103*
X1359534Y96030D02*
D03*
X1334134Y132830D02*
D03*
X1308734Y96030D02*
D03*
X1283334Y132830D02*
D03*
X1619056Y96030D02*
D03*
X1593656Y132830D02*
D03*
X1568256Y96030D02*
D03*
X1542856Y132830D02*
D03*
D104*
X2097800Y428000D02*
D03*
X2063800D02*
D03*
X2097800Y436000D02*
D03*
X2063800D02*
D03*
X2097800Y444000D02*
D03*
X2063800D02*
D03*
X2097800Y452000D02*
D03*
X2063800D02*
D03*
X2097800Y460000D02*
D03*
X2063800D02*
D03*
X2097800Y468000D02*
D03*
X2063800D02*
D03*
X2097800Y476000D02*
D03*
X2063800D02*
D03*
X2097800Y484000D02*
D03*
X2063800D02*
D03*
X2097800Y492000D02*
D03*
X2063800D02*
D03*
X2097800Y500000D02*
D03*
X2063800D02*
D03*
X2097800Y508000D02*
D03*
X2063800D02*
D03*
X2097800Y516000D02*
D03*
X2063800D02*
D03*
X2097800Y524000D02*
D03*
X2063800D02*
D03*
X2097800Y532000D02*
D03*
X2063800D02*
D03*
X2097800Y540000D02*
D03*
X2063800D02*
D03*
X2097800Y548000D02*
D03*
X2063800D02*
D03*
X2097800Y556000D02*
D03*
X2063800D02*
D03*
X2097800Y564000D02*
D03*
X2063800D02*
D03*
X2097800Y572000D02*
D03*
X2063800D02*
D03*
X2097800Y580000D02*
D03*
X2063800D02*
D03*
X2097800Y588000D02*
D03*
X2063800D02*
D03*
X2097800Y596000D02*
D03*
X2063800D02*
D03*
X2097800Y604000D02*
D03*
X2063800D02*
D03*
X2097800Y644000D02*
D03*
X2063800D02*
D03*
X2097800Y652000D02*
D03*
X2063800D02*
D03*
X2097800Y660000D02*
D03*
X2063800D02*
D03*
X2097800Y668000D02*
D03*
X2063800D02*
D03*
X2097800Y676000D02*
D03*
X2063800D02*
D03*
X2097800Y684000D02*
D03*
X2063800D02*
D03*
X2097800Y692000D02*
D03*
X2063800D02*
D03*
X2097800Y700000D02*
D03*
X2063800D02*
D03*
X2097800Y708000D02*
D03*
X2063800D02*
D03*
X2097800Y716000D02*
D03*
X2063800D02*
D03*
X2097800Y724000D02*
D03*
X2063800D02*
D03*
X2097800Y732000D02*
D03*
X2063800D02*
D03*
X2097800Y740000D02*
D03*
X2063800D02*
D03*
X2097800Y748000D02*
D03*
X2063800D02*
D03*
X2097800Y756000D02*
D03*
X2063800D02*
D03*
X2097800Y764000D02*
D03*
X2063800D02*
D03*
X2097800Y772000D02*
D03*
X2063800D02*
D03*
X2097800Y780000D02*
D03*
X2063800D02*
D03*
X2097800Y788000D02*
D03*
X2063800D02*
D03*
X2097800Y796000D02*
D03*
X2063800D02*
D03*
X2097800Y804000D02*
D03*
X2063800D02*
D03*
X2097800Y812000D02*
D03*
X2063800D02*
D03*
X2097800Y820000D02*
D03*
X2063800D02*
D03*
X2097800Y828000D02*
D03*
X2063800D02*
D03*
X2097800Y836000D02*
D03*
X2063800D02*
D03*
X2097800Y844000D02*
D03*
X2063800D02*
D03*
X2097800Y852000D02*
D03*
X2063800D02*
D03*
X1759000Y812000D02*
D03*
X1793000D02*
D03*
X1759000Y804000D02*
D03*
X1793000D02*
D03*
X1759000Y796000D02*
D03*
X1793000D02*
D03*
X1759000Y788000D02*
D03*
X1793000D02*
D03*
X1759000Y780000D02*
D03*
X1793000D02*
D03*
X1759000Y772000D02*
D03*
X1793000D02*
D03*
X1759000Y764000D02*
D03*
X1793000D02*
D03*
X1759000Y756000D02*
D03*
X1793000D02*
D03*
X1759000Y748000D02*
D03*
X1793000D02*
D03*
X1759000Y740000D02*
D03*
X1793000D02*
D03*
X1759000Y732000D02*
D03*
X1793000D02*
D03*
X1759000Y724000D02*
D03*
X1793000D02*
D03*
X1759000Y716000D02*
D03*
X1793000D02*
D03*
X1759000Y708000D02*
D03*
X1793000D02*
D03*
X1759000Y700000D02*
D03*
X1793000D02*
D03*
X1759000Y692000D02*
D03*
X1793000D02*
D03*
X1759000Y684000D02*
D03*
X1793000D02*
D03*
X1759000Y676000D02*
D03*
X1793000D02*
D03*
X1759000Y668000D02*
D03*
X1793000D02*
D03*
X1759000Y660000D02*
D03*
X1793000D02*
D03*
X1759000Y652000D02*
D03*
X1793000D02*
D03*
X1759000Y644000D02*
D03*
X1793000D02*
D03*
X1759000Y604000D02*
D03*
X1793000D02*
D03*
X1759000Y596000D02*
D03*
X1793000D02*
D03*
X1759000Y588000D02*
D03*
X1793000D02*
D03*
X1759000Y580000D02*
D03*
X1793000D02*
D03*
X1759000Y572000D02*
D03*
X1793000D02*
D03*
X1759000Y564000D02*
D03*
X1793000D02*
D03*
X1759000Y556000D02*
D03*
X1793000D02*
D03*
X1759000Y548000D02*
D03*
X1793000D02*
D03*
X1759000Y540000D02*
D03*
X1793000D02*
D03*
X1759000Y532000D02*
D03*
X1793000D02*
D03*
X1759000Y524000D02*
D03*
X1793000D02*
D03*
X1759000Y516000D02*
D03*
X1793000D02*
D03*
X1759000Y508000D02*
D03*
X1793000D02*
D03*
X1759000Y500000D02*
D03*
X1793000D02*
D03*
X1759000Y492000D02*
D03*
X1793000D02*
D03*
X1759000Y484000D02*
D03*
X1793000D02*
D03*
X1759000Y476000D02*
D03*
X1793000D02*
D03*
X1759000Y468000D02*
D03*
X1793000D02*
D03*
X3317000Y428000D02*
D03*
X3283000D02*
D03*
X3317000Y436000D02*
D03*
X3283000D02*
D03*
X3317000Y444000D02*
D03*
X3283000D02*
D03*
X3317000Y452000D02*
D03*
X3283000D02*
D03*
X3317000Y460000D02*
D03*
X3283000D02*
D03*
X3317000Y468000D02*
D03*
X3283000D02*
D03*
X3317000Y476000D02*
D03*
X3283000D02*
D03*
X3317000Y484000D02*
D03*
X3283000D02*
D03*
X3317000Y492000D02*
D03*
X3283000D02*
D03*
X3317000Y500000D02*
D03*
X3283000D02*
D03*
X3317000Y508000D02*
D03*
X3283000D02*
D03*
X3317000Y516000D02*
D03*
X3283000D02*
D03*
X3317000Y524000D02*
D03*
X3283000D02*
D03*
X3317000Y532000D02*
D03*
X3283000D02*
D03*
X3317000Y540000D02*
D03*
X3283000D02*
D03*
X3317000Y548000D02*
D03*
X3283000D02*
D03*
X3317000Y556000D02*
D03*
X3283000D02*
D03*
X3317000Y564000D02*
D03*
X3283000D02*
D03*
X3317000Y572000D02*
D03*
X3283000D02*
D03*
X3317000Y580000D02*
D03*
X3283000D02*
D03*
X3317000Y588000D02*
D03*
X3283000D02*
D03*
X3317000Y596000D02*
D03*
X3283000D02*
D03*
X3317000Y604000D02*
D03*
X3283000D02*
D03*
X3317000Y644000D02*
D03*
X3283000D02*
D03*
X3317000Y652000D02*
D03*
X3283000D02*
D03*
X3317000Y660000D02*
D03*
X3283000D02*
D03*
X3317000Y668000D02*
D03*
X3283000D02*
D03*
X3317000Y676000D02*
D03*
X3283000D02*
D03*
X3317000Y684000D02*
D03*
X3283000D02*
D03*
X3317000Y692000D02*
D03*
X3283000D02*
D03*
X3317000Y700000D02*
D03*
X3283000D02*
D03*
X3317000Y708000D02*
D03*
X3283000D02*
D03*
X3317000Y716000D02*
D03*
X3283000D02*
D03*
X3317000Y724000D02*
D03*
X3283000D02*
D03*
X3317000Y732000D02*
D03*
X3283000D02*
D03*
X3317000Y740000D02*
D03*
X3283000D02*
D03*
X3317000Y748000D02*
D03*
X3283000D02*
D03*
X3317000Y756000D02*
D03*
X3283000D02*
D03*
X3317000Y764000D02*
D03*
X3283000D02*
D03*
X3317000Y772000D02*
D03*
X3283000D02*
D03*
X3317000Y780000D02*
D03*
X3283000D02*
D03*
X3317000Y788000D02*
D03*
X3283000D02*
D03*
X3317000Y796000D02*
D03*
X3283000D02*
D03*
X3317000Y804000D02*
D03*
X3283000D02*
D03*
X3317000Y812000D02*
D03*
X3283000D02*
D03*
X3317000Y820000D02*
D03*
X3283000D02*
D03*
X3317000Y828000D02*
D03*
X3283000D02*
D03*
X3317000Y836000D02*
D03*
X3283000D02*
D03*
X3317000Y844000D02*
D03*
X3283000D02*
D03*
X3317000Y852000D02*
D03*
X3283000D02*
D03*
X3012200Y428000D02*
D03*
X2978200D02*
D03*
X3012200Y436000D02*
D03*
X2978200D02*
D03*
X3012200Y444000D02*
D03*
X2978200D02*
D03*
X3012200Y452000D02*
D03*
X2978200D02*
D03*
X3012200Y460000D02*
D03*
X2978200D02*
D03*
X3012200Y468000D02*
D03*
X2978200D02*
D03*
X3012200Y476000D02*
D03*
X2978200D02*
D03*
X3012200Y484000D02*
D03*
X2978200D02*
D03*
X3012200Y492000D02*
D03*
X2978200D02*
D03*
X3012200Y500000D02*
D03*
X2978200D02*
D03*
X3012200Y508000D02*
D03*
X2978200D02*
D03*
X3012200Y516000D02*
D03*
X2978200D02*
D03*
X3012200Y524000D02*
D03*
X2978200D02*
D03*
X3012200Y532000D02*
D03*
X2978200D02*
D03*
X3012200Y540000D02*
D03*
X2978200D02*
D03*
X3012200Y548000D02*
D03*
X2978200D02*
D03*
X3012200Y556000D02*
D03*
X2978200D02*
D03*
X3012200Y564000D02*
D03*
X2978200D02*
D03*
X3012200Y572000D02*
D03*
X2978200D02*
D03*
X3012200Y580000D02*
D03*
X2978200D02*
D03*
X3012200Y588000D02*
D03*
X2978200D02*
D03*
X3012200Y596000D02*
D03*
X2978200D02*
D03*
X3012200Y604000D02*
D03*
X2978200D02*
D03*
X3012200Y644000D02*
D03*
X2978200D02*
D03*
X3012200Y652000D02*
D03*
X2978200D02*
D03*
X3012200Y660000D02*
D03*
X2978200D02*
D03*
X3012200Y668000D02*
D03*
X2978200D02*
D03*
X3012200Y676000D02*
D03*
X2978200D02*
D03*
X3012200Y684000D02*
D03*
X2978200D02*
D03*
X3012200Y692000D02*
D03*
X2978200D02*
D03*
X3012200Y700000D02*
D03*
X2978200D02*
D03*
X3012200Y708000D02*
D03*
X2978200D02*
D03*
X3012200Y716000D02*
D03*
X2978200D02*
D03*
X3012200Y724000D02*
D03*
X2978200D02*
D03*
X3012200Y732000D02*
D03*
X2978200D02*
D03*
X3012200Y740000D02*
D03*
X2978200D02*
D03*
X3012200Y748000D02*
D03*
X2978200D02*
D03*
X3012200Y756000D02*
D03*
X2978200D02*
D03*
X3012200Y764000D02*
D03*
X2978200D02*
D03*
X3012200Y772000D02*
D03*
X2978200D02*
D03*
X3012200Y780000D02*
D03*
X2978200D02*
D03*
X3012200Y788000D02*
D03*
X2978200D02*
D03*
X3012200Y796000D02*
D03*
X2978200D02*
D03*
X3012200Y804000D02*
D03*
X2978200D02*
D03*
X3012200Y812000D02*
D03*
X2978200D02*
D03*
X3012200Y820000D02*
D03*
X2978200D02*
D03*
X3012200Y828000D02*
D03*
X2978200D02*
D03*
X3012200Y836000D02*
D03*
X2978200D02*
D03*
X3012200Y844000D02*
D03*
X2978200D02*
D03*
X3012200Y852000D02*
D03*
X2978200D02*
D03*
X2707400Y428000D02*
D03*
X2673400D02*
D03*
X2707400Y436000D02*
D03*
X2673400D02*
D03*
X2707400Y444000D02*
D03*
X2673400D02*
D03*
X2707400Y452000D02*
D03*
X2673400D02*
D03*
X2707400Y460000D02*
D03*
X2673400D02*
D03*
X2707400Y468000D02*
D03*
X2673400D02*
D03*
X2707400Y476000D02*
D03*
X2673400D02*
D03*
X2707400Y484000D02*
D03*
X2673400D02*
D03*
X2707400Y492000D02*
D03*
X2673400D02*
D03*
X2707400Y500000D02*
D03*
X2673400D02*
D03*
X2707400Y508000D02*
D03*
X2673400D02*
D03*
X2707400Y516000D02*
D03*
X2673400D02*
D03*
X2707400Y524000D02*
D03*
X2673400D02*
D03*
X2707400Y532000D02*
D03*
X2673400D02*
D03*
X2707400Y540000D02*
D03*
X2673400D02*
D03*
X2707400Y548000D02*
D03*
X2673400D02*
D03*
X2707400Y556000D02*
D03*
X2673400D02*
D03*
X2707400Y564000D02*
D03*
X2673400D02*
D03*
X2707400Y572000D02*
D03*
X2673400D02*
D03*
X2707400Y580000D02*
D03*
X2673400D02*
D03*
X2707400Y588000D02*
D03*
X2673400D02*
D03*
X2707400Y596000D02*
D03*
X2673400D02*
D03*
X2707400Y604000D02*
D03*
X2673400D02*
D03*
X2707400Y644000D02*
D03*
X2673400D02*
D03*
X2707400Y652000D02*
D03*
X2673400D02*
D03*
X2707400Y660000D02*
D03*
X2673400D02*
D03*
X2707400Y668000D02*
D03*
X2673400D02*
D03*
X2707400Y676000D02*
D03*
X2673400D02*
D03*
X2707400Y684000D02*
D03*
X2673400D02*
D03*
X2707400Y692000D02*
D03*
X2673400D02*
D03*
X2707400Y700000D02*
D03*
X2673400D02*
D03*
X2707400Y708000D02*
D03*
X2673400D02*
D03*
X2707400Y716000D02*
D03*
X2673400D02*
D03*
X2707400Y724000D02*
D03*
X2673400D02*
D03*
X2707400Y732000D02*
D03*
X2673400D02*
D03*
X2707400Y740000D02*
D03*
X2673400D02*
D03*
X2707400Y748000D02*
D03*
X2673400D02*
D03*
X2707400Y756000D02*
D03*
X2673400D02*
D03*
X2707400Y764000D02*
D03*
X2673400D02*
D03*
X2707400Y772000D02*
D03*
X2673400D02*
D03*
X2707400Y780000D02*
D03*
X2673400D02*
D03*
X2707400Y788000D02*
D03*
X2673400D02*
D03*
X2707400Y796000D02*
D03*
X2673400D02*
D03*
X2707400Y804000D02*
D03*
X2673400D02*
D03*
X2707400Y812000D02*
D03*
X2673400D02*
D03*
X2707400Y820000D02*
D03*
X2673400D02*
D03*
X2707400Y828000D02*
D03*
X2673400D02*
D03*
X2707400Y836000D02*
D03*
X2673400D02*
D03*
X2707400Y844000D02*
D03*
X2673400D02*
D03*
X2707400Y852000D02*
D03*
X2673400D02*
D03*
X2402600Y428000D02*
D03*
X2368600D02*
D03*
X2402600Y436000D02*
D03*
X2368600D02*
D03*
X2402600Y444000D02*
D03*
X2368600D02*
D03*
X2402600Y452000D02*
D03*
X2368600D02*
D03*
X2402600Y460000D02*
D03*
X2368600D02*
D03*
X2402600Y468000D02*
D03*
X2368600D02*
D03*
X2402600Y476000D02*
D03*
X2368600D02*
D03*
X2402600Y484000D02*
D03*
X2368600D02*
D03*
X2402600Y492000D02*
D03*
X2368600D02*
D03*
X2402600Y500000D02*
D03*
X2368600D02*
D03*
X2402600Y508000D02*
D03*
X2368600D02*
D03*
X2402600Y516000D02*
D03*
X2368600D02*
D03*
X2402600Y524000D02*
D03*
X2368600D02*
D03*
X2402600Y532000D02*
D03*
X2368600D02*
D03*
X2402600Y540000D02*
D03*
X2368600D02*
D03*
X2402600Y548000D02*
D03*
X2368600D02*
D03*
X2402600Y556000D02*
D03*
X2368600D02*
D03*
X2402600Y564000D02*
D03*
X2368600D02*
D03*
X2402600Y572000D02*
D03*
X2368600D02*
D03*
X2402600Y580000D02*
D03*
X2368600D02*
D03*
X2402600Y588000D02*
D03*
X2368600D02*
D03*
X2402600Y596000D02*
D03*
X2368600D02*
D03*
X2402600Y604000D02*
D03*
X2368600D02*
D03*
X2402600Y644000D02*
D03*
X2368600D02*
D03*
X2402600Y652000D02*
D03*
X2368600D02*
D03*
X2402600Y660000D02*
D03*
X2368600D02*
D03*
X2402600Y668000D02*
D03*
X2368600D02*
D03*
X2402600Y676000D02*
D03*
X2368600D02*
D03*
X2402600Y684000D02*
D03*
X2368600D02*
D03*
X2402600Y692000D02*
D03*
X2368600D02*
D03*
X2402600Y700000D02*
D03*
X2368600D02*
D03*
X2402600Y708000D02*
D03*
X2368600D02*
D03*
X2402600Y716000D02*
D03*
X2368600D02*
D03*
X2402600Y724000D02*
D03*
X2368600D02*
D03*
X2402600Y732000D02*
D03*
X2368600D02*
D03*
X2402600Y740000D02*
D03*
X2368600D02*
D03*
X2402600Y748000D02*
D03*
X2368600D02*
D03*
X2402600Y756000D02*
D03*
X2368600D02*
D03*
X2402600Y764000D02*
D03*
X2368600D02*
D03*
X2402600Y772000D02*
D03*
X2368600D02*
D03*
X2402600Y780000D02*
D03*
X2368600D02*
D03*
X2402600Y788000D02*
D03*
X2368600D02*
D03*
X2402600Y796000D02*
D03*
X2368600D02*
D03*
X2402600Y804000D02*
D03*
X2368600D02*
D03*
X2402600Y812000D02*
D03*
X2368600D02*
D03*
X2402600Y820000D02*
D03*
X2368600D02*
D03*
X2402600Y828000D02*
D03*
X2368600D02*
D03*
X2402600Y836000D02*
D03*
X2368600D02*
D03*
X2402600Y844000D02*
D03*
X2368600D02*
D03*
X2402600Y852000D02*
D03*
X2368600D02*
D03*
X1149400Y812000D02*
D03*
X1183400D02*
D03*
X1149400Y804000D02*
D03*
X1183400D02*
D03*
X1149400Y796000D02*
D03*
X1183400D02*
D03*
X1149400Y788000D02*
D03*
X1183400D02*
D03*
X1149400Y780000D02*
D03*
X1183400D02*
D03*
X1149400Y772000D02*
D03*
X1183400D02*
D03*
X1149400Y764000D02*
D03*
X1183400D02*
D03*
X1149400Y756000D02*
D03*
X1183400D02*
D03*
X1149400Y748000D02*
D03*
X1183400D02*
D03*
X1149400Y740000D02*
D03*
X1183400D02*
D03*
X1149400Y732000D02*
D03*
X1183400D02*
D03*
X1149400Y724000D02*
D03*
X1183400D02*
D03*
X1149400Y716000D02*
D03*
X1183400D02*
D03*
X1149400Y708000D02*
D03*
X1183400D02*
D03*
X1149400Y700000D02*
D03*
X1183400D02*
D03*
X1149400Y692000D02*
D03*
X1183400D02*
D03*
X1149400Y684000D02*
D03*
X1183400D02*
D03*
X1149400Y676000D02*
D03*
X1183400D02*
D03*
X1149400Y668000D02*
D03*
X1183400D02*
D03*
X1149400Y660000D02*
D03*
X1183400D02*
D03*
X1149400Y652000D02*
D03*
X1183400D02*
D03*
X1149400Y644000D02*
D03*
X1183400D02*
D03*
X1149400Y604000D02*
D03*
X1183400D02*
D03*
X1149400Y596000D02*
D03*
X1183400D02*
D03*
X1149400Y588000D02*
D03*
X1183400D02*
D03*
X1149400Y580000D02*
D03*
X1183400D02*
D03*
X1149400Y572000D02*
D03*
X1183400D02*
D03*
X1149400Y564000D02*
D03*
X1183400D02*
D03*
X1149400Y556000D02*
D03*
X1183400D02*
D03*
X1149400Y548000D02*
D03*
X1183400D02*
D03*
X1149400Y540000D02*
D03*
X1183400D02*
D03*
X1149400Y532000D02*
D03*
X1183400D02*
D03*
X1149400Y524000D02*
D03*
X1183400D02*
D03*
X1149400Y516000D02*
D03*
X1183400D02*
D03*
X1149400Y508000D02*
D03*
X1183400D02*
D03*
X1149400Y500000D02*
D03*
X1183400D02*
D03*
X1149400Y492000D02*
D03*
X1183400D02*
D03*
X1149400Y484000D02*
D03*
X1183400D02*
D03*
X1149400Y476000D02*
D03*
X1183400D02*
D03*
X1149400Y468000D02*
D03*
X1183400D02*
D03*
X1454200Y812000D02*
D03*
X1488200D02*
D03*
X1454200Y804000D02*
D03*
X1488200D02*
D03*
X1454200Y796000D02*
D03*
X1488200D02*
D03*
X1454200Y788000D02*
D03*
X1488200D02*
D03*
X1454200Y780000D02*
D03*
X1488200D02*
D03*
X1454200Y772000D02*
D03*
X1488200D02*
D03*
X1454200Y764000D02*
D03*
X1488200D02*
D03*
X1454200Y756000D02*
D03*
X1488200D02*
D03*
X1454200Y748000D02*
D03*
X1488200D02*
D03*
X1454200Y740000D02*
D03*
X1488200D02*
D03*
X1454200Y732000D02*
D03*
X1488200D02*
D03*
X1454200Y724000D02*
D03*
X1488200D02*
D03*
X1454200Y716000D02*
D03*
X1488200D02*
D03*
X1454200Y708000D02*
D03*
X1488200D02*
D03*
X1454200Y700000D02*
D03*
X1488200D02*
D03*
X1454200Y692000D02*
D03*
X1488200D02*
D03*
X1454200Y684000D02*
D03*
X1488200D02*
D03*
X1454200Y676000D02*
D03*
X1488200D02*
D03*
X1454200Y668000D02*
D03*
X1488200D02*
D03*
X1454200Y660000D02*
D03*
X1488200D02*
D03*
X1454200Y652000D02*
D03*
X1488200D02*
D03*
X1454200Y644000D02*
D03*
X1488200D02*
D03*
X1454200Y604000D02*
D03*
X1488200D02*
D03*
X1454200Y596000D02*
D03*
X1488200D02*
D03*
X1454200Y588000D02*
D03*
X1488200D02*
D03*
X1454200Y580000D02*
D03*
X1488200D02*
D03*
X1454200Y572000D02*
D03*
X1488200D02*
D03*
X1454200Y564000D02*
D03*
X1488200D02*
D03*
X1454200Y556000D02*
D03*
X1488200D02*
D03*
X1454200Y548000D02*
D03*
X1488200D02*
D03*
X1454200Y540000D02*
D03*
X1488200D02*
D03*
X1454200Y532000D02*
D03*
X1488200D02*
D03*
X1454200Y524000D02*
D03*
X1488200D02*
D03*
X1454200Y516000D02*
D03*
X1488200D02*
D03*
X1454200Y508000D02*
D03*
X1488200D02*
D03*
X1454200Y500000D02*
D03*
X1488200D02*
D03*
X1454200Y492000D02*
D03*
X1488200D02*
D03*
X1454200Y484000D02*
D03*
X1488200D02*
D03*
X1454200Y476000D02*
D03*
X1488200D02*
D03*
X1454200Y468000D02*
D03*
X1488200D02*
D03*
D105*
X2806824Y164688D02*
D03*
X493858Y144968D02*
D03*
D106*
X2870323Y177387D02*
D03*
X557357Y157667D02*
D03*
D107*
X928220Y871860D02*
D03*
X244220Y427860D02*
D03*
D108*
X206996Y1033790D02*
D03*
Y1059190D02*
D03*
Y1084590D02*
D03*
Y1109990D02*
D03*
Y1135390D02*
D03*
X232396Y1046490D02*
D03*
Y1071890D02*
D03*
Y1097290D02*
D03*
Y1122690D02*
D03*
X166056Y604666D02*
D03*
X140656D02*
D03*
X115256D02*
D03*
X89856D02*
D03*
X64456D02*
D03*
X153356Y630066D02*
D03*
X127956D02*
D03*
X102556D02*
D03*
X77156D02*
D03*
D109*
X232396Y1148090D02*
D03*
D110*
X38896Y1049990D02*
D03*
Y1131890D02*
D03*
Y1024590D02*
D03*
Y1157290D02*
D03*
X149856Y436566D02*
D03*
X67956D02*
D03*
X175256D02*
D03*
X42556D02*
D03*
D111*
X118896Y1012190D02*
D03*
Y1169690D02*
D03*
X187656Y516566D02*
D03*
X30156D02*
D03*
D112*
X79996Y1148090D02*
D03*
Y1033790D02*
D03*
X51756Y477666D02*
D03*
X166056D02*
D03*
D113*
X657700Y1080000D02*
D03*
X529400Y1090000D02*
D03*
X657948Y1210480D02*
D03*
X529648Y1220480D02*
D03*
D114*
X51756Y630066D02*
D03*
D115*
X252000Y1255000D02*
D03*
X861600D02*
D03*
X1420400Y1255000D02*
D03*
X2080800Y1255000D02*
D03*
X2690400D02*
D03*
X3300000D02*
D03*
Y25000D02*
D03*
X2690400D02*
D03*
X2080800D02*
D03*
X1471200D02*
D03*
X861600D02*
D03*
X404400Y25000D02*
D03*
M02*
