M48
;Layer_Color=9474304
;FILE_FORMAT=2:5
INCH,TZ
;TYPE=PLATED
T01F00S00C0.03504
T02F00S00C0.03937
T03F00S00C0.04016
T04F00S00C0.05315
T05F00S00C0.06417
T06F00S00C0.11417
T07F00S00C0.12598
;TYPE=NON_PLATED
T08F00S00C0.05000
T09F00S00C0.12598
%
T01
X25376Y238057
X35376
X45376
X55376
X50376Y248058
X40376
X30376
X20376
X60376
X65376Y238057
X81495Y407004
Y417004
Y427004
Y437004
Y447004
X91495Y452004
Y442004
Y432004
Y422004
Y412004
T02
X1150049Y59838
X1160048
X1170049
X1180048
Y69837
X1170049
X1160048
X1150049
X1140049
Y59838
X1130048
Y69837
T03
X58999Y171876
X68998
X26754
X16754
X15314Y403382
Y413382
Y445626
Y455626
T04
X258937Y425197
X259034Y476567
X208523Y480504
X208425Y429134
T05
X73880Y203373
X11873
X46810Y398500
Y460508
T06
X159213Y9843
X339213Y9843
X579213
X819213
X1059213
X1299213
Y494094
X1059213
X819213
X559213Y494095
X339213Y494094
X99213
T07
X1105049Y64838
X96150Y168449
X365441Y343252
T08
X15984Y52965
X212047Y52965
X1179213Y162598
X1299213Y162598
X1059213Y162598
X939213
X699213Y178347
X579213
X390787Y58871
X163228Y58871
X573307Y325591
X693307
X933307Y341339
X1053307
X1173307
X1293307Y341339
T09
X65376Y188057
X20376
X31495Y407004
Y452004
M30
