M48
;Layer_Color=9474304
;FILE_FORMAT=2:5
INCH,TZ
;TYPE=PLATED
T01F00S00C0.00787
T02F00S00C0.01181
T03F00S00C0.04016
T04F00S00C0.05512
T05F00S00C0.11417
T06F00S00C0.12598
;TYPE=NON_PLATED
T07F00S00C0.03937
T08F00S00C0.05000
T09F00S00C0.05118
%
T01
X3937Y3937
X7874
X3937Y7874
X5906Y23622
Y31496
X9843Y27559
X13780Y23622
X31890Y7874
Y3937
X35827
X38425Y42429
X126614Y38886
X129764Y34949
X132913Y52665
X136063
Y54831
X139213
Y52665
X142362
X164409
X178799Y55118
X182736Y55512
X184705
X186673
X188642
X199272
X201240
X203209Y55610
X205192Y55569
X210504Y35283
X212080Y33709
X151575Y35187
Y37155
X216017Y35283
X217592Y33709
X222776Y33707
X225532
X228287
X226909Y35282
X224154
X221398Y35282
X221299Y55421
X223858
X226417
X229764Y54043
X231339Y55421
X238186
X240158Y53454
X257874Y54134
X263386
X264764Y55709
X262008
X270276
X273031
X275787
X278543
X281299
X279921Y54134
X277165
X274410
X271654
X284095Y52665
X306732Y54528
X308701
X328189Y54634
X330945
X329567Y56209
X332323
X335866
X338622
X337244Y54634
X334488
X330709Y39370
X338920Y37706
X341772Y39675
Y41643
X344624Y36722
X351220Y32195
Y30226
X348368Y28258
X354073Y27273
X360669Y22746
Y20777
X357817Y18809
X363521Y17824
X360236Y9843
X367266Y9360
X344488Y13780
X350394Y19685
X334646Y23622
X340551Y29528
X324803Y33465
X218740Y55421
X377276Y53488
X407874Y38386
X410236Y37205
X411417Y34843
X414173
X447933Y46063
X450295
X450787Y50591
X448819Y52559
X389764Y9843
X387795
X385827
X372970Y8376
X370118Y11328
Y13297
X740354Y35039
X743898
X742126Y37402
X740354Y39764
X743898
X756190Y39543
X758159Y41118
X760521
X762883
X765245
X767608
X769970
X772332
X750678Y47417
X729164Y47374
X864173Y20405
X868110
X872047
X886378
X890315
X894252
Y2886
X890315
X886378
X872047
X868110
X864173
X984173
X988110
X992047
Y20405
X988110
X984173
X1006378
X1010315
X1014252
Y2886
X1010315
X1006378
X1104173
X1108110
X1112047
X1126378
X1130315
X1134252
Y20405
X1130315
X1126378
X1112047
X1108110
X1104173
X1306378Y160236
X1309527
X1311102Y158661
X1307953
X1312677Y160236
X1315827
X1318976
X1317402Y158661
X1314214Y158611
X1326457Y156299
X1328032Y154724
X1324882Y192126
X1323307Y190551
X1320551Y197638
Y203543
X1325669Y211811
X1341024Y212205
X1341024Y208661
Y196063
Y192913
Y189764
X1312677
X1309921Y184252
X1288661
X1288661Y193701
X1287036Y192482
X1288268Y206299
X1299685Y208661
X1301260Y210236
X1266614Y205906
X1264252
X1260315Y209449
X1269370Y192913
X1221024Y192913
Y196063
Y189764
X1204882Y192126
X1203307Y190551
X1200551Y197638
Y203543
X1205669Y211811
X1221024Y212205
X1221024Y208661
X1181260Y210236
X1179685Y208661
X1168268Y206299
X1168661Y193701
X1167036Y192482
X1168661Y184252
X1189921
X1192677Y189764
Y160236
X1195827
X1198976
X1197402Y158661
X1194214Y158611
X1191102Y158661
X1189528Y160236
X1187953Y158661
X1186378Y160236
X1169055
X1170630Y158661
X1206457Y156299
X1208031Y154724
X1289055Y160236
X1290630Y158661
X1149370Y192913
X1146614Y205906
X1144252
X1140315Y209449
X1101024Y208661
X1101024Y212205
X1085669Y211811
X1080551Y203543
Y197638
X1084882Y192126
X1083307Y190551
X1072677Y189764
X1069921Y184252
X1048661
X1048661Y193701
X1047036Y192482
X1048268Y206299
X1059685Y208661
X1061260Y210236
X1026614Y205906
X1024252
X1020315Y209449
X1029370Y192913
X1049055Y160236
X1050630Y158661
X1066378Y160236
X1069528
X1071102Y158661
X1067953
X1072677Y160236
X1075827
X1078976
X1077402Y158661
X1074214Y158611
X1086457Y156299
X1088031Y154724
X1101024Y189764
Y192913
Y196063
X1104173Y110433
X1108110
X1112047
X1126378Y114075
X1130315
X1134252Y118012
Y86910
X1130315
X1126378
X1112047
X1108110
X1104173
X1014252
X1010315
X1006378
Y114075
X1010315
X1014252Y123228
X992047Y114075
X988110
X984173
X968032Y116929
X966457Y118504
X932992Y114173
X929055
X923228Y125984
X930630Y158661
X946378Y160236
X949527
X951102Y158661
X947953
X952677Y160236
X954214Y158611
X958976Y160236
X949921Y184252
X952677Y189764
X963307Y190551
X964882Y192126
X960551Y197638
Y203543
X965669Y211811
X981024Y212205
X981024Y208661
Y196063
Y192913
Y189764
X928661Y193701
X927036Y192482
X928661Y184252
X928268Y206299
X939685Y208661
X941260Y210236
X906614Y205906
X904252
X900315Y209449
X909370Y192913
X861024
Y196063
Y189764
X844882Y192126
X843307Y190551
X840551Y197638
Y203543
X845669Y211811
X861024Y212205
X861024Y208661
X838976Y160236
X846457Y118504
X848032Y116929
X864173Y114075
X868110
X872047
X886378
X890315
X894252
Y86910
X890315
X886378
X872047
X868110
X864173
X984173
X988110
X992047
X812992Y114173
X809055
X779528Y125984
X787496Y174709
X788932Y173273
X790369Y171836
X791805Y170399
X789370Y192913
X786614Y205906
X784252
X780315Y209449
X808268Y206299
X808661Y193701
X807036Y192482
X808661Y184252
X829921
X832677Y189764
X829921Y206299
X819685Y208661
X821260Y210236
X826378Y160236
X827953Y158661
X829528Y160236
X831102Y158661
X832677Y160236
X835827
X837402Y158661
X834214Y158611
X810630Y158661
X718504Y179134
X721654Y185827
X713632Y192126
X711664
X701968Y190551
Y200000
X707400Y178004
X706630Y174418
X690787Y177165
X755905Y80709
X757874Y78740
X759842Y76772
X765748Y68898
Y64961
X763779Y66929
X781496
X783465Y64961
Y68898
X631890Y66929
X627953Y64961
X625984Y62992
X622047Y62205
X583410Y66929
X585378Y68898
X586221Y164665
X576378Y169291
X570787Y177165
X559842Y179134
X556299Y180315
X532677Y177165
X590551Y179134
X597638
X601673
X605709
X601653Y185827
X593632Y192126
X591664
X581968Y190551
Y200000
X676378Y179528
X513779Y177165
X496850Y179528
X482677Y177559
X480315
X481653Y185827
X473632Y192126
X471664
X461969Y190551
Y200000
X470472Y179134
X450787Y177165
X466004Y135236
X467382Y133661
X466004Y132087
X475197Y133465
X476693Y131693
X498425Y133071
X500000Y134646
X508661Y133465
X511319Y128937
Y126181
X512893Y127559
Y130315
X513779Y124016
X498425Y123228
X456693Y68307
X442520Y71850
X440551Y73819
Y76575
X435827Y77756
X433465
X408661Y73032
Y70669
X402362Y68701
X402756Y73819
X397638Y74016
X405512Y80118
X407480Y62953
X377276Y57354
X400000Y119291
X401575Y117913
X380315Y211024
X378268
X376220
X374173
X353543
X347547Y201716
X345500
X346457Y197780
X345500Y189906
X347547
X338189Y188583
X334646
X331890
X333268Y190157
X336024
X334449Y193110
X335315Y211024
X333268
X319291Y211391
X295669Y211417
Y208661
Y205906
Y203150
Y200394
X295669Y197638
X294094Y199016
Y201772
Y204527
Y207283
Y210039
X299606Y201772
Y199016
X301181Y200394
Y203150
Y197638
X298315Y175693
X296740Y174315
X295165Y175693
X303630Y174803
X307567
X307764Y164173
X305008
X302252
X299496
X296740
X298118Y162598
X300874
X303630
X306386
X309142
X311898
X314653
X317409
X320165
X322921
X325677
X328433
X331189
X329811Y164173
X327055
X324299
X321543
X318787
X316032
X313276
X310520
X253433Y175398
X247528
X244772Y177366
X243394Y178941
X241622Y175398
X238866Y177366
X237488Y178941
X235717Y175398
X233748Y185122
X221937
X216032
X218000Y175398
X223905
X247287Y184252
X248512Y185827
X246063
X251969Y184449
X253543Y185827
X229075Y112598
X226516Y113976
X223760Y109843
X221201Y111221
X218445Y109843
X215886Y111221
X243543Y75067
X246299
X249055
X247677Y73492
X244921
X255354Y70657
X249606Y56890
X229764Y56799
X287244Y58177
X318740
X321890
X328740Y66339
X332677Y70276
X336614Y74213
X323758Y74278
X320905Y77782
Y79750
X318053Y81719
X330354Y87231
Y89199
X327502Y91168
X333206Y85262
X355849Y94711
X358701Y96679
Y98648
X355849Y100617
X365298Y104160
X368150Y106128
Y108097
X365298Y110065
X277264Y92323
X274508
X275886Y90748
X278642
X273130
X204547Y108268
X209232Y117659
X211201
X183269
X181300
X168603
X166635
X153937
X151969
X153039Y167917
X134476Y180063
X131720Y180063
X130343Y181638
X133098Y181638
X134280Y185772
Y188528
X132508Y187150
X129998Y188779
X127492Y188976
X125539Y189906
X124358Y196402
X122784Y195024
Y197780
X127508Y200929
Y203685
X129083Y202307
X132508Y202504
Y199748
X134083Y201126
X134083Y196598
Y193842
X132508Y195220
X131720Y205654
X129476
X132508Y209000
X134083Y210378
Y207622
X124358Y210181
X122784Y211559
Y208803
X128768Y183016
X130343Y184394
X114173Y166339
X112205Y164961
X118110Y151575
X120079Y149606
X122047Y147638
X124803
X123425Y146063
X126181
X115157Y142913
X112795Y144095
X104287Y151181
X82677Y209567
X80709Y207598
X69882Y201772
X67126
X64370
X61614
X60236Y200197
X62992
X65748
X68504
X63189Y196457
Y193701
X61614Y195079
Y192323
X152116Y202756
X154084
X171260Y207234
Y209202
X170756Y196098
X172724
X198300Y192200
X204221Y185122
X210126
X212094Y175398
X206189
X204547Y66742
X205177Y59449
X203209
X201240
X199272
X200059Y57480
X202028
X203996
X187461
X185492
X183524
X182736Y59449
X184705
X186673
X188642
X188583Y74803
X183917Y74803
X177618
X194941
X164409Y58177
X145512
X136063
X107717
X98268
X82520
X73071
X61811Y80629
X46850Y80235
X41339Y94015
X35020Y89310
X27953Y91652
X27165Y82597
X5118Y95500
X2394Y100374
Y104311
Y108248
Y112185
X14961Y116909
X14567Y119272
X8661Y134626
X12992Y144488
X5512Y147618
X20472Y151161
X22441Y149193
X24409Y151161
X26378Y153130
X28752Y155886
X31496Y154705
X35039Y154704
X40100Y151339
X46005Y148583
X46063Y154331
X51968Y142106
Y133839
X34252Y163760
X12598Y166929
X16142Y155512
X19291Y201575
Y203937
Y206299
X29213Y206496
Y208858
Y222047
Y224410
X19291
Y222047
X14961Y236614
Y240945
Y250394
Y252756
X14961Y255118
X21654Y256988
X21142Y250394
X31890Y249606
X34803Y250394
X37559
X40315
X43071
X41693Y251969
X38937
X36181
X33425
X47205
X49961
X52716
X55472Y251969
Y254898
X51339Y253543
X48583
X44498Y248390
X48622Y240158
X47244Y238583
X52756Y241732
X55512
X54134Y243307
X53425Y221063
X50079Y222638
X48307Y272835
X55905Y274409
X53150Y283465
Y288189
X54724Y286811
X50000Y292520
X50394Y280709
X33661Y291339
X30906
X32283Y292913
X26772
X25591Y294882
X27953
X20866
X20866Y291929
X19291Y289370
X22441
X19764Y278150
X20811Y276181
X14961Y274410
Y272047
X20810Y266339
X19764Y264370
X25787Y304134
X40787
X42756Y306102
X33563Y347835
X17933Y347835
Y350394
Y352953
X19685Y344094
X17717Y342519
X15748Y340945
X13780Y342520
X5906Y363386
X3937Y362205
Y364961
X38189Y362992
X39764Y361614
X5512Y320079
X3937Y318504
X59449Y318898
X62992Y320866
X66473Y318898
X68504Y320276
X72835Y318898
X74410Y320276
X71260Y294882
X68898
X64961Y293307
Y290551
Y287795
Y285039
Y282283
X63386Y283661
Y286417
Y289173
Y291929
X66535Y279528
X78543Y281496
X81299
X82677Y283071
X79921
X77165
X84842Y279921
X86024Y271654
X83465
X71653Y266929
X63307Y268504
X59055Y271654
X59646Y243307
X56890
X58268Y241732
X65748Y235827
X73228Y236024
Y238779
X74803Y237402
Y240158
Y234646
Y231890
Y229134
Y226378
X73228Y227756
Y230512
Y233268
Y225000
X75276Y222638
X78031
X80787
X79409Y221063
X76653
X71142
X69764Y222638
X82165Y221063
X90433
X91811Y219488
X89055
X96063Y222638
Y226575
X99472Y224606
X100394Y238779
X97638
X95276
X96339Y247638
X105905Y246260
X107480Y247638
X114433Y253910
Y256666
X116008Y255288
Y258044
X116400Y260800
X112597Y261587
X109841
X107085
X105707Y260012
X108463
X111219
X108268Y273622
X114370Y274158
X116500Y274500
X122732Y274945
X132480Y276913
X131102Y278488
X133858
X132480Y288331
X131102Y289906
X128346
X125591
X126969Y288331
X124213
X116400Y290300
X107480Y291339
X105905Y289961
X111024Y284252
X110236Y300142
X112992
X115748
X114370Y301716
X111614
X108858
X115784Y304079
X123256Y304669
X126012
X128768
X127390Y303095
X130146
X124634
X127193Y316283
X129949
X132705
X134083Y317858
X131327
X128571
X125815
X122200Y319900
Y327700
X124516Y328346
X134646Y325590
X140300Y327700
X141500Y329700
X139370Y337008
X133858Y338583
X136221Y344882
X137795Y343307
X160913Y344882
X162882
X161898Y348228
X158945Y347734
X158945Y336303
X160236Y332677
X158858Y331102
X162882Y326579
X162882Y315949
X164850Y313386
X166819
X166535Y308021
Y306053
X169882Y307037
X168504Y303295
X166535Y300541
Y298572
X164567Y296009
X151378Y291535
X150394Y288583
X140400Y290300
Y304100
Y319800
X176661Y318000
X178630
X177646Y314653
X174693Y315148
X182567Y314063
X184535
X183551Y310717
X180598Y311211
X186504
X189457Y314653
X192409Y315148
X190441Y318000
X188472
X195207Y290254
X197176Y287402
X199144
X195207Y284549
X205959Y292424
X207927Y295276
X209896
X209202Y346457
X211171
X210187Y349864
X207234Y351277
X204281Y351772
X205265Y348425
X203297
X207382Y364524
X210729Y363540
Y365508
X208760Y368510
X172835Y362992
X166535Y357087
X126378
X125984Y361024
Y362992
Y364961
Y366929
X124016Y365748
Y363779
Y361811
X122047Y361024
Y362992
Y364961
Y366929
X106693Y367717
X76378Y364567
X74347Y363189
X70866Y365158
X67323Y367126
X84842Y299488
X86417Y298110
Y300866
X93307Y301575
X92421Y295551
X90433Y294291
X95551Y294882
X94764Y260433
X76772Y252362
X73504
X61417Y231496
X127508Y231244
Y228488
X129083Y229866
X132508Y230063
Y227307
X134083Y228685
X134083Y224158
Y221402
X132508Y222779
X131720Y219433
X129476
X129083Y216087
X127508Y217465
Y214709
X132508Y213528
Y216283
X134083Y214906
X124358Y223961
X122784Y225339
Y222583
X122000Y239100
X122100Y245100
X128740Y249748
X132283Y248764
Y251520
X133858Y250142
X130905Y255260
X128150
X125394
X126772Y256835
X129527
X132283
X141000Y260000
X148819Y254724
X159449Y251969
X165354
Y246063
Y240158
X159449Y246063
Y257874
X165354
X176661Y250000
X178630
X147835Y239118
X145079
X143701Y237543
X146457
X140400Y239100
Y245000
X128228Y239695
X128347Y237109
Y235140
X129476Y233213
X131720
X158908Y216535
X160876
X153543Y275590
X149917Y276602
X147400Y276502
X216711Y292424
X218679Y295276
X220648
X223500Y293307
X227463Y300297
X229431Y303150
X231400
X234252Y301181
X242299Y307874
Y310630
Y313386
X243874Y312008
Y309252
Y306496
X245559Y313386
Y316142
Y318898
X247134Y317520
Y314764
X251819Y313587
X258268Y311417
X261400Y312100
X261700Y325200
X264260Y325929
Y328685
Y331441
Y334197
Y336953
X265835Y335575
Y332819
Y330063
Y327307
X266800Y325300
X273500
X268701Y334800
X259055Y334646
X251181
X253727Y331727
X249016Y348425
Y351575
Y353740
Y355906
Y358071
Y360236
Y362402
Y364567
X228346Y353246
X226377Y350394
X224408
X221013Y351277
X222441Y353246
X219045Y348425
X217076
X213140Y349309
X215108Y351277
X233748Y336303
X231780Y326579
X216813Y298199
X294094Y308661
X294700Y325000
X296700
X298700
X300700
X292700
X290800
X285300Y318800
X277100Y337900
X284252Y346457
X294800Y343400
X296800
X298700Y337900
X300700
X326772Y325772
Y323724
X328400Y321800
X326772Y319866
Y317819
X328400Y316000
X326772Y313961
Y311913
X328200Y310000
X326772Y308055
Y306008
X328000Y304100
X326772Y302150
Y300102
X328200Y298200
X326772Y296244
Y294197
Y290338
Y288291
Y284433
Y282386
Y278527
Y276480
X326800Y268600
X330300Y269510
Y271557
X338976Y272440
X345276Y272480
Y270433
X346600Y268600
X346700Y262700
X345276Y260669
X345239Y258622
X346600Y256800
X346800Y250900
X345276Y248858
X345275Y246811
X345276Y242953
Y240905
X346100Y237139
Y235061
X339600Y233200
X339300Y239100
X332677Y243307
X331102Y241732
X327000Y239100
X327953Y237008
Y234961
X331890Y231102
X333465Y229528
X334567Y227165
X336614
X331378Y226378
X329331
X326800Y227300
X328346Y218110
X330709Y218110
X330118Y214567
X332165
X336339Y214961
X338386
X345276Y217284
Y219331
X346000Y223700
X350590Y224016
X352638
X349488Y227953
X347441
X356693Y212992
X320843Y217291
X319685Y222441
X317638
X317323Y224803
X315823Y226303
X316732Y220472
X314685
X295669Y219685
Y216929
Y214173
X294094Y212795
Y215551
Y218307
Y221063
Y223819
Y226575
Y229331
Y232087
Y234842
Y237598
Y240354
Y243110
Y245866
Y248622
Y251378
Y254134
Y256890
Y259646
Y262402
X295669Y263779
Y261024
Y258268
Y255512
Y252756
Y250000
Y247244
Y244488
Y241732
Y238976
Y236221
Y233465
Y230709
Y227953
Y225197
Y222441
X318898Y241047
Y243094
X326900Y245000
X327559Y251575
X328740Y253937
X331102
X326800Y256900
X313184Y255200
X311129Y254700
X311197Y258764
Y260811
X314531Y251800
Y249753
X308835Y276480
Y278527
X329500Y290100
X338500Y292100
Y286500
X345276Y288150
Y290197
Y294055
Y296102
Y300000
Y302047
X345276Y306008
Y308055
X345276Y311772
Y313819
X336600Y310100
X338500Y304100
Y298200
X346368Y284016
X345276Y282244
Y278386
Y276339
X348900Y264000
X351000Y263800
X334300Y317900
X332900Y319900
X335500Y323700
X333600Y325700
X287400Y367500
X415000Y365000
X420000
Y360000
X425000Y365000
X438976Y326772
X433321Y298282
X431850Y296811
X431102Y292913
X432676Y291338
X424900Y286811
Y284764
X427953Y280337
Y278290
X448200Y276400
X449000Y288200
X458900Y288572
Y290620
X458500Y293400
X456400Y293100
X460654Y286102
Y284055
X461800Y276400
X461024Y272441
X457087
X478346Y273346
Y275394
X480709Y277284
Y279331
X479752Y282952
X481200Y284400
X469400Y288300
X469587Y224213
X473622
X477658
X433800Y228200
X430100
X397835Y227953
X395079
X393701Y226378
X396457
X379500Y225839
Y223760
X379400Y221721
X379500Y228079
X387795Y265748
X390551
X389173Y267323
X391929
X551575Y276890
Y278937
Y283976
Y286024
Y290276
Y292323
Y296575
Y298622
Y302874
Y304921
X551811Y326772
X553780
X555748Y326870
X557732Y326829
X556535Y328740
X554567
X552598
X551811Y330709
X553780
X555748
X557717
X541181
X539213
X537244
X535276
X536063Y328740
X538032
X540000
X539213Y326772
X541181
X537244
X535276
X531339Y326378
X536457Y346063
X541969
Y351575
X547480Y346063
X611181
X616693
X621024Y330709
X622992
X624961
X626929
X625748Y328740
X623780
X621811
X621024Y326772
X622992
X624961Y326870
X626944Y326829
X610394Y326772
X608425
X606457
X604488
X605276Y328740
X607244
X609213
X608425Y330709
X610394
X606457
X604488
X600551Y326378
X600787Y301772
Y299724
Y295472
Y293425
Y289173
Y287126
Y282087
Y280039
Y275394
Y273346
X589400Y278800
X590200Y290200
X568000
X568900Y278700
X567717Y272441
X576772
X581496
X590453Y224213
X594488
X598524
X666516
X670551
X711024
X714173Y256811
Y258858
X709449Y263504
Y265551
X709100Y269300
X709449Y273031
Y275079
X709400Y278700
X709449Y282480
Y284528
X709400Y288200
X709449Y291929
Y293976
X688976Y293898
Y291850
X687000Y290400
X688976Y284528
Y282480
X687000Y280800
X688976Y275079
Y273031
X688200Y270800
X688976Y265630
Y263583
X689000Y259600
X685039Y259331
Y257283
X701968Y259842
X770472Y258661
X771457Y256299
X773753
X776050
X778346
X768898Y256693
X772441Y271643
X772446Y273675
X772441Y276378
Y278740
Y281102
X779921Y287402
Y294882
Y298031
X779920Y301574
X779921Y305118
X809055Y307087
Y300787
X807480Y291339
X808268Y289370
X803543Y288583
X802756Y286614
X798819
X799606Y288583
X800787Y275590
X802362Y277165
X805512
X807087Y275590
X803937
X808661Y277165
X809055Y269291
Y262992
Y256693
X801181Y260630
X799213Y259842
X797244Y260630
X795276Y259842
Y251969
X797244Y252756
X799213Y251969
X801181Y252756
Y267717
X799213Y268504
X797244Y267717
X795276Y268504
X816929Y276772
X819291
X821653
Y274410
X829528Y275590
X831890Y275197
X835039
X836614Y276772
X833465
X829528Y269291
Y262992
Y256693
Y237795
Y231496
X829557Y226987
X831102Y225590
X832283Y214173
X821260Y215748
X819685Y217323
X808661Y215748
X806693Y216929
X804724Y215748
X802756Y216929
X800787Y215748
X798819Y216929
X797244Y214567
X780315Y215748
Y212598
Y218898
X780000Y227559
X781968Y228740
X772003Y229547
X772397Y227185
X794882Y237402
X797244
X799606
X801968
X809055Y237795
Y231496
X816142Y288189
X816200Y294500
X829921Y294488
Y288189
X829500Y300900
X829100Y307200
X746944Y326829
X744961Y326870
X742992Y326772
X741024
X741811Y328740
X743780
X745748
X744961Y330709
X746929
X742992
X741024
X730394
X728425
X726457
X724488
X725276Y328740
X727244
X729213
X728425Y326772
X730394
X726457
X724488
X720551Y326378
X731181Y346063
X736693
X781496Y364961
X851181Y367323
X856693
X861024Y346457
X862992
X864961
X866929
X865748Y344488
X863780
X861811
X861024Y342520
X862992
X864961Y342618
X866944Y342577
X850394Y342520
X848425
X846457
X844488
X845276Y344488
X847244
X849213
X848425Y346457
X846457
X844488
X850394
X840551Y342126
X860630Y304724
Y301575
Y298425
Y295276
X855118Y277165
Y274803
X855512Y272441
X857087Y270472
X867323Y263386
Y259842
Y257480
Y255118
X870079Y261614
X871653Y260236
X861024Y249606
Y247575
Y245543
Y243512
X846457Y242520
Y245669
X844882Y247244
Y244094
Y238779
X846457Y237402
X844882Y234646
X846063Y230378
Y228346
X840158
X844488Y214173
X861024Y215551
Y218110
X900315Y218898
Y215748
Y212598
X900000Y227559
X901968Y228740
X891575Y231102
X891969Y233465
X888189Y252362
X889764Y253937
X891457Y256299
X893753
X896050
X898347
X915276Y259842
X917244Y260630
X919213Y259842
X921181Y260630
X921181Y267717
X919213Y268504
X917244Y267717
X915276Y268504
X920787Y275590
X922362Y277165
X925512
X927087Y275590
X923937
X928661Y277165
X929055Y269291
Y262992
Y256693
X921181Y252756
X919213Y251969
X917244Y252756
X915276Y251969
X914882Y237402
X917244
X919606
X921968
X929055Y237795
Y231496
X928661Y215748
X926693Y216929
X924724Y215748
X922756Y216929
X920787Y215748
X918819Y216929
X939685Y217323
X941260Y215748
X949557Y226987
X951102Y225590
X949527Y231496
Y237795
X964882Y238779
X966457Y237402
X964882Y234646
X966063Y230378
Y228346
X960157
X964488Y214173
X981024Y215551
Y218110
X981024Y243512
Y245543
Y247575
Y249606
X987323Y255118
Y257480
Y259842
Y263386
X990079Y261614
X991654Y260236
X977087Y270472
X975512Y272441
X975118Y274803
Y277165
X959764Y276772
X958189Y275197
X955039
X953465Y276772
X956614
X951890Y275197
X949527Y275590
Y269291
Y262992
Y256693
X964882Y247244
Y244094
X966457Y242520
Y245669
X941654Y274410
Y276772
X939291
X936929
X936142Y288189
X936200Y294500
X927480Y291339
X928268Y289370
X923543Y288583
X922756Y286614
X918819
X919606Y288583
X899921Y287402
Y294882
Y298031
X899920Y301574
X899921Y305118
X929055Y307087
Y300787
X949500Y300900
X949100Y307200
X949921Y294488
Y288189
X980630Y295276
Y298425
Y301575
Y304724
X981024Y342520
X982992
X984961Y342618
X986944Y342577
X985748Y344488
X983780
X981811
X981024Y346457
X982992
X984961
X986929
X970394
X968425
X966457
X964488
X965276Y344488
X967244
X969213
X968425Y342520
X970394
X966457
X964488
X960551Y342126
X971181Y367323
X976693
X901496Y364961
X892441Y281102
Y278740
Y276378
X892446Y273675
X892441Y271643
X839764Y276772
X838189Y275197
X1012441Y276378
Y278740
Y281102
X1012446Y273675
X1012441Y271643
X1011457Y256299
X1013753
X1016050
X1018347
X1009764Y253937
X1008189Y252362
X1011969Y233465
X1011575Y231102
X1020000Y227559
X1021968Y228740
X1020315Y218898
Y215748
Y212598
X1038819Y216929
X1040787Y215748
X1042756Y216929
X1044724Y215748
X1046693Y216929
X1048661Y215748
X1061260
X1059685Y217323
X1069557Y226987
X1071102Y225590
X1069528Y231496
Y237795
X1084882Y238779
X1086457Y237402
X1084882Y234646
X1086063Y230378
Y228346
X1080157
X1084488Y214173
X1101024Y215551
Y218110
X1101024Y243512
Y245543
Y247575
Y249606
X1107323Y255118
Y257480
Y259842
Y263386
X1110079Y261614
X1111654Y260236
X1131457Y256299
X1133753
X1136050
X1138346
X1129764Y253937
X1128189Y252362
X1131968Y233465
X1131575Y231102
X1140000Y227559
X1141969Y228740
X1140315Y218898
Y215748
Y212598
X1132441Y271643
X1132446Y273675
X1132441Y276378
Y278740
Y281102
X1139921Y287402
Y294882
Y298031
X1139920Y301574
X1139921Y305118
X1100630Y304724
Y301575
Y298425
Y295276
X1095118Y277165
Y274803
X1095512Y272441
X1097087Y270472
X1078189Y275197
X1079764Y276772
X1076614
X1073465
X1075039Y275197
X1071890
X1069528Y275590
Y269291
Y262992
Y256693
X1049055
Y262992
Y269291
X1048661Y277165
X1047087Y275590
X1045512Y277165
X1043937Y275590
X1040787
X1042362Y277165
X1042756Y286614
X1043543Y288583
X1039606
X1038819Y286614
X1048268Y289370
X1047480Y291339
X1049055Y300787
Y307087
X1056200Y294500
X1056142Y288189
X1056929Y276772
X1059291
X1061654
Y274410
X1069921Y288189
Y294488
X1069500Y300900
X1069100Y307200
X1080551Y342126
X1084488Y342520
X1086457
X1088425
X1090394
X1089213Y344488
X1087244
X1085276
X1084488Y346457
X1086457
X1088425
X1090394
X1101024
X1102992
X1104961
X1106929
X1105748Y344488
X1103780
X1101811
X1101024Y342520
X1102992
X1104961Y342618
X1106944Y342577
X1096693Y367323
X1091181
X1141496Y364961
X1021496
X1019921Y305118
X1019920Y301574
X1019921Y298031
Y294882
Y287402
X1035276Y268504
X1037244Y267717
X1039213Y268504
X1041181Y267717
X1041181Y260630
X1039213Y259842
X1037244Y260630
X1035276Y259842
Y251969
X1037244Y252756
X1039213Y251969
X1041181Y252756
X1041969Y237402
X1039606
X1037244
X1034882
X1049055Y237795
Y231496
X1086457Y242520
X1084882Y244094
X1086457Y245669
X1084882Y247244
X1155276Y251969
X1157244Y252756
X1159213Y251969
X1161181Y252756
X1161181Y260630
X1159213Y259842
X1157244Y260630
X1155276Y259842
Y268504
X1157244Y267717
X1159213Y268504
X1161181Y267717
X1160787Y275590
X1162362Y277165
X1165512
X1167087Y275590
X1163937
X1168661Y277165
X1169055Y269291
Y262992
Y256693
Y237795
Y231496
X1161969Y237402
X1159606
X1157244
X1154882
X1158819Y216929
X1160787Y215748
X1162756Y216929
X1164724Y215748
X1166693Y216929
X1168661Y215748
X1181260
X1179685Y217323
X1189557Y226987
X1191102Y225590
X1189528Y231496
Y237795
X1204882Y238779
X1206457Y237402
X1204882Y234646
X1206063Y230378
Y228346
X1200158
X1204488Y214173
X1221024Y215551
Y218110
X1221024Y243512
Y245543
Y247575
Y249606
X1227323Y255118
Y257480
Y259842
Y263386
X1230079Y261614
X1231653Y260236
X1251457Y256299
X1253753
X1256050
X1258346
X1249764Y253937
X1248189Y252362
X1251968Y233465
X1251575Y231102
X1260000Y227559
X1261969Y228740
X1260315Y218898
Y215748
Y212598
X1278819Y216929
X1280787Y215748
X1282756Y216929
X1284724Y215748
X1286693Y216929
X1288661Y215748
X1301260
X1299685Y217323
X1289055Y231496
Y237795
X1281968Y237402
X1279606
X1277244
X1274882
X1275276Y251969
X1277244Y252756
X1279213Y251969
X1281181Y252756
X1281181Y260630
X1279213Y259842
X1277244Y260630
X1275276Y259842
Y268504
X1277244Y267717
X1279213Y268504
X1281181Y267717
X1280787Y275590
X1282362Y277165
X1285512
X1287087Y275590
X1283937
X1288661Y277165
X1289055Y269291
Y262992
Y256693
X1296929Y276772
X1299291
X1301653
Y274409
X1296142Y288189
X1296200Y294500
X1287480Y291339
X1288268Y289370
X1283543Y288583
X1282756Y286614
X1278819
X1279606Y288583
X1259921Y287402
Y294882
Y298031
X1259920Y301574
X1259921Y305118
X1267714Y312598
X1269291Y311024
X1272438Y311023
X1270866Y312598
X1274013Y312598
X1275588Y311023
X1278738
X1277165Y312598
X1280312Y312598
X1289055Y307087
Y300787
X1252441Y281102
Y278740
Y276378
X1252446Y273675
X1252441Y271643
X1217087Y270472
X1215512Y272441
X1215118Y274803
Y277165
X1199764Y276772
X1198189Y275197
X1195039
X1193465Y276772
X1196614
X1191890Y275197
X1189528Y275590
Y269291
Y262992
Y256693
X1204882Y247244
Y244094
X1206457Y242520
Y245669
X1181653Y274410
Y276772
X1179291
X1176929
X1176142Y288189
X1176200Y294500
X1167480Y291339
X1168268Y289370
X1163543Y288583
X1162756Y286614
X1158819
X1159606Y288583
X1169055Y300787
Y307087
X1189100Y307200
X1189500Y300900
X1189921Y294488
Y288189
X1220630Y295276
Y298425
Y301575
Y304724
X1221024Y342520
X1222992
X1224961Y342618
X1226944Y342577
X1225748Y344488
X1223779
X1221811
X1221024Y346457
X1222992
X1224961
X1226929
X1210394
X1208425
X1206457
X1204488
X1205276Y344488
X1207244
X1209213
X1208425Y342520
X1210394
X1206457
X1204488
X1200551Y342126
X1211181Y367323
X1216693
X1261496Y364961
X1331181Y367323
X1336693
X1341024Y346457
X1342992
X1344961
X1346929
X1345748Y344488
X1343779
X1341811
X1341024Y342520
X1342992
X1344961Y342618
X1346944Y342577
X1330394Y342520
X1328425
X1326457
X1324488
X1325276Y344488
X1327244
X1329213
X1328425Y346457
X1330394
X1326457
X1324488
X1320551Y342126
X1309100Y307200
X1309500Y300900
X1309921Y294488
Y288189
X1309527Y275590
X1311890Y275197
X1318189
X1319764Y276772
X1335118Y277165
Y274803
X1335512Y272441
X1337087Y270472
X1347323Y263386
Y259842
Y257480
Y255118
X1350079Y261614
X1351653Y260236
X1341024Y249606
Y247575
Y245543
Y243512
X1326457Y242520
X1324882Y244094
X1326457Y245669
X1324882Y247244
Y238779
X1326457Y237402
X1324882Y234646
X1326063Y230378
Y228346
X1320158
X1311102Y225590
X1309557Y226987
X1309527Y231496
Y237795
Y256693
Y262992
Y269291
X1340630Y295276
Y298425
Y301575
Y304724
X1341024Y218110
Y215551
X1324488Y214173
X1261102Y372047
Y374803
X1259528Y376181
Y373425
X1150873Y413473
X1141102Y376181
Y373425
X1139528Y372047
X1139528Y374803
Y377559
X1021102Y378937
Y376181
Y373425
X1019528Y372047
X1019528Y374803
Y377559
X1021653Y415354
X1028740Y414173
X1031496
X1030118Y412205
X903543Y399606
X897638
X891732
X885827
X899527Y380315
Y377559
Y374803
X899527Y372047
X901102Y373425
Y376181
Y378937
X842520Y383858
X781102Y381693
Y378937
Y376181
Y373425
X779528Y372047
X779528Y374803
Y377559
Y380315
X755601Y424956
X749073Y464263
Y466626
Y468988
X712697Y437075
X710335
X707972
X705610
X703248
X700886
X698524
X696555Y435500
X684262Y435721
X682491Y433358
X684262Y430996
X691043Y443374
X680719Y435721
Y430996
X669529Y443331
X653150Y408661
X552390Y406646
Y396375
Y386046
X532218Y418665
X530249Y420634
X528281Y422602
X527602Y458256
X525240
X529965
X531933Y459831
X544226Y459610
X547769
X545997Y461972
X547769Y464334
X544226
X537445Y451957
X558959Y452000
X590866Y468307
X522878Y458256
X520516
X518153
X515791
X522375Y434413
X524344Y432445
X522375Y430476
X504659
Y434413
X506627Y432445
X499453Y409449
X501968Y394488
X505134Y387030
X450787Y375984
Y374016
X425000Y370000
X420000
Y375000
X415000
Y370000
X410000
X409449Y377953
X403150Y375984
X389000Y373280
X369291Y374410
X384252Y416024
X379921Y436339
Y439488
Y442913
X377953Y444882
X400823Y448614
X341595Y433598
X334322Y425878
X330779
X332551Y423516
X334322Y421154
X330779
X319539Y433658
X310110Y450681
X287402Y416953
X283465Y405256
Y403224
X278150Y393307
X275394
X276772Y391732
X279528
X270126
X272047Y394094
X266236
X264315Y391732
X258472
X260032Y394094
X254189
X252386Y391732
X246417
X248220Y394094
X242252
X240449Y391732
X234614
X236283Y394094
X230449
X228614Y391732
X227559Y401362
Y407283
X232677Y413779
X235433
X238189Y415354
X248031
X251575Y413386
X257087Y409449
X255457Y421547
X260492Y429488
X265492
X270492
X269685Y412205
X291339Y393701
X302362Y373622
X319980Y373721
X334646Y374016
X351673Y373721
X245669Y431102
X241339
X240158Y485433
X242913
X247638Y480315
X257874Y485433
X259842
X273228
X275984
X226772
X224803
X214567Y480315
X184087Y465748
X182055
X165748Y439764
Y437402
X157087
Y439764
X135433Y440551
X133858Y442126
X128345Y436614
X129920Y435039
X136063Y400079
Y396732
Y394567
X139213
Y396732
X142362Y394567
X145512Y400079
X132913Y394567
X125927Y383480
X125886Y381496
X125984Y379528
Y377559
X124016Y378346
Y380315
Y382283
X122047Y381496
Y383465
Y379528
Y377559
X106693Y373228
X107790Y396633
X109822Y398011
X107717Y400079
X98268
X82520
X73071
X57461Y440256
X164409Y400079
Y394567
X161024Y374016
X181890Y374557
Y372588
X181102Y369528
X179921Y377559
X195374Y377559
X197342Y374557
Y372588
X195374Y369586
X26772Y389764
X16732Y411614
X12795Y412598
X8858
X5906Y414567
X4528Y416535
X3937Y419291
Y421457
Y423622
Y427362
X5906Y430315
X8858Y432283
X14764Y433268
Y435827
X25295Y440256
X27559Y431102
Y425394
X24606
X30020Y448917
X15748Y452756
X15846Y459449
X28189Y483957
X32520
X39016
Y481988
X45512Y483957
X49843
X54173
X52736Y448917
X29528Y497244
Y499606
X11811
Y497244
X9913Y491339
X5585Y494882
X5583Y487795
X4724Y408661
X4331Y405905
T02
X201634Y42913
X205177
X255748Y44398
X265197
X274646
X287244Y53059
X287638Y55602
X312441Y55996
Y53059
X315591
X315197Y55602
X318347
X318740Y53059
X321890
X321496Y55602
X325039Y55421
X325433Y53059
X246299Y30067
X398425Y29331
X401575
X400000Y26969
X403150
X397638Y37598
X393701Y38780
Y42717
X389764Y40748
Y44685
X417126Y34055
X426181Y34843
X446850Y38780
X450787
X448819Y40748
X447244Y55905
X692285Y48693
X696222
X700159
X698190Y45543
X694253
X692285Y42000
X696222
X700159
X702521Y45543
X713619Y55212
X717163Y53638
X720706Y55606
Y51669
X723856Y53638
X727005Y52063
Y55606
X746690
Y51669
Y47417
X742690Y20043
X735801
X728911
X722021
X795276Y14961
X799213
X797244Y11811
X799213Y8661
X795276
X876063Y33102
X879213
X881968
X936063
X939213
X941969
X996063
X999213
X1001968
X1116063
X1119213
X1121968
X1309900Y171700
X1310315Y187402
Y196850
X1312677Y207480
X1284331Y208268
X1271339Y206299
X1288268Y196850
Y187795
X1288500Y171700
X1189900Y171700
X1190315Y187402
Y196850
X1192677Y207480
X1164331Y208268
X1151339Y206299
X1168268Y196850
Y187795
X1168500Y171700
X1069900
X1070315Y187402
Y196850
X1072677Y207480
X1044331Y208268
X1031339Y206299
X1048268Y196850
Y187795
X1048500Y171700
X1001968Y59055
X999213
X996063
X881968
X879213
X876063
X928500Y171700
X928268Y187795
Y196850
X924331Y208268
X911339Y206299
X952677Y207480
X950315Y196850
Y187402
X949900Y171700
X829900
X830315Y187402
Y196850
X832677Y207480
X804331Y208268
X791339Y206299
X808268Y196850
Y187795
X808500Y171700
X799213Y171653
X786221Y181102
X780709Y186614
X775591Y191339
X746690Y59543
X727005
X723856Y57575
X720621Y59228
X717163Y57575
X713619Y59149
X720706Y64267
X705850Y75088
X486969Y85433
Y94488
X479193Y96457
X449193
X441693Y94488
Y85433
X437992Y79724
X429921Y76575
X449606Y75000
Y78937
X447244Y65748
X456693Y56496
X460630
X458661Y58465
X398268Y59252
X396063Y78150
X391338Y80079
X403937Y98425
X406417Y96339
X411417
X416417
X421417Y95866
X433917Y96457
X431496Y118110
X438917
X444193
X451693
X479193Y132087
X483012
X396850Y119291
X430000Y185500
X305598Y175197
X301661
X240158Y183071
X238189Y185039
X240722Y207687
X243949Y210914
X326220Y57784
X66142Y97244
Y100394
X63858Y98819
X61575Y97244
Y100394
X57874Y107461
X64173Y129508
X58661Y141713
X135658Y175732
X138413
X128346Y191874
X31496Y183858
Y180709
X29213Y182283
X26929Y180709
Y183858
X28346Y151161
X34252
X33209Y134646
X28484
Y129921
X33209
Y125197
X28484
X37933
Y129921
Y134646
X52756Y138169
X53150Y131476
X55512Y129508
X51181Y147638
X42520Y111004
X40945Y106280
X52756Y103130
X30315Y99193
X22441Y102342
X27953Y111003
X7874Y123602
X11811Y135807
X11811Y138957
X50866Y325197
Y328346
X53150Y326772
X55433Y325197
Y328346
Y352756
Y355906
X53150Y354331
X50866Y352756
Y355906
X115748Y333563
X115200Y325800
X114961Y321654
X122736Y331594
X134153
X140945Y333661
X134252Y321795
X159500Y327969
X162598Y368504
X166535Y275984
X168898Y274016
Y277953
X171260Y275984
X76772Y258661
X85039Y247638
X320370Y233465
X338653Y244953
X330260Y262740
X333858Y275590
X331666Y279921
X300886Y286417
X300984Y289469
X302756Y312992
X302658Y315945
X301279Y318701
X304134
X304626Y343996
X308563Y343996
X306594Y346457
X302559Y346358
X290846Y337303
X286910Y337205
X288878Y334941
X292815
X448976Y319685
Y316535
X448976Y310236
X448976Y307087
Y303937
Y300787
X448976Y297638
X456063
X456063Y300787
Y303937
Y307087
X456063Y310236
X456063Y316535
Y319685
X462362
Y316535
Y310236
X462362Y307087
X462362Y303937
X462362Y300787
X462362Y297638
X469449
X469449Y300787
X469449Y303937
X469449Y307087
X469449Y310236
Y316535
Y319685
X554173Y314173
X557717
X568976Y316535
Y319685
X576063
Y316535
X576063Y310236
X576063Y307087
Y303937
Y300787
X576063Y297638
X582363
X582362Y300787
X582363Y303937
X582362Y307087
X582362Y310236
Y316535
Y319685
X589449
Y316535
Y310236
X589449Y307087
X589449Y303937
X589449Y300787
X589449Y297638
X568976
X568976Y300787
Y303937
Y307087
X568976Y310236
X623386Y314173
X626929
X688976Y316535
Y319685
X696063
Y316535
X696063Y310236
X696063Y307087
Y303937
Y300787
X696063Y297638
X702362
X702362Y300787
X702362Y303937
X702362Y307087
X702362Y310236
Y316535
Y319685
X709449
Y316535
Y310236
X709449Y307087
X709449Y303937
X709449Y300787
X709449Y297638
X688976
X688976Y300787
Y303937
Y307087
X688976Y310236
X743386Y314173
X746929
X778422Y283146
X791732Y290945
X808976Y313386
X808976Y316535
Y319685
Y322835
X808976Y325984
X808976Y332283
Y335433
X816063
Y332283
X816063Y325984
X816063Y322835
Y319685
Y316535
X816063Y313386
X822363
X822362Y316535
X822363Y319685
X822362Y322835
X822362Y325984
Y332283
Y335433
X829449
Y332283
Y325984
X829449Y322835
X829449Y319685
X829449Y316535
X829449Y313386
X836614Y319685
Y322835
Y325984
X834252Y296850
X769616Y227884
X866929Y230709
Y237008
X867323Y267323
Y285039
X850000Y291339
X846063
X839842Y319685
Y322835
Y325984
X863386Y329921
X866929
X928976Y332283
Y335433
X936063
Y332283
X936063Y325984
X936063Y322835
Y319685
Y316535
X936063Y313386
X942362
X942362Y316535
X942362Y319685
X942362Y322835
X942362Y325984
Y332283
Y335433
X949449
Y332283
Y325984
X949449Y322835
X949449Y319685
X949449Y316535
X949449Y313386
X928976
X928976Y316535
Y319685
Y322835
X928976Y325984
X911732Y290945
X898422Y283146
X889616Y227884
X986929Y230709
Y237008
X987323Y267323
Y285039
X970000Y291339
X966063
X954252Y296850
X983386Y329921
X986929
X1048976Y332283
Y335433
X1056063
Y332283
X1056063Y325984
X1056063Y322835
Y319685
Y316535
X1056063Y313386
X1062362
X1062362Y316535
X1062362Y319685
X1062362Y322835
X1062362Y325984
Y332283
Y335433
X1069449
Y332283
Y325984
X1069449Y322835
X1069449Y319685
X1069449Y316535
X1069449Y313386
X1048976
X1048976Y316535
Y319685
Y322835
X1048976Y325984
X1031732Y290945
X1018422Y283146
X1009616Y227884
X1106929Y230709
Y237008
X1107323Y267323
Y285039
X1090000Y291339
X1086063
X1074252Y296850
X1103386Y329921
X1106929
X1138422Y283146
X1129616Y227884
X1151732Y290945
X1168976Y313386
X1168976Y316535
Y319685
Y322835
X1168976Y325984
X1168976Y332283
Y335433
X1176063
Y332283
X1176063Y325984
X1176063Y322835
Y319685
Y316535
X1176063Y313386
X1182362
X1182362Y316535
X1182362Y319685
X1182362Y322835
X1182362Y325984
Y332283
Y335433
X1189449
Y332283
Y325984
X1189449Y322835
X1189449Y319685
X1189449Y316535
X1189449Y313386
X1194252Y296850
X1206063Y291339
X1210000
X1227323Y285039
Y267323
X1226929Y237008
Y230709
X1249616Y227884
X1258422Y283146
X1271732Y290945
X1288976Y313386
X1288976Y316535
Y319685
Y322835
X1288976Y325984
X1288976Y332283
Y335433
X1296063
Y332283
X1296063Y325984
X1296063Y322835
Y319685
Y316535
X1296063Y313386
X1302363
X1302362Y316535
X1302363Y319685
X1302362Y322835
X1302362Y325984
Y332283
Y335433
X1226929Y329921
X1223386
X1309449Y332283
Y335433
Y325984
X1309449Y322835
X1309449Y319685
X1309449Y316535
X1309449Y313386
X1314252Y296850
X1326063Y291339
X1330000
X1347323Y285039
Y267323
X1346929Y237008
Y230709
X1346929Y329921
X1343386
X1315319Y409708
X1307819
X1311569Y417208
X1315319Y424709
X1311569Y432208
X1321047Y448213
X1315142Y460024
X1309237Y471835
X1321047
X1297425
X1285614
X1273803
X1261992
X1250181
X1238370
X1226559
X1214748
X1202937
X1191126
X1179315
X1173410Y460024
X1185221
X1197032
X1208843
X1220654
X1232465
X1244276
X1267898
X1279709
X1291520
X1303331
X1285614Y448213
X1289069Y432208
Y417208
X1281569
X1274069
X1266569
X1259069
X1251569
X1244069
X1247819Y409708
X1255319
X1262819
X1270319
X1277819
X1285319
X1292819
X1300319
X1296569Y417208
X1304069
X1262819Y424709
X1259069Y432208
X1251569
X1266569
X1262819Y439709
X1153724Y458055
Y477740
X1143882
X1134039
X1124197
X1114354
X1104512
X1109433Y467898
X1119276
X1129118
X1138961
X1134039Y458055
X1124197
X1114354
X1104512
X1109433Y448212
X1119276
X1129118
X1138961
X1134039Y438370
X1124197
X1114354
X1119276Y428527
X1129118
X1138961
X1134039Y418685
X1124197
X1114354
X1104512
X1078922Y412780
X1067111
X1055300
X1061205Y424590
X1055300Y436402
X1067111
X1061205Y448213
X1073016
X1067111Y460024
X1055300
X1061205Y471835
X1073016
X1078922Y460024
X1143882Y458055
Y438370
Y418685
X1003937Y388976
X1001968Y389764
X868731Y391732
Y394488
Y397244
Y400000
Y403224
Y405980
Y408736
Y411492
X848924Y412211
X846973Y410085
X849098Y407901
X847118Y405484
X848749Y402921
X847031Y400184
X848720Y397621
X846798Y395146
X848514Y392279
X862988Y387500
X865744
X868500
Y384500
X865744
X862988
X860705Y454378
X868579
X872516Y462252
X864642
X860705Y470126
X868579
X872516Y478000
X864642
X833146
X825272
X817398
X809524
X801650
X805587Y470126
X813461
X821335
X829209
X825272Y462252
X817398
X809524
X801650
X805587Y454378
X813461
X821335
X829209
X833146Y462252
X822274Y436295
X820551Y415354
X818189Y413386
X819764Y410630
X813071Y405905
X808494Y405980
Y403224
X807953Y399606
Y396850
X808494Y408736
Y411492
X788500Y410000
Y413000
X785000Y411750
Y408500
Y405250
Y402000
X788500Y403000
Y406500
X785000Y415000
X789843Y418504
X786669Y394181
X787652Y389500
X762000Y422000
X759250
X756500
Y419000
X762738Y454799
X766217Y454378
X774091
X770154Y462252
X766217Y470126
X774091
X770154Y478000
X695555Y481500
Y484637
Y487637
Y490625
X692210
X688903
X685094
X685291Y481373
X688903Y481329
X692210Y481500
X687055Y455500
Y451563
Y447626
Y443374
X683055Y416000
X676165
X669276
X662386
X661071Y447626
Y451563
X660986Y455185
X664221Y453532
Y449594
X667370Y448020
Y451563
Y455500
X661071Y460224
X657528Y453532
Y449594
X653984Y451169
Y455106
X646215Y471045
X642410Y479455
X668165Y481767
X671654Y481496
X670134Y484719
X666855Y484737
X668165Y487672
X666755Y490637
X670331Y490625
X676040Y491472
X679555Y490500
X679055Y486000
X679555Y481500
X676055Y481000
X640524Y444650
X636587
X632650
X634618Y441500
X638555
X642886
X640524Y437957
X636587
X632650
X595839Y450681
X591902
X587965
X589933Y453831
X593870
X591902Y457374
X595839
X587965
X585602Y453831
X574504Y444161
Y440224
X570961Y441799
Y445736
X567417Y443768
X567502Y440146
X564268Y441799
Y445736
X561118Y447311
Y443768
Y439831
X567417Y435106
Y447705
X541433
Y443768
Y439831
Y451957
X545433Y479331
X552323
X559213
X566102
X582273Y424286
X449360Y414567
Y411483
Y408399
Y405315
Y402231
Y399147
Y396063
X429444Y397848
X429232Y401832
X429167Y405689
X429410Y409476
X426985Y407809
X426934Y411268
X426849Y403708
X426998Y399843
X426842Y395832
X400000Y410500
X400500Y414500
X398000Y413000
X403051Y422933
X404327Y454378
X396453
X386039Y453657
X386221Y456630
Y459780
X383071Y458205
X383039Y452157
X386221Y450331
X400390Y462252
X408264
X416138
X412201Y470126
X404327
X396453
X400390Y478000
X408264
X416138
X412201Y454378
X443697
X451571
X447634Y462252
X451571Y470126
X443697
X447634Y478000
X336039Y446283
Y442346
Y438410
Y434158
X316399Y437929
Y441866
Y445803
X310015Y445488
X310099Y441866
Y437929
X306556Y443835
X303013Y445409
Y441472
X296713Y438323
X293564Y439898
Y443835
X286871Y439898
X287023Y434785
X283086
X285054Y431636
X288991
X293322
X290960Y434785
Y428092
X287023
X283086
X257992Y449646
X235728Y433976
X295543Y464609
X300744Y460982
X312446Y406157
X319336
X326225
X333115
X161811Y371260
X149606Y370079
Y372835
X138583Y379921
Y383465
X64639Y487402
X48104Y493701
X51942Y457087
X40623Y447244
X16608Y483071
T03
X481457Y383386
Y393386
Y403386
Y413386
Y426693
Y436693
Y446693
Y456693
T04
X1278347Y429370
Y449370
T05
X19213Y10827
X299213
X579213
X819213
X1059213
X1299213
Y493110
X1059213
X819213
X559213
X339213
X99213
T06
X96150Y168449
X365441Y343252
T07
X131889Y438583
T08
X23071Y55421
X212047
X1179213Y162598
X1299213Y162598
X1059213Y162598
X939213
X819213
X699213Y178347
X579213
X459213Y178347
X390787Y61327
X170315
X453307Y325591
X573307Y325591
X693307
X813307Y341339
X933307
X1053307
X1173307
X1293307Y341339
X170315Y403228
X23071Y397323
T09
X472953Y393386
Y436693
X161417Y438583
M30
