M48
;Layer_Color=9474304
;FILE_FORMAT=4:4
METRIC,LZ
;TYPE=PLATED
T1F00S00C0.2000
T2F00S00C0.3000
T3F00S00C0.8900
T4F00S00C1.0000
T5F00S00C1.0200
T6F00S00C1.3500
T7F00S00C1.6300
T8F00S00C3.2000
;TYPE=NON_PLATED
T9F00S00C1.2700
T10F00S00C2.9000
T11F00S00C3.2000
%
T01
X00057Y00103
X00055Y0013
X00118Y00128
X00144897Y00104
X00257Y00096
X00266
X00377Y000988
X003685Y00082
X00397999Y00094266
X00424Y00124
X00429385Y00128
X00436Y00132
X00444715Y00133285
X0086685Y0012585
X0100838Y0013081
X0102108Y0013462
X01024986Y0012192
Y00116385
Y0011085
Y00105314
X0100838Y0010668
X0104394Y0012192
X0106553Y0011938
Y0009652
X0115443Y0008636
X01296269Y00132959
X01375Y00096
X01555791Y00132959
X01634522Y00096
X02118988Y00083934
X02133Y00084
X02158193Y00101895
X0215Y00111
X02163Y00119
X02202Y00113
X02212345Y00117
Y00132399
X02212Y00099
X02225Y00089
X02192995Y000745
X02196996Y0007
X02200996Y00066
X02307Y0011
X033272Y00468
X033697Y00521
X034062Y0053
X034062Y00539
X033057Y0052
X032707Y00531
X03253232Y00521462
X03217672Y00520192
X032007Y005305
X031014Y0053
X031014Y00539
X030649Y00521
X030009Y0052
X029659Y00531
X02946908Y0052451
X029614Y004835
X029684Y00484
Y00468
X030224
X032732Y00468
Y00484
X032662Y004835
X0291338Y00520954
X028959Y005305
X027966Y0053
X027966Y00539
X027601Y00521
X026961Y0052
X026611Y00531
X02641854Y00523494
X02607564Y00521716
X025911Y005305
X026566Y004835
X026636Y00484
Y00468
X027176
X024918Y0053
X024918Y00539
X024553Y00521
X023913Y0052
X023563Y00531
X02336292Y00522954
X02306395Y00518922
X022863Y005305
X02187Y0053
X02187Y00539
X021505Y00521
X023518Y004835
X023588Y00484
Y00468
X024128
X02468Y00393
X023095Y00145166
X02266996Y00145
X02135Y00166624
X02019Y00177
X02011Y00174
X02006996Y00164
X02005Y00156
X02Y00159
X02012Y00152
X01982Y0017
X01971706Y00166
X01974Y00221
X02018
X0192Y00215
X0194Y00194
X0193175Y0052375
X01929384Y00538988
X019815Y005305
X01998472Y00521462
X02032254Y00522224
X020515Y00531
X020865Y0052
X02083Y00489
X02054Y00484
X02047Y004835
X02054Y00468
X02108
X01804924Y00456692
X01796796Y00452131
X01793338Y00443022
X01792337Y00438021
X01718Y00456
X01696466Y00455676
X01676256Y00322805
X01651762Y00324866
X01613154
X0159353Y00217678
X0162655Y00200152
X01662618Y00197612
X01666174Y00218186
X01679128
X01644838Y00152908
X01595562Y0016891
X01556954Y00175768
X01551874Y00173228
X01559494Y00189738
X01543492Y00192796
X01522664Y00183134
X01533332Y00162306
X01526474Y00225044
X0154816Y00235199
X01419606Y00218186
X01406652
X01403096Y00197612
X01367028Y00200152
X01334008Y00217678
X0133604Y0016891
X01385316Y00152908
X01392174Y00321818
X01415994Y00321999
X0135382Y00321818
X01349Y00445
X01353Y0045
X01404874Y00449072
X01413Y00458
X0142Y00452
X01464Y00437
X01489Y0044025
X0149352Y00446786
X01327Y00447
X01305Y0045
X01262Y00456
X01242725
X01237725
X01237725Y00449444
X01232725
X01242725
X01247725
X01223797Y00457914
X01192Y00453
X01186434Y00450088
X01179Y00447
X0118379Y00325
X01139444Y00319278
X01124581Y00323211
X0111633Y0032512
X01116Y00308
X01123442Y00300228
X0113411Y00291076
X01104646Y00286504
X01096Y00303
X0109625Y003125
X0107696Y0029895
X0107061Y00299204
X01065Y00302
X01059Y0031
X0105833Y0031519
X01057153Y0032019
X0098298Y0032004
X0097536Y003175
X0096647Y0031496
X00958088Y0031242
X0102362Y0017399
X0100838Y001524
X010668Y0017272
X0108458Y00169407
X0114962Y00169451
X0115697Y0016764
X0114554Y0014859
X0127381Y00162306
X01292352Y00173228
X01297432Y00175768
X01299972Y00189738
X0128397Y00192796
X01263142Y00183134
X01266952Y00225044
X01289795Y00234425
X00966Y00536
X00961
X00956
X00951
X00946Y00536
X00941
X00936
X00931
X00898Y00536
X008517
X008465
X00811Y00536933
X0076327Y00536194
X00746Y00537
X00741
Y00532
X00736Y00532
Y00527
X00731
Y00522
X00726
Y00517
X00721
Y00512
X00716
X0071646Y00506539
X00711Y00507
X0070993Y0050165
X007035Y00523
Y005285
X00698Y00523
Y00518
X00693
Y00513
X00688
Y00508
X00682244Y0050292
X0067691Y0049784
X00669Y00488
X0067078Y0046863
X0067578
X0068078
X006858
X0069088
X0069596
X0070104
X0070739
X0071247
X0071882
X0072517
X0073152
X0073787
X0074475Y0047125
X00763981Y004699
X00779Y0047
X007935Y004725
X007975Y004685
X0080225Y004725
X0081025
X0080645Y004685
X0081475
X00830888Y0047244
X00856109Y00470144
X00887Y00472
X00868998Y00308999
X00861Y00307
X00862Y003
X00854Y00303
X0086765Y0025585
X00863Y00189
X00757593Y002399
X00752674Y00259
X00718Y00291
Y00302
X00681459Y00322459
X00679Y00329406
X00673Y00319
X00668Y00316
X00663Y00319
X00657Y00321
X00625Y00301
X00675Y00274
Y00261
Y00248
Y00235
Y00222
Y00209
X00568274Y0021067
X0056802Y00223878
Y00237594
X00568274Y00250802
Y0026401
Y00276964
X00554999Y00315999
X0055Y0032
X00548999Y00312999
X00557785Y00323258
X0057Y00444
X00567Y00451
X00565Y00457
X00561Y00461067
X00556Y00463
X005505Y00464
X00545Y00465
X0054864Y00488442
X00563626Y00488188
X005685Y004735
X00574
X005835Y00473
X0059055Y00472948
X00597408Y00473456
X006045Y004735
X00601Y00467
X00594
X005885Y004625
X0058Y00463
X00574Y004585
X00614Y004535
X006145Y00469
X00622
X00629
X00646938Y0046863
X0065278Y0046863
X0065878
X0066478
X00693819Y0047356
X00664718Y00509292
X00664464Y0051562
X00629Y00495
Y004885
X00634
X006185
X00613
X00593598Y00489204
X00533654Y00488188
X00518668
X00503682
X00491Y004895
X00486499Y00493499
X00481Y004935
X00476Y00495
X004705Y00496
X00465Y00497
X004595Y004975
X00453999Y00499499
X004485Y004995
X00443Y005005
X004375Y005015
X00432Y005025
X004265Y005035
X00421Y005045
X004155Y005055
X0041Y005065
X004045Y005075
X00399Y005085
X003935Y005095
X00388Y005105
X003835Y00514
X0038Y00518
X003765Y005225
X00331978Y00522224
X003375Y005165
X00335Y00511
X00338Y005065
X00335Y00502
X00338Y004975
X003405Y004925
X0033Y00481
Y00476
Y00471
Y00466
Y00461
X00340614Y0045593
X00313436Y00453644
X0027575Y00487
X0027569Y00495381
X00271Y00493
X00266Y00493999
X00310134Y00521462
X003105Y00527
X003135Y00532
X00311Y00537
X00376Y00476
X0038862Y00427482
X00403606
X00418592
X00435Y00392
X00438257Y00388163
X0040952Y00380769
X0041327Y00376518
X00421Y00365
X00422612Y00357
X00425999Y00352999
X0043Y00321
X00438
X00453Y00328
X00471Y00294
X00499006Y00301
X00514Y0028
X00518Y00261
X00537819Y00256754
X00537999Y0025
X00536303Y00244815
X00539Y00234
X00464Y00245828
X0046Y00241863
X00466999Y00251999
X00435Y00252
X00432376Y00261672
X00427901Y00265901
X00424314Y00259551
X00442Y00264
X00444Y00269
X00397Y00213
X00397154Y00198004
X003685Y00211
X00377608Y00222623
X00382999Y0017
X003595Y001725
X00350517Y00172258
X00355Y0016
X00397306Y00155342
X00267Y00147
X00257
X00256Y001728
X00257Y00185
X00266
X00267Y00223
X00254
X00262Y00249
Y00287
X0025082Y0030004
X00262Y00314226
X00269Y00314
X00208Y00274
X00212Y00267999
X00215115Y00262615
X00213Y00256
X0021Y0025
X0016446Y0031655
X00356Y0028725
X00383092Y00373
X004955Y004735
X00501Y00473
X005065Y00472
X00512Y00471
X005175Y0047
X00523Y00469
X005285Y00468
X00534Y00467
X005395Y00466
X00117Y00209
X00123Y00184
X00056Y00185
X00054Y00213
X00063Y00702
X00062Y00708
X00077Y00789
X00082Y00784
X00087Y00789
X00092Y00794
X00105Y00798
X00114Y00797998
X00131Y00782998
X00066Y00822
X00029Y0078
X00087128Y00909486
X00188Y00881
X00216936Y00882064
X00215Y00876998
X00207Y00863
X0019975Y00856
X00222Y0085
X00219Y00828
X00192Y00807
X00177Y00778
X00182Y00772
X00157Y00766
Y00745
X00295656Y00737362
X00311Y00732
X00314Y0071075
X00313Y00703
X0031Y00693
Y00687
X00311Y00676
Y00668
X00313Y00657
X00312Y00642
X00310506Y0063236
X00315999
X00310134Y00622554
X0030988Y00607314
X00310388Y00592582
X003125Y00587
X00318Y005865
X003215Y00582
X00327Y005815
X003305Y00577
X003365
X00341Y00573
X003625Y005715
X003675Y005705
X00373Y005695
X0035687Y00592328
X00356616Y00607314
Y006223
X00341999Y00626999
Y00631999
X00342Y00637
Y00642
Y00647
Y00652
Y00657
X0035814Y0065278
X00364999Y00662999
X00356999Y00671999
Y00676999
X00357Y00682
X0037375Y0068325
X00377999Y0068
X00381019Y00674783
X00385874Y0067709
X00386564Y00700436
X0038989Y0071628
X00395224Y0072136
X00373Y00708125
X00374396Y00692404
X00363999Y00696999
X00342Y00712
Y00717
Y00722
Y00727
Y00732
Y00742
Y00747
Y00752
Y00757
Y00762
Y00767
X0034Y00777
Y00787
Y00797
Y00807
X00334Y00802
Y00792
Y00782
X00311703Y00772414
X00310388Y00812546
Y00832358
X0031627Y00834
X00342Y00827
X00356362Y00832358
X0035941Y00837438
X00356616Y00812292
Y00772414
Y00737362
X0029591Y0069723
X00295Y00682
Y00672
X00295656Y00662432
X00259Y0064
Y00588
X003257Y005907
X00326Y00597256
Y00602256
X003257Y00608826
X003145Y005675
X003115Y00562
X00319Y005575
X00314Y00552
X00311Y00547
X003135Y00542
X0039878Y0081153
X0041403
X00443738
X00458724Y00811784
X0047371Y0081153
X00488696
X00503682
X0051743Y0079
X00524
X00529
X00535556
X00529Y00778
X00524
X00533634Y00835624
X0053372Y00876046
X0052872
X0052215
X00508762Y00872236
X00502Y00874
X0046355Y00872236
X00448564
X0043825Y008755
X00403606Y00872236
X0038862
X0039528Y0083532
X00389969Y00829231
X00407Y00835
X00524Y00893
X00538
X0024Y00897
X00241Y0090625
X0024Y00882998
X00540276Y00876046
X0055372Y00872236
X00568452Y00858012
X00584Y00858
X00589
X00594
X00599
X00604
X00619
X00629
X00634
X00639
X00644
X00649
X00654
X00659
X00664
X00669
X00683
X00688
X00693
X00698
X00703834Y00858266
X006825Y00850392
X00684Y00826
X00689
X0069469Y00826262
X00677672
X00664718Y00826008
X00659Y00826
X00654
X00649
X00644
X00638
X00629
X00619
X00614
X00609
X00604
X00599
X00594
X00588
X00579
X00584Y00811
X0056388Y0081153
X0054864
X005516Y00831
X00634Y00838
X00644465Y00842586
X0063119Y008763
X0061341Y00874014
X00605028Y00874268
X0068326Y0088392
X00748792Y00872236
X00753872
X00758698Y00858266
X00763778
Y008255
X00758698
X00753618
X00748538
X00743458
X00738632
X00741999Y00809998
X00734Y0081
X00738Y00805
X00746
X00747Y00784
X00724662Y00809752
X00663956Y00792734
X00723398Y00722596
X00729Y00725
X00723392Y006604
Y00648208
X00782828Y00646938
X00788048Y00648208
X00787908Y00639572
Y00634372
X00795Y0061746
Y0061226
X00789Y006035
Y005983
X00795Y005955
Y005903
X00801Y0058746
Y0058226
X008068Y00565
X00812
X008045Y0056
X007993
X0081504Y0055192
X00833998Y00553999
X0084Y00554
X008385Y00545
X008437
X008543Y00546
X008595
X00877Y00552
Y00557
X0087884Y00568198
X008905Y00569
X008957
X008877Y00579
X008825
X00879094Y00597154
Y00602234
X00877Y00612
Y00617
X00876998Y00626999
X00877Y00632
X00880872Y00637286
X00880364Y00652272
X00876907Y00656999
X00877Y00662
X00880618Y00667258
X00886206Y0067056
X0089154Y00670052
X00880364Y00682244
X00877Y00687
Y00692
Y00702
Y00707
Y00717
X00879776Y007213
X00877Y00732
Y00737
Y00747
Y00752
Y00762
Y00767
X00877Y0077726
Y0078246
X00877Y00792
Y00797
X00854964Y00787654
X0085979Y00772414
Y00757428
Y00741934
Y0072771
X0083693Y00736854
X0083Y0073746
Y0073226
Y0072246
Y0071726
Y0070746
Y0070226
X00830072Y00682244
X00838962Y00684554
Y00689754
X00860998Y00691999
X00830072Y00652526
X0083058Y00637286
X00836168Y00629666
Y00624332
X00830326Y006223
X0083058Y00607314
X00830072Y00577342
X008365Y00575
X008417
X00844Y0058226
Y0058746
X008498Y00577
X00855
X00862584Y00592328
X00861822Y00607314
X00780288Y00573024
X00784098Y00569214
X00757682Y00541782
X00751Y00542
X00746Y00542
X00723392Y00556006
X00728472Y0056388
X0072771Y0057658
X00732852
X00783Y0065726
Y0066246
X00777Y0067226
Y0067746
X0083Y0074726
Y0075246
X00833628Y00757428
X0083Y0076226
Y0076746
X0083312Y00772414
X0083Y0077726
Y0078246
X00833628Y007874
X0083Y0079226
Y0079746
X00834136Y0080264
X0083Y0080726
Y0081246
X00834136Y00817372
X0083Y0082226
Y0082746
X00847344Y00827278
X0085217Y00822198
X00845566Y00812546
X00849122Y00807466
X0072425Y00927
X00729996Y0093345
X0064389Y00662432
X0063881Y00661162
X00594106Y00611124
X00589026
X00583946
X00578866
Y0058975
X00583946
X00589026
X00594106
X0096393Y0057912
Y00573532
Y00568452
X00963676Y00563372
X01063498Y0057912
X01092454Y00579628
X01101852
X011625Y005695
X0119275
X01171Y00692
X01161
X01172972Y00702056
X01170062Y007216
Y007266
X01165606Y00733124
Y00738124
X0116459Y00745236
X01159256Y00744474
X0114046Y00732028
X01138428Y00702056
X01087Y00706856
Y00712056
X01079246Y007234
Y007284
X01098998Y00739998
X01095Y00744
X01097Y00754
X01100536Y00757535
X01192276Y00732282
X01218571Y00718699
X01222248Y00722376
X01221Y007095
Y007043
X01215Y006995
Y006943
X01284776Y00695864
X01194308Y00832612
Y0088352
X010668Y009144
Y009271
X010541
X010795
X01401Y007745
Y007693
Y007585
Y007533
Y007425
Y007373
Y007265
Y007213
Y007085
Y007033
X01445006Y00707898
X01442Y00692
X01465
X01477
X01497076Y00708152
X01499108Y00737108
X01526Y007345
Y007293
Y007165
Y007113
Y006995
Y006943
Y007453
Y007505
Y007613
Y007665
X0144272Y00737108
X01344Y00695
X01464441Y005695
X0149975
X01680554Y00896958
Y00913468
Y00929978
X01732878
Y00913468
Y00896958
X01736996Y00863998
X01740997Y00867998
X01745997Y00870998
X0175Y00875
X01833Y00896
Y00913
Y0093
X0188
Y00913
Y00896
X01981Y00775
X01980996Y00765999
X01981Y00757
Y00749
X0201676Y0074676
X0202184Y0074168
X0201168
X0201676Y007366
X0201168Y0073152
X020193Y0072771
X0203708Y0073152
X02043938
X0203962Y0073914
X0203708Y0074422
X02051812Y00741172
X02054098Y00762762
X02055622Y00780034
X02073148Y0074803
X02074164Y00733044
X02074Y007035
X02079Y007035
X020765Y00698
Y00692
X020855Y006955
Y007015
Y00685
Y00679
X02106676Y00684276
X02106422Y00667512
X02105914Y00652018
X02055368
X0205486Y00667512
X02054567Y00683983
X02055622Y00703072
X02049Y007035
X02044
X02039
X02034
X02021Y00685
Y0068
X02021Y00675
X02021Y0067
X02024634Y00664718
X02021Y0066
Y00655
X02021Y00649999
X02020996Y00644999
X0202692Y00641604
X020215Y0063
Y00625
Y0062
Y00615
X02028444Y00615442
X02021Y006055
Y006
Y00595
Y0059
X02031Y00585
X02034Y00577
X02039
X02041Y00582
X02047
X02053Y00582
X0205486Y00591058
X0206375Y006096
X0209804Y00608838
X02107184Y00591312
X0211328Y00577596
X02119Y005775
X021245
X02085Y00582
Y00587
Y00592
X020805Y005785
X02074
X02077974Y00542798
X02008568Y00569432
X01979Y005535
X019815Y005475
Y0054
X01968Y00578
X01936996Y00566999
X01932751Y00570616
X0192275Y005495
X01910206Y00555
X01906907Y00563213
X01806Y005695
X01769114
X01783Y0066
X01802Y006693
Y006745
X01801114Y00684022
X01802Y006935
Y006987
X01801876Y00707898
X01802Y007175
Y007227
X01801876Y00732028
X01802Y007415
Y007467
X0175Y007465
Y007413
X0174498Y00737616
X0175Y007227
Y007175
X0174498Y00713232
X0175Y006987
Y006935
X01748028Y00687832
X0175Y006747
Y006695
X0175006Y00659384
X0174Y006587
Y006535
X01814Y006524
Y006574
X019595Y00651
X01965333
X01971167
X01977
X019615Y0069
Y00696
Y00702
Y00708
X01999742Y00705358
X02112264Y00699516
X0210693Y00729742
X02109724Y00738378
X0210693Y00752602
Y00764286
X02105914Y00780288
X02133346Y0073914
X02136Y00733
X02142
X02148Y00733
X02154
X02167636Y00706628
X021865Y007115
X02188Y007025
X02191Y006945
X02194Y00685
X0219964Y0063754
X02187Y00629
X02187Y00624
X02187Y00618
X021865Y0061
X02147Y0061
Y00605
Y006
Y00595
X02137Y00585
X02134Y005775
X02129Y00581
X02144268Y00614934
X0214757Y00639826
X02145284Y0066548
X02145Y00672
X021865Y00749
Y00758
Y00766
Y00775
X022035Y008095
X0223425Y00819
X0225725Y0084675
Y00859
X0225925Y0086525
X022545Y00874
X02256Y00881
X02242995Y00869998
X02239163Y00888352
X022295Y0089625
X02178Y0088775
X0217725Y0088075
X02177Y0087425
X0217725Y008685
Y008585
X02178Y0085025
X02179Y008365
X02209Y0074308
X02208Y00738
X02209Y0073292
X022355Y00735
Y0074075
X02252Y00773
X02286Y00774
Y007665
Y00758
Y00749
X0231648Y0074168
Y0073152
X0232156Y007366
Y0074676
X0232664Y0074168
X023241Y0072771
X0234188Y0073152
X02348738
X0234442Y0073914
X0234188Y0074422
X02347468Y00747522
X02356612Y00741172
X02359296Y00755794
X02359914Y00763778
X02360168Y0077978
X02410714Y00780034
Y00764032
X02411476Y00751586
X02414778Y0073787
X0241173Y00729742
X024408Y00733
X024468
X024528Y00733
X024588
X02438146Y0073914
X0241808Y00700532
X02411222Y00684276
X02411476Y00665988
X02410968Y00652018
X023903Y00679
Y00685
Y006955
Y007015
X023838Y007035
X023788Y007035
X023813Y00698
Y00692
X02359152Y00684022
Y00665988
X02359914Y00652018
X023258Y00649999
X023258Y00655
Y0066
X02329434Y00664718
X023258Y0067
X023258Y00675
X023258Y0068
Y00685
X023388Y007035
X023438
X023488
X023538
X02359914Y00703072
X02304542Y00705358
X022663Y00708
Y00702
Y00696
Y0069
X022668Y00646
X022718
X022768
X022818
X02325995Y00644999
X0233172Y00641604
X023263Y0063
Y00625
Y0062
Y00615
X02333244Y00615442
X023258Y006055
Y006
Y00595
Y0059
X023388Y00577
X023438
X023458Y00582
X023518
X023578Y00582
X02359914Y00591312
X0236855Y00609346
X0240284
X02411222Y00591566
X0241808Y00577596
X024238Y005775
X024293
X024338Y00581
X024388Y005775
X02442Y00585
X024518Y00595
Y006
Y00605
Y0061
X02449068Y00614934
X0245237Y00639826
X02450084Y0066548
X02446528Y00670306
X02472436Y00706628
X024913Y007115
X024928Y007025
X024958Y006945
X024988Y00685
X0250444Y0063754
X024918Y00629
X024918Y00624
X024918Y00618
X024913Y0061
X02514Y00585
X024918Y00554
Y005475
X02382774Y00542798
X023853Y005785
X023788
X023898Y00582
Y00587
Y00592
X02313368Y00569632
X022838Y005535
X022863Y005475
Y0054
X02187Y005475
Y00554
X02209Y00585
X024913Y00749
Y00758
Y00766
Y00775
X02591Y00775
Y00766
Y00757
Y00748
X0262128Y0074168
Y0073152
X0262636Y007366
Y0074676
X0263144Y0074168
X026289Y0072771
X0264668Y0073152
X02653538
X0264922Y0073914
X0264668Y0074422
X02651252Y00746506
X02661412Y00741172
X02664968Y00763778
Y00780034
X02715768
Y00764032
X0271653Y00752094
X02719578Y00738632
X0271653Y00729742
X027456Y00733
X027516
X027576Y00733
X027636
X02742946Y0073914
X02722118Y00700024
X02716022Y00684022
X02717292Y0066548
X02715768Y00652018
X026951Y00679
Y00685
Y006955
Y007015
X026886Y007035
X026836Y007035
X026861Y00698
Y00692
X02663698Y00684022
Y0066548
X0266446Y00652018
X026306Y00649999
X026306Y00655
Y0066
X02634234Y00664718
X026306Y0067
X026306Y00675
X026306Y0068
Y00685
X026436Y007035
X026486
X026536
X026586
X02664968Y00703072
X02609342Y00705358
X025711Y00708
Y00702
Y00696
Y0069
X025716Y00646
X025766
X025816
X025866
X026306Y006445
X0263652Y00641604
X026311Y0063
Y00625
Y0062
Y00615
X02638044Y00615442
X026306Y006055
Y006
Y00595
Y0059
X026436Y00577
X026486
X026506Y00582
X026566
X026626Y00582
X02664714Y00591058
X0267335Y00608838
X02707386Y00609092
X02715514Y00591312
X0272288Y00577596
X027286Y005775
X027341
X027386Y00581
X027436Y005775
X02748Y00585
X027566Y00595
Y006
Y00605
Y0061
X02753868Y00614934
X0275717Y00639826
X02754884Y0066548
X02750312Y00669798
X02777236Y00706628
X027961Y007115
X027976Y007025
X028006Y006945
X028036Y00685
X0280924Y0063754
X027966Y00629
X027966Y00624
X027966Y00618
X027961Y0061
X02818Y00585
X027966Y00554
Y005475
X028959
Y0054
X028934Y005535
X028914Y00646
X028864
X028814
X028764
X028759Y0069
Y00696
Y00702
Y00708
X02914142Y00705358
X02896Y00748
Y00758
Y00766
Y00775
X027961Y00775
Y00766
Y00758
Y00749
X02685Y00749
X026946Y00592
Y00587
Y00582
X026901Y005785
X026836
X02687574Y00542798
X02618Y00568
X025886Y005535
X025911Y005475
Y0054
X02922968Y00566032
X029354Y0059
Y00595
Y006
Y006055
X029359Y00615
Y0062
Y00625
Y0063
X029354Y006447
X029354Y00649999
X029354Y00655
Y0066
X02939034Y00664718
X029354Y0067
X029354Y00675
X029354Y0068
Y00685
X029484Y007035
X029534
X029584
X029634
X0296926Y00703326
X029884Y007035
X029934Y007035
X029909Y00698
Y00692
X029999Y006955
Y007015
Y00685
Y00679
X03020822Y00684276
X0302133Y0066548
X03020822Y00652018
X03053842Y00669798
X03058922Y00664972
X0306197Y00639826
X03058668Y00614934
X030614Y0061
Y00605
Y006
Y00595
X03053Y00585
X030484Y005775
X030434Y00581
X030389Y005775
X030334
X0302768Y00577596
X03021584Y00592328
X029994Y00592
Y00587
Y00582
X029949Y005785
X029884
X029674Y00582
X029614Y00582
X029554
X029534Y00577
X029484
X02969768Y00590804
X0297815Y00609346
X03011932
X02942844Y00615442
X0294132Y00641604
X02969514Y00652018
X02968752Y00665226
X0296895Y00684
X02958338Y0073152
X0295148
X0295402Y0073914
X0295148Y0074422
X02957068Y00747268
X02966212Y00741172
X02970022Y00764032
Y0077978
X03020314Y00780034
Y00764032
X03021838Y00752348
X03024124Y0073787
X0302133Y00729742
X030504Y00733
X030564
X030624Y00733
X030684
X03047746Y0073914
X03027172Y00700278
X03082036Y00706628
X031009Y007115
X031024Y007025
X031054Y006945
X031084Y00685
X0311404Y0063754
X031014Y00629
X031014Y00624
X031014Y00618
X031009Y0061
X031014Y00554
Y005475
X03135Y00585
X031982Y005535
X032007Y005475
Y0054
X03227768Y00567232
X032402Y0059
Y00595
Y006
Y006055
X032407Y00615
Y0062
Y00625
Y0063
X03247136Y0062357
X0324612Y00641604
X032402Y006447
X032402Y00649999
X032402Y00655
Y0066
X03243834Y00664718
X032402Y0067
X032402Y00675
X032402Y0068
Y00685
X032532Y007035
X032582
X032632
X032682
X03274568Y00703072
X032932Y007035
X032982Y007035
X032957Y00698
Y00692
X033047Y006955
Y007015
Y00685
Y00679
X0330835Y00651764
X03274568Y00652018
X03273298Y00665226
X03273552Y00684022
X03263138Y0073152
X0325628
X0325882Y0073914
X0325628Y0074422
X03268472Y00739394
X0324104Y0074168
X0323596Y007366
X0323088Y0073152
Y0074168
X0323596Y0074676
X032385Y0072771
X03218942Y00705358
X031807Y00708
Y00702
Y00696
Y0069
X031812Y00646
X031862
X031912
X031962
X032Y00748
Y00757
Y00766
Y00775
X03219994Y00793998
X03224Y0079
X03231993Y00789998
X03228Y00794
X03235994Y00793998
X03239994Y00789998
X03247993
X03244Y00794
X03251993Y00793998
X03259994
X03255994Y00789998
X03264Y0079
X0327406Y0077978
X03291332Y00763778
X0329438Y0075692
X0328295Y00624332
X03273806Y00591312
X032722Y00582
X032662Y00582
X032602
X032582Y00577
X032532
X032932Y005785
X032997
X033042Y00582
Y00587
Y00592
X03297174Y00542798
X02992374Y00542798
X02988994Y00747999
X0293116Y0074676
Y007366
X0292608Y0073152
Y0074168
X0293624
X029337Y0072771
X031009Y00749
Y00758
Y00766
Y00775
X03325622Y00780034
X03325368Y00763778
X0332613Y0075184
X03329178Y00738124
X0332613Y00729742
X033552Y00733
X033612
X033672Y00733
X033732
X03352546Y0073914
X0333756Y00700278
Y00684022
X03338068Y00664718
X03358896Y00670052
X03364484Y0066548
X0336677Y00639826
X03363468Y00614934
X033662Y0061
Y00605
Y006
Y00595
X03357Y00585
X033532Y005775
X033482Y00581
X033437Y005775
X033382
X0333248Y00577596
X03326384Y0059182
X03323336Y00609346
X034057Y0061
X034062Y00618
X034062Y00624
X034062Y00629
X0341884Y0063754
X034132Y00685
X034102Y006945
X034072Y007025
X034057Y007115
X03386836Y00706628
X034057Y00749
Y00758
Y00766
Y00775
X034062Y00554
Y005475
X0321Y011
X03205
X03185
X0318
X0316
X03155
X03135
X0313
X0311
X03105
X03085
X0308
X02280784Y01186777
X0188Y00979
Y00962
Y00946
X01833
Y00962
Y00979
X01732878Y00979508
Y00962998
Y00946488
X01680554
X0169Y00963
X01680554Y00979508
X0166025Y0111017
X0165425
X0164825
X0164225
X0163625
X0163025
X0162425
X0161925Y0110617
X0160525Y0112617
X01550603Y01126061
X01350152Y0112634
X0129413Y0112649
X01270179Y01169731
X0123444Y0104835
X01148611Y01
X01155Y00962
X010668Y009525
X010541
Y009398
X010414
X010668
X010795
X01024Y00955
X0098806Y0094813
X00970547Y00954547
X00938Y00951
X0089325Y0094925
X00883412Y00957227
X0085Y0095
X0081275Y0094925
X00768Y00949
X00718796Y00959146
X00700025Y01079389
X00633Y01109
X00589288Y011062
X0055Y01104
X00683445Y01179229
Y01185229
Y01191229
X0051421Y0119175
Y011867
X00507654Y01187
X00502654
X00496083Y011867
Y0119175
X0043Y01105
X00384396Y01101956
X00384142Y0108697
X00370172Y01042774
X00365092Y01041758
X0034655Y0104125
X00338509Y01041845
X00332072Y01033376
X00370426Y0100847
X00270096Y0103998
X00290416Y01066904
X0029067Y01072238
Y01101956
X00277208Y01096876
X00271856Y01120418
X00294Y01149
X0033Y01148
X00333999Y01143998
X00344772Y01135484
X00359758
X00365Y01143
X0037
Y01149
X00365
X0036
X00375
X00320134Y01135484
X00192Y00961
X00166Y00968
X00139Y00964
X00113Y00961
X00038
T02
X00056Y00078
X00067
X00145Y00076
X00184Y00126
X0021
X00396Y00112
X00759412Y00142499
X00773176Y00142748
X0084919Y00126587
X00884756Y00119984
X02143753Y00092905
X02241Y00098
Y00128
X0233Y00132
X02356933Y00140058
X02299097Y00092689
X03327146Y00436118
X03332734Y00472948
X03325876Y00501904
X03339844Y0053153
X03400552Y00451358
X0340275Y0041861
X03381756Y0039243
X0327279Y00436118
X03259582Y00480822
X03273552Y00499618
X03257804Y00531368
X03298698Y00534162
X03305556Y00531114
X032Y00448
X03232912Y00415036
X03097994Y00413999
X03096Y00449
X0307721Y00391922
X03022346Y00436118
X03027934Y00472948
X03021076Y00501904
X03035044Y0053153
X03000756Y00531114
X02993898Y00534162
X02953512Y00531876
X02968752Y00499618
X02954782Y00480822
X0296799Y00436118
X02928366Y00415544
X02896Y00448
X02791
X0279315Y00416153
X02771902Y00392176
X02717546Y00436118
X02723134Y00472948
X02716276Y00501904
X02730246Y00531622
X02695956Y00531114
X02689098Y00534162
X02648204Y00531368
X02663952Y00499618
X02649982Y00480822
X0266319Y00436118
X02623312Y00415036
X02591Y00448
X02488
X0248835Y00415753
X02412746Y00436118
X02418334Y00472948
X02411476Y00501904
X02425444Y0053153
X02391156Y00531114
X02384298Y00534162
X02343404Y00531368
X02359152Y00499618
X02345182Y00480822
X0235839Y00436118
X02318512Y0041529
X02287Y00434
X02183Y00429
X02184Y00447
X02197Y00144
X02161Y00152
X0232167Y00144572
X02117Y00417
X02107946Y00436118
X02113534Y00472948
X02106676Y00501904
X02120646Y00531622
X02086356Y00531114
X02079498Y00534162
X02038604Y00531368
X02054352Y00499618
X02040382Y00480822
X0203Y00436
X0205359Y00436118
X0204075Y004135
X01997Y0046
X01983Y00474
X0197Y00486
X01794Y00428
X01796Y0032
X01804
X01814
X01853Y00281
X0185Y00206
Y0018
Y00156
X017Y0032
X01689522
X01586522Y00321
X01533522
X0143Y0032
X01327Y00321
X01274
X0117094Y0026924
X0114808Y00289306
X010795Y0028829
X0106553Y0028194
X0103Y00278
X01031Y00304
X01039232Y00309837
X01098Y00159
X01102179Y00469609
X010922Y0047117
X00771551Y004699
X00756412
X00639572Y0047244
X00637827Y00527525
X0062963Y00535722
X00613Y00325
X00597662Y00299212
X00649999Y00292999
X00706Y00274
Y00261
Y00248
Y00236
X00704999Y00222
Y0021
X00759412Y00167899
X00772922Y00167894
X00849302Y00188
X00886172Y00183172
X00885556Y00249984
X0084999Y00256587
X00850065Y00320691
X00885722Y00313306
X0074Y0032
X00629Y00238115
X00583Y00182
X00538Y00211
Y00224
X00537999Y00264
Y00276999
X00401Y00283
X00391999Y00282999
X00393Y0024
X00382999Y00146941
X00361Y00313134
X00325999Y00486999
X00321Y00522
X002Y00475
X00185Y00266
X00184Y00193
X00211Y00191
X00067Y0023
X00055
X00056Y00306
X00066
X00065Y00154
X00056
X00082Y00665
X00102Y00657
X00096Y00686999
X00133Y00687
X00129Y00675
X0012135Y0072305
X0010935
Y0073505
X0009735
Y0074705
X0010935
X0012135
Y0073505
X0009735Y0072305
X00045Y00719
X00047Y00747
X00055Y0075
X00055Y00758
X00097Y00789
X00112
X00075Y0085
X00026Y00821
X00048Y0093
X00166Y00910998
X00166Y00868
X00162019Y00858995
X00192Y00868
X0022Y00863
X00241Y00917
X00294Y0084725
X00292608Y00827532
X00292Y00817
X0031175Y0084225
X0034075
X00358Y008475
X00341Y0081736
X0040513Y0082804
X00401518Y0075692
X00409702
X00451032Y0075692
X0046018
X00207Y00769
X00174Y00765
X00159Y00755999
X0016Y00739
X00166Y00734
X00188
X00172Y00678
X00159Y00667
X0025Y0066
Y00607
X00198Y00554
X0037775Y00556
X0038584
X00762Y0059436
Y0060452
X00832Y00593
X0086018Y0062218
X00838859Y0066736
X00847998Y00699999
X00842431Y00711
X0076425Y007105
X007645Y0073525
X00769Y00795
X0076875Y008025
X0076525Y008095
X007725
X0077375Y0087375
X0078375Y0087375
X0077875Y0088
X007685Y0087975
X0073875Y0085675
X0072875Y008565
X0073375Y0085075
X0074375
X011404Y00812
Y00804
Y00796
X011404Y00788
X011404Y0078
Y00772
Y00764
X011404Y00756
X011584
X011584Y00764
Y00772
Y0078
X011584Y00788
X011584Y00796
Y00804
Y00812
X011744
Y00804
X011744Y00796
X011744Y00788
X011744Y0078
X01174401Y00772
X011744Y00764
X01174401Y00756
X01192401
X011924Y00764
X01192401Y00772
X011924Y0078
X01192401Y00788
X011924Y00796
X01192401Y00804
Y00812
X014452
Y00804
Y00796
X014452Y00788
X014452Y0078
Y00772
Y00764
X014452Y00756
X014632
X014632Y00764
Y00772
Y0078
X014632Y00788
X014632Y00796
Y00804
Y00812
X014792
Y00804
X014792Y00796
X014792Y00788
X014792Y0078
X01479201Y00772
X014792Y00764
X01479201Y00756
X01497201
X014972Y00764
X01497201Y00772
X014972Y0078
X014972Y00788
X014972Y00796
X014972Y00804
Y00812
X01454Y00932
X0175Y00812
Y00804
Y00796
X0175Y00788
X0175Y0078
Y00772
Y00764
X0175Y00756
X01768
X01768Y00764
Y00772
Y0078
X01768Y00788
X01768Y00796
Y00804
Y00812
X01784001
Y00804
X01784Y00796
X01784001Y00788
X01784Y0078
X01784001Y00772
X01784Y00764
X01784001Y00756
X01802001
X01802Y00764
X01802001Y00772
X01802Y0078
X01802Y00788
X01802Y00796
X01802Y00804
Y00812
X020548
Y0082
X020548Y00828
X020548Y00836
Y00844
Y00852
X020728
Y00844
Y00836
X020728Y00828
X020728Y0082
Y00812
Y00804
X020728Y00796
X02088801
X020888Y00804
X02088801Y00812
X020888Y0082
X02088801Y00828
X020888Y00836
X02088801Y00844
Y00852
X02106801
Y00844
X021068Y00836
X02106801Y00828
X021068Y0082
X02106801Y00812
X021068Y00804
X02106801Y00796
X020548
X020548Y00804
X02121154Y00550418
X02149856Y00564388
X02189988Y00561848
Y00575818
X02201Y0068
X02186Y00722
X02166
X023596Y00796
X023596Y00804
Y00812
Y0082
X023596Y00828
X023596Y00836
Y00844
Y00852
X023776
Y00844
Y00836
X023776Y00828
X023776Y0082
Y00812
Y00804
X023776Y00796
X02393601
X023936Y00804
X02393601Y00812
X023936Y0082
X023936Y00828
X023936Y00836
X023936Y00844
Y00852
X024116
Y00844
X024116Y00836
X024116Y00828
X024116Y0082
X02411601Y00812
X024116Y00804
X02411601Y00796
X02471Y0072
X02491
X02506Y0068
X02494788Y00575818
Y00561848
X02454656Y00564388
X02425954Y00550418
X02730754
X02759456Y00564388
X02799588Y00561848
Y00575818
X02811Y0068
X02796Y0072
X02775
X027164Y00796
X027164Y00804
X027164Y00812
X027164Y0082
X027164Y00828
X027164Y00836
X027164Y00844
Y00852
X026984
Y00844
X026984Y00836
X026984Y00828
X026984Y0082
X02698401Y00812
X026984Y00804
X02698401Y00796
X026824
X026824Y00804
Y00812
Y0082
X026824Y00828
X026824Y00836
Y00844
Y00852
X026644
Y00844
Y00836
X026644Y00828
X026644Y0082
Y00812
Y00804
X026644Y00796
X029692
X029692Y00804
Y00812
Y0082
X029692Y00828
X029692Y00836
Y00844
Y00852
X029872
Y00844
Y00836
X029872Y00828
X029872Y0082
Y00812
Y00804
X029872Y00796
X03003201
X030032Y00804
X03003201Y00812
X030032Y0082
X030032Y00828
X030032Y00836
X030032Y00844
Y00852
X030212
Y00844
X030212Y00836
X030212Y00828
X030212Y0082
X03021201Y00812
X030212Y00804
X03021201Y00796
X0308Y0072
X03101
X03116Y0068
X03104388Y00575818
Y00561848
X03064256Y00564388
X03035554Y00550418
X03274Y00796
X03274Y00804
Y00812
Y0082
X03274Y00828
X03274Y00836
Y00844
Y00852
X03292
Y00844
Y00836
X03292Y00828
X03292Y0082
Y00812
Y00804
X03292Y00796
X03308
X03308Y00804
X03308Y00812
X03308Y0082
X03308Y00828
X03308Y00836
X03308Y00844
Y00852
X03326
Y00844
X03326Y00836
X03326Y00828
X03326Y0082
X03326001Y00812
X03326Y00804
X03326001Y00796
X03385Y0072
X03406
X0344Y0067
X03409188Y00575818
Y00561848
X03369056Y00564388
X03340354Y00550418
X03468Y0077295
Y0078294
Y00792003
Y00802
X03259174Y01095
X03259Y01111
X03233774
Y01095
X03055974
X03056Y0111
X03030574
Y01095
X02508539Y0109854
X02478539
X02493539Y0112854
X02523539
X02508539Y0115854
X02523539Y0118854
X02493539
X02463539
X0239854Y0117354
X0237354
X0234854
X0232354
X0229854
X0231104Y0114854
X0233604
X0236104
X0237354Y0112354
X0234854
X0232354
X0229854
X0231104Y0109854
X0233604
X0236104
X0238604
X0239854Y0107354
X0237354
X0234854
X0232354
X0229854
X0227354
Y0102354
X0229854
X0232354
X0234854
X0237354
X0239854
X0238604Y0104854
X0236104
X0233604
X0231104
X02223539Y0106854
X02193539
X02163539
X02133539
X02148539Y0103854
X02178539
X02208539
X02478539
X02508539
X02523539Y0106854
X02493539
X02463539
X02103539
X02073539
X02043539
X02058539Y0103854
X02088539
X02118539
X02028539
X01998539
X01968539
X01938539
X01908539
X01878539
X01848539
X01863539Y0106854
X01893539
X01923539
X01953539
X01983539
X0199644Y0112014
X02005965Y0113919
X02025015
Y0117729
X02044065
X0203454Y0119634
X0201549
X0199644
X0197739
X0195834
X0193929
X0192024
X0190119
X0188214
X0186309
X01872615Y0117729
X01891665
X01910715
X01929765
X01948815
X01967865
X01986915
X02005965
X0199644Y0115824
X01986915Y0113919
X01929765
X01938539Y0109854
X01848539
X01872615Y0113919
X0186309Y0115824
X01812544Y01005069
X01805Y00974
X01785Y00957
X01766Y00975
X0175801Y01005069
X0158496Y0105664
X0156746
X0154996
X0153246
X0152912Y0113697
Y0114697
X01528905Y01156169
X0153712Y0115197
Y0114197
X0154512Y0113797
Y0114697
Y0115697
X0152912Y0116897
X0152012Y0115197
Y0114197
X0151112Y0114597
Y0115597
X01491386Y01196454
X01481721Y01217815
X014635Y0119284
Y0118484
X0146304Y0117729
X014635Y0116884
X0145542Y0117348
X014555Y0118884
X0145693Y0112941
X0146693
X0147693
X0147193Y0112141
X0146193
X0146693Y0111241
X0145693
X0147693
X0148293Y0112141
X0159512Y0112617
Y0113697
Y0114697
Y0115697
X0159064Y01222687
X01599813Y01222576
X01608214Y0122301
X0161671
Y01230977
Y01238597
Y01246187
X01608214
X01599813
X0159014
X0157607Y0124587
X01567143Y0124834
X0155264Y01246187
X01543558Y01246217
X0154714Y01238687
X01543812Y01231231
X0155214Y01231187
X01556Y01223
X0154714Y01223687
X0156718Y0122174
X0157607Y0122301
X015748Y0123444
X0133604Y0115856
Y0114856
Y0113856
Y0112776
X01286152Y0113734
Y0114734
Y0115734
X01269937Y01156539
X01270152Y0114734
Y0113734
X01261152Y0115234
X01252152Y0115634
Y0114634
X01236152Y0113834
X01228152Y0114234
Y0115234
X01211152Y0114234
X01211538Y01129354
X01201538
X01206538Y01121354
X01216538
X01227538
X01221538Y01129354
Y01112354
X01211538
X01201538
X01146991Y01154121
X01126991
X01136991Y01174121
X01146991Y01194121
X01126991
X01136991Y01214121
X01056991
X01036991
X01016991
X00996991
X00976991
X00986991Y01194121
X01006991
X01026991
X01046991
X01056991Y01174121
X01036991
X01016991
X00996991
X00976991
X00986991Y01154121
X01006991
X01026991
X01046991
X01027589Y01105148
Y01092369
X0102375Y0107425
X0101727Y0105283
X0101092Y0104902
X01016Y0104267
X00987375Y01045189
Y01038189
Y01031189
Y01024189
Y01016
Y01009
Y01002
Y00995
X0098679Y0098425
X0097979
X0097279
Y0097663
X0097979
X0098679
X00936622Y0102342
X0093751Y01036068
X00937066Y01047015
X00966991Y01154121
Y01194121
X01084412Y01044621
X01084541Y01035835
X01090702Y0104007
X01090085Y01030451
X01090249Y01020654
X01090788Y01010533
X01084576Y01015602
X01084196Y01025418
X01084178Y01005414
X01141376Y01006
Y01013833
Y01021667
Y010295
Y01037333
Y01045167
Y01053
X01276112Y0105664
X01293612
X01311112
X01328612
X0124639Y01195894
X01233179Y01205106
X00896991Y01214121
X00876991
X00856991
X00836991
X00816991
X00826991Y01194121
X00846991
X00866991
X00886991
X00896991Y01174121
X00876991
X00856991
X00836991
X00816991
X00826991Y01154121
X00846991
X00866991
X00886991
X00869376Y01108189
X00865Y01055
X00859Y0105
X00863Y01043
X00846Y01031
X00834376Y01031189
Y01024189
X0083312Y01016
Y0100838
X00834376Y01038189
Y01045189
X0078359Y010414
Y0104902
X007747Y01045845
Y0103759
Y01029335
Y0102108
X0078359Y0102362
Y0103251
X007747Y010541
X00787Y01063
X00781436Y01003722
X0078105Y0098933
X0071628Y0107188
X00709295
X0070231
Y0106426
X00718155Y01155189
X00726991Y01154121
X00746991
X00736991Y01174121
X00746991Y01194121
X00726991
X00736991Y01214121
X0093211Y01041615
X0093248Y01029929
X00932258Y01016467
X00936548Y01009958
X00931667Y01003671
X00936025Y00996389
X00349378Y0107749
X00337378
Y0108949
Y0110149
X00325378
Y0108949
Y0107749
X00349378Y0108949
Y0110149
X00141Y0093975
X00064Y00971998
T03
X00064456Y00604666
X00089856
X00115256
X00140656
X00127956Y00630066
X00102556
X00077156
X00051756
X00153356
X00166056Y00604666
X00206996Y0103379
Y0105919
Y0108459
Y0110999
Y0113539
X00232396Y0114809
Y0112269
Y0109729
Y0107189
Y0104649
T04
X00557357Y00132267
X00582757
X00608157
X00633557
X00658957
X00684357
X02921123Y00151987
X02946523
X02971923
X02997323
Y00177387
X02971923
X02946523
X02921123
X02895723
Y00151987
X02870323
Y00177387
X00684357Y00157667
X00658957
X00633557
X00608157
X00582757
X00557357
T05
X00149856Y00436566
X00175256
X00067956
X00042556
X00038896Y0102459
Y0104999
Y0113189
Y0115729
T06
X006577Y0108
X00657948Y0121048
X00529648Y0122048
X005294Y0109
T07
X00187656Y00516566
X00030156
X00118896Y0101219
Y0116969
T08
X02806824Y00164688
X00493858Y00144968
X0024422Y0042786
X0092822Y0087186
T09
X029952Y00413
X033Y00413
X026904Y00413
X023856
X020808
X01776Y00453
X014712
X011664Y00453
X011514Y00827
X014562Y00827
X01761
X020658Y00867
X023706
X026754
X029802
X03285Y00867
T10
X004044Y00025
X008616Y00025
X014712
X020808
X026904
X033
Y01255
X026904
X020808
X014204Y01255
X008616Y01255
X00252
T11
X00166056Y00477666
X00051756
X00079996Y0103379
Y0114809
M30
