M48
;Layer_Color=9474304
;FILE_FORMAT=2:5
INCH,TZ
;TYPE=PLATED
T1F00S00C0.00787
T2F00S00C0.01181
T3F00S00C0.01968
T4F00S00C0.03307
T5F00S00C0.03504
T6F00S00C0.03937
T7F00S00C0.04000
T8F00S00C0.04016
T9F00S00C0.06417
T10F00S00C0.12598
;TYPE=NON_PLATED
T11F00S00C0.05000
T12F00S00C0.11417
T13F00S00C0.12598
%
T01
X43900Y41700
X47100Y54000
X71752Y54429
X87008Y55906
X85138Y50787
X78600Y34200
X78400Y28700
X138189Y28445
Y31004
Y25886
Y23327
Y20768
Y18209
Y15650
Y10531
X133760Y18012
X130610Y38878
X131201Y43996
X131890Y48819
X133563Y52854
X139322Y53150
Y48425
Y43701
X159055
Y48294
Y53150
X162598
Y39370
X158661Y5512
X172441Y8661
X183465Y12205
X237795Y11811
X239764Y14567
X242126Y16929
X244094Y19685
X254724Y22441
X255512Y24803
X258268Y27165
X262992Y27559
X264567Y24803
X266535Y22441
X276772Y19587
Y17028
Y14469
Y11909
X287402Y23622
X285433Y29528
X261023Y32677
X258661Y32677
X241339Y33071
X233071Y29921
X340945Y49606
X398600Y50097
X401100Y42400
X404600Y55097
X419600Y46800
X418500Y35300
X863386Y29134
X864959Y27559
X866534Y25984
X866929Y40945
X868898Y46063
X868504Y51181
X875984Y35039
X907874Y42520
X1309921Y184252
X1309724Y203150
X1326654Y205118
X1341024Y208661
X1341024Y212205
X1301457Y204724
X1288858Y203150
X1287677Y209055
X1280800Y205300
X1266800Y204800
X1260118Y208858
X1221024Y208661
X1221024Y212205
X1206654Y205118
X1189724Y203150
X1181457Y204724
X1168858Y203150
X1167677Y209055
X1160200Y206500
X1165906Y190354
X1168661Y190551
Y184252
X1189921
X1288661Y184252
Y190551
X1285906Y190354
X1147000Y205100
X1140118Y208858
X1101024Y208661
X1101024Y212205
X1086654Y205118
X1069724Y203150
X1061457Y204724
X1048858Y203150
X1047677Y209055
X1040100Y206100
X1026600Y205400
X1020118Y208858
X1045906Y190354
X1048661Y190551
Y184252
X1069921
X981024Y208661
X981024Y212205
X966654Y205118
X949724Y203150
X941457Y204724
X928858Y203150
X927677Y209055
X919800Y205887
X908029Y204300
X900118Y208858
X861024Y208661
X861024Y212205
X846654Y205118
X925906Y190354
X928661Y190551
Y184252
X949921
X971653Y154724
X907874Y57087
X892518Y57086
X829921Y184252
X820079Y192520
X808661Y190551
X805906Y190354
X808661Y184252
X808858Y203150
X807677Y209055
X800100Y205600
X786800Y205300
X780118Y208858
X762340Y207294
X760532Y206201
X759600Y212200
X821457Y204724
X829724Y203150
X710600Y179800
X707400Y176800
X707600Y174000
X704000Y175197
X690650Y170472
X667900Y179400
X663173Y178527
X618600Y178600
X616800Y180500
X614100
X611500
X608900
X588000Y175900
X582400Y175000
X576200
X575500Y172500
X572700Y169400
X553100Y176800
X546100Y180400
X537992Y177500
X536024
X534055
X532087
X525200Y85700
X538200Y78800
X552400Y77800
X553800Y85900
X558900
X545400Y60200
X603674Y63902
X599474Y72102
X613974Y74702
X625774Y69202
X627374Y85702
X640374Y78802
X654574Y77802
X655974Y85902
X661074
X647574Y60202
X608974Y91302
X600974Y88602
X523600Y69200
X511800Y74700
X497300Y72100
X501500Y63900
X498800Y88600
X506800Y91300
X455000Y67797
X451992Y67689
X427000Y67900
X422000Y68000
X404000Y68200
X399100Y67597
X419291Y118898
X421500Y117797
X424000Y117697
X431496Y119291
X431595Y123031
X439370Y121260
X442300Y118200
X446500Y114597
X434900Y112797
X443600Y126397
X448900
X451575Y127165
X465354Y127953
X465200Y173800
X467100Y177200
X469800Y177800
X472900Y179100
X463600Y178000
X451575Y170276
X481400Y168300
X490500
X494095Y168504
X497638
X492600Y176100
X485700Y179200
X428700Y185200
X416600Y185400
X417500Y126597
X416929Y124409
Y122047
X380315Y211024
X378346
X376378
X374410
X372441Y211024
X370472
X368504
X366535
X353543Y211024
X335315
X333268
X319842Y210827
X300500Y211100
X293701Y211417
X291732
Y209449
X289764Y209449
Y207480
X287795
Y205512
X285827
Y203543
X283858
Y201575
X281890
Y199606
X279921
Y197638
X276969Y205906
Y208071
X274803Y205906
Y203937
X272835
Y201969
X270866
Y200000
X268600Y198000
X266500Y196000
X263386Y192126
X263779Y184646
X266142
X268504
X270866Y184646
X273228
X275787
X277953Y184646
X280709
X282677
X285039Y184646
X287008Y184646
X290945Y184646
X292913Y185827
X294882Y184646
X296850Y185827
X320472Y185827
X335827Y185433
X349213Y185827
X342126Y124803
Y100000
Y74410
X271598Y86102
X266142Y88976
X264000Y87900
X263386Y101969
X262992Y104331
X262205Y107087
X261024Y109449
X258661
X257087Y106693
X255512Y104331
X253937Y101575
X252756Y99213
X252362Y96457
X251969Y94095
X249213Y89370
X238400Y90600
X238500Y85400
X238400Y96000
X238500Y101200
Y106400
Y111500
X232677Y103150
Y97638
X222834Y96850
X220866
X231102Y123622
X267323Y129528
X269291Y127953
X261417Y184646
X247638Y184646
X244882
X241929
X237992Y186417
X235827
X236614Y183858
X233858
X231693Y182087
X228346Y182283
X225984Y180512
X222441Y179921
X223228Y177559
X220866Y181523
X218898Y182283
X216732Y182677
X214567Y183071
X216000Y192300
X221900Y192200
X227800Y192300
X233700Y192600
X241339Y192323
X243504
X247638
X249606
X247638Y194882
X261700Y200509
X261600Y203000
X241732Y178543
X231890Y186220
X229724
X225984Y186417
X223819
X251575Y66535
X186172Y73622
Y78740
Y83858
Y88583
Y93701
X183071
X181890Y99606
X186172Y98819
Y103937
X186221Y109055
X184252Y111811
X175591Y100394
X177165Y88189
X174409Y83465
X179134Y78740
Y73228
X175984
X172835
X169685
X171260Y70866
X174409
X177559
X161300Y74500
Y77000
X161400Y79600
X161411Y82228
Y84684
X161511Y87246
X161500Y89700
Y92500
X155905Y77165
X148425Y74410
X139764Y63779
X139370Y57874
X159055
X161777Y56299
X137008Y84547
X138287Y87303
X133169Y87205
X132480Y82579
X133858Y92913
X134350Y97835
X154724Y117323
X157480Y150787
X159449
X162205Y151181
X164173
X149606Y149606
X147638
X145669Y149212
X149212Y159449
X153000Y168300
X158900
X164800
X165748Y198622
X167913Y198228
X170079Y197835
X172244Y197441
X174409Y197047
X176575Y196654
X178740Y196653
X180906Y195866
X183071Y195669
X185236Y195276
X187402Y194882
X189370Y194291
X191535Y194291
X193307Y192717
X198300Y192200
X204200
X210100
X210236Y183858
X212402Y183465
X208071Y184252
X205906Y184646
X203740Y185039
X201575Y185433
X199409Y185827
X197244Y186221
X195079Y186417
X163583Y199016
X161417Y199409
X159252Y199803
X157087Y200197
X154921Y200591
X152756Y200984
X150984Y202362
X149606Y203937
X148228Y205709
X130700Y205600
X132874Y203346
X131890Y201181
X133071Y199409
X131890Y197638
X133071Y195866
X134055Y193898
X129921Y189370
Y187402
Y185433
Y183465
Y181496
X134100Y179500
X118500Y176700
X122100Y205300
X122244Y207480
X123425Y209449
X122441Y211417
X148031Y187402
X84350Y129921
X84600Y125100
X71400
X68898Y127362
X58500Y129200
X69300Y102100
X78800Y103800
X84350Y99606
X83563Y93012
X84843Y90551
X84000Y78000
X81201Y77854
X84252Y70472
X90800Y70900
X91100Y66200
X83100Y61000
X71555Y69587
Y85630
X88780Y80906
X84800Y110100
X202362Y113779
X49200Y111300
X47000Y101400
Y85700
X47100Y69900
X24803Y276378
X24409Y278740
X30315Y310630
X32283Y308661
X34252Y310630
X36220Y312598
X41339Y314173
X44882Y314173
X51575Y308267
X28346Y323622
X35433Y331102
Y340945
X35315Y351063
X35433Y359842
X27953Y356299
X11024Y361024
Y351181
Y340945
Y331102
X75590Y317717
X69685Y306299
X71653Y303937
X61811Y301575
Y293307
X116400Y290300
X122441Y291732
Y288189
X124016Y294488
X125984Y296850
X124016Y299213
X125984Y301575
X124016Y303937
X130300Y304200
X131496Y307874
Y311811
Y315748
X133858Y313779
Y317717
Y309842
Y305906
X134646Y301969
Y300000
Y298031
Y296063
Y294094
Y292126
Y288189
Y286221
Y284252
Y282283
Y280315
X142900Y280100
X141732Y275984
X143307Y274409
X147400Y272600
X147146Y268996
X148819Y267717
X150007Y265663
X151919Y266571
X140551Y266535
Y264566
X140551Y268504
X143701Y261023
X141000Y257000
X134646Y256693
Y254724
Y252756
Y250787
X134645Y248818
Y246850
X140400Y245000
Y239100
X140500Y233200
X142717Y225000
X144685Y224606
X146850Y224213
X134252Y225591
X132480Y227165
X130118
X128740Y228937
X126575Y229134
X125197Y230906
X123032Y231102
X122200Y233300
X122000Y239100
X122100Y245100
X125000
X126969
X134646Y258661
X122441Y262992
Y266142
X122047Y270472
Y272835
X116500Y274500
Y278500
X115000Y279800
X116142Y268504
Y264567
X116400Y260800
X101969Y251969
Y231496
X123819Y223425
X122638Y221260
X125591Y219488
X123622Y217323
X122441Y215354
X123425Y213386
X140400Y290300
Y304100
Y319800
X140300Y327700
X141500Y329700
X134646Y325590
X125400Y329500
X122200Y327700
Y319900
X157000Y319500
X162900
X168800
X174700
X180600Y319600
X186500Y319500
X192400
X198300
X204200
X210100
X212100Y343400
X206200
X200300
X194300
X188400
X182500
X176600
X170700
X164800
X158900
X153000
X155500Y331300
X153500Y329100
X173228Y347638
X176700Y352100
X171800Y361000
X201600Y360000
X211300Y349100
X93701Y347637
X89370Y348031
X84646Y347638
X82677
X80709Y346457
X78740Y347638
X94095Y352756
Y356693
X153500Y282000
X155600Y284000
X216000Y319500
X222000
X229921Y319291
X231496Y325197
X233858
X235827
X237795
X239764
X241732
X243701
X247638
X251181
X253543
X255512
X257480
X259449
X261700Y325200
X266800Y325300
X269291Y325197
X271260
X273500Y325300
X268110Y332677
X268701Y334800
X268898Y337795
X270866
X272835
X274803
X277100Y337900
X274016Y344094
X276000Y351500
X269700Y366400
X263386Y337795
X261417
X259449
X257480
X255512
X253543
X251575
X249606
X247638
X243701
X237795
X235827
X233858
X231890
X229921
X223800Y337800
X218000Y343400
X218898Y349213
X239900Y351100
X241500Y344100
X238200Y344200
X235900Y359900
X227953Y325197
X249606Y329921
X261400Y312100
X285300Y318800
X288976Y318898
X292125Y318897
X290551Y316929
X293701
X287401Y316929
X290800Y325000
X292700
X294700
X296700
X298700
X300700
Y337900
X298700
X296800Y343400
X294800
X326772Y325772
Y323724
X328400Y321800
X326772Y319866
Y317819
X328400Y316000
X326772Y313961
Y311913
X328200Y310000
X326772Y308055
Y306008
X328000Y304100
X326772Y302150
Y300102
X328200Y298200
X326772Y296244
Y294197
Y290338
Y288291
X329400Y288000
Y290300
X326772Y284433
Y282386
Y278527
Y276480
X327800Y272500
X330300Y271557
Y269510
X326800Y268600
Y256900
X327000Y250900
X329200Y247900
Y245800
X326900Y245000
X327000Y239100
X326800Y227300
X329331Y226378
X331378
X332283Y229236
Y231283
X334567Y227165
X336614
X339600Y233200
X339300Y239100
X345276Y240945
Y242913
X345275Y246850
X345276Y248819
X346800Y250900
X346600Y256800
X345239Y258661
X345276Y260630
X346700Y262700
X348900Y264000
X351000Y263800
X346600Y268600
X345276Y270472
Y272441
Y276378
Y278346
Y282283
Y284252
Y288189
Y290158
Y294094
Y296063
Y300000
Y301969
X345276Y306008
Y308055
X345276Y311811
Y313779
Y317717
Y319685
Y323622
Y325590
X338400Y325700
X337600Y321900
X337400Y315900
X336600Y310100
X336700Y304100
X337900Y298200
X338500Y290300
Y286400
X336700Y272200
X305906Y266717
Y264669
X308268Y260811
Y258764
X308200Y254700
X310255Y255200
X310200Y251800
Y249753
X312992Y243094
Y241047
X310630Y237598
Y235551
X312992Y234449
Y232402
X315354Y231283
Y229236
X317638Y222441
X319685
X316732Y220472
X314685
X308700Y224100
X307200Y225600
X298300Y213300
X295669Y213386
X293701Y213386
X284800Y218900
X286800Y222000
X321200Y215500
X328346Y218110
X330709Y218110
X330118Y214567
X332165
X336339Y214961
X338386
X345276Y217323
Y219291
X346000Y223700
X350590Y224016
X352638
X349488Y227953
X347441
X346100Y235100
Y237100
X329500Y325700
X281496Y287300
X284800Y282200
X427953Y280337
Y278290
Y284764
Y286811
Y291850
Y293898
Y298937
Y300984
X449000Y288200
X456400Y293100
X458500Y293400
X469400Y288300
X475000Y289343
Y291390
X475197Y286102
Y284055
X479752Y282952
X481200Y284400
X480709Y279331
Y277284
X478346Y275394
Y273346
X470000Y272000
X461000
X457100
X448200Y272100
Y276400
X461800
X433800Y228200
X430100
X426700Y220800
X384800Y221000
X379400Y221800
X379500Y223800
Y225800
Y228000
X505800Y364400
X551575Y304921
Y302874
Y298622
Y296575
Y292323
Y290276
Y286024
Y283976
Y278937
Y276890
X568900Y278700
X568200Y272000
X576700Y272200
X581500Y272100
X589800
X589400Y278800
X590200Y290200
X600787Y289173
Y287126
Y282087
Y280039
Y275394
Y273346
Y293425
Y295472
Y299724
Y301772
X568000Y290200
X529100Y272400
X688976Y273031
Y275079
X688200Y270800
X688976Y265630
Y263583
X689000Y259600
X685039Y259331
Y257283
X687000Y280800
X688976Y282480
Y284528
Y291850
Y293898
X687000Y290400
X709449Y291929
Y293976
X709400Y288200
X709449Y284528
Y282480
X709400Y278700
X709449Y275079
Y273031
X709100Y269300
X709449Y265551
Y263504
X709300Y259800
X709449Y256181
Y254134
X772441Y254331
X774409
X776378
X778346
X795668Y253937
X795669Y255905
X795669Y257874
Y259843
X797100Y261700
X795669Y263779
X795669Y265748
X795669Y267717
Y269685
X800787Y276969
X802756
X804724
X806693
X809300Y276800
X816535Y276968
X818504Y276969
X817520Y274803
Y272441
X821063Y273819
Y276181
Y269685
Y267323
X829400Y269400
X829300Y262800
X829100Y256700
X809200
X809000Y262800
X808885Y269285
X804700Y288000
X807800Y291800
X808700Y300300
X809300Y307100
X816200Y294500
X816600Y288600
X829500Y287300
X830600Y290700
X829500Y296300
Y300900
X829100Y307200
X831600Y275400
X826000Y239700
X829600Y232800
X832000Y227400
X834252Y227362
X836417
X820866Y229134
Y231102
Y233071
X819094Y227756
X816535
X808268Y229134
X805906Y229134
X803543
X802756Y227165
X800787
X799606Y230315
X795669Y232283
Y234252
Y236220
Y238386
X795866Y242126
Y244094
Y246063
Y248032
X798000Y252600
X798600Y242300
X812500Y240000
X809000Y232700
X790775Y224186
X779134Y217913
X780118Y215551
Y212598
X774803Y227559
X767534Y223000
X765566
X756988Y216339
X752049Y218504
X750572Y224700
X748603
X746635
X772244Y271654
Y274016
Y276378
Y278740
X787300Y277700
X795000Y286500
X779921Y294882
Y298031
X779920Y301574
X779921Y305118
X715700Y367700
X695100
X818100Y213700
X838189Y228740
X840157Y227362
X841339Y230315
X845276Y234252
Y236221
Y238189
Y240158
X844200Y242100
X845500Y251900
X844600Y262000
X844488Y264567
X853400Y278200
X860827Y280118
X861417Y276575
X862598Y273425
X863780Y269685
X866000Y251000
X861024Y247638
X861024Y245669
X861024Y243307
X860827Y240157
X869685Y230315
X861024Y218110
Y215551
X900118
Y212598
X899134Y217913
X910775Y224265
X915669Y232283
Y234252
Y236220
Y238386
X915866Y242126
Y244094
Y246063
Y248032
X915746Y253937
X915669Y255905
X915669Y257874
Y259843
X917100Y261700
X915669Y263779
X915669Y265748
X915669Y267717
Y269685
X920787Y276969
X922756
X924724
X926693
X929100Y276800
X936535Y276968
X938504Y276969
X937520Y274803
Y272441
X941063Y273819
Y276181
Y269685
Y267323
X949300Y269400
X949400Y262200
X949200Y256700
X946000Y239900
X949300Y232900
X952000Y227400
X954252Y227362
X956417
X958189Y228740
X960157Y227362
X961417Y230315
X965276Y234252
Y236221
Y238189
Y240158
X964200Y242100
X965500Y251900
X964600Y262000
X963200Y263900
X952000Y275800
X949500Y287300
X950700Y290500
X949400Y295900
X949100Y300800
Y307100
X929200Y307000
X929100Y300700
X928300Y297000
X927800Y291800
X924700Y288000
X915000Y286500
X907300Y277700
X892244Y278740
Y276378
Y274016
Y271654
X892441Y254331
X894409
X896378
X898347
X918000Y252600
X918600Y242300
X932500Y239900
X929100Y232800
X928268Y229134
X925906Y229134
X923543
X922756Y227165
X920787
X936535Y227756
X939094
X940866Y229134
Y231102
Y233071
X938100Y213700
X981024Y215551
Y218110
X989764Y230315
X980827Y240157
X981024Y243307
X981024Y245669
X981024Y247638
X986000Y251000
X983780Y269685
X982598Y273425
X981417Y276575
X980827Y280118
X973400Y278200
X968032Y288583
X965669
X963307Y288583
X960945
X959900Y291000
X980827Y294882
Y298425
Y301575
Y305118
X900000Y304725
Y301772
Y298425
Y294882
X886614Y304331
X880020Y291634
X879921Y289370
X869685Y290551
X860827Y294882
Y298425
Y301575
Y305118
X867520Y318701
X879626Y322441
X888681Y333366
Y338189
X889468Y340650
X887598Y344094
X888189Y346850
X882087Y341929
X876589Y340939
X872455
Y345073
X868322Y340939
X872455Y336805
X857185Y337992
X857480Y334744
X857874Y329331
X857185Y341929
X857087Y344193
X857185Y346752
X857480Y349508
X877756Y352854
X880709Y350590
X848032Y288583
X845669
X843307Y288583
X840945
X839900Y291000
X928800Y269300
Y262200
X929100Y256700
X1012441Y254331
X1014409
X1016378
X1018347
X1035669Y253740
X1035669Y255905
X1035669Y257874
Y259843
X1037100Y261700
X1035669Y263779
X1035669Y265748
X1035669Y267717
Y269685
X1040787Y276969
X1042756
X1044724
X1046693
X1049200Y276800
X1056535Y276968
X1058504Y276969
X1057520Y274803
Y272441
X1061063Y273819
Y276181
Y269685
Y267323
X1069300Y269300
X1069800Y262000
X1069200Y256700
X1065900Y239800
X1069100Y232800
X1072000Y227400
X1074252Y227362
X1076417
X1078189Y228740
X1080157Y227362
X1081890Y230315
X1085276Y234252
Y236221
Y238189
Y240158
X1084200Y242100
X1085500Y251900
X1084600Y262000
X1082800Y263700
X1071700Y275600
X1069500Y287300
X1070700Y290800
X1069500Y296100
X1069200Y300800
Y307100
X1049200
Y300700
X1048500Y297000
X1047800Y291800
X1044700Y288000
X1035000Y286500
X1027300Y277700
X1012244Y278740
Y276378
Y274016
Y271654
X1020079Y294488
Y298031
Y301575
Y305118
X1048700Y269300
Y262000
X1049000Y256700
X1038000Y252600
X1035866Y248032
Y246063
Y244094
Y242126
X1038600Y242300
X1035669Y238386
Y236220
Y234252
Y232283
X1040787Y227165
X1042756
X1043543Y229134
X1045905
X1048268Y229134
X1049100Y232700
X1052500Y239700
X1060866Y233071
Y231102
Y229134
X1059094Y227756
X1056535
X1058100Y213700
X1030709Y223622
X1019134Y217913
X1020118Y215551
Y212598
X1101024Y215551
Y218110
X1109449Y230315
X1100827Y240157
X1101024Y243307
X1101024Y245669
X1101024Y247638
X1106000Y251000
X1103780Y269685
X1102598Y273425
X1101417Y276575
X1100827Y280118
X1093400Y278200
X1088031Y288583
X1085669
X1083307Y288583
X1080945
X1079900Y291000
X1100827Y294882
Y298425
Y301575
Y305118
X1140158Y305118
Y301575
Y298425
Y294488
X1132244Y278740
Y276378
Y274016
Y271654
X1132441Y254331
X1134409
X1136378
X1138346
X1147300Y277700
X1139134Y217913
X1140118Y215551
Y212598
X1150775Y222847
X1155669Y232283
Y234252
Y236220
Y238386
X1155866Y242126
Y244094
Y246063
Y248032
X1155669Y253819
X1155669Y255905
X1155669Y257874
Y259843
X1157100Y261700
X1155669Y263779
X1155669Y265748
X1155669Y267717
Y269685
X1160787Y276969
X1162756
X1164724
X1166693
X1169000Y276900
X1176535Y276968
X1178504Y276969
X1177520Y274803
Y272441
X1181063Y273819
Y276181
Y269685
Y267323
X1189300Y269400
X1189500Y262000
X1189300Y256700
X1202300Y263700
X1204300Y261800
X1205500Y251900
X1204200Y242100
X1205276Y240158
Y238189
Y236221
Y234252
X1201968Y230315
X1200157Y227362
X1198189Y228740
X1196417Y227362
X1194252
X1192000Y227400
X1189600Y233200
X1180866Y233071
Y231102
Y229134
X1179094Y227756
X1176535
X1168268Y229134
X1165905Y229134
X1163543
X1162756Y227165
X1160787
X1169200Y232600
X1172500Y239900
X1185800
X1158600Y242300
X1158000Y252600
X1169100Y256700
X1168800Y261900
X1168878Y269292
X1164700Y288000
X1167800Y291800
X1168300Y297000
X1169300Y300800
Y307000
X1189100Y307100
Y300800
X1189700Y296200
X1190600Y290500
X1189500Y287300
X1200945Y288583
X1203307
X1205669Y288583
X1208031
X1199900Y291000
X1191800Y275700
X1213400Y278200
X1220827Y280118
X1221417Y276575
X1222598Y273425
X1223780Y269685
X1226000Y251000
X1221024Y247638
X1221024Y245669
X1221024Y243307
X1220827Y240157
X1221024Y218110
Y215551
X1234252Y230315
X1259134Y217913
X1260118Y215551
Y212598
X1270775Y223320
X1275669Y232283
Y234252
Y236220
Y238386
X1275866Y242126
Y244094
Y246063
Y248032
X1278400Y245500
X1278000Y252600
X1275669Y253819
X1275669Y255905
X1275669Y257874
Y259843
X1277100Y261700
X1275669Y263779
X1275669Y265748
X1275669Y267717
Y269685
X1280787Y276969
X1282756
X1284724
X1286693
X1289200Y276800
X1296535Y276968
X1298504Y276969
X1297520Y274803
Y272441
X1301063Y273819
Y276181
Y269685
Y267323
X1302500Y256600
X1289200Y256700
X1288700Y261900
X1288800Y269300
X1284700Y288000
X1286800Y291100
X1275000Y286500
X1267300Y277700
X1252244Y278740
Y276378
Y274016
Y271654
X1252441Y254331
X1254409
X1256378
X1258346
X1259842Y294488
Y298031
Y301575
Y305118
X1267714Y312598
X1269291Y311024
X1272438Y311023
X1270866Y312598
X1274013Y312598
X1275588Y311023
X1278738
X1277165Y312598
X1280312Y312598
X1283462
X1281887Y311023
X1285039Y311024
X1289000Y307000
X1295800Y300700
X1297000Y298000
X1292500Y245800
X1288900Y232800
X1288268Y229134
X1285905Y229134
X1283543
X1282756Y227165
X1280787
X1296535Y227756
X1299094
X1300866Y229134
Y231102
Y233071
X1298100Y213700
X1178100Y213700
X1155000Y286500
X1220827Y294882
Y298425
Y301575
Y305118
X1309300Y307100
X1309200Y300700
X1309500Y296000
X1310700Y290600
X1309500Y287300
X1320945Y288583
X1323307
X1325669Y288583
X1328032
X1319900Y291000
X1314000Y275700
Y269300
X1314200Y261700
X1322400Y263800
X1324600Y262000
X1325500Y251900
X1324200Y242100
X1325276Y240158
Y238189
Y236221
Y234252
X1321653Y230315
X1320157Y227362
X1318189Y228740
X1316417Y227362
X1314252
X1312000Y227400
X1309600Y233000
X1308400Y239900
X1340827Y240157
X1341024Y243307
X1341024Y245669
X1341024Y247638
X1346000Y251000
X1343780Y269685
X1342598Y273425
X1341417Y276575
X1340827Y280118
X1333400Y278200
X1340827Y294882
Y298425
Y301575
Y305118
X1341024Y218110
Y215551
X1263780Y433071
X1261811
X1253937
X1251968
X1244094
X1242126
X1234252
X1232283
X1224409
X1222441
X1214567
X1212598
X752362Y401575
X739200Y401575
Y398163
Y394751
Y391339
Y387927
Y384514
Y381102
X715700Y380700
Y387200
Y393700
Y400200
X721654Y408268
X704700Y414000
X695100Y400200
Y393700
Y387200
Y380700
Y374200
X715700
X677165Y381102
Y384514
Y387927
Y391339
Y394751
Y398163
Y401575
Y404000
X670100Y402300
X653600
X643701Y375984
X617717Y397638
X609330Y401287
X538189Y416142
X535827
X533465
X531102
X528740
X526378
X524016
X522047Y414567
X509575Y414702
X506032
X507803Y412340
X506032Y409978
X509575
X516536Y422441
X494488
X477362Y395472
X433858Y399114
X429134Y436614
X414961Y432677
X411024
X416536Y446063
X411024Y453150
X384252Y439370
X367323Y418898
X284252Y381496
X181890Y377165
X155512Y396457
X135039
X114961Y398031
X104528Y399606
X96063Y401181
X156693Y431102
X150165Y470409
Y472772
Y475134
X50000Y427165
X35433Y381102
Y371260
X10630
Y381102
T02
X126772Y26378
X128400Y35900
X298981Y56102
X304400Y56200
X334252Y49213
X349276Y47000
X839370Y35039
X865354Y54331
X882283Y50394
Y38583
X900787Y35039
X922441Y54331
X1309900Y171700
X1312100Y186200
X1309400Y197600
X1314899Y209264
X1338800Y177700
X1339600Y159500
X1331400Y154500
X1288500Y171700
X1283300Y189300
X1288800Y196700
X1282600Y209200
X1298700Y210300
X1301400Y209100
X1259842Y176378
X1272800Y163400
X1219700Y159600
X1211500Y154300
X1218898Y176772
X1189900Y171700
X1192100Y186200
X1189400Y197600
X1194899Y209264
X1181400Y209100
X1178700Y210300
X1162800Y209400
X1168800Y196700
X1163300Y189300
X1168500Y171700
X1152900Y163600
X1140158Y176378
X1098819
X1099900Y159700
X1091300Y154400
X1069900Y171700
X1072100Y186200
X1069400Y197600
X1074900Y209300
X1061400Y209100
X1058700Y210300
X1042600Y209200
X1048800Y196700
X1043300Y189300
X1048500Y171700
X1032800Y163400
X1020079Y176378
X979528
X979800Y159500
X949900Y171700
X952100Y186200
X949400Y197600
X954899Y209264
X941400Y209100
X938700Y210300
X922600Y209200
X928800Y196700
X923300Y189300
X928500Y171700
X912800Y163500
X900394Y170866
X859842Y175984
X859600Y159500
X850900Y154200
X854724Y57087
X915353Y57086
X927953Y56299
X829900Y171700
X832100Y186200
X829400Y197600
X834900Y209300
X821400Y209100
X818700Y210300
X802600Y209200
X808800Y196700
X803300Y189300
X808500Y171700
X802400Y163100
X665354Y125984
X659447Y125984
X624409Y126378
X603543
X562992Y125984
X557086Y125984
X522441Y126378
X501575
X452000Y113900
X459449Y106299
X424753Y111760
X419685Y111417
X405512Y109449
X405905Y119685
X407874Y122047
X433000Y185300
X327952Y185433
X309448Y185039
X306693Y185039
X302756
X299606
X257874
X250590Y199803
X256693Y124016
X255600Y116500
X253543Y111417
X268300Y123100
X272400Y89300
X226772Y88189
X229528Y71653
X244094Y70079
X226772Y109843
X298981Y66102
X304300Y66100
X334646Y74410
X349176Y72100
X349276Y98000
X334252Y100000
Y125197
X349276Y123100
X138100Y122700
X125984Y129134
X124300Y110700
X129921Y103150
X128400Y80000
X127165Y70472
X129500Y63900
X129528Y58661
X128346Y191732
X126378Y205512
X50787Y265748
X52362Y270472
X37795Y270472
X32283Y261811
X40157Y258661
X38327Y284665
X43051
Y289390
X38327
Y294114
X43051
X47776
Y289390
Y284665
X44094Y310630
X38189
X21654Y298425
X21654Y295276
X18504Y294094
X17717Y283071
X10236Y323228
X29528Y334646
X18898Y366142
X68898Y358853
X63779Y348031
X87795Y341732
X111417Y339370
X115748Y333563
X115200Y325800
X114961Y321654
X122736Y331594
X134153
X140945Y333661
X134252Y321795
X133465Y350787
X94882Y361024
X81496Y302756
X68504Y301181
X62598Y297637
X62992Y290945
X65354Y288976
X74016
X67716Y266929
X62598Y262598
X98425Y259842
Y238976
X148721Y218898
X327559Y233465
X338583Y244882
X330260Y262740
X329134Y280315
X338386Y280512
X300886Y279724
X300984Y289469
X302756Y312992
X302658Y315945
X301279Y318701
X304134
X304626Y343996
X308563Y343996
X306594Y346457
X302559Y346358
X308268Y353150
X291339
X290846Y337303
X286910Y337205
X288878Y334941
X292815
X276378Y301181
X339764Y359842
X448976Y319685
Y316535
Y313386
X448976Y310236
X448976Y307087
Y303937
Y300787
X448976Y297638
X456063
X456063Y300787
Y303937
Y307087
X456063Y310236
X456063Y313386
Y316535
Y319685
X462362
Y316535
X462362Y313386
X462362Y310236
X462362Y307087
X462362Y303937
X462362Y300787
X462362Y297638
X469449
X469449Y300787
X469449Y303937
X469449Y307087
X469449Y310236
X469449Y313386
X469449Y316535
Y319685
X568976
Y316535
Y313386
X568976Y310236
X568976Y307087
Y303937
Y300787
X568976Y297638
X576063
X576063Y300787
Y303937
Y307087
X576063Y310236
X576063Y313386
Y316535
Y319685
X582362
Y316535
X582362Y313386
X582362Y310236
X582362Y307087
X582363Y303937
X582362Y300787
X582363Y297638
X589449
X589449Y300787
X589449Y303937
X589449Y307087
X589449Y310236
X589449Y313386
X589449Y316535
Y319685
X688976
Y316535
Y313386
X688976Y310236
X688976Y307087
Y303937
Y300787
X688976Y297638
X696063
X696063Y300787
Y303937
Y307087
X696063Y310236
X696063Y313386
Y316535
Y319685
X702362
Y316535
X702362Y313386
X702362Y310236
X702362Y307087
X702362Y303937
X702362Y300787
X702362Y297638
X709449
X709449Y300787
X709449Y303937
X709449Y307087
X709449Y310236
X709449Y313386
X709449Y316535
Y319685
X808976
Y322835
X808976Y325984
X808976Y329134
Y332283
Y335433
X816063
Y332283
Y329134
X816063Y325984
X816063Y322835
Y319685
Y316535
X816063Y313386
X822363
X822362Y316535
X822363Y319685
X822362Y322835
X822362Y325984
X822362Y329134
X822362Y332283
Y335433
X829449
Y332283
X829449Y329134
X829449Y325984
X829449Y322835
X829449Y319685
X829449Y316535
X829449Y313386
X808976
X808976Y316535
X835100Y216700
X846400Y222200
X862200Y221200
Y226700
X866535Y267717
X860630Y284252
X852756
X928976Y313386
X928976Y316535
Y319685
Y322835
X928976Y325984
X928976Y329134
Y332283
Y335433
X936063
Y332283
Y329134
X936063Y325984
X936063Y322835
Y319685
Y316535
X936063Y313386
X942362
X942362Y316535
X942362Y319685
X942362Y322835
X942362Y325984
X942362Y329134
X942362Y332283
Y335433
X949449
Y332283
X949449Y329134
X949449Y325984
X949449Y322835
X949449Y319685
X949449Y316535
X949449Y313386
X972835Y283465
X980709
X986614Y267717
X982200Y226700
Y221200
X966400Y222200
X955100Y216700
X1075100
X1086400Y222200
X1102200Y221200
Y226700
X1106693Y267717
X1100787Y283465
X1092520
X1069449Y313386
X1069449Y316535
X1069449Y319685
X1069449Y322835
X1069449Y325984
X1069449Y329134
X1069449Y332283
Y335433
X1062362
Y332283
X1062362Y329134
X1062362Y325984
X1062362Y322835
X1062362Y319685
X1062362Y316535
X1062362Y313386
X1056063
X1056063Y316535
Y319685
Y322835
X1056063Y325984
X1056063Y329134
Y332283
Y335433
X1048976
Y332283
Y329134
X1048976Y325984
X1048976Y322835
Y319685
Y316535
X1048976Y313386
X1168976
X1168976Y316535
Y319685
Y322835
X1168976Y325984
X1168976Y329134
Y332283
Y335433
X1176063
Y332283
Y329134
X1176063Y325984
X1176063Y322835
Y319685
Y316535
X1176063Y313386
X1182362
X1182362Y316535
X1182362Y319685
X1182362Y322835
X1182362Y325984
X1182362Y329134
X1182362Y332283
Y335433
X1189449
Y332283
X1189449Y329134
X1189449Y325984
X1189449Y322835
X1189449Y319685
X1189449Y316535
X1189449Y313386
X1212598Y283465
X1220866
X1226772Y267717
X1222200Y226700
Y221200
X1206400Y222200
X1195100Y216700
X1288976Y313386
X1288976Y316535
Y319685
Y322835
X1288976Y325984
X1288976Y329134
Y332283
Y335433
X1296063
Y332283
Y329134
X1296063Y325984
X1296063Y322835
Y319685
Y316535
X1296063Y313386
X1302363
X1302362Y316535
X1302363Y319685
X1302362Y322835
X1302362Y325984
X1302362Y329134
X1302362Y332283
Y335433
X1309449
Y332283
X1309449Y329134
X1309449Y325984
X1309449Y322835
X1309449Y319685
X1309449Y316535
X1309449Y313386
X1332677Y283465
X1340945
X1354331Y263779
X1342200Y226700
Y221200
X1326400Y222200
X1315100Y216700
X1283139Y431102
X1283071Y437402
X1273139
Y431102
X1203139
X1203150Y437008
X1193139
Y431102
X753093Y411133
X737345Y406015
X506890Y395669
X500000
X493110
X486221
X485039Y426772
Y430709
X488189Y428740
Y432677
X491339Y434646
Y430709
Y427165
X481496Y428740
Y432677
X477953Y430709
Y426772
X481496Y424803
X465748Y423622
X461811
X457874
X459842Y420472
X463779
X468110
X465748Y416929
X461811
X457874
X451181Y439764
Y442913
Y446063
X448032Y444488
Y441339
Y438189
X444882Y439764
Y442913
Y446063
X448032Y447638
X471260Y450000
X485039Y439370
X493110Y460630
X497047
X500984
X499016Y463583
X495079
X497047Y466535
X493110
X500984
X512008
X510039Y463583
X512008Y460630
X510039Y469488
X513976
X517913
X521850
Y466535
Y463484
X511024Y434646
Y430709
Y426772
Y422835
X413872Y422372
X411903Y424340
X409935Y422372
Y426309
X413872
X401968Y425984
Y429134
Y432283
Y435433
X398819Y433858
X395669
X397244Y437008
X395669Y440158
X398819
X386614Y415354
X383071
X379921
Y411417
Y407480
X383465Y407480
X386614
X376772Y409449
Y413386
X373622Y415354
Y411417
Y407480
X405512Y409055
X426378Y456693
X369685Y454331
X333720Y456496
X328720
X323721
X326220Y461496
X331221
X336221
X333720Y466496
X328720
X323721
X326220Y471496
X331221
X336221
X333720Y476496
X328720
X323721
X326220Y481496
X331221
X336221
X296220
X291220
X286221
X281221
X276220
X271220
X266220
X268721Y476496
X273721
X278720
X283720
X288720
X293721
X296220Y471496
X291220
X286221
X281221
X276220
X271220
X266220
X263720Y466496
X268721
X273721
X278720
X283720
X288720
X293721
X296220Y461496
X291220
X286221
X281221
X276220
X271220
X266220
X263720Y456496
X268721
X273721
X278720
X283720
X288720
X293721
X284390Y441653
X282015Y421880
Y419124
Y416368
X279259Y417943
Y420699
X269823Y420394
Y417638
Y414882
Y412126
Y409370
X250925Y409370
Y412126
Y414882
Y417638
Y420394
X245020
Y417638
Y414882
Y412126
Y409370
X221791Y416457
Y419213
Y421969
X219035Y420787
Y418032
X223366Y442441
X223721Y456496
X228720
X233720
X231221Y461496
X236221
X233720Y466496
X228720
X223721
X218721
X213720
X216220Y471496
X221220
X226220
X231221
X236221
X233720Y476496
X228720
X223721
X218721
X213720
X216220Y481496
X221220
X226220
X231221
X236221
X226220Y461496
X221220
X216220
X213720Y456496
X218721
X263720Y476496
X305650Y420394
Y417638
Y414882
Y412126
Y409370
X311555Y409370
Y412126
Y414882
Y417638
Y420394
X330453
Y417638
Y414882
Y412126
X330453Y409370
X209587
Y412126
Y414882
Y417638
Y420394
X189508
Y417638
Y414882
Y412126
Y409370
X183602Y409370
Y412126
Y414882
Y417638
Y420394
X163917Y408583
X163831Y460945
X171221Y461496
X173721Y466496
X168720
X171221Y471496
X176221
X173721Y476496
X168720
X171221Y481496
X168720Y456496
X173721
X203720
X208720
X211221Y461496
X206221
X208720Y466496
X203720
X206221Y471496
X211221
X208720Y476496
X203720
X206221Y481496
X211221
X143866Y464898
X139142
X134417
X129693
X124969
X127331Y461354
X132055
X136779
X141504
X146228
X143866Y457811
X139142
X134417
X129693
X124969
X130087Y434976
X63386Y370866
X31102Y379134
X29921Y391063
X35039
X35374Y401000
X29469Y400902
T03
X78740Y187008
X77953Y218110
T04
X1179213Y153347
X1299213Y153346
X1059213Y153347
X939213
X819213
X699213Y169095
X579213
X459213Y169095
Y334842
X579213Y334842
X699213
X819213Y350591
X939213
X1059213
X1179213
X1299213Y350590
T05
X25376Y238057
X35376
X45376
X55376
X50376Y248058
X40376
X30376
X20376
X60376
X65376Y238057
T06
X219432Y52074
X229432
X239432
X249432
X259432
X269432
X1150049Y59838
Y69837
X1160048
Y59838
X1170049
Y69837
X1180048
Y59838
X1140049
X1130048
Y69837
X1140049
X269432Y62074
X259432
X249432
X239432
X229432
X219432
T07
X431992Y43609
X441992
X451992
Y53609
X441992
X431992
X505250Y45051
X515250
X525250
X535250
X607424Y45053
X617424
X627424
X637424
X26740Y56491
Y66491
X16740
Y56491
Y76491
Y86491
Y96491
Y106491
Y116491
Y126491
X26740
Y116491
Y106491
Y96491
Y86491
Y76491
X90961Y412425
Y422425
X100961
Y412425
X25256Y412165
X15256
Y422165
Y432165
Y442165
Y452165
X25256
Y442165
Y432165
Y422165
T08
X58999Y171876
X68998
X26754
X16754
T09
X73880Y203373
X11873
T10
X19685Y19685
X728346
X1358268
X1105049Y64838
X194432Y57074
X1358268Y484252
X728346
X19685
T11
X1179213Y162598
X1299213Y162598
X1059213Y162598
X939213
X819213
X699213Y178347
X579213
X459213Y178347
X453307Y325590
X573307Y325591
X693307
X813307Y341339
X933307
X1053307
X1173307
X1293307Y341339
T12
X99213Y9843
X339213
X579213
X819213
X1059213
X1299213
Y494094
X1059213
X819213
X579213
X339213
X99213Y494095
T13
X65376Y188057
X20376
M30
