G04*
G04 #@! TF.GenerationSoftware,Altium Limited,Altium Designer,24.3.1 (35)*
G04*
G04 Layer_Color=8388736*
%FSLAX25Y25*%
%MOIN*%
G70*
G04*
G04 #@! TF.SameCoordinates,071F572A-3A80-4222-8DAF-D26A5D8A3404*
G04*
G04*
G04 #@! TF.FilePolarity,Negative*
G04*
G01*
G75*
G04:AMPARAMS|DCode=43|XSize=57.64mil|YSize=14.8mil|CornerRadius=7.4mil|HoleSize=0mil|Usage=FLASHONLY|Rotation=0.000|XOffset=0mil|YOffset=0mil|HoleType=Round|Shape=RoundedRectangle|*
%AMROUNDEDRECTD43*
21,1,0.05764,0.00000,0,0,0.0*
21,1,0.04284,0.01480,0,0,0.0*
1,1,0.01480,0.02142,0.00000*
1,1,0.01480,-0.02142,0.00000*
1,1,0.01480,-0.02142,0.00000*
1,1,0.01480,0.02142,0.00000*
%
%ADD43ROUNDEDRECTD43*%
%ADD44R,0.05764X0.01480*%
%ADD71R,0.04568X0.00932*%
G04:AMPARAMS|DCode=72|XSize=45.68mil|YSize=9.32mil|CornerRadius=4.66mil|HoleSize=0mil|Usage=FLASHONLY|Rotation=180.000|XOffset=0mil|YOffset=0mil|HoleType=Round|Shape=RoundedRectangle|*
%AMROUNDEDRECTD72*
21,1,0.04568,0.00000,0,0,180.0*
21,1,0.03636,0.00932,0,0,180.0*
1,1,0.00932,-0.01818,0.00000*
1,1,0.00932,0.01818,0.00000*
1,1,0.00932,0.01818,0.00000*
1,1,0.00932,-0.01818,0.00000*
%
%ADD72ROUNDEDRECTD72*%
%ADD73R,0.02115X0.06243*%
G04:AMPARAMS|DCode=74|XSize=62.43mil|YSize=21.15mil|CornerRadius=10.57mil|HoleSize=0mil|Usage=FLASHONLY|Rotation=270.000|XOffset=0mil|YOffset=0mil|HoleType=Round|Shape=RoundedRectangle|*
%AMROUNDEDRECTD74*
21,1,0.06243,0.00000,0,0,270.0*
21,1,0.04129,0.02115,0,0,270.0*
1,1,0.02115,0.00000,-0.02064*
1,1,0.02115,0.00000,0.02064*
1,1,0.02115,0.00000,0.02064*
1,1,0.02115,0.00000,-0.02064*
%
%ADD74ROUNDEDRECTD74*%
G04:AMPARAMS|DCode=75|XSize=59.06mil|YSize=17.72mil|CornerRadius=1.95mil|HoleSize=0mil|Usage=FLASHONLY|Rotation=90.000|XOffset=0mil|YOffset=0mil|HoleType=Round|Shape=RoundedRectangle|*
%AMROUNDEDRECTD75*
21,1,0.05906,0.01382,0,0,90.0*
21,1,0.05516,0.01772,0,0,90.0*
1,1,0.00390,0.00691,0.02758*
1,1,0.00390,0.00691,-0.02758*
1,1,0.00390,-0.00691,-0.02758*
1,1,0.00390,-0.00691,0.02758*
%
%ADD75ROUNDEDRECTD75*%
%ADD111R,0.01835X0.05575*%
%ADD112R,0.07504X0.06244*%
%ADD113C,0.04000*%
%ADD114R,0.05575X0.01835*%
%ADD115R,0.06244X0.07504*%
%ADD116R,0.09118X0.09118*%
G04:AMPARAMS|DCode=117|XSize=20.32mil|YSize=36.06mil|CornerRadius=3.56mil|HoleSize=0mil|Usage=FLASHONLY|Rotation=0.000|XOffset=0mil|YOffset=0mil|HoleType=Round|Shape=RoundedRectangle|*
%AMROUNDEDRECTD117*
21,1,0.02032,0.02894,0,0,0.0*
21,1,0.01319,0.03606,0,0,0.0*
1,1,0.00713,0.00659,-0.01447*
1,1,0.00713,-0.00659,-0.01447*
1,1,0.00713,-0.00659,0.01447*
1,1,0.00713,0.00659,0.01447*
%
%ADD117ROUNDEDRECTD117*%
G04:AMPARAMS|DCode=118|XSize=20.32mil|YSize=36.06mil|CornerRadius=3.56mil|HoleSize=0mil|Usage=FLASHONLY|Rotation=90.000|XOffset=0mil|YOffset=0mil|HoleType=Round|Shape=RoundedRectangle|*
%AMROUNDEDRECTD118*
21,1,0.02032,0.02894,0,0,90.0*
21,1,0.01319,0.03606,0,0,90.0*
1,1,0.00713,0.01447,0.00659*
1,1,0.00713,0.01447,-0.00659*
1,1,0.00713,-0.01447,-0.00659*
1,1,0.00713,-0.01447,0.00659*
%
%ADD118ROUNDEDRECTD118*%
%ADD119R,0.05575X0.04000*%
%ADD120O,0.04197X0.02425*%
%ADD121R,0.02228X0.04197*%
G04:AMPARAMS|DCode=122|XSize=28.58mil|YSize=35.28mil|CornerRadius=4.93mil|HoleSize=0mil|Usage=FLASHONLY|Rotation=90.000|XOffset=0mil|YOffset=0mil|HoleType=Round|Shape=RoundedRectangle|*
%AMROUNDEDRECTD122*
21,1,0.02858,0.02542,0,0,90.0*
21,1,0.01873,0.03528,0,0,90.0*
1,1,0.00985,0.01271,0.00936*
1,1,0.00985,0.01271,-0.00936*
1,1,0.00985,-0.01271,-0.00936*
1,1,0.00985,-0.01271,0.00936*
%
%ADD122ROUNDEDRECTD122*%
G04:AMPARAMS|DCode=123|XSize=28.58mil|YSize=35.28mil|CornerRadius=4.93mil|HoleSize=0mil|Usage=FLASHONLY|Rotation=0.000|XOffset=0mil|YOffset=0mil|HoleType=Round|Shape=RoundedRectangle|*
%AMROUNDEDRECTD123*
21,1,0.02858,0.02542,0,0,0.0*
21,1,0.01873,0.03528,0,0,0.0*
1,1,0.00985,0.00936,-0.01271*
1,1,0.00985,-0.00936,-0.01271*
1,1,0.00985,-0.00936,0.01271*
1,1,0.00985,0.00936,0.01271*
%
%ADD123ROUNDEDRECTD123*%
G04:AMPARAMS|DCode=124|XSize=51.18mil|YSize=23.62mil|CornerRadius=4.92mil|HoleSize=0mil|Usage=FLASHONLY|Rotation=0.000|XOffset=0mil|YOffset=0mil|HoleType=Round|Shape=RoundedRectangle|*
%AMROUNDEDRECTD124*
21,1,0.05118,0.01378,0,0,0.0*
21,1,0.04134,0.02362,0,0,0.0*
1,1,0.00984,0.02067,-0.00689*
1,1,0.00984,-0.02067,-0.00689*
1,1,0.00984,-0.02067,0.00689*
1,1,0.00984,0.02067,0.00689*
%
%ADD124ROUNDEDRECTD124*%
%ADD125R,0.04197X0.02228*%
%ADD126R,0.03263X0.04063*%
%ADD127R,0.03803X0.03410*%
%ADD128R,0.03213X0.03606*%
G04:AMPARAMS|DCode=129|XSize=43.94mil|YSize=65.98mil|CornerRadius=4.65mil|HoleSize=0mil|Usage=FLASHONLY|Rotation=0.000|XOffset=0mil|YOffset=0mil|HoleType=Round|Shape=RoundedRectangle|*
%AMROUNDEDRECTD129*
21,1,0.04394,0.05669,0,0,0.0*
21,1,0.03465,0.06598,0,0,0.0*
1,1,0.00929,0.01732,-0.02835*
1,1,0.00929,-0.01732,-0.02835*
1,1,0.00929,-0.01732,0.02835*
1,1,0.00929,0.01732,0.02835*
%
%ADD129ROUNDEDRECTD129*%
G04:AMPARAMS|DCode=130|XSize=43.94mil|YSize=65.98mil|CornerRadius=4.65mil|HoleSize=0mil|Usage=FLASHONLY|Rotation=90.000|XOffset=0mil|YOffset=0mil|HoleType=Round|Shape=RoundedRectangle|*
%AMROUNDEDRECTD130*
21,1,0.04394,0.05669,0,0,90.0*
21,1,0.03465,0.06598,0,0,90.0*
1,1,0.00929,0.02835,0.01732*
1,1,0.00929,0.02835,-0.01732*
1,1,0.00929,-0.02835,-0.01732*
1,1,0.00929,-0.02835,0.01732*
%
%ADD130ROUNDEDRECTD130*%
%ADD131R,0.14551X0.05063*%
G04:AMPARAMS|DCode=132|XSize=24.25mil|YSize=57.72mil|CornerRadius=2.32mil|HoleSize=0mil|Usage=FLASHONLY|Rotation=90.000|XOffset=0mil|YOffset=0mil|HoleType=Round|Shape=RoundedRectangle|*
%AMROUNDEDRECTD132*
21,1,0.02425,0.05307,0,0,90.0*
21,1,0.01961,0.05772,0,0,90.0*
1,1,0.00465,0.02653,0.00980*
1,1,0.00465,0.02653,-0.00980*
1,1,0.00465,-0.02653,-0.00980*
1,1,0.00465,-0.02653,0.00980*
%
%ADD132ROUNDEDRECTD132*%
G04:AMPARAMS|DCode=133|XSize=19.53mil|YSize=22.28mil|CornerRadius=3.43mil|HoleSize=0mil|Usage=FLASHONLY|Rotation=0.000|XOffset=0mil|YOffset=0mil|HoleType=Round|Shape=RoundedRectangle|*
%AMROUNDEDRECTD133*
21,1,0.01953,0.01542,0,0,0.0*
21,1,0.01266,0.02228,0,0,0.0*
1,1,0.00687,0.00633,-0.00771*
1,1,0.00687,-0.00633,-0.00771*
1,1,0.00687,-0.00633,0.00771*
1,1,0.00687,0.00633,0.00771*
%
%ADD133ROUNDEDRECTD133*%
G04:AMPARAMS|DCode=134|XSize=19.53mil|YSize=22.28mil|CornerRadius=3.43mil|HoleSize=0mil|Usage=FLASHONLY|Rotation=90.000|XOffset=0mil|YOffset=0mil|HoleType=Round|Shape=RoundedRectangle|*
%AMROUNDEDRECTD134*
21,1,0.01953,0.01542,0,0,90.0*
21,1,0.01266,0.02228,0,0,90.0*
1,1,0.00687,0.00771,0.00633*
1,1,0.00687,0.00771,-0.00633*
1,1,0.00687,-0.00771,-0.00633*
1,1,0.00687,-0.00771,0.00633*
%
%ADD134ROUNDEDRECTD134*%
G04:AMPARAMS|DCode=135|XSize=48.27mil|YSize=72.28mil|CornerRadius=8.18mil|HoleSize=0mil|Usage=FLASHONLY|Rotation=90.000|XOffset=0mil|YOffset=0mil|HoleType=Round|Shape=RoundedRectangle|*
%AMROUNDEDRECTD135*
21,1,0.04827,0.05593,0,0,90.0*
21,1,0.03192,0.07228,0,0,90.0*
1,1,0.01635,0.02797,0.01596*
1,1,0.01635,0.02797,-0.01596*
1,1,0.01635,-0.02797,-0.01596*
1,1,0.01635,-0.02797,0.01596*
%
%ADD135ROUNDEDRECTD135*%
G04:AMPARAMS|DCode=136|XSize=10.47mil|YSize=9.29mil|CornerRadius=1.18mil|HoleSize=0mil|Usage=FLASHONLY|Rotation=90.000|XOffset=0mil|YOffset=0mil|HoleType=Round|Shape=RoundedRectangle|*
%AMROUNDEDRECTD136*
21,1,0.01047,0.00693,0,0,90.0*
21,1,0.00811,0.00929,0,0,90.0*
1,1,0.00236,0.00347,0.00406*
1,1,0.00236,0.00347,-0.00406*
1,1,0.00236,-0.00347,-0.00406*
1,1,0.00236,-0.00347,0.00406*
%
%ADD136ROUNDEDRECTD136*%
%ADD137P,0.02762X4X360.0*%
%ADD138R,0.05575X0.05575*%
%ADD139O,0.01244X0.02819*%
G04:AMPARAMS|DCode=140|XSize=36.06mil|YSize=32.13mil|CornerRadius=3.47mil|HoleSize=0mil|Usage=FLASHONLY|Rotation=270.000|XOffset=0mil|YOffset=0mil|HoleType=Round|Shape=RoundedRectangle|*
%AMROUNDEDRECTD140*
21,1,0.03606,0.02520,0,0,270.0*
21,1,0.02913,0.03213,0,0,270.0*
1,1,0.00693,-0.01260,-0.01457*
1,1,0.00693,-0.01260,0.01457*
1,1,0.00693,0.01260,0.01457*
1,1,0.00693,0.01260,-0.01457*
%
%ADD140ROUNDEDRECTD140*%
%ADD141R,0.03213X0.03213*%
G04:AMPARAMS|DCode=142|XSize=51.18mil|YSize=23.62mil|CornerRadius=4.92mil|HoleSize=0mil|Usage=FLASHONLY|Rotation=270.000|XOffset=0mil|YOffset=0mil|HoleType=Round|Shape=RoundedRectangle|*
%AMROUNDEDRECTD142*
21,1,0.05118,0.01378,0,0,270.0*
21,1,0.04134,0.02362,0,0,270.0*
1,1,0.00984,-0.00689,-0.02067*
1,1,0.00984,-0.00689,0.02067*
1,1,0.00984,0.00689,0.02067*
1,1,0.00984,0.00689,-0.02067*
%
%ADD142ROUNDEDRECTD142*%
%ADD143R,0.10102X0.10102*%
%ADD144O,0.01244X0.03410*%
%ADD145O,0.03410X0.01244*%
G04:AMPARAMS|DCode=146|XSize=61.65mil|YSize=53.78mil|CornerRadius=5.63mil|HoleSize=0mil|Usage=FLASHONLY|Rotation=180.000|XOffset=0mil|YOffset=0mil|HoleType=Round|Shape=RoundedRectangle|*
%AMROUNDEDRECTD146*
21,1,0.06165,0.04252,0,0,180.0*
21,1,0.05039,0.05378,0,0,180.0*
1,1,0.01126,-0.02520,0.02126*
1,1,0.01126,0.02520,0.02126*
1,1,0.01126,0.02520,-0.02126*
1,1,0.01126,-0.02520,-0.02126*
%
%ADD146ROUNDEDRECTD146*%
G04:AMPARAMS|DCode=147|XSize=71.5mil|YSize=46.69mil|CornerRadius=4.92mil|HoleSize=0mil|Usage=FLASHONLY|Rotation=90.000|XOffset=0mil|YOffset=0mil|HoleType=Round|Shape=RoundedRectangle|*
%AMROUNDEDRECTD147*
21,1,0.07150,0.03685,0,0,90.0*
21,1,0.06165,0.04669,0,0,90.0*
1,1,0.00984,0.01843,0.03083*
1,1,0.00984,0.01843,-0.03083*
1,1,0.00984,-0.01843,-0.03083*
1,1,0.00984,-0.01843,0.03083*
%
%ADD147ROUNDEDRECTD147*%
G04:AMPARAMS|DCode=148|XSize=30.16mil|YSize=43.94mil|CornerRadius=3.27mil|HoleSize=0mil|Usage=FLASHONLY|Rotation=180.000|XOffset=0mil|YOffset=0mil|HoleType=Round|Shape=RoundedRectangle|*
%AMROUNDEDRECTD148*
21,1,0.03016,0.03740,0,0,180.0*
21,1,0.02362,0.04394,0,0,180.0*
1,1,0.00654,-0.01181,0.01870*
1,1,0.00654,0.01181,0.01870*
1,1,0.00654,0.01181,-0.01870*
1,1,0.00654,-0.01181,-0.01870*
%
%ADD148ROUNDEDRECTD148*%
G04:AMPARAMS|DCode=149|XSize=47.87mil|YSize=40mil|CornerRadius=4.25mil|HoleSize=0mil|Usage=FLASHONLY|Rotation=180.000|XOffset=0mil|YOffset=0mil|HoleType=Round|Shape=RoundedRectangle|*
%AMROUNDEDRECTD149*
21,1,0.04787,0.03150,0,0,180.0*
21,1,0.03937,0.04000,0,0,180.0*
1,1,0.00850,-0.01968,0.01575*
1,1,0.00850,0.01968,0.01575*
1,1,0.00850,0.01968,-0.01575*
1,1,0.00850,-0.01968,-0.01575*
%
%ADD149ROUNDEDRECTD149*%
G04:AMPARAMS|DCode=150|XSize=75.43mil|YSize=53.78mil|CornerRadius=5.63mil|HoleSize=0mil|Usage=FLASHONLY|Rotation=180.000|XOffset=0mil|YOffset=0mil|HoleType=Round|Shape=RoundedRectangle|*
%AMROUNDEDRECTD150*
21,1,0.07543,0.04252,0,0,180.0*
21,1,0.06417,0.05378,0,0,180.0*
1,1,0.01126,-0.03209,0.02126*
1,1,0.01126,0.03209,0.02126*
1,1,0.01126,0.03209,-0.02126*
1,1,0.01126,-0.03209,-0.02126*
%
%ADD150ROUNDEDRECTD150*%
G04:AMPARAMS|DCode=151|XSize=40mil|YSize=58.5mil|CornerRadius=6.81mil|HoleSize=0mil|Usage=FLASHONLY|Rotation=90.000|XOffset=0mil|YOffset=0mil|HoleType=Round|Shape=RoundedRectangle|*
%AMROUNDEDRECTD151*
21,1,0.04000,0.04488,0,0,90.0*
21,1,0.02638,0.05850,0,0,90.0*
1,1,0.01362,0.02244,0.01319*
1,1,0.01362,0.02244,-0.01319*
1,1,0.01362,-0.02244,-0.01319*
1,1,0.01362,-0.02244,0.01319*
%
%ADD151ROUNDEDRECTD151*%
G04:AMPARAMS|DCode=152|XSize=43.94mil|YSize=36.06mil|CornerRadius=3.86mil|HoleSize=0mil|Usage=FLASHONLY|Rotation=90.000|XOffset=0mil|YOffset=0mil|HoleType=Round|Shape=RoundedRectangle|*
%AMROUNDEDRECTD152*
21,1,0.04394,0.02835,0,0,90.0*
21,1,0.03622,0.03606,0,0,90.0*
1,1,0.00772,0.01417,0.01811*
1,1,0.00772,0.01417,-0.01811*
1,1,0.00772,-0.01417,-0.01811*
1,1,0.00772,-0.01417,0.01811*
%
%ADD152ROUNDEDRECTD152*%
G04:AMPARAMS|DCode=153|XSize=43.94mil|YSize=26.22mil|CornerRadius=2.87mil|HoleSize=0mil|Usage=FLASHONLY|Rotation=90.000|XOffset=0mil|YOffset=0mil|HoleType=Round|Shape=RoundedRectangle|*
%AMROUNDEDRECTD153*
21,1,0.04394,0.02047,0,0,90.0*
21,1,0.03819,0.02622,0,0,90.0*
1,1,0.00575,0.01024,0.01909*
1,1,0.00575,0.01024,-0.01909*
1,1,0.00575,-0.01024,-0.01909*
1,1,0.00575,-0.01024,0.01909*
%
%ADD153ROUNDEDRECTD153*%
%ADD154R,0.16756X0.15063*%
%ADD155O,0.02425X0.07937*%
%ADD156R,0.18567X0.04709*%
G04:AMPARAMS|DCode=157|XSize=62.44mil|YSize=74.65mil|CornerRadius=2.17mil|HoleSize=0mil|Usage=FLASHONLY|Rotation=180.000|XOffset=0mil|YOffset=0mil|HoleType=Round|Shape=RoundedRectangle|*
%AMROUNDEDRECTD157*
21,1,0.06244,0.07031,0,0,180.0*
21,1,0.05810,0.07465,0,0,180.0*
1,1,0.00434,-0.02905,0.03515*
1,1,0.00434,0.02905,0.03515*
1,1,0.00434,0.02905,-0.03515*
1,1,0.00434,-0.02905,-0.03515*
%
%ADD157ROUNDEDRECTD157*%
G04:AMPARAMS|DCode=158|XSize=12.44mil|YSize=53.78mil|CornerRadius=2.26mil|HoleSize=0mil|Usage=FLASHONLY|Rotation=270.000|XOffset=0mil|YOffset=0mil|HoleType=Round|Shape=RoundedRectangle|*
%AMROUNDEDRECTD158*
21,1,0.01244,0.04925,0,0,270.0*
21,1,0.00791,0.05378,0,0,270.0*
1,1,0.00453,-0.02463,-0.00396*
1,1,0.00453,-0.02463,0.00396*
1,1,0.00453,0.02463,0.00396*
1,1,0.00453,0.02463,-0.00396*
%
%ADD158ROUNDEDRECTD158*%
%ADD159O,0.02425X0.04394*%
%ADD160R,0.06165X0.05181*%
%ADD161R,0.08528X0.20142*%
G04:AMPARAMS|DCode=162|XSize=34.1mil|YSize=11.26mil|CornerRadius=2.07mil|HoleSize=0mil|Usage=FLASHONLY|Rotation=180.000|XOffset=0mil|YOffset=0mil|HoleType=Round|Shape=RoundedRectangle|*
%AMROUNDEDRECTD162*
21,1,0.03410,0.00712,0,0,180.0*
21,1,0.02996,0.01126,0,0,180.0*
1,1,0.00414,-0.01498,0.00356*
1,1,0.00414,0.01498,0.00356*
1,1,0.00414,0.01498,-0.00356*
1,1,0.00414,-0.01498,-0.00356*
%
%ADD162ROUNDEDRECTD162*%
G04:AMPARAMS|DCode=163|XSize=37.24mil|YSize=12.44mil|CornerRadius=1.5mil|HoleSize=0mil|Usage=FLASHONLY|Rotation=0.000|XOffset=0mil|YOffset=0mil|HoleType=Round|Shape=RoundedRectangle|*
%AMROUNDEDRECTD163*
21,1,0.03724,0.00945,0,0,0.0*
21,1,0.03425,0.01244,0,0,0.0*
1,1,0.00299,0.01713,-0.00472*
1,1,0.00299,-0.01713,-0.00472*
1,1,0.00299,-0.01713,0.00472*
1,1,0.00299,0.01713,0.00472*
%
%ADD163ROUNDEDRECTD163*%
G04:AMPARAMS|DCode=164|XSize=159mil|YSize=54mil|CornerRadius=9.5mil|HoleSize=0mil|Usage=FLASHONLY|Rotation=180.000|XOffset=0mil|YOffset=0mil|HoleType=Round|Shape=RoundedRectangle|*
%AMROUNDEDRECTD164*
21,1,0.15900,0.03500,0,0,180.0*
21,1,0.14000,0.05400,0,0,180.0*
1,1,0.01900,-0.07000,0.01750*
1,1,0.01900,0.07000,0.01750*
1,1,0.01900,0.07000,-0.01750*
1,1,0.01900,-0.07000,-0.01750*
%
%ADD164ROUNDEDRECTD164*%
%ADD165O,0.07937X0.02425*%
%ADD166R,0.09315X0.06756*%
%ADD167R,0.08528X0.08724*%
%ADD168R,0.08724X0.08528*%
G04:AMPARAMS|DCode=169|XSize=48.27mil|YSize=72.28mil|CornerRadius=8.18mil|HoleSize=0mil|Usage=FLASHONLY|Rotation=180.000|XOffset=0mil|YOffset=0mil|HoleType=Round|Shape=RoundedRectangle|*
%AMROUNDEDRECTD169*
21,1,0.04827,0.05593,0,0,180.0*
21,1,0.03192,0.07228,0,0,180.0*
1,1,0.01635,-0.01596,0.02797*
1,1,0.01635,0.01596,0.02797*
1,1,0.01635,0.01596,-0.02797*
1,1,0.01635,-0.01596,-0.02797*
%
%ADD169ROUNDEDRECTD169*%
%ADD170R,0.06165X0.09315*%
G04:AMPARAMS|DCode=171|XSize=26.22mil|YSize=8.5mil|CornerRadius=1.1mil|HoleSize=0mil|Usage=FLASHONLY|Rotation=90.000|XOffset=0mil|YOffset=0mil|HoleType=Round|Shape=RoundedRectangle|*
%AMROUNDEDRECTD171*
21,1,0.02622,0.00630,0,0,90.0*
21,1,0.02402,0.00850,0,0,90.0*
1,1,0.00221,0.00315,0.01201*
1,1,0.00221,0.00315,-0.01201*
1,1,0.00221,-0.00315,-0.01201*
1,1,0.00221,-0.00315,0.01201*
%
%ADD171ROUNDEDRECTD171*%
G04:AMPARAMS|DCode=172|XSize=26.22mil|YSize=8.5mil|CornerRadius=1.1mil|HoleSize=0mil|Usage=FLASHONLY|Rotation=0.000|XOffset=0mil|YOffset=0mil|HoleType=Round|Shape=RoundedRectangle|*
%AMROUNDEDRECTD172*
21,1,0.02622,0.00630,0,0,0.0*
21,1,0.02402,0.00850,0,0,0.0*
1,1,0.00221,0.01201,-0.00315*
1,1,0.00221,-0.01201,-0.00315*
1,1,0.00221,-0.01201,0.00315*
1,1,0.00221,0.01201,0.00315*
%
%ADD172ROUNDEDRECTD172*%
G04:AMPARAMS|DCode=173|XSize=30.16mil|YSize=8.5mil|CornerRadius=1.1mil|HoleSize=0mil|Usage=FLASHONLY|Rotation=180.000|XOffset=0mil|YOffset=0mil|HoleType=Round|Shape=RoundedRectangle|*
%AMROUNDEDRECTD173*
21,1,0.03016,0.00630,0,0,180.0*
21,1,0.02795,0.00850,0,0,180.0*
1,1,0.00221,-0.01398,0.00315*
1,1,0.00221,0.01398,0.00315*
1,1,0.00221,0.01398,-0.00315*
1,1,0.00221,-0.01398,-0.00315*
%
%ADD173ROUNDEDRECTD173*%
G04:AMPARAMS|DCode=174|XSize=37.24mil|YSize=12.44mil|CornerRadius=1.5mil|HoleSize=0mil|Usage=FLASHONLY|Rotation=270.000|XOffset=0mil|YOffset=0mil|HoleType=Round|Shape=RoundedRectangle|*
%AMROUNDEDRECTD174*
21,1,0.03724,0.00945,0,0,270.0*
21,1,0.03425,0.01244,0,0,270.0*
1,1,0.00299,-0.00472,-0.01713*
1,1,0.00299,-0.00472,0.01713*
1,1,0.00299,0.00472,0.01713*
1,1,0.00299,0.00472,-0.01713*
%
%ADD174ROUNDEDRECTD174*%
%ADD175R,0.04000X0.05575*%
%ADD176R,0.04787X0.04000*%
%ADD177O,0.04197X0.01835*%
%ADD178R,0.24079X0.24079*%
G04:AMPARAMS|DCode=179|XSize=34.1mil|YSize=11.26mil|CornerRadius=2.07mil|HoleSize=0mil|Usage=FLASHONLY|Rotation=90.000|XOffset=0mil|YOffset=0mil|HoleType=Round|Shape=RoundedRectangle|*
%AMROUNDEDRECTD179*
21,1,0.03410,0.00712,0,0,90.0*
21,1,0.02996,0.01126,0,0,90.0*
1,1,0.00414,0.00356,0.01498*
1,1,0.00414,0.00356,-0.01498*
1,1,0.00414,-0.00356,-0.01498*
1,1,0.00414,-0.00356,0.01498*
%
%ADD179ROUNDEDRECTD179*%
G04:AMPARAMS|DCode=180|XSize=16.77mil|YSize=21.89mil|CornerRadius=2.98mil|HoleSize=0mil|Usage=FLASHONLY|Rotation=90.000|XOffset=0mil|YOffset=0mil|HoleType=Round|Shape=RoundedRectangle|*
%AMROUNDEDRECTD180*
21,1,0.01677,0.01593,0,0,90.0*
21,1,0.01082,0.02189,0,0,90.0*
1,1,0.00596,0.00797,0.00541*
1,1,0.00596,0.00797,-0.00541*
1,1,0.00596,-0.00797,-0.00541*
1,1,0.00596,-0.00797,0.00541*
%
%ADD180ROUNDEDRECTD180*%
%ADD181O,0.03567X0.12110*%
%ADD182R,0.21126X0.33685*%
%ADD183R,0.17268X0.17268*%
%ADD184O,0.01087X0.03370*%
%ADD185O,0.03370X0.01087*%
%ADD186O,0.04394X0.02425*%
%ADD187O,0.02425X0.04197*%
%ADD188R,0.25260X0.04000*%
%ADD189R,0.25260X0.04000*%
%ADD190C,0.00063*%
%ADD191R,0.06087X0.06087*%
%ADD192C,0.06165*%
%ADD193C,0.02622*%
%ADD194R,0.08465X0.08465*%
%ADD195C,0.08465*%
%ADD196C,0.13055*%
%ADD197C,0.29591*%
G36*
X270092Y447246D02*
X269092D01*
X266692Y449646D01*
X269092Y452046D01*
X270092D01*
Y447246D01*
D02*
G37*
G36*
X266492Y449646D02*
X268892Y447246D01*
X265092D01*
Y449646D01*
Y452046D01*
X268892D01*
X266492Y449646D01*
D02*
G37*
G36*
X389953Y31920D02*
X389960Y31915D01*
X389964Y31913D01*
Y31912D01*
X389964D01*
X389966Y31909D01*
X389970Y31902D01*
X389973Y31890D01*
X389973Y30906D01*
X389971Y30893D01*
X389964Y30883D01*
X389964D01*
Y30883D01*
X389953Y30876D01*
X389941Y30874D01*
X389488Y30873D01*
D01*
X389488D01*
X389476Y30876D01*
X389465Y30883D01*
X388560Y31788D01*
X388555Y31795D01*
X388553Y31799D01*
X388551Y31811D01*
Y31890D01*
X388553Y31902D01*
X388560Y31912D01*
X388570Y31919D01*
X388583Y31922D01*
X389941Y31922D01*
D01*
D01*
X389941D01*
X389953Y31920D01*
D02*
G37*
G36*
X385650Y31922D02*
X387008Y31922D01*
X387020Y31919D01*
X387031Y31912D01*
X387038Y31902D01*
X387040Y31890D01*
Y31811D01*
X387038Y31799D01*
X387035Y31795D01*
X387031Y31788D01*
X386125Y30883D01*
X386115Y30876D01*
X386102Y30873D01*
X386102D01*
D01*
X385649Y30874D01*
X385637Y30876D01*
X385627Y30883D01*
Y30883D01*
X385627D01*
X385620Y30893D01*
X385617Y30906D01*
X385618Y31890D01*
X385620Y31902D01*
X385625Y31909D01*
X385627Y31912D01*
X385627D01*
Y31913D01*
X385631Y31915D01*
X385637Y31920D01*
X385650Y31922D01*
X385650D01*
D01*
D01*
D02*
G37*
G36*
X389941Y29363D02*
X389953Y29360D01*
X389964Y29353D01*
Y29353D01*
X389964D01*
X389971Y29343D01*
X389973Y29331D01*
X389973Y28346D01*
X389970Y28334D01*
X389966Y28327D01*
X389964Y28324D01*
X389964D01*
Y28324D01*
X389960Y28321D01*
X389953Y28317D01*
X389941Y28314D01*
X389941D01*
D01*
D01*
X388583Y28314D01*
X388570Y28317D01*
X388560Y28324D01*
X388553Y28334D01*
X388551Y28346D01*
Y28425D01*
X388553Y28438D01*
X388555Y28441D01*
X388560Y28448D01*
X389465Y29353D01*
X389476Y29360D01*
X389488Y29363D01*
X389488D01*
D01*
X389941Y29363D01*
D02*
G37*
G36*
X386115Y29360D02*
X386125Y29353D01*
X387031Y28448D01*
X387035Y28441D01*
X387038Y28438D01*
X387040Y28425D01*
Y28346D01*
X387038Y28334D01*
X387031Y28324D01*
X387020Y28317D01*
X387008Y28314D01*
X385650Y28314D01*
D01*
D01*
X385650D01*
X385637Y28317D01*
X385631Y28321D01*
X385627Y28324D01*
Y28324D01*
X385627D01*
X385625Y28327D01*
X385620Y28334D01*
X385618Y28346D01*
X385617Y29331D01*
X385620Y29343D01*
X385627Y29353D01*
X385627D01*
Y29353D01*
X385637Y29360D01*
X385649Y29363D01*
X386102Y29363D01*
D01*
X386102D01*
X386115Y29360D01*
D02*
G37*
D43*
X259922Y487992D02*
D03*
Y482874D02*
D03*
X253464D02*
D03*
Y485433D02*
D03*
X226851Y487992D02*
D03*
Y482874D02*
D03*
X220393D02*
D03*
Y485433D02*
D03*
D44*
X253464Y487992D02*
D03*
X220393D02*
D03*
D71*
X101874Y249016D02*
D03*
D72*
Y250984D02*
D03*
Y252953D02*
D03*
Y254921D02*
D03*
X91040D02*
D03*
Y252953D02*
D03*
Y250984D02*
D03*
Y249016D02*
D03*
D73*
X69213Y213582D02*
D03*
X63307Y300196D02*
D03*
D74*
X64213Y213582D02*
D03*
X59213D02*
D03*
X54213D02*
D03*
X49213D02*
D03*
X44213D02*
D03*
X39213D02*
D03*
X34213D02*
D03*
X29213D02*
D03*
Y176182D02*
D03*
X34213D02*
D03*
X39213D02*
D03*
X44213D02*
D03*
X49213D02*
D03*
X54213D02*
D03*
X59213D02*
D03*
X64213D02*
D03*
X69213D02*
D03*
X63307Y262796D02*
D03*
X58307D02*
D03*
X53307D02*
D03*
X48307D02*
D03*
X43307D02*
D03*
X38307D02*
D03*
X33307D02*
D03*
X28307D02*
D03*
X23307D02*
D03*
Y300196D02*
D03*
X28307D02*
D03*
X33307D02*
D03*
X38307D02*
D03*
X43307D02*
D03*
X48307D02*
D03*
X53307D02*
D03*
X58307D02*
D03*
D75*
X82185Y266811D02*
D03*
X84744D02*
D03*
X87303D02*
D03*
X89862D02*
D03*
X92421D02*
D03*
Y289646D02*
D03*
X89862D02*
D03*
X87303D02*
D03*
X84744D02*
D03*
X82185D02*
D03*
X79626D02*
D03*
X77067D02*
D03*
X74508D02*
D03*
Y266811D02*
D03*
X77067D02*
D03*
X79626D02*
D03*
D111*
X550138Y337402D02*
D03*
X547579D02*
D03*
X545020D02*
D03*
X542461D02*
D03*
Y320079D02*
D03*
X545020D02*
D03*
X547579D02*
D03*
X550138D02*
D03*
X197598Y66142D02*
D03*
X195039D02*
D03*
X192480D02*
D03*
X189921D02*
D03*
Y48819D02*
D03*
X192480D02*
D03*
X195039D02*
D03*
X197598D02*
D03*
X1339350Y353150D02*
D03*
X1336791D02*
D03*
X1334232D02*
D03*
X1331673D02*
D03*
Y335827D02*
D03*
X1334232D02*
D03*
X1336791D02*
D03*
X1339350D02*
D03*
X1219350Y353150D02*
D03*
X1216791D02*
D03*
X1214232D02*
D03*
X1211673D02*
D03*
Y335827D02*
D03*
X1214232D02*
D03*
X1216791D02*
D03*
X1219350D02*
D03*
X1099350Y353150D02*
D03*
X1096791D02*
D03*
X1094232D02*
D03*
X1091673D02*
D03*
Y335827D02*
D03*
X1094232D02*
D03*
X1096791D02*
D03*
X1099350D02*
D03*
X979350Y353150D02*
D03*
X976791D02*
D03*
X974232D02*
D03*
X971673D02*
D03*
Y335827D02*
D03*
X974232D02*
D03*
X976791D02*
D03*
X979350D02*
D03*
X859350D02*
D03*
X856791D02*
D03*
X854232D02*
D03*
X851673D02*
D03*
Y353150D02*
D03*
X854232D02*
D03*
X856791D02*
D03*
X859350D02*
D03*
X739351Y337402D02*
D03*
X736791D02*
D03*
X734232D02*
D03*
X731673D02*
D03*
Y320079D02*
D03*
X734232D02*
D03*
X736791D02*
D03*
X739351D02*
D03*
X619350Y337402D02*
D03*
X616791D02*
D03*
X614232D02*
D03*
X611673D02*
D03*
Y320079D02*
D03*
X614232D02*
D03*
X616791D02*
D03*
X619350D02*
D03*
D112*
X546299Y328740D02*
D03*
X193760Y57480D02*
D03*
X1335512Y344488D02*
D03*
X1215512D02*
D03*
X1095512D02*
D03*
X975512D02*
D03*
X855512D02*
D03*
X735512Y328740D02*
D03*
X615512D02*
D03*
D113*
X716288Y29933D02*
D03*
X280315Y467323D02*
D03*
X9985Y117608D02*
D03*
X5516Y127521D02*
D03*
X216339Y478543D02*
D03*
X249410D02*
D03*
X723575Y222417D02*
D03*
X383858Y25197D02*
D03*
X391732Y25197D02*
D03*
X425197Y28937D02*
D03*
X183071Y83071D02*
D03*
X531335Y432341D02*
D03*
X571836Y469441D02*
D03*
X696003Y461840D02*
D03*
X655503Y424740D02*
D03*
X679450Y225984D02*
D03*
X559450Y225984D02*
D03*
X439450Y225984D02*
D03*
X603669Y221717D02*
D03*
X483669Y221717D02*
D03*
X561024Y216142D02*
D03*
X438605Y216467D02*
D03*
X679450Y216535D02*
D03*
X597669Y212968D02*
D03*
X674575Y222047D02*
D03*
X554575D02*
D03*
X434575D02*
D03*
X477669Y187772D02*
D03*
X1316614Y172835D02*
D03*
X1196614Y172835D02*
D03*
X1076614Y172835D02*
D03*
X956614D02*
D03*
X836614Y172835D02*
D03*
X717669Y235016D02*
D03*
X679450Y235433D02*
D03*
X717669Y187772D02*
D03*
X597669Y235016D02*
D03*
X559450Y235433D02*
D03*
X597669Y187772D02*
D03*
X477669Y235016D02*
D03*
X439450Y235433D02*
D03*
X756788Y67033D02*
D03*
X263276Y194571D02*
D03*
X1281375Y185039D02*
D03*
X1284724Y203937D02*
D03*
X1316614Y183071D02*
D03*
X1161375Y185039D02*
D03*
X1164724Y203937D02*
D03*
X1196614Y183071D02*
D03*
X1044724Y203937D02*
D03*
X1076614Y183071D02*
D03*
X921375Y185039D02*
D03*
X924724Y203937D02*
D03*
X956614Y183071D02*
D03*
X954646Y203937D02*
D03*
X916213Y179969D02*
D03*
X959764Y177953D02*
D03*
X1041375Y185039D02*
D03*
X1074646Y203937D02*
D03*
X1036213Y179969D02*
D03*
X1079764Y177953D02*
D03*
X1194646Y203937D02*
D03*
X1156213Y179969D02*
D03*
X1199764Y177953D02*
D03*
X1314646Y203937D02*
D03*
X1276213Y179969D02*
D03*
X1319764Y177953D02*
D03*
X836614Y183071D02*
D03*
X804724Y203937D02*
D03*
X812660Y423874D02*
D03*
X872802Y422594D02*
D03*
X453445Y423382D02*
D03*
X839764Y177953D02*
D03*
X796213Y179969D02*
D03*
X717669Y202969D02*
D03*
X597669Y203059D02*
D03*
X477669Y203150D02*
D03*
X724669Y206134D02*
D03*
X604669D02*
D03*
X484669Y206299D02*
D03*
X717669Y212968D02*
D03*
X477669Y212968D02*
D03*
X724669Y215968D02*
D03*
X604669D02*
D03*
X484669Y215968D02*
D03*
X346063Y451998D02*
D03*
X305563Y414898D02*
D03*
X834646Y203937D02*
D03*
X801375Y185039D02*
D03*
D114*
X115354Y375886D02*
D03*
Y373327D02*
D03*
Y370768D02*
D03*
Y368209D02*
D03*
X132677D02*
D03*
Y370768D02*
D03*
Y373327D02*
D03*
Y375886D02*
D03*
D115*
X124016Y372047D02*
D03*
D116*
X695276Y450921D02*
D03*
X677559D02*
D03*
X327619Y441079D02*
D03*
X345336D02*
D03*
X533213Y444409D02*
D03*
X550929D02*
D03*
X737194Y54964D02*
D03*
X754911D02*
D03*
D117*
X668976Y422575D02*
D03*
X674724D02*
D03*
X305477Y406583D02*
D03*
X299729D02*
D03*
X324784Y412732D02*
D03*
X319036D02*
D03*
X720905Y79980D02*
D03*
X715158D02*
D03*
X1260630Y331496D02*
D03*
X1266378D02*
D03*
X1140630Y330315D02*
D03*
X1146378D02*
D03*
X1020630D02*
D03*
X1026378D02*
D03*
X900630Y330315D02*
D03*
X906378D02*
D03*
X786378D02*
D03*
X780630D02*
D03*
X666378Y314567D02*
D03*
X660630D02*
D03*
X420630Y318268D02*
D03*
X426378D02*
D03*
X568583Y360236D02*
D03*
X574331D02*
D03*
X714449Y226772D02*
D03*
X720197D02*
D03*
X474567D02*
D03*
X480315D02*
D03*
X594449D02*
D03*
X600197D02*
D03*
X405236Y77165D02*
D03*
X399488D02*
D03*
X406575Y25000D02*
D03*
X412323D02*
D03*
X424016Y86614D02*
D03*
X429764D02*
D03*
X69961Y247244D02*
D03*
X75709D02*
D03*
X261386Y316736D02*
D03*
X267134D02*
D03*
X261386Y311224D02*
D03*
X267134D02*
D03*
X134764Y357087D02*
D03*
X129016D02*
D03*
X103819Y373228D02*
D03*
X109567D02*
D03*
X119410Y362205D02*
D03*
X113661D02*
D03*
X251819Y316736D02*
D03*
X257567D02*
D03*
X588504Y468307D02*
D03*
X582756D02*
D03*
X515811Y474724D02*
D03*
X510063D02*
D03*
X522491Y471998D02*
D03*
X528239D02*
D03*
X553764Y472756D02*
D03*
X559512D02*
D03*
X659961Y475984D02*
D03*
X654213D02*
D03*
X712677Y420606D02*
D03*
X718425D02*
D03*
X705997Y423333D02*
D03*
X700249D02*
D03*
X247677Y79398D02*
D03*
X253425D02*
D03*
X23110Y247736D02*
D03*
X28858D02*
D03*
X23110Y242421D02*
D03*
X28858D02*
D03*
X1253930Y465168D02*
D03*
X1259678D02*
D03*
Y459667D02*
D03*
X1253930D02*
D03*
X1151026Y424167D02*
D03*
X1156774D02*
D03*
Y419167D02*
D03*
X1151026D02*
D03*
X772312Y24649D02*
D03*
X778060D02*
D03*
X765632Y27376D02*
D03*
X759884D02*
D03*
X734360Y26618D02*
D03*
X728612D02*
D03*
X226496Y474803D02*
D03*
X220748D02*
D03*
X259567D02*
D03*
X253819D02*
D03*
X305630Y377162D02*
D03*
X299882D02*
D03*
X332071Y377463D02*
D03*
X337819D02*
D03*
X366631Y377482D02*
D03*
X372379D02*
D03*
X400347Y377428D02*
D03*
X406095D02*
D03*
X345945Y193842D02*
D03*
X351693D02*
D03*
X305413Y467598D02*
D03*
X311161D02*
D03*
X350309Y413491D02*
D03*
X356057D02*
D03*
X368485Y410764D02*
D03*
X362737D02*
D03*
X283767Y314703D02*
D03*
X272271D02*
D03*
X278019D02*
D03*
D118*
X300257Y417969D02*
D03*
Y412220D02*
D03*
X405497Y425754D02*
D03*
Y420006D02*
D03*
X420630Y314173D02*
D03*
Y308425D02*
D03*
X1140630Y326220D02*
D03*
Y320472D02*
D03*
X900630Y326220D02*
D03*
Y320472D02*
D03*
X1020630Y326220D02*
D03*
Y320472D02*
D03*
X1260630Y327401D02*
D03*
Y321654D02*
D03*
X857795Y313150D02*
D03*
Y318898D02*
D03*
X862520Y313150D02*
D03*
Y318898D02*
D03*
X1342520Y318898D02*
D03*
Y313150D02*
D03*
X1337795Y318898D02*
D03*
Y313150D02*
D03*
X1222520Y318898D02*
D03*
Y313150D02*
D03*
X1217795Y318898D02*
D03*
Y313150D02*
D03*
X1102520Y318898D02*
D03*
Y313150D02*
D03*
X1097795Y318898D02*
D03*
Y313150D02*
D03*
X982520Y318898D02*
D03*
Y313150D02*
D03*
X977795Y318898D02*
D03*
Y313150D02*
D03*
X780630Y320472D02*
D03*
Y326220D02*
D03*
X742520Y303150D02*
D03*
Y297402D02*
D03*
X737795Y303150D02*
D03*
Y297402D02*
D03*
X660630Y304724D02*
D03*
Y310472D02*
D03*
X638268Y303150D02*
D03*
Y297402D02*
D03*
X633543Y303150D02*
D03*
Y297402D02*
D03*
X578425Y360236D02*
D03*
Y354488D02*
D03*
X502520Y303150D02*
D03*
Y297402D02*
D03*
X497795Y303150D02*
D03*
Y297402D02*
D03*
X423228Y76417D02*
D03*
Y82165D02*
D03*
X406575Y29724D02*
D03*
Y35472D02*
D03*
X80315Y244370D02*
D03*
Y250118D02*
D03*
X85039Y255866D02*
D03*
Y250118D02*
D03*
X188583Y77677D02*
D03*
Y71929D02*
D03*
X183071D02*
D03*
Y77677D02*
D03*
X178799Y46732D02*
D03*
Y52480D02*
D03*
X194941Y77677D02*
D03*
Y71929D02*
D03*
X183917Y62087D02*
D03*
Y67835D02*
D03*
X509394Y468150D02*
D03*
Y462402D02*
D03*
X516087D02*
D03*
Y468150D02*
D03*
X578291Y467520D02*
D03*
Y473268D02*
D03*
X643003Y465066D02*
D03*
Y470814D02*
D03*
X719095Y427181D02*
D03*
Y432929D02*
D03*
X712402D02*
D03*
Y427181D02*
D03*
X650197Y427811D02*
D03*
Y422063D02*
D03*
X655886Y410677D02*
D03*
Y416425D02*
D03*
X144799Y283571D02*
D03*
Y289319D02*
D03*
Y293413D02*
D03*
Y299161D02*
D03*
X144800Y279476D02*
D03*
Y273728D02*
D03*
X501983Y387030D02*
D03*
Y381282D02*
D03*
X501968Y397359D02*
D03*
Y391611D02*
D03*
X501961Y407630D02*
D03*
Y401882D02*
D03*
X520079Y125079D02*
D03*
Y130827D02*
D03*
X720551Y323740D02*
D03*
Y317992D02*
D03*
X736693Y343189D02*
D03*
Y348937D02*
D03*
X725669Y339094D02*
D03*
Y333347D02*
D03*
X600551Y323740D02*
D03*
Y317992D02*
D03*
X616693Y343189D02*
D03*
Y348937D02*
D03*
X605669Y339094D02*
D03*
Y333347D02*
D03*
X531339Y323740D02*
D03*
Y317992D02*
D03*
X547480Y343189D02*
D03*
Y348937D02*
D03*
X541969D02*
D03*
Y343189D02*
D03*
X536457Y348937D02*
D03*
Y343189D02*
D03*
Y339094D02*
D03*
Y333347D02*
D03*
X708661Y14720D02*
D03*
Y20469D02*
D03*
X700787Y14720D02*
D03*
Y20469D02*
D03*
X778730Y31224D02*
D03*
Y36972D02*
D03*
X772037D02*
D03*
Y31224D02*
D03*
X709832Y31854D02*
D03*
Y26106D02*
D03*
X241339Y489646D02*
D03*
Y495394D02*
D03*
X235827D02*
D03*
Y489646D02*
D03*
X274410D02*
D03*
Y495394D02*
D03*
X268898D02*
D03*
Y489646D02*
D03*
X259547Y438602D02*
D03*
Y444350D02*
D03*
X265059Y438602D02*
D03*
Y444350D02*
D03*
X288580Y364055D02*
D03*
Y369803D02*
D03*
X54810Y125132D02*
D03*
Y119384D02*
D03*
X319897Y363922D02*
D03*
Y369670D02*
D03*
X354408Y363600D02*
D03*
Y369348D02*
D03*
X387927Y363538D02*
D03*
Y369286D02*
D03*
X965669Y354842D02*
D03*
Y349095D02*
D03*
Y364685D02*
D03*
Y358937D02*
D03*
X971181Y364685D02*
D03*
Y358937D02*
D03*
X976693D02*
D03*
Y364685D02*
D03*
X960551Y339488D02*
D03*
Y333740D02*
D03*
X1320551D02*
D03*
Y339488D02*
D03*
X1336693Y364685D02*
D03*
Y358937D02*
D03*
X1331181D02*
D03*
Y364685D02*
D03*
X1325669Y358937D02*
D03*
Y364685D02*
D03*
Y349095D02*
D03*
Y354842D02*
D03*
X1200551Y333740D02*
D03*
Y339488D02*
D03*
X1216693Y364685D02*
D03*
Y358937D02*
D03*
X1211181D02*
D03*
Y364685D02*
D03*
X1205669Y358937D02*
D03*
Y364685D02*
D03*
Y349095D02*
D03*
Y354842D02*
D03*
X1080551Y333740D02*
D03*
Y339488D02*
D03*
X1096693Y364685D02*
D03*
Y358937D02*
D03*
X1091181D02*
D03*
Y364685D02*
D03*
X1085669Y358937D02*
D03*
Y364685D02*
D03*
Y349095D02*
D03*
Y354842D02*
D03*
X840551Y333740D02*
D03*
Y339488D02*
D03*
X856693Y364685D02*
D03*
Y358937D02*
D03*
X851181D02*
D03*
Y364685D02*
D03*
X845669Y358937D02*
D03*
Y364685D02*
D03*
Y349095D02*
D03*
Y354842D02*
D03*
X7871Y105768D02*
D03*
Y111515D02*
D03*
X362461Y417339D02*
D03*
Y423087D02*
D03*
X369154D02*
D03*
Y417339D02*
D03*
X762738Y451110D02*
D03*
Y445362D02*
D03*
X792821Y426181D02*
D03*
Y420433D02*
D03*
X820008Y426181D02*
D03*
Y420433D02*
D03*
X853632Y420507D02*
D03*
Y426256D02*
D03*
X848368Y426299D02*
D03*
Y420551D02*
D03*
X433822Y420727D02*
D03*
Y426475D02*
D03*
X428527Y426317D02*
D03*
Y420569D02*
D03*
X762541Y435173D02*
D03*
Y440921D02*
D03*
X825679Y425862D02*
D03*
Y420114D02*
D03*
X297487Y461072D02*
D03*
Y455324D02*
D03*
D119*
X288091Y423957D02*
D03*
X298327D02*
D03*
X590457Y461531D02*
D03*
X580221D02*
D03*
X638031Y433800D02*
D03*
X648267D02*
D03*
X697666Y37843D02*
D03*
X707902D02*
D03*
D120*
X763740Y457775D02*
D03*
Y465256D02*
D03*
X754685Y461516D02*
D03*
D121*
X793228Y325590D02*
D03*
X789488D02*
D03*
X785748D02*
D03*
Y315354D02*
D03*
X789488D02*
D03*
X793228D02*
D03*
X913228D02*
D03*
X909488D02*
D03*
X905748D02*
D03*
Y325590D02*
D03*
X909488D02*
D03*
X913228D02*
D03*
X1033228Y315354D02*
D03*
X1029488D02*
D03*
X1025748D02*
D03*
Y325590D02*
D03*
X1029488D02*
D03*
X1033228D02*
D03*
X1273228Y316535D02*
D03*
X1269488D02*
D03*
X1265748D02*
D03*
Y326772D02*
D03*
X1269488D02*
D03*
X1273228D02*
D03*
X1153228Y315354D02*
D03*
X1149488D02*
D03*
X1145748D02*
D03*
Y325590D02*
D03*
X1149488D02*
D03*
X1153228D02*
D03*
X433228Y313543D02*
D03*
X429488D02*
D03*
X425748D02*
D03*
Y303307D02*
D03*
X429488D02*
D03*
X433228D02*
D03*
X673228Y299606D02*
D03*
X669488D02*
D03*
X665748D02*
D03*
Y309842D02*
D03*
X669488D02*
D03*
X673228D02*
D03*
X485197Y308268D02*
D03*
X488937D02*
D03*
X492677D02*
D03*
Y298031D02*
D03*
X488937D02*
D03*
X485197D02*
D03*
X620945Y308268D02*
D03*
X624685D02*
D03*
X628425D02*
D03*
Y298031D02*
D03*
X624685D02*
D03*
X620945D02*
D03*
X725197Y308268D02*
D03*
X728937D02*
D03*
X732677D02*
D03*
Y298031D02*
D03*
X728937D02*
D03*
X725197D02*
D03*
X845197Y313779D02*
D03*
X848937D02*
D03*
X852677D02*
D03*
Y324016D02*
D03*
X848937D02*
D03*
X845197D02*
D03*
X965197D02*
D03*
X968937D02*
D03*
X972677D02*
D03*
Y313779D02*
D03*
X968937D02*
D03*
X965197D02*
D03*
X1085197Y324016D02*
D03*
X1088937D02*
D03*
X1092677D02*
D03*
Y313779D02*
D03*
X1088937D02*
D03*
X1085197D02*
D03*
X1205197Y324016D02*
D03*
X1208937D02*
D03*
X1212677D02*
D03*
Y313779D02*
D03*
X1208937D02*
D03*
X1205197D02*
D03*
X1325197Y324016D02*
D03*
X1328937D02*
D03*
X1332677D02*
D03*
Y313779D02*
D03*
X1328937D02*
D03*
X1325197D02*
D03*
D122*
X683071Y305000D02*
D03*
Y298937D02*
D03*
X578425Y345315D02*
D03*
Y351378D02*
D03*
X583150Y345315D02*
D03*
Y351378D02*
D03*
X840079Y324685D02*
D03*
Y318622D02*
D03*
X15905Y241811D02*
D03*
Y235748D02*
D03*
X15906Y248543D02*
D03*
Y254606D02*
D03*
X15905Y276260D02*
D03*
Y270197D02*
D03*
X802451Y426413D02*
D03*
Y420350D02*
D03*
X863628Y427610D02*
D03*
Y421547D02*
D03*
X444111Y427852D02*
D03*
Y421789D02*
D03*
X49210Y109752D02*
D03*
Y103689D02*
D03*
X438346Y302638D02*
D03*
Y308701D02*
D03*
X443071D02*
D03*
Y302638D02*
D03*
X1314961Y314449D02*
D03*
Y308386D02*
D03*
X1194961Y314449D02*
D03*
Y308386D02*
D03*
X1074961Y314449D02*
D03*
Y308386D02*
D03*
X954961Y314449D02*
D03*
Y308386D02*
D03*
X1043071Y320748D02*
D03*
Y314685D02*
D03*
X1038346D02*
D03*
Y320748D02*
D03*
X835354Y324685D02*
D03*
Y318622D02*
D03*
X1315354Y318622D02*
D03*
Y324685D02*
D03*
X1320079D02*
D03*
Y318622D02*
D03*
X1278346Y321929D02*
D03*
Y315866D02*
D03*
X1283071D02*
D03*
Y321929D02*
D03*
X1195354Y318622D02*
D03*
Y324685D02*
D03*
X1200079D02*
D03*
Y318622D02*
D03*
X1158346Y320748D02*
D03*
Y314685D02*
D03*
X1163071D02*
D03*
Y320748D02*
D03*
X1075354Y318622D02*
D03*
Y324685D02*
D03*
X1080079D02*
D03*
Y318622D02*
D03*
X955354D02*
D03*
Y324685D02*
D03*
X960079D02*
D03*
Y318622D02*
D03*
X918346Y320748D02*
D03*
Y314685D02*
D03*
X923071D02*
D03*
Y320748D02*
D03*
X798346D02*
D03*
Y314685D02*
D03*
X803071D02*
D03*
Y320748D02*
D03*
X715354Y302874D02*
D03*
Y308937D02*
D03*
X720079D02*
D03*
Y302874D02*
D03*
X714961Y298701D02*
D03*
Y292638D02*
D03*
X678346Y305000D02*
D03*
Y298937D02*
D03*
X611102Y302874D02*
D03*
Y308937D02*
D03*
X615827D02*
D03*
Y302874D02*
D03*
X610709Y298701D02*
D03*
Y292638D02*
D03*
X475354Y302874D02*
D03*
Y308937D02*
D03*
X480079D02*
D03*
Y302874D02*
D03*
X474961Y298701D02*
D03*
Y292638D02*
D03*
X407480Y86535D02*
D03*
Y92598D02*
D03*
X400394Y59921D02*
D03*
Y65984D02*
D03*
X402362Y50374D02*
D03*
Y44311D02*
D03*
X394488Y29646D02*
D03*
Y35709D02*
D03*
X183917Y53031D02*
D03*
Y46968D02*
D03*
X248346Y492677D02*
D03*
Y486614D02*
D03*
X215276Y492677D02*
D03*
Y486614D02*
D03*
X487362Y411417D02*
D03*
Y405354D02*
D03*
Y454724D02*
D03*
Y448661D02*
D03*
X562150Y457283D02*
D03*
Y451221D02*
D03*
X567661Y461221D02*
D03*
Y455158D02*
D03*
X566087Y468150D02*
D03*
Y474213D02*
D03*
X522780Y460669D02*
D03*
Y466732D02*
D03*
X528291Y460669D02*
D03*
Y466732D02*
D03*
X666339Y438047D02*
D03*
Y444110D02*
D03*
X660827Y434110D02*
D03*
Y440173D02*
D03*
X662401Y427181D02*
D03*
Y421118D02*
D03*
X705709Y434661D02*
D03*
Y428598D02*
D03*
X700197Y434661D02*
D03*
Y428598D02*
D03*
X74508Y300945D02*
D03*
Y294882D02*
D03*
X745355Y317835D02*
D03*
Y323898D02*
D03*
X725669Y318228D02*
D03*
Y324291D02*
D03*
X625354Y317835D02*
D03*
Y323898D02*
D03*
X605669Y318228D02*
D03*
Y324291D02*
D03*
X556142Y317835D02*
D03*
Y323898D02*
D03*
X536457Y318228D02*
D03*
Y324291D02*
D03*
X725974Y42090D02*
D03*
Y48153D02*
D03*
X720462Y38153D02*
D03*
Y44216D02*
D03*
X722037Y31224D02*
D03*
Y25161D02*
D03*
X765344Y38704D02*
D03*
Y32642D02*
D03*
X759832Y38704D02*
D03*
Y32642D02*
D03*
X85433Y244370D02*
D03*
Y238307D02*
D03*
X90551Y244370D02*
D03*
Y238307D02*
D03*
X235827Y479134D02*
D03*
Y485197D02*
D03*
X268898Y479134D02*
D03*
Y485197D02*
D03*
X965669Y333976D02*
D03*
Y340039D02*
D03*
X985354Y333583D02*
D03*
Y339646D02*
D03*
X1345354D02*
D03*
Y333583D02*
D03*
X1325669Y340039D02*
D03*
Y333976D02*
D03*
X1225354Y339646D02*
D03*
Y333583D02*
D03*
X1205669Y340039D02*
D03*
Y333976D02*
D03*
X1105354Y339646D02*
D03*
Y333583D02*
D03*
X1085669Y340039D02*
D03*
Y333976D02*
D03*
X865354Y339646D02*
D03*
Y333583D02*
D03*
X845669Y340039D02*
D03*
Y333976D02*
D03*
X757175Y445311D02*
D03*
Y439248D02*
D03*
X813081Y415389D02*
D03*
Y409326D02*
D03*
X350257Y418756D02*
D03*
Y424819D02*
D03*
X355768Y418756D02*
D03*
Y424819D02*
D03*
X312461Y411276D02*
D03*
Y417339D02*
D03*
X310887Y430331D02*
D03*
Y424268D02*
D03*
X316399Y434268D02*
D03*
Y428205D02*
D03*
X797660Y426433D02*
D03*
Y420370D02*
D03*
X858759Y427693D02*
D03*
Y421630D02*
D03*
X439201Y427887D02*
D03*
Y421824D02*
D03*
D123*
X568858Y337795D02*
D03*
X562795D02*
D03*
Y342520D02*
D03*
X568858D02*
D03*
X152480Y371260D02*
D03*
X158543D02*
D03*
X61479Y132621D02*
D03*
X67542D02*
D03*
X435551Y322992D02*
D03*
X429488D02*
D03*
X435551Y318268D02*
D03*
X429488D02*
D03*
X669488Y314567D02*
D03*
X675551D02*
D03*
X1029488Y330315D02*
D03*
X1035551D02*
D03*
Y335039D02*
D03*
X1029488D02*
D03*
X848937Y309055D02*
D03*
X842874D02*
D03*
X1322874Y309055D02*
D03*
X1328937D02*
D03*
X1275551Y331496D02*
D03*
X1269488D02*
D03*
Y336221D02*
D03*
X1275551D02*
D03*
X1202874Y309055D02*
D03*
X1208937D02*
D03*
X1155551Y330315D02*
D03*
X1149488D02*
D03*
Y335039D02*
D03*
X1155551D02*
D03*
X1082874Y309055D02*
D03*
X1088937D02*
D03*
X962874D02*
D03*
X968937D02*
D03*
X915551Y330315D02*
D03*
X909488D02*
D03*
Y335039D02*
D03*
X915551D02*
D03*
X795551Y330315D02*
D03*
X789488D02*
D03*
Y335039D02*
D03*
X795551D02*
D03*
X722874Y293307D02*
D03*
X728937D02*
D03*
X669488Y319291D02*
D03*
X675551D02*
D03*
X618622Y293307D02*
D03*
X624685D02*
D03*
X482874Y293307D02*
D03*
X488937D02*
D03*
X389646Y35433D02*
D03*
X383583D02*
D03*
X452638Y71850D02*
D03*
X446575D02*
D03*
X128858Y381890D02*
D03*
X134921D02*
D03*
X128465Y362205D02*
D03*
X134528D02*
D03*
X22953Y237106D02*
D03*
X29016D02*
D03*
Y253051D02*
D03*
X22953D02*
D03*
X1156932Y429168D02*
D03*
X1150869D02*
D03*
X502641Y137008D02*
D03*
X496578D02*
D03*
X507208D02*
D03*
X513271D02*
D03*
X95787Y244094D02*
D03*
X101850D02*
D03*
X239094Y452756D02*
D03*
X245158D02*
D03*
X778317Y427318D02*
D03*
X772254D02*
D03*
X838947D02*
D03*
X832884D02*
D03*
X419577D02*
D03*
X413514D02*
D03*
D124*
X572520Y319685D02*
D03*
X585906D02*
D03*
X572520Y316535D02*
D03*
X585906D02*
D03*
X572520Y313386D02*
D03*
X585906D02*
D03*
X572520Y310236D02*
D03*
X585906D02*
D03*
X572520Y307087D02*
D03*
X585906D02*
D03*
X572520Y303937D02*
D03*
X585906D02*
D03*
X572520Y300787D02*
D03*
X585906D02*
D03*
X572520Y297638D02*
D03*
X585906D02*
D03*
X572520Y294488D02*
D03*
X585906D02*
D03*
X572520Y291339D02*
D03*
X585906D02*
D03*
X572520Y288189D02*
D03*
X585906D02*
D03*
X572520Y285039D02*
D03*
X585906D02*
D03*
X572520Y281890D02*
D03*
X585906D02*
D03*
X572520Y278740D02*
D03*
X585906D02*
D03*
X572520Y275591D02*
D03*
X585906D02*
D03*
X572520Y272441D02*
D03*
X585906D02*
D03*
X572520Y269291D02*
D03*
X585906D02*
D03*
X572520Y266142D02*
D03*
X585906D02*
D03*
X572520Y262992D02*
D03*
X585906D02*
D03*
X572520Y259843D02*
D03*
X585906D02*
D03*
X572520Y256693D02*
D03*
X585906D02*
D03*
X572520Y253543D02*
D03*
X585906D02*
D03*
X572520Y237795D02*
D03*
X585906D02*
D03*
X572520Y234646D02*
D03*
X585906D02*
D03*
X572520Y231496D02*
D03*
X585906D02*
D03*
X572520Y228346D02*
D03*
X585906D02*
D03*
X572520Y225197D02*
D03*
X585906D02*
D03*
X572520Y222047D02*
D03*
X585906D02*
D03*
X572520Y218898D02*
D03*
X585906D02*
D03*
X572520Y215748D02*
D03*
X585906D02*
D03*
X572520Y212598D02*
D03*
X585906D02*
D03*
X572520Y209449D02*
D03*
X585906D02*
D03*
X572520Y206299D02*
D03*
X585906D02*
D03*
X572520Y203150D02*
D03*
X585906D02*
D03*
X572520Y200000D02*
D03*
X585906D02*
D03*
X572520Y196850D02*
D03*
X585906D02*
D03*
X572520Y193701D02*
D03*
X585906D02*
D03*
X572520Y190551D02*
D03*
X585906D02*
D03*
X572520Y187402D02*
D03*
X585906D02*
D03*
X572520Y184252D02*
D03*
X585906D02*
D03*
X812520Y335433D02*
D03*
X825906D02*
D03*
X812520Y332283D02*
D03*
X825906D02*
D03*
X812520Y329134D02*
D03*
X825906D02*
D03*
X812520Y325984D02*
D03*
X825906D02*
D03*
X812520Y322835D02*
D03*
X825906D02*
D03*
X812520Y319685D02*
D03*
X825906D02*
D03*
X812520Y316535D02*
D03*
X825906D02*
D03*
X812520Y313386D02*
D03*
X825906D02*
D03*
X812520Y310236D02*
D03*
X825906D02*
D03*
X812520Y307087D02*
D03*
X825906D02*
D03*
X812520Y303937D02*
D03*
X825906D02*
D03*
X812520Y300787D02*
D03*
X825906D02*
D03*
X812520Y297638D02*
D03*
X825906D02*
D03*
X812520Y294488D02*
D03*
X825906D02*
D03*
X812520Y291339D02*
D03*
X825906D02*
D03*
X812520Y288189D02*
D03*
X825906D02*
D03*
X812520Y285039D02*
D03*
X825906D02*
D03*
X812520Y281890D02*
D03*
X825906D02*
D03*
X812520Y278740D02*
D03*
X825906D02*
D03*
X812520Y275591D02*
D03*
X825906D02*
D03*
X812520Y272441D02*
D03*
X825906D02*
D03*
X812520Y269291D02*
D03*
X825906D02*
D03*
X812520Y266142D02*
D03*
X825906D02*
D03*
X812520Y262992D02*
D03*
X825906D02*
D03*
X812520Y259842D02*
D03*
X825906D02*
D03*
X812520Y256693D02*
D03*
X825906D02*
D03*
X812520Y253543D02*
D03*
X825906D02*
D03*
X812520Y237795D02*
D03*
X825906D02*
D03*
X812520Y234646D02*
D03*
X825906D02*
D03*
X812520Y231496D02*
D03*
X825906D02*
D03*
X812520Y228346D02*
D03*
X825906D02*
D03*
X812520Y225197D02*
D03*
X825906D02*
D03*
X812520Y222047D02*
D03*
X825906D02*
D03*
X812520Y218898D02*
D03*
X825906D02*
D03*
X812520Y215748D02*
D03*
X825906D02*
D03*
X812520Y212598D02*
D03*
X825906D02*
D03*
X812520Y209449D02*
D03*
X825906D02*
D03*
X812520Y206299D02*
D03*
X825906D02*
D03*
X812520Y203150D02*
D03*
X825906D02*
D03*
X812520Y200000D02*
D03*
X825906D02*
D03*
X812520Y196850D02*
D03*
X825906D02*
D03*
X812520Y193701D02*
D03*
X825906D02*
D03*
X812520Y190551D02*
D03*
X825906D02*
D03*
X812520Y187402D02*
D03*
X825906D02*
D03*
X812520Y184252D02*
D03*
X825906D02*
D03*
X812520Y181102D02*
D03*
X825906D02*
D03*
X812520Y177953D02*
D03*
X825906D02*
D03*
X812520Y174803D02*
D03*
X825906D02*
D03*
X812520Y171653D02*
D03*
X825906D02*
D03*
X812520Y168504D02*
D03*
X825906D02*
D03*
X705906Y184252D02*
D03*
X692520D02*
D03*
X705906Y187402D02*
D03*
X692520D02*
D03*
X705906Y190551D02*
D03*
X692520D02*
D03*
X705906Y193701D02*
D03*
X692520D02*
D03*
X705906Y196850D02*
D03*
X692520D02*
D03*
X705906Y200000D02*
D03*
X692520D02*
D03*
X705906Y203150D02*
D03*
X692520D02*
D03*
X705906Y206299D02*
D03*
X692520D02*
D03*
X705906Y209449D02*
D03*
X692520D02*
D03*
X705906Y212598D02*
D03*
X692520D02*
D03*
X705906Y215748D02*
D03*
X692520D02*
D03*
X705906Y218898D02*
D03*
X692520D02*
D03*
X705906Y222047D02*
D03*
X692520D02*
D03*
X705906Y225197D02*
D03*
X692520D02*
D03*
X705906Y228346D02*
D03*
X692520D02*
D03*
X705906Y231496D02*
D03*
X692520D02*
D03*
X705906Y234646D02*
D03*
X692520D02*
D03*
X705906Y237795D02*
D03*
X692520D02*
D03*
X705906Y253543D02*
D03*
X692520D02*
D03*
X705906Y256693D02*
D03*
X692520D02*
D03*
X705906Y259843D02*
D03*
X692520D02*
D03*
X705906Y262992D02*
D03*
X692520D02*
D03*
X705906Y266142D02*
D03*
X692520D02*
D03*
X705906Y269291D02*
D03*
X692520D02*
D03*
X705906Y272441D02*
D03*
X692520D02*
D03*
X705906Y275591D02*
D03*
X692520D02*
D03*
X705906Y278740D02*
D03*
X692520D02*
D03*
X705906Y281890D02*
D03*
X692520D02*
D03*
X705906Y285039D02*
D03*
X692520D02*
D03*
X705906Y288189D02*
D03*
X692520D02*
D03*
X705906Y291339D02*
D03*
X692520D02*
D03*
X705906Y294488D02*
D03*
X692520D02*
D03*
X705906Y297638D02*
D03*
X692520D02*
D03*
X705906Y300787D02*
D03*
X692520D02*
D03*
X705906Y303937D02*
D03*
X692520D02*
D03*
X705906Y307087D02*
D03*
X692520D02*
D03*
X705906Y310236D02*
D03*
X692520D02*
D03*
X705906Y313386D02*
D03*
X692520D02*
D03*
X705906Y316535D02*
D03*
X692520D02*
D03*
X705906Y319685D02*
D03*
X692520D02*
D03*
X1292520Y335433D02*
D03*
X1305906D02*
D03*
X1292520Y332283D02*
D03*
X1305906D02*
D03*
X1292520Y329134D02*
D03*
X1305906D02*
D03*
X1292520Y325984D02*
D03*
X1305906D02*
D03*
X1292520Y322835D02*
D03*
X1305906D02*
D03*
X1292520Y319685D02*
D03*
X1305906D02*
D03*
X1292520Y316535D02*
D03*
X1305906D02*
D03*
X1292520Y313386D02*
D03*
X1305906D02*
D03*
X1292520Y310236D02*
D03*
X1305906D02*
D03*
X1292520Y307087D02*
D03*
X1305906D02*
D03*
X1292520Y303937D02*
D03*
X1305906D02*
D03*
X1292520Y300787D02*
D03*
X1305906D02*
D03*
X1292520Y297638D02*
D03*
X1305906D02*
D03*
X1292520Y294488D02*
D03*
X1305906D02*
D03*
X1292520Y291339D02*
D03*
X1305906D02*
D03*
X1292520Y288189D02*
D03*
X1305906D02*
D03*
X1292520Y285039D02*
D03*
X1305906D02*
D03*
X1292520Y281890D02*
D03*
X1305906D02*
D03*
X1292520Y278740D02*
D03*
X1305906D02*
D03*
X1292520Y275590D02*
D03*
X1305906D02*
D03*
X1292520Y272441D02*
D03*
X1305906D02*
D03*
X1292520Y269291D02*
D03*
X1305906D02*
D03*
X1292520Y266142D02*
D03*
X1305906D02*
D03*
X1292520Y262992D02*
D03*
X1305906D02*
D03*
X1292520Y259842D02*
D03*
X1305906D02*
D03*
X1292520Y256693D02*
D03*
X1305906D02*
D03*
X1292520Y253543D02*
D03*
X1305906D02*
D03*
X1292520Y237795D02*
D03*
X1305906D02*
D03*
X1292520Y234646D02*
D03*
X1305906D02*
D03*
X1292520Y231496D02*
D03*
X1305906D02*
D03*
X1292520Y228346D02*
D03*
X1305906D02*
D03*
X1292520Y225197D02*
D03*
X1305906D02*
D03*
X1292520Y222047D02*
D03*
X1305906D02*
D03*
X1292520Y218898D02*
D03*
X1305906D02*
D03*
X1292520Y215748D02*
D03*
X1305906D02*
D03*
X1292520Y212598D02*
D03*
X1305906D02*
D03*
X1292520Y209449D02*
D03*
X1305906D02*
D03*
X1292520Y206299D02*
D03*
X1305906D02*
D03*
X1292520Y203150D02*
D03*
X1305906D02*
D03*
X1292520Y200000D02*
D03*
X1305906D02*
D03*
X1292520Y196850D02*
D03*
X1305906D02*
D03*
X1292520Y193701D02*
D03*
X1305906D02*
D03*
X1292520Y190551D02*
D03*
X1305906D02*
D03*
X1292520Y187401D02*
D03*
X1305906D02*
D03*
X1292520Y184252D02*
D03*
X1305906D02*
D03*
X1292520Y181102D02*
D03*
X1305906D02*
D03*
X1292520Y177953D02*
D03*
X1305906D02*
D03*
X1292520Y174803D02*
D03*
X1305906D02*
D03*
X1292520Y171653D02*
D03*
X1305906D02*
D03*
X1292520Y168504D02*
D03*
X1305906D02*
D03*
X1172520Y335433D02*
D03*
X1185905D02*
D03*
X1172520Y332283D02*
D03*
X1185905D02*
D03*
X1172520Y329134D02*
D03*
X1185905D02*
D03*
X1172520Y325984D02*
D03*
X1185905D02*
D03*
X1172520Y322835D02*
D03*
X1185905D02*
D03*
X1172520Y319685D02*
D03*
X1185905D02*
D03*
X1172520Y316535D02*
D03*
X1185905D02*
D03*
X1172520Y313386D02*
D03*
X1185905D02*
D03*
X1172520Y310236D02*
D03*
X1185905D02*
D03*
X1172520Y307087D02*
D03*
X1185905D02*
D03*
X1172520Y303937D02*
D03*
X1185905D02*
D03*
X1172520Y300787D02*
D03*
X1185905D02*
D03*
X1172520Y297638D02*
D03*
X1185905D02*
D03*
X1172520Y294488D02*
D03*
X1185905D02*
D03*
X1172520Y291339D02*
D03*
X1185905D02*
D03*
X1172520Y288189D02*
D03*
X1185905D02*
D03*
X1172520Y285039D02*
D03*
X1185905D02*
D03*
X1172520Y281890D02*
D03*
X1185905D02*
D03*
X1172520Y278740D02*
D03*
X1185905D02*
D03*
X1172520Y275591D02*
D03*
X1185905D02*
D03*
X1172520Y272441D02*
D03*
X1185905D02*
D03*
X1172520Y269291D02*
D03*
X1185905D02*
D03*
X1172520Y266142D02*
D03*
X1185905D02*
D03*
X1172520Y262992D02*
D03*
X1185905D02*
D03*
X1172520Y259842D02*
D03*
X1185905D02*
D03*
X1172520Y256693D02*
D03*
X1185905D02*
D03*
X1172520Y253543D02*
D03*
X1185905D02*
D03*
X1172520Y237795D02*
D03*
X1185905D02*
D03*
X1172520Y234646D02*
D03*
X1185905D02*
D03*
X1172520Y231496D02*
D03*
X1185905D02*
D03*
X1172520Y228346D02*
D03*
X1185905D02*
D03*
X1172520Y225197D02*
D03*
X1185905D02*
D03*
X1172520Y222047D02*
D03*
X1185905D02*
D03*
X1172520Y218898D02*
D03*
X1185905D02*
D03*
X1172520Y215748D02*
D03*
X1185905D02*
D03*
X1172520Y212598D02*
D03*
X1185905D02*
D03*
X1172520Y209449D02*
D03*
X1185905D02*
D03*
X1172520Y206299D02*
D03*
X1185905D02*
D03*
X1172520Y203150D02*
D03*
X1185905D02*
D03*
X1172520Y200000D02*
D03*
X1185905D02*
D03*
X1172520Y196850D02*
D03*
X1185905D02*
D03*
X1172520Y193701D02*
D03*
X1185905D02*
D03*
X1172520Y190551D02*
D03*
X1185905D02*
D03*
X1172520Y187402D02*
D03*
X1185905D02*
D03*
X1172520Y184252D02*
D03*
X1185905D02*
D03*
X1172520Y181102D02*
D03*
X1185905D02*
D03*
X1172520Y177953D02*
D03*
X1185905D02*
D03*
X1172520Y174803D02*
D03*
X1185905D02*
D03*
X1172520Y171653D02*
D03*
X1185905D02*
D03*
X1172520Y168504D02*
D03*
X1185905D02*
D03*
X1052520Y335433D02*
D03*
X1065905D02*
D03*
X1052520Y332283D02*
D03*
X1065905D02*
D03*
X1052520Y329134D02*
D03*
X1065905D02*
D03*
X1052520Y325984D02*
D03*
X1065905D02*
D03*
X1052520Y322835D02*
D03*
X1065905D02*
D03*
X1052520Y319685D02*
D03*
X1065905D02*
D03*
X1052520Y316535D02*
D03*
X1065905D02*
D03*
X1052520Y313386D02*
D03*
X1065905D02*
D03*
X1052520Y310236D02*
D03*
X1065905D02*
D03*
X1052520Y307087D02*
D03*
X1065905D02*
D03*
X1052520Y303937D02*
D03*
X1065905D02*
D03*
X1052520Y300787D02*
D03*
X1065905D02*
D03*
X1052520Y297638D02*
D03*
X1065905D02*
D03*
X1052520Y294488D02*
D03*
X1065905D02*
D03*
X1052520Y291339D02*
D03*
X1065905D02*
D03*
X1052520Y288189D02*
D03*
X1065905D02*
D03*
X1052520Y285039D02*
D03*
X1065905D02*
D03*
X1052520Y281890D02*
D03*
X1065905D02*
D03*
X1052520Y278740D02*
D03*
X1065905D02*
D03*
X1052520Y275591D02*
D03*
X1065905D02*
D03*
X1052520Y272441D02*
D03*
X1065905D02*
D03*
X1052520Y269291D02*
D03*
X1065905D02*
D03*
X1052520Y266142D02*
D03*
X1065905D02*
D03*
X1052520Y262992D02*
D03*
X1065905D02*
D03*
X1052520Y259842D02*
D03*
X1065905D02*
D03*
X1052520Y256693D02*
D03*
X1065905D02*
D03*
X1052520Y253543D02*
D03*
X1065905D02*
D03*
X1052520Y237795D02*
D03*
X1065905D02*
D03*
X1052520Y234646D02*
D03*
X1065905D02*
D03*
X1052520Y231496D02*
D03*
X1065905D02*
D03*
X1052520Y228346D02*
D03*
X1065905D02*
D03*
X1052520Y225197D02*
D03*
X1065905D02*
D03*
X1052520Y222047D02*
D03*
X1065905D02*
D03*
X1052520Y218898D02*
D03*
X1065905D02*
D03*
X1052520Y215748D02*
D03*
X1065905D02*
D03*
X1052520Y212598D02*
D03*
X1065905D02*
D03*
X1052520Y209449D02*
D03*
X1065905D02*
D03*
X1052520Y206299D02*
D03*
X1065905D02*
D03*
X1052520Y203150D02*
D03*
X1065905D02*
D03*
X1052520Y200000D02*
D03*
X1065905D02*
D03*
X1052520Y196850D02*
D03*
X1065905D02*
D03*
X1052520Y193701D02*
D03*
X1065905D02*
D03*
X1052520Y190551D02*
D03*
X1065905D02*
D03*
X1052520Y187402D02*
D03*
X1065905D02*
D03*
X1052520Y184252D02*
D03*
X1065905D02*
D03*
X1052520Y181102D02*
D03*
X1065905D02*
D03*
X1052520Y177953D02*
D03*
X1065905D02*
D03*
X1052520Y174803D02*
D03*
X1065905D02*
D03*
X1052520Y171653D02*
D03*
X1065905D02*
D03*
X1052520Y168504D02*
D03*
X1065905D02*
D03*
X932520Y335433D02*
D03*
X945905D02*
D03*
X932520Y332283D02*
D03*
X945905D02*
D03*
X932520Y329134D02*
D03*
X945905D02*
D03*
X932520Y325984D02*
D03*
X945905D02*
D03*
X932520Y322835D02*
D03*
X945905D02*
D03*
X932520Y319685D02*
D03*
X945905D02*
D03*
X932520Y316535D02*
D03*
X945905D02*
D03*
X932520Y313386D02*
D03*
X945905D02*
D03*
X932520Y310236D02*
D03*
X945905D02*
D03*
X932520Y307087D02*
D03*
X945905D02*
D03*
X932520Y303937D02*
D03*
X945905D02*
D03*
X932520Y300787D02*
D03*
X945905D02*
D03*
X932520Y297638D02*
D03*
X945905D02*
D03*
X932520Y294488D02*
D03*
X945905D02*
D03*
X932520Y291339D02*
D03*
X945905D02*
D03*
X932520Y288189D02*
D03*
X945905D02*
D03*
X932520Y285039D02*
D03*
X945905D02*
D03*
X932520Y281890D02*
D03*
X945905D02*
D03*
X932520Y278740D02*
D03*
X945905D02*
D03*
X932520Y275591D02*
D03*
X945905D02*
D03*
X932520Y272441D02*
D03*
X945905D02*
D03*
X932520Y269291D02*
D03*
X945905D02*
D03*
X932520Y266142D02*
D03*
X945905D02*
D03*
X932520Y262992D02*
D03*
X945905D02*
D03*
X932520Y259842D02*
D03*
X945905D02*
D03*
X932520Y256693D02*
D03*
X945905D02*
D03*
X932520Y253543D02*
D03*
X945905D02*
D03*
X932520Y237795D02*
D03*
X945905D02*
D03*
X932520Y234646D02*
D03*
X945905D02*
D03*
X932520Y231496D02*
D03*
X945905D02*
D03*
X932520Y228346D02*
D03*
X945905D02*
D03*
X932520Y225197D02*
D03*
X945905D02*
D03*
X932520Y222047D02*
D03*
X945905D02*
D03*
X932520Y218898D02*
D03*
X945905D02*
D03*
X932520Y215748D02*
D03*
X945905D02*
D03*
X932520Y212598D02*
D03*
X945905D02*
D03*
X932520Y209449D02*
D03*
X945905D02*
D03*
X932520Y206299D02*
D03*
X945905D02*
D03*
X932520Y203150D02*
D03*
X945905D02*
D03*
X932520Y200000D02*
D03*
X945905D02*
D03*
X932520Y196850D02*
D03*
X945905D02*
D03*
X932520Y193701D02*
D03*
X945905D02*
D03*
X932520Y190551D02*
D03*
X945905D02*
D03*
X932520Y187402D02*
D03*
X945905D02*
D03*
X932520Y184252D02*
D03*
X945905D02*
D03*
X932520Y181102D02*
D03*
X945905D02*
D03*
X932520Y177953D02*
D03*
X945905D02*
D03*
X932520Y174803D02*
D03*
X945905D02*
D03*
X932520Y171653D02*
D03*
X945905D02*
D03*
X932520Y168504D02*
D03*
X945905D02*
D03*
X465906Y184252D02*
D03*
X452520D02*
D03*
X465906Y187402D02*
D03*
X452520D02*
D03*
X465906Y190551D02*
D03*
X452520D02*
D03*
X465906Y193701D02*
D03*
X452520D02*
D03*
X465906Y196850D02*
D03*
X452520D02*
D03*
X465906Y200000D02*
D03*
X452520D02*
D03*
X465906Y203150D02*
D03*
X452520D02*
D03*
X465906Y206299D02*
D03*
X452520D02*
D03*
X465906Y209449D02*
D03*
X452520D02*
D03*
X465906Y212598D02*
D03*
X452520D02*
D03*
X465906Y215748D02*
D03*
X452520D02*
D03*
X465906Y218898D02*
D03*
X452520D02*
D03*
X465906Y222047D02*
D03*
X452520D02*
D03*
X465906Y225197D02*
D03*
X452520D02*
D03*
X465906Y228346D02*
D03*
X452520D02*
D03*
X465906Y231496D02*
D03*
X452520D02*
D03*
X465906Y234646D02*
D03*
X452520D02*
D03*
X465906Y237795D02*
D03*
X452520D02*
D03*
X465906Y253543D02*
D03*
X452520D02*
D03*
X465906Y256693D02*
D03*
X452520D02*
D03*
X465906Y259842D02*
D03*
X452520D02*
D03*
X465906Y262992D02*
D03*
X452520D02*
D03*
X465906Y266142D02*
D03*
X452520D02*
D03*
X465906Y269291D02*
D03*
X452520D02*
D03*
X465906Y272441D02*
D03*
X452520D02*
D03*
X465906Y275591D02*
D03*
X452520D02*
D03*
X465906Y278740D02*
D03*
X452520D02*
D03*
X465906Y281890D02*
D03*
X452520D02*
D03*
X465906Y285039D02*
D03*
X452520D02*
D03*
X465906Y288189D02*
D03*
X452520D02*
D03*
X465906Y291339D02*
D03*
X452520D02*
D03*
X465906Y294488D02*
D03*
X452520D02*
D03*
X465906Y297638D02*
D03*
X452520D02*
D03*
X465906Y300787D02*
D03*
X452520D02*
D03*
X465906Y303937D02*
D03*
X452520D02*
D03*
X465906Y307087D02*
D03*
X452520D02*
D03*
X465906Y310236D02*
D03*
X452520D02*
D03*
X465906Y313386D02*
D03*
X452520D02*
D03*
X465906Y316535D02*
D03*
X452520D02*
D03*
X465906Y319685D02*
D03*
X452520D02*
D03*
D125*
X563465Y347638D02*
D03*
Y351378D02*
D03*
Y355118D02*
D03*
X573701D02*
D03*
Y351378D02*
D03*
Y347638D02*
D03*
D126*
X271092Y449646D02*
D03*
X264342D02*
D03*
D127*
X11098Y129527D02*
D03*
Y124409D02*
D03*
X62992Y144272D02*
D03*
Y139154D02*
D03*
X162598Y364764D02*
D03*
Y359646D02*
D03*
X54541Y113777D02*
D03*
Y108659D02*
D03*
D128*
X261221Y500559D02*
D03*
X253740D02*
D03*
X257480Y492685D02*
D03*
X228150Y500559D02*
D03*
X220669D02*
D03*
X224410Y492685D02*
D03*
D129*
X686024Y485961D02*
D03*
X674213D02*
D03*
X756193Y428894D02*
D03*
X768004D02*
D03*
X824803Y381347D02*
D03*
X836614D02*
D03*
X818898Y371504D02*
D03*
X830709D02*
D03*
X691142Y485961D02*
D03*
X702953D02*
D03*
X367387Y454782D02*
D03*
X379198D02*
D03*
D130*
X1202756Y411417D02*
D03*
Y399606D02*
D03*
X890158Y403543D02*
D03*
Y391732D02*
D03*
X881102Y403543D02*
D03*
Y391732D02*
D03*
X908268Y403543D02*
D03*
Y391732D02*
D03*
X899213Y403543D02*
D03*
Y391732D02*
D03*
X747728Y430862D02*
D03*
Y419051D02*
D03*
X1234252Y411417D02*
D03*
Y399606D02*
D03*
D131*
X261713Y91575D02*
D03*
X242224D02*
D03*
X261713Y101575D02*
D03*
X242224D02*
D03*
X261713Y111575D02*
D03*
X242224D02*
D03*
D132*
X231398Y446476D02*
D03*
Y441476D02*
D03*
Y436476D02*
D03*
Y431476D02*
D03*
X252854Y446476D02*
D03*
Y441476D02*
D03*
Y436476D02*
D03*
Y431476D02*
D03*
D133*
X676732Y196811D02*
D03*
X680354D02*
D03*
X676732Y194056D02*
D03*
X680354D02*
D03*
X556732D02*
D03*
X560354D02*
D03*
X436732Y196811D02*
D03*
X440354D02*
D03*
X436732Y194055D02*
D03*
X440354D02*
D03*
X556732Y196811D02*
D03*
X560354D02*
D03*
X446693Y78937D02*
D03*
X443071D02*
D03*
X448504Y82677D02*
D03*
X444882D02*
D03*
Y133858D02*
D03*
X448504D02*
D03*
X417165Y91929D02*
D03*
X413543D02*
D03*
X423071Y34842D02*
D03*
X419449D02*
D03*
X400551Y71457D02*
D03*
X404173D02*
D03*
X432244Y75000D02*
D03*
X435866D02*
D03*
D134*
X184941Y198228D02*
D03*
Y194606D02*
D03*
X182185Y198228D02*
D03*
Y194606D02*
D03*
X190846Y206102D02*
D03*
Y202480D02*
D03*
X188090Y206102D02*
D03*
Y202480D02*
D03*
X196752Y198228D02*
D03*
Y194606D02*
D03*
X193996Y198228D02*
D03*
Y194606D02*
D03*
X169181Y345827D02*
D03*
Y349449D02*
D03*
X166425Y345827D02*
D03*
Y349449D02*
D03*
X405905Y47205D02*
D03*
Y50827D02*
D03*
X447244Y62638D02*
D03*
Y59016D02*
D03*
X454725Y46063D02*
D03*
Y49685D02*
D03*
X408662Y76929D02*
D03*
Y80551D02*
D03*
X398819Y47087D02*
D03*
Y43465D02*
D03*
X391338Y86457D02*
D03*
Y82835D02*
D03*
X404331Y62953D02*
D03*
Y66575D02*
D03*
D135*
X743307Y66732D02*
D03*
Y78150D02*
D03*
X730315Y66732D02*
D03*
Y78150D02*
D03*
X473583Y414094D02*
D03*
Y402677D02*
D03*
Y457402D02*
D03*
Y445984D02*
D03*
X574748Y450118D02*
D03*
Y461535D02*
D03*
X544816Y432642D02*
D03*
Y421224D02*
D03*
X557808Y432642D02*
D03*
Y421224D02*
D03*
X653740Y445213D02*
D03*
Y433795D02*
D03*
X713375Y49256D02*
D03*
Y37838D02*
D03*
X303800Y423953D02*
D03*
Y435370D02*
D03*
D136*
X385669Y31398D02*
D03*
Y28839D02*
D03*
X389921D02*
D03*
Y31398D02*
D03*
D137*
X387795Y30118D02*
D03*
D138*
X415354Y82087D02*
D03*
D139*
X418307Y87402D02*
D03*
X416339D02*
D03*
X414370D02*
D03*
X412402D02*
D03*
X418307Y76772D02*
D03*
X416339D02*
D03*
X414370D02*
D03*
X412402D02*
D03*
D140*
X396063Y88779D02*
D03*
Y82874D02*
D03*
X400787D02*
D03*
Y88779D02*
D03*
D141*
X418622Y29724D02*
D03*
X412323D02*
D03*
X642433Y475813D02*
D03*
X648732D02*
D03*
X540184Y386046D02*
D03*
X546483D02*
D03*
X540042Y396375D02*
D03*
X546342D02*
D03*
X540184Y406646D02*
D03*
X546483D02*
D03*
X703378Y79811D02*
D03*
X709677D02*
D03*
X286221Y377476D02*
D03*
X292520D02*
D03*
X318937D02*
D03*
X325236D02*
D03*
X387039D02*
D03*
X393339D02*
D03*
X353279D02*
D03*
X359579D02*
D03*
X298837Y467698D02*
D03*
X292538D02*
D03*
D142*
X28976Y390630D02*
D03*
Y404016D02*
D03*
X32126Y390630D02*
D03*
Y404016D02*
D03*
X35276Y390630D02*
D03*
Y404016D02*
D03*
X38425Y390630D02*
D03*
Y404016D02*
D03*
X41575Y390630D02*
D03*
Y404016D02*
D03*
X44724Y390630D02*
D03*
Y404016D02*
D03*
X47874Y390630D02*
D03*
Y404016D02*
D03*
X51024Y390630D02*
D03*
Y404016D02*
D03*
X54173Y390630D02*
D03*
Y404016D02*
D03*
X57323Y390630D02*
D03*
Y404016D02*
D03*
X60472Y390630D02*
D03*
Y404016D02*
D03*
X63622Y390630D02*
D03*
Y404016D02*
D03*
X66772Y390630D02*
D03*
Y404016D02*
D03*
X69921Y390630D02*
D03*
Y404016D02*
D03*
X73071Y390630D02*
D03*
Y404016D02*
D03*
X76221Y390630D02*
D03*
Y404016D02*
D03*
X79370Y390630D02*
D03*
Y404016D02*
D03*
X82520Y390630D02*
D03*
Y404016D02*
D03*
X98268Y390630D02*
D03*
Y404016D02*
D03*
X101417Y390630D02*
D03*
Y404016D02*
D03*
X104567Y390630D02*
D03*
Y404016D02*
D03*
X107717Y390630D02*
D03*
Y404016D02*
D03*
X110866Y390630D02*
D03*
Y404016D02*
D03*
X114016Y390630D02*
D03*
Y404016D02*
D03*
X117165Y390630D02*
D03*
Y404016D02*
D03*
X120315Y390630D02*
D03*
Y404016D02*
D03*
X123465Y390630D02*
D03*
Y404016D02*
D03*
X126614Y390630D02*
D03*
Y404016D02*
D03*
X129764Y390630D02*
D03*
Y404016D02*
D03*
X132913Y390630D02*
D03*
Y404016D02*
D03*
X136063Y390630D02*
D03*
Y404016D02*
D03*
X139213Y390630D02*
D03*
Y404016D02*
D03*
X142362Y390630D02*
D03*
Y404016D02*
D03*
X145512Y390630D02*
D03*
Y404016D02*
D03*
X148661Y390630D02*
D03*
Y404016D02*
D03*
X151811Y390630D02*
D03*
Y404016D02*
D03*
X154961Y390630D02*
D03*
Y404016D02*
D03*
X158110Y390630D02*
D03*
Y404016D02*
D03*
X161260Y390630D02*
D03*
Y404016D02*
D03*
X164409Y390630D02*
D03*
Y404016D02*
D03*
X28976Y48728D02*
D03*
Y62114D02*
D03*
X32126Y48728D02*
D03*
Y62114D02*
D03*
X35276Y48728D02*
D03*
Y62114D02*
D03*
X38425Y48728D02*
D03*
Y62114D02*
D03*
X41575Y48728D02*
D03*
Y62114D02*
D03*
X44724Y48728D02*
D03*
Y62114D02*
D03*
X47874Y48728D02*
D03*
Y62114D02*
D03*
X51024Y48728D02*
D03*
Y62114D02*
D03*
X54173Y48728D02*
D03*
Y62114D02*
D03*
X57323Y48728D02*
D03*
Y62114D02*
D03*
X60472Y48728D02*
D03*
Y62114D02*
D03*
X63622Y48728D02*
D03*
Y62114D02*
D03*
X66772Y48728D02*
D03*
Y62114D02*
D03*
X69921Y48728D02*
D03*
Y62114D02*
D03*
X73071Y48728D02*
D03*
Y62114D02*
D03*
X76221Y48728D02*
D03*
Y62114D02*
D03*
X79370Y48728D02*
D03*
Y62114D02*
D03*
X82520Y48728D02*
D03*
Y62114D02*
D03*
X98268Y48728D02*
D03*
Y62114D02*
D03*
X101417Y48728D02*
D03*
Y62114D02*
D03*
X104567Y48728D02*
D03*
Y62114D02*
D03*
X107717Y48728D02*
D03*
Y62114D02*
D03*
X110866Y48728D02*
D03*
Y62114D02*
D03*
X114016Y48728D02*
D03*
Y62114D02*
D03*
X117165Y48728D02*
D03*
Y62114D02*
D03*
X120315Y48728D02*
D03*
Y62114D02*
D03*
X123465Y48728D02*
D03*
Y62114D02*
D03*
X126614Y48728D02*
D03*
Y62114D02*
D03*
X129764Y48728D02*
D03*
Y62114D02*
D03*
X132913Y48728D02*
D03*
Y62114D02*
D03*
X136063Y48728D02*
D03*
Y62114D02*
D03*
X139213Y48728D02*
D03*
Y62114D02*
D03*
X142362Y48728D02*
D03*
Y62114D02*
D03*
X145512Y48728D02*
D03*
Y62114D02*
D03*
X148661Y48728D02*
D03*
Y62114D02*
D03*
X151811Y48728D02*
D03*
Y62114D02*
D03*
X154961Y48728D02*
D03*
Y62114D02*
D03*
X158110Y48728D02*
D03*
Y62114D02*
D03*
X161260Y48728D02*
D03*
Y62114D02*
D03*
X164409Y48728D02*
D03*
Y62114D02*
D03*
X384882D02*
D03*
Y48728D02*
D03*
X381732Y62114D02*
D03*
Y48728D02*
D03*
X378583Y62114D02*
D03*
Y48728D02*
D03*
X375433Y62114D02*
D03*
Y48728D02*
D03*
X372284Y62114D02*
D03*
Y48728D02*
D03*
X369134Y62114D02*
D03*
Y48728D02*
D03*
X365984Y62114D02*
D03*
Y48728D02*
D03*
X362835Y62114D02*
D03*
Y48728D02*
D03*
X359685Y62114D02*
D03*
Y48728D02*
D03*
X356535Y62114D02*
D03*
Y48728D02*
D03*
X353386Y62114D02*
D03*
Y48728D02*
D03*
X350236Y62114D02*
D03*
Y48728D02*
D03*
X347087Y62114D02*
D03*
Y48728D02*
D03*
X343937Y62114D02*
D03*
Y48728D02*
D03*
X340787Y62114D02*
D03*
Y48728D02*
D03*
X337638Y62114D02*
D03*
Y48728D02*
D03*
X334488Y62114D02*
D03*
Y48728D02*
D03*
X331339Y62114D02*
D03*
Y48728D02*
D03*
X328189Y62114D02*
D03*
Y48728D02*
D03*
X325039Y62114D02*
D03*
Y48728D02*
D03*
X321890Y62114D02*
D03*
Y48728D02*
D03*
X318740Y62114D02*
D03*
Y48728D02*
D03*
X315591Y62114D02*
D03*
Y48728D02*
D03*
X312441Y62114D02*
D03*
Y48728D02*
D03*
X309291Y62114D02*
D03*
Y48728D02*
D03*
X306142Y62114D02*
D03*
Y48728D02*
D03*
X302992Y62114D02*
D03*
Y48728D02*
D03*
X287244Y62114D02*
D03*
Y48728D02*
D03*
X284095Y62114D02*
D03*
Y48728D02*
D03*
X280945Y62114D02*
D03*
Y48728D02*
D03*
X277795Y62114D02*
D03*
Y48728D02*
D03*
X274646Y62114D02*
D03*
Y48728D02*
D03*
X271496Y62114D02*
D03*
Y48728D02*
D03*
X268347Y62114D02*
D03*
Y48728D02*
D03*
X265197Y62114D02*
D03*
Y48728D02*
D03*
X262047Y62114D02*
D03*
Y48728D02*
D03*
X258898Y62114D02*
D03*
Y48728D02*
D03*
X255748Y62114D02*
D03*
Y48728D02*
D03*
X252598Y62114D02*
D03*
Y48728D02*
D03*
X249449Y62114D02*
D03*
Y48728D02*
D03*
X246299Y62114D02*
D03*
Y48728D02*
D03*
X243150Y62114D02*
D03*
Y48728D02*
D03*
X240000Y62114D02*
D03*
Y48728D02*
D03*
X236850Y62114D02*
D03*
Y48728D02*
D03*
X233701Y62114D02*
D03*
Y48728D02*
D03*
X230551Y62114D02*
D03*
Y48728D02*
D03*
X227402Y62114D02*
D03*
Y48728D02*
D03*
X224252Y62114D02*
D03*
Y48728D02*
D03*
X221102Y62114D02*
D03*
Y48728D02*
D03*
X217953Y62114D02*
D03*
Y48728D02*
D03*
D143*
X13780Y422441D02*
D03*
D144*
X8858Y430118D02*
D03*
X10827D02*
D03*
X12795D02*
D03*
X14764D02*
D03*
X16732D02*
D03*
X18701D02*
D03*
Y414764D02*
D03*
X16732D02*
D03*
X14764D02*
D03*
X12795D02*
D03*
X10827D02*
D03*
X8858D02*
D03*
D145*
X21457Y427362D02*
D03*
Y425394D02*
D03*
Y423425D02*
D03*
Y421457D02*
D03*
Y419488D02*
D03*
Y417520D02*
D03*
X6102D02*
D03*
Y419488D02*
D03*
Y421457D02*
D03*
Y423425D02*
D03*
Y425394D02*
D03*
Y427362D02*
D03*
D146*
X16535Y487402D02*
D03*
D147*
X61102Y486516D02*
D03*
D148*
X26024Y487894D02*
D03*
X30354D02*
D03*
X34685D02*
D03*
X39016D02*
D03*
X43346D02*
D03*
X47677D02*
D03*
X52008D02*
D03*
X56339D02*
D03*
D149*
X15846Y463386D02*
D03*
Y448819D02*
D03*
D150*
X52736Y444980D02*
D03*
X30020D02*
D03*
D151*
X5584Y491339D02*
D03*
Y498425D02*
D03*
X671850Y473363D02*
D03*
Y466276D02*
D03*
X683661Y473363D02*
D03*
Y466276D02*
D03*
X334115Y456433D02*
D03*
Y463520D02*
D03*
X322697Y456433D02*
D03*
Y463520D02*
D03*
D152*
X147441Y365453D02*
D03*
X155709Y358957D02*
D03*
Y365453D02*
D03*
X147441Y358957D02*
D03*
D153*
X151575Y365453D02*
D03*
Y358957D02*
D03*
D154*
X1152303Y390158D02*
D03*
X1177500D02*
D03*
X1215354Y444094D02*
D03*
X1190158D02*
D03*
D155*
X444193Y89961D02*
D03*
X449193D02*
D03*
X454193D02*
D03*
X459193D02*
D03*
X464193D02*
D03*
X469193D02*
D03*
X474193D02*
D03*
X479193D02*
D03*
X444193Y126575D02*
D03*
X449193D02*
D03*
X454193D02*
D03*
X459193D02*
D03*
X464193D02*
D03*
X469193D02*
D03*
X474193D02*
D03*
X479193D02*
D03*
D156*
X513724Y440256D02*
D03*
Y453287D02*
D03*
X714764Y455075D02*
D03*
Y442043D02*
D03*
X774399Y59118D02*
D03*
Y46086D02*
D03*
X364824Y432201D02*
D03*
Y445232D02*
D03*
D157*
X545997Y461972D02*
D03*
X682491Y433358D02*
D03*
X742126Y37402D02*
D03*
X332551Y423516D02*
D03*
D158*
X537238Y465909D02*
D03*
Y463941D02*
D03*
Y461972D02*
D03*
Y460004D02*
D03*
X554757Y465909D02*
D03*
Y463941D02*
D03*
Y461972D02*
D03*
Y460004D02*
D03*
Y458035D02*
D03*
X537238D02*
D03*
X691251Y429422D02*
D03*
Y431390D02*
D03*
Y433358D02*
D03*
Y435327D02*
D03*
X673731Y429422D02*
D03*
Y431390D02*
D03*
Y433358D02*
D03*
Y435327D02*
D03*
Y437295D02*
D03*
X691251D02*
D03*
X750886Y33465D02*
D03*
Y35433D02*
D03*
Y37402D02*
D03*
Y39370D02*
D03*
X733366Y33465D02*
D03*
Y35433D02*
D03*
Y37402D02*
D03*
Y39370D02*
D03*
Y41339D02*
D03*
X750886D02*
D03*
X341311Y427453D02*
D03*
X323791D02*
D03*
Y425485D02*
D03*
Y423516D02*
D03*
Y421548D02*
D03*
Y419579D02*
D03*
X341311Y425485D02*
D03*
Y423516D02*
D03*
Y421548D02*
D03*
Y419579D02*
D03*
D159*
X653803Y470758D02*
D03*
X657543Y460522D02*
D03*
X650063D02*
D03*
X304847Y450580D02*
D03*
X312328D02*
D03*
X308587Y460816D02*
D03*
D160*
X694783Y56102D02*
D03*
X663484D02*
D03*
X694783Y73819D02*
D03*
X663484D02*
D03*
D161*
X1119213Y11646D02*
D03*
Y45504D02*
D03*
X999213Y11646D02*
D03*
Y45504D02*
D03*
X879213Y11646D02*
D03*
Y45504D02*
D03*
X1119213Y105315D02*
D03*
Y71457D02*
D03*
X999213Y105315D02*
D03*
Y71457D02*
D03*
X879213Y105315D02*
D03*
Y71457D02*
D03*
D162*
X411673Y53937D02*
D03*
Y55905D02*
D03*
X442658Y67716D02*
D03*
Y65748D02*
D03*
Y63779D02*
D03*
Y61811D02*
D03*
Y59842D02*
D03*
Y57874D02*
D03*
Y55905D02*
D03*
Y53937D02*
D03*
Y51968D02*
D03*
Y50000D02*
D03*
Y48031D02*
D03*
Y46063D02*
D03*
Y44094D02*
D03*
Y42126D02*
D03*
X411673D02*
D03*
Y44094D02*
D03*
Y46063D02*
D03*
Y48031D02*
D03*
Y50000D02*
D03*
Y51968D02*
D03*
Y57874D02*
D03*
Y59842D02*
D03*
Y61811D02*
D03*
Y63779D02*
D03*
Y65748D02*
D03*
Y67716D02*
D03*
D163*
X119240Y270614D02*
D03*
Y268646D02*
D03*
Y262740D02*
D03*
Y264709D02*
D03*
Y266677D02*
D03*
Y272583D02*
D03*
X137626Y270614D02*
D03*
Y268646D02*
D03*
Y262740D02*
D03*
Y264709D02*
D03*
Y266677D02*
D03*
Y272583D02*
D03*
X119240Y278488D02*
D03*
Y280457D02*
D03*
Y282425D02*
D03*
X323965Y223370D02*
D03*
Y225339D02*
D03*
Y235181D02*
D03*
Y237150D02*
D03*
Y284394D02*
D03*
X342350D02*
D03*
X323965Y282425D02*
D03*
X342350D02*
D03*
X323965Y280457D02*
D03*
X342350D02*
D03*
X323965Y278488D02*
D03*
X342350D02*
D03*
X323965Y276520D02*
D03*
X342350D02*
D03*
X323965Y274551D02*
D03*
X342350D02*
D03*
X323965Y272583D02*
D03*
X342350D02*
D03*
X323965Y270614D02*
D03*
X342350D02*
D03*
X323965Y268646D02*
D03*
X342350D02*
D03*
X323965Y266677D02*
D03*
X342350D02*
D03*
X323965Y264709D02*
D03*
X342350D02*
D03*
X323965Y262740D02*
D03*
X342350D02*
D03*
X323965Y260772D02*
D03*
X342350D02*
D03*
X323965Y258803D02*
D03*
X342350D02*
D03*
X323965Y256835D02*
D03*
X342350D02*
D03*
X323965Y254866D02*
D03*
X342350D02*
D03*
X323965Y252898D02*
D03*
X342350D02*
D03*
X323965Y250929D02*
D03*
X342350D02*
D03*
X323965Y248961D02*
D03*
X342350D02*
D03*
X323965Y246992D02*
D03*
X342350D02*
D03*
X323965Y245024D02*
D03*
X342350D02*
D03*
X323965Y243055D02*
D03*
X342350D02*
D03*
X323965Y241087D02*
D03*
X342350D02*
D03*
X323965Y239118D02*
D03*
X342350D02*
D03*
Y237150D02*
D03*
Y235181D02*
D03*
X323965Y233213D02*
D03*
X342350D02*
D03*
X323965Y231244D02*
D03*
X342350D02*
D03*
X323965Y229276D02*
D03*
X342350D02*
D03*
X323965Y227307D02*
D03*
X342350D02*
D03*
Y207622D02*
D03*
X323965D02*
D03*
X342350Y209591D02*
D03*
X323965D02*
D03*
X342350Y211559D02*
D03*
X323965D02*
D03*
X342350Y213528D02*
D03*
X323965D02*
D03*
X342350Y215496D02*
D03*
X323965D02*
D03*
X342350Y217465D02*
D03*
X323965D02*
D03*
X342350Y219433D02*
D03*
X323965D02*
D03*
X342350Y221402D02*
D03*
X323965D02*
D03*
X342350Y223370D02*
D03*
Y225339D02*
D03*
Y187937D02*
D03*
X323965D02*
D03*
X342350Y189906D02*
D03*
X323965D02*
D03*
X342350Y191874D02*
D03*
X323965D02*
D03*
X342350Y193842D02*
D03*
X323965D02*
D03*
X342350Y195811D02*
D03*
X323965D02*
D03*
X342350Y197780D02*
D03*
X323965D02*
D03*
X342350Y199748D02*
D03*
X323965D02*
D03*
X342350Y201716D02*
D03*
X323965D02*
D03*
X342350Y203685D02*
D03*
X323965D02*
D03*
X342350Y205654D02*
D03*
X323965D02*
D03*
X342350Y178094D02*
D03*
X323965D02*
D03*
X342350Y180063D02*
D03*
X323965D02*
D03*
X342350Y182032D02*
D03*
X323965D02*
D03*
X342350Y184000D02*
D03*
X323965D02*
D03*
X342350Y185968D02*
D03*
X323965D02*
D03*
Y304079D02*
D03*
X342350D02*
D03*
X323965Y302110D02*
D03*
X342350D02*
D03*
X323965Y300142D02*
D03*
X342350D02*
D03*
X323965Y298173D02*
D03*
X342350D02*
D03*
X323965Y296205D02*
D03*
X342350D02*
D03*
X323965Y294236D02*
D03*
X342350D02*
D03*
X323965Y292268D02*
D03*
X342350D02*
D03*
X323965Y290299D02*
D03*
X342350D02*
D03*
X323965Y288331D02*
D03*
X342350D02*
D03*
X323965Y286362D02*
D03*
X342350D02*
D03*
X323965Y323764D02*
D03*
X342350D02*
D03*
X323965Y321795D02*
D03*
X342350D02*
D03*
X323965Y319827D02*
D03*
X342350D02*
D03*
X323965Y317858D02*
D03*
X342350D02*
D03*
X323965Y315890D02*
D03*
X342350D02*
D03*
X323965Y313921D02*
D03*
X342350D02*
D03*
X323965Y311953D02*
D03*
X342350D02*
D03*
X323965Y309984D02*
D03*
X342350D02*
D03*
X323965Y308016D02*
D03*
X342350D02*
D03*
X323965Y306047D02*
D03*
X342350D02*
D03*
X323965Y333606D02*
D03*
X342350D02*
D03*
X323965Y331638D02*
D03*
X342350D02*
D03*
X323965Y329669D02*
D03*
X342350D02*
D03*
X323965Y327701D02*
D03*
X342350D02*
D03*
X323965Y325732D02*
D03*
X342350D02*
D03*
X119240Y284394D02*
D03*
X137626D02*
D03*
Y282425D02*
D03*
Y280457D02*
D03*
Y278488D02*
D03*
X119240Y276520D02*
D03*
X137626D02*
D03*
X119240Y274551D02*
D03*
X137626D02*
D03*
X119240Y260772D02*
D03*
X137626D02*
D03*
X119240Y258803D02*
D03*
X137626D02*
D03*
X119240Y256835D02*
D03*
X137626D02*
D03*
X119240Y254866D02*
D03*
X137626D02*
D03*
X119240Y252898D02*
D03*
X137626D02*
D03*
X119240Y250929D02*
D03*
X137626D02*
D03*
X119240Y248961D02*
D03*
X137626D02*
D03*
X119240Y246992D02*
D03*
X137626D02*
D03*
X119240Y245024D02*
D03*
X137626D02*
D03*
X119240Y243055D02*
D03*
X137626D02*
D03*
X119240Y241087D02*
D03*
X137626D02*
D03*
X119240Y239118D02*
D03*
X137626D02*
D03*
X119240Y237150D02*
D03*
X137626D02*
D03*
X119240Y235181D02*
D03*
X137626D02*
D03*
X119240Y233213D02*
D03*
X137626D02*
D03*
X119240Y231244D02*
D03*
X137626D02*
D03*
X119240Y229276D02*
D03*
X137626D02*
D03*
X119240Y227307D02*
D03*
X137626D02*
D03*
Y207622D02*
D03*
X119240D02*
D03*
X137626Y209591D02*
D03*
X119240D02*
D03*
X137626Y211559D02*
D03*
X119240D02*
D03*
X137626Y213528D02*
D03*
X119240D02*
D03*
X137626Y215496D02*
D03*
X119240D02*
D03*
X137626Y217465D02*
D03*
X119240D02*
D03*
X137626Y219433D02*
D03*
X119240D02*
D03*
X137626Y221402D02*
D03*
X119240D02*
D03*
X137626Y223370D02*
D03*
X119240D02*
D03*
X137626Y225339D02*
D03*
X119240D02*
D03*
X137626Y187937D02*
D03*
X119240D02*
D03*
X137626Y189906D02*
D03*
X119240D02*
D03*
X137626Y191874D02*
D03*
X119240D02*
D03*
X137626Y193842D02*
D03*
X119240D02*
D03*
X137626Y195811D02*
D03*
X119240D02*
D03*
X137626Y197780D02*
D03*
X119240D02*
D03*
X137626Y199748D02*
D03*
X119240D02*
D03*
X137626Y201716D02*
D03*
X119240D02*
D03*
X137626Y203685D02*
D03*
X119240D02*
D03*
X137626Y205654D02*
D03*
X119240D02*
D03*
X137626Y178094D02*
D03*
X119240D02*
D03*
X137626Y180063D02*
D03*
X119240D02*
D03*
X137626Y182032D02*
D03*
X119240D02*
D03*
X137626Y184000D02*
D03*
X119240D02*
D03*
X137626Y185968D02*
D03*
X119240D02*
D03*
Y304079D02*
D03*
X137626D02*
D03*
X119240Y302110D02*
D03*
X137626D02*
D03*
X119240Y300142D02*
D03*
X137626D02*
D03*
X119240Y298173D02*
D03*
X137626D02*
D03*
X119240Y296205D02*
D03*
X137626D02*
D03*
X119240Y294236D02*
D03*
X137626D02*
D03*
X119240Y292268D02*
D03*
X137626D02*
D03*
X119240Y290299D02*
D03*
X137626D02*
D03*
X119240Y288331D02*
D03*
X137626D02*
D03*
X119240Y286362D02*
D03*
X137626D02*
D03*
X119240Y323764D02*
D03*
X137626D02*
D03*
X119240Y321795D02*
D03*
X137626D02*
D03*
X119240Y319827D02*
D03*
X137626D02*
D03*
X119240Y317858D02*
D03*
X137626D02*
D03*
X119240Y315890D02*
D03*
X137626D02*
D03*
X119240Y313921D02*
D03*
X137626D02*
D03*
X119240Y311953D02*
D03*
X137626D02*
D03*
X119240Y309984D02*
D03*
X137626D02*
D03*
X119240Y308016D02*
D03*
X137626D02*
D03*
X119240Y306047D02*
D03*
X137626D02*
D03*
X119240Y333606D02*
D03*
X137626D02*
D03*
X119240Y331638D02*
D03*
X137626D02*
D03*
X119240Y329669D02*
D03*
X137626D02*
D03*
X119240Y327701D02*
D03*
X137626D02*
D03*
X119240Y325732D02*
D03*
X137626D02*
D03*
D164*
X1078519Y424619D02*
D03*
Y434620D02*
D03*
X1103019Y424619D02*
D03*
Y434620D02*
D03*
D165*
X1169515Y436183D02*
D03*
Y441183D02*
D03*
Y446183D02*
D03*
Y451183D02*
D03*
X1150223Y436183D02*
D03*
Y441183D02*
D03*
Y446183D02*
D03*
Y451183D02*
D03*
X1234798D02*
D03*
Y446183D02*
D03*
Y441183D02*
D03*
Y436183D02*
D03*
X1254089Y451183D02*
D03*
Y446183D02*
D03*
Y441183D02*
D03*
Y436183D02*
D03*
D166*
X1013189Y406299D02*
D03*
X1030118D02*
D03*
X1013189Y391339D02*
D03*
X1030118D02*
D03*
D167*
X1045276Y390158D02*
D03*
Y407480D02*
D03*
D168*
X1152357Y468619D02*
D03*
X1169680D02*
D03*
D169*
X1244260Y427668D02*
D03*
X1255678D02*
D03*
X1097428Y460019D02*
D03*
X1086010D02*
D03*
X1097428Y470220D02*
D03*
X1086010D02*
D03*
X1097428Y449820D02*
D03*
X1086010D02*
D03*
X444675Y384252D02*
D03*
X433257D02*
D03*
X803888Y403519D02*
D03*
X792471D02*
D03*
X803888Y412588D02*
D03*
X792471D02*
D03*
X803888Y394248D02*
D03*
X792471D02*
D03*
X769116Y420686D02*
D03*
X780534D02*
D03*
X769116Y411824D02*
D03*
X780534D02*
D03*
X769123Y402962D02*
D03*
X780540D02*
D03*
X769145Y394133D02*
D03*
X780563D02*
D03*
X864526Y403519D02*
D03*
X853109D02*
D03*
X864526Y412588D02*
D03*
X853109D02*
D03*
X864526Y394248D02*
D03*
X853109D02*
D03*
X831468Y420686D02*
D03*
X842885D02*
D03*
X831468Y411824D02*
D03*
X842885D02*
D03*
X831468Y402962D02*
D03*
X842885D02*
D03*
X831455Y394133D02*
D03*
X842872D02*
D03*
X444675Y412588D02*
D03*
X433257D02*
D03*
X444675Y403143D02*
D03*
X433257D02*
D03*
X444675Y393697D02*
D03*
X433257D02*
D03*
X411013Y420686D02*
D03*
X422431D02*
D03*
X411013Y411824D02*
D03*
X422431D02*
D03*
X411013Y402962D02*
D03*
X422431D02*
D03*
X411013Y394133D02*
D03*
X422431D02*
D03*
D170*
X1164902Y410342D02*
D03*
Y427272D02*
D03*
D171*
X501575Y132578D02*
D03*
X503149D02*
D03*
X504724D02*
D03*
X506299D02*
D03*
Y123327D02*
D03*
X504724D02*
D03*
X503149D02*
D03*
X501575D02*
D03*
D172*
X506988Y130315D02*
D03*
Y128740D02*
D03*
Y127165D02*
D03*
Y125590D02*
D03*
X500885D02*
D03*
Y127165D02*
D03*
Y128740D02*
D03*
D173*
X501082Y130315D02*
D03*
D174*
X166819Y340634D02*
D03*
X168787D02*
D03*
X206189Y322248D02*
D03*
X208157D02*
D03*
X202252Y340634D02*
D03*
X204220D02*
D03*
X214063D02*
D03*
X216032D02*
D03*
X218000Y322248D02*
D03*
X219969D02*
D03*
X273118Y340634D02*
D03*
X269181D02*
D03*
X271150D02*
D03*
X275087D02*
D03*
X300677Y171067D02*
D03*
Y189453D02*
D03*
X302646Y171067D02*
D03*
Y189453D02*
D03*
X304614Y171067D02*
D03*
Y189453D02*
D03*
X306583Y171067D02*
D03*
Y189453D02*
D03*
X308551Y171067D02*
D03*
Y189453D02*
D03*
X280992Y171067D02*
D03*
Y189453D02*
D03*
X282961Y171067D02*
D03*
Y189453D02*
D03*
X284929Y171067D02*
D03*
Y189453D02*
D03*
X286898Y171067D02*
D03*
Y189453D02*
D03*
X288866Y171067D02*
D03*
Y189453D02*
D03*
X290835Y171067D02*
D03*
Y189453D02*
D03*
X292803Y171067D02*
D03*
Y189453D02*
D03*
X294772Y171067D02*
D03*
Y189453D02*
D03*
X296740Y171067D02*
D03*
Y189453D02*
D03*
X298709Y171067D02*
D03*
Y189453D02*
D03*
X261307Y171067D02*
D03*
Y189453D02*
D03*
X263276Y171067D02*
D03*
Y189453D02*
D03*
X265244Y171067D02*
D03*
Y189453D02*
D03*
X267213Y171067D02*
D03*
Y189453D02*
D03*
X269181Y171067D02*
D03*
Y189453D02*
D03*
X271150Y171067D02*
D03*
Y189453D02*
D03*
X273118Y171067D02*
D03*
Y189453D02*
D03*
X275087Y171067D02*
D03*
Y189453D02*
D03*
X277055Y171067D02*
D03*
Y189453D02*
D03*
X279024Y171067D02*
D03*
Y189453D02*
D03*
X160913D02*
D03*
Y171067D02*
D03*
X158945Y189453D02*
D03*
Y171067D02*
D03*
X156976Y189453D02*
D03*
Y171067D02*
D03*
X155008Y189453D02*
D03*
Y171067D02*
D03*
X153039Y189453D02*
D03*
Y171067D02*
D03*
X180598Y189453D02*
D03*
Y171067D02*
D03*
X178630Y189453D02*
D03*
Y171067D02*
D03*
X176661Y189453D02*
D03*
Y171067D02*
D03*
X174693Y189453D02*
D03*
Y171067D02*
D03*
X172724Y189453D02*
D03*
Y171067D02*
D03*
X170756Y189453D02*
D03*
Y171067D02*
D03*
X168787Y189453D02*
D03*
Y171067D02*
D03*
X166819Y189453D02*
D03*
Y171067D02*
D03*
X164850Y189453D02*
D03*
Y171067D02*
D03*
X162882Y189453D02*
D03*
Y171067D02*
D03*
X200283Y189453D02*
D03*
Y171067D02*
D03*
X198315Y189453D02*
D03*
Y171067D02*
D03*
X196346Y189453D02*
D03*
Y171067D02*
D03*
X194378Y189453D02*
D03*
Y171067D02*
D03*
X192409Y189453D02*
D03*
Y171067D02*
D03*
X190441Y189453D02*
D03*
Y171067D02*
D03*
X188472Y189453D02*
D03*
Y171067D02*
D03*
X186504Y189453D02*
D03*
Y171067D02*
D03*
X184535Y189453D02*
D03*
Y171067D02*
D03*
X182567Y189453D02*
D03*
Y171067D02*
D03*
X202252D02*
D03*
Y189453D02*
D03*
X204220Y171067D02*
D03*
Y189453D02*
D03*
X206189Y171067D02*
D03*
Y189453D02*
D03*
X208157Y171067D02*
D03*
Y189453D02*
D03*
X210126Y171067D02*
D03*
Y189453D02*
D03*
X212094Y171067D02*
D03*
Y189453D02*
D03*
X214063Y171067D02*
D03*
Y189453D02*
D03*
X216032Y171067D02*
D03*
Y189453D02*
D03*
X218000Y171067D02*
D03*
X219969D02*
D03*
X221937D02*
D03*
Y189453D02*
D03*
X223905Y171067D02*
D03*
Y189453D02*
D03*
X225874Y171067D02*
D03*
Y189453D02*
D03*
X227842Y171067D02*
D03*
Y189453D02*
D03*
X229811Y171067D02*
D03*
Y189453D02*
D03*
X231780Y171067D02*
D03*
Y189453D02*
D03*
X233748Y171067D02*
D03*
Y189453D02*
D03*
X235717Y171067D02*
D03*
Y189453D02*
D03*
X237685Y171067D02*
D03*
Y189453D02*
D03*
X239653Y171067D02*
D03*
Y189453D02*
D03*
X241622Y171067D02*
D03*
Y189453D02*
D03*
X243590Y171067D02*
D03*
Y189453D02*
D03*
X245559Y171067D02*
D03*
Y189453D02*
D03*
X247528Y171067D02*
D03*
Y189453D02*
D03*
X249496Y171067D02*
D03*
Y189453D02*
D03*
X251465Y171067D02*
D03*
Y189453D02*
D03*
X253433Y171067D02*
D03*
Y189453D02*
D03*
X255401Y171067D02*
D03*
Y189453D02*
D03*
X257370Y171067D02*
D03*
Y189453D02*
D03*
X259338Y171067D02*
D03*
Y189453D02*
D03*
X219969D02*
D03*
X218000D02*
D03*
X208157Y340634D02*
D03*
X210126D02*
D03*
X219969D02*
D03*
X221937D02*
D03*
X300677Y322248D02*
D03*
Y340634D02*
D03*
X302646Y322248D02*
D03*
Y340634D02*
D03*
X304614Y322248D02*
D03*
Y340634D02*
D03*
X306583Y322248D02*
D03*
Y340634D02*
D03*
X308551Y322248D02*
D03*
Y340634D02*
D03*
X280992Y322248D02*
D03*
Y340634D02*
D03*
X282961Y322248D02*
D03*
Y340634D02*
D03*
X284929Y322248D02*
D03*
Y340634D02*
D03*
X286898Y322248D02*
D03*
Y340634D02*
D03*
X288866Y322248D02*
D03*
Y340634D02*
D03*
X290835Y322248D02*
D03*
Y340634D02*
D03*
X292803Y322248D02*
D03*
Y340634D02*
D03*
X294772Y322248D02*
D03*
Y340634D02*
D03*
X296740Y322248D02*
D03*
Y340634D02*
D03*
X298709Y322248D02*
D03*
Y340634D02*
D03*
X261307Y322248D02*
D03*
Y340634D02*
D03*
X263276Y322248D02*
D03*
Y340634D02*
D03*
X265244Y322248D02*
D03*
Y340634D02*
D03*
X267213Y322248D02*
D03*
Y340634D02*
D03*
X269181Y322248D02*
D03*
X271150D02*
D03*
X273118D02*
D03*
X275087D02*
D03*
X277055D02*
D03*
Y340634D02*
D03*
X279024Y322248D02*
D03*
Y340634D02*
D03*
X160913D02*
D03*
Y322248D02*
D03*
X158945Y340634D02*
D03*
Y322248D02*
D03*
X156976Y340634D02*
D03*
Y322248D02*
D03*
X155008Y340634D02*
D03*
Y322248D02*
D03*
X153039Y340634D02*
D03*
Y322248D02*
D03*
X180598Y340634D02*
D03*
Y322248D02*
D03*
X178630Y340634D02*
D03*
Y322248D02*
D03*
X176661Y340634D02*
D03*
Y322248D02*
D03*
X174693Y340634D02*
D03*
Y322248D02*
D03*
X172724Y340634D02*
D03*
Y322248D02*
D03*
X170756Y340634D02*
D03*
Y322248D02*
D03*
X168787D02*
D03*
X166819D02*
D03*
X164850Y340634D02*
D03*
Y322248D02*
D03*
X162882Y340634D02*
D03*
Y322248D02*
D03*
X200283Y340634D02*
D03*
Y322248D02*
D03*
X198315Y340634D02*
D03*
Y322248D02*
D03*
X196346Y340634D02*
D03*
Y322248D02*
D03*
X194378Y340634D02*
D03*
Y322248D02*
D03*
X192409Y340634D02*
D03*
Y322248D02*
D03*
X190441Y340634D02*
D03*
Y322248D02*
D03*
X188472Y340634D02*
D03*
Y322248D02*
D03*
X186504Y340634D02*
D03*
Y322248D02*
D03*
X184535Y340634D02*
D03*
Y322248D02*
D03*
X182567Y340634D02*
D03*
Y322248D02*
D03*
X202252D02*
D03*
X204220D02*
D03*
X206189Y340634D02*
D03*
X210126Y322248D02*
D03*
X212094D02*
D03*
Y340634D02*
D03*
X214063Y322248D02*
D03*
X216032D02*
D03*
X218000Y340634D02*
D03*
X221937Y322248D02*
D03*
X223905D02*
D03*
Y340634D02*
D03*
X225874Y322248D02*
D03*
Y340634D02*
D03*
X227842Y322248D02*
D03*
Y340634D02*
D03*
X229811Y322248D02*
D03*
Y340634D02*
D03*
X231780Y322248D02*
D03*
Y340634D02*
D03*
X233748Y322248D02*
D03*
Y340634D02*
D03*
X235717Y322248D02*
D03*
Y340634D02*
D03*
X237685Y322248D02*
D03*
Y340634D02*
D03*
X239653Y322248D02*
D03*
Y340634D02*
D03*
X241622Y322248D02*
D03*
Y340634D02*
D03*
X243590Y322248D02*
D03*
Y340634D02*
D03*
X245559Y322248D02*
D03*
Y340634D02*
D03*
X247528Y322248D02*
D03*
Y340634D02*
D03*
X249496Y322248D02*
D03*
Y340634D02*
D03*
X251465Y322248D02*
D03*
Y340634D02*
D03*
X253433Y322248D02*
D03*
Y340634D02*
D03*
X255401Y322248D02*
D03*
Y340634D02*
D03*
X257370Y322248D02*
D03*
Y340634D02*
D03*
X259338Y322248D02*
D03*
Y340634D02*
D03*
D175*
X762282Y410047D02*
D03*
Y420283D02*
D03*
X824104Y402515D02*
D03*
Y412752D02*
D03*
X404341Y401728D02*
D03*
Y411964D02*
D03*
D176*
X71929Y117697D02*
D03*
X61929D02*
D03*
Y126358D02*
D03*
X71929D02*
D03*
D177*
X1336890Y199213D02*
D03*
X1330197D02*
D03*
X1336890Y196063D02*
D03*
X1330197D02*
D03*
X1336890Y192913D02*
D03*
X1330197D02*
D03*
X1336890Y189764D02*
D03*
X1330197D02*
D03*
X1216890Y199213D02*
D03*
X1210197D02*
D03*
X1216890Y196063D02*
D03*
X1210197D02*
D03*
X1216890Y192913D02*
D03*
X1210197D02*
D03*
X1216890Y189764D02*
D03*
X1210197D02*
D03*
X1096890Y199213D02*
D03*
X1090197D02*
D03*
X1096890Y196063D02*
D03*
X1090197D02*
D03*
X1096890Y192913D02*
D03*
X1090197D02*
D03*
X1096890Y189764D02*
D03*
X1090197D02*
D03*
X976890Y199213D02*
D03*
X970197D02*
D03*
X976890Y196063D02*
D03*
X970197D02*
D03*
X976890Y192913D02*
D03*
X970197D02*
D03*
X976890Y189764D02*
D03*
X970197D02*
D03*
Y209244D02*
D03*
X976890D02*
D03*
X970197Y212394D02*
D03*
X976890D02*
D03*
X970197Y215543D02*
D03*
X976890D02*
D03*
X970197Y218693D02*
D03*
X976890D02*
D03*
X970197Y240244D02*
D03*
X976890D02*
D03*
X970197Y243394D02*
D03*
X976890D02*
D03*
X970197Y246543D02*
D03*
X976890D02*
D03*
X970197Y249693D02*
D03*
X976890D02*
D03*
X910748Y218693D02*
D03*
X904055D02*
D03*
X910748Y215543D02*
D03*
X904055D02*
D03*
X910748Y212394D02*
D03*
X904055D02*
D03*
X910748Y209244D02*
D03*
X904055D02*
D03*
X910748Y249693D02*
D03*
X904055D02*
D03*
X910748Y246543D02*
D03*
X904055D02*
D03*
X910748Y243394D02*
D03*
X904055D02*
D03*
X910748Y240244D02*
D03*
X904055D02*
D03*
X910748Y279693D02*
D03*
X904055D02*
D03*
X910748Y276543D02*
D03*
X904055D02*
D03*
X910748Y273394D02*
D03*
X904055D02*
D03*
X910748Y270244D02*
D03*
X904055D02*
D03*
X910748Y304693D02*
D03*
X904055D02*
D03*
X910748Y301543D02*
D03*
X904055D02*
D03*
X910748Y298394D02*
D03*
X904055D02*
D03*
X910748Y295244D02*
D03*
X904055D02*
D03*
X970197Y256299D02*
D03*
X976890D02*
D03*
X970197Y259449D02*
D03*
X976890D02*
D03*
X970197Y262598D02*
D03*
X976890D02*
D03*
X970197Y265748D02*
D03*
X976890D02*
D03*
X970197Y295244D02*
D03*
X976890D02*
D03*
X970197Y298394D02*
D03*
X976890D02*
D03*
X970197Y301543D02*
D03*
X976890D02*
D03*
X970197Y304693D02*
D03*
X976890D02*
D03*
X1090197Y209244D02*
D03*
X1096890D02*
D03*
X1090197Y212394D02*
D03*
X1096890D02*
D03*
X1090197Y215543D02*
D03*
X1096890D02*
D03*
X1090197Y218693D02*
D03*
X1096890D02*
D03*
X1090197Y240244D02*
D03*
X1096890D02*
D03*
X1090197Y243394D02*
D03*
X1096890D02*
D03*
X1090197Y246543D02*
D03*
X1096890D02*
D03*
X1090197Y249693D02*
D03*
X1096890D02*
D03*
X1030748Y218693D02*
D03*
X1024055D02*
D03*
X1030748Y215543D02*
D03*
X1024055D02*
D03*
X1030748Y212394D02*
D03*
X1024055D02*
D03*
X1030748Y209244D02*
D03*
X1024055D02*
D03*
X1030748Y249693D02*
D03*
X1024055D02*
D03*
X1030748Y246543D02*
D03*
X1024055D02*
D03*
X1030748Y243394D02*
D03*
X1024055D02*
D03*
X1030748Y240244D02*
D03*
X1024055D02*
D03*
X1030748Y279693D02*
D03*
X1024055D02*
D03*
X1030748Y276543D02*
D03*
X1024055D02*
D03*
X1030748Y273394D02*
D03*
X1024055D02*
D03*
X1030748Y270244D02*
D03*
X1024055D02*
D03*
X1030748Y304693D02*
D03*
X1024055D02*
D03*
X1030748Y301543D02*
D03*
X1024055D02*
D03*
X1030748Y298394D02*
D03*
X1024055D02*
D03*
X1030748Y295244D02*
D03*
X1024055D02*
D03*
X1090197Y256299D02*
D03*
X1096890D02*
D03*
X1090197Y259449D02*
D03*
X1096890D02*
D03*
X1090197Y262598D02*
D03*
X1096890D02*
D03*
X1090197Y265748D02*
D03*
X1096890D02*
D03*
X1090197Y295244D02*
D03*
X1096890D02*
D03*
X1090197Y298394D02*
D03*
X1096890D02*
D03*
X1090197Y301543D02*
D03*
X1096890D02*
D03*
X1090197Y304693D02*
D03*
X1096890D02*
D03*
X1210197Y209244D02*
D03*
X1216890D02*
D03*
X1210197Y212394D02*
D03*
X1216890D02*
D03*
X1210197Y215543D02*
D03*
X1216890D02*
D03*
X1210197Y218693D02*
D03*
X1216890D02*
D03*
X1210197Y240244D02*
D03*
X1216890D02*
D03*
X1210197Y243394D02*
D03*
X1216890D02*
D03*
X1210197Y246543D02*
D03*
X1216890D02*
D03*
X1210197Y249693D02*
D03*
X1216890D02*
D03*
X1150748Y218693D02*
D03*
X1144055D02*
D03*
X1150748Y215543D02*
D03*
X1144055D02*
D03*
X1150748Y212394D02*
D03*
X1144055D02*
D03*
X1150748Y209244D02*
D03*
X1144055D02*
D03*
X1150748Y249693D02*
D03*
X1144055D02*
D03*
X1150748Y246543D02*
D03*
X1144055D02*
D03*
X1150748Y243394D02*
D03*
X1144055D02*
D03*
X1150748Y240244D02*
D03*
X1144055D02*
D03*
X1150748Y279693D02*
D03*
X1144055D02*
D03*
X1150748Y276543D02*
D03*
X1144055D02*
D03*
X1150748Y273394D02*
D03*
X1144055D02*
D03*
X1150748Y270244D02*
D03*
X1144055D02*
D03*
X1150748Y304693D02*
D03*
X1144055D02*
D03*
X1150748Y301543D02*
D03*
X1144055D02*
D03*
X1150748Y298394D02*
D03*
X1144055D02*
D03*
X1150748Y295244D02*
D03*
X1144055D02*
D03*
X1210197Y256299D02*
D03*
X1216890D02*
D03*
X1210197Y259449D02*
D03*
X1216890D02*
D03*
X1210197Y262598D02*
D03*
X1216890D02*
D03*
X1210197Y265748D02*
D03*
X1216890D02*
D03*
X1210197Y295244D02*
D03*
X1216890D02*
D03*
X1210197Y298394D02*
D03*
X1216890D02*
D03*
X1210197Y301543D02*
D03*
X1216890D02*
D03*
X1210197Y304693D02*
D03*
X1216890D02*
D03*
X1330197Y209244D02*
D03*
X1336890D02*
D03*
X1330197Y212394D02*
D03*
X1336890D02*
D03*
X1330197Y215543D02*
D03*
X1336890D02*
D03*
X1330197Y218693D02*
D03*
X1336890D02*
D03*
X1330197Y240244D02*
D03*
X1336890D02*
D03*
X1330197Y243394D02*
D03*
X1336890D02*
D03*
X1330197Y246543D02*
D03*
X1336890D02*
D03*
X1330197Y249693D02*
D03*
X1336890D02*
D03*
X1270748Y218693D02*
D03*
X1264055D02*
D03*
X1270748Y215543D02*
D03*
X1264055D02*
D03*
X1270748Y212394D02*
D03*
X1264055D02*
D03*
X1270748Y209244D02*
D03*
X1264055D02*
D03*
X1270748Y249693D02*
D03*
X1264055D02*
D03*
X1270748Y246543D02*
D03*
X1264055D02*
D03*
X1270748Y243394D02*
D03*
X1264055D02*
D03*
X1270748Y240244D02*
D03*
X1264055D02*
D03*
X1270748Y279693D02*
D03*
X1264055D02*
D03*
X1270748Y276543D02*
D03*
X1264055D02*
D03*
X1270748Y273394D02*
D03*
X1264055D02*
D03*
X1270748Y270244D02*
D03*
X1264055D02*
D03*
X1270748Y304693D02*
D03*
X1264055D02*
D03*
X1270748Y301543D02*
D03*
X1264055D02*
D03*
X1270748Y298394D02*
D03*
X1264055D02*
D03*
X1270748Y295244D02*
D03*
X1264055D02*
D03*
X1330197Y256299D02*
D03*
X1336890D02*
D03*
X1330197Y259449D02*
D03*
X1336890D02*
D03*
X1330197Y262598D02*
D03*
X1336890D02*
D03*
X1330197Y265748D02*
D03*
X1336890D02*
D03*
X1330197Y295244D02*
D03*
X1336890D02*
D03*
X1330197Y298394D02*
D03*
X1336890D02*
D03*
X1330197Y301543D02*
D03*
X1336890D02*
D03*
X1330197Y304693D02*
D03*
X1336890D02*
D03*
X856890Y199213D02*
D03*
X850197D02*
D03*
X856890Y196063D02*
D03*
X850197D02*
D03*
X856890Y192913D02*
D03*
X850197D02*
D03*
X856890Y189764D02*
D03*
X850197D02*
D03*
X856890Y218693D02*
D03*
X850197D02*
D03*
X856890Y215543D02*
D03*
X850197D02*
D03*
X856890Y212394D02*
D03*
X850197D02*
D03*
X856890Y209244D02*
D03*
X850197D02*
D03*
X856890Y304693D02*
D03*
X850197D02*
D03*
X856890Y301543D02*
D03*
X850197D02*
D03*
X856890Y298394D02*
D03*
X850197D02*
D03*
X856890Y295244D02*
D03*
X850197D02*
D03*
X856890Y265748D02*
D03*
X850197D02*
D03*
X856890Y262598D02*
D03*
X850197D02*
D03*
X856890Y259449D02*
D03*
X850197D02*
D03*
X856890Y256299D02*
D03*
X850197D02*
D03*
X784055Y295244D02*
D03*
X790748D02*
D03*
X784055Y298394D02*
D03*
X790748D02*
D03*
X784055Y301543D02*
D03*
X790748D02*
D03*
X784055Y304693D02*
D03*
X790748D02*
D03*
X784055Y270244D02*
D03*
X790748D02*
D03*
X784055Y273394D02*
D03*
X790748D02*
D03*
X784055Y276543D02*
D03*
X790748D02*
D03*
X784055Y279693D02*
D03*
X790748D02*
D03*
X784055Y240244D02*
D03*
X790748D02*
D03*
X784055Y243394D02*
D03*
X790748D02*
D03*
X784055Y246543D02*
D03*
X790748D02*
D03*
X784055Y249693D02*
D03*
X790748D02*
D03*
X784055Y209244D02*
D03*
X790748D02*
D03*
X784055Y212394D02*
D03*
X790748D02*
D03*
X784055Y215543D02*
D03*
X790748D02*
D03*
X784055Y218693D02*
D03*
X790748D02*
D03*
X856890Y249693D02*
D03*
X850197D02*
D03*
X856890Y246543D02*
D03*
X850197D02*
D03*
X856890Y243394D02*
D03*
X850197D02*
D03*
X856890Y240244D02*
D03*
X850197D02*
D03*
D178*
X427165Y54921D02*
D03*
D179*
X414370Y70413D02*
D03*
X416339D02*
D03*
X418307D02*
D03*
X420276D02*
D03*
X422244D02*
D03*
X424213D02*
D03*
X426181D02*
D03*
X428150D02*
D03*
X430118D02*
D03*
X432087D02*
D03*
X434055D02*
D03*
X436024D02*
D03*
X437992D02*
D03*
X439961D02*
D03*
Y39429D02*
D03*
X437992D02*
D03*
X436024D02*
D03*
X434055D02*
D03*
X432087D02*
D03*
X430118D02*
D03*
X428150D02*
D03*
X426181D02*
D03*
X424213D02*
D03*
X422244D02*
D03*
X420276D02*
D03*
X418307D02*
D03*
X416339D02*
D03*
X414370D02*
D03*
D180*
X786660Y426174D02*
D03*
Y422710D02*
D03*
D181*
X414022Y436913D02*
D03*
X419022D02*
D03*
X424022D02*
D03*
X429022D02*
D03*
X434022D02*
D03*
X439022D02*
D03*
X444022D02*
D03*
X772841D02*
D03*
X777841D02*
D03*
X782841D02*
D03*
X787841D02*
D03*
X792841D02*
D03*
X797841D02*
D03*
X802841D02*
D03*
X833180D02*
D03*
X838180D02*
D03*
X843180D02*
D03*
X848180D02*
D03*
X853180D02*
D03*
X858180D02*
D03*
X863180D02*
D03*
D182*
X429022Y465673D02*
D03*
X787841D02*
D03*
X848180D02*
D03*
D183*
X33210Y129920D02*
D03*
D184*
X20415Y145432D02*
D03*
X22384D02*
D03*
X24352D02*
D03*
X26320D02*
D03*
X28289D02*
D03*
X30257D02*
D03*
X32226D02*
D03*
X34194D02*
D03*
X36163D02*
D03*
X38131D02*
D03*
X40100D02*
D03*
X42068D02*
D03*
X44037D02*
D03*
X46005D02*
D03*
Y114409D02*
D03*
X44037D02*
D03*
X42068D02*
D03*
X40100D02*
D03*
X38131D02*
D03*
X36163D02*
D03*
X34194D02*
D03*
X32226D02*
D03*
X30257D02*
D03*
X28289D02*
D03*
X26320D02*
D03*
X24352D02*
D03*
X22384D02*
D03*
X20415D02*
D03*
D185*
X48722Y142716D02*
D03*
Y140747D02*
D03*
Y138779D02*
D03*
Y136810D02*
D03*
Y134842D02*
D03*
Y132873D02*
D03*
Y130905D02*
D03*
Y128936D02*
D03*
Y126968D02*
D03*
Y124999D02*
D03*
Y123031D02*
D03*
Y121062D02*
D03*
Y119094D02*
D03*
Y117125D02*
D03*
X17698D02*
D03*
Y119094D02*
D03*
Y121062D02*
D03*
Y123031D02*
D03*
Y124999D02*
D03*
Y126968D02*
D03*
Y128936D02*
D03*
Y130905D02*
D03*
Y132873D02*
D03*
Y134842D02*
D03*
Y136810D02*
D03*
Y138779D02*
D03*
Y140747D02*
D03*
Y142716D02*
D03*
D186*
X336441Y366700D02*
D03*
X326205Y362960D02*
D03*
Y370440D02*
D03*
X370890Y366589D02*
D03*
X360654Y362849D02*
D03*
Y370329D02*
D03*
X404628Y366337D02*
D03*
X394391Y362597D02*
D03*
Y370077D02*
D03*
X305115Y366929D02*
D03*
X294879Y363189D02*
D03*
Y370669D02*
D03*
D187*
X819517Y431453D02*
D03*
X815777Y440508D02*
D03*
X823257D02*
D03*
D188*
X429022Y480514D02*
D03*
X787821Y480515D02*
D03*
X848180Y480514D02*
D03*
D189*
X429022Y450851D02*
D03*
X787841Y450830D02*
D03*
X848180Y450850D02*
D03*
D190*
X579213Y178347D02*
D03*
X573307Y325591D02*
D03*
X390787Y61327D02*
D03*
X212047Y55421D02*
D03*
X161417Y438583D02*
D03*
X131889D02*
D03*
X813307Y341339D02*
D03*
X819213Y162598D02*
D03*
X693307Y325591D02*
D03*
X699213Y178347D02*
D03*
X1293307Y341339D02*
D03*
X1299213Y162598D02*
D03*
X1173307Y341339D02*
D03*
X1179213Y162598D02*
D03*
X1053307Y341339D02*
D03*
X1059213Y162598D02*
D03*
X933307Y341339D02*
D03*
X939213Y162598D02*
D03*
X453307Y325591D02*
D03*
X459213Y178347D02*
D03*
D191*
X481457Y413386D02*
D03*
Y456693D02*
D03*
D192*
Y403386D02*
D03*
Y393386D02*
D03*
Y383386D02*
D03*
Y446693D02*
D03*
Y436693D02*
D03*
Y426693D02*
D03*
D193*
X472953Y393386D02*
D03*
Y436693D02*
D03*
D194*
X1278347Y429370D02*
D03*
D195*
Y449370D02*
D03*
D196*
X299213Y10827D02*
D03*
X19213D02*
D03*
X99213Y493110D02*
D03*
X339213D02*
D03*
X559213D02*
D03*
X819213D02*
D03*
X1059213D02*
D03*
X1299213D02*
D03*
Y10827D02*
D03*
X1059213D02*
D03*
X819213D02*
D03*
X579213D02*
D03*
D197*
X96150Y168449D02*
D03*
X365441Y343252D02*
D03*
M02*
