G04*
G04 #@! TF.GenerationSoftware,Altium Limited,Altium Designer,24.3.1 (35)*
G04*
G04 Layer_Color=128*
%FSLAX25Y25*%
%MOIN*%
G70*
G04*
G04 #@! TF.SameCoordinates,071F572A-3A80-4222-8DAF-D26A5D8A3404*
G04*
G04*
G04 #@! TF.FilePolarity,Positive*
G04*
G01*
G75*
G04:AMPARAMS|DCode=32|XSize=19.68mil|YSize=35.43mil|CornerRadius=3.25mil|HoleSize=0mil|Usage=FLASHONLY|Rotation=0.000|XOffset=0mil|YOffset=0mil|HoleType=Round|Shape=RoundedRectangle|*
%AMROUNDEDRECTD32*
21,1,0.01968,0.02894,0,0,0.0*
21,1,0.01319,0.03543,0,0,0.0*
1,1,0.00650,0.00659,-0.01447*
1,1,0.00650,-0.00659,-0.01447*
1,1,0.00650,-0.00659,0.01447*
1,1,0.00650,0.00659,0.01447*
%
%ADD32ROUNDEDRECTD32*%
G04:AMPARAMS|DCode=33|XSize=19.68mil|YSize=35.43mil|CornerRadius=3.25mil|HoleSize=0mil|Usage=FLASHONLY|Rotation=90.000|XOffset=0mil|YOffset=0mil|HoleType=Round|Shape=RoundedRectangle|*
%AMROUNDEDRECTD33*
21,1,0.01968,0.02894,0,0,90.0*
21,1,0.01319,0.03543,0,0,90.0*
1,1,0.00650,0.01447,0.00659*
1,1,0.00650,0.01447,-0.00659*
1,1,0.00650,-0.01447,-0.00659*
1,1,0.00650,-0.01447,0.00659*
%
%ADD33ROUNDEDRECTD33*%
G04:AMPARAMS|DCode=37|XSize=27.95mil|YSize=34.65mil|CornerRadius=4.61mil|HoleSize=0mil|Usage=FLASHONLY|Rotation=90.000|XOffset=0mil|YOffset=0mil|HoleType=Round|Shape=RoundedRectangle|*
%AMROUNDEDRECTD37*
21,1,0.02795,0.02542,0,0,90.0*
21,1,0.01873,0.03465,0,0,90.0*
1,1,0.00922,0.01271,0.00936*
1,1,0.00922,0.01271,-0.00936*
1,1,0.00922,-0.01271,-0.00936*
1,1,0.00922,-0.01271,0.00936*
%
%ADD37ROUNDEDRECTD37*%
G04:AMPARAMS|DCode=38|XSize=27.95mil|YSize=34.65mil|CornerRadius=4.61mil|HoleSize=0mil|Usage=FLASHONLY|Rotation=0.000|XOffset=0mil|YOffset=0mil|HoleType=Round|Shape=RoundedRectangle|*
%AMROUNDEDRECTD38*
21,1,0.02795,0.02542,0,0,0.0*
21,1,0.01873,0.03465,0,0,0.0*
1,1,0.00922,0.00936,-0.01271*
1,1,0.00922,-0.00936,-0.01271*
1,1,0.00922,-0.00936,0.01271*
1,1,0.00922,0.00936,0.01271*
%
%ADD38ROUNDEDRECTD38*%
G04:AMPARAMS|DCode=46|XSize=43.31mil|YSize=65.35mil|CornerRadius=4.33mil|HoleSize=0mil|Usage=FLASHONLY|Rotation=0.000|XOffset=0mil|YOffset=0mil|HoleType=Round|Shape=RoundedRectangle|*
%AMROUNDEDRECTD46*
21,1,0.04331,0.05669,0,0,0.0*
21,1,0.03465,0.06535,0,0,0.0*
1,1,0.00866,0.01732,-0.02835*
1,1,0.00866,-0.01732,-0.02835*
1,1,0.00866,-0.01732,0.02835*
1,1,0.00866,0.01732,0.02835*
%
%ADD46ROUNDEDRECTD46*%
G04:AMPARAMS|DCode=47|XSize=43.31mil|YSize=65.35mil|CornerRadius=4.33mil|HoleSize=0mil|Usage=FLASHONLY|Rotation=90.000|XOffset=0mil|YOffset=0mil|HoleType=Round|Shape=RoundedRectangle|*
%AMROUNDEDRECTD47*
21,1,0.04331,0.05669,0,0,90.0*
21,1,0.03465,0.06535,0,0,90.0*
1,1,0.00866,0.02835,0.01732*
1,1,0.00866,0.02835,-0.01732*
1,1,0.00866,-0.02835,-0.01732*
1,1,0.00866,-0.02835,0.01732*
%
%ADD47ROUNDEDRECTD47*%
G04:AMPARAMS|DCode=50|XSize=18.9mil|YSize=21.65mil|CornerRadius=3.12mil|HoleSize=0mil|Usage=FLASHONLY|Rotation=0.000|XOffset=0mil|YOffset=0mil|HoleType=Round|Shape=RoundedRectangle|*
%AMROUNDEDRECTD50*
21,1,0.01890,0.01542,0,0,0.0*
21,1,0.01266,0.02165,0,0,0.0*
1,1,0.00624,0.00633,-0.00771*
1,1,0.00624,-0.00633,-0.00771*
1,1,0.00624,-0.00633,0.00771*
1,1,0.00624,0.00633,0.00771*
%
%ADD50ROUNDEDRECTD50*%
G04:AMPARAMS|DCode=51|XSize=18.9mil|YSize=21.65mil|CornerRadius=3.12mil|HoleSize=0mil|Usage=FLASHONLY|Rotation=90.000|XOffset=0mil|YOffset=0mil|HoleType=Round|Shape=RoundedRectangle|*
%AMROUNDEDRECTD51*
21,1,0.01890,0.01542,0,0,90.0*
21,1,0.01266,0.02165,0,0,90.0*
1,1,0.00624,0.00771,0.00633*
1,1,0.00624,0.00771,-0.00633*
1,1,0.00624,-0.00771,-0.00633*
1,1,0.00624,-0.00771,0.00633*
%
%ADD51ROUNDEDRECTD51*%
G04:AMPARAMS|DCode=52|XSize=47.64mil|YSize=71.65mil|CornerRadius=7.86mil|HoleSize=0mil|Usage=FLASHONLY|Rotation=90.000|XOffset=0mil|YOffset=0mil|HoleType=Round|Shape=RoundedRectangle|*
%AMROUNDEDRECTD52*
21,1,0.04764,0.05593,0,0,90.0*
21,1,0.03192,0.07165,0,0,90.0*
1,1,0.01572,0.02797,0.01596*
1,1,0.01572,0.02797,-0.01596*
1,1,0.01572,-0.02797,-0.01596*
1,1,0.01572,-0.02797,0.01596*
%
%ADD52ROUNDEDRECTD52*%
%ADD77O,0.02362X0.07874*%
%ADD81O,0.02362X0.04331*%
%ADD82R,0.06102X0.05118*%
%ADD222R,0.03347X0.03740*%
G04:AMPARAMS|DCode=223|XSize=24.02mil|YSize=12.6mil|CornerRadius=1.26mil|HoleSize=0mil|Usage=FLASHONLY|Rotation=0.000|XOffset=0mil|YOffset=0mil|HoleType=Round|Shape=RoundedRectangle|*
%AMROUNDEDRECTD223*
21,1,0.02402,0.01008,0,0,0.0*
21,1,0.02150,0.01260,0,0,0.0*
1,1,0.00252,0.01075,-0.00504*
1,1,0.00252,-0.01075,-0.00504*
1,1,0.00252,-0.01075,0.00504*
1,1,0.00252,0.01075,0.00504*
%
%ADD223ROUNDEDRECTD223*%
%ADD224R,0.04331X0.06693*%
%ADD225R,0.01575X0.02008*%
%ADD226R,0.02008X0.01575*%
%ADD227R,0.01499X0.05859*%
G04:AMPARAMS|DCode=228|XSize=58.59mil|YSize=14.99mil|CornerRadius=7.5mil|HoleSize=0mil|Usage=FLASHONLY|Rotation=90.000|XOffset=0mil|YOffset=0mil|HoleType=Round|Shape=RoundedRectangle|*
%AMROUNDEDRECTD228*
21,1,0.05859,0.00000,0,0,90.0*
21,1,0.04360,0.01499,0,0,90.0*
1,1,0.01499,0.00000,0.02180*
1,1,0.01499,0.00000,-0.02180*
1,1,0.01499,0.00000,-0.02180*
1,1,0.01499,0.00000,0.02180*
%
%ADD228ROUNDEDRECTD228*%
G04:AMPARAMS|DCode=229|XSize=17.72mil|YSize=55.12mil|CornerRadius=1.95mil|HoleSize=0mil|Usage=FLASHONLY|Rotation=180.000|XOffset=0mil|YOffset=0mil|HoleType=Round|Shape=RoundedRectangle|*
%AMROUNDEDRECTD229*
21,1,0.01772,0.05122,0,0,180.0*
21,1,0.01382,0.05512,0,0,180.0*
1,1,0.00390,-0.00691,0.02561*
1,1,0.00390,0.00691,0.02561*
1,1,0.00390,0.00691,-0.02561*
1,1,0.00390,-0.00691,-0.02561*
%
%ADD229ROUNDEDRECTD229*%
%ADD230R,0.01657X0.07699*%
G04:AMPARAMS|DCode=231|XSize=76.99mil|YSize=16.57mil|CornerRadius=8.28mil|HoleSize=0mil|Usage=FLASHONLY|Rotation=90.000|XOffset=0mil|YOffset=0mil|HoleType=Round|Shape=RoundedRectangle|*
%AMROUNDEDRECTD231*
21,1,0.07699,0.00000,0,0,90.0*
21,1,0.06042,0.01657,0,0,90.0*
1,1,0.01657,0.00000,0.03021*
1,1,0.01657,0.00000,-0.03021*
1,1,0.01657,0.00000,-0.03021*
1,1,0.01657,0.00000,0.03021*
%
%ADD231ROUNDEDRECTD231*%
%ADD232O,0.05787X0.01102*%
%ADD233O,0.01102X0.05787*%
G04:AMPARAMS|DCode=234|XSize=24.02mil|YSize=12.6mil|CornerRadius=1.26mil|HoleSize=0mil|Usage=FLASHONLY|Rotation=270.000|XOffset=0mil|YOffset=0mil|HoleType=Round|Shape=RoundedRectangle|*
%AMROUNDEDRECTD234*
21,1,0.02402,0.01008,0,0,270.0*
21,1,0.02150,0.01260,0,0,270.0*
1,1,0.00252,-0.00504,-0.01075*
1,1,0.00252,-0.00504,0.01075*
1,1,0.00252,0.00504,0.01075*
1,1,0.00252,0.00504,-0.01075*
%
%ADD234ROUNDEDRECTD234*%
%ADD235R,0.06693X0.04331*%
G04:AMPARAMS|DCode=236|XSize=144.1mil|YSize=102.36mil|CornerRadius=10.24mil|HoleSize=0mil|Usage=FLASHONLY|Rotation=0.000|XOffset=0mil|YOffset=0mil|HoleType=Round|Shape=RoundedRectangle|*
%AMROUNDEDRECTD236*
21,1,0.14410,0.08189,0,0,0.0*
21,1,0.12362,0.10236,0,0,0.0*
1,1,0.02047,0.06181,-0.04095*
1,1,0.02047,-0.06181,-0.04095*
1,1,0.02047,-0.06181,0.04095*
1,1,0.02047,0.06181,0.04095*
%
%ADD236ROUNDEDRECTD236*%
G04:AMPARAMS|DCode=237|XSize=139.37mil|YSize=102.36mil|CornerRadius=10.24mil|HoleSize=0mil|Usage=FLASHONLY|Rotation=0.000|XOffset=0mil|YOffset=0mil|HoleType=Round|Shape=RoundedRectangle|*
%AMROUNDEDRECTD237*
21,1,0.13937,0.08189,0,0,0.0*
21,1,0.11890,0.10236,0,0,0.0*
1,1,0.02047,0.05945,-0.04095*
1,1,0.02047,-0.05945,-0.04095*
1,1,0.02047,-0.05945,0.04095*
1,1,0.02047,0.05945,0.04095*
%
%ADD237ROUNDEDRECTD237*%
%ADD238R,0.01713X0.06102*%
%ADD239R,0.02992X0.05000*%
%ADD240O,0.06142X0.01102*%
%ADD241O,0.01102X0.06142*%
G04:AMPARAMS|DCode=242|XSize=48.82mil|YSize=87.4mil|CornerRadius=8.06mil|HoleSize=0mil|Usage=FLASHONLY|Rotation=90.000|XOffset=0mil|YOffset=0mil|HoleType=Round|Shape=RoundedRectangle|*
%AMROUNDEDRECTD242*
21,1,0.04882,0.07129,0,0,90.0*
21,1,0.03271,0.08740,0,0,90.0*
1,1,0.01611,0.03565,0.01635*
1,1,0.01611,0.03565,-0.01635*
1,1,0.01611,-0.03565,-0.01635*
1,1,0.01611,-0.03565,0.01635*
%
%ADD242ROUNDEDRECTD242*%
D32*
X213012Y81890D02*
D03*
X218760D02*
D03*
X213012Y87402D02*
D03*
X218760D02*
D03*
X525079Y195508D02*
D03*
X530827D02*
D03*
X32795Y188976D02*
D03*
X27047D02*
D03*
X34764Y194882D02*
D03*
X29016D02*
D03*
X206909Y66742D02*
D03*
X212657D02*
D03*
X297126Y308661D02*
D03*
X302874D02*
D03*
X327006Y262789D02*
D03*
X321258D02*
D03*
D33*
X839764Y154055D02*
D03*
Y148307D02*
D03*
X828740Y154055D02*
D03*
Y148307D02*
D03*
X518307Y174291D02*
D03*
Y180039D02*
D03*
X669291Y169331D02*
D03*
Y163583D02*
D03*
X404095Y56378D02*
D03*
Y62126D02*
D03*
X257874Y343425D02*
D03*
Y337677D02*
D03*
X251969D02*
D03*
Y343425D02*
D03*
X380315Y416024D02*
D03*
Y421772D02*
D03*
X374803Y416024D02*
D03*
Y421772D02*
D03*
X351504Y450118D02*
D03*
Y444370D02*
D03*
X345992Y450118D02*
D03*
Y444370D02*
D03*
X357016Y450118D02*
D03*
Y444370D02*
D03*
X362528Y450118D02*
D03*
Y444370D02*
D03*
X109012Y143583D02*
D03*
Y149331D02*
D03*
X114173Y147520D02*
D03*
Y153268D02*
D03*
X6598Y85464D02*
D03*
Y79716D02*
D03*
X29134Y85471D02*
D03*
Y79723D02*
D03*
X834252Y148307D02*
D03*
Y154055D02*
D03*
X810630Y148307D02*
D03*
Y154055D02*
D03*
X562992Y178071D02*
D03*
Y172323D02*
D03*
X594488Y178071D02*
D03*
Y172323D02*
D03*
X252206Y50421D02*
D03*
Y44673D02*
D03*
Y60264D02*
D03*
Y54516D02*
D03*
X272274Y466015D02*
D03*
Y460267D02*
D03*
X219005Y466015D02*
D03*
Y460267D02*
D03*
X245704Y466015D02*
D03*
Y460267D02*
D03*
X225949Y466015D02*
D03*
Y460267D02*
D03*
X239792Y466015D02*
D03*
Y460267D02*
D03*
X207005Y466015D02*
D03*
Y460267D02*
D03*
X213005Y466015D02*
D03*
Y460267D02*
D03*
X233844Y466015D02*
D03*
Y460267D02*
D03*
X260533Y466015D02*
D03*
Y460267D02*
D03*
X266281Y466015D02*
D03*
Y460267D02*
D03*
X254785Y466015D02*
D03*
Y460267D02*
D03*
X201005Y466015D02*
D03*
Y460267D02*
D03*
X255118Y322953D02*
D03*
Y317205D02*
D03*
D37*
X1333543Y291220D02*
D03*
Y285157D02*
D03*
X1213543Y291220D02*
D03*
Y285157D02*
D03*
X1093543Y291220D02*
D03*
Y285157D02*
D03*
X973543Y291220D02*
D03*
Y285157D02*
D03*
X853543Y291220D02*
D03*
Y285157D02*
D03*
X7480Y419409D02*
D03*
Y425472D02*
D03*
X28410Y148352D02*
D03*
Y142289D02*
D03*
X34543Y148252D02*
D03*
Y142189D02*
D03*
X492129Y204803D02*
D03*
Y198740D02*
D03*
X28060Y108246D02*
D03*
Y102183D02*
D03*
X203602Y46575D02*
D03*
Y52638D02*
D03*
X88583Y215630D02*
D03*
Y209567D02*
D03*
X94094Y215630D02*
D03*
Y209567D02*
D03*
X252206Y70657D02*
D03*
Y64595D02*
D03*
X273500Y328858D02*
D03*
Y334921D02*
D03*
X374016Y443976D02*
D03*
Y437913D02*
D03*
X354331Y404606D02*
D03*
Y398543D02*
D03*
X4331Y307323D02*
D03*
Y313386D02*
D03*
X9843D02*
D03*
Y307323D02*
D03*
X48742Y131795D02*
D03*
Y137858D02*
D03*
X1343386Y261142D02*
D03*
Y267205D02*
D03*
X1338268Y230827D02*
D03*
Y236890D02*
D03*
X1260709Y244213D02*
D03*
Y250276D02*
D03*
X1255591D02*
D03*
Y244213D02*
D03*
X1338661Y291220D02*
D03*
Y285157D02*
D03*
X1223386Y261142D02*
D03*
Y267205D02*
D03*
X1218268Y230827D02*
D03*
Y236890D02*
D03*
X1140709Y244213D02*
D03*
Y250276D02*
D03*
X1135591D02*
D03*
Y244213D02*
D03*
X1218661Y291220D02*
D03*
Y285157D02*
D03*
X1103386Y261142D02*
D03*
Y267205D02*
D03*
X1098268Y230827D02*
D03*
Y236890D02*
D03*
X1020709Y244213D02*
D03*
Y250276D02*
D03*
X1015591D02*
D03*
Y244213D02*
D03*
X1098662Y291220D02*
D03*
Y285157D02*
D03*
X983386Y261142D02*
D03*
Y267205D02*
D03*
X978268Y230827D02*
D03*
Y236890D02*
D03*
X900709Y244213D02*
D03*
Y250276D02*
D03*
X895591D02*
D03*
Y244213D02*
D03*
X978662Y291220D02*
D03*
Y285157D02*
D03*
X978268Y261142D02*
D03*
Y267205D02*
D03*
X983386Y236890D02*
D03*
Y230827D02*
D03*
X900709Y232008D02*
D03*
Y238071D02*
D03*
X895591D02*
D03*
Y232008D02*
D03*
X1098268Y261142D02*
D03*
Y267205D02*
D03*
X1103386Y236890D02*
D03*
Y230827D02*
D03*
X1020709Y232008D02*
D03*
Y238071D02*
D03*
X1015591D02*
D03*
Y232008D02*
D03*
X1218268Y261142D02*
D03*
Y267205D02*
D03*
X1223386Y236890D02*
D03*
Y230827D02*
D03*
X1140709Y232008D02*
D03*
Y238071D02*
D03*
X1135591D02*
D03*
Y232008D02*
D03*
X1338268Y261142D02*
D03*
Y267205D02*
D03*
X1343386Y236890D02*
D03*
Y230827D02*
D03*
X1260709Y232008D02*
D03*
Y238071D02*
D03*
X1255591D02*
D03*
Y232008D02*
D03*
X858661Y291220D02*
D03*
Y285157D02*
D03*
X775591Y250276D02*
D03*
Y244213D02*
D03*
X780709D02*
D03*
Y250276D02*
D03*
X858268Y230827D02*
D03*
Y236890D02*
D03*
X858268Y267205D02*
D03*
Y261142D02*
D03*
X863386D02*
D03*
Y267205D02*
D03*
X775591Y232008D02*
D03*
Y238071D02*
D03*
X780709D02*
D03*
Y232008D02*
D03*
X863386Y230827D02*
D03*
Y236890D02*
D03*
D38*
X676102Y190945D02*
D03*
X682165D02*
D03*
X504999Y204725D02*
D03*
X498936D02*
D03*
X9724Y206693D02*
D03*
X3661D02*
D03*
X23445Y309055D02*
D03*
X29508D02*
D03*
X51142Y128121D02*
D03*
X45079D02*
D03*
X32079Y109020D02*
D03*
X38142D02*
D03*
X14367Y132573D02*
D03*
X20430D02*
D03*
X61929Y138957D02*
D03*
X67992D02*
D03*
X14979Y138820D02*
D03*
X21042D02*
D03*
X55042Y122633D02*
D03*
X48979D02*
D03*
X45166Y108427D02*
D03*
X51229D02*
D03*
X14179Y123120D02*
D03*
X20242D02*
D03*
X843779Y309842D02*
D03*
X849842D02*
D03*
X498936Y210630D02*
D03*
X504999D02*
D03*
X682146Y151575D02*
D03*
X676083D02*
D03*
X61634Y134008D02*
D03*
X67697D02*
D03*
X22716Y188976D02*
D03*
X16654D02*
D03*
X24685Y194882D02*
D03*
X18622D02*
D03*
X9724Y201181D02*
D03*
X3661D02*
D03*
X89488Y304331D02*
D03*
X95551D02*
D03*
X4843Y358268D02*
D03*
X10905D02*
D03*
Y342520D02*
D03*
X4843D02*
D03*
X281772Y318799D02*
D03*
X275709D02*
D03*
X95551Y298819D02*
D03*
X89488D02*
D03*
X66024Y125571D02*
D03*
X59961D02*
D03*
X32079Y103820D02*
D03*
X38142D02*
D03*
X1322008Y206693D02*
D03*
X1315945D02*
D03*
X1294055D02*
D03*
X1287992D02*
D03*
X1256102Y279528D02*
D03*
X1262165D02*
D03*
Y274409D02*
D03*
X1256102D02*
D03*
X1265551Y211417D02*
D03*
X1271614D02*
D03*
Y216535D02*
D03*
X1265551D02*
D03*
X1202008Y206693D02*
D03*
X1195945D02*
D03*
X1174055D02*
D03*
X1167992D02*
D03*
X1136102Y279528D02*
D03*
X1142165D02*
D03*
Y274409D02*
D03*
X1136102D02*
D03*
X1145551Y211417D02*
D03*
X1151614D02*
D03*
Y216535D02*
D03*
X1145551D02*
D03*
X1082008Y206693D02*
D03*
X1075945D02*
D03*
X1054055D02*
D03*
X1047992D02*
D03*
X1016102Y279528D02*
D03*
X1022165D02*
D03*
Y274409D02*
D03*
X1016102D02*
D03*
X1025551Y211417D02*
D03*
X1031614D02*
D03*
Y216535D02*
D03*
X1025551D02*
D03*
X962008Y206693D02*
D03*
X955945D02*
D03*
X934055D02*
D03*
X927992D02*
D03*
X896102Y279528D02*
D03*
X902165D02*
D03*
Y274409D02*
D03*
X896102D02*
D03*
X905551Y211417D02*
D03*
X911614D02*
D03*
Y216535D02*
D03*
X905551D02*
D03*
X955945Y211811D02*
D03*
X962008D02*
D03*
X927992D02*
D03*
X934055D02*
D03*
X902402Y289764D02*
D03*
X908465D02*
D03*
X962795Y294094D02*
D03*
X956732D02*
D03*
X908465Y284646D02*
D03*
X902402D02*
D03*
X956732Y288976D02*
D03*
X962795D02*
D03*
X1075945Y211811D02*
D03*
X1082008D02*
D03*
X1047992D02*
D03*
X1054055D02*
D03*
X1022402Y289764D02*
D03*
X1028465D02*
D03*
X1082795Y294094D02*
D03*
X1076732D02*
D03*
X1028465Y284646D02*
D03*
X1022402D02*
D03*
X1076732Y288976D02*
D03*
X1082795D02*
D03*
X1195945Y211811D02*
D03*
X1202008D02*
D03*
X1167992D02*
D03*
X1174055D02*
D03*
X1142402Y289764D02*
D03*
X1148465D02*
D03*
X1202795Y294094D02*
D03*
X1196732D02*
D03*
X1148465Y284646D02*
D03*
X1142402D02*
D03*
X1196732Y288976D02*
D03*
X1202795D02*
D03*
X1315945Y211811D02*
D03*
X1322008D02*
D03*
X1287992D02*
D03*
X1294055D02*
D03*
X1262402Y289764D02*
D03*
X1268465D02*
D03*
X1322795Y294094D02*
D03*
X1316732D02*
D03*
X1268465Y284646D02*
D03*
X1262402D02*
D03*
X1316732Y288976D02*
D03*
X1322795D02*
D03*
X814055Y206693D02*
D03*
X807992D02*
D03*
X842008D02*
D03*
X835945D02*
D03*
X782165Y274409D02*
D03*
X776102D02*
D03*
Y279528D02*
D03*
X782165D02*
D03*
X785551Y211417D02*
D03*
X791614D02*
D03*
Y216535D02*
D03*
X785551D02*
D03*
X842795Y288976D02*
D03*
X836732D02*
D03*
X782402Y284646D02*
D03*
X788465D02*
D03*
X836732Y294094D02*
D03*
X842795D02*
D03*
X788465Y289764D02*
D03*
X782402D02*
D03*
X814055Y211811D02*
D03*
X807992D02*
D03*
X842008D02*
D03*
X835945D02*
D03*
D46*
X238189Y194882D02*
D03*
X250000D02*
D03*
X304753Y275862D02*
D03*
X316564D02*
D03*
X304753Y285847D02*
D03*
X316564D02*
D03*
D47*
X15748Y324803D02*
D03*
Y336614D02*
D03*
X6299Y324803D02*
D03*
Y336614D02*
D03*
X151969Y282508D02*
D03*
Y270697D02*
D03*
X161417D02*
D03*
Y282508D02*
D03*
D50*
X434606Y137795D02*
D03*
X438228D02*
D03*
X479882Y82677D02*
D03*
X483504D02*
D03*
X432638Y83622D02*
D03*
X436260D02*
D03*
X483504Y135039D02*
D03*
X479882D02*
D03*
D51*
X711271Y195315D02*
D03*
Y198937D02*
D03*
X714027Y195315D02*
D03*
Y198937D02*
D03*
X591271Y195315D02*
D03*
Y198937D02*
D03*
X594027Y195315D02*
D03*
Y198937D02*
D03*
X471271Y195315D02*
D03*
Y198937D02*
D03*
X474027Y195315D02*
D03*
Y198937D02*
D03*
D52*
X98819Y323425D02*
D03*
Y334842D02*
D03*
D77*
X403917Y126575D02*
D03*
X408917D02*
D03*
X413917D02*
D03*
X418917D02*
D03*
X423917D02*
D03*
X428917D02*
D03*
X433917D02*
D03*
X438917D02*
D03*
X403917Y89961D02*
D03*
X408917D02*
D03*
X413917D02*
D03*
X418917D02*
D03*
X423917D02*
D03*
X428917D02*
D03*
X433917D02*
D03*
X438917D02*
D03*
X449193Y126575D02*
D03*
X454193D02*
D03*
X459193D02*
D03*
X464193D02*
D03*
X469193D02*
D03*
X474193D02*
D03*
X479193D02*
D03*
X484193D02*
D03*
X449193Y89961D02*
D03*
X454193D02*
D03*
X459193D02*
D03*
X464193D02*
D03*
X469193D02*
D03*
X474193D02*
D03*
X479193D02*
D03*
X484193D02*
D03*
D81*
X18766Y73076D02*
D03*
X22506Y83312D02*
D03*
X15026D02*
D03*
X39634Y72982D02*
D03*
X43374Y83218D02*
D03*
X35894D02*
D03*
D82*
X64862Y354331D02*
D03*
X33563D02*
D03*
X64862Y336614D02*
D03*
X33563D02*
D03*
D222*
X49016Y103130D02*
D03*
X43898D02*
D03*
X499409Y198819D02*
D03*
X504527D02*
D03*
D223*
X3721Y352953D02*
D03*
X12028Y350394D02*
D03*
Y347835D02*
D03*
Y352953D02*
D03*
X3721Y350394D02*
D03*
Y347835D02*
D03*
D224*
X7874Y350394D02*
D03*
D225*
X635906Y306299D02*
D03*
X637874Y301220D02*
D03*
X633937D02*
D03*
X728346Y290158D02*
D03*
X726378Y295236D02*
D03*
X730315D02*
D03*
X267717Y315531D02*
D03*
X263779D02*
D03*
X265748Y310453D02*
D03*
D226*
X571437Y335433D02*
D03*
X566358Y333465D02*
D03*
Y337402D02*
D03*
X1254488Y324528D02*
D03*
X1259567Y326496D02*
D03*
Y322559D02*
D03*
X778957Y328346D02*
D03*
X784035Y330315D02*
D03*
Y326378D02*
D03*
X1144035D02*
D03*
Y330315D02*
D03*
X1138957Y328346D02*
D03*
X1018957D02*
D03*
X1024035Y330315D02*
D03*
Y326378D02*
D03*
X898957Y328346D02*
D03*
X904035Y330315D02*
D03*
Y326378D02*
D03*
D227*
X519587Y195507D02*
D03*
D228*
X517028D02*
D03*
X514468D02*
D03*
X511909D02*
D03*
Y217879D02*
D03*
X514468D02*
D03*
X517028D02*
D03*
X519587D02*
D03*
D229*
X693996Y159646D02*
D03*
X691437D02*
D03*
X688878D02*
D03*
X686319D02*
D03*
X683760D02*
D03*
X681201D02*
D03*
X678642D02*
D03*
X676083D02*
D03*
X693996Y182874D02*
D03*
X691437D02*
D03*
X688878D02*
D03*
X686319D02*
D03*
X683760D02*
D03*
X681201D02*
D03*
X678642D02*
D03*
X676083D02*
D03*
D230*
X245807Y44101D02*
D03*
D231*
X243248D02*
D03*
X238130D02*
D03*
X235571D02*
D03*
X233012D02*
D03*
X230453D02*
D03*
X227894D02*
D03*
X225335D02*
D03*
X222776D02*
D03*
X220216D02*
D03*
X217657D02*
D03*
Y66742D02*
D03*
X220216D02*
D03*
X222776D02*
D03*
X225335D02*
D03*
X227894D02*
D03*
X230453D02*
D03*
X233012D02*
D03*
X235571D02*
D03*
X238130D02*
D03*
X240689D02*
D03*
X243248D02*
D03*
X245807D02*
D03*
X240689Y44101D02*
D03*
D232*
X6417Y230906D02*
D03*
Y228937D02*
D03*
Y223031D02*
D03*
Y225000D02*
D03*
Y226969D02*
D03*
Y232874D02*
D03*
X90433Y254527D02*
D03*
Y248622D02*
D03*
Y250590D02*
D03*
Y252559D02*
D03*
Y256496D02*
D03*
Y226969D02*
D03*
X6417Y274213D02*
D03*
Y250590D02*
D03*
Y240748D02*
D03*
X90433Y258465D02*
D03*
Y262402D02*
D03*
Y266339D02*
D03*
Y268307D02*
D03*
Y270276D02*
D03*
Y272244D02*
D03*
Y284055D02*
D03*
Y282087D02*
D03*
Y291929D02*
D03*
Y289961D02*
D03*
Y287992D02*
D03*
Y286024D02*
D03*
Y280118D02*
D03*
Y278150D02*
D03*
Y276181D02*
D03*
Y274213D02*
D03*
Y264370D02*
D03*
Y260433D02*
D03*
Y246654D02*
D03*
Y244685D02*
D03*
Y242717D02*
D03*
Y240748D02*
D03*
Y238779D02*
D03*
Y236811D02*
D03*
Y234842D02*
D03*
Y232874D02*
D03*
Y230906D02*
D03*
Y228937D02*
D03*
Y225000D02*
D03*
Y223031D02*
D03*
X6417Y234842D02*
D03*
Y236811D02*
D03*
Y238779D02*
D03*
Y242717D02*
D03*
Y244685D02*
D03*
Y246654D02*
D03*
Y248622D02*
D03*
Y252559D02*
D03*
Y254527D02*
D03*
Y256496D02*
D03*
Y258465D02*
D03*
Y260433D02*
D03*
Y262402D02*
D03*
Y264370D02*
D03*
Y266339D02*
D03*
Y268307D02*
D03*
Y270276D02*
D03*
Y272244D02*
D03*
Y276181D02*
D03*
Y278150D02*
D03*
Y280118D02*
D03*
Y282087D02*
D03*
Y284055D02*
D03*
Y286024D02*
D03*
Y287992D02*
D03*
Y289961D02*
D03*
Y291929D02*
D03*
D233*
X25787Y215472D02*
D03*
X53346D02*
D03*
X71063D02*
D03*
X59252Y299488D02*
D03*
X57284D02*
D03*
X55315D02*
D03*
X53346D02*
D03*
X51378D02*
D03*
X49409D02*
D03*
X45472D02*
D03*
X43504D02*
D03*
X41535D02*
D03*
X39567D02*
D03*
X23819D02*
D03*
X21850D02*
D03*
X13976D02*
D03*
X15945D02*
D03*
X17913D02*
D03*
X19882D02*
D03*
X29724D02*
D03*
X25787D02*
D03*
X27756D02*
D03*
X31693D02*
D03*
X33661D02*
D03*
X35630D02*
D03*
X37598D02*
D03*
X47441D02*
D03*
X61221D02*
D03*
X63189D02*
D03*
X65158D02*
D03*
X67126D02*
D03*
X69095D02*
D03*
X71063D02*
D03*
X73032D02*
D03*
X75000D02*
D03*
X76968D02*
D03*
X78937D02*
D03*
X80905D02*
D03*
X82874D02*
D03*
Y215472D02*
D03*
X80905D02*
D03*
X78937D02*
D03*
X76968D02*
D03*
X75000D02*
D03*
X73032D02*
D03*
X69095D02*
D03*
X67126D02*
D03*
X65158D02*
D03*
X63189D02*
D03*
X61221D02*
D03*
X59252D02*
D03*
X57284D02*
D03*
X55315D02*
D03*
X51378D02*
D03*
X49409D02*
D03*
X47441D02*
D03*
X45472D02*
D03*
X43504D02*
D03*
X41535D02*
D03*
X39567D02*
D03*
X37598D02*
D03*
X35630D02*
D03*
X33661D02*
D03*
X31693D02*
D03*
X29724D02*
D03*
X27756D02*
D03*
X23819D02*
D03*
X21850D02*
D03*
X19882D02*
D03*
X17913D02*
D03*
X15945D02*
D03*
X13976D02*
D03*
D234*
X278937Y332893D02*
D03*
X281496D02*
D03*
X284055Y324586D02*
D03*
X278937D02*
D03*
X281496D02*
D03*
X284055Y332893D02*
D03*
D235*
X281496Y328740D02*
D03*
D236*
X115866Y438583D02*
D03*
D237*
X178070D02*
D03*
D238*
X367016Y416437D02*
D03*
X364520D02*
D03*
X362016D02*
D03*
X359520D02*
D03*
X357016D02*
D03*
X354520D02*
D03*
X352016D02*
D03*
X349520D02*
D03*
Y437894D02*
D03*
X352016D02*
D03*
X354520D02*
D03*
X357016D02*
D03*
X359520D02*
D03*
X362016D02*
D03*
X364520D02*
D03*
X367016D02*
D03*
D239*
X270492Y455551D02*
D03*
X265492D02*
D03*
X260492D02*
D03*
X255492D02*
D03*
Y425551D02*
D03*
X260492D02*
D03*
X265492D02*
D03*
X270492D02*
D03*
X243189Y455551D02*
D03*
X238189D02*
D03*
X233189D02*
D03*
X228189D02*
D03*
Y425551D02*
D03*
X233189D02*
D03*
X238189D02*
D03*
X243189D02*
D03*
X216004Y455551D02*
D03*
X211004D02*
D03*
X206004D02*
D03*
X201004D02*
D03*
Y425551D02*
D03*
X206004D02*
D03*
X211004D02*
D03*
X216004D02*
D03*
D240*
X910263Y228100D02*
D03*
Y230069D02*
D03*
Y232038D02*
D03*
Y234006D02*
D03*
Y235975D02*
D03*
Y237943D02*
D03*
Y239912D02*
D03*
Y241880D02*
D03*
Y243849D02*
D03*
Y245817D02*
D03*
Y247786D02*
D03*
Y249754D02*
D03*
Y251723D02*
D03*
Y253691D02*
D03*
Y255660D02*
D03*
Y257628D02*
D03*
Y259597D02*
D03*
Y261565D02*
D03*
Y263534D02*
D03*
Y265502D02*
D03*
Y267471D02*
D03*
Y269439D02*
D03*
Y271408D02*
D03*
Y273376D02*
D03*
Y275345D02*
D03*
X970735D02*
D03*
Y273376D02*
D03*
Y271408D02*
D03*
Y269439D02*
D03*
Y267471D02*
D03*
Y265502D02*
D03*
Y263534D02*
D03*
Y261565D02*
D03*
Y259597D02*
D03*
Y257628D02*
D03*
Y255660D02*
D03*
Y253691D02*
D03*
Y251723D02*
D03*
Y249754D02*
D03*
Y247786D02*
D03*
Y245817D02*
D03*
Y243849D02*
D03*
Y241880D02*
D03*
Y239912D02*
D03*
Y237943D02*
D03*
Y235975D02*
D03*
Y234006D02*
D03*
Y232038D02*
D03*
Y230069D02*
D03*
Y228100D02*
D03*
X1030263D02*
D03*
Y230069D02*
D03*
Y232038D02*
D03*
Y234006D02*
D03*
Y235975D02*
D03*
Y237943D02*
D03*
Y239912D02*
D03*
Y241880D02*
D03*
Y243849D02*
D03*
Y245817D02*
D03*
Y247786D02*
D03*
Y249754D02*
D03*
Y251723D02*
D03*
Y253691D02*
D03*
Y255660D02*
D03*
Y257628D02*
D03*
Y259597D02*
D03*
Y261565D02*
D03*
Y263534D02*
D03*
Y265502D02*
D03*
Y267471D02*
D03*
Y269439D02*
D03*
Y271408D02*
D03*
Y273376D02*
D03*
Y275345D02*
D03*
X1090735D02*
D03*
Y273376D02*
D03*
Y271408D02*
D03*
Y269439D02*
D03*
Y267471D02*
D03*
Y265502D02*
D03*
Y263534D02*
D03*
Y261565D02*
D03*
Y259597D02*
D03*
Y257628D02*
D03*
Y255660D02*
D03*
Y253691D02*
D03*
Y251723D02*
D03*
Y249754D02*
D03*
Y247786D02*
D03*
Y245817D02*
D03*
Y243849D02*
D03*
Y241880D02*
D03*
Y239912D02*
D03*
Y237943D02*
D03*
Y235975D02*
D03*
Y234006D02*
D03*
Y232038D02*
D03*
Y230069D02*
D03*
Y228100D02*
D03*
X1150263D02*
D03*
Y230069D02*
D03*
Y232038D02*
D03*
Y234006D02*
D03*
Y235975D02*
D03*
Y237943D02*
D03*
Y239912D02*
D03*
Y241880D02*
D03*
Y243849D02*
D03*
Y245817D02*
D03*
Y247786D02*
D03*
Y249754D02*
D03*
Y251723D02*
D03*
Y253691D02*
D03*
Y255660D02*
D03*
Y257628D02*
D03*
Y259597D02*
D03*
Y261565D02*
D03*
Y263534D02*
D03*
Y265502D02*
D03*
Y267471D02*
D03*
Y269439D02*
D03*
Y271408D02*
D03*
Y273376D02*
D03*
Y275345D02*
D03*
X1210735D02*
D03*
Y273376D02*
D03*
Y271408D02*
D03*
Y269439D02*
D03*
Y267471D02*
D03*
Y265502D02*
D03*
Y263534D02*
D03*
Y261565D02*
D03*
Y259597D02*
D03*
Y257628D02*
D03*
Y255660D02*
D03*
Y253691D02*
D03*
Y251723D02*
D03*
Y249754D02*
D03*
Y247786D02*
D03*
Y245817D02*
D03*
Y243849D02*
D03*
Y241880D02*
D03*
Y239912D02*
D03*
Y237943D02*
D03*
Y235975D02*
D03*
Y234006D02*
D03*
Y232038D02*
D03*
Y230069D02*
D03*
Y228100D02*
D03*
X1270263Y228100D02*
D03*
Y230069D02*
D03*
Y232037D02*
D03*
Y234006D02*
D03*
Y235975D02*
D03*
Y237943D02*
D03*
Y239912D02*
D03*
Y241880D02*
D03*
Y243849D02*
D03*
Y245817D02*
D03*
Y247786D02*
D03*
Y249754D02*
D03*
Y251723D02*
D03*
Y253691D02*
D03*
Y255660D02*
D03*
Y257628D02*
D03*
Y259597D02*
D03*
Y261565D02*
D03*
Y263534D02*
D03*
Y265502D02*
D03*
Y267471D02*
D03*
Y269439D02*
D03*
Y271408D02*
D03*
Y273376D02*
D03*
Y275345D02*
D03*
X1330735D02*
D03*
Y273376D02*
D03*
Y271408D02*
D03*
Y269439D02*
D03*
Y267471D02*
D03*
Y265502D02*
D03*
Y263534D02*
D03*
Y261565D02*
D03*
Y259597D02*
D03*
Y257628D02*
D03*
Y255660D02*
D03*
Y253691D02*
D03*
Y251723D02*
D03*
Y249754D02*
D03*
Y247786D02*
D03*
Y245817D02*
D03*
Y243849D02*
D03*
Y241880D02*
D03*
Y239912D02*
D03*
Y237943D02*
D03*
Y235975D02*
D03*
Y234006D02*
D03*
Y232037D02*
D03*
Y230069D02*
D03*
Y228100D02*
D03*
X850735Y228100D02*
D03*
Y230069D02*
D03*
Y232038D02*
D03*
Y234006D02*
D03*
Y235975D02*
D03*
Y237943D02*
D03*
Y239912D02*
D03*
Y241880D02*
D03*
Y243849D02*
D03*
Y245817D02*
D03*
Y247786D02*
D03*
Y249754D02*
D03*
Y251723D02*
D03*
Y253691D02*
D03*
Y255660D02*
D03*
Y257628D02*
D03*
Y259597D02*
D03*
Y261565D02*
D03*
Y263534D02*
D03*
Y265502D02*
D03*
Y267471D02*
D03*
Y269439D02*
D03*
Y271408D02*
D03*
Y273376D02*
D03*
Y275345D02*
D03*
X790263D02*
D03*
Y273376D02*
D03*
Y271408D02*
D03*
Y269439D02*
D03*
Y267471D02*
D03*
Y265502D02*
D03*
Y263534D02*
D03*
Y261565D02*
D03*
Y259597D02*
D03*
Y257628D02*
D03*
Y255660D02*
D03*
Y253691D02*
D03*
Y251723D02*
D03*
Y249754D02*
D03*
Y247786D02*
D03*
Y245817D02*
D03*
Y243849D02*
D03*
Y241880D02*
D03*
Y239912D02*
D03*
Y237943D02*
D03*
Y235975D02*
D03*
Y234006D02*
D03*
Y232038D02*
D03*
Y230069D02*
D03*
Y228100D02*
D03*
D241*
X916877Y281959D02*
D03*
X918846D02*
D03*
X920814D02*
D03*
X922783D02*
D03*
X924751D02*
D03*
X926720D02*
D03*
X928688D02*
D03*
X930657D02*
D03*
X932625D02*
D03*
X934594D02*
D03*
X936562D02*
D03*
X938531D02*
D03*
X940499D02*
D03*
X942468D02*
D03*
X944436D02*
D03*
X946405D02*
D03*
X948373D02*
D03*
X950342D02*
D03*
X952310D02*
D03*
X954279D02*
D03*
X956247D02*
D03*
X958216D02*
D03*
X960184D02*
D03*
X962153D02*
D03*
X964121D02*
D03*
Y221486D02*
D03*
X962153D02*
D03*
X960184D02*
D03*
X958216D02*
D03*
X956247D02*
D03*
X954279D02*
D03*
X952310D02*
D03*
X950342D02*
D03*
X948373D02*
D03*
X946405D02*
D03*
X944436D02*
D03*
X942468D02*
D03*
X940499D02*
D03*
X938531D02*
D03*
X936562D02*
D03*
X934594D02*
D03*
X932625D02*
D03*
X930657D02*
D03*
X928688D02*
D03*
X926720D02*
D03*
X924751D02*
D03*
X922783D02*
D03*
X920814D02*
D03*
X918846D02*
D03*
X916877D02*
D03*
X1036877Y281959D02*
D03*
X1038846D02*
D03*
X1040814D02*
D03*
X1042783D02*
D03*
X1044751D02*
D03*
X1046720D02*
D03*
X1048688D02*
D03*
X1050657D02*
D03*
X1052625D02*
D03*
X1054594D02*
D03*
X1056562D02*
D03*
X1058531D02*
D03*
X1060499D02*
D03*
X1062468D02*
D03*
X1064436D02*
D03*
X1066405D02*
D03*
X1068373D02*
D03*
X1070342D02*
D03*
X1072310D02*
D03*
X1074279D02*
D03*
X1076247D02*
D03*
X1078216D02*
D03*
X1080184D02*
D03*
X1082153D02*
D03*
X1084121D02*
D03*
Y221486D02*
D03*
X1082153D02*
D03*
X1080184D02*
D03*
X1078216D02*
D03*
X1076247D02*
D03*
X1074279D02*
D03*
X1072310D02*
D03*
X1070342D02*
D03*
X1068373D02*
D03*
X1066405D02*
D03*
X1064436D02*
D03*
X1062468D02*
D03*
X1060499D02*
D03*
X1058531D02*
D03*
X1056562D02*
D03*
X1054594D02*
D03*
X1052625D02*
D03*
X1050657D02*
D03*
X1048688D02*
D03*
X1046720D02*
D03*
X1044751D02*
D03*
X1042783D02*
D03*
X1040814D02*
D03*
X1038846D02*
D03*
X1036877D02*
D03*
X1156877Y281959D02*
D03*
X1158846D02*
D03*
X1160814D02*
D03*
X1162783D02*
D03*
X1164751D02*
D03*
X1166720D02*
D03*
X1168688D02*
D03*
X1170657D02*
D03*
X1172625D02*
D03*
X1174594D02*
D03*
X1176562D02*
D03*
X1178531D02*
D03*
X1180499D02*
D03*
X1182468D02*
D03*
X1184436D02*
D03*
X1186405D02*
D03*
X1188373D02*
D03*
X1190342D02*
D03*
X1192310D02*
D03*
X1194279D02*
D03*
X1196247D02*
D03*
X1198216D02*
D03*
X1200184D02*
D03*
X1202153D02*
D03*
X1204121D02*
D03*
Y221486D02*
D03*
X1202153D02*
D03*
X1200184D02*
D03*
X1198216D02*
D03*
X1196247D02*
D03*
X1194279D02*
D03*
X1192310D02*
D03*
X1190342D02*
D03*
X1188373D02*
D03*
X1186405D02*
D03*
X1184436D02*
D03*
X1182468D02*
D03*
X1180499D02*
D03*
X1178531D02*
D03*
X1176562D02*
D03*
X1174594D02*
D03*
X1172625D02*
D03*
X1170657D02*
D03*
X1168688D02*
D03*
X1166720D02*
D03*
X1164751D02*
D03*
X1162783D02*
D03*
X1160814D02*
D03*
X1158846D02*
D03*
X1156877D02*
D03*
X1276877Y281959D02*
D03*
X1278846D02*
D03*
X1280814D02*
D03*
X1282783D02*
D03*
X1284751D02*
D03*
X1286720D02*
D03*
X1288688D02*
D03*
X1290657D02*
D03*
X1292625D02*
D03*
X1294594D02*
D03*
X1296562D02*
D03*
X1298531D02*
D03*
X1300499D02*
D03*
X1302468D02*
D03*
X1304436D02*
D03*
X1306405D02*
D03*
X1308373D02*
D03*
X1310342D02*
D03*
X1312310D02*
D03*
X1314279D02*
D03*
X1316247D02*
D03*
X1318216D02*
D03*
X1320184D02*
D03*
X1322153D02*
D03*
X1324121D02*
D03*
Y221486D02*
D03*
X1322153D02*
D03*
X1320184D02*
D03*
X1318216D02*
D03*
X1316247D02*
D03*
X1314279D02*
D03*
X1312310D02*
D03*
X1310342D02*
D03*
X1308373D02*
D03*
X1306405D02*
D03*
X1304436D02*
D03*
X1302468D02*
D03*
X1300499D02*
D03*
X1298531D02*
D03*
X1296562D02*
D03*
X1294594D02*
D03*
X1292625D02*
D03*
X1290657D02*
D03*
X1288688D02*
D03*
X1286720D02*
D03*
X1284751D02*
D03*
X1282783D02*
D03*
X1280814D02*
D03*
X1278846D02*
D03*
X1276877D02*
D03*
X796877Y221486D02*
D03*
X798846D02*
D03*
X800814D02*
D03*
X802783D02*
D03*
X804751D02*
D03*
X806720D02*
D03*
X808688D02*
D03*
X810657D02*
D03*
X812625D02*
D03*
X814594D02*
D03*
X816562D02*
D03*
X818531D02*
D03*
X820499D02*
D03*
X822468D02*
D03*
X824436D02*
D03*
X826405D02*
D03*
X828373D02*
D03*
X830342D02*
D03*
X832310D02*
D03*
X834279D02*
D03*
X836247D02*
D03*
X838216D02*
D03*
X840184D02*
D03*
X842153D02*
D03*
X844121D02*
D03*
Y281959D02*
D03*
X842153D02*
D03*
X840184D02*
D03*
X838216D02*
D03*
X836247D02*
D03*
X834279D02*
D03*
X832310D02*
D03*
X830342D02*
D03*
X828373D02*
D03*
X826405D02*
D03*
X824436D02*
D03*
X822468D02*
D03*
X820499D02*
D03*
X818531D02*
D03*
X816562D02*
D03*
X814594D02*
D03*
X812625D02*
D03*
X810657D02*
D03*
X808688D02*
D03*
X806720D02*
D03*
X804751D02*
D03*
X802783D02*
D03*
X800814D02*
D03*
X798846D02*
D03*
X796877D02*
D03*
D242*
X108662Y335000D02*
D03*
Y326418D02*
D03*
M02*
