G04*
G04 #@! TF.GenerationSoftware,Altium Limited,Altium Designer,24.3.1 (35)*
G04*
G04 Layer_Color=32896*
%FSLAX25Y25*%
%MOIN*%
G70*
G04*
G04 #@! TF.SameCoordinates,3FCF0885-2339-4D3F-9171-BD2A1606B052*
G04*
G04*
G04 #@! TF.FilePolarity,Positive*
G04*
G01*
G75*
%ADD10C,0.01968*%
%ADD11C,0.00984*%
%ADD13C,0.00787*%
%ADD14C,0.01575*%
%ADD15C,0.00394*%
%ADD16C,0.01181*%
%ADD17C,0.00500*%
%ADD18C,0.01000*%
%ADD19C,0.00591*%
%ADD24C,0.00472*%
%ADD25C,0.00800*%
%ADD26C,0.00799*%
D10*
X245118Y52871D02*
G03*
X245118Y52871I-984J0D01*
G01*
D11*
X246299Y37988D02*
G03*
X246299Y37988I-492J0D01*
G01*
X367760Y411165D02*
G03*
X367760Y411165I-492J0D01*
G01*
X275217Y426535D02*
G03*
X275217Y426535I-394J0D01*
G01*
X247913D02*
G03*
X247913Y426535I-394J0D01*
G01*
X220728D02*
G03*
X220728Y426535I-394J0D01*
G01*
D13*
X3051Y346063D02*
G03*
X3051Y346063I-394J0D01*
G01*
X277559Y333957D02*
G03*
X277559Y333957I-394J0D01*
G01*
X116841Y432165D02*
G03*
X160368Y412967I28828J6417D01*
G01*
X160368Y464198D02*
G03*
X116841Y445000I-14699J-25616D01*
G01*
X8858Y422244D02*
Y422638D01*
X6102Y422244D02*
Y422638D01*
X155512Y274437D02*
Y278768D01*
X148425Y274437D02*
Y278768D01*
X157874Y274437D02*
Y278768D01*
X164961Y274437D02*
Y278768D01*
X247087Y49919D02*
Y60924D01*
X216378D02*
X247087D01*
X216378Y49919D02*
Y60924D01*
Y49919D02*
X247087D01*
X267028Y310236D02*
X270472D01*
Y313484D01*
X261024Y310236D02*
X264469D01*
X261024D02*
Y313484D01*
X21522Y74848D02*
X24475D01*
Y78194D01*
X13058Y74848D02*
X16010D01*
X13058D02*
Y78194D01*
X42390Y74753D02*
X45342D01*
Y78100D01*
X33925Y74753D02*
X36878D01*
X33925D02*
Y78100D01*
X19291Y328543D02*
Y332874D01*
X12205Y328543D02*
Y332874D01*
X9843Y328543D02*
Y332874D01*
X2756Y328543D02*
Y332874D01*
X160368Y412967D02*
X160379D01*
X163110Y410236D01*
X175196D01*
X175196D02*
X175196D01*
X175196D02*
Y432185D01*
X175196Y444980D02*
Y466929D01*
X175196D01*
X163110D02*
X175196D01*
X160379Y464198D02*
X163110Y466929D01*
X160368Y464198D02*
X160379D01*
X35921Y145024D02*
Y145417D01*
X33165Y145024D02*
Y145417D01*
X367894Y420866D02*
Y433465D01*
X348642D02*
X367894D01*
X348642Y420866D02*
Y433465D01*
Y420866D02*
X367894D01*
X9055Y296850D02*
X12717D01*
X9055Y293189D02*
Y296850D01*
X84134D02*
X87795D01*
Y293189D02*
Y296850D01*
X84134Y218110D02*
X87795D01*
Y221772D01*
X9055Y218110D02*
X12717D01*
X9055D02*
Y221772D01*
X51813Y124011D02*
X52207D01*
X51813Y121255D02*
X52207D01*
X64764Y132630D02*
X65158D01*
X64764Y135386D02*
X65158D01*
X64764Y137579D02*
X65158D01*
X64764Y140335D02*
X65158D01*
X27032Y145124D02*
Y145517D01*
X29788Y145124D02*
Y145517D01*
X26682Y105017D02*
Y105411D01*
X29438Y105017D02*
Y105411D01*
X102362Y327165D02*
Y331102D01*
X95276Y327165D02*
Y331102D01*
X47913Y126742D02*
X48307D01*
X47913Y129498D02*
X48307D01*
X34913Y110398D02*
X35307D01*
X34913Y107642D02*
X35307D01*
X17202Y133951D02*
X17595D01*
X17202Y131195D02*
X17595D01*
X17813Y140198D02*
X18207D01*
X17813Y137443D02*
X18207D01*
X48001Y109805D02*
X48395D01*
X48001Y107049D02*
X48395D01*
X17013Y124498D02*
X17407D01*
X17013Y121742D02*
X17407D01*
X241929Y198425D02*
X246260D01*
X241929Y191339D02*
X246260D01*
X400748Y94488D02*
Y122047D01*
X442087Y94488D02*
Y122047D01*
X446024Y94488D02*
Y122047D01*
X487362Y94488D02*
Y122047D01*
X308493Y279405D02*
X312824D01*
X308493Y272319D02*
X312824D01*
X308493Y289391D02*
X312824D01*
X308493Y282304D02*
X312824D01*
D14*
X11575Y299783D02*
G03*
X11575Y299783I-787J0D01*
G01*
X443051Y89961D02*
G03*
X443051Y89961I-787J0D01*
G01*
X488327D02*
G03*
X488327Y89961I-787J0D01*
G01*
D15*
X44390Y312008D02*
G03*
X44390Y312008I-2953J0D01*
G01*
X59941D02*
G03*
X59941Y312008I-2953J0D01*
G01*
X107283Y283465D02*
G03*
X107283Y283465I-2953J0D01*
G01*
X471457Y377205D02*
X494449D01*
Y418843D01*
X471457D02*
X494449D01*
X471457Y398024D02*
Y418843D01*
Y377205D02*
Y388610D01*
Y420512D02*
X494449D01*
Y462150D01*
X471457D02*
X494449D01*
X471457Y441331D02*
Y462150D01*
Y420512D02*
Y431917D01*
D16*
X12762Y83115D02*
G03*
X12762Y83115I-591J0D01*
G01*
X33630Y83021D02*
G03*
X33630Y83021I-591J0D01*
G01*
X910578Y225345D02*
G03*
X910578Y225345I-591J0D01*
G01*
X1030578D02*
G03*
X1030578Y225345I-591J0D01*
G01*
X1150578D02*
G03*
X1150578Y225345I-591J0D01*
G01*
X1270578Y225345D02*
G03*
X1270578Y225345I-591J0D01*
G01*
X790578Y225345D02*
G03*
X790578Y225345I-591J0D01*
G01*
D17*
X275039Y429528D02*
Y451575D01*
X250945D02*
X275039D01*
X250945Y429528D02*
Y451575D01*
Y429528D02*
X275039D01*
X247736D02*
Y451575D01*
X223642D02*
X247736D01*
X223642Y429528D02*
Y451575D01*
Y429528D02*
X247736D01*
X220551D02*
Y451575D01*
X196457D02*
X220551D01*
X196457Y429528D02*
Y451575D01*
Y429528D02*
X220551D01*
D18*
X63689Y358972D02*
G03*
X63689Y358972I-476J0D01*
G01*
X27559Y440945D02*
X107087D01*
X27559Y466142D02*
X107087D01*
Y440945D02*
Y466142D01*
X27559Y440945D02*
Y466142D01*
X37402Y333661D02*
X61024D01*
X37402D02*
Y357283D01*
X61024D01*
Y333661D02*
Y357283D01*
X107087Y466142D02*
X113378Y472433D01*
X196457Y429528D02*
Y451575D01*
Y429528D02*
X275039D01*
Y451575D01*
X196457D02*
X275039D01*
X175598Y472433D02*
X196457Y451575D01*
X113378Y472433D02*
X175600D01*
X125100Y285499D02*
X122434D01*
X123767D01*
Y281500D01*
X121101D02*
Y285499D01*
X119102D01*
X118436Y284832D01*
Y283499D01*
X119102Y282833D01*
X121101D01*
X117103Y284832D02*
X116436Y285499D01*
X115103D01*
X114437Y284832D01*
Y284166D01*
X115103Y283499D01*
X115770D01*
X115103D01*
X114437Y282833D01*
Y282166D01*
X115103Y281500D01*
X116436D01*
X117103Y282166D01*
X111105Y281500D02*
Y285499D01*
X113104Y283499D01*
X110438D01*
X35300Y314036D02*
X32634D01*
X33967D01*
Y310037D01*
X31301D02*
Y314036D01*
X29302D01*
X28635Y313369D01*
Y312036D01*
X29302Y311370D01*
X31301D01*
X24637Y310037D02*
X27303D01*
X24637Y312703D01*
Y313369D01*
X25303Y314036D01*
X26636D01*
X27303Y313369D01*
X20638Y314036D02*
X23304D01*
Y312036D01*
X21971Y312703D01*
X21305D01*
X20638Y312036D01*
Y310703D01*
X21305Y310037D01*
X22637D01*
X23304Y310703D01*
X77800Y314036D02*
X75134D01*
X76467D01*
Y310037D01*
X73801D02*
Y314036D01*
X71802D01*
X71135Y313369D01*
Y312036D01*
X71802Y311370D01*
X73801D01*
X67137Y310037D02*
X69803D01*
X67137Y312703D01*
Y313369D01*
X67803Y314036D01*
X69136D01*
X69803Y313369D01*
X63805Y310037D02*
Y314036D01*
X65804Y312036D01*
X63138D01*
X49201Y367898D02*
X50201Y368898D01*
X52200D01*
X53200Y367898D01*
Y366899D01*
X52200Y365899D01*
X50201D01*
X49201Y364899D01*
Y363900D01*
X50201Y362900D01*
X52200D01*
X53200Y363900D01*
X47202Y362900D02*
X45203D01*
X46202D01*
Y368898D01*
X47202Y367898D01*
X104033Y122600D02*
X110030D01*
Y125599D01*
X109031Y126599D01*
X107032D01*
X106032Y125599D01*
Y122600D01*
Y124599D02*
X104033Y126599D01*
X109031Y128598D02*
X110030Y129598D01*
Y131597D01*
X109031Y132597D01*
X108031D01*
X107032Y131597D01*
Y130597D01*
Y131597D01*
X106032Y132597D01*
X105032D01*
X104033Y131597D01*
Y129598D01*
X105032Y128598D01*
X109031Y134596D02*
X110030Y135596D01*
Y137595D01*
X109031Y138595D01*
X108031D01*
X107032Y137595D01*
X106032Y138595D01*
X105032D01*
X104033Y137595D01*
Y135596D01*
X105032Y134596D01*
X106032D01*
X107032Y135596D01*
X108031Y134596D01*
X109031D01*
X107032Y135596D02*
Y137595D01*
X113170Y126600D02*
X119168D01*
Y129599D01*
X118169Y130599D01*
X116169D01*
X115170Y129599D01*
Y126600D01*
Y128599D02*
X113170Y130599D01*
X118169Y132598D02*
X119168Y133598D01*
Y135597D01*
X118169Y136597D01*
X117169D01*
X116169Y135597D01*
Y134597D01*
Y135597D01*
X115170Y136597D01*
X114170D01*
X113170Y135597D01*
Y133598D01*
X114170Y132598D01*
X119168Y138596D02*
Y142595D01*
X118169D01*
X114170Y138596D01*
X113170D01*
X59700Y184820D02*
Y190818D01*
X56701D01*
X55701Y189818D01*
Y187819D01*
X56701Y186819D01*
X59700D01*
X57701D02*
X55701Y184820D01*
X53702Y189818D02*
X52702Y190818D01*
X50703D01*
X49703Y189818D01*
Y188819D01*
X50703Y187819D01*
X51703D01*
X50703D01*
X49703Y186819D01*
Y185820D01*
X50703Y184820D01*
X52702D01*
X53702Y185820D01*
X47704Y189818D02*
X46704Y190818D01*
X44705D01*
X43705Y189818D01*
Y188819D01*
X44705Y187819D01*
X43705Y186819D01*
Y185820D01*
X44705Y184820D01*
X46704D01*
X47704Y185820D01*
Y186819D01*
X46704Y187819D01*
X47704Y188819D01*
Y189818D01*
X46704Y187819D02*
X44705D01*
X41706Y190818D02*
Y184820D01*
X38707D01*
X37707Y185820D01*
Y186819D01*
X38707Y187819D01*
X41706D01*
X38707D01*
X37707Y188819D01*
Y189818D01*
X38707Y190818D01*
X41706D01*
X61700Y193080D02*
Y199078D01*
X58701D01*
X57701Y198078D01*
Y196079D01*
X58701Y195079D01*
X61700D01*
X59701D02*
X57701Y193080D01*
X55702Y198078D02*
X54702Y199078D01*
X52703D01*
X51703Y198078D01*
Y197078D01*
X52703Y196079D01*
X53703D01*
X52703D01*
X51703Y195079D01*
Y194079D01*
X52703Y193080D01*
X54702D01*
X55702Y194079D01*
X49704Y199078D02*
X45705D01*
Y198078D01*
X49704Y194079D01*
Y193080D01*
X43706Y199078D02*
Y193080D01*
X40707D01*
X39707Y194079D01*
Y195079D01*
X40707Y196079D01*
X43706D01*
X40707D01*
X39707Y197078D01*
Y198078D01*
X40707Y199078D01*
X43706D01*
X28701Y176393D02*
X29701Y177393D01*
X31700D01*
X32700Y176393D01*
Y172394D01*
X31700Y171395D01*
X29701D01*
X28701Y172394D01*
X26702Y171395D02*
X24703D01*
X25702D01*
Y177393D01*
X26702Y176393D01*
X21704Y171395D02*
X19704D01*
X20704D01*
Y177393D01*
X21704Y176393D01*
X16705D02*
X15706Y177393D01*
X13706D01*
X12707Y176393D01*
Y175393D01*
X13706Y174394D01*
X14706D01*
X13706D01*
X12707Y173394D01*
Y172394D01*
X13706Y171395D01*
X15706D01*
X16705Y172394D01*
X10707Y177393D02*
Y171395D01*
X7708D01*
X6708Y172394D01*
Y173394D01*
X7708Y174394D01*
X10707D01*
X7708D01*
X6708Y175393D01*
Y176393D01*
X7708Y177393D01*
X10707D01*
X30601Y184263D02*
X31601Y185263D01*
X33600D01*
X34600Y184263D01*
Y180264D01*
X33600Y179265D01*
X31601D01*
X30601Y180264D01*
X28602Y179265D02*
X26603D01*
X27602D01*
Y185263D01*
X28602Y184263D01*
X23604Y179265D02*
X21604D01*
X22604D01*
Y185263D01*
X23604Y184263D01*
X14606Y179265D02*
X18605D01*
X14606Y183264D01*
Y184263D01*
X15606Y185263D01*
X17605D01*
X18605Y184263D01*
X12607Y185263D02*
Y179265D01*
X9608D01*
X8608Y180264D01*
Y181264D01*
X9608Y182264D01*
X12607D01*
X9608D01*
X8608Y183264D01*
Y184263D01*
X9608Y185263D01*
X12607D01*
X608833Y161349D02*
Y167347D01*
X605834D01*
X604834Y166347D01*
Y164348D01*
X605834Y163348D01*
X608833D01*
X606834D02*
X604834Y161349D01*
X602835Y162348D02*
X601835Y161349D01*
X599836D01*
X598836Y162348D01*
Y166347D01*
X599836Y167347D01*
X601835D01*
X602835Y166347D01*
Y165348D01*
X601835Y164348D01*
X598836D01*
X596837Y162348D02*
X595837Y161349D01*
X593838D01*
X592838Y162348D01*
Y166347D01*
X593838Y167347D01*
X595837D01*
X596837Y166347D01*
Y165348D01*
X595837Y164348D01*
X592838D01*
X577337Y161349D02*
Y167347D01*
X574338D01*
X573338Y166347D01*
Y164348D01*
X574338Y163348D01*
X577337D01*
X575338D02*
X573338Y161349D01*
X571339Y162348D02*
X570339Y161349D01*
X568340D01*
X567340Y162348D01*
Y166347D01*
X568340Y167347D01*
X570339D01*
X571339Y166347D01*
Y165348D01*
X570339Y164348D01*
X567340D01*
X565341Y167347D02*
X561342D01*
Y166347D01*
X565341Y162348D01*
Y161349D01*
X841414Y159031D02*
Y165029D01*
X838415D01*
X837415Y164030D01*
Y162030D01*
X838415Y161030D01*
X841414D01*
X839414D02*
X837415Y159031D01*
X835416Y164030D02*
X834416Y165029D01*
X832417D01*
X831417Y164030D01*
Y163030D01*
X832417Y162030D01*
X831417Y161030D01*
Y160031D01*
X832417Y159031D01*
X834416D01*
X835416Y160031D01*
Y161030D01*
X834416Y162030D01*
X835416Y163030D01*
Y164030D01*
X834416Y162030D02*
X832417D01*
X825419Y165029D02*
X829418D01*
Y162030D01*
X827418Y163030D01*
X826419D01*
X825419Y162030D01*
Y160031D01*
X826419Y159031D01*
X828418D01*
X829418Y160031D01*
X812280Y159031D02*
Y165029D01*
X809281D01*
X808281Y164030D01*
Y162030D01*
X809281Y161030D01*
X812280D01*
X810281D02*
X808281Y159031D01*
X806282Y164030D02*
X805282Y165029D01*
X803283D01*
X802283Y164030D01*
Y163030D01*
X803283Y162030D01*
X802283Y161030D01*
Y160031D01*
X803283Y159031D01*
X805282D01*
X806282Y160031D01*
Y161030D01*
X805282Y162030D01*
X806282Y163030D01*
Y164030D01*
X805282Y162030D02*
X803283D01*
X797285Y159031D02*
Y165029D01*
X800284Y162030D01*
X796285D01*
X835902Y159031D02*
Y165029D01*
X832903D01*
X831903Y164030D01*
Y162030D01*
X832903Y161030D01*
X835902D01*
X833903D02*
X831903Y159031D01*
X829904Y165029D02*
X825905D01*
Y164030D01*
X829904Y160031D01*
Y159031D01*
X819907Y165029D02*
X823906D01*
Y162030D01*
X821906Y163030D01*
X820907D01*
X819907Y162030D01*
Y160031D01*
X820907Y159031D01*
X822906D01*
X823906Y160031D01*
X830390Y159031D02*
Y165029D01*
X827391D01*
X826392Y164030D01*
Y162030D01*
X827391Y161030D01*
X830390D01*
X828391D02*
X826392Y159031D01*
X824392Y165029D02*
X820393D01*
Y164030D01*
X824392Y160031D01*
Y159031D01*
X815395D02*
Y165029D01*
X818394Y162030D01*
X814395D01*
X23322Y346144D02*
X18324D01*
X17324Y347143D01*
Y349143D01*
X18324Y350142D01*
X23322D01*
X17324Y356140D02*
Y352142D01*
X21323Y356140D01*
X22322D01*
X23322Y355141D01*
Y353141D01*
X22322Y352142D01*
X17324Y362139D02*
Y358140D01*
X21323Y362139D01*
X22322D01*
X23322Y361139D01*
Y359139D01*
X22322Y358140D01*
X9949Y342859D02*
Y348857D01*
X6950D01*
X5951Y347857D01*
Y345858D01*
X6950Y344858D01*
X9949D01*
X7950D02*
X5951Y342859D01*
X952D02*
Y348857D01*
X3951Y345858D01*
X-48D01*
X-5046Y342859D02*
Y348857D01*
X-2047Y345858D01*
X-6046D01*
X19398Y342859D02*
Y348857D01*
X16399D01*
X15399Y347857D01*
Y345858D01*
X16399Y344858D01*
X19398D01*
X17399D02*
X15399Y342859D01*
X10401D02*
Y348857D01*
X13400Y345858D01*
X9401D01*
X7402Y347857D02*
X6402Y348857D01*
X4403D01*
X3403Y347857D01*
Y346857D01*
X4403Y345858D01*
X5403D01*
X4403D01*
X3403Y344858D01*
Y343858D01*
X4403Y342859D01*
X6402D01*
X7402Y343858D01*
X8125Y353168D02*
X9125Y354168D01*
X11124D01*
X12124Y353168D01*
Y349169D01*
X11124Y348170D01*
X9125D01*
X8125Y349169D01*
X6126Y348170D02*
X4127D01*
X5126D01*
Y354168D01*
X6126Y353168D01*
X1128Y348170D02*
X-872D01*
X128D01*
Y354168D01*
X1128Y353168D01*
X-7869Y354168D02*
X-3871D01*
Y351169D01*
X-5870Y352168D01*
X-6870D01*
X-7869Y351169D01*
Y349169D01*
X-6870Y348170D01*
X-4871D01*
X-3871Y349169D01*
X7623Y347619D02*
X6623Y346620D01*
X4624D01*
X3624Y347619D01*
Y351618D01*
X4624Y352618D01*
X6623D01*
X7623Y351618D01*
X9622Y352618D02*
X11621D01*
X10622D01*
Y346620D01*
X9622Y347619D01*
X14620Y352618D02*
X16620D01*
X15620D01*
Y346620D01*
X14620Y347619D01*
X22618Y352618D02*
Y346620D01*
X19619Y349619D01*
X23618D01*
X267248Y334190D02*
X272246D01*
X273246Y333190D01*
Y331191D01*
X272246Y330191D01*
X267248D01*
X273246Y328192D02*
Y326193D01*
Y327192D01*
X267248D01*
X268248Y328192D01*
Y323194D02*
X267248Y322194D01*
Y320195D01*
X268248Y319195D01*
X269247D01*
X270247Y320195D01*
X271247Y319195D01*
X272246D01*
X273246Y320195D01*
Y322194D01*
X272246Y323194D01*
X271247D01*
X270247Y322194D01*
X269247Y323194D01*
X268248D01*
X270247Y322194D02*
Y320195D01*
X250300Y318942D02*
X256298D01*
Y315943D01*
X255298Y314943D01*
X251300D01*
X250300Y315943D01*
Y318942D01*
X256298Y309945D02*
X250300D01*
X253299Y312944D01*
Y308945D01*
X275849Y318641D02*
X274849Y317642D01*
X272850D01*
X271850Y318641D01*
Y322640D01*
X272850Y323640D01*
X274849D01*
X275849Y322640D01*
X277848D02*
X278848Y323640D01*
X280847D01*
X281847Y322640D01*
Y318641D01*
X280847Y317642D01*
X278848D01*
X277848Y318641D01*
Y319641D01*
X278848Y320641D01*
X281847D01*
X283846Y322640D02*
X284846Y323640D01*
X286845D01*
X287845Y322640D01*
Y318641D01*
X286845Y317642D01*
X284846D01*
X283846Y318641D01*
Y319641D01*
X284846Y320641D01*
X287845D01*
X291988Y321148D02*
X292988Y320148D01*
Y318149D01*
X291988Y317149D01*
X287990D01*
X286990Y318149D01*
Y320148D01*
X287990Y321148D01*
Y323147D02*
X286990Y324147D01*
Y326146D01*
X287990Y327146D01*
X291988D01*
X292988Y326146D01*
Y324147D01*
X291988Y323147D01*
X290989D01*
X289989Y324147D01*
Y327146D01*
X291988Y329145D02*
X292988Y330145D01*
Y332144D01*
X291988Y333144D01*
X290989D01*
X289989Y332144D01*
X288989Y333144D01*
X287990D01*
X286990Y332144D01*
Y330145D01*
X287990Y329145D01*
X288989D01*
X289989Y330145D01*
X290989Y329145D01*
X291988D01*
X289989Y330145D02*
Y332144D01*
X150700Y403998D02*
Y398000D01*
X147701D01*
X146701Y399000D01*
Y399999D01*
X147701Y400999D01*
X150700D01*
X147701D01*
X146701Y401999D01*
Y402998D01*
X147701Y403998D01*
X150700D01*
X144702Y398000D02*
X142703D01*
X143702D01*
Y403998D01*
X144702Y402998D01*
X467398Y433300D02*
X461400Y437299D01*
X467398D02*
X461400Y433300D01*
Y442297D02*
X467398D01*
X464399Y439298D01*
Y443297D01*
X467398Y445296D02*
X461400D01*
Y448295D01*
X462400Y449295D01*
X463399D01*
X464399Y448295D01*
Y445296D01*
Y448295D01*
X465399Y449295D01*
X466398D01*
X467398Y448295D01*
Y445296D01*
Y390000D02*
X461400Y393999D01*
X467398D02*
X461400Y390000D01*
Y398997D02*
X467398D01*
X464399Y395998D01*
Y399997D01*
X461400Y401996D02*
X465399D01*
X467398Y403996D01*
X465399Y405995D01*
X461400D01*
X464399D01*
Y401996D01*
X344400Y429098D02*
Y424100D01*
X343400Y423100D01*
X341401D01*
X340401Y424100D01*
Y429098D01*
X334403Y423100D02*
X338402D01*
X334403Y427099D01*
Y428098D01*
X335403Y429098D01*
X337402D01*
X338402Y428098D01*
X332404Y424100D02*
X331404Y423100D01*
X329405D01*
X328405Y424100D01*
Y428098D01*
X329405Y429098D01*
X331404D01*
X332404Y428098D01*
Y427099D01*
X331404Y426099D01*
X328405D01*
X370619Y391100D02*
X376617D01*
Y394099D01*
X375618Y395099D01*
X373618D01*
X372618Y394099D01*
Y391100D01*
Y393099D02*
X370619Y395099D01*
Y397098D02*
Y399097D01*
Y398098D01*
X376617D01*
X375618Y397098D01*
X370619Y402096D02*
Y404096D01*
Y403096D01*
X376617D01*
X375618Y402096D01*
X376617Y407095D02*
Y411094D01*
X375618D01*
X371619Y407095D01*
X370619D01*
X339064Y455100D02*
X345062D01*
Y458099D01*
X344062Y459099D01*
X342063D01*
X341063Y458099D01*
Y455100D01*
Y457099D02*
X339064Y459099D01*
Y461098D02*
Y463097D01*
Y462098D01*
X345062D01*
X344062Y461098D01*
X339064Y466096D02*
Y468096D01*
Y467096D01*
X345062D01*
X344062Y466096D01*
X345062Y475094D02*
X344062Y473094D01*
X342063Y471095D01*
X340064D01*
X339064Y472094D01*
Y474094D01*
X340064Y475094D01*
X341063D01*
X342063Y474094D01*
Y471095D01*
X378481Y391100D02*
X384479D01*
Y394099D01*
X383480Y395099D01*
X381480D01*
X380481Y394099D01*
Y391100D01*
Y393099D02*
X378481Y395099D01*
Y397098D02*
Y399097D01*
Y398098D01*
X384479D01*
X383480Y397098D01*
X378481Y402096D02*
Y404096D01*
Y403096D01*
X384479D01*
X383480Y402096D01*
X384479Y411094D02*
Y407095D01*
X381480D01*
X382480Y409094D01*
Y410094D01*
X381480Y411094D01*
X379481D01*
X378481Y410094D01*
Y408095D01*
X379481Y407095D01*
X363438Y455100D02*
X369436D01*
Y458099D01*
X368436Y459099D01*
X366437D01*
X365437Y458099D01*
Y455100D01*
Y457099D02*
X363438Y459099D01*
Y461098D02*
Y463097D01*
Y462098D01*
X369436D01*
X368436Y461098D01*
X363438Y466096D02*
Y468096D01*
Y467096D01*
X369436D01*
X368436Y466096D01*
Y471095D02*
X369436Y472094D01*
Y474094D01*
X368436Y475094D01*
X367437D01*
X366437Y474094D01*
Y473094D01*
Y474094D01*
X365437Y475094D01*
X364438D01*
X363438Y474094D01*
Y472094D01*
X364438Y471095D01*
X355182Y455100D02*
X361180D01*
Y458099D01*
X360180Y459099D01*
X358181D01*
X357181Y458099D01*
Y455100D01*
Y457099D02*
X355182Y459099D01*
Y461098D02*
Y463097D01*
Y462098D01*
X361180D01*
X360180Y461098D01*
X355182Y466096D02*
Y468096D01*
Y467096D01*
X361180D01*
X360180Y466096D01*
X355182Y475094D02*
Y471095D01*
X359181Y475094D01*
X360180D01*
X361180Y474094D01*
Y472094D01*
X360180Y471095D01*
X347320Y455100D02*
X353318D01*
Y458099D01*
X352318Y459099D01*
X350319D01*
X349319Y458099D01*
Y455100D01*
Y457099D02*
X347320Y459099D01*
Y461098D02*
Y463097D01*
Y462098D01*
X353318D01*
X352318Y461098D01*
X347320Y466096D02*
Y468096D01*
Y467096D01*
X353318D01*
X352318Y466096D01*
X347320Y471095D02*
Y473094D01*
Y472094D01*
X353318D01*
X352318Y471095D01*
X375998Y453199D02*
X376998Y452199D01*
Y450200D01*
X375998Y449200D01*
X372000D01*
X371000Y450200D01*
Y452199D01*
X372000Y453199D01*
X371000Y455198D02*
Y457197D01*
Y456198D01*
X376998D01*
X375998Y455198D01*
X371000Y463196D02*
X376998D01*
X373999Y460196D01*
Y464195D01*
X371000Y466194D02*
Y468194D01*
Y467194D01*
X376998D01*
X375998Y466194D01*
X344701Y403598D02*
X345701Y404598D01*
X347700D01*
X348700Y403598D01*
Y399600D01*
X347700Y398600D01*
X345701D01*
X344701Y399600D01*
X342702Y398600D02*
X340703D01*
X341702D01*
Y404598D01*
X342702Y403598D01*
X334704Y398600D02*
Y404598D01*
X337704Y401599D01*
X333705D01*
X331705Y403598D02*
X330706Y404598D01*
X328707D01*
X327707Y403598D01*
Y399600D01*
X328707Y398600D01*
X330706D01*
X331705Y399600D01*
Y403598D01*
X273900Y54400D02*
Y60398D01*
X270901D01*
X269901Y59398D01*
Y57399D01*
X270901Y56399D01*
X273900D01*
X271901D02*
X269901Y54400D01*
X263903Y60398D02*
X265903Y59398D01*
X267902Y57399D01*
Y55400D01*
X266902Y54400D01*
X264903D01*
X263903Y55400D01*
Y56399D01*
X264903Y57399D01*
X267902D01*
X257905Y60398D02*
X259905Y59398D01*
X261904Y57399D01*
Y55400D01*
X260904Y54400D01*
X258905D01*
X257905Y55400D01*
Y56399D01*
X258905Y57399D01*
X261904D01*
X273900Y44500D02*
Y50498D01*
X270901D01*
X269901Y49498D01*
Y47499D01*
X270901Y46499D01*
X273900D01*
X271901D02*
X269901Y44500D01*
X263903Y50498D02*
X265903Y49498D01*
X267902Y47499D01*
Y45500D01*
X266902Y44500D01*
X264903D01*
X263903Y45500D01*
Y46499D01*
X264903Y47499D01*
X267902D01*
X257905Y50498D02*
X261904D01*
Y47499D01*
X259905Y48499D01*
X258905D01*
X257905Y47499D01*
Y45500D01*
X258905Y44500D01*
X260904D01*
X261904Y45500D01*
X112600Y260498D02*
Y255500D01*
X111600Y254500D01*
X109601D01*
X108601Y255500D01*
Y260498D01*
X106602Y254500D02*
X104603D01*
X105602D01*
Y260498D01*
X106602Y259498D01*
X101604Y255500D02*
X100604Y254500D01*
X98605D01*
X97605Y255500D01*
Y259498D01*
X98605Y260498D01*
X100604D01*
X101604Y259498D01*
Y258499D01*
X100604Y257499D01*
X97605D01*
X7494Y323603D02*
X8494Y324602D01*
X10493D01*
X11492Y323603D01*
Y319604D01*
X10493Y318604D01*
X8494D01*
X7494Y319604D01*
X5494Y318604D02*
X3495D01*
X4495D01*
Y324602D01*
X5494Y323603D01*
X496Y318604D02*
X-1503D01*
X-504D01*
Y324602D01*
X496Y323603D01*
X-4502Y318604D02*
X-6502D01*
X-5502D01*
Y324602D01*
X-4502Y323603D01*
X14979Y310103D02*
X15979Y309103D01*
Y307104D01*
X14979Y306104D01*
X10980D01*
X9981Y307104D01*
Y309103D01*
X10980Y310103D01*
X9981Y312102D02*
Y314102D01*
Y313102D01*
X15979D01*
X14979Y312102D01*
X9981Y317101D02*
Y319100D01*
Y318101D01*
X15979D01*
X14979Y317101D01*
Y322099D02*
X15979Y323099D01*
Y325098D01*
X14979Y326098D01*
X10980D01*
X9981Y325098D01*
Y323099D01*
X10980Y322099D01*
X14979D01*
X6944Y217341D02*
X7944Y218341D01*
X9943D01*
X10943Y217341D01*
Y213343D01*
X9943Y212343D01*
X7944D01*
X6944Y213343D01*
X4945Y212343D02*
X2946D01*
X3945D01*
Y218341D01*
X4945Y217341D01*
X-53D02*
X-1053Y218341D01*
X-3053D01*
X-4052Y217341D01*
Y213343D01*
X-3053Y212343D01*
X-1053D01*
X-53Y213343D01*
Y217341D01*
X-6052Y213343D02*
X-7051Y212343D01*
X-9051D01*
X-10050Y213343D01*
Y217341D01*
X-9051Y218341D01*
X-7051D01*
X-6052Y217341D01*
Y216342D01*
X-7051Y215342D01*
X-10050D01*
X6442Y190533D02*
X5442Y189533D01*
X3443D01*
X2443Y190533D01*
Y194531D01*
X3443Y195531D01*
X5442D01*
X6442Y194531D01*
X8441Y195531D02*
X10440D01*
X9441D01*
Y189533D01*
X8441Y190533D01*
X13439D02*
X14439Y189533D01*
X16438D01*
X17438Y190533D01*
Y194531D01*
X16438Y195531D01*
X14439D01*
X13439Y194531D01*
Y190533D01*
X23436Y189533D02*
X21437Y190533D01*
X19437Y192532D01*
Y194531D01*
X20437Y195531D01*
X22436D01*
X23436Y194531D01*
Y193532D01*
X22436Y192532D01*
X19437D01*
X88629Y190352D02*
X89629Y189353D01*
Y187354D01*
X88629Y186354D01*
X84631D01*
X83631Y187354D01*
Y189353D01*
X84631Y190352D01*
X83631Y192352D02*
Y194351D01*
Y193351D01*
X89629D01*
X88629Y192352D01*
Y197350D02*
X89629Y198350D01*
Y200349D01*
X88629Y201349D01*
X84631D01*
X83631Y200349D01*
Y198350D01*
X84631Y197350D01*
X88629D01*
X89629Y207347D02*
Y203348D01*
X86630D01*
X87630Y205348D01*
Y206347D01*
X86630Y207347D01*
X84631D01*
X83631Y206347D01*
Y204348D01*
X84631Y203348D01*
X98066Y190352D02*
X99066Y189353D01*
Y187354D01*
X98066Y186354D01*
X94068D01*
X93068Y187354D01*
Y189353D01*
X94068Y190352D01*
X93068Y192352D02*
Y194351D01*
Y193351D01*
X99066D01*
X98066Y192352D01*
Y197350D02*
X99066Y198350D01*
Y200349D01*
X98066Y201349D01*
X94068D01*
X93068Y200349D01*
Y198350D01*
X94068Y197350D01*
X98066D01*
X93068Y206347D02*
X99066D01*
X96067Y203348D01*
Y207347D01*
X117701Y300798D02*
X118701Y301798D01*
X120700D01*
X121700Y300798D01*
Y296800D01*
X120700Y295800D01*
X118701D01*
X117701Y296800D01*
X115702Y295800D02*
X113703D01*
X114702D01*
Y301798D01*
X115702Y300798D01*
X110704D02*
X109704Y301798D01*
X107704D01*
X106705Y300798D01*
Y296800D01*
X107704Y295800D01*
X109704D01*
X110704Y296800D01*
Y300798D01*
X104706D02*
X103706Y301798D01*
X101707D01*
X100707Y300798D01*
Y299799D01*
X101707Y298799D01*
X102706D01*
X101707D01*
X100707Y297799D01*
Y296800D01*
X101707Y295800D01*
X103706D01*
X104706Y296800D01*
X117694Y308267D02*
X118694Y309267D01*
X120694D01*
X121693Y308267D01*
Y304268D01*
X120694Y303269D01*
X118694D01*
X117694Y304268D01*
X115695Y303269D02*
X113696D01*
X114696D01*
Y309267D01*
X115695Y308267D01*
X110697D02*
X109697Y309267D01*
X107698D01*
X106698Y308267D01*
Y304268D01*
X107698Y303269D01*
X109697D01*
X110697Y304268D01*
Y308267D01*
X100700Y303269D02*
X104699D01*
X100700Y307267D01*
Y308267D01*
X101700Y309267D01*
X103699D01*
X104699Y308267D01*
X1282401Y227198D02*
X1283401Y228198D01*
X1285400D01*
X1286400Y227198D01*
Y223200D01*
X1285400Y222200D01*
X1283401D01*
X1282401Y223200D01*
X1280402Y228198D02*
X1276403D01*
Y227198D01*
X1280402Y223200D01*
Y222200D01*
X1270405Y228198D02*
X1274404D01*
Y225199D01*
X1272404Y226199D01*
X1271405D01*
X1270405Y225199D01*
Y223200D01*
X1271405Y222200D01*
X1273404D01*
X1274404Y223200D01*
X1264407Y228198D02*
X1268406D01*
Y222200D01*
X1264407D01*
X1268406Y225199D02*
X1266407D01*
X1162401Y227198D02*
X1163401Y228198D01*
X1165400D01*
X1166400Y227198D01*
Y223200D01*
X1165400Y222200D01*
X1163401D01*
X1162401Y223200D01*
X1160402Y228198D02*
X1156403D01*
Y227198D01*
X1160402Y223200D01*
Y222200D01*
X1150405Y228198D02*
X1154404D01*
Y225199D01*
X1152404Y226199D01*
X1151405D01*
X1150405Y225199D01*
Y223200D01*
X1151405Y222200D01*
X1153404D01*
X1154404Y223200D01*
X1148406Y228198D02*
Y222200D01*
X1145407D01*
X1144407Y223200D01*
Y227198D01*
X1145407Y228198D01*
X1148406D01*
X1042401Y227198D02*
X1043401Y228198D01*
X1045400D01*
X1046400Y227198D01*
Y223200D01*
X1045400Y222200D01*
X1043401D01*
X1042401Y223200D01*
X1040402Y228198D02*
X1036403D01*
Y227198D01*
X1040402Y223200D01*
Y222200D01*
X1030405Y228198D02*
X1034404D01*
Y225199D01*
X1032405Y226199D01*
X1031405D01*
X1030405Y225199D01*
Y223200D01*
X1031405Y222200D01*
X1033404D01*
X1034404Y223200D01*
X1024407Y227198D02*
X1025407Y228198D01*
X1027406D01*
X1028406Y227198D01*
Y223200D01*
X1027406Y222200D01*
X1025407D01*
X1024407Y223200D01*
X922401Y227198D02*
X923401Y228198D01*
X925400D01*
X926400Y227198D01*
Y223200D01*
X925400Y222200D01*
X923401D01*
X922401Y223200D01*
X920402Y228198D02*
X916403D01*
Y227198D01*
X920402Y223200D01*
Y222200D01*
X910405Y228198D02*
X914404D01*
Y225199D01*
X912405Y226199D01*
X911405D01*
X910405Y225199D01*
Y223200D01*
X911405Y222200D01*
X913404D01*
X914404Y223200D01*
X908406Y228198D02*
Y222200D01*
X905407D01*
X904407Y223200D01*
Y224199D01*
X905407Y225199D01*
X908406D01*
X905407D01*
X904407Y226199D01*
Y227198D01*
X905407Y228198D01*
X908406D01*
X802401Y227198D02*
X803401Y228198D01*
X805400D01*
X806400Y227198D01*
Y223200D01*
X805400Y222200D01*
X803401D01*
X802401Y223200D01*
X800402Y228198D02*
X796403D01*
Y227198D01*
X800402Y223200D01*
Y222200D01*
X790405Y228198D02*
X794404D01*
Y225199D01*
X792405Y226199D01*
X791405D01*
X790405Y225199D01*
Y223200D01*
X791405Y222200D01*
X793404D01*
X794404Y223200D01*
X788406Y222200D02*
Y226199D01*
X786407Y228198D01*
X784407Y226199D01*
Y222200D01*
Y225199D01*
X788406D01*
X1331201Y301398D02*
X1332201Y302398D01*
X1334200D01*
X1335200Y301398D01*
Y297400D01*
X1334200Y296400D01*
X1332201D01*
X1331201Y297400D01*
X1329202Y302398D02*
X1325203D01*
Y301398D01*
X1329202Y297400D01*
Y296400D01*
X1320205D02*
Y302398D01*
X1323204Y299399D01*
X1319205D01*
X1313207Y302398D02*
X1317206D01*
Y296400D01*
X1313207D01*
X1317206Y299399D02*
X1315207D01*
X1211201Y301398D02*
X1212201Y302398D01*
X1214200D01*
X1215200Y301398D01*
Y297400D01*
X1214200Y296400D01*
X1212201D01*
X1211201Y297400D01*
X1209202Y302398D02*
X1205203D01*
Y301398D01*
X1209202Y297400D01*
Y296400D01*
X1200205D02*
Y302398D01*
X1203204Y299399D01*
X1199205D01*
X1197206Y302398D02*
Y296400D01*
X1194207D01*
X1193207Y297400D01*
Y301398D01*
X1194207Y302398D01*
X1197206D01*
X1091201Y301398D02*
X1092201Y302398D01*
X1094200D01*
X1095200Y301398D01*
Y297400D01*
X1094200Y296400D01*
X1092201D01*
X1091201Y297400D01*
X1089202Y302398D02*
X1085203D01*
Y301398D01*
X1089202Y297400D01*
Y296400D01*
X1080205D02*
Y302398D01*
X1083204Y299399D01*
X1079205D01*
X1073207Y301398D02*
X1074207Y302398D01*
X1076206D01*
X1077206Y301398D01*
Y297400D01*
X1076206Y296400D01*
X1074207D01*
X1073207Y297400D01*
X971201Y301398D02*
X972201Y302398D01*
X974200D01*
X975200Y301398D01*
Y297400D01*
X974200Y296400D01*
X972201D01*
X971201Y297400D01*
X969202Y302398D02*
X965203D01*
Y301398D01*
X969202Y297400D01*
Y296400D01*
X960205D02*
Y302398D01*
X963204Y299399D01*
X959205D01*
X957206Y302398D02*
Y296400D01*
X954207D01*
X953207Y297400D01*
Y298399D01*
X954207Y299399D01*
X957206D01*
X954207D01*
X953207Y300399D01*
Y301398D01*
X954207Y302398D01*
X957206D01*
X851201Y301398D02*
X852201Y302398D01*
X854200D01*
X855200Y301398D01*
Y297400D01*
X854200Y296400D01*
X852201D01*
X851201Y297400D01*
X849202Y302398D02*
X845203D01*
Y301398D01*
X849202Y297400D01*
Y296400D01*
X840205D02*
Y302398D01*
X843204Y299399D01*
X839205D01*
X837206Y296400D02*
Y300399D01*
X835207Y302398D01*
X833207Y300399D01*
Y296400D01*
Y299399D01*
X837206D01*
X1282401Y222098D02*
X1283401Y223098D01*
X1285400D01*
X1286400Y222098D01*
Y218100D01*
X1285400Y217100D01*
X1283401D01*
X1282401Y218100D01*
X1280402Y223098D02*
X1276403D01*
Y222098D01*
X1280402Y218100D01*
Y217100D01*
X1274404Y222098D02*
X1273404Y223098D01*
X1271405D01*
X1270405Y222098D01*
Y221099D01*
X1271405Y220099D01*
X1272404D01*
X1271405D01*
X1270405Y219099D01*
Y218100D01*
X1271405Y217100D01*
X1273404D01*
X1274404Y218100D01*
X1264407Y223098D02*
X1268406D01*
Y217100D01*
X1264407D01*
X1268406Y220099D02*
X1266407D01*
X1162401Y222098D02*
X1163401Y223098D01*
X1165400D01*
X1166400Y222098D01*
Y218100D01*
X1165400Y217100D01*
X1163401D01*
X1162401Y218100D01*
X1160402Y223098D02*
X1156403D01*
Y222098D01*
X1160402Y218100D01*
Y217100D01*
X1154404Y222098D02*
X1153404Y223098D01*
X1151405D01*
X1150405Y222098D01*
Y221099D01*
X1151405Y220099D01*
X1152404D01*
X1151405D01*
X1150405Y219099D01*
Y218100D01*
X1151405Y217100D01*
X1153404D01*
X1154404Y218100D01*
X1148406Y223098D02*
Y217100D01*
X1145407D01*
X1144407Y218100D01*
Y222098D01*
X1145407Y223098D01*
X1148406D01*
X1042401Y222098D02*
X1043401Y223098D01*
X1045400D01*
X1046400Y222098D01*
Y218100D01*
X1045400Y217100D01*
X1043401D01*
X1042401Y218100D01*
X1040402Y223098D02*
X1036403D01*
Y222098D01*
X1040402Y218100D01*
Y217100D01*
X1034404Y222098D02*
X1033404Y223098D01*
X1031405D01*
X1030405Y222098D01*
Y221099D01*
X1031405Y220099D01*
X1032405D01*
X1031405D01*
X1030405Y219099D01*
Y218100D01*
X1031405Y217100D01*
X1033404D01*
X1034404Y218100D01*
X1024407Y222098D02*
X1025407Y223098D01*
X1027406D01*
X1028406Y222098D01*
Y218100D01*
X1027406Y217100D01*
X1025407D01*
X1024407Y218100D01*
X922401Y222098D02*
X923401Y223098D01*
X925400D01*
X926400Y222098D01*
Y218100D01*
X925400Y217100D01*
X923401D01*
X922401Y218100D01*
X920402Y223098D02*
X916403D01*
Y222098D01*
X920402Y218100D01*
Y217100D01*
X914404Y222098D02*
X913404Y223098D01*
X911405D01*
X910405Y222098D01*
Y221099D01*
X911405Y220099D01*
X912405D01*
X911405D01*
X910405Y219099D01*
Y218100D01*
X911405Y217100D01*
X913404D01*
X914404Y218100D01*
X908406Y223098D02*
Y217100D01*
X905407D01*
X904407Y218100D01*
Y219099D01*
X905407Y220099D01*
X908406D01*
X905407D01*
X904407Y221099D01*
Y222098D01*
X905407Y223098D01*
X908406D01*
X802401Y222098D02*
X803401Y223098D01*
X805400D01*
X806400Y222098D01*
Y218100D01*
X805400Y217100D01*
X803401D01*
X802401Y218100D01*
X800402Y223098D02*
X796403D01*
Y222098D01*
X800402Y218100D01*
Y217100D01*
X794404Y222098D02*
X793404Y223098D01*
X791405D01*
X790405Y222098D01*
Y221099D01*
X791405Y220099D01*
X792405D01*
X791405D01*
X790405Y219099D01*
Y218100D01*
X791405Y217100D01*
X793404D01*
X794404Y218100D01*
X788406Y217100D02*
Y221099D01*
X786407Y223098D01*
X784407Y221099D01*
Y217100D01*
Y220099D01*
X788406D01*
X1336301Y301398D02*
X1337301Y302398D01*
X1339300D01*
X1340300Y301398D01*
Y297400D01*
X1339300Y296400D01*
X1337301D01*
X1336301Y297400D01*
X1331303Y296400D02*
Y302398D01*
X1334302Y299399D01*
X1330303D01*
X1328304Y301398D02*
X1327304Y302398D01*
X1325305D01*
X1324305Y301398D01*
Y297400D01*
X1325305Y296400D01*
X1327304D01*
X1328304Y297400D01*
Y301398D01*
X1318307Y302398D02*
X1322306D01*
Y296400D01*
X1318307D01*
X1322306Y299399D02*
X1320306D01*
X1216301Y301398D02*
X1217301Y302398D01*
X1219300D01*
X1220300Y301398D01*
Y297400D01*
X1219300Y296400D01*
X1217301D01*
X1216301Y297400D01*
X1211303Y296400D02*
Y302398D01*
X1214302Y299399D01*
X1210303D01*
X1208304Y301398D02*
X1207304Y302398D01*
X1205305D01*
X1204305Y301398D01*
Y297400D01*
X1205305Y296400D01*
X1207304D01*
X1208304Y297400D01*
Y301398D01*
X1202306Y302398D02*
Y296400D01*
X1199307D01*
X1198307Y297400D01*
Y301398D01*
X1199307Y302398D01*
X1202306D01*
X1096301Y301398D02*
X1097301Y302398D01*
X1099300D01*
X1100300Y301398D01*
Y297400D01*
X1099300Y296400D01*
X1097301D01*
X1096301Y297400D01*
X1091303Y296400D02*
Y302398D01*
X1094302Y299399D01*
X1090303D01*
X1088304Y301398D02*
X1087304Y302398D01*
X1085305D01*
X1084305Y301398D01*
Y297400D01*
X1085305Y296400D01*
X1087304D01*
X1088304Y297400D01*
Y301398D01*
X1078307D02*
X1079307Y302398D01*
X1081306D01*
X1082306Y301398D01*
Y297400D01*
X1081306Y296400D01*
X1079307D01*
X1078307Y297400D01*
X976301Y301398D02*
X977301Y302398D01*
X979300D01*
X980300Y301398D01*
Y297400D01*
X979300Y296400D01*
X977301D01*
X976301Y297400D01*
X971303Y296400D02*
Y302398D01*
X974302Y299399D01*
X970303D01*
X968304Y301398D02*
X967304Y302398D01*
X965305D01*
X964305Y301398D01*
Y297400D01*
X965305Y296400D01*
X967304D01*
X968304Y297400D01*
Y301398D01*
X962306Y302398D02*
Y296400D01*
X959307D01*
X958307Y297400D01*
Y298399D01*
X959307Y299399D01*
X962306D01*
X959307D01*
X958307Y300399D01*
Y301398D01*
X959307Y302398D01*
X962306D01*
X856301Y301398D02*
X857301Y302398D01*
X859300D01*
X860300Y301398D01*
Y297400D01*
X859300Y296400D01*
X857301D01*
X856301Y297400D01*
X851303Y296400D02*
Y302398D01*
X854302Y299399D01*
X850303D01*
X848304Y301398D02*
X847304Y302398D01*
X845305D01*
X844305Y301398D01*
Y297400D01*
X845305Y296400D01*
X847304D01*
X848304Y297400D01*
Y301398D01*
X842306Y296400D02*
Y300399D01*
X840306Y302398D01*
X838307Y300399D01*
Y296400D01*
Y299399D01*
X842306D01*
X1272901Y285098D02*
X1273901Y286098D01*
X1275900D01*
X1276900Y285098D01*
Y281100D01*
X1275900Y280100D01*
X1273901D01*
X1272901Y281100D01*
X1270902Y285098D02*
X1269902Y286098D01*
X1267903D01*
X1266903Y285098D01*
Y284099D01*
X1267903Y283099D01*
X1268903D01*
X1267903D01*
X1266903Y282099D01*
Y281100D01*
X1267903Y280100D01*
X1269902D01*
X1270902Y281100D01*
X1264904Y285098D02*
X1263904Y286098D01*
X1261905D01*
X1260905Y285098D01*
Y284099D01*
X1261905Y283099D01*
X1260905Y282099D01*
Y281100D01*
X1261905Y280100D01*
X1263904D01*
X1264904Y281100D01*
Y282099D01*
X1263904Y283099D01*
X1264904Y284099D01*
Y285098D01*
X1263904Y283099D02*
X1261905D01*
X1254907Y286098D02*
X1258906D01*
Y280100D01*
X1254907D01*
X1258906Y283099D02*
X1256907D01*
X1152901Y285098D02*
X1153901Y286098D01*
X1155900D01*
X1156900Y285098D01*
Y281100D01*
X1155900Y280100D01*
X1153901D01*
X1152901Y281100D01*
X1150902Y285098D02*
X1149902Y286098D01*
X1147903D01*
X1146903Y285098D01*
Y284099D01*
X1147903Y283099D01*
X1148903D01*
X1147903D01*
X1146903Y282099D01*
Y281100D01*
X1147903Y280100D01*
X1149902D01*
X1150902Y281100D01*
X1144904Y285098D02*
X1143904Y286098D01*
X1141905D01*
X1140905Y285098D01*
Y284099D01*
X1141905Y283099D01*
X1140905Y282099D01*
Y281100D01*
X1141905Y280100D01*
X1143904D01*
X1144904Y281100D01*
Y282099D01*
X1143904Y283099D01*
X1144904Y284099D01*
Y285098D01*
X1143904Y283099D02*
X1141905D01*
X1138906Y286098D02*
Y280100D01*
X1135907D01*
X1134907Y281100D01*
Y285098D01*
X1135907Y286098D01*
X1138906D01*
X1032901Y285098D02*
X1033901Y286098D01*
X1035900D01*
X1036900Y285098D01*
Y281100D01*
X1035900Y280100D01*
X1033901D01*
X1032901Y281100D01*
X1030902Y285098D02*
X1029902Y286098D01*
X1027903D01*
X1026903Y285098D01*
Y284099D01*
X1027903Y283099D01*
X1028903D01*
X1027903D01*
X1026903Y282099D01*
Y281100D01*
X1027903Y280100D01*
X1029902D01*
X1030902Y281100D01*
X1024904Y285098D02*
X1023904Y286098D01*
X1021905D01*
X1020905Y285098D01*
Y284099D01*
X1021905Y283099D01*
X1020905Y282099D01*
Y281100D01*
X1021905Y280100D01*
X1023904D01*
X1024904Y281100D01*
Y282099D01*
X1023904Y283099D01*
X1024904Y284099D01*
Y285098D01*
X1023904Y283099D02*
X1021905D01*
X1014907Y285098D02*
X1015907Y286098D01*
X1017906D01*
X1018906Y285098D01*
Y281100D01*
X1017906Y280100D01*
X1015907D01*
X1014907Y281100D01*
X912901Y285098D02*
X913901Y286098D01*
X915900D01*
X916900Y285098D01*
Y281100D01*
X915900Y280100D01*
X913901D01*
X912901Y281100D01*
X910902Y285098D02*
X909902Y286098D01*
X907903D01*
X906903Y285098D01*
Y284099D01*
X907903Y283099D01*
X908903D01*
X907903D01*
X906903Y282099D01*
Y281100D01*
X907903Y280100D01*
X909902D01*
X910902Y281100D01*
X904904Y285098D02*
X903904Y286098D01*
X901905D01*
X900905Y285098D01*
Y284099D01*
X901905Y283099D01*
X900905Y282099D01*
Y281100D01*
X901905Y280100D01*
X903904D01*
X904904Y281100D01*
Y282099D01*
X903904Y283099D01*
X904904Y284099D01*
Y285098D01*
X903904Y283099D02*
X901905D01*
X898906Y286098D02*
Y280100D01*
X895907D01*
X894907Y281100D01*
Y282099D01*
X895907Y283099D01*
X898906D01*
X895907D01*
X894907Y284099D01*
Y285098D01*
X895907Y286098D01*
X898906D01*
X792901Y285098D02*
X793901Y286098D01*
X795900D01*
X796900Y285098D01*
Y281100D01*
X795900Y280100D01*
X793901D01*
X792901Y281100D01*
X790902Y285098D02*
X789902Y286098D01*
X787903D01*
X786903Y285098D01*
Y284099D01*
X787903Y283099D01*
X788903D01*
X787903D01*
X786903Y282099D01*
Y281100D01*
X787903Y280100D01*
X789902D01*
X790902Y281100D01*
X784904Y285098D02*
X783904Y286098D01*
X781905D01*
X780905Y285098D01*
Y284099D01*
X781905Y283099D01*
X780905Y282099D01*
Y281100D01*
X781905Y280100D01*
X783904D01*
X784904Y281100D01*
Y282099D01*
X783904Y283099D01*
X784904Y284099D01*
Y285098D01*
X783904Y283099D02*
X781905D01*
X778906Y280100D02*
Y284099D01*
X776906Y286098D01*
X774907Y284099D01*
Y280100D01*
Y283099D01*
X778906D01*
X1272901Y290198D02*
X1273901Y291198D01*
X1275900D01*
X1276900Y290198D01*
Y286200D01*
X1275900Y285200D01*
X1273901D01*
X1272901Y286200D01*
X1270902Y290198D02*
X1269902Y291198D01*
X1267903D01*
X1266903Y290198D01*
Y289199D01*
X1267903Y288199D01*
X1268903D01*
X1267903D01*
X1266903Y287199D01*
Y286200D01*
X1267903Y285200D01*
X1269902D01*
X1270902Y286200D01*
X1264904Y291198D02*
X1260905D01*
Y290198D01*
X1264904Y286200D01*
Y285200D01*
X1254907Y291198D02*
X1258906D01*
Y285200D01*
X1254907D01*
X1258906Y288199D02*
X1256907D01*
X1152901Y290198D02*
X1153901Y291198D01*
X1155900D01*
X1156900Y290198D01*
Y286200D01*
X1155900Y285200D01*
X1153901D01*
X1152901Y286200D01*
X1150902Y290198D02*
X1149902Y291198D01*
X1147903D01*
X1146903Y290198D01*
Y289199D01*
X1147903Y288199D01*
X1148903D01*
X1147903D01*
X1146903Y287199D01*
Y286200D01*
X1147903Y285200D01*
X1149902D01*
X1150902Y286200D01*
X1144904Y291198D02*
X1140905D01*
Y290198D01*
X1144904Y286200D01*
Y285200D01*
X1138906Y291198D02*
Y285200D01*
X1135907D01*
X1134907Y286200D01*
Y290198D01*
X1135907Y291198D01*
X1138906D01*
X1032901Y290198D02*
X1033901Y291198D01*
X1035900D01*
X1036900Y290198D01*
Y286200D01*
X1035900Y285200D01*
X1033901D01*
X1032901Y286200D01*
X1030902Y290198D02*
X1029902Y291198D01*
X1027903D01*
X1026903Y290198D01*
Y289199D01*
X1027903Y288199D01*
X1028903D01*
X1027903D01*
X1026903Y287199D01*
Y286200D01*
X1027903Y285200D01*
X1029902D01*
X1030902Y286200D01*
X1024904Y291198D02*
X1020905D01*
Y290198D01*
X1024904Y286200D01*
Y285200D01*
X1014907Y290198D02*
X1015907Y291198D01*
X1017906D01*
X1018906Y290198D01*
Y286200D01*
X1017906Y285200D01*
X1015907D01*
X1014907Y286200D01*
X912901Y290198D02*
X913901Y291198D01*
X915900D01*
X916900Y290198D01*
Y286200D01*
X915900Y285200D01*
X913901D01*
X912901Y286200D01*
X910902Y290198D02*
X909902Y291198D01*
X907903D01*
X906903Y290198D01*
Y289199D01*
X907903Y288199D01*
X908903D01*
X907903D01*
X906903Y287199D01*
Y286200D01*
X907903Y285200D01*
X909902D01*
X910902Y286200D01*
X904904Y291198D02*
X900905D01*
Y290198D01*
X904904Y286200D01*
Y285200D01*
X898906Y291198D02*
Y285200D01*
X895907D01*
X894907Y286200D01*
Y287199D01*
X895907Y288199D01*
X898906D01*
X895907D01*
X894907Y289199D01*
Y290198D01*
X895907Y291198D01*
X898906D01*
X792901Y290198D02*
X793901Y291198D01*
X795900D01*
X796900Y290198D01*
Y286200D01*
X795900Y285200D01*
X793901D01*
X792901Y286200D01*
X790902Y290198D02*
X789902Y291198D01*
X787903D01*
X786903Y290198D01*
Y289199D01*
X787903Y288199D01*
X788903D01*
X787903D01*
X786903Y287199D01*
Y286200D01*
X787903Y285200D01*
X789902D01*
X790902Y286200D01*
X784904Y291198D02*
X780905D01*
Y290198D01*
X784904Y286200D01*
Y285200D01*
X778906D02*
Y289199D01*
X776906Y291198D01*
X774907Y289199D01*
Y285200D01*
Y288199D01*
X778906D01*
X1271901Y260498D02*
X1272901Y261498D01*
X1274900D01*
X1275900Y260498D01*
Y256500D01*
X1274900Y255500D01*
X1272901D01*
X1271901Y256500D01*
X1269902Y260498D02*
X1268902Y261498D01*
X1266903D01*
X1265903Y260498D01*
Y259499D01*
X1266903Y258499D01*
X1267903D01*
X1266903D01*
X1265903Y257499D01*
Y256500D01*
X1266903Y255500D01*
X1268902D01*
X1269902Y256500D01*
X1259905Y261498D02*
X1263904D01*
Y258499D01*
X1261905Y259499D01*
X1260905D01*
X1259905Y258499D01*
Y256500D01*
X1260905Y255500D01*
X1262904D01*
X1263904Y256500D01*
X1253907Y261498D02*
X1257906D01*
Y255500D01*
X1253907D01*
X1257906Y258499D02*
X1255906D01*
X1151901Y260498D02*
X1152901Y261498D01*
X1154900D01*
X1155900Y260498D01*
Y256500D01*
X1154900Y255500D01*
X1152901D01*
X1151901Y256500D01*
X1149902Y260498D02*
X1148902Y261498D01*
X1146903D01*
X1145903Y260498D01*
Y259499D01*
X1146903Y258499D01*
X1147903D01*
X1146903D01*
X1145903Y257499D01*
Y256500D01*
X1146903Y255500D01*
X1148902D01*
X1149902Y256500D01*
X1139905Y261498D02*
X1143904D01*
Y258499D01*
X1141905Y259499D01*
X1140905D01*
X1139905Y258499D01*
Y256500D01*
X1140905Y255500D01*
X1142904D01*
X1143904Y256500D01*
X1137906Y261498D02*
Y255500D01*
X1134907D01*
X1133907Y256500D01*
Y260498D01*
X1134907Y261498D01*
X1137906D01*
X1031901Y260498D02*
X1032901Y261498D01*
X1034900D01*
X1035900Y260498D01*
Y256500D01*
X1034900Y255500D01*
X1032901D01*
X1031901Y256500D01*
X1029902Y260498D02*
X1028902Y261498D01*
X1026903D01*
X1025903Y260498D01*
Y259499D01*
X1026903Y258499D01*
X1027903D01*
X1026903D01*
X1025903Y257499D01*
Y256500D01*
X1026903Y255500D01*
X1028902D01*
X1029902Y256500D01*
X1019905Y261498D02*
X1023904D01*
Y258499D01*
X1021904Y259499D01*
X1020905D01*
X1019905Y258499D01*
Y256500D01*
X1020905Y255500D01*
X1022904D01*
X1023904Y256500D01*
X1013907Y260498D02*
X1014907Y261498D01*
X1016906D01*
X1017906Y260498D01*
Y256500D01*
X1016906Y255500D01*
X1014907D01*
X1013907Y256500D01*
X911901Y260498D02*
X912901Y261498D01*
X914900D01*
X915900Y260498D01*
Y256500D01*
X914900Y255500D01*
X912901D01*
X911901Y256500D01*
X909902Y260498D02*
X908902Y261498D01*
X906903D01*
X905903Y260498D01*
Y259499D01*
X906903Y258499D01*
X907903D01*
X906903D01*
X905903Y257499D01*
Y256500D01*
X906903Y255500D01*
X908902D01*
X909902Y256500D01*
X899905Y261498D02*
X903904D01*
Y258499D01*
X901904Y259499D01*
X900905D01*
X899905Y258499D01*
Y256500D01*
X900905Y255500D01*
X902904D01*
X903904Y256500D01*
X897906Y261498D02*
Y255500D01*
X894907D01*
X893907Y256500D01*
Y257499D01*
X894907Y258499D01*
X897906D01*
X894907D01*
X893907Y259499D01*
Y260498D01*
X894907Y261498D01*
X897906D01*
X791901Y260498D02*
X792901Y261498D01*
X794900D01*
X795900Y260498D01*
Y256500D01*
X794900Y255500D01*
X792901D01*
X791901Y256500D01*
X789902Y260498D02*
X788902Y261498D01*
X786903D01*
X785903Y260498D01*
Y259499D01*
X786903Y258499D01*
X787903D01*
X786903D01*
X785903Y257499D01*
Y256500D01*
X786903Y255500D01*
X788902D01*
X789902Y256500D01*
X779905Y261498D02*
X783904D01*
Y258499D01*
X781905Y259499D01*
X780905D01*
X779905Y258499D01*
Y256500D01*
X780905Y255500D01*
X782904D01*
X783904Y256500D01*
X777906Y255500D02*
Y259499D01*
X775907Y261498D01*
X773907Y259499D01*
Y255500D01*
Y258499D01*
X777906D01*
X1277001Y260498D02*
X1278001Y261498D01*
X1280000D01*
X1281000Y260498D01*
Y256500D01*
X1280000Y255500D01*
X1278001D01*
X1277001Y256500D01*
X1275002Y260498D02*
X1274002Y261498D01*
X1272003D01*
X1271003Y260498D01*
Y259499D01*
X1272003Y258499D01*
X1273003D01*
X1272003D01*
X1271003Y257499D01*
Y256500D01*
X1272003Y255500D01*
X1274002D01*
X1275002Y256500D01*
X1266005Y255500D02*
Y261498D01*
X1269004Y258499D01*
X1265005D01*
X1259007Y261498D02*
X1263006D01*
Y255500D01*
X1259007D01*
X1263006Y258499D02*
X1261007D01*
X1157001Y260498D02*
X1158001Y261498D01*
X1160000D01*
X1161000Y260498D01*
Y256500D01*
X1160000Y255500D01*
X1158001D01*
X1157001Y256500D01*
X1155002Y260498D02*
X1154002Y261498D01*
X1152003D01*
X1151003Y260498D01*
Y259499D01*
X1152003Y258499D01*
X1153003D01*
X1152003D01*
X1151003Y257499D01*
Y256500D01*
X1152003Y255500D01*
X1154002D01*
X1155002Y256500D01*
X1146005Y255500D02*
Y261498D01*
X1149004Y258499D01*
X1145005D01*
X1143006Y261498D02*
Y255500D01*
X1140007D01*
X1139007Y256500D01*
Y260498D01*
X1140007Y261498D01*
X1143006D01*
X1037001Y260498D02*
X1038001Y261498D01*
X1040000D01*
X1041000Y260498D01*
Y256500D01*
X1040000Y255500D01*
X1038001D01*
X1037001Y256500D01*
X1035002Y260498D02*
X1034002Y261498D01*
X1032003D01*
X1031003Y260498D01*
Y259499D01*
X1032003Y258499D01*
X1033003D01*
X1032003D01*
X1031003Y257499D01*
Y256500D01*
X1032003Y255500D01*
X1034002D01*
X1035002Y256500D01*
X1026005Y255500D02*
Y261498D01*
X1029004Y258499D01*
X1025005D01*
X1019007Y260498D02*
X1020007Y261498D01*
X1022006D01*
X1023006Y260498D01*
Y256500D01*
X1022006Y255500D01*
X1020007D01*
X1019007Y256500D01*
X917001Y260498D02*
X918001Y261498D01*
X920000D01*
X921000Y260498D01*
Y256500D01*
X920000Y255500D01*
X918001D01*
X917001Y256500D01*
X915002Y260498D02*
X914002Y261498D01*
X912003D01*
X911003Y260498D01*
Y259499D01*
X912003Y258499D01*
X913003D01*
X912003D01*
X911003Y257499D01*
Y256500D01*
X912003Y255500D01*
X914002D01*
X915002Y256500D01*
X906005Y255500D02*
Y261498D01*
X909004Y258499D01*
X905005D01*
X903006Y261498D02*
Y255500D01*
X900007D01*
X899007Y256500D01*
Y257499D01*
X900007Y258499D01*
X903006D01*
X900007D01*
X899007Y259499D01*
Y260498D01*
X900007Y261498D01*
X903006D01*
X797001Y260498D02*
X798001Y261498D01*
X800000D01*
X801000Y260498D01*
Y256500D01*
X800000Y255500D01*
X798001D01*
X797001Y256500D01*
X795002Y260498D02*
X794002Y261498D01*
X792003D01*
X791003Y260498D01*
Y259499D01*
X792003Y258499D01*
X793003D01*
X792003D01*
X791003Y257499D01*
Y256500D01*
X792003Y255500D01*
X794002D01*
X795002Y256500D01*
X786005Y255500D02*
Y261498D01*
X789004Y258499D01*
X785005D01*
X783006Y255500D02*
Y259499D01*
X781006Y261498D01*
X779007Y259499D01*
Y255500D01*
Y258499D01*
X783006D01*
X1291201Y217398D02*
X1292201Y218398D01*
X1294200D01*
X1295200Y217398D01*
Y213400D01*
X1294200Y212400D01*
X1292201D01*
X1291201Y213400D01*
X1289202Y212400D02*
X1287203D01*
X1288202D01*
Y218398D01*
X1289202Y217398D01*
X1280205Y212400D02*
X1284204D01*
X1280205Y216399D01*
Y217398D01*
X1281205Y218398D01*
X1283204D01*
X1284204Y217398D01*
X1274207Y218398D02*
X1278205D01*
Y212400D01*
X1274207D01*
X1278205Y215399D02*
X1276206D01*
X1171201Y217398D02*
X1172201Y218398D01*
X1174200D01*
X1175200Y217398D01*
Y213400D01*
X1174200Y212400D01*
X1172201D01*
X1171201Y213400D01*
X1169202Y212400D02*
X1167203D01*
X1168202D01*
Y218398D01*
X1169202Y217398D01*
X1160205Y212400D02*
X1164203D01*
X1160205Y216399D01*
Y217398D01*
X1161205Y218398D01*
X1163204D01*
X1164203Y217398D01*
X1158206Y218398D02*
Y212400D01*
X1155206D01*
X1154207Y213400D01*
Y217398D01*
X1155206Y218398D01*
X1158206D01*
X1051201Y217398D02*
X1052201Y218398D01*
X1054200D01*
X1055200Y217398D01*
Y213400D01*
X1054200Y212400D01*
X1052201D01*
X1051201Y213400D01*
X1049202Y212400D02*
X1047203D01*
X1048202D01*
Y218398D01*
X1049202Y217398D01*
X1040205Y212400D02*
X1044203D01*
X1040205Y216399D01*
Y217398D01*
X1041204Y218398D01*
X1043204D01*
X1044203Y217398D01*
X1034207D02*
X1035207Y218398D01*
X1037206D01*
X1038206Y217398D01*
Y213400D01*
X1037206Y212400D01*
X1035207D01*
X1034207Y213400D01*
X931201Y217398D02*
X932201Y218398D01*
X934200D01*
X935200Y217398D01*
Y213400D01*
X934200Y212400D01*
X932201D01*
X931201Y213400D01*
X929202Y212400D02*
X927203D01*
X928202D01*
Y218398D01*
X929202Y217398D01*
X920205Y212400D02*
X924203D01*
X920205Y216399D01*
Y217398D01*
X921204Y218398D01*
X923204D01*
X924203Y217398D01*
X918206Y218398D02*
Y212400D01*
X915207D01*
X914207Y213400D01*
Y214399D01*
X915207Y215399D01*
X918206D01*
X915207D01*
X914207Y216399D01*
Y217398D01*
X915207Y218398D01*
X918206D01*
X811201Y217398D02*
X812201Y218398D01*
X814200D01*
X815200Y217398D01*
Y213400D01*
X814200Y212400D01*
X812201D01*
X811201Y213400D01*
X809202Y212400D02*
X807203D01*
X808202D01*
Y218398D01*
X809202Y217398D01*
X800205Y212400D02*
X804204D01*
X800205Y216399D01*
Y217398D01*
X801204Y218398D01*
X803204D01*
X804204Y217398D01*
X798206Y212400D02*
Y216399D01*
X796206Y218398D01*
X794207Y216399D01*
Y212400D01*
Y215399D01*
X798206D01*
X1326801Y217398D02*
X1327801Y218398D01*
X1329800D01*
X1330800Y217398D01*
Y213400D01*
X1329800Y212400D01*
X1327801D01*
X1326801Y213400D01*
X1321803Y212400D02*
Y218398D01*
X1324802Y215399D01*
X1320803D01*
X1314805Y218398D02*
X1318804D01*
Y212400D01*
X1314805D01*
X1318804Y215399D02*
X1316805D01*
X1206801Y217398D02*
X1207801Y218398D01*
X1209800D01*
X1210800Y217398D01*
Y213400D01*
X1209800Y212400D01*
X1207801D01*
X1206801Y213400D01*
X1201803Y212400D02*
Y218398D01*
X1204802Y215399D01*
X1200803D01*
X1198804Y218398D02*
Y212400D01*
X1195805D01*
X1194805Y213400D01*
Y217398D01*
X1195805Y218398D01*
X1198804D01*
X1086801Y217398D02*
X1087801Y218398D01*
X1089800D01*
X1090800Y217398D01*
Y213400D01*
X1089800Y212400D01*
X1087801D01*
X1086801Y213400D01*
X1081803Y212400D02*
Y218398D01*
X1084802Y215399D01*
X1080803D01*
X1074805Y217398D02*
X1075805Y218398D01*
X1077804D01*
X1078804Y217398D01*
Y213400D01*
X1077804Y212400D01*
X1075805D01*
X1074805Y213400D01*
X966801Y217398D02*
X967801Y218398D01*
X969800D01*
X970800Y217398D01*
Y213400D01*
X969800Y212400D01*
X967801D01*
X966801Y213400D01*
X961803Y212400D02*
Y218398D01*
X964802Y215399D01*
X960803D01*
X958804Y218398D02*
Y212400D01*
X955805D01*
X954805Y213400D01*
Y214399D01*
X955805Y215399D01*
X958804D01*
X955805D01*
X954805Y216399D01*
Y217398D01*
X955805Y218398D01*
X958804D01*
X846801Y217398D02*
X847801Y218398D01*
X849800D01*
X850800Y217398D01*
Y213400D01*
X849800Y212400D01*
X847801D01*
X846801Y213400D01*
X841803Y212400D02*
Y218398D01*
X844802Y215399D01*
X840803D01*
X838804Y212400D02*
Y216399D01*
X836804Y218398D01*
X834805Y216399D01*
Y212400D01*
Y215399D01*
X838804D01*
X498098Y100800D02*
X493100D01*
X492100Y101800D01*
Y103799D01*
X493100Y104799D01*
X498098D01*
X492100Y106798D02*
Y108797D01*
Y107798D01*
X498098D01*
X497098Y106798D01*
X498098Y115795D02*
X497098Y113796D01*
X495099Y111796D01*
X493100D01*
X492100Y112796D01*
Y114795D01*
X493100Y115795D01*
X494099D01*
X495099Y114795D01*
Y111796D01*
X396898Y100800D02*
X391900D01*
X390900Y101800D01*
Y103799D01*
X391900Y104799D01*
X396898D01*
X390900Y106798D02*
Y108797D01*
Y107798D01*
X396898D01*
X395898Y106798D01*
X396898Y115795D02*
Y111796D01*
X393899D01*
X394899Y113796D01*
Y114795D01*
X393899Y115795D01*
X391900D01*
X390900Y114795D01*
Y112796D01*
X391900Y111796D01*
X248400Y33998D02*
Y29000D01*
X247400Y28000D01*
X245401D01*
X244401Y29000D01*
Y33998D01*
X238403D02*
X240403Y32998D01*
X242402Y30999D01*
Y29000D01*
X241402Y28000D01*
X239403D01*
X238403Y29000D01*
Y29999D01*
X239403Y30999D01*
X242402D01*
X439900Y63800D02*
X445898D01*
Y66799D01*
X444898Y67799D01*
X442899D01*
X441899Y66799D01*
Y63800D01*
Y65799D02*
X439900Y67799D01*
X444898Y69798D02*
X445898Y70798D01*
Y72797D01*
X444898Y73797D01*
X443899D01*
X442899Y72797D01*
X441899Y73797D01*
X440900D01*
X439900Y72797D01*
Y70798D01*
X440900Y69798D01*
X441899D01*
X442899Y70798D01*
X443899Y69798D01*
X444898D01*
X442899Y70798D02*
Y72797D01*
X439900Y75796D02*
Y77795D01*
Y76796D01*
X445898D01*
X444898Y75796D01*
X431700Y132867D02*
Y138865D01*
X428701D01*
X427701Y137865D01*
Y135866D01*
X428701Y134866D01*
X431700D01*
X429701D02*
X427701Y132867D01*
X425702Y137865D02*
X424702Y138865D01*
X422703D01*
X421703Y137865D01*
Y136866D01*
X422703Y135866D01*
X421703Y134866D01*
Y133867D01*
X422703Y132867D01*
X424702D01*
X425702Y133867D01*
Y134866D01*
X424702Y135866D01*
X425702Y136866D01*
Y137865D01*
X424702Y135866D02*
X422703D01*
X419704Y137865D02*
X418704Y138865D01*
X416705D01*
X415705Y137865D01*
Y133867D01*
X416705Y132867D01*
X418704D01*
X419704Y133867D01*
Y137865D01*
X405400Y76700D02*
Y82698D01*
X402401D01*
X401401Y81698D01*
Y79699D01*
X402401Y78699D01*
X405400D01*
X403401D02*
X401401Y76700D01*
X399402Y82698D02*
X395403D01*
Y81698D01*
X399402Y77700D01*
Y76700D01*
X393404Y77700D02*
X392404Y76700D01*
X390405D01*
X389405Y77700D01*
Y81698D01*
X390405Y82698D01*
X392404D01*
X393404Y81698D01*
Y80699D01*
X392404Y79699D01*
X389405D01*
X202000Y63700D02*
Y69698D01*
X199001D01*
X198001Y68698D01*
Y66699D01*
X199001Y65699D01*
X202000D01*
X200001D02*
X198001Y63700D01*
X192003D02*
X196002D01*
X192003Y67699D01*
Y68698D01*
X193003Y69698D01*
X195002D01*
X196002Y68698D01*
X190004Y64700D02*
X189004Y63700D01*
X187005D01*
X186005Y64700D01*
Y68698D01*
X187005Y69698D01*
X189004D01*
X190004Y68698D01*
Y67699D01*
X189004Y66699D01*
X186005D01*
X485701Y144898D02*
X486701Y145898D01*
X488700D01*
X489700Y144898D01*
Y140900D01*
X488700Y139900D01*
X486701D01*
X485701Y140900D01*
X483702Y144898D02*
X482702Y145898D01*
X480703D01*
X479703Y144898D01*
Y143899D01*
X480703Y142899D01*
X479703Y141899D01*
Y140900D01*
X480703Y139900D01*
X482702D01*
X483702Y140900D01*
Y141899D01*
X482702Y142899D01*
X483702Y143899D01*
Y144898D01*
X482702Y142899D02*
X480703D01*
X477704Y144898D02*
X476704Y145898D01*
X474705D01*
X473705Y144898D01*
Y143899D01*
X474705Y142899D01*
X475704D01*
X474705D01*
X473705Y141899D01*
Y140900D01*
X474705Y139900D01*
X476704D01*
X477704Y140900D01*
X476243Y77529D02*
X477242Y78529D01*
X479242D01*
X480241Y77529D01*
Y73530D01*
X479242Y72531D01*
X477242D01*
X476243Y73530D01*
X474243Y77529D02*
X473244Y78529D01*
X471244D01*
X470245Y77529D01*
Y76529D01*
X471244Y75530D01*
X470245Y74530D01*
Y73530D01*
X471244Y72531D01*
X473244D01*
X474243Y73530D01*
Y74530D01*
X473244Y75530D01*
X474243Y76529D01*
Y77529D01*
X473244Y75530D02*
X471244D01*
X464247Y72531D02*
X468245D01*
X464247Y76529D01*
Y77529D01*
X465246Y78529D01*
X467245D01*
X468245Y77529D01*
X426001Y145704D02*
X427001Y146704D01*
X429000D01*
X430000Y145704D01*
Y141705D01*
X429000Y140706D01*
X427001D01*
X426001Y141705D01*
X424002Y145704D02*
X423002Y146704D01*
X421003D01*
X420003Y145704D01*
Y144704D01*
X421003Y143705D01*
X420003Y142705D01*
Y141705D01*
X421003Y140706D01*
X423002D01*
X424002Y141705D01*
Y142705D01*
X423002Y143705D01*
X424002Y144704D01*
Y145704D01*
X423002Y143705D02*
X421003D01*
X418004Y140706D02*
X416005D01*
X417004D01*
Y146704D01*
X418004Y145704D01*
X436398Y66799D02*
X437398Y65799D01*
Y63800D01*
X436398Y62800D01*
X432400D01*
X431400Y63800D01*
Y65799D01*
X432400Y66799D01*
X436398Y68798D02*
X437398Y69798D01*
Y71797D01*
X436398Y72797D01*
X435399D01*
X434399Y71797D01*
X433399Y72797D01*
X432400D01*
X431400Y71797D01*
Y69798D01*
X432400Y68798D01*
X433399D01*
X434399Y69798D01*
X435399Y68798D01*
X436398D01*
X434399Y69798D02*
Y71797D01*
X436398Y74796D02*
X437398Y75796D01*
Y77795D01*
X436398Y78795D01*
X432400D01*
X431400Y77795D01*
Y75796D01*
X432400Y74796D01*
X436398D01*
X263901Y69598D02*
X264901Y70598D01*
X266900D01*
X267900Y69598D01*
Y65600D01*
X266900Y64600D01*
X264901D01*
X263901Y65600D01*
X258903Y64600D02*
Y70598D01*
X261902Y67599D01*
X257903D01*
X463000Y138700D02*
Y144698D01*
X460001D01*
X459001Y143698D01*
Y141699D01*
X460001Y140699D01*
X463000D01*
X461001D02*
X459001Y138700D01*
X457002Y139700D02*
X456002Y138700D01*
X454003D01*
X453003Y139700D01*
Y143698D01*
X454003Y144698D01*
X456002D01*
X457002Y143698D01*
Y142699D01*
X456002Y141699D01*
X453003D01*
X451004Y143698D02*
X450004Y144698D01*
X448005D01*
X447005Y143698D01*
Y142699D01*
X448005Y141699D01*
X447005Y140699D01*
Y139700D01*
X448005Y138700D01*
X450004D01*
X451004Y139700D01*
Y140699D01*
X450004Y141699D01*
X451004Y142699D01*
Y143698D01*
X450004Y141699D02*
X448005D01*
D19*
X46457Y100374D02*
Y105886D01*
X41457Y100374D02*
Y101130D01*
Y100374D02*
X51457D01*
Y101130D01*
Y105130D02*
Y105886D01*
X41457D02*
X51457D01*
X41457Y105130D02*
Y105886D01*
D24*
X3977Y346024D02*
X11772D01*
X3977Y354764D02*
X11772D01*
X277126Y324842D02*
Y332638D01*
X285866Y324842D02*
Y332638D01*
X912546Y223770D02*
Y226841D01*
Y223770D02*
X915617D01*
X912546Y276605D02*
Y279675D01*
X915617D01*
X968452Y276605D02*
Y279675D01*
X965381D02*
X968452D01*
Y223770D02*
Y226841D01*
X965381Y223770D02*
X968452D01*
X1032546D02*
Y226841D01*
Y223770D02*
X1035617D01*
X1032546Y276605D02*
Y279675D01*
X1035617D01*
X1088452Y276605D02*
Y279675D01*
X1085381D02*
X1088452D01*
Y223770D02*
Y226841D01*
X1085381Y223770D02*
X1088452D01*
X1152546D02*
Y226841D01*
Y223770D02*
X1155617D01*
X1152546Y276605D02*
Y279675D01*
X1155617D01*
X1208452Y276605D02*
Y279675D01*
X1205381D02*
X1208452D01*
Y223770D02*
Y226841D01*
X1205381Y223770D02*
X1208452D01*
X1272546Y223770D02*
Y226841D01*
Y223770D02*
X1275617D01*
X1272546Y276605D02*
Y279675D01*
X1275617D01*
X1328452Y276605D02*
Y279675D01*
X1325381D02*
X1328452D01*
Y223770D02*
Y226841D01*
X1325381Y223770D02*
X1328452D01*
X845381Y223770D02*
X848452D01*
Y226841D01*
X845381Y279675D02*
X848452D01*
Y276605D02*
Y279675D01*
X792546D02*
X795617D01*
X792546Y276605D02*
Y279675D01*
Y223770D02*
X795617D01*
X792546D02*
Y226841D01*
D25*
X238563Y333900D02*
X242562D01*
Y335899D01*
X241895Y336566D01*
X240562D01*
X239896Y335899D01*
Y333900D01*
Y335233D02*
X238563Y336566D01*
Y340564D02*
Y337899D01*
X241229Y340564D01*
X241895D01*
X242562Y339898D01*
Y338565D01*
X241895Y337899D01*
Y341897D02*
X242562Y342564D01*
Y343897D01*
X241895Y344563D01*
X239229D01*
X238563Y343897D01*
Y342564D01*
X239229Y341897D01*
X241895D01*
X238563Y345896D02*
Y347229D01*
Y346563D01*
X242562D01*
X241895Y345896D01*
X244465Y333600D02*
X248463D01*
Y335599D01*
X247797Y336266D01*
X246464D01*
X245797Y335599D01*
Y333600D01*
Y334933D02*
X244465Y336266D01*
Y337599D02*
Y338932D01*
Y338265D01*
X248463D01*
X247797Y337599D01*
X245131Y340931D02*
X244465Y341597D01*
Y342930D01*
X245131Y343597D01*
X247797D01*
X248463Y342930D01*
Y341597D01*
X247797Y340931D01*
X247130D01*
X246464Y341597D01*
Y343597D01*
X245131Y344930D02*
X244465Y345596D01*
Y346929D01*
X245131Y347596D01*
X247797D01*
X248463Y346929D01*
Y345596D01*
X247797Y344930D01*
X247130D01*
X246464Y345596D01*
Y347596D01*
X354697Y222637D02*
X352031D01*
X353364D01*
Y218638D01*
X350698D02*
Y222637D01*
X348699D01*
X348032Y221970D01*
Y220637D01*
X348699Y219971D01*
X350698D01*
X344033Y218638D02*
X346699D01*
X344033Y221304D01*
Y221970D01*
X344700Y222637D01*
X346033D01*
X346699Y221970D01*
X342701Y219304D02*
X342034Y218638D01*
X340701D01*
X340035Y219304D01*
Y221970D01*
X340701Y222637D01*
X342034D01*
X342701Y221970D01*
Y221304D01*
X342034Y220637D01*
X340035D01*
X239800Y366680D02*
X237134D01*
X238467D01*
Y362681D01*
X235801D02*
Y366680D01*
X233802D01*
X233136Y366013D01*
Y364681D01*
X233802Y364014D01*
X235801D01*
X229803Y362681D02*
Y366680D01*
X231803Y364681D01*
X229137D01*
X225804Y362681D02*
Y366680D01*
X227804Y364681D01*
X225138D01*
X41838Y447714D02*
X42505Y448381D01*
X43837D01*
X44504Y447714D01*
Y447048D01*
X43837Y446381D01*
X42505D01*
X41838Y445715D01*
Y445048D01*
X42505Y444382D01*
X43837D01*
X44504Y445048D01*
X40505Y448381D02*
Y444382D01*
X39172Y445715D01*
X37839Y444382D01*
Y448381D01*
X36507Y447714D02*
X35840Y448381D01*
X34507D01*
X33841Y447714D01*
Y447048D01*
X34507Y446381D01*
X35174D01*
X34507D01*
X33841Y445715D01*
Y445048D01*
X34507Y444382D01*
X35840D01*
X36507Y445048D01*
X240229Y421008D02*
Y418342D01*
Y419675D01*
X244227D01*
Y417009D02*
X240229D01*
Y415010D01*
X240895Y414343D01*
X242228D01*
X242894Y415010D01*
Y417009D01*
X240229Y410345D02*
X240895Y411678D01*
X242228Y413011D01*
X243561D01*
X244227Y412344D01*
Y411011D01*
X243561Y410345D01*
X242894D01*
X242228Y411011D01*
Y413011D01*
X244371Y393750D02*
Y391085D01*
Y392418D01*
X248370D01*
Y389752D02*
X244371D01*
Y387752D01*
X245038Y387086D01*
X246371D01*
X247037Y387752D01*
Y389752D01*
X244371Y385753D02*
Y383087D01*
X245038D01*
X247704Y385753D01*
X248370D01*
X307087Y301575D02*
Y305574D01*
X305087D01*
X304421Y304907D01*
Y303574D01*
X305087Y302908D01*
X307087D01*
X305754D02*
X304421Y301575D01*
X300422D02*
X303088D01*
X300422Y304241D01*
Y304907D01*
X301089Y305574D01*
X302421D01*
X303088Y304907D01*
X299089D02*
X298423Y305574D01*
X297090D01*
X296423Y304907D01*
Y302241D01*
X297090Y301575D01*
X298423D01*
X299089Y302241D01*
Y304907D01*
X292425Y301575D02*
X295091D01*
X292425Y304241D01*
Y304907D01*
X293091Y305574D01*
X294424D01*
X295091Y304907D01*
X15758Y114662D02*
X15092Y115328D01*
Y116661D01*
X15758Y117327D01*
X18424D01*
X19091Y116661D01*
Y115328D01*
X18424Y114662D01*
X15092Y110663D02*
Y113329D01*
X17091D01*
X16425Y111996D01*
Y111329D01*
X17091Y110663D01*
X18424D01*
X19091Y111329D01*
Y112662D01*
X18424Y113329D01*
X24969Y143961D02*
X24303Y143294D01*
X22970D01*
X22303Y143961D01*
Y146626D01*
X22970Y147293D01*
X24303D01*
X24969Y146626D01*
X28968Y143294D02*
X27635Y143961D01*
X26302Y145294D01*
Y146626D01*
X26968Y147293D01*
X28301D01*
X28968Y146626D01*
Y145960D01*
X28301Y145294D01*
X26302D01*
X18936Y144680D02*
X18269Y144014D01*
X16937D01*
X16270Y144680D01*
Y147346D01*
X16937Y148013D01*
X18269D01*
X18936Y147346D01*
X20269Y144014D02*
X22935D01*
Y144680D01*
X20269Y147346D01*
Y148013D01*
X47013Y118193D02*
X46346Y118860D01*
Y120193D01*
X47013Y120859D01*
X49678D01*
X50345Y120193D01*
Y118860D01*
X49678Y118193D01*
X47013Y116860D02*
X46346Y116194D01*
Y114861D01*
X47013Y114195D01*
X47679D01*
X48346Y114861D01*
X49012Y114195D01*
X49678D01*
X50345Y114861D01*
Y116194D01*
X49678Y116860D01*
X49012D01*
X48346Y116194D01*
X47679Y116860D01*
X47013D01*
X48346Y116194D02*
Y114861D01*
X55583Y123469D02*
X54916Y124135D01*
Y125468D01*
X55583Y126135D01*
X58249D01*
X58915Y125468D01*
Y124135D01*
X58249Y123469D01*
Y122136D02*
X58915Y121469D01*
Y120137D01*
X58249Y119470D01*
X55583D01*
X54916Y120137D01*
Y121469D01*
X55583Y122136D01*
X56249D01*
X56916Y121469D01*
Y119470D01*
X16510Y129955D02*
X15844Y130622D01*
Y131955D01*
X16510Y132621D01*
X19176D01*
X19842Y131955D01*
Y130622D01*
X19176Y129955D01*
X19842Y128622D02*
Y127290D01*
Y127956D01*
X15844D01*
X16510Y128622D01*
Y125290D02*
X15844Y124624D01*
Y123291D01*
X16510Y122625D01*
X19176D01*
X19842Y123291D01*
Y124624D01*
X19176Y125290D01*
X16510D01*
X25330Y98625D02*
X24663Y97959D01*
X23330D01*
X22664Y98625D01*
Y101291D01*
X23330Y101957D01*
X24663D01*
X25330Y101291D01*
X26662Y101957D02*
X27995D01*
X27329D01*
Y97959D01*
X26662Y98625D01*
X29995Y101957D02*
X31328D01*
X30661D01*
Y97959D01*
X29995Y98625D01*
X63517Y146855D02*
X62851Y147521D01*
Y148854D01*
X63517Y149521D01*
X66183D01*
X66850Y148854D01*
Y147521D01*
X66183Y146855D01*
X66850Y145522D02*
Y144189D01*
Y144855D01*
X62851D01*
X63517Y145522D01*
Y142190D02*
X62851Y141523D01*
Y140190D01*
X63517Y139524D01*
X64184D01*
X64850Y140190D01*
Y140857D01*
Y140190D01*
X65517Y139524D01*
X66183D01*
X66850Y140190D01*
Y141523D01*
X66183Y142190D01*
X62956Y151804D02*
X62290Y152470D01*
Y153803D01*
X62956Y154469D01*
X65622D01*
X66288Y153803D01*
Y152470D01*
X65622Y151804D01*
X66288Y150471D02*
Y149138D01*
Y149804D01*
X62290D01*
X62956Y150471D01*
X66288Y145139D02*
X62290D01*
X64289Y147138D01*
Y144473D01*
X15950Y124320D02*
X15284Y124987D01*
Y126319D01*
X15950Y126986D01*
X18616D01*
X19283Y126319D01*
Y124987D01*
X18616Y124320D01*
X19283Y122987D02*
Y121654D01*
Y122321D01*
X15284D01*
X15950Y122987D01*
X15284Y116989D02*
Y119655D01*
X17283D01*
X16617Y118322D01*
Y117656D01*
X17283Y116989D01*
X18616D01*
X19283Y117656D01*
Y118988D01*
X18616Y119655D01*
X28613Y111796D02*
X27947Y112462D01*
Y113795D01*
X28613Y114461D01*
X31279D01*
X31946Y113795D01*
Y112462D01*
X31279Y111796D01*
X31946Y110463D02*
Y109130D01*
Y109796D01*
X27947D01*
X28613Y110463D01*
X27947Y104465D02*
X28613Y105798D01*
X29946Y107130D01*
X31279D01*
X31946Y106464D01*
Y105131D01*
X31279Y104465D01*
X30613D01*
X29946Y105131D01*
Y107130D01*
X37885Y99376D02*
X38552Y100042D01*
X39885D01*
X40551Y99376D01*
Y96710D01*
X39885Y96043D01*
X38552D01*
X37885Y96710D01*
X36553Y96043D02*
X35220D01*
X35886D01*
Y100042D01*
X36553Y99376D01*
X33220Y100042D02*
X30554D01*
Y99376D01*
X33220Y96710D01*
Y96043D01*
X64488Y122078D02*
X65154Y122744D01*
X66487D01*
X67154Y122078D01*
Y119412D01*
X66487Y118746D01*
X65154D01*
X64488Y119412D01*
X63155Y118746D02*
X61822D01*
X62488D01*
Y122744D01*
X63155Y122078D01*
X59823Y119412D02*
X59156Y118746D01*
X57823D01*
X57157Y119412D01*
Y122078D01*
X57823Y122744D01*
X59156D01*
X59823Y122078D01*
Y121412D01*
X59156Y120745D01*
X57157D01*
X42337Y137866D02*
X41671Y138532D01*
Y139865D01*
X42337Y140532D01*
X45003D01*
X45669Y139865D01*
Y138532D01*
X45003Y137866D01*
X45669Y133867D02*
Y136533D01*
X43003Y133867D01*
X42337D01*
X41671Y134533D01*
Y135866D01*
X42337Y136533D01*
X45669Y132534D02*
Y131201D01*
Y131868D01*
X41671D01*
X42337Y132534D01*
X9552Y418704D02*
X10219Y419370D01*
X11552D01*
X12218Y418704D01*
Y416038D01*
X11552Y415372D01*
X10219D01*
X9552Y416038D01*
X8219Y419370D02*
X5554D01*
Y418704D01*
X8219Y416038D01*
Y415372D01*
X4221D02*
X2888D01*
X3554D01*
Y419370D01*
X4221Y418704D01*
X111417Y322896D02*
Y318898D01*
X108751D01*
X107419D02*
X106086D01*
X106752D01*
Y322896D01*
X107419Y322230D01*
X45011Y115087D02*
X49009D01*
Y112422D01*
Y109089D02*
X45011D01*
X47010Y111089D01*
Y108423D01*
X247772Y315094D02*
X251770D01*
Y317094D01*
X251104Y317760D01*
X249771D01*
X249105Y317094D01*
Y315094D01*
Y316427D02*
X247772Y317760D01*
Y319093D02*
Y320426D01*
Y319760D01*
X251770D01*
X251104Y319093D01*
X251770Y325091D02*
X251104Y323758D01*
X249771Y322426D01*
X248438D01*
X247772Y323092D01*
Y324425D01*
X248438Y325091D01*
X249105D01*
X249771Y324425D01*
Y322426D01*
X329134Y266142D02*
Y270140D01*
X327134D01*
X326468Y269474D01*
Y268141D01*
X327134Y267475D01*
X329134D01*
X327801D02*
X326468Y266142D01*
X322469D02*
X325135D01*
X322469Y268808D01*
Y269474D01*
X323136Y270140D01*
X324469D01*
X325135Y269474D01*
X318471Y270140D02*
X319804Y269474D01*
X321136Y268141D01*
Y266808D01*
X320470Y266142D01*
X319137D01*
X318471Y266808D01*
Y267475D01*
X319137Y268141D01*
X321136D01*
X140500Y269600D02*
X144499D01*
Y271599D01*
X143832Y272266D01*
X142499D01*
X141833Y271599D01*
Y269600D01*
Y270933D02*
X140500Y272266D01*
Y273599D02*
Y274932D01*
Y274265D01*
X144499D01*
X143832Y273599D01*
X140500Y279597D02*
Y276931D01*
X143166Y279597D01*
X143832D01*
X144499Y278930D01*
Y277597D01*
X143832Y276931D01*
Y280930D02*
X144499Y281596D01*
Y282929D01*
X143832Y283595D01*
X143166D01*
X142499Y282929D01*
X141833Y283595D01*
X141166D01*
X140500Y282929D01*
Y281596D01*
X141166Y280930D01*
X141833D01*
X142499Y281596D01*
X143166Y280930D01*
X143832D01*
X142499Y281596D02*
Y282929D01*
X168800Y269600D02*
X172799D01*
Y271599D01*
X172132Y272266D01*
X170799D01*
X170133Y271599D01*
Y269600D01*
Y270933D02*
X168800Y272266D01*
Y273599D02*
Y274932D01*
Y274265D01*
X172799D01*
X172132Y273599D01*
X168800Y279597D02*
Y276931D01*
X171466Y279597D01*
X172132D01*
X172799Y278930D01*
Y277597D01*
X172132Y276931D01*
X169466Y280930D02*
X168800Y281596D01*
Y282929D01*
X169466Y283595D01*
X172132D01*
X172799Y282929D01*
Y281596D01*
X172132Y280930D01*
X171466D01*
X170799Y281596D01*
Y283595D01*
X300787Y284252D02*
Y288251D01*
X298788D01*
X298122Y287584D01*
Y286251D01*
X298788Y285585D01*
X300787D01*
X299454D02*
X298122Y284252D01*
X296789D02*
X295456D01*
X296122D01*
Y288251D01*
X296789Y287584D01*
X293456D02*
X292790Y288251D01*
X291457D01*
X290791Y287584D01*
Y286918D01*
X291457Y286251D01*
X292124D01*
X291457D01*
X290791Y285585D01*
Y284918D01*
X291457Y284252D01*
X292790D01*
X293456Y284918D01*
X289458Y284252D02*
X288125D01*
X288791D01*
Y288251D01*
X289458Y287584D01*
X300787Y274016D02*
Y278014D01*
X298788D01*
X298122Y277348D01*
Y276015D01*
X298788Y275349D01*
X300787D01*
X299454D02*
X298122Y274016D01*
X296789D02*
X295456D01*
X296122D01*
Y278014D01*
X296789Y277348D01*
X293456D02*
X292790Y278014D01*
X291457D01*
X290791Y277348D01*
Y276682D01*
X291457Y276015D01*
X292124D01*
X291457D01*
X290791Y275349D01*
Y274682D01*
X291457Y274016D01*
X292790D01*
X293456Y274682D01*
X289458Y277348D02*
X288791Y278014D01*
X287458D01*
X286792Y277348D01*
Y276682D01*
X287458Y276015D01*
X288125D01*
X287458D01*
X286792Y275349D01*
Y274682D01*
X287458Y274016D01*
X288791D01*
X289458Y274682D01*
X250430Y186005D02*
Y190004D01*
X248431D01*
X247764Y189338D01*
Y188005D01*
X248431Y187338D01*
X250430D01*
X249097D02*
X247764Y186005D01*
X246431D02*
X245098D01*
X245765D01*
Y190004D01*
X246431Y189338D01*
X243099D02*
X242432Y190004D01*
X241100D01*
X240433Y189338D01*
Y188671D01*
X241100Y188005D01*
X241766D01*
X241100D01*
X240433Y187338D01*
Y186672D01*
X241100Y186005D01*
X242432D01*
X243099Y186672D01*
X236435Y190004D02*
X237767Y189338D01*
X239100Y188005D01*
Y186672D01*
X238434Y186005D01*
X237101D01*
X236435Y186672D01*
Y187338D01*
X237101Y188005D01*
X239100D01*
X95740Y447714D02*
X96406Y448381D01*
X97739D01*
X98405Y447714D01*
Y447048D01*
X97739Y446381D01*
X96406D01*
X95740Y445715D01*
Y445048D01*
X96406Y444382D01*
X97739D01*
X98405Y445048D01*
X94407Y448381D02*
Y444382D01*
X93074Y445715D01*
X91741Y444382D01*
Y448381D01*
X90408Y444382D02*
X89075D01*
X89742D01*
Y448381D01*
X90408Y447714D01*
X35653Y66188D02*
X38318D01*
X36986D01*
Y70186D01*
X41651D02*
Y66188D01*
X39651Y68187D01*
X42317D01*
X15180Y65981D02*
X17846D01*
X16513D01*
Y69980D01*
X21845Y65981D02*
X19179D01*
Y67981D01*
X20512Y67314D01*
X21178D01*
X21845Y67981D01*
Y69314D01*
X21178Y69980D01*
X19846D01*
X19179Y69314D01*
X226371Y393750D02*
Y391085D01*
Y392418D01*
X230370D01*
Y389752D02*
X226371D01*
Y387752D01*
X227038Y387086D01*
X228371D01*
X229037Y387752D01*
Y389752D01*
X230370Y385753D02*
Y384420D01*
Y385086D01*
X226371D01*
X227038Y385753D01*
X228371Y421402D02*
Y418736D01*
Y420069D01*
X232370D01*
Y417403D02*
X228371D01*
Y415404D01*
X229038Y414737D01*
X230371D01*
X231037Y415404D01*
Y417403D01*
X232370Y410738D02*
Y413404D01*
X229704Y410738D01*
X229038D01*
X228371Y411405D01*
Y412738D01*
X229038Y413404D01*
X232371Y393750D02*
Y391085D01*
Y392418D01*
X236370D01*
Y389752D02*
X232371D01*
Y387752D01*
X233038Y387086D01*
X234371D01*
X235037Y387752D01*
Y389752D01*
X233038Y385753D02*
X232371Y385086D01*
Y383754D01*
X233038Y383087D01*
X233704D01*
X234371Y383754D01*
Y384420D01*
Y383754D01*
X235037Y383087D01*
X235704D01*
X236370Y383754D01*
Y385086D01*
X235704Y385753D01*
X234300Y421008D02*
Y418342D01*
Y419675D01*
X238299D01*
Y417009D02*
X234300D01*
Y415010D01*
X234966Y414343D01*
X236299D01*
X236966Y415010D01*
Y417009D01*
X238299Y411011D02*
X234300D01*
X236299Y413011D01*
Y410345D01*
X238371Y393750D02*
Y391085D01*
Y392418D01*
X242370D01*
Y389752D02*
X238371D01*
Y387752D01*
X239038Y387086D01*
X240371D01*
X241037Y387752D01*
Y389752D01*
X238371Y383087D02*
Y385753D01*
X240371D01*
X239704Y384420D01*
Y383754D01*
X240371Y383087D01*
X241704D01*
X242370Y383754D01*
Y385086D01*
X241704Y385753D01*
X246157Y421008D02*
Y418342D01*
Y419675D01*
X250156D01*
Y417009D02*
X246157D01*
Y415010D01*
X246824Y414343D01*
X248156D01*
X248823Y415010D01*
Y417009D01*
X246824Y413011D02*
X246157Y412344D01*
Y411011D01*
X246824Y410345D01*
X247490D01*
X248156Y411011D01*
X248823Y410345D01*
X249489D01*
X250156Y411011D01*
Y412344D01*
X249489Y413011D01*
X248823D01*
X248156Y412344D01*
X247490Y413011D01*
X246824D01*
X248156Y412344D02*
Y411011D01*
X250371Y393750D02*
Y391085D01*
Y392418D01*
X254370D01*
Y389752D02*
X250371D01*
Y387752D01*
X251038Y387086D01*
X252371D01*
X253037Y387752D01*
Y389752D01*
X253704Y385753D02*
X254370Y385086D01*
Y383754D01*
X253704Y383087D01*
X251038D01*
X250371Y383754D01*
Y385086D01*
X251038Y385753D01*
X251704D01*
X252371Y385086D01*
Y383087D01*
X252086Y421008D02*
Y418342D01*
Y419675D01*
X256084D01*
Y417009D02*
X252086D01*
Y415010D01*
X252752Y414343D01*
X254085D01*
X254751Y415010D01*
Y417009D01*
X256084Y413011D02*
Y411678D01*
Y412344D01*
X252086D01*
X252752Y413011D01*
Y409678D02*
X252086Y409012D01*
Y407679D01*
X252752Y407012D01*
X255418D01*
X256084Y407679D01*
Y409012D01*
X255418Y409678D01*
X252752D01*
X256371Y393750D02*
Y391085D01*
Y392418D01*
X260370D01*
Y389752D02*
X256371D01*
Y387752D01*
X257038Y387086D01*
X258371D01*
X259037Y387752D01*
Y389752D01*
X260370Y385753D02*
Y384420D01*
Y385086D01*
X256371D01*
X257038Y385753D01*
X260370Y382421D02*
Y381088D01*
Y381754D01*
X256371D01*
X257038Y382421D01*
X258014Y421008D02*
Y418342D01*
Y419675D01*
X262013D01*
Y417009D02*
X258014D01*
Y415010D01*
X258681Y414343D01*
X260014D01*
X260680Y415010D01*
Y417009D01*
X262013Y413011D02*
Y411678D01*
Y412344D01*
X258014D01*
X258681Y413011D01*
X262013Y407012D02*
Y409678D01*
X259347Y407012D01*
X258681D01*
X258014Y407679D01*
Y409012D01*
X258681Y409678D01*
X262371Y393750D02*
Y391085D01*
Y392418D01*
X266370D01*
Y389752D02*
X262371D01*
Y387752D01*
X263038Y387086D01*
X264371D01*
X265037Y387752D01*
Y389752D01*
X266370Y385753D02*
Y384420D01*
Y385086D01*
X262371D01*
X263038Y385753D01*
Y382421D02*
X262371Y381754D01*
Y380421D01*
X263038Y379755D01*
X263704D01*
X264371Y380421D01*
Y381088D01*
Y380421D01*
X265037Y379755D01*
X265704D01*
X266370Y380421D01*
Y381754D01*
X265704Y382421D01*
X263943Y421008D02*
Y418342D01*
Y419675D01*
X267941D01*
Y417009D02*
X263943D01*
Y415010D01*
X264609Y414343D01*
X265942D01*
X266609Y415010D01*
Y417009D01*
X267941Y413011D02*
Y411678D01*
Y412344D01*
X263943D01*
X264609Y413011D01*
X267941Y407679D02*
X263943D01*
X265942Y409678D01*
Y407012D01*
X268371Y393750D02*
Y391085D01*
Y392418D01*
X272370D01*
Y389752D02*
X268371D01*
Y387752D01*
X269038Y387086D01*
X270371D01*
X271037Y387752D01*
Y389752D01*
X272370Y385753D02*
Y384420D01*
Y385086D01*
X268371D01*
X269038Y385753D01*
X268371Y379755D02*
Y382421D01*
X270371D01*
X269704Y381088D01*
Y380421D01*
X270371Y379755D01*
X271704D01*
X272370Y380421D01*
Y381754D01*
X271704Y382421D01*
X269871Y421008D02*
Y418342D01*
Y419675D01*
X273870D01*
Y417009D02*
X269871D01*
Y415010D01*
X270538Y414343D01*
X271871D01*
X272537Y415010D01*
Y417009D01*
X273870Y413011D02*
Y411678D01*
Y412344D01*
X269871D01*
X270538Y413011D01*
X269871Y407012D02*
X270538Y408345D01*
X271871Y409678D01*
X273204D01*
X273870Y409012D01*
Y407679D01*
X273204Y407012D01*
X272537D01*
X271871Y407679D01*
Y409678D01*
X272200Y366680D02*
X269534D01*
X270867D01*
Y362681D01*
X268201D02*
Y366680D01*
X266202D01*
X265535Y366013D01*
Y364681D01*
X266202Y364014D01*
X268201D01*
X264203Y362681D02*
X262870D01*
X263536D01*
Y366680D01*
X264203Y366013D01*
X260870Y366680D02*
X258205D01*
Y366013D01*
X260870Y363348D01*
Y362681D01*
X274200Y361593D02*
X271534D01*
X272867D01*
Y357594D01*
X270201D02*
Y361593D01*
X268202D01*
X267535Y360927D01*
Y359594D01*
X268202Y358927D01*
X270201D01*
X266203Y357594D02*
X264870D01*
X265536D01*
Y361593D01*
X266203Y360927D01*
X262870D02*
X262204Y361593D01*
X260871D01*
X260205Y360927D01*
Y360260D01*
X260871Y359594D01*
X260205Y358927D01*
Y358261D01*
X260871Y357594D01*
X262204D01*
X262870Y358261D01*
Y358927D01*
X262204Y359594D01*
X262870Y360260D01*
Y360927D01*
X262204Y359594D02*
X260871D01*
X237800Y361593D02*
X235134D01*
X236467D01*
Y357594D01*
X233801D02*
Y361593D01*
X231802D01*
X231136Y360927D01*
Y359594D01*
X231802Y358927D01*
X233801D01*
X229803Y357594D02*
X228470D01*
X229136D01*
Y361593D01*
X229803Y360927D01*
X226470Y358261D02*
X225804Y357594D01*
X224471D01*
X223804Y358261D01*
Y360927D01*
X224471Y361593D01*
X225804D01*
X226470Y360927D01*
Y360260D01*
X225804Y359594D01*
X223804D01*
X272900Y356404D02*
X270234D01*
X271567D01*
Y352406D01*
X268901D02*
Y356404D01*
X266902D01*
X266235Y355738D01*
Y354405D01*
X266902Y353738D01*
X268901D01*
X262237Y352406D02*
X264903D01*
X262237Y355071D01*
Y355738D01*
X262903Y356404D01*
X264236D01*
X264903Y355738D01*
X260904D02*
X260237Y356404D01*
X258905D01*
X258238Y355738D01*
Y353072D01*
X258905Y352406D01*
X260237D01*
X260904Y353072D01*
Y355738D01*
X239800Y356404D02*
X237134D01*
X238467D01*
Y352406D01*
X235801D02*
Y356404D01*
X233802D01*
X233136Y355738D01*
Y354405D01*
X233802Y353738D01*
X235801D01*
X229137Y352406D02*
X231803D01*
X229137Y355071D01*
Y355738D01*
X229803Y356404D01*
X231136D01*
X231803Y355738D01*
X227804Y352406D02*
X226471D01*
X227137D01*
Y356404D01*
X227804Y355738D01*
X274800Y351318D02*
X272134D01*
X273467D01*
Y347319D01*
X270801D02*
Y351318D01*
X268802D01*
X268135Y350651D01*
Y349318D01*
X268802Y348652D01*
X270801D01*
X264137Y347319D02*
X266803D01*
X264137Y349985D01*
Y350651D01*
X264803Y351318D01*
X266136D01*
X266803Y350651D01*
X260138Y347319D02*
X262804D01*
X260138Y349985D01*
Y350651D01*
X260805Y351318D01*
X262137D01*
X262804Y350651D01*
X237800Y351318D02*
X235134D01*
X236467D01*
Y347319D01*
X233801D02*
Y351318D01*
X231802D01*
X231136Y350651D01*
Y349318D01*
X231802Y348652D01*
X233801D01*
X227137Y347319D02*
X229803D01*
X227137Y349985D01*
Y350651D01*
X227803Y351318D01*
X229136D01*
X229803Y350651D01*
X225804D02*
X225137Y351318D01*
X223804D01*
X223138Y350651D01*
Y349985D01*
X223804Y349318D01*
X224471D01*
X223804D01*
X223138Y348652D01*
Y347985D01*
X223804Y347319D01*
X225137D01*
X225804Y347985D01*
X89769Y329573D02*
X87103D01*
X88436D01*
Y325574D01*
X85771D02*
Y329573D01*
X83771D01*
X83105Y328906D01*
Y327573D01*
X83771Y326907D01*
X85771D01*
X79106Y325574D02*
X81772D01*
X79106Y328240D01*
Y328906D01*
X79773Y329573D01*
X81105D01*
X81772Y328906D01*
X75107Y329573D02*
X76440Y328906D01*
X77773Y327573D01*
Y326240D01*
X77107Y325574D01*
X75774D01*
X75107Y326240D01*
Y326907D01*
X75774Y327573D01*
X77773D01*
X227900Y342199D02*
X225234D01*
X226567D01*
Y338200D01*
X223901D02*
Y342199D01*
X221902D01*
X221235Y341532D01*
Y340199D01*
X221902Y339533D01*
X223901D01*
X217237Y338200D02*
X219903D01*
X217237Y340866D01*
Y341532D01*
X217903Y342199D01*
X219236D01*
X219903Y341532D01*
X215904D02*
X215237Y342199D01*
X213905D01*
X213238Y341532D01*
Y340866D01*
X213905Y340199D01*
X213238Y339533D01*
Y338866D01*
X213905Y338200D01*
X215237D01*
X215904Y338866D01*
Y339533D01*
X215237Y340199D01*
X215904Y340866D01*
Y341532D01*
X215237Y340199D02*
X213905D01*
X327584Y330526D02*
X324919D01*
X326251D01*
Y326528D01*
X323586D02*
Y330526D01*
X321586D01*
X320920Y329860D01*
Y328527D01*
X321586Y327860D01*
X323586D01*
X319587Y329860D02*
X318920Y330526D01*
X317587D01*
X316921Y329860D01*
Y329193D01*
X317587Y328527D01*
X318254D01*
X317587D01*
X316921Y327860D01*
Y327194D01*
X317587Y326528D01*
X318920D01*
X319587Y327194D01*
X315588Y329860D02*
X314922Y330526D01*
X313589D01*
X312922Y329860D01*
Y327194D01*
X313589Y326528D01*
X314922D01*
X315588Y327194D01*
Y329860D01*
X132731Y173871D02*
X130065D01*
X131398D01*
Y169872D01*
X128732D02*
Y173871D01*
X126733D01*
X126066Y173205D01*
Y171872D01*
X126733Y171205D01*
X128732D01*
X124733Y173205D02*
X124067Y173871D01*
X122734D01*
X122067Y173205D01*
Y172538D01*
X122734Y171872D01*
X123400D01*
X122734D01*
X122067Y171205D01*
Y170539D01*
X122734Y169872D01*
X124067D01*
X124733Y170539D01*
X120735Y169872D02*
X119402D01*
X120068D01*
Y173871D01*
X120735Y173205D01*
X368504Y190613D02*
X365838D01*
X367171D01*
Y186614D01*
X364505D02*
Y190613D01*
X362506D01*
X361839Y189946D01*
Y188613D01*
X362506Y187947D01*
X364505D01*
X360507Y189946D02*
X359840Y190613D01*
X358507D01*
X357841Y189946D01*
Y189280D01*
X358507Y188613D01*
X359174D01*
X358507D01*
X357841Y187947D01*
Y187281D01*
X358507Y186614D01*
X359840D01*
X360507Y187281D01*
X353842Y186614D02*
X356508D01*
X353842Y189280D01*
Y189946D01*
X354508Y190613D01*
X355841D01*
X356508Y189946D01*
X857908Y288330D02*
Y284998D01*
X857241Y284332D01*
X855908D01*
X855242Y284998D01*
Y288330D01*
X851910Y284332D02*
Y288330D01*
X853909Y286331D01*
X851243D01*
X849910Y284332D02*
Y286997D01*
X848577Y288330D01*
X847244Y286997D01*
Y284332D01*
Y286331D01*
X849910D01*
X977908Y288330D02*
Y284998D01*
X977241Y284332D01*
X975908D01*
X975242Y284998D01*
Y288330D01*
X971910Y284332D02*
Y288330D01*
X973909Y286331D01*
X971243D01*
X969910Y288330D02*
Y284332D01*
X967911D01*
X967245Y284998D01*
Y285665D01*
X967911Y286331D01*
X969910D01*
X967911D01*
X967245Y286997D01*
Y287664D01*
X967911Y288330D01*
X969910D01*
X1097908D02*
Y284998D01*
X1097241Y284332D01*
X1095908D01*
X1095242Y284998D01*
Y288330D01*
X1091910Y284332D02*
Y288330D01*
X1093909Y286331D01*
X1091243D01*
X1087245Y287664D02*
X1087911Y288330D01*
X1089244D01*
X1089910Y287664D01*
Y284998D01*
X1089244Y284332D01*
X1087911D01*
X1087245Y284998D01*
X1217908Y288330D02*
Y284998D01*
X1217241Y284332D01*
X1215908D01*
X1215242Y284998D01*
Y288330D01*
X1211910Y284332D02*
Y288330D01*
X1213909Y286331D01*
X1211243D01*
X1209910Y288330D02*
Y284332D01*
X1207911D01*
X1207244Y284998D01*
Y287664D01*
X1207911Y288330D01*
X1209910D01*
X1337908Y288330D02*
Y284998D01*
X1337241Y284332D01*
X1335908D01*
X1335242Y284998D01*
Y288330D01*
X1331910Y284332D02*
Y288330D01*
X1333909Y286331D01*
X1331243D01*
X1327244Y288330D02*
X1329910D01*
Y284332D01*
X1327244D01*
X1329910Y286331D02*
X1328577D01*
D26*
X29639Y460547D02*
Y463213D01*
X31638D01*
Y461880D01*
Y463213D01*
X33638D01*
Y459214D02*
X29639D01*
Y457214D01*
X30305Y456548D01*
X31638D01*
X32305Y457214D01*
Y459214D01*
X29639Y455215D02*
X33638D01*
Y453216D01*
X32971Y452549D01*
X30305D01*
X29639Y453216D01*
Y455215D01*
X75581Y460547D02*
X74915Y461213D01*
Y462546D01*
X75581Y463213D01*
X78247D01*
X78913Y462546D01*
Y461213D01*
X78247Y460547D01*
X76914D01*
Y461880D01*
X74915Y459214D02*
Y456548D01*
Y457881D01*
X78913D01*
Y455215D02*
X74915D01*
Y453216D01*
X75581Y452549D01*
X76914D01*
X77580Y453216D01*
Y455215D01*
Y453882D02*
X78913Y452549D01*
X69282Y460547D02*
X68616Y461213D01*
Y462546D01*
X69282Y463213D01*
X71948D01*
X72614Y462546D01*
Y461213D01*
X71948Y460547D01*
X70615D01*
Y461880D01*
X68616Y459214D02*
X72614D01*
X70615D01*
Y456548D01*
X68616D01*
X72614D01*
X69948Y455215D02*
X72614D01*
X71281D01*
X70615Y454549D01*
X69948Y453882D01*
Y453216D01*
X63376Y460547D02*
X62710Y461213D01*
Y462546D01*
X63376Y463213D01*
X66042D01*
X66709Y462546D01*
Y461213D01*
X66042Y460547D01*
X64709D01*
Y461880D01*
X62710Y459214D02*
X66709D01*
X64709D01*
Y456548D01*
X62710D01*
X66709D01*
Y455215D02*
Y453882D01*
Y454549D01*
X62710D01*
Y455215D01*
X58445Y463213D02*
X54446D01*
Y461213D01*
X55113Y460547D01*
X56446D01*
X57112Y461213D01*
Y463213D01*
X54446Y459214D02*
X58445D01*
Y456548D01*
X54446Y455215D02*
X58445D01*
Y452549D01*
X47749Y463213D02*
X51748D01*
Y461213D01*
X51082Y460547D01*
X48416D01*
X47749Y461213D01*
Y463213D01*
Y459214D02*
X51748D01*
Y457214D01*
X51082Y456548D01*
X48416D01*
X47749Y457214D01*
Y459214D01*
X51748Y455215D02*
X47749D01*
Y453216D01*
X48416Y452549D01*
X49749D01*
X50415Y453216D01*
Y455215D01*
Y453882D02*
X51748Y452549D01*
X41844Y463213D02*
X45842D01*
Y460547D01*
Y459214D02*
X41844D01*
Y457214D01*
X42510Y456548D01*
X43843D01*
X44510Y457214D01*
Y459214D01*
X41844Y455215D02*
X45842D01*
Y453216D01*
X45176Y452549D01*
X42510D01*
X41844Y453216D01*
Y455215D01*
X39937Y463213D02*
X35938D01*
Y461213D01*
X36605Y460547D01*
X37938D01*
X38604Y461213D01*
Y463213D01*
X35938Y459214D02*
X39937D01*
Y456548D01*
X100899Y463213D02*
X104898D01*
Y461213D01*
X104231Y460547D01*
X103565D01*
X102898Y461213D01*
Y463213D01*
Y461213D01*
X102232Y460547D01*
X101565D01*
X100899Y461213D01*
Y463213D01*
X104898Y459214D02*
X100899D01*
X102232Y457881D01*
X100899Y456548D01*
X104898D01*
X101565Y455215D02*
X100899Y454549D01*
Y453216D01*
X101565Y452549D01*
X104231D01*
X104898Y453216D01*
Y454549D01*
X104231Y455215D01*
X101565D01*
X89088Y463213D02*
X93087D01*
Y461213D01*
X92420Y460547D01*
X91754D01*
X91087Y461213D01*
Y463213D01*
Y461213D01*
X90421Y460547D01*
X89754D01*
X89088Y461213D01*
Y463213D01*
X93087Y459214D02*
X89088D01*
X90421Y457881D01*
X89088Y456548D01*
X93087D01*
Y452549D02*
Y455215D01*
X90421Y452549D01*
X89754D01*
X89088Y453216D01*
Y454549D01*
X89754Y455215D01*
X94600Y463213D02*
X98598D01*
Y461213D01*
X97932Y460547D01*
X97265D01*
X96599Y461213D01*
Y463213D01*
Y461213D01*
X95933Y460547D01*
X95266D01*
X94600Y461213D01*
Y463213D01*
X98598Y459214D02*
X94600D01*
X95933Y457881D01*
X94600Y456548D01*
X98598D01*
Y455215D02*
Y453882D01*
Y454549D01*
X94600D01*
X95266Y455215D01*
X83576Y463213D02*
X87575D01*
Y461213D01*
X86908Y460547D01*
X86242D01*
X85575Y461213D01*
Y463213D01*
Y461213D01*
X84909Y460547D01*
X84243D01*
X83576Y461213D01*
Y463213D01*
X87575Y459214D02*
X83576D01*
X84909Y457881D01*
X83576Y456548D01*
X87575D01*
X84243Y455215D02*
X83576Y454549D01*
Y453216D01*
X84243Y452549D01*
X84909D01*
X85575Y453216D01*
Y453882D01*
Y453216D01*
X86242Y452549D01*
X86908D01*
X87575Y453216D01*
Y454549D01*
X86908Y455215D01*
X69039Y447714D02*
X69705Y448381D01*
X71038D01*
X71705Y447714D01*
Y447048D01*
X71038Y446381D01*
X69705D01*
X69039Y445715D01*
Y445048D01*
X69705Y444382D01*
X71038D01*
X71705Y445048D01*
X67706Y448381D02*
Y444382D01*
X66373Y445715D01*
X65040Y444382D01*
Y448381D01*
X61041Y444382D02*
X63707D01*
X61041Y447048D01*
Y447714D01*
X61708Y448381D01*
X63041D01*
X63707Y447714D01*
X157811Y321802D02*
X155146D01*
X156478D01*
Y317804D01*
X153813D02*
Y321802D01*
X151813D01*
X151147Y321136D01*
Y319803D01*
X151813Y319137D01*
X153813D01*
X147148Y317804D02*
X149814D01*
X147148Y320470D01*
Y321136D01*
X147815Y321802D01*
X149147D01*
X149814Y321136D01*
X145815Y321802D02*
X143149D01*
Y321136D01*
X145815Y318470D01*
Y317804D01*
M02*
