G04*
G04 #@! TF.GenerationSoftware,Altium Limited,Altium Designer,19.1.9 (167)*
G04*
G04 Layer_Color=16711935*
%FSLAX25Y25*%
%MOIN*%
G70*
G01*
G75*
%ADD120R,0.05400X0.15900*%
%ADD141R,0.06509X0.05328*%
G04:AMPARAMS|DCode=148|XSize=35.56mil|YSize=45.4mil|CornerRadius=8.55mil|HoleSize=0mil|Usage=FLASHONLY|Rotation=180.000|XOffset=0mil|YOffset=0mil|HoleType=Round|Shape=RoundedRectangle|*
%AMROUNDEDRECTD148*
21,1,0.03556,0.02831,0,0,180.0*
21,1,0.01846,0.04540,0,0,180.0*
1,1,0.01709,-0.00923,0.01415*
1,1,0.01709,0.00923,0.01415*
1,1,0.01709,0.00923,-0.01415*
1,1,0.01709,-0.00923,-0.01415*
%
%ADD148ROUNDEDRECTD148*%
%ADD157R,0.04068X0.03280*%
%ADD160R,0.03556X0.04343*%
%ADD164R,0.15900X0.05400*%
%ADD166C,0.06706*%
G04:AMPARAMS|DCode=169|XSize=51.31mil|YSize=78.87mil|CornerRadius=8.33mil|HoleSize=0mil|Usage=FLASHONLY|Rotation=180.000|XOffset=0mil|YOffset=0mil|HoleType=Round|Shape=RoundedRectangle|*
%AMROUNDEDRECTD169*
21,1,0.05131,0.06221,0,0,180.0*
21,1,0.03465,0.07887,0,0,180.0*
1,1,0.01666,-0.01732,0.03110*
1,1,0.01666,0.01732,0.03110*
1,1,0.01666,0.01732,-0.03110*
1,1,0.01666,-0.01732,-0.03110*
%
%ADD169ROUNDEDRECTD169*%
%ADD185R,0.04737X0.04343*%
%ADD186R,0.04343X0.04737*%
%ADD187R,0.04343X0.03556*%
%ADD192C,0.04737*%
%ADD196R,0.11430X0.05918*%
%ADD209C,0.06312*%
%ADD210R,0.06312X0.06312*%
%ADD211C,0.06784*%
%ADD212C,0.10249*%
%ADD213C,0.13398*%
%ADD214C,0.06600*%
%ADD215C,0.05709*%
%ADD216C,0.00800*%
%ADD217C,0.24422*%
%ADD218R,0.06706X0.06706*%
%ADD219C,0.22453*%
%ADD220C,0.12611*%
%ADD221C,0.02375*%
%ADD247O,0.01981X0.07887*%
%ADD248O,0.07887X0.01981*%
G04:AMPARAMS|DCode=249|XSize=56.82mil|YSize=95.4mil|CornerRadius=12.06mil|HoleSize=0mil|Usage=FLASHONLY|Rotation=270.000|XOffset=0mil|YOffset=0mil|HoleType=Round|Shape=RoundedRectangle|*
%AMROUNDEDRECTD249*
21,1,0.05682,0.07129,0,0,270.0*
21,1,0.03271,0.09540,0,0,270.0*
1,1,0.02411,-0.03565,-0.01635*
1,1,0.02411,-0.03565,0.01635*
1,1,0.02411,0.03565,0.01635*
1,1,0.02411,0.03565,-0.01635*
%
%ADD249ROUNDEDRECTD249*%
G04:AMPARAMS|DCode=250|XSize=55.64mil|YSize=79.65mil|CornerRadius=11.86mil|HoleSize=0mil|Usage=FLASHONLY|Rotation=270.000|XOffset=0mil|YOffset=0mil|HoleType=Round|Shape=RoundedRectangle|*
%AMROUNDEDRECTD250*
21,1,0.05564,0.05593,0,0,270.0*
21,1,0.03192,0.07965,0,0,270.0*
1,1,0.02372,-0.02797,-0.01596*
1,1,0.02372,-0.02797,0.01596*
1,1,0.02372,0.02797,0.01596*
1,1,0.02372,0.02797,-0.01596*
%
%ADD250ROUNDEDRECTD250*%
%ADD251R,0.03792X0.05800*%
G04:AMPARAMS|DCode=252|XSize=51.31mil|YSize=78.87mil|CornerRadius=8.33mil|HoleSize=0mil|Usage=FLASHONLY|Rotation=270.000|XOffset=0mil|YOffset=0mil|HoleType=Round|Shape=RoundedRectangle|*
%AMROUNDEDRECTD252*
21,1,0.05131,0.06221,0,0,270.0*
21,1,0.03465,0.07887,0,0,270.0*
1,1,0.01666,-0.03110,-0.01732*
1,1,0.01666,-0.03110,0.01732*
1,1,0.01666,0.03110,0.01732*
1,1,0.01666,0.03110,-0.01732*
%
%ADD252ROUNDEDRECTD252*%
D120*
X140000Y398250D02*
D03*
X80000Y373750D02*
D03*
X90000D02*
D03*
X100000D02*
D03*
X110000D02*
D03*
X120000D02*
D03*
X130000D02*
D03*
X140000D02*
D03*
X150000D02*
D03*
X160000D02*
D03*
X170000D02*
D03*
X80000Y398250D02*
D03*
X90000D02*
D03*
X100000D02*
D03*
X110000D02*
D03*
X120000D02*
D03*
X130000D02*
D03*
X150000D02*
D03*
X160000D02*
D03*
X170000D02*
D03*
D141*
X61216Y98116D02*
D03*
Y89455D02*
D03*
Y73455D02*
D03*
Y82117D02*
D03*
Y66116D02*
D03*
Y57455D02*
D03*
Y41455D02*
D03*
Y50116D02*
D03*
D148*
X58948Y262789D02*
D03*
X53357D02*
D03*
D157*
X69216Y88396D02*
D03*
Y97176D02*
D03*
Y81176D02*
D03*
Y72396D02*
D03*
Y56396D02*
D03*
Y65176D02*
D03*
Y49176D02*
D03*
Y40396D02*
D03*
D160*
X1343255Y250920D02*
D03*
X1337743D02*
D03*
X1217743Y250920D02*
D03*
X1223255D02*
D03*
X1103255D02*
D03*
X1097743D02*
D03*
X977743D02*
D03*
X983255D02*
D03*
X863255D02*
D03*
X857743D02*
D03*
X1288255Y213919D02*
D03*
X1282743D02*
D03*
X1162743Y213919D02*
D03*
X1168255D02*
D03*
X1048255D02*
D03*
X1042743D02*
D03*
X922743D02*
D03*
X928255D02*
D03*
X808255D02*
D03*
X802743D02*
D03*
X60709Y287589D02*
D03*
X55197D02*
D03*
X47709Y263289D02*
D03*
X42197D02*
D03*
Y268489D02*
D03*
X47709D02*
D03*
X29997Y292042D02*
D03*
X24485D02*
D03*
X58897Y306446D02*
D03*
X64409D02*
D03*
Y301889D02*
D03*
X58897D02*
D03*
X30609Y298289D02*
D03*
X25097D02*
D03*
X64609Y282889D02*
D03*
X59097D02*
D03*
X60796Y267895D02*
D03*
X55284D02*
D03*
X24297Y282589D02*
D03*
X29809D02*
D03*
X25713Y255763D02*
D03*
X20202D02*
D03*
D164*
X20104Y401063D02*
D03*
Y391063D02*
D03*
Y381063D02*
D03*
Y371063D02*
D03*
Y361063D02*
D03*
Y351063D02*
D03*
Y341063D02*
D03*
Y331063D02*
D03*
X44604Y401063D02*
D03*
Y391063D02*
D03*
Y381063D02*
D03*
Y371063D02*
D03*
Y361063D02*
D03*
Y351063D02*
D03*
Y341063D02*
D03*
Y331063D02*
D03*
D166*
X1130048Y59838D02*
D03*
X1140049Y69837D02*
D03*
Y59838D02*
D03*
X1150049Y69837D02*
D03*
Y59838D02*
D03*
X1160048Y69837D02*
D03*
Y59838D02*
D03*
X1170049Y69837D02*
D03*
Y59838D02*
D03*
X1180048Y69837D02*
D03*
Y59838D02*
D03*
X269432Y52074D02*
D03*
Y62074D02*
D03*
X259432Y52074D02*
D03*
Y62074D02*
D03*
X249432Y52074D02*
D03*
Y62074D02*
D03*
X239432Y52074D02*
D03*
Y62074D02*
D03*
X229432Y52074D02*
D03*
Y62074D02*
D03*
X219432Y52074D02*
D03*
D169*
X133035Y218936D02*
D03*
X144846D02*
D03*
X316564Y275862D02*
D03*
X304753D02*
D03*
X304753Y285847D02*
D03*
X316564D02*
D03*
D185*
X214170Y327559D02*
D03*
Y333858D02*
D03*
X446992Y68258D02*
D03*
Y61959D02*
D03*
X457992Y68258D02*
D03*
Y61959D02*
D03*
X182040Y386850D02*
D03*
Y380550D02*
D03*
X607508Y60976D02*
D03*
Y54676D02*
D03*
X505334Y54675D02*
D03*
Y60974D02*
D03*
X637508Y60776D02*
D03*
Y54476D02*
D03*
X535334Y54475D02*
D03*
Y60774D02*
D03*
X1321696Y208148D02*
D03*
Y214447D02*
D03*
X1201696Y214447D02*
D03*
Y208148D02*
D03*
X1081696D02*
D03*
Y214447D02*
D03*
X961696D02*
D03*
Y208148D02*
D03*
X841696D02*
D03*
Y214447D02*
D03*
X1300680Y296069D02*
D03*
Y289770D02*
D03*
X1180680Y289770D02*
D03*
Y296069D02*
D03*
X1060680D02*
D03*
Y289770D02*
D03*
X940680D02*
D03*
Y296069D02*
D03*
X820680D02*
D03*
Y289770D02*
D03*
X1278499Y295282D02*
D03*
Y288982D02*
D03*
X1158499Y288982D02*
D03*
Y295282D02*
D03*
X1038499D02*
D03*
Y288982D02*
D03*
X918499D02*
D03*
Y295282D02*
D03*
X798499D02*
D03*
Y288982D02*
D03*
X1257825Y264824D02*
D03*
Y258524D02*
D03*
X1137825Y258524D02*
D03*
Y264824D02*
D03*
X1017825D02*
D03*
Y258524D02*
D03*
X897825D02*
D03*
Y264824D02*
D03*
X777825D02*
D03*
Y258524D02*
D03*
X1276499Y206770D02*
D03*
Y213069D02*
D03*
X1156499Y213069D02*
D03*
Y206770D02*
D03*
X1036499D02*
D03*
Y213069D02*
D03*
X916499D02*
D03*
Y206770D02*
D03*
X796499D02*
D03*
Y213069D02*
D03*
X1270499Y213069D02*
D03*
Y206770D02*
D03*
X1150499Y206770D02*
D03*
Y213069D02*
D03*
X1030499D02*
D03*
Y206770D02*
D03*
X910499D02*
D03*
Y213069D02*
D03*
X790499D02*
D03*
Y206770D02*
D03*
X277602Y399535D02*
D03*
Y393236D02*
D03*
X283602D02*
D03*
Y399535D02*
D03*
X289602D02*
D03*
Y393236D02*
D03*
X295602D02*
D03*
Y399535D02*
D03*
X304513D02*
D03*
Y393236D02*
D03*
X310442D02*
D03*
Y399535D02*
D03*
X316390D02*
D03*
Y393236D02*
D03*
X322302D02*
D03*
Y399535D02*
D03*
X331382D02*
D03*
Y393236D02*
D03*
X337130D02*
D03*
Y399535D02*
D03*
X342878D02*
D03*
Y393236D02*
D03*
X348872D02*
D03*
Y399535D02*
D03*
X187526Y386817D02*
D03*
Y380517D02*
D03*
D186*
X47066Y89786D02*
D03*
X53365D02*
D03*
Y73786D02*
D03*
X47066D02*
D03*
Y57786D02*
D03*
X53365D02*
D03*
Y41786D02*
D03*
X47066D02*
D03*
X81365Y98786D02*
D03*
X75066D02*
D03*
Y82786D02*
D03*
X81365D02*
D03*
Y66786D02*
D03*
X75066D02*
D03*
Y50786D02*
D03*
X81365D02*
D03*
X53365Y95786D02*
D03*
X47066D02*
D03*
Y79786D02*
D03*
X53365D02*
D03*
Y63786D02*
D03*
X47066D02*
D03*
Y47786D02*
D03*
X53365D02*
D03*
X1337987Y232919D02*
D03*
X1344287D02*
D03*
X1224287Y232920D02*
D03*
X1217987D02*
D03*
X1097987D02*
D03*
X1104287D02*
D03*
X984287D02*
D03*
X977987D02*
D03*
X857987D02*
D03*
X864287D02*
D03*
X1340137Y256526D02*
D03*
X1346436D02*
D03*
X1226436Y256526D02*
D03*
X1220137D02*
D03*
X1100137D02*
D03*
X1106436D02*
D03*
X986436D02*
D03*
X980137D02*
D03*
X860137D02*
D03*
X866436D02*
D03*
X1263192Y270919D02*
D03*
X1256893D02*
D03*
X1136893Y270919D02*
D03*
X1143192D02*
D03*
X1023192D02*
D03*
X1016893D02*
D03*
X896893D02*
D03*
X903192D02*
D03*
X783192D02*
D03*
X776893D02*
D03*
X339576Y185096D02*
D03*
X345876D02*
D03*
X327282Y262789D02*
D03*
X320983D02*
D03*
X227197Y327909D02*
D03*
X220898D02*
D03*
D187*
X75216Y88030D02*
D03*
Y93542D02*
D03*
Y77542D02*
D03*
Y72030D02*
D03*
Y56030D02*
D03*
Y61542D02*
D03*
Y45542D02*
D03*
Y40030D02*
D03*
X1295499Y214675D02*
D03*
Y209163D02*
D03*
X1175499Y209163D02*
D03*
Y214675D02*
D03*
X1055499D02*
D03*
Y209163D02*
D03*
X935499D02*
D03*
Y214675D02*
D03*
X815499D02*
D03*
Y209163D02*
D03*
X1311499Y209163D02*
D03*
Y214675D02*
D03*
X1191499Y214675D02*
D03*
Y209163D02*
D03*
X1071499D02*
D03*
Y214675D02*
D03*
X951499D02*
D03*
Y209163D02*
D03*
X831499D02*
D03*
Y214675D02*
D03*
X1338499Y226675D02*
D03*
Y221164D02*
D03*
X1218499Y221164D02*
D03*
Y226675D02*
D03*
X1098499D02*
D03*
Y221164D02*
D03*
X978499D02*
D03*
Y226675D02*
D03*
X858499D02*
D03*
Y221164D02*
D03*
X1315499Y288770D02*
D03*
Y294282D02*
D03*
X1195499Y294282D02*
D03*
Y288770D02*
D03*
X1075499D02*
D03*
Y294282D02*
D03*
X955499D02*
D03*
Y288770D02*
D03*
X835499D02*
D03*
Y294282D02*
D03*
X1305877Y294282D02*
D03*
Y288770D02*
D03*
X1185877Y288770D02*
D03*
Y294282D02*
D03*
X1065877D02*
D03*
Y288770D02*
D03*
X945877D02*
D03*
Y294282D02*
D03*
X825877D02*
D03*
Y288770D02*
D03*
X1263499Y277164D02*
D03*
Y282675D02*
D03*
X1143499Y282675D02*
D03*
Y277164D02*
D03*
X1023499D02*
D03*
Y282675D02*
D03*
X903499D02*
D03*
Y277164D02*
D03*
X783499D02*
D03*
Y282675D02*
D03*
X1289499Y294675D02*
D03*
Y289163D02*
D03*
X1169499Y289163D02*
D03*
Y294675D02*
D03*
X1049499D02*
D03*
Y289163D02*
D03*
X929499D02*
D03*
Y294675D02*
D03*
X809499D02*
D03*
Y289163D02*
D03*
X1263416Y254753D02*
D03*
Y260265D02*
D03*
X1143416Y260265D02*
D03*
Y254753D02*
D03*
X1023415D02*
D03*
Y260265D02*
D03*
X903415D02*
D03*
Y254753D02*
D03*
X783416D02*
D03*
Y260265D02*
D03*
X58584Y297051D02*
D03*
Y291539D02*
D03*
X69553Y295445D02*
D03*
Y289933D02*
D03*
X37902Y267439D02*
D03*
Y261927D02*
D03*
X38253Y307545D02*
D03*
Y302033D02*
D03*
X46353Y301933D02*
D03*
Y307445D02*
D03*
D192*
X236882Y353929D02*
D03*
X241047Y347630D02*
D03*
X1301499Y212919D02*
D03*
X1181499Y212919D02*
D03*
X1061499D02*
D03*
X941499D02*
D03*
X821499D02*
D03*
X1305499Y206920D02*
D03*
X1185499Y206920D02*
D03*
X1065499D02*
D03*
X945499D02*
D03*
X825499D02*
D03*
X1294665Y291504D02*
D03*
X1174665D02*
D03*
X1054665D02*
D03*
X934665D02*
D03*
X814664Y291502D02*
D03*
X1278499Y301557D02*
D03*
X1158499Y301557D02*
D03*
X1038499D02*
D03*
X918499D02*
D03*
X798499D02*
D03*
X1256948Y277730D02*
D03*
X1136948Y277730D02*
D03*
X1016948D02*
D03*
X896948D02*
D03*
X776948D02*
D03*
X1263050Y264927D02*
D03*
X1143050Y264927D02*
D03*
X1023050D02*
D03*
X903050D02*
D03*
X783050D02*
D03*
X352133Y183009D02*
D03*
X148932Y171312D02*
D03*
X338310Y329845D02*
D03*
X327824Y181318D02*
D03*
X164233Y348609D02*
D03*
X131933Y325110D02*
D03*
X113757Y329854D02*
D03*
X271575Y307866D02*
D03*
X269079Y313772D02*
D03*
X249740Y313772D02*
D03*
X246850Y307866D02*
D03*
X243795Y313772D02*
D03*
X240905Y307866D02*
D03*
X237803Y313772D02*
D03*
X234984Y307882D02*
D03*
X231992Y313772D02*
D03*
X266677Y353929D02*
D03*
X264756Y347630D02*
D03*
X260866Y353929D02*
D03*
X258945Y347630D02*
D03*
X254661Y353929D02*
D03*
X253102Y347630D02*
D03*
X248819Y353929D02*
D03*
X247016Y347630D02*
D03*
X242850Y353929D02*
D03*
X235079Y347630D02*
D03*
X230913Y353929D02*
D03*
X229244Y347630D02*
D03*
X225079Y353535D02*
D03*
X223244Y347630D02*
D03*
D196*
X85929Y217893D02*
D03*
Y206869D02*
D03*
D209*
X65376Y238057D02*
D03*
X55376D02*
D03*
X45376D02*
D03*
X35376D02*
D03*
X25376D02*
D03*
X60376Y248058D02*
D03*
X50376D02*
D03*
X40376D02*
D03*
X30376D02*
D03*
D210*
X20376D02*
D03*
D211*
X58999Y171876D02*
D03*
X26754D02*
D03*
X68998D02*
D03*
X16754D02*
D03*
D212*
X73880Y203373D02*
D03*
X11873D02*
D03*
D213*
X20376Y188057D02*
D03*
X65376D02*
D03*
D214*
X90961Y412425D02*
D03*
Y422425D02*
D03*
X100961Y412425D02*
D03*
Y422425D02*
D03*
X15256Y412165D02*
D03*
Y422165D02*
D03*
Y432165D02*
D03*
Y442165D02*
D03*
Y452165D02*
D03*
X25256Y412165D02*
D03*
Y422165D02*
D03*
Y432165D02*
D03*
Y442165D02*
D03*
Y452165D02*
D03*
X26740Y126491D02*
D03*
Y66491D02*
D03*
Y56491D02*
D03*
X16740Y126491D02*
D03*
Y116491D02*
D03*
Y106491D02*
D03*
Y56491D02*
D03*
Y66491D02*
D03*
Y76491D02*
D03*
Y86491D02*
D03*
Y96491D02*
D03*
X26740Y76491D02*
D03*
Y86491D02*
D03*
Y96491D02*
D03*
Y106491D02*
D03*
Y116491D02*
D03*
X451992Y43609D02*
D03*
X441992D02*
D03*
X431992D02*
D03*
X451992Y53609D02*
D03*
X441992D02*
D03*
X431992D02*
D03*
X505250Y45051D02*
D03*
X515250D02*
D03*
X525250D02*
D03*
X535250D02*
D03*
X637424Y45053D02*
D03*
X627424D02*
D03*
X617424D02*
D03*
X607424D02*
D03*
D215*
X819213Y153347D02*
D03*
Y350591D02*
D03*
X699213Y334842D02*
D03*
Y169095D02*
D03*
X459213Y334842D02*
D03*
Y169095D02*
D03*
X579213Y169095D02*
D03*
Y334842D02*
D03*
X1299213Y153346D02*
D03*
Y350590D02*
D03*
X1179213Y350591D02*
D03*
Y153347D02*
D03*
X1059213D02*
D03*
Y350591D02*
D03*
X939213D02*
D03*
Y153347D02*
D03*
D216*
X819213Y162598D02*
D03*
X813307Y341339D02*
D03*
X693307Y325591D02*
D03*
X699213Y178347D02*
D03*
X453307Y325590D02*
D03*
X459213Y178347D02*
D03*
X579213Y9843D02*
D03*
X99213D02*
D03*
X579213Y178347D02*
D03*
X573307Y325591D02*
D03*
X1299213Y162598D02*
D03*
X1293307Y341339D02*
D03*
X1173307Y341339D02*
D03*
X1179213Y162598D02*
D03*
X1059213D02*
D03*
X1053307Y341339D02*
D03*
X933307D02*
D03*
X939213Y162598D02*
D03*
D217*
X1105049Y64838D02*
D03*
X194432Y57074D02*
D03*
D218*
X1130048Y69837D02*
D03*
X219432Y62074D02*
D03*
D219*
X1358268Y19685D02*
D03*
X19685Y484252D02*
D03*
X728346D02*
D03*
X1358268D02*
D03*
X19685Y19685D02*
D03*
X728346D02*
D03*
D220*
X99213Y494095D02*
D03*
X339213Y494094D02*
D03*
X579213D02*
D03*
X819213D02*
D03*
X1059213D02*
D03*
X1299213D02*
D03*
Y9843D02*
D03*
X1059213D02*
D03*
X819213D02*
D03*
X339213D02*
D03*
D221*
X231102Y123622D02*
D03*
D247*
X796877Y222195D02*
D03*
X798846D02*
D03*
X800814D02*
D03*
X802783D02*
D03*
X804751D02*
D03*
X806720D02*
D03*
X808688D02*
D03*
X810657D02*
D03*
X812625D02*
D03*
X814594D02*
D03*
X816562D02*
D03*
X818531D02*
D03*
X820499D02*
D03*
X822468D02*
D03*
X824436D02*
D03*
X826405D02*
D03*
X828373D02*
D03*
X830342D02*
D03*
X832310D02*
D03*
X834279D02*
D03*
X836247D02*
D03*
X838216D02*
D03*
X840184D02*
D03*
X842153D02*
D03*
X844121D02*
D03*
Y281644D02*
D03*
X842153D02*
D03*
X840184D02*
D03*
X838216D02*
D03*
X836247D02*
D03*
X834279D02*
D03*
X832310D02*
D03*
X830342D02*
D03*
X828373D02*
D03*
X826405D02*
D03*
X824436D02*
D03*
X822468D02*
D03*
X820499D02*
D03*
X818531D02*
D03*
X816562D02*
D03*
X814594D02*
D03*
X812625D02*
D03*
X810657D02*
D03*
X808688D02*
D03*
X806720D02*
D03*
X804751D02*
D03*
X802783D02*
D03*
X800814D02*
D03*
X798846D02*
D03*
X796877D02*
D03*
X1276877Y222195D02*
D03*
X1278846D02*
D03*
X1280814D02*
D03*
X1282783D02*
D03*
X1284751D02*
D03*
X1286720D02*
D03*
X1288688D02*
D03*
X1290657D02*
D03*
X1292625D02*
D03*
X1294594D02*
D03*
X1296562D02*
D03*
X1298531D02*
D03*
X1300499D02*
D03*
X1302468D02*
D03*
X1304436D02*
D03*
X1306405D02*
D03*
X1308373D02*
D03*
X1310342D02*
D03*
X1312310D02*
D03*
X1314279D02*
D03*
X1316247D02*
D03*
X1318216D02*
D03*
X1320184D02*
D03*
X1322153D02*
D03*
X1324121D02*
D03*
Y281644D02*
D03*
X1322153D02*
D03*
X1320184D02*
D03*
X1318216D02*
D03*
X1316247D02*
D03*
X1314279D02*
D03*
X1312310D02*
D03*
X1310342D02*
D03*
X1308373D02*
D03*
X1306405D02*
D03*
X1304436D02*
D03*
X1302468D02*
D03*
X1300499D02*
D03*
X1298531D02*
D03*
X1296562D02*
D03*
X1294594D02*
D03*
X1292625D02*
D03*
X1290657D02*
D03*
X1288688D02*
D03*
X1286720D02*
D03*
X1284751D02*
D03*
X1282783D02*
D03*
X1280814D02*
D03*
X1278846D02*
D03*
X1276877D02*
D03*
X1156877Y281644D02*
D03*
X1158846D02*
D03*
X1160814D02*
D03*
X1162783D02*
D03*
X1164751D02*
D03*
X1166720D02*
D03*
X1168688D02*
D03*
X1170657D02*
D03*
X1172625D02*
D03*
X1174594D02*
D03*
X1176562D02*
D03*
X1178531D02*
D03*
X1180499D02*
D03*
X1182468D02*
D03*
X1184436D02*
D03*
X1186405D02*
D03*
X1188373D02*
D03*
X1190342D02*
D03*
X1192310D02*
D03*
X1194279D02*
D03*
X1196247D02*
D03*
X1198216D02*
D03*
X1200184D02*
D03*
X1202153D02*
D03*
X1204121D02*
D03*
Y222195D02*
D03*
X1202153D02*
D03*
X1200184D02*
D03*
X1198216D02*
D03*
X1196247D02*
D03*
X1194279D02*
D03*
X1192310D02*
D03*
X1190342D02*
D03*
X1188373D02*
D03*
X1186405D02*
D03*
X1184436D02*
D03*
X1182468D02*
D03*
X1180499D02*
D03*
X1178531D02*
D03*
X1176562D02*
D03*
X1174594D02*
D03*
X1172625D02*
D03*
X1170657D02*
D03*
X1168688D02*
D03*
X1166720D02*
D03*
X1164751D02*
D03*
X1162783D02*
D03*
X1160814D02*
D03*
X1158846D02*
D03*
X1156877D02*
D03*
X1036877D02*
D03*
X1038846D02*
D03*
X1040814D02*
D03*
X1042783D02*
D03*
X1044751D02*
D03*
X1046720D02*
D03*
X1048688D02*
D03*
X1050657D02*
D03*
X1052625D02*
D03*
X1054594D02*
D03*
X1056562D02*
D03*
X1058531D02*
D03*
X1060499D02*
D03*
X1062468D02*
D03*
X1064436D02*
D03*
X1066405D02*
D03*
X1068373D02*
D03*
X1070342D02*
D03*
X1072310D02*
D03*
X1074279D02*
D03*
X1076247D02*
D03*
X1078216D02*
D03*
X1080184D02*
D03*
X1082153D02*
D03*
X1084121D02*
D03*
Y281644D02*
D03*
X1082153D02*
D03*
X1080184D02*
D03*
X1078216D02*
D03*
X1076247D02*
D03*
X1074279D02*
D03*
X1072310D02*
D03*
X1070342D02*
D03*
X1068373D02*
D03*
X1066405D02*
D03*
X1064436D02*
D03*
X1062468D02*
D03*
X1060499D02*
D03*
X1058531D02*
D03*
X1056562D02*
D03*
X1054594D02*
D03*
X1052625D02*
D03*
X1050657D02*
D03*
X1048688D02*
D03*
X1046720D02*
D03*
X1044751D02*
D03*
X1042783D02*
D03*
X1040814D02*
D03*
X1038846D02*
D03*
X1036877D02*
D03*
X916877D02*
D03*
X918846D02*
D03*
X920814D02*
D03*
X922783D02*
D03*
X924751D02*
D03*
X926720D02*
D03*
X928688D02*
D03*
X930657D02*
D03*
X932625D02*
D03*
X934594D02*
D03*
X936562D02*
D03*
X938531D02*
D03*
X940499D02*
D03*
X942468D02*
D03*
X944436D02*
D03*
X946405D02*
D03*
X948373D02*
D03*
X950342D02*
D03*
X952310D02*
D03*
X954279D02*
D03*
X956247D02*
D03*
X958216D02*
D03*
X960184D02*
D03*
X962153D02*
D03*
X964121D02*
D03*
Y222195D02*
D03*
X962153D02*
D03*
X960184D02*
D03*
X958216D02*
D03*
X956247D02*
D03*
X954279D02*
D03*
X952310D02*
D03*
X950342D02*
D03*
X948373D02*
D03*
X946405D02*
D03*
X944436D02*
D03*
X942468D02*
D03*
X940499D02*
D03*
X938531D02*
D03*
X936562D02*
D03*
X934594D02*
D03*
X932625D02*
D03*
X930657D02*
D03*
X928688D02*
D03*
X926720D02*
D03*
X924751D02*
D03*
X922783D02*
D03*
X920814D02*
D03*
X918846D02*
D03*
X916877D02*
D03*
D248*
X850224Y228297D02*
D03*
Y230266D02*
D03*
Y232234D02*
D03*
Y234203D02*
D03*
Y236171D02*
D03*
Y238140D02*
D03*
Y240108D02*
D03*
Y242077D02*
D03*
Y244045D02*
D03*
Y246014D02*
D03*
Y247982D02*
D03*
Y249951D02*
D03*
Y251920D02*
D03*
Y253888D02*
D03*
Y255856D02*
D03*
Y257825D02*
D03*
Y259793D02*
D03*
Y261762D02*
D03*
Y263731D02*
D03*
Y265699D02*
D03*
Y267668D02*
D03*
Y269636D02*
D03*
Y271604D02*
D03*
Y273573D02*
D03*
Y275541D02*
D03*
X790775D02*
D03*
Y273573D02*
D03*
Y271604D02*
D03*
Y269636D02*
D03*
Y267668D02*
D03*
Y265699D02*
D03*
Y263731D02*
D03*
Y261762D02*
D03*
Y259793D02*
D03*
Y257825D02*
D03*
Y255856D02*
D03*
Y253888D02*
D03*
Y251920D02*
D03*
Y249951D02*
D03*
Y247982D02*
D03*
Y246014D02*
D03*
Y244045D02*
D03*
Y242077D02*
D03*
Y240108D02*
D03*
Y238140D02*
D03*
Y236171D02*
D03*
Y234203D02*
D03*
Y232234D02*
D03*
Y230266D02*
D03*
Y228297D02*
D03*
X1330224Y228297D02*
D03*
Y230266D02*
D03*
Y232234D02*
D03*
Y234203D02*
D03*
Y236171D02*
D03*
Y238140D02*
D03*
Y240108D02*
D03*
Y242077D02*
D03*
Y244045D02*
D03*
Y246014D02*
D03*
Y247982D02*
D03*
Y249951D02*
D03*
Y251919D02*
D03*
Y253888D02*
D03*
Y255856D02*
D03*
Y257825D02*
D03*
Y259793D02*
D03*
Y261762D02*
D03*
Y263731D02*
D03*
Y265699D02*
D03*
Y267668D02*
D03*
Y269636D02*
D03*
Y271604D02*
D03*
Y273573D02*
D03*
Y275541D02*
D03*
X1270775D02*
D03*
Y273573D02*
D03*
Y271604D02*
D03*
Y269636D02*
D03*
Y267668D02*
D03*
Y265699D02*
D03*
Y263731D02*
D03*
Y261762D02*
D03*
Y259793D02*
D03*
Y257825D02*
D03*
Y255856D02*
D03*
Y253888D02*
D03*
Y251919D02*
D03*
Y249951D02*
D03*
Y247982D02*
D03*
Y246014D02*
D03*
Y244045D02*
D03*
Y242077D02*
D03*
Y240108D02*
D03*
Y238140D02*
D03*
Y236171D02*
D03*
Y234203D02*
D03*
Y232234D02*
D03*
Y230266D02*
D03*
Y228297D02*
D03*
X1150775Y228297D02*
D03*
Y230266D02*
D03*
Y232234D02*
D03*
Y234203D02*
D03*
Y236171D02*
D03*
Y238140D02*
D03*
Y240108D02*
D03*
Y242077D02*
D03*
Y244045D02*
D03*
Y246014D02*
D03*
Y247982D02*
D03*
Y249951D02*
D03*
Y251920D02*
D03*
Y253888D02*
D03*
Y255856D02*
D03*
Y257825D02*
D03*
Y259793D02*
D03*
Y261762D02*
D03*
Y263731D02*
D03*
Y265699D02*
D03*
Y267668D02*
D03*
Y269636D02*
D03*
Y271604D02*
D03*
Y273573D02*
D03*
Y275541D02*
D03*
X1210224D02*
D03*
Y273573D02*
D03*
Y271604D02*
D03*
Y269636D02*
D03*
Y267668D02*
D03*
Y265699D02*
D03*
Y263731D02*
D03*
Y261762D02*
D03*
Y259793D02*
D03*
Y257825D02*
D03*
Y255856D02*
D03*
Y253888D02*
D03*
Y251920D02*
D03*
Y249951D02*
D03*
Y247982D02*
D03*
Y246014D02*
D03*
Y244045D02*
D03*
Y242077D02*
D03*
Y240108D02*
D03*
Y238140D02*
D03*
Y236171D02*
D03*
Y234203D02*
D03*
Y232234D02*
D03*
Y230266D02*
D03*
Y228297D02*
D03*
X1090224D02*
D03*
Y230266D02*
D03*
Y232234D02*
D03*
Y234203D02*
D03*
Y236171D02*
D03*
Y238140D02*
D03*
Y240108D02*
D03*
Y242077D02*
D03*
Y244045D02*
D03*
Y246014D02*
D03*
Y247982D02*
D03*
Y249951D02*
D03*
Y251920D02*
D03*
Y253888D02*
D03*
Y255856D02*
D03*
Y257825D02*
D03*
Y259793D02*
D03*
Y261762D02*
D03*
Y263731D02*
D03*
Y265699D02*
D03*
Y267668D02*
D03*
Y269636D02*
D03*
Y271604D02*
D03*
Y273573D02*
D03*
Y275541D02*
D03*
X1030775D02*
D03*
Y273573D02*
D03*
Y271604D02*
D03*
Y269636D02*
D03*
Y267668D02*
D03*
Y265699D02*
D03*
Y263731D02*
D03*
Y261762D02*
D03*
Y259793D02*
D03*
Y257825D02*
D03*
Y255856D02*
D03*
Y253888D02*
D03*
Y251920D02*
D03*
Y249951D02*
D03*
Y247982D02*
D03*
Y246014D02*
D03*
Y244045D02*
D03*
Y242077D02*
D03*
Y240108D02*
D03*
Y238140D02*
D03*
Y236171D02*
D03*
Y234203D02*
D03*
Y232234D02*
D03*
Y230266D02*
D03*
Y228297D02*
D03*
X910775D02*
D03*
Y230266D02*
D03*
Y232234D02*
D03*
Y234203D02*
D03*
Y236171D02*
D03*
Y238140D02*
D03*
Y240108D02*
D03*
Y242077D02*
D03*
Y244045D02*
D03*
Y246014D02*
D03*
Y247982D02*
D03*
Y249951D02*
D03*
Y251920D02*
D03*
Y253888D02*
D03*
Y255856D02*
D03*
Y257825D02*
D03*
Y259793D02*
D03*
Y261762D02*
D03*
Y263731D02*
D03*
Y265699D02*
D03*
Y267668D02*
D03*
Y269636D02*
D03*
Y271604D02*
D03*
Y273573D02*
D03*
Y275541D02*
D03*
X970224D02*
D03*
Y273573D02*
D03*
Y271604D02*
D03*
Y269636D02*
D03*
Y267668D02*
D03*
Y265699D02*
D03*
Y263731D02*
D03*
Y261762D02*
D03*
Y259793D02*
D03*
Y257825D02*
D03*
Y255856D02*
D03*
Y253888D02*
D03*
Y251920D02*
D03*
Y249951D02*
D03*
Y247982D02*
D03*
Y246014D02*
D03*
Y244045D02*
D03*
Y242077D02*
D03*
Y240108D02*
D03*
Y238140D02*
D03*
Y236171D02*
D03*
Y234203D02*
D03*
Y232234D02*
D03*
Y230266D02*
D03*
Y228297D02*
D03*
D249*
X117854Y348035D02*
D03*
Y339452D02*
D03*
D250*
X128254Y350952D02*
D03*
Y339535D02*
D03*
D251*
X294139Y386398D02*
D03*
X289139D02*
D03*
X284139D02*
D03*
X279139D02*
D03*
Y356398D02*
D03*
X284139D02*
D03*
X289139D02*
D03*
X294139D02*
D03*
X347524Y356441D02*
D03*
X342524D02*
D03*
X337524D02*
D03*
X332524D02*
D03*
Y386441D02*
D03*
X337524D02*
D03*
X342524D02*
D03*
X347524D02*
D03*
X320870Y356441D02*
D03*
X315870D02*
D03*
X310870D02*
D03*
X305870D02*
D03*
Y386441D02*
D03*
X310870D02*
D03*
X315870D02*
D03*
X320870D02*
D03*
D252*
X84529Y187176D02*
D03*
Y198987D02*
D03*
X252935Y196027D02*
D03*
Y184216D02*
D03*
X124722Y199964D02*
D03*
Y188153D02*
D03*
M02*
