G04*
G04 #@! TF.GenerationSoftware,Altium Limited,Altium Designer,19.1.9 (167)*
G04*
G04 Layer_Color=8388736*
%FSLAX25Y25*%
%MOIN*%
G70*
G01*
G75*
%ADD117O,0.06312X0.02572*%
G04:AMPARAMS|DCode=118|XSize=43.43mil|YSize=39.5mil|CornerRadius=7.15mil|HoleSize=0mil|Usage=FLASHONLY|Rotation=180.000|XOffset=0mil|YOffset=0mil|HoleType=Round|Shape=RoundedRectangle|*
%AMROUNDEDRECTD118*
21,1,0.04343,0.02520,0,0,180.0*
21,1,0.02913,0.03950,0,0,180.0*
1,1,0.01430,-0.01457,0.01260*
1,1,0.01430,0.01457,0.01260*
1,1,0.01430,0.01457,-0.01260*
1,1,0.01430,-0.01457,-0.01260*
%
%ADD118ROUNDEDRECTD118*%
%ADD119R,0.05118X0.02362*%
%ADD120R,0.05400X0.15900*%
G04:AMPARAMS|DCode=121|XSize=69.81mil|YSize=82.02mil|CornerRadius=5.85mil|HoleSize=0mil|Usage=FLASHONLY|Rotation=0.000|XOffset=0mil|YOffset=0mil|HoleType=Round|Shape=RoundedRectangle|*
%AMROUNDEDRECTD121*
21,1,0.06981,0.07031,0,0,0.0*
21,1,0.05810,0.08202,0,0,0.0*
1,1,0.01171,0.02905,-0.03515*
1,1,0.01171,-0.02905,-0.03515*
1,1,0.01171,-0.02905,0.03515*
1,1,0.01171,0.02905,0.03515*
%
%ADD121ROUNDEDRECTD121*%
G04:AMPARAMS|DCode=122|XSize=19.81mil|YSize=61.15mil|CornerRadius=5.95mil|HoleSize=0mil|Usage=FLASHONLY|Rotation=90.000|XOffset=0mil|YOffset=0mil|HoleType=Round|Shape=RoundedRectangle|*
%AMROUNDEDRECTD122*
21,1,0.01981,0.04925,0,0,90.0*
21,1,0.00791,0.06115,0,0,90.0*
1,1,0.01190,0.02463,0.00396*
1,1,0.01190,0.02463,-0.00396*
1,1,0.01190,-0.02463,-0.00396*
1,1,0.01190,-0.02463,0.00396*
%
%ADD122ROUNDEDRECTD122*%
G04:AMPARAMS|DCode=123|XSize=17.84mil|YSize=31.62mil|CornerRadius=5.97mil|HoleSize=0mil|Usage=FLASHONLY|Rotation=0.000|XOffset=0mil|YOffset=0mil|HoleType=Round|Shape=RoundedRectangle|*
%AMROUNDEDRECTD123*
21,1,0.01784,0.01968,0,0,0.0*
21,1,0.00591,0.03162,0,0,0.0*
1,1,0.01194,0.00295,-0.00984*
1,1,0.01194,-0.00295,-0.00984*
1,1,0.01194,-0.00295,0.00984*
1,1,0.01194,0.00295,0.00984*
%
%ADD123ROUNDEDRECTD123*%
G04:AMPARAMS|DCode=124|XSize=17.84mil|YSize=31.62mil|CornerRadius=5.97mil|HoleSize=0mil|Usage=FLASHONLY|Rotation=270.000|XOffset=0mil|YOffset=0mil|HoleType=Round|Shape=RoundedRectangle|*
%AMROUNDEDRECTD124*
21,1,0.01784,0.01968,0,0,270.0*
21,1,0.00591,0.03162,0,0,270.0*
1,1,0.01194,-0.00984,-0.00295*
1,1,0.01194,-0.00984,0.00295*
1,1,0.01194,0.00984,0.00295*
1,1,0.01194,0.00984,-0.00295*
%
%ADD124ROUNDEDRECTD124*%
G04:AMPARAMS|DCode=125|XSize=74.93mil|YSize=74.93mil|CornerRadius=6.01mil|HoleSize=0mil|Usage=FLASHONLY|Rotation=270.000|XOffset=0mil|YOffset=0mil|HoleType=Round|Shape=RoundedRectangle|*
%AMROUNDEDRECTD125*
21,1,0.07493,0.06291,0,0,270.0*
21,1,0.06291,0.07493,0,0,270.0*
1,1,0.01202,-0.03146,-0.03146*
1,1,0.01202,-0.03146,0.03146*
1,1,0.01202,0.03146,0.03146*
1,1,0.01202,0.03146,-0.03146*
%
%ADD125ROUNDEDRECTD125*%
%ADD126O,0.03162X0.08674*%
%ADD127R,0.10839X0.10839*%
%ADD128O,0.04147X0.01981*%
%ADD129O,0.01981X0.04147*%
%ADD130R,0.21863X0.34422*%
%ADD131O,0.04304X0.12847*%
G04:AMPARAMS|DCode=132|XSize=31.62mil|YSize=47.37mil|CornerRadius=6.01mil|HoleSize=0mil|Usage=FLASHONLY|Rotation=180.000|XOffset=0mil|YOffset=0mil|HoleType=Round|Shape=RoundedRectangle|*
%AMROUNDEDRECTD132*
21,1,0.03162,0.03535,0,0,180.0*
21,1,0.01961,0.04737,0,0,180.0*
1,1,0.01202,-0.00980,0.01768*
1,1,0.01202,0.00980,0.01768*
1,1,0.01202,0.00980,-0.01768*
1,1,0.01202,-0.00980,-0.01768*
%
%ADD132ROUNDEDRECTD132*%
%ADD133R,0.03398X0.05800*%
%ADD134R,0.03359X0.04343*%
%ADD135O,0.03359X0.09068*%
%ADD136R,0.04343X0.02178*%
%ADD137R,0.18005X0.18005*%
%ADD138O,0.01824X0.04107*%
%ADD139O,0.04107X0.01824*%
G04:AMPARAMS|DCode=140|XSize=51.31mil|YSize=47.37mil|CornerRadius=7.94mil|HoleSize=0mil|Usage=FLASHONLY|Rotation=90.000|XOffset=0mil|YOffset=0mil|HoleType=Round|Shape=RoundedRectangle|*
%AMROUNDEDRECTD140*
21,1,0.05131,0.03150,0,0,90.0*
21,1,0.03543,0.04737,0,0,90.0*
1,1,0.01587,0.01575,0.01772*
1,1,0.01587,0.01575,-0.01772*
1,1,0.01587,-0.01575,-0.01772*
1,1,0.01587,-0.01575,0.01772*
%
%ADD140ROUNDEDRECTD140*%
%ADD141R,0.06509X0.05328*%
%ADD142R,0.05131X0.03753*%
%ADD143R,0.05131X0.02965*%
%ADD144R,0.19304X0.05446*%
%ADD145R,0.14186X0.04658*%
%ADD146R,0.04737X0.06312*%
%ADD147R,0.05328X0.06902*%
G04:AMPARAMS|DCode=148|XSize=35.56mil|YSize=45.4mil|CornerRadius=8.55mil|HoleSize=0mil|Usage=FLASHONLY|Rotation=180.000|XOffset=0mil|YOffset=0mil|HoleType=Round|Shape=RoundedRectangle|*
%AMROUNDEDRECTD148*
21,1,0.03556,0.02831,0,0,180.0*
21,1,0.01846,0.04540,0,0,180.0*
1,1,0.01709,-0.00923,0.01415*
1,1,0.01709,0.00923,0.01415*
1,1,0.01709,0.00923,-0.01415*
1,1,0.01709,-0.00923,-0.01415*
%
%ADD148ROUNDEDRECTD148*%
G04:AMPARAMS|DCode=149|XSize=69.02mil|YSize=61.15mil|CornerRadius=9.32mil|HoleSize=0mil|Usage=FLASHONLY|Rotation=270.000|XOffset=0mil|YOffset=0mil|HoleType=Round|Shape=RoundedRectangle|*
%AMROUNDEDRECTD149*
21,1,0.06902,0.04252,0,0,270.0*
21,1,0.05039,0.06115,0,0,270.0*
1,1,0.01863,-0.02126,-0.02520*
1,1,0.01863,-0.02126,0.02520*
1,1,0.01863,0.02126,0.02520*
1,1,0.01863,0.02126,-0.02520*
%
%ADD149ROUNDEDRECTD149*%
G04:AMPARAMS|DCode=150|XSize=78.87mil|YSize=54.06mil|CornerRadius=8.61mil|HoleSize=0mil|Usage=FLASHONLY|Rotation=180.000|XOffset=0mil|YOffset=0mil|HoleType=Round|Shape=RoundedRectangle|*
%AMROUNDEDRECTD150*
21,1,0.07887,0.03685,0,0,180.0*
21,1,0.06165,0.05406,0,0,180.0*
1,1,0.01721,-0.03083,0.01843*
1,1,0.01721,0.03083,0.01843*
1,1,0.01721,0.03083,-0.01843*
1,1,0.01721,-0.03083,-0.01843*
%
%ADD150ROUNDEDRECTD150*%
G04:AMPARAMS|DCode=151|XSize=37.53mil|YSize=51.31mil|CornerRadius=6.95mil|HoleSize=0mil|Usage=FLASHONLY|Rotation=270.000|XOffset=0mil|YOffset=0mil|HoleType=Round|Shape=RoundedRectangle|*
%AMROUNDEDRECTD151*
21,1,0.03753,0.03740,0,0,270.0*
21,1,0.02362,0.05131,0,0,270.0*
1,1,0.01391,-0.01870,-0.01181*
1,1,0.01391,-0.01870,0.01181*
1,1,0.01391,0.01870,0.01181*
1,1,0.01391,0.01870,-0.01181*
%
%ADD151ROUNDEDRECTD151*%
G04:AMPARAMS|DCode=152|XSize=55.24mil|YSize=47.37mil|CornerRadius=7.94mil|HoleSize=0mil|Usage=FLASHONLY|Rotation=270.000|XOffset=0mil|YOffset=0mil|HoleType=Round|Shape=RoundedRectangle|*
%AMROUNDEDRECTD152*
21,1,0.05524,0.03150,0,0,270.0*
21,1,0.03937,0.04737,0,0,270.0*
1,1,0.01587,-0.01575,-0.01968*
1,1,0.01587,-0.01575,0.01968*
1,1,0.01587,0.01575,0.01968*
1,1,0.01587,0.01575,-0.01968*
%
%ADD152ROUNDEDRECTD152*%
G04:AMPARAMS|DCode=153|XSize=82.8mil|YSize=61.15mil|CornerRadius=9.32mil|HoleSize=0mil|Usage=FLASHONLY|Rotation=270.000|XOffset=0mil|YOffset=0mil|HoleType=Round|Shape=RoundedRectangle|*
%AMROUNDEDRECTD153*
21,1,0.08280,0.04252,0,0,270.0*
21,1,0.06417,0.06115,0,0,270.0*
1,1,0.01863,-0.02126,-0.03209*
1,1,0.01863,-0.02126,0.03209*
1,1,0.01863,0.02126,0.03209*
1,1,0.01863,0.02126,-0.03209*
%
%ADD153ROUNDEDRECTD153*%
G04:AMPARAMS|DCode=154|XSize=89.1mil|YSize=88.32mil|CornerRadius=12.03mil|HoleSize=0mil|Usage=FLASHONLY|Rotation=0.000|XOffset=0mil|YOffset=0mil|HoleType=Round|Shape=RoundedRectangle|*
%AMROUNDEDRECTD154*
21,1,0.08910,0.06425,0,0,0.0*
21,1,0.06504,0.08832,0,0,0.0*
1,1,0.02406,0.03252,-0.03213*
1,1,0.02406,-0.03252,-0.03213*
1,1,0.02406,-0.03252,0.03213*
1,1,0.02406,0.03252,0.03213*
%
%ADD154ROUNDEDRECTD154*%
%ADD155R,0.04343X0.03950*%
%ADD156R,0.09855X0.09855*%
%ADD157R,0.04068X0.03280*%
%ADD158R,0.04737X0.02965*%
%ADD159R,0.05524X0.03556*%
%ADD160R,0.03556X0.04343*%
%ADD161R,0.06902X0.06115*%
%ADD162R,0.04343X0.07099*%
%ADD163R,0.17335X0.08280*%
%ADD164R,0.15900X0.05400*%
G04:AMPARAMS|DCode=165|XSize=67.06mil|YSize=67.06mil|CornerRadius=18.76mil|HoleSize=0mil|Usage=FLASHONLY|Rotation=180.000|XOffset=0mil|YOffset=0mil|HoleType=Round|Shape=RoundedRectangle|*
%AMROUNDEDRECTD165*
21,1,0.06706,0.02953,0,0,180.0*
21,1,0.02953,0.06706,0,0,180.0*
1,1,0.03753,-0.01476,0.01476*
1,1,0.03753,0.01476,0.01476*
1,1,0.03753,0.01476,-0.01476*
1,1,0.03753,-0.01476,-0.01476*
%
%ADD165ROUNDEDRECTD165*%
%ADD166C,0.06706*%
%ADD167R,0.03950X0.03950*%
%ADD168O,0.05131X0.03162*%
G04:AMPARAMS|DCode=169|XSize=51.31mil|YSize=78.87mil|CornerRadius=8.33mil|HoleSize=0mil|Usage=FLASHONLY|Rotation=180.000|XOffset=0mil|YOffset=0mil|HoleType=Round|Shape=RoundedRectangle|*
%AMROUNDEDRECTD169*
21,1,0.05131,0.06221,0,0,180.0*
21,1,0.03465,0.07887,0,0,180.0*
1,1,0.01666,-0.01732,0.03110*
1,1,0.01666,0.01732,0.03110*
1,1,0.01666,0.01732,-0.03110*
1,1,0.01666,-0.01732,-0.03110*
%
%ADD169ROUNDEDRECTD169*%
G04:AMPARAMS|DCode=170|XSize=110.36mil|YSize=110.36mil|CornerRadius=6.56mil|HoleSize=0mil|Usage=FLASHONLY|Rotation=180.000|XOffset=0mil|YOffset=0mil|HoleType=Round|Shape=RoundedRectangle|*
%AMROUNDEDRECTD170*
21,1,0.11036,0.09724,0,0,180.0*
21,1,0.09724,0.11036,0,0,180.0*
1,1,0.01312,-0.04862,0.04862*
1,1,0.01312,0.04862,0.04862*
1,1,0.01312,0.04862,-0.04862*
1,1,0.01312,-0.04862,-0.04862*
%
%ADD170ROUNDEDRECTD170*%
G04:AMPARAMS|DCode=171|XSize=17.84mil|YSize=31.62mil|CornerRadius=6.46mil|HoleSize=0mil|Usage=FLASHONLY|Rotation=180.000|XOffset=0mil|YOffset=0mil|HoleType=Round|Shape=RoundedRectangle|*
%AMROUNDEDRECTD171*
21,1,0.01784,0.01870,0,0,180.0*
21,1,0.00492,0.03162,0,0,180.0*
1,1,0.01292,-0.00246,0.00935*
1,1,0.01292,0.00246,0.00935*
1,1,0.01292,0.00246,-0.00935*
1,1,0.01292,-0.00246,-0.00935*
%
%ADD171ROUNDEDRECTD171*%
G04:AMPARAMS|DCode=172|XSize=17.84mil|YSize=31.62mil|CornerRadius=6.46mil|HoleSize=0mil|Usage=FLASHONLY|Rotation=270.000|XOffset=0mil|YOffset=0mil|HoleType=Round|Shape=RoundedRectangle|*
%AMROUNDEDRECTD172*
21,1,0.01784,0.01870,0,0,270.0*
21,1,0.00492,0.03162,0,0,270.0*
1,1,0.01292,-0.00935,-0.00246*
1,1,0.01292,-0.00935,0.00246*
1,1,0.01292,0.00935,0.00246*
1,1,0.01292,0.00935,-0.00246*
%
%ADD172ROUNDEDRECTD172*%
G04:AMPARAMS|DCode=173|XSize=33.59mil|YSize=15.87mil|CornerRadius=4.79mil|HoleSize=0mil|Usage=FLASHONLY|Rotation=90.000|XOffset=0mil|YOffset=0mil|HoleType=Round|Shape=RoundedRectangle|*
%AMROUNDEDRECTD173*
21,1,0.03359,0.00630,0,0,90.0*
21,1,0.02402,0.01587,0,0,90.0*
1,1,0.00957,0.00315,0.01201*
1,1,0.00957,0.00315,-0.01201*
1,1,0.00957,-0.00315,-0.01201*
1,1,0.00957,-0.00315,0.01201*
%
%ADD173ROUNDEDRECTD173*%
G04:AMPARAMS|DCode=174|XSize=33.59mil|YSize=15.87mil|CornerRadius=4.79mil|HoleSize=0mil|Usage=FLASHONLY|Rotation=0.000|XOffset=0mil|YOffset=0mil|HoleType=Round|Shape=RoundedRectangle|*
%AMROUNDEDRECTD174*
21,1,0.03359,0.00630,0,0,0.0*
21,1,0.02402,0.01587,0,0,0.0*
1,1,0.00957,0.01201,-0.00315*
1,1,0.00957,-0.01201,-0.00315*
1,1,0.00957,-0.01201,0.00315*
1,1,0.00957,0.01201,0.00315*
%
%ADD174ROUNDEDRECTD174*%
G04:AMPARAMS|DCode=175|XSize=37.53mil|YSize=15.87mil|CornerRadius=4.79mil|HoleSize=0mil|Usage=FLASHONLY|Rotation=180.000|XOffset=0mil|YOffset=0mil|HoleType=Round|Shape=RoundedRectangle|*
%AMROUNDEDRECTD175*
21,1,0.03753,0.00630,0,0,180.0*
21,1,0.02795,0.01587,0,0,180.0*
1,1,0.00957,-0.01398,0.00315*
1,1,0.00957,0.01398,0.00315*
1,1,0.00957,0.01398,-0.00315*
1,1,0.00957,-0.01398,-0.00315*
%
%ADD175ROUNDEDRECTD175*%
%ADD176O,0.04737X0.01981*%
%ADD177R,0.04737X0.01981*%
G04:AMPARAMS|DCode=178|XSize=40.55mil|YSize=15.75mil|CornerRadius=3.15mil|HoleSize=0mil|Usage=FLASHONLY|Rotation=270.000|XOffset=0mil|YOffset=0mil|HoleType=Round|Shape=RoundedRectangle|*
%AMROUNDEDRECTD178*
21,1,0.04055,0.00945,0,0,270.0*
21,1,0.03425,0.01575,0,0,270.0*
1,1,0.00630,-0.00472,-0.01713*
1,1,0.00630,-0.00472,0.01713*
1,1,0.00630,0.00472,0.01713*
1,1,0.00630,0.00472,-0.01713*
%
%ADD178ROUNDEDRECTD178*%
%ADD179R,0.17493X0.15800*%
%ADD180R,0.03950X0.04343*%
%ADD181R,0.04147X0.04147*%
%ADD182R,0.04540X0.06115*%
%ADD183R,0.06706X0.07099*%
%ADD184R,0.26391X0.27178*%
%ADD185R,0.04737X0.04343*%
%ADD186R,0.04343X0.04737*%
%ADD187R,0.04343X0.03556*%
%ADD188R,0.04147X0.04147*%
%ADD189R,0.27178X0.26391*%
%ADD190R,0.07099X0.06706*%
G04:AMPARAMS|DCode=191|XSize=40.55mil|YSize=15.75mil|CornerRadius=3.15mil|HoleSize=0mil|Usage=FLASHONLY|Rotation=0.000|XOffset=0mil|YOffset=0mil|HoleType=Round|Shape=RoundedRectangle|*
%AMROUNDEDRECTD191*
21,1,0.04055,0.00945,0,0,0.0*
21,1,0.03425,0.01575,0,0,0.0*
1,1,0.00630,0.01713,-0.00472*
1,1,0.00630,-0.01713,-0.00472*
1,1,0.00630,-0.01713,0.00472*
1,1,0.00630,0.01713,0.00472*
%
%ADD191ROUNDEDRECTD191*%
%ADD192C,0.04737*%
%ADD193O,0.08674X0.03162*%
%ADD194R,0.06115X0.04540*%
%ADD195R,0.06115X0.06902*%
%ADD196R,0.11430X0.05918*%
%ADD197R,0.05918X0.11430*%
G04:AMPARAMS|DCode=198|XSize=35.56mil|YSize=45.4mil|CornerRadius=8.55mil|HoleSize=0mil|Usage=FLASHONLY|Rotation=270.000|XOffset=0mil|YOffset=0mil|HoleType=Round|Shape=RoundedRectangle|*
%AMROUNDEDRECTD198*
21,1,0.03556,0.02831,0,0,270.0*
21,1,0.01846,0.04540,0,0,270.0*
1,1,0.01709,-0.01415,-0.00923*
1,1,0.01709,-0.01415,0.00923*
1,1,0.01709,0.01415,0.00923*
1,1,0.01709,0.01415,-0.00923*
%
%ADD198ROUNDEDRECTD198*%
G04:AMPARAMS|DCode=199|XSize=37.53mil|YSize=15.87mil|CornerRadius=4.79mil|HoleSize=0mil|Usage=FLASHONLY|Rotation=90.000|XOffset=0mil|YOffset=0mil|HoleType=Round|Shape=RoundedRectangle|*
%AMROUNDEDRECTD199*
21,1,0.03753,0.00630,0,0,90.0*
21,1,0.02795,0.01587,0,0,90.0*
1,1,0.00957,0.00315,0.01398*
1,1,0.00957,0.00315,-0.01398*
1,1,0.00957,-0.00315,-0.01398*
1,1,0.00957,-0.00315,0.01398*
%
%ADD199ROUNDEDRECTD199*%
%ADD200O,0.03162X0.05131*%
%ADD201R,0.05800X0.03398*%
%ADD202R,0.06312X0.04737*%
%ADD203R,0.03950X0.03950*%
%ADD204R,0.03280X0.04068*%
G04:AMPARAMS|DCode=205|XSize=31.62mil|YSize=47.37mil|CornerRadius=6.01mil|HoleSize=0mil|Usage=FLASHONLY|Rotation=90.000|XOffset=0mil|YOffset=0mil|HoleType=Round|Shape=RoundedRectangle|*
%AMROUNDEDRECTD205*
21,1,0.03162,0.03535,0,0,90.0*
21,1,0.01961,0.04737,0,0,90.0*
1,1,0.01202,0.01768,0.00980*
1,1,0.01202,0.01768,-0.00980*
1,1,0.01202,-0.01768,-0.00980*
1,1,0.01202,-0.01768,0.00980*
%
%ADD205ROUNDEDRECTD205*%
%ADD206R,0.04343X0.03359*%
%ADD207R,0.25997X0.04737*%
%ADD208R,0.25997X0.04737*%
%ADD209C,0.06312*%
%ADD210R,0.06312X0.06312*%
%ADD211C,0.06784*%
%ADD212C,0.10249*%
%ADD213C,0.13398*%
%ADD214C,0.06600*%
%ADD215C,0.05709*%
%ADD216C,0.00800*%
%ADD217C,0.24422*%
%ADD218R,0.06706X0.06706*%
%ADD219C,0.22453*%
%ADD220C,0.12611*%
%ADD221C,0.02375*%
%ADD222C,0.02769*%
%ADD223C,0.03162*%
G36*
X407554Y420338D02*
X407605Y420327D01*
X407655Y420310D01*
X407702Y420287D01*
X407746Y420258D01*
X407785Y420224D01*
X407820Y420184D01*
X407849Y420141D01*
X407872Y420094D01*
X407889Y420044D01*
X407899Y419992D01*
X407902Y419940D01*
Y417676D01*
X407899Y417624D01*
X407889Y417573D01*
X407872Y417523D01*
X407849Y417476D01*
X407820Y417432D01*
X407785Y417393D01*
X407746Y417358D01*
X407702Y417329D01*
X407655Y417306D01*
X407605Y417289D01*
X407554Y417279D01*
X407502Y417275D01*
X406714D01*
X406662Y417279D01*
X406610Y417289D01*
X406561Y417306D01*
X406514Y417329D01*
X406470Y417358D01*
X406431Y417393D01*
X406396Y417432D01*
X406367Y417476D01*
X406344Y417523D01*
X406327Y417573D01*
X406317Y417624D01*
X406313Y417676D01*
Y418752D01*
X405234D01*
X405182Y418755D01*
X405130Y418766D01*
X405081Y418782D01*
X405033Y418806D01*
X404990Y418835D01*
X404950Y418869D01*
X404916Y418909D01*
X404887Y418952D01*
X404864Y418999D01*
X404847Y419049D01*
X404837Y419100D01*
X404833Y419153D01*
Y419940D01*
X404837Y419992D01*
X404847Y420044D01*
X404864Y420094D01*
X404887Y420141D01*
X404916Y420184D01*
X404950Y420224D01*
X404990Y420258D01*
X405033Y420287D01*
X405081Y420310D01*
X405130Y420327D01*
X405182Y420338D01*
X405234Y420341D01*
X407502D01*
X407554Y420338D01*
D02*
G37*
G36*
Y431401D02*
X407605Y431391D01*
X407655Y431374D01*
X407702Y431351D01*
X407746Y431322D01*
X407785Y431287D01*
X407820Y431248D01*
X407849Y431204D01*
X407872Y431157D01*
X407889Y431108D01*
X407899Y431056D01*
X407902Y431004D01*
Y428740D01*
X407899Y428688D01*
X407889Y428636D01*
X407872Y428587D01*
X407849Y428540D01*
X407820Y428496D01*
X407785Y428457D01*
X407746Y428422D01*
X407702Y428393D01*
X407655Y428370D01*
X407605Y428353D01*
X407554Y428343D01*
X407502Y428339D01*
X405234D01*
X405182Y428343D01*
X405130Y428353D01*
X405081Y428370D01*
X405033Y428393D01*
X404990Y428422D01*
X404950Y428457D01*
X404916Y428496D01*
X404887Y428540D01*
X404864Y428587D01*
X404847Y428636D01*
X404837Y428688D01*
X404833Y428740D01*
Y429528D01*
X404837Y429580D01*
X404847Y429631D01*
X404864Y429681D01*
X404887Y429728D01*
X404916Y429772D01*
X404950Y429811D01*
X404990Y429846D01*
X405033Y429875D01*
X405081Y429898D01*
X405130Y429915D01*
X405182Y429925D01*
X405234Y429928D01*
X406313D01*
Y431004D01*
X406317Y431056D01*
X406327Y431108D01*
X406344Y431157D01*
X406367Y431204D01*
X406396Y431248D01*
X406431Y431287D01*
X406470Y431322D01*
X406514Y431351D01*
X406561Y431374D01*
X406610Y431391D01*
X406662Y431401D01*
X406714Y431405D01*
X407502D01*
X407554Y431401D01*
D02*
G37*
G36*
X418619Y420338D02*
X418671Y420327D01*
X418720Y420310D01*
X418767Y420287D01*
X418811Y420258D01*
X418850Y420224D01*
X418885Y420184D01*
X418914Y420141D01*
X418937Y420094D01*
X418954Y420044D01*
X418964Y419992D01*
X418968Y419940D01*
Y419153D01*
X418964Y419100D01*
X418954Y419049D01*
X418937Y418999D01*
X418914Y418952D01*
X418885Y418909D01*
X418850Y418869D01*
X418811Y418835D01*
X418767Y418806D01*
X418720Y418782D01*
X418671Y418766D01*
X418619Y418755D01*
X418567Y418752D01*
X417491D01*
Y417676D01*
X417488Y417624D01*
X417478Y417573D01*
X417461Y417523D01*
X417438Y417476D01*
X417409Y417432D01*
X417374Y417393D01*
X417335Y417358D01*
X417291Y417329D01*
X417244Y417306D01*
X417194Y417289D01*
X417143Y417279D01*
X417091Y417275D01*
X416303D01*
X416251Y417279D01*
X416199Y417289D01*
X416150Y417306D01*
X416103Y417329D01*
X416059Y417358D01*
X416020Y417393D01*
X415985Y417432D01*
X415956Y417476D01*
X415933Y417523D01*
X415916Y417573D01*
X415906Y417624D01*
X415902Y417676D01*
Y419940D01*
X415906Y419992D01*
X415916Y420044D01*
X415933Y420094D01*
X415956Y420141D01*
X415985Y420184D01*
X416020Y420224D01*
X416059Y420258D01*
X416103Y420287D01*
X416150Y420310D01*
X416199Y420327D01*
X416251Y420338D01*
X416303Y420341D01*
X418567D01*
X418619Y420338D01*
D02*
G37*
G36*
X417143Y431401D02*
X417194Y431391D01*
X417244Y431374D01*
X417291Y431351D01*
X417335Y431322D01*
X417374Y431287D01*
X417409Y431248D01*
X417438Y431204D01*
X417461Y431157D01*
X417478Y431108D01*
X417488Y431056D01*
X417491Y431004D01*
Y429928D01*
X418567D01*
X418619Y429925D01*
X418671Y429915D01*
X418720Y429898D01*
X418767Y429875D01*
X418811Y429846D01*
X418850Y429811D01*
X418885Y429772D01*
X418914Y429728D01*
X418937Y429681D01*
X418954Y429631D01*
X418964Y429580D01*
X418968Y429528D01*
Y428740D01*
X418964Y428688D01*
X418954Y428636D01*
X418937Y428587D01*
X418914Y428540D01*
X418885Y428496D01*
X418850Y428457D01*
X418811Y428422D01*
X418767Y428393D01*
X418720Y428370D01*
X418671Y428353D01*
X418619Y428343D01*
X418567Y428339D01*
X416303D01*
X416251Y428343D01*
X416199Y428353D01*
X416150Y428370D01*
X416103Y428393D01*
X416059Y428422D01*
X416020Y428457D01*
X415985Y428496D01*
X415956Y428540D01*
X415933Y428587D01*
X415916Y428636D01*
X415906Y428688D01*
X415902Y428740D01*
Y431004D01*
X415906Y431056D01*
X415916Y431108D01*
X415933Y431157D01*
X415956Y431204D01*
X415985Y431248D01*
X416020Y431287D01*
X416059Y431322D01*
X416103Y431351D01*
X416150Y431374D01*
X416199Y431391D01*
X416251Y431401D01*
X416303Y431405D01*
X417091D01*
X417143Y431401D01*
D02*
G37*
D117*
X248031Y114567D02*
D03*
Y112008D02*
D03*
Y109449D02*
D03*
Y106890D02*
D03*
Y104331D02*
D03*
Y101772D02*
D03*
Y99213D02*
D03*
Y96653D02*
D03*
Y94095D02*
D03*
Y91535D02*
D03*
X271260Y114567D02*
D03*
Y112008D02*
D03*
Y109449D02*
D03*
Y106890D02*
D03*
Y104331D02*
D03*
Y101772D02*
D03*
Y99213D02*
D03*
Y96653D02*
D03*
Y94095D02*
D03*
Y91535D02*
D03*
X724606Y404429D02*
D03*
Y401870D02*
D03*
Y399311D02*
D03*
Y396752D02*
D03*
Y394193D02*
D03*
Y391634D02*
D03*
Y389075D02*
D03*
Y386516D02*
D03*
Y383957D02*
D03*
Y381398D02*
D03*
X747835Y404429D02*
D03*
Y401870D02*
D03*
Y399311D02*
D03*
Y396752D02*
D03*
Y394193D02*
D03*
Y391634D02*
D03*
Y389075D02*
D03*
Y386516D02*
D03*
Y383957D02*
D03*
Y381398D02*
D03*
X626886Y404216D02*
D03*
Y401657D02*
D03*
Y399098D02*
D03*
Y396539D02*
D03*
Y393980D02*
D03*
Y391421D02*
D03*
Y388862D02*
D03*
Y386303D02*
D03*
Y383744D02*
D03*
Y381185D02*
D03*
X650114Y404216D02*
D03*
Y401657D02*
D03*
Y399098D02*
D03*
Y396539D02*
D03*
Y393980D02*
D03*
Y391421D02*
D03*
Y388862D02*
D03*
Y386303D02*
D03*
Y383744D02*
D03*
Y381185D02*
D03*
X165574Y69376D02*
D03*
Y71935D02*
D03*
Y74494D02*
D03*
Y77053D02*
D03*
Y79613D02*
D03*
Y82172D02*
D03*
Y84731D02*
D03*
Y87290D02*
D03*
Y89849D02*
D03*
Y92408D02*
D03*
X142346Y69376D02*
D03*
Y71935D02*
D03*
Y74494D02*
D03*
Y77053D02*
D03*
Y79613D02*
D03*
Y82172D02*
D03*
Y84731D02*
D03*
Y87290D02*
D03*
Y89849D02*
D03*
Y92408D02*
D03*
X165551Y10531D02*
D03*
Y13091D02*
D03*
Y15650D02*
D03*
Y18209D02*
D03*
Y20768D02*
D03*
Y23327D02*
D03*
Y25886D02*
D03*
Y28445D02*
D03*
Y31004D02*
D03*
Y33563D02*
D03*
X142323Y10531D02*
D03*
Y13091D02*
D03*
Y15650D02*
D03*
Y18209D02*
D03*
Y20768D02*
D03*
Y23327D02*
D03*
Y25886D02*
D03*
Y28445D02*
D03*
Y31004D02*
D03*
Y33563D02*
D03*
X248031Y32382D02*
D03*
Y29823D02*
D03*
Y27264D02*
D03*
Y24705D02*
D03*
Y22146D02*
D03*
Y19587D02*
D03*
Y17028D02*
D03*
Y14469D02*
D03*
Y11909D02*
D03*
Y9350D02*
D03*
X271260Y32382D02*
D03*
Y29823D02*
D03*
Y27264D02*
D03*
Y24705D02*
D03*
Y22146D02*
D03*
Y19587D02*
D03*
Y17028D02*
D03*
Y14469D02*
D03*
Y11909D02*
D03*
Y9350D02*
D03*
D118*
X77362Y281105D02*
D03*
X71456D02*
D03*
Y285830D02*
D03*
X77362D02*
D03*
D119*
X825906Y168504D02*
D03*
X812520D02*
D03*
X825906Y171653D02*
D03*
X812520D02*
D03*
X825906Y174803D02*
D03*
X812520D02*
D03*
X825906Y177953D02*
D03*
X812520D02*
D03*
X825906Y181102D02*
D03*
X812520D02*
D03*
X825906Y184252D02*
D03*
X812520D02*
D03*
X825906Y187402D02*
D03*
X812520D02*
D03*
X825906Y190551D02*
D03*
X812520D02*
D03*
X825906Y193701D02*
D03*
X812520D02*
D03*
X825906Y196850D02*
D03*
X812520D02*
D03*
X825906Y200000D02*
D03*
X812520D02*
D03*
X825906Y203150D02*
D03*
X812520D02*
D03*
X825906Y206299D02*
D03*
X812520D02*
D03*
X825906Y209449D02*
D03*
X812520D02*
D03*
X825906Y212598D02*
D03*
X812520D02*
D03*
X825906Y215748D02*
D03*
X812520D02*
D03*
X825906Y218898D02*
D03*
X812520D02*
D03*
X825906Y222047D02*
D03*
X812520D02*
D03*
X825906Y225197D02*
D03*
X812520D02*
D03*
X825906Y228346D02*
D03*
X812520D02*
D03*
X825906Y231496D02*
D03*
X812520D02*
D03*
X825906Y234646D02*
D03*
X812520D02*
D03*
X825906Y237795D02*
D03*
X812520D02*
D03*
X825906Y253543D02*
D03*
X812520D02*
D03*
X825906Y256693D02*
D03*
X812520D02*
D03*
X825906Y259842D02*
D03*
X812520D02*
D03*
X825906Y262992D02*
D03*
X812520D02*
D03*
X825906Y266142D02*
D03*
X812520D02*
D03*
X825906Y269291D02*
D03*
X812520D02*
D03*
X825906Y272441D02*
D03*
X812520D02*
D03*
X825906Y275591D02*
D03*
X812520D02*
D03*
X825906Y278740D02*
D03*
X812520D02*
D03*
X825906Y281890D02*
D03*
X812520D02*
D03*
X825906Y285039D02*
D03*
X812520D02*
D03*
X825906Y288189D02*
D03*
X812520D02*
D03*
X825906Y291339D02*
D03*
X812520D02*
D03*
X825906Y294488D02*
D03*
X812520D02*
D03*
X825906Y297638D02*
D03*
X812520D02*
D03*
X825906Y300787D02*
D03*
X812520D02*
D03*
X825906Y303937D02*
D03*
X812520D02*
D03*
X825906Y307087D02*
D03*
X812520D02*
D03*
X825906Y310236D02*
D03*
X812520D02*
D03*
X825906Y313386D02*
D03*
X812520D02*
D03*
X825906Y316535D02*
D03*
X812520D02*
D03*
X825906Y319685D02*
D03*
X812520D02*
D03*
X825906Y322835D02*
D03*
X812520D02*
D03*
X825906Y325984D02*
D03*
X812520D02*
D03*
X825906Y329134D02*
D03*
X812520D02*
D03*
X825906Y332283D02*
D03*
X812520D02*
D03*
X825906Y335433D02*
D03*
X812520D02*
D03*
X692520Y319685D02*
D03*
X705905D02*
D03*
X692520Y316535D02*
D03*
X705905D02*
D03*
X692520Y313386D02*
D03*
X705905D02*
D03*
X692520Y310236D02*
D03*
X705905D02*
D03*
X692520Y307087D02*
D03*
X705905D02*
D03*
X692520Y303937D02*
D03*
X705905D02*
D03*
X692520Y300787D02*
D03*
X705905D02*
D03*
X692520Y297638D02*
D03*
X705905D02*
D03*
X692520Y294488D02*
D03*
X705905D02*
D03*
X692520Y291339D02*
D03*
X705905D02*
D03*
X692520Y288189D02*
D03*
X705905D02*
D03*
X692520Y285039D02*
D03*
X705905D02*
D03*
X692520Y281890D02*
D03*
X705905D02*
D03*
X692520Y278740D02*
D03*
X705905D02*
D03*
X692520Y275591D02*
D03*
X705905D02*
D03*
X692520Y272441D02*
D03*
X705905D02*
D03*
X692520Y269291D02*
D03*
X705905D02*
D03*
X692520Y266142D02*
D03*
X705905D02*
D03*
X692520Y262992D02*
D03*
X705905D02*
D03*
X692520Y259842D02*
D03*
X705905D02*
D03*
X692520Y256693D02*
D03*
X705905D02*
D03*
X692520Y253543D02*
D03*
X705905D02*
D03*
X692520Y237795D02*
D03*
X705905D02*
D03*
X692520Y234646D02*
D03*
X705905D02*
D03*
X692520Y231496D02*
D03*
X705905D02*
D03*
X692520Y228346D02*
D03*
X705905D02*
D03*
X692520Y225197D02*
D03*
X705905D02*
D03*
X692520Y222047D02*
D03*
X705905D02*
D03*
X692520Y218898D02*
D03*
X705905D02*
D03*
X692520Y215748D02*
D03*
X705905D02*
D03*
X692520Y212598D02*
D03*
X705905D02*
D03*
X692520Y209449D02*
D03*
X705905D02*
D03*
X692520Y206299D02*
D03*
X705905D02*
D03*
X692520Y203150D02*
D03*
X705905D02*
D03*
X692520Y200000D02*
D03*
X705905D02*
D03*
X692520Y196850D02*
D03*
X705905D02*
D03*
X692520Y193701D02*
D03*
X705905D02*
D03*
X692520Y190551D02*
D03*
X705905D02*
D03*
X692520Y187402D02*
D03*
X705905D02*
D03*
X692520Y184252D02*
D03*
X705905D02*
D03*
X452520Y319685D02*
D03*
X465906D02*
D03*
X452520Y316535D02*
D03*
X465906D02*
D03*
X452520Y313386D02*
D03*
X465906D02*
D03*
X452520Y310236D02*
D03*
X465906D02*
D03*
X452520Y307087D02*
D03*
X465906D02*
D03*
X452520Y303937D02*
D03*
X465906D02*
D03*
X452520Y300787D02*
D03*
X465906D02*
D03*
X452520Y297638D02*
D03*
X465906D02*
D03*
X452520Y294488D02*
D03*
X465906D02*
D03*
X452520Y291339D02*
D03*
X465906D02*
D03*
X452520Y288189D02*
D03*
X465906D02*
D03*
X452520Y285039D02*
D03*
X465906D02*
D03*
X452520Y281890D02*
D03*
X465906D02*
D03*
X452520Y278740D02*
D03*
X465906D02*
D03*
X452520Y275590D02*
D03*
X465906D02*
D03*
X452520Y272441D02*
D03*
X465906D02*
D03*
X452520Y269291D02*
D03*
X465906D02*
D03*
X452520Y266142D02*
D03*
X465906D02*
D03*
X452520Y262992D02*
D03*
X465906D02*
D03*
X452520Y259842D02*
D03*
X465906D02*
D03*
X452520Y256693D02*
D03*
X465906D02*
D03*
X452520Y253543D02*
D03*
X465906D02*
D03*
X452520Y237795D02*
D03*
X465906D02*
D03*
X452520Y234646D02*
D03*
X465906D02*
D03*
X452520Y231496D02*
D03*
X465906D02*
D03*
X452520Y228346D02*
D03*
X465906D02*
D03*
X452520Y225197D02*
D03*
X465906D02*
D03*
X452520Y222047D02*
D03*
X465906D02*
D03*
X452520Y218898D02*
D03*
X465906D02*
D03*
X452520Y215748D02*
D03*
X465906D02*
D03*
X452520Y212598D02*
D03*
X465906D02*
D03*
X452520Y209449D02*
D03*
X465906D02*
D03*
X452520Y206299D02*
D03*
X465906D02*
D03*
X452520Y203150D02*
D03*
X465906D02*
D03*
X452520Y200000D02*
D03*
X465906D02*
D03*
X452520Y196850D02*
D03*
X465906D02*
D03*
X452520Y193701D02*
D03*
X465906D02*
D03*
X452520Y190551D02*
D03*
X465906D02*
D03*
X452520Y187402D02*
D03*
X465906D02*
D03*
X452520Y184252D02*
D03*
X465906D02*
D03*
X585906Y184252D02*
D03*
X572520D02*
D03*
X585906Y187402D02*
D03*
X572520D02*
D03*
X585906Y190551D02*
D03*
X572520D02*
D03*
X585906Y193701D02*
D03*
X572520D02*
D03*
X585906Y196850D02*
D03*
X572520D02*
D03*
X585906Y200000D02*
D03*
X572520D02*
D03*
X585906Y203150D02*
D03*
X572520D02*
D03*
X585906Y206299D02*
D03*
X572520D02*
D03*
X585906Y209449D02*
D03*
X572520D02*
D03*
X585906Y212598D02*
D03*
X572520D02*
D03*
X585906Y215748D02*
D03*
X572520D02*
D03*
X585906Y218898D02*
D03*
X572520D02*
D03*
X585906Y222047D02*
D03*
X572520D02*
D03*
X585906Y225197D02*
D03*
X572520D02*
D03*
X585906Y228346D02*
D03*
X572520D02*
D03*
X585906Y231496D02*
D03*
X572520D02*
D03*
X585906Y234646D02*
D03*
X572520D02*
D03*
X585906Y237795D02*
D03*
X572520D02*
D03*
X585906Y253543D02*
D03*
X572520D02*
D03*
X585906Y256693D02*
D03*
X572520D02*
D03*
X585906Y259842D02*
D03*
X572520D02*
D03*
X585906Y262992D02*
D03*
X572520D02*
D03*
X585906Y266142D02*
D03*
X572520D02*
D03*
X585906Y269291D02*
D03*
X572520D02*
D03*
X585906Y272441D02*
D03*
X572520D02*
D03*
X585906Y275591D02*
D03*
X572520D02*
D03*
X585906Y278740D02*
D03*
X572520D02*
D03*
X585906Y281890D02*
D03*
X572520D02*
D03*
X585906Y285039D02*
D03*
X572520D02*
D03*
X585906Y288189D02*
D03*
X572520D02*
D03*
X585906Y291339D02*
D03*
X572520D02*
D03*
X585906Y294488D02*
D03*
X572520D02*
D03*
X585906Y297638D02*
D03*
X572520D02*
D03*
X585906Y300787D02*
D03*
X572520D02*
D03*
X585906Y303937D02*
D03*
X572520D02*
D03*
X585906Y307087D02*
D03*
X572520D02*
D03*
X585906Y310236D02*
D03*
X572520D02*
D03*
X585906Y313386D02*
D03*
X572520D02*
D03*
X585906Y316535D02*
D03*
X572520D02*
D03*
X585906Y319685D02*
D03*
X572520D02*
D03*
X1305906Y168504D02*
D03*
X1292520D02*
D03*
X1305906Y171653D02*
D03*
X1292520D02*
D03*
X1305906Y174803D02*
D03*
X1292520D02*
D03*
X1305906Y177953D02*
D03*
X1292520D02*
D03*
X1305906Y181102D02*
D03*
X1292520D02*
D03*
X1305906Y184252D02*
D03*
X1292520D02*
D03*
X1305906Y187401D02*
D03*
X1292520D02*
D03*
X1305906Y190551D02*
D03*
X1292520D02*
D03*
X1305906Y193701D02*
D03*
X1292520D02*
D03*
X1305906Y196850D02*
D03*
X1292520D02*
D03*
X1305906Y200000D02*
D03*
X1292520D02*
D03*
X1305906Y203150D02*
D03*
X1292520D02*
D03*
X1305906Y206299D02*
D03*
X1292520D02*
D03*
X1305906Y209449D02*
D03*
X1292520D02*
D03*
X1305906Y212598D02*
D03*
X1292520D02*
D03*
X1305906Y215748D02*
D03*
X1292520D02*
D03*
X1305906Y218898D02*
D03*
X1292520D02*
D03*
X1305906Y222047D02*
D03*
X1292520D02*
D03*
X1305906Y225197D02*
D03*
X1292520D02*
D03*
X1305906Y228346D02*
D03*
X1292520D02*
D03*
X1305906Y231496D02*
D03*
X1292520D02*
D03*
X1305906Y234646D02*
D03*
X1292520D02*
D03*
X1305906Y237795D02*
D03*
X1292520D02*
D03*
X1305906Y253543D02*
D03*
X1292520D02*
D03*
X1305906Y256693D02*
D03*
X1292520D02*
D03*
X1305906Y259842D02*
D03*
X1292520D02*
D03*
X1305906Y262992D02*
D03*
X1292520D02*
D03*
X1305906Y266142D02*
D03*
X1292520D02*
D03*
X1305906Y269291D02*
D03*
X1292520D02*
D03*
X1305906Y272441D02*
D03*
X1292520D02*
D03*
X1305906Y275590D02*
D03*
X1292520D02*
D03*
X1305906Y278740D02*
D03*
X1292520D02*
D03*
X1305906Y281890D02*
D03*
X1292520D02*
D03*
X1305906Y285039D02*
D03*
X1292520D02*
D03*
X1305906Y288189D02*
D03*
X1292520D02*
D03*
X1305906Y291339D02*
D03*
X1292520D02*
D03*
X1305906Y294488D02*
D03*
X1292520D02*
D03*
X1305906Y297638D02*
D03*
X1292520D02*
D03*
X1305906Y300787D02*
D03*
X1292520D02*
D03*
X1305906Y303937D02*
D03*
X1292520D02*
D03*
X1305906Y307087D02*
D03*
X1292520D02*
D03*
X1305906Y310236D02*
D03*
X1292520D02*
D03*
X1305906Y313386D02*
D03*
X1292520D02*
D03*
X1305906Y316535D02*
D03*
X1292520D02*
D03*
X1305906Y319685D02*
D03*
X1292520D02*
D03*
X1305906Y322835D02*
D03*
X1292520D02*
D03*
X1305906Y325984D02*
D03*
X1292520D02*
D03*
X1305906Y329134D02*
D03*
X1292520D02*
D03*
X1305906Y332283D02*
D03*
X1292520D02*
D03*
X1305906Y335433D02*
D03*
X1292520D02*
D03*
X1172520Y335433D02*
D03*
X1185905D02*
D03*
X1172520Y332283D02*
D03*
X1185905D02*
D03*
X1172520Y329134D02*
D03*
X1185905D02*
D03*
X1172520Y325984D02*
D03*
X1185905D02*
D03*
X1172520Y322835D02*
D03*
X1185905D02*
D03*
X1172520Y319685D02*
D03*
X1185905D02*
D03*
X1172520Y316535D02*
D03*
X1185905D02*
D03*
X1172520Y313386D02*
D03*
X1185905D02*
D03*
X1172520Y310236D02*
D03*
X1185905D02*
D03*
X1172520Y307087D02*
D03*
X1185905D02*
D03*
X1172520Y303937D02*
D03*
X1185905D02*
D03*
X1172520Y300787D02*
D03*
X1185905D02*
D03*
X1172520Y297638D02*
D03*
X1185905D02*
D03*
X1172520Y294488D02*
D03*
X1185905D02*
D03*
X1172520Y291339D02*
D03*
X1185905D02*
D03*
X1172520Y288189D02*
D03*
X1185905D02*
D03*
X1172520Y285039D02*
D03*
X1185905D02*
D03*
X1172520Y281890D02*
D03*
X1185905D02*
D03*
X1172520Y278740D02*
D03*
X1185905D02*
D03*
X1172520Y275591D02*
D03*
X1185905D02*
D03*
X1172520Y272441D02*
D03*
X1185905D02*
D03*
X1172520Y269291D02*
D03*
X1185905D02*
D03*
X1172520Y266142D02*
D03*
X1185905D02*
D03*
X1172520Y262992D02*
D03*
X1185905D02*
D03*
X1172520Y259842D02*
D03*
X1185905D02*
D03*
X1172520Y256693D02*
D03*
X1185905D02*
D03*
X1172520Y253543D02*
D03*
X1185905D02*
D03*
X1172520Y237795D02*
D03*
X1185905D02*
D03*
X1172520Y234646D02*
D03*
X1185905D02*
D03*
X1172520Y231496D02*
D03*
X1185905D02*
D03*
X1172520Y228346D02*
D03*
X1185905D02*
D03*
X1172520Y225197D02*
D03*
X1185905D02*
D03*
X1172520Y222047D02*
D03*
X1185905D02*
D03*
X1172520Y218898D02*
D03*
X1185905D02*
D03*
X1172520Y215748D02*
D03*
X1185905D02*
D03*
X1172520Y212598D02*
D03*
X1185905D02*
D03*
X1172520Y209449D02*
D03*
X1185905D02*
D03*
X1172520Y206299D02*
D03*
X1185905D02*
D03*
X1172520Y203150D02*
D03*
X1185905D02*
D03*
X1172520Y200000D02*
D03*
X1185905D02*
D03*
X1172520Y196850D02*
D03*
X1185905D02*
D03*
X1172520Y193701D02*
D03*
X1185905D02*
D03*
X1172520Y190551D02*
D03*
X1185905D02*
D03*
X1172520Y187402D02*
D03*
X1185905D02*
D03*
X1172520Y184252D02*
D03*
X1185905D02*
D03*
X1172520Y181102D02*
D03*
X1185905D02*
D03*
X1172520Y177953D02*
D03*
X1185905D02*
D03*
X1172520Y174803D02*
D03*
X1185905D02*
D03*
X1172520Y171653D02*
D03*
X1185905D02*
D03*
X1172520Y168504D02*
D03*
X1185905D02*
D03*
X1065905D02*
D03*
X1052520D02*
D03*
X1065905Y171653D02*
D03*
X1052520D02*
D03*
X1065905Y174803D02*
D03*
X1052520D02*
D03*
X1065905Y177953D02*
D03*
X1052520D02*
D03*
X1065905Y181102D02*
D03*
X1052520D02*
D03*
X1065905Y184252D02*
D03*
X1052520D02*
D03*
X1065905Y187402D02*
D03*
X1052520D02*
D03*
X1065905Y190551D02*
D03*
X1052520D02*
D03*
X1065905Y193701D02*
D03*
X1052520D02*
D03*
X1065905Y196850D02*
D03*
X1052520D02*
D03*
X1065905Y200000D02*
D03*
X1052520D02*
D03*
X1065905Y203150D02*
D03*
X1052520D02*
D03*
X1065905Y206299D02*
D03*
X1052520D02*
D03*
X1065905Y209449D02*
D03*
X1052520D02*
D03*
X1065905Y212598D02*
D03*
X1052520D02*
D03*
X1065905Y215748D02*
D03*
X1052520D02*
D03*
X1065905Y218898D02*
D03*
X1052520D02*
D03*
X1065905Y222047D02*
D03*
X1052520D02*
D03*
X1065905Y225197D02*
D03*
X1052520D02*
D03*
X1065905Y228346D02*
D03*
X1052520D02*
D03*
X1065905Y231496D02*
D03*
X1052520D02*
D03*
X1065905Y234646D02*
D03*
X1052520D02*
D03*
X1065905Y237795D02*
D03*
X1052520D02*
D03*
X1065905Y253543D02*
D03*
X1052520D02*
D03*
X1065905Y256693D02*
D03*
X1052520D02*
D03*
X1065905Y259842D02*
D03*
X1052520D02*
D03*
X1065905Y262992D02*
D03*
X1052520D02*
D03*
X1065905Y266142D02*
D03*
X1052520D02*
D03*
X1065905Y269291D02*
D03*
X1052520D02*
D03*
X1065905Y272441D02*
D03*
X1052520D02*
D03*
X1065905Y275591D02*
D03*
X1052520D02*
D03*
X1065905Y278740D02*
D03*
X1052520D02*
D03*
X1065905Y281890D02*
D03*
X1052520D02*
D03*
X1065905Y285039D02*
D03*
X1052520D02*
D03*
X1065905Y288189D02*
D03*
X1052520D02*
D03*
X1065905Y291339D02*
D03*
X1052520D02*
D03*
X1065905Y294488D02*
D03*
X1052520D02*
D03*
X1065905Y297638D02*
D03*
X1052520D02*
D03*
X1065905Y300787D02*
D03*
X1052520D02*
D03*
X1065905Y303937D02*
D03*
X1052520D02*
D03*
X1065905Y307087D02*
D03*
X1052520D02*
D03*
X1065905Y310236D02*
D03*
X1052520D02*
D03*
X1065905Y313386D02*
D03*
X1052520D02*
D03*
X1065905Y316535D02*
D03*
X1052520D02*
D03*
X1065905Y319685D02*
D03*
X1052520D02*
D03*
X1065905Y322835D02*
D03*
X1052520D02*
D03*
X1065905Y325984D02*
D03*
X1052520D02*
D03*
X1065905Y329134D02*
D03*
X1052520D02*
D03*
X1065905Y332283D02*
D03*
X1052520D02*
D03*
X1065905Y335433D02*
D03*
X1052520D02*
D03*
X932520D02*
D03*
X945905D02*
D03*
X932520Y332283D02*
D03*
X945905D02*
D03*
X932520Y329134D02*
D03*
X945905D02*
D03*
X932520Y325984D02*
D03*
X945905D02*
D03*
X932520Y322835D02*
D03*
X945905D02*
D03*
X932520Y319685D02*
D03*
X945905D02*
D03*
X932520Y316535D02*
D03*
X945905D02*
D03*
X932520Y313386D02*
D03*
X945905D02*
D03*
X932520Y310236D02*
D03*
X945905D02*
D03*
X932520Y307087D02*
D03*
X945905D02*
D03*
X932520Y303937D02*
D03*
X945905D02*
D03*
X932520Y300787D02*
D03*
X945905D02*
D03*
X932520Y297638D02*
D03*
X945905D02*
D03*
X932520Y294488D02*
D03*
X945905D02*
D03*
X932520Y291339D02*
D03*
X945905D02*
D03*
X932520Y288189D02*
D03*
X945905D02*
D03*
X932520Y285039D02*
D03*
X945905D02*
D03*
X932520Y281890D02*
D03*
X945905D02*
D03*
X932520Y278740D02*
D03*
X945905D02*
D03*
X932520Y275591D02*
D03*
X945905D02*
D03*
X932520Y272441D02*
D03*
X945905D02*
D03*
X932520Y269291D02*
D03*
X945905D02*
D03*
X932520Y266142D02*
D03*
X945905D02*
D03*
X932520Y262992D02*
D03*
X945905D02*
D03*
X932520Y259842D02*
D03*
X945905D02*
D03*
X932520Y256693D02*
D03*
X945905D02*
D03*
X932520Y253543D02*
D03*
X945905D02*
D03*
X932520Y237795D02*
D03*
X945905D02*
D03*
X932520Y234646D02*
D03*
X945905D02*
D03*
X932520Y231496D02*
D03*
X945905D02*
D03*
X932520Y228346D02*
D03*
X945905D02*
D03*
X932520Y225197D02*
D03*
X945905D02*
D03*
X932520Y222047D02*
D03*
X945905D02*
D03*
X932520Y218898D02*
D03*
X945905D02*
D03*
X932520Y215748D02*
D03*
X945905D02*
D03*
X932520Y212598D02*
D03*
X945905D02*
D03*
X932520Y209449D02*
D03*
X945905D02*
D03*
X932520Y206299D02*
D03*
X945905D02*
D03*
X932520Y203150D02*
D03*
X945905D02*
D03*
X932520Y200000D02*
D03*
X945905D02*
D03*
X932520Y196850D02*
D03*
X945905D02*
D03*
X932520Y193701D02*
D03*
X945905D02*
D03*
X932520Y190551D02*
D03*
X945905D02*
D03*
X932520Y187402D02*
D03*
X945905D02*
D03*
X932520Y184252D02*
D03*
X945905D02*
D03*
X932520Y181102D02*
D03*
X945905D02*
D03*
X932520Y177953D02*
D03*
X945905D02*
D03*
X932520Y174803D02*
D03*
X945905D02*
D03*
X932520Y171653D02*
D03*
X945905D02*
D03*
X932520Y168504D02*
D03*
X945905D02*
D03*
D120*
X1193139Y446496D02*
D03*
X1203139D02*
D03*
X1213139D02*
D03*
X1223139D02*
D03*
X1233139D02*
D03*
X1243139D02*
D03*
X1253139D02*
D03*
X1263139D02*
D03*
X1273139D02*
D03*
X1283139D02*
D03*
X1193139Y421996D02*
D03*
X1203139D02*
D03*
X1213139D02*
D03*
X1223139D02*
D03*
X1233139D02*
D03*
X1243139D02*
D03*
X1253139D02*
D03*
X1263139D02*
D03*
X1273139D02*
D03*
X1283139D02*
D03*
D121*
X507803Y412340D02*
D03*
D122*
X516563Y408403D02*
D03*
Y410372D02*
D03*
Y412340D02*
D03*
Y414309D02*
D03*
X499043Y408403D02*
D03*
Y410372D02*
D03*
Y412340D02*
D03*
Y414309D02*
D03*
Y416277D02*
D03*
X516563D02*
D03*
D123*
X414856Y429852D02*
D03*
X412887D02*
D03*
X410919D02*
D03*
X408950D02*
D03*
Y418828D02*
D03*
X410919D02*
D03*
X412887D02*
D03*
X414856D02*
D03*
D124*
X406391Y427293D02*
D03*
Y425324D02*
D03*
Y423356D02*
D03*
Y421387D02*
D03*
X417415D02*
D03*
Y423356D02*
D03*
Y425324D02*
D03*
Y427293D02*
D03*
D125*
X411903Y424340D02*
D03*
D126*
X456992Y108125D02*
D03*
X451992D02*
D03*
X446992D02*
D03*
X441992D02*
D03*
X436992D02*
D03*
X431992D02*
D03*
X426992D02*
D03*
X421992D02*
D03*
X456992Y72692D02*
D03*
X451992D02*
D03*
X446992D02*
D03*
X441992D02*
D03*
X436992D02*
D03*
X431992D02*
D03*
X426992D02*
D03*
X421992D02*
D03*
D127*
X83761Y357869D02*
D03*
D128*
X76084Y352947D02*
D03*
Y354916D02*
D03*
Y356884D02*
D03*
Y358853D02*
D03*
Y360821D02*
D03*
Y362790D02*
D03*
X91439D02*
D03*
Y360821D02*
D03*
Y358853D02*
D03*
Y356884D02*
D03*
Y354916D02*
D03*
Y352947D02*
D03*
D129*
X78840Y365546D02*
D03*
X80809D02*
D03*
X82777D02*
D03*
X84746D02*
D03*
X86714D02*
D03*
X88683D02*
D03*
Y350191D02*
D03*
X86714D02*
D03*
X84746D02*
D03*
X82777D02*
D03*
X80809D02*
D03*
X78840D02*
D03*
D130*
X310114Y471866D02*
D03*
X188933Y471819D02*
D03*
X249272Y471772D02*
D03*
D131*
X325114Y443106D02*
D03*
X320114D02*
D03*
X315114D02*
D03*
X310114D02*
D03*
X305114D02*
D03*
X300114D02*
D03*
X295114D02*
D03*
X203933Y443059D02*
D03*
X198933D02*
D03*
X193933D02*
D03*
X188933D02*
D03*
X183933D02*
D03*
X178933D02*
D03*
X173933D02*
D03*
X234272Y443012D02*
D03*
X239272D02*
D03*
X244272D02*
D03*
X249272D02*
D03*
X254272D02*
D03*
X259272D02*
D03*
X264272D02*
D03*
D132*
X500994Y134711D02*
D03*
X504734D02*
D03*
X508474D02*
D03*
Y145538D02*
D03*
X504734D02*
D03*
X500994D02*
D03*
X399252Y114995D02*
D03*
X402992D02*
D03*
X406732D02*
D03*
Y125822D02*
D03*
X402992D02*
D03*
X399252D02*
D03*
X603168Y145539D02*
D03*
X606908D02*
D03*
X610648D02*
D03*
Y134713D02*
D03*
X606908D02*
D03*
X603168D02*
D03*
D133*
X504891Y92740D02*
D03*
X514734D02*
D03*
X504734Y128724D02*
D03*
X514734D02*
D03*
X494734D02*
D03*
Y92740D02*
D03*
X403150Y71924D02*
D03*
X412992D02*
D03*
X402992Y107909D02*
D03*
X412992D02*
D03*
X392992D02*
D03*
Y71924D02*
D03*
X596908Y92742D02*
D03*
Y128726D02*
D03*
X616908D02*
D03*
X606908D02*
D03*
X616908Y92742D02*
D03*
X607065D02*
D03*
D134*
X508474Y77000D02*
D03*
X500994D02*
D03*
Y86449D02*
D03*
X504734D02*
D03*
X508474D02*
D03*
X406732Y55184D02*
D03*
X399252D02*
D03*
Y64633D02*
D03*
X402992D02*
D03*
X406732D02*
D03*
X610648Y86450D02*
D03*
X606908D02*
D03*
X603168D02*
D03*
Y77002D02*
D03*
X610648D02*
D03*
D135*
X525234Y90630D02*
D03*
X530234D02*
D03*
X535234D02*
D03*
X540234D02*
D03*
X545234D02*
D03*
X550234D02*
D03*
X555234D02*
D03*
X560234D02*
D03*
X525234Y128819D02*
D03*
X530234D02*
D03*
X535234D02*
D03*
X540234D02*
D03*
X545234D02*
D03*
X550234D02*
D03*
X555234D02*
D03*
X560234D02*
D03*
X662408Y128821D02*
D03*
X657408D02*
D03*
X652408D02*
D03*
X647408D02*
D03*
X642408D02*
D03*
X637408D02*
D03*
X632408D02*
D03*
X627408D02*
D03*
X662408Y90632D02*
D03*
X657408D02*
D03*
X652408D02*
D03*
X647408D02*
D03*
X642408D02*
D03*
X637408D02*
D03*
X632408D02*
D03*
X627408D02*
D03*
D136*
X859665Y161528D02*
D03*
Y156410D02*
D03*
X852185D02*
D03*
Y158968D02*
D03*
Y161528D02*
D03*
X1339665Y161528D02*
D03*
Y156410D02*
D03*
X1332185D02*
D03*
Y158969D02*
D03*
Y161528D02*
D03*
X1212185Y161528D02*
D03*
Y158968D02*
D03*
Y156410D02*
D03*
X1219665D02*
D03*
Y161528D02*
D03*
X1099665D02*
D03*
Y156410D02*
D03*
X1092185D02*
D03*
Y158968D02*
D03*
Y161528D02*
D03*
X972185D02*
D03*
Y158968D02*
D03*
Y156410D02*
D03*
X979665D02*
D03*
Y161528D02*
D03*
D137*
X43053Y289389D02*
D03*
D138*
X30257Y304901D02*
D03*
X32226D02*
D03*
X34194D02*
D03*
X36163D02*
D03*
X38131D02*
D03*
X40100D02*
D03*
X42068D02*
D03*
X44037D02*
D03*
X46005D02*
D03*
X47974D02*
D03*
X49942D02*
D03*
X51911D02*
D03*
X53879D02*
D03*
X55848D02*
D03*
Y273877D02*
D03*
X53879D02*
D03*
X51911D02*
D03*
X49942D02*
D03*
X47974D02*
D03*
X46005D02*
D03*
X44037D02*
D03*
X42068D02*
D03*
X40100D02*
D03*
X38131D02*
D03*
X36163D02*
D03*
X34194D02*
D03*
X32226D02*
D03*
X30257D02*
D03*
D139*
X58565Y302184D02*
D03*
Y300216D02*
D03*
Y298247D02*
D03*
Y296279D02*
D03*
Y294310D02*
D03*
Y292342D02*
D03*
Y290373D02*
D03*
Y288405D02*
D03*
Y286436D02*
D03*
Y284468D02*
D03*
Y282499D02*
D03*
Y280531D02*
D03*
Y278562D02*
D03*
Y276594D02*
D03*
X27541D02*
D03*
Y278562D02*
D03*
Y280531D02*
D03*
Y282499D02*
D03*
Y284468D02*
D03*
Y286436D02*
D03*
Y288405D02*
D03*
Y290373D02*
D03*
Y292342D02*
D03*
Y294310D02*
D03*
Y296279D02*
D03*
Y298247D02*
D03*
Y300216D02*
D03*
Y302184D02*
D03*
D140*
X883442Y296766D02*
D03*
Y304246D02*
D03*
X877536D02*
D03*
Y296766D02*
D03*
D141*
X61238Y50526D02*
D03*
Y41865D02*
D03*
X61216Y89668D02*
D03*
Y98329D02*
D03*
Y82329D02*
D03*
Y73668D02*
D03*
Y57668D02*
D03*
Y66329D02*
D03*
D142*
X857087Y208850D02*
D03*
Y219087D02*
D03*
X850000Y208850D02*
D03*
Y219087D02*
D03*
X1330000Y305087D02*
D03*
Y294850D02*
D03*
X1337087Y305087D02*
D03*
Y294850D02*
D03*
X1217087Y294850D02*
D03*
Y305087D02*
D03*
X1210000Y294850D02*
D03*
Y305087D02*
D03*
X1090000D02*
D03*
Y294850D02*
D03*
X1097087Y305087D02*
D03*
Y294850D02*
D03*
X977087D02*
D03*
Y305087D02*
D03*
X970000Y294850D02*
D03*
Y305087D02*
D03*
X850000D02*
D03*
Y294850D02*
D03*
X857087Y305087D02*
D03*
Y294850D02*
D03*
X1337087Y269850D02*
D03*
Y280087D02*
D03*
X1330000Y269850D02*
D03*
Y280087D02*
D03*
X1210000Y280087D02*
D03*
Y269850D02*
D03*
X1217087Y280087D02*
D03*
Y269850D02*
D03*
X1097087D02*
D03*
Y280087D02*
D03*
X1090000Y269850D02*
D03*
Y280087D02*
D03*
X970000D02*
D03*
Y269850D02*
D03*
X977087Y280087D02*
D03*
Y269850D02*
D03*
X857087D02*
D03*
Y280087D02*
D03*
X850000Y269850D02*
D03*
Y280087D02*
D03*
X1270945Y294850D02*
D03*
Y305087D02*
D03*
X1263858Y294850D02*
D03*
Y305087D02*
D03*
X1143858Y305087D02*
D03*
Y294850D02*
D03*
X1150945Y305087D02*
D03*
Y294850D02*
D03*
X1030945D02*
D03*
Y305087D02*
D03*
X1023858Y294850D02*
D03*
Y305087D02*
D03*
X903858D02*
D03*
Y294850D02*
D03*
X910945Y305087D02*
D03*
Y294850D02*
D03*
X790945D02*
D03*
Y305087D02*
D03*
X783858Y294850D02*
D03*
Y305087D02*
D03*
X1263858Y280087D02*
D03*
Y269850D02*
D03*
X1270945Y280087D02*
D03*
Y269850D02*
D03*
X1150945Y269850D02*
D03*
Y280087D02*
D03*
X1143858Y269850D02*
D03*
Y280087D02*
D03*
X1023858D02*
D03*
Y269850D02*
D03*
X1030945Y280087D02*
D03*
Y269850D02*
D03*
X910945D02*
D03*
Y280087D02*
D03*
X903858Y269850D02*
D03*
Y280087D02*
D03*
X783858D02*
D03*
Y269850D02*
D03*
X790945Y280087D02*
D03*
Y269850D02*
D03*
X1270945Y239850D02*
D03*
Y250087D02*
D03*
X1263858Y239850D02*
D03*
Y250087D02*
D03*
X1143858Y250087D02*
D03*
Y239850D02*
D03*
X1150945Y250087D02*
D03*
Y239850D02*
D03*
X1030945D02*
D03*
Y250087D02*
D03*
X1023858Y239850D02*
D03*
Y250087D02*
D03*
X903858D02*
D03*
Y239850D02*
D03*
X910945Y250087D02*
D03*
Y239850D02*
D03*
X790945D02*
D03*
Y250087D02*
D03*
X783858Y239850D02*
D03*
Y250087D02*
D03*
X1263858Y219087D02*
D03*
Y208850D02*
D03*
X1270945Y219087D02*
D03*
Y208850D02*
D03*
X1150945Y208850D02*
D03*
Y219087D02*
D03*
X1143858Y208850D02*
D03*
Y219087D02*
D03*
X1023858D02*
D03*
Y208850D02*
D03*
X1030945Y219087D02*
D03*
Y208850D02*
D03*
X910945D02*
D03*
Y219087D02*
D03*
X903858Y208850D02*
D03*
Y219087D02*
D03*
X783858D02*
D03*
Y208850D02*
D03*
X790945Y219087D02*
D03*
Y208850D02*
D03*
X1330000Y250087D02*
D03*
Y239850D02*
D03*
X1337087Y250087D02*
D03*
Y239850D02*
D03*
X1217087Y239850D02*
D03*
Y250087D02*
D03*
X1210000Y239850D02*
D03*
Y250087D02*
D03*
X1090000D02*
D03*
Y239850D02*
D03*
X1097087Y250087D02*
D03*
Y239850D02*
D03*
X977087D02*
D03*
Y250087D02*
D03*
X970000Y239850D02*
D03*
Y250087D02*
D03*
X850000D02*
D03*
Y239850D02*
D03*
X857087Y250087D02*
D03*
Y239850D02*
D03*
X1337087Y208850D02*
D03*
Y219087D02*
D03*
X1330000Y208850D02*
D03*
Y219087D02*
D03*
X1210000Y219087D02*
D03*
Y208850D02*
D03*
X1217087Y219087D02*
D03*
Y208850D02*
D03*
X1097087D02*
D03*
Y219087D02*
D03*
X1090000Y208850D02*
D03*
Y219087D02*
D03*
X970000D02*
D03*
Y208850D02*
D03*
X977087Y219087D02*
D03*
Y208850D02*
D03*
D143*
X857087Y212394D02*
D03*
Y215543D02*
D03*
X850000Y212394D02*
D03*
Y215543D02*
D03*
X1330000Y301543D02*
D03*
Y298394D02*
D03*
X1337087Y301543D02*
D03*
Y298394D02*
D03*
X1217087Y298394D02*
D03*
Y301543D02*
D03*
X1210000Y298394D02*
D03*
Y301543D02*
D03*
X1090000D02*
D03*
Y298394D02*
D03*
X1097087Y301543D02*
D03*
Y298394D02*
D03*
X977087D02*
D03*
Y301543D02*
D03*
X970000Y298394D02*
D03*
Y301543D02*
D03*
X850000D02*
D03*
Y298394D02*
D03*
X857087Y301543D02*
D03*
Y298394D02*
D03*
X1337087Y273394D02*
D03*
Y276543D02*
D03*
X1330000Y273394D02*
D03*
Y276543D02*
D03*
X1210000Y276543D02*
D03*
Y273394D02*
D03*
X1217087Y276543D02*
D03*
Y273394D02*
D03*
X1097087D02*
D03*
Y276543D02*
D03*
X1090000Y273394D02*
D03*
Y276543D02*
D03*
X970000D02*
D03*
Y273394D02*
D03*
X977087Y276543D02*
D03*
Y273394D02*
D03*
X857087D02*
D03*
Y276543D02*
D03*
X850000Y273394D02*
D03*
Y276543D02*
D03*
X1270945Y298394D02*
D03*
Y301543D02*
D03*
X1263858Y298394D02*
D03*
Y301543D02*
D03*
X1143858Y301543D02*
D03*
Y298394D02*
D03*
X1150945Y301543D02*
D03*
Y298394D02*
D03*
X1030945D02*
D03*
Y301543D02*
D03*
X1023858Y298394D02*
D03*
Y301543D02*
D03*
X903858D02*
D03*
Y298394D02*
D03*
X910945Y301543D02*
D03*
Y298394D02*
D03*
X790945D02*
D03*
Y301543D02*
D03*
X783858Y298394D02*
D03*
Y301543D02*
D03*
X1263858Y276543D02*
D03*
Y273394D02*
D03*
X1270945Y276543D02*
D03*
Y273394D02*
D03*
X1150945Y273394D02*
D03*
Y276543D02*
D03*
X1143858Y273394D02*
D03*
Y276543D02*
D03*
X1023858D02*
D03*
Y273394D02*
D03*
X1030945Y276543D02*
D03*
Y273394D02*
D03*
X910945D02*
D03*
Y276543D02*
D03*
X903858Y273394D02*
D03*
Y276543D02*
D03*
X783858D02*
D03*
Y273394D02*
D03*
X790945Y276543D02*
D03*
Y273394D02*
D03*
X1270945Y243394D02*
D03*
Y246543D02*
D03*
X1263858Y243394D02*
D03*
Y246543D02*
D03*
X1143858Y246543D02*
D03*
Y243394D02*
D03*
X1150945Y246543D02*
D03*
Y243394D02*
D03*
X1030945D02*
D03*
Y246543D02*
D03*
X1023858Y243394D02*
D03*
Y246543D02*
D03*
X903858D02*
D03*
Y243394D02*
D03*
X910945Y246543D02*
D03*
Y243394D02*
D03*
X790945D02*
D03*
Y246543D02*
D03*
X783858Y243394D02*
D03*
Y246543D02*
D03*
X1263858Y215543D02*
D03*
Y212394D02*
D03*
X1270945Y215543D02*
D03*
Y212394D02*
D03*
X1150945Y212394D02*
D03*
Y215543D02*
D03*
X1143858Y212394D02*
D03*
Y215543D02*
D03*
X1023858D02*
D03*
Y212394D02*
D03*
X1030945Y215543D02*
D03*
Y212394D02*
D03*
X910945D02*
D03*
Y215543D02*
D03*
X903858Y212394D02*
D03*
Y215543D02*
D03*
X783858D02*
D03*
Y212394D02*
D03*
X790945Y215543D02*
D03*
Y212394D02*
D03*
X1330000Y246543D02*
D03*
Y243394D02*
D03*
X1337087Y246543D02*
D03*
Y243394D02*
D03*
X1217087Y243394D02*
D03*
Y246543D02*
D03*
X1210000Y243394D02*
D03*
Y246543D02*
D03*
X1090000D02*
D03*
Y243394D02*
D03*
X1097087Y246543D02*
D03*
Y243394D02*
D03*
X977087D02*
D03*
Y246543D02*
D03*
X970000Y243394D02*
D03*
Y246543D02*
D03*
X850000D02*
D03*
Y243394D02*
D03*
X857087Y246543D02*
D03*
Y243394D02*
D03*
X1337087Y212394D02*
D03*
Y215543D02*
D03*
X1330000Y212394D02*
D03*
Y215543D02*
D03*
X1210000Y215543D02*
D03*
Y212394D02*
D03*
X1217087Y215543D02*
D03*
Y212394D02*
D03*
X1097087D02*
D03*
Y215543D02*
D03*
X1090000Y212394D02*
D03*
Y215543D02*
D03*
X970000D02*
D03*
Y212394D02*
D03*
X977087Y215543D02*
D03*
Y212394D02*
D03*
D144*
X539603Y420924D02*
D03*
Y433956D02*
D03*
D145*
X429403Y433505D02*
D03*
Y424175D02*
D03*
D146*
X285696Y418679D02*
D03*
Y408442D02*
D03*
X164161Y426429D02*
D03*
Y416193D02*
D03*
X225472Y408531D02*
D03*
Y418767D02*
D03*
D147*
X548098Y66343D02*
D03*
Y75201D02*
D03*
X533728Y66343D02*
D03*
Y75203D02*
D03*
X635902Y75204D02*
D03*
Y66344D02*
D03*
X650273Y75202D02*
D03*
Y66344D02*
D03*
D148*
X872099Y290484D02*
D03*
X877690D02*
D03*
D149*
X25258Y334573D02*
D03*
D150*
X26143Y379140D02*
D03*
D151*
X24765Y344061D02*
D03*
Y348392D02*
D03*
Y352723D02*
D03*
Y357053D02*
D03*
Y361384D02*
D03*
Y365715D02*
D03*
Y370046D02*
D03*
Y374376D02*
D03*
D152*
X49273Y333884D02*
D03*
X63840D02*
D03*
D153*
X67679Y370774D02*
D03*
Y348058D02*
D03*
D154*
X127949Y472512D02*
D03*
X144760D02*
D03*
D155*
X127356Y428977D02*
D03*
X119482Y425237D02*
D03*
Y432717D02*
D03*
X156368Y467662D02*
D03*
X164242Y471402D02*
D03*
Y463921D02*
D03*
D156*
X520290Y430096D02*
D03*
X502573D02*
D03*
D157*
X515734Y77835D02*
D03*
Y86614D02*
D03*
X69216Y99388D02*
D03*
Y90609D02*
D03*
Y74609D02*
D03*
Y83388D02*
D03*
Y67388D02*
D03*
Y58609D02*
D03*
X69238Y42805D02*
D03*
Y51585D02*
D03*
X392992Y65798D02*
D03*
Y57019D02*
D03*
X412992Y56519D02*
D03*
Y65298D02*
D03*
X596408Y86616D02*
D03*
Y77836D02*
D03*
X494234Y77835D02*
D03*
Y86614D02*
D03*
X617908Y86616D02*
D03*
Y77836D02*
D03*
D158*
X555451Y72941D02*
D03*
Y65067D02*
D03*
X563522Y69004D02*
D03*
X665696Y69006D02*
D03*
X657625Y65069D02*
D03*
Y72943D02*
D03*
D159*
X840831Y169075D02*
D03*
X855398D02*
D03*
X1320831Y169075D02*
D03*
X1335398D02*
D03*
X1215398Y169075D02*
D03*
X1200831D02*
D03*
X1080831D02*
D03*
X1095398D02*
D03*
X975398D02*
D03*
X960831D02*
D03*
D160*
X405347Y412240D02*
D03*
X410859D02*
D03*
X281890Y29528D02*
D03*
X276378D02*
D03*
X918588Y57414D02*
D03*
X924100D02*
D03*
X857588D02*
D03*
X863100D02*
D03*
X241732Y29921D02*
D03*
X236221D02*
D03*
X658268Y402362D02*
D03*
X663779D02*
D03*
X619685Y401181D02*
D03*
X614173D02*
D03*
X132972Y12894D02*
D03*
X127461D02*
D03*
X172441Y12205D02*
D03*
X177953D02*
D03*
X160236Y63779D02*
D03*
X154724D02*
D03*
X737358Y409051D02*
D03*
X742870D02*
D03*
X733514Y409031D02*
D03*
X728002D02*
D03*
X124112Y444690D02*
D03*
X129624D02*
D03*
X137808Y136341D02*
D03*
X132296D02*
D03*
X406748Y44909D02*
D03*
X401236D02*
D03*
X401236Y49909D02*
D03*
X406748D02*
D03*
X246702Y121291D02*
D03*
X252213D02*
D03*
X268499Y119595D02*
D03*
X274011D02*
D03*
X93321Y344865D02*
D03*
X87809D02*
D03*
X179350Y433280D02*
D03*
X173839D02*
D03*
X234583Y433240D02*
D03*
X240094D02*
D03*
X300437Y433335D02*
D03*
X294925D02*
D03*
X602414Y67995D02*
D03*
X607926D02*
D03*
X505752Y67993D02*
D03*
X500240D02*
D03*
X607926Y72501D02*
D03*
X602414D02*
D03*
X500240Y72499D02*
D03*
X505752D02*
D03*
X662664Y77826D02*
D03*
X657152D02*
D03*
X554978Y77824D02*
D03*
X560490D02*
D03*
X662664Y82413D02*
D03*
X657152D02*
D03*
X554978Y82412D02*
D03*
X560490D02*
D03*
X662664Y137226D02*
D03*
X657152D02*
D03*
X554978Y137224D02*
D03*
X560490D02*
D03*
X1333791Y150756D02*
D03*
X1339303D02*
D03*
X1219303Y150756D02*
D03*
X1213791D02*
D03*
X1093791D02*
D03*
X1099303D02*
D03*
X979303D02*
D03*
X973791D02*
D03*
X853791D02*
D03*
X859303D02*
D03*
X1326181Y150138D02*
D03*
X1320669D02*
D03*
X1200669Y150138D02*
D03*
X1206181D02*
D03*
X1086181D02*
D03*
X1080669D02*
D03*
X960669D02*
D03*
X966181D02*
D03*
X846181D02*
D03*
X840669D02*
D03*
X71597Y292089D02*
D03*
X77109D02*
D03*
X875203Y353173D02*
D03*
X880715D02*
D03*
D161*
X396003Y420203D02*
D03*
Y428077D02*
D03*
D162*
X326161Y411047D02*
D03*
X313956D02*
D03*
X193169Y410366D02*
D03*
X205374D02*
D03*
X205409Y418734D02*
D03*
X193204D02*
D03*
X253020Y410453D02*
D03*
X265224D02*
D03*
Y418853D02*
D03*
X253020D02*
D03*
X313956Y419547D02*
D03*
X326161D02*
D03*
D163*
X301447Y387014D02*
D03*
X329006D02*
D03*
X180342Y387366D02*
D03*
X207902D02*
D03*
X268364Y387420D02*
D03*
X240805D02*
D03*
D164*
X313822Y106102D02*
D03*
Y96102D02*
D03*
Y86102D02*
D03*
Y76102D02*
D03*
Y66102D02*
D03*
Y56102D02*
D03*
X289322Y106102D02*
D03*
Y96102D02*
D03*
Y86102D02*
D03*
Y76102D02*
D03*
Y66102D02*
D03*
Y56102D02*
D03*
D165*
X647674Y140602D02*
D03*
X545500Y140600D02*
D03*
D166*
X637831Y140602D02*
D03*
X535658Y140600D02*
D03*
X1130048Y59838D02*
D03*
X1140049Y69837D02*
D03*
Y59838D02*
D03*
X1150049Y69837D02*
D03*
Y59838D02*
D03*
X1160048Y69837D02*
D03*
Y59838D02*
D03*
X1170049Y69837D02*
D03*
Y59838D02*
D03*
X1180048Y69837D02*
D03*
Y59838D02*
D03*
X269432Y52074D02*
D03*
Y62074D02*
D03*
X259432Y52074D02*
D03*
Y62074D02*
D03*
X249432Y52074D02*
D03*
Y62074D02*
D03*
X239432Y52074D02*
D03*
Y62074D02*
D03*
X229432Y52074D02*
D03*
Y62074D02*
D03*
X219432Y52074D02*
D03*
D167*
X175197Y363383D02*
D03*
X168898D02*
D03*
X469053Y456540D02*
D03*
X462754D02*
D03*
X366554D02*
D03*
X372853D02*
D03*
X152001Y401822D02*
D03*
X158300D02*
D03*
X158158Y391551D02*
D03*
X151859D02*
D03*
X152001Y381222D02*
D03*
X158300D02*
D03*
X201616Y363816D02*
D03*
X207915D02*
D03*
X242255Y363698D02*
D03*
X235956D02*
D03*
X269718Y363617D02*
D03*
X276017D02*
D03*
D168*
X176769Y356890D02*
D03*
Y349409D02*
D03*
X187005Y353149D02*
D03*
X355965Y126705D02*
D03*
X345728Y122965D02*
D03*
Y130445D02*
D03*
Y105445D02*
D03*
Y97965D02*
D03*
X355965Y101705D02*
D03*
Y75705D02*
D03*
X345728Y71965D02*
D03*
Y79445D02*
D03*
Y54445D02*
D03*
Y46965D02*
D03*
X355965Y50705D02*
D03*
X88135Y237838D02*
D03*
X98372Y241578D02*
D03*
Y234098D02*
D03*
X98465Y254965D02*
D03*
Y262446D02*
D03*
X88228Y258705D02*
D03*
X218331Y352921D02*
D03*
X208095Y349180D02*
D03*
Y356661D02*
D03*
X242543Y356550D02*
D03*
Y349069D02*
D03*
X252780Y352810D02*
D03*
X286517Y352557D02*
D03*
X276281Y348817D02*
D03*
Y356298D02*
D03*
D169*
X516713Y462509D02*
D03*
X528524D02*
D03*
X504902D02*
D03*
X441009Y442640D02*
D03*
X429198D02*
D03*
D170*
X872455Y340939D02*
D03*
D171*
X877377Y333459D02*
D03*
X875408D02*
D03*
X873440D02*
D03*
X871471D02*
D03*
X869503D02*
D03*
X867534D02*
D03*
Y348419D02*
D03*
X869503D02*
D03*
X871471D02*
D03*
X873440D02*
D03*
X875408D02*
D03*
X877377D02*
D03*
D172*
X864975Y336018D02*
D03*
Y337986D02*
D03*
Y339955D02*
D03*
Y341923D02*
D03*
Y343892D02*
D03*
Y345861D02*
D03*
X879936D02*
D03*
Y343892D02*
D03*
Y341923D02*
D03*
Y339955D02*
D03*
Y337986D02*
D03*
Y336018D02*
D03*
D173*
X516337Y213426D02*
D03*
X517912D02*
D03*
X519487D02*
D03*
X521062D02*
D03*
Y204174D02*
D03*
X519487D02*
D03*
X517912D02*
D03*
X516337D02*
D03*
X426854Y120858D02*
D03*
X425279D02*
D03*
X423704D02*
D03*
X422130D02*
D03*
Y126960D02*
D03*
X423704D02*
D03*
X425279D02*
D03*
D174*
X521751Y211162D02*
D03*
Y209587D02*
D03*
Y208012D02*
D03*
Y206437D02*
D03*
X515649D02*
D03*
Y208012D02*
D03*
Y209587D02*
D03*
X429118Y126271D02*
D03*
Y124696D02*
D03*
Y123122D02*
D03*
Y121547D02*
D03*
X419866D02*
D03*
Y123122D02*
D03*
Y124696D02*
D03*
Y126271D02*
D03*
D175*
X515845Y211162D02*
D03*
D176*
X924572Y37060D02*
D03*
Y39619D02*
D03*
Y42178D02*
D03*
Y44737D02*
D03*
Y47296D02*
D03*
Y49855D02*
D03*
Y52414D02*
D03*
X900557Y37060D02*
D03*
Y39619D02*
D03*
Y42178D02*
D03*
Y44737D02*
D03*
Y47296D02*
D03*
Y49855D02*
D03*
X839557D02*
D03*
Y47296D02*
D03*
Y44737D02*
D03*
Y42178D02*
D03*
Y39619D02*
D03*
Y37060D02*
D03*
X863572Y52414D02*
D03*
Y49855D02*
D03*
Y47296D02*
D03*
Y44737D02*
D03*
Y42178D02*
D03*
Y39619D02*
D03*
Y37060D02*
D03*
D177*
X900557Y52414D02*
D03*
X839557D02*
D03*
D178*
X259338Y189453D02*
D03*
Y171067D02*
D03*
X257370Y189453D02*
D03*
Y171067D02*
D03*
X255401Y189453D02*
D03*
Y171067D02*
D03*
X253433Y189453D02*
D03*
Y171067D02*
D03*
X251465Y189453D02*
D03*
Y171067D02*
D03*
X249496Y189453D02*
D03*
Y171067D02*
D03*
X247528Y189453D02*
D03*
Y171067D02*
D03*
X245559Y189453D02*
D03*
Y171067D02*
D03*
X243590Y189453D02*
D03*
Y171067D02*
D03*
X241622Y189453D02*
D03*
Y171067D02*
D03*
X239653Y189453D02*
D03*
Y171067D02*
D03*
X237685Y189453D02*
D03*
Y171067D02*
D03*
X235717Y189453D02*
D03*
Y171067D02*
D03*
X233748Y189453D02*
D03*
Y171067D02*
D03*
X231780Y189453D02*
D03*
Y171067D02*
D03*
X229811Y189453D02*
D03*
Y171067D02*
D03*
X227842Y189453D02*
D03*
Y171067D02*
D03*
X225874Y189453D02*
D03*
Y171067D02*
D03*
X223905Y189453D02*
D03*
Y171067D02*
D03*
X221937Y189453D02*
D03*
Y171067D02*
D03*
X219969Y189453D02*
D03*
Y171067D02*
D03*
X218000Y189453D02*
D03*
Y171067D02*
D03*
X216032Y189453D02*
D03*
Y171067D02*
D03*
X214063Y189453D02*
D03*
Y171067D02*
D03*
X212094Y189453D02*
D03*
Y171067D02*
D03*
X210126Y189453D02*
D03*
Y171067D02*
D03*
X208157Y189453D02*
D03*
Y171067D02*
D03*
X206189Y189453D02*
D03*
Y171067D02*
D03*
X204220Y189453D02*
D03*
Y171067D02*
D03*
X202252Y189453D02*
D03*
Y171067D02*
D03*
X182567D02*
D03*
Y189453D02*
D03*
X184535Y171067D02*
D03*
Y189453D02*
D03*
X186504Y171067D02*
D03*
Y189453D02*
D03*
X188472Y171067D02*
D03*
Y189453D02*
D03*
X190441Y171067D02*
D03*
Y189453D02*
D03*
X192409Y171067D02*
D03*
Y189453D02*
D03*
X194378Y171067D02*
D03*
Y189453D02*
D03*
X196346Y171067D02*
D03*
Y189453D02*
D03*
X198315Y171067D02*
D03*
Y189453D02*
D03*
X200283Y171067D02*
D03*
Y189453D02*
D03*
X162882Y171067D02*
D03*
Y189453D02*
D03*
X164850Y171067D02*
D03*
Y189453D02*
D03*
X166819Y171067D02*
D03*
Y189453D02*
D03*
X168787Y171067D02*
D03*
Y189453D02*
D03*
X170756Y171067D02*
D03*
Y189453D02*
D03*
X172724Y171067D02*
D03*
Y189453D02*
D03*
X174693Y171067D02*
D03*
Y189453D02*
D03*
X176661Y171067D02*
D03*
Y189453D02*
D03*
X178630Y171067D02*
D03*
Y189453D02*
D03*
X180598Y171067D02*
D03*
Y189453D02*
D03*
X153039Y171067D02*
D03*
Y189453D02*
D03*
X155008Y171067D02*
D03*
Y189453D02*
D03*
X156976Y171067D02*
D03*
Y189453D02*
D03*
X158945Y171067D02*
D03*
Y189453D02*
D03*
X160913Y171067D02*
D03*
Y189453D02*
D03*
X279024D02*
D03*
Y171067D02*
D03*
X277055Y189453D02*
D03*
Y171067D02*
D03*
X275087Y189453D02*
D03*
Y171067D02*
D03*
X273118Y189453D02*
D03*
Y171067D02*
D03*
X271150Y189453D02*
D03*
Y171067D02*
D03*
X269181Y189453D02*
D03*
Y171067D02*
D03*
X267213Y189453D02*
D03*
Y171067D02*
D03*
X265244Y189453D02*
D03*
Y171067D02*
D03*
X263276Y189453D02*
D03*
Y171067D02*
D03*
X261307Y189453D02*
D03*
Y171067D02*
D03*
X298709Y189453D02*
D03*
Y171067D02*
D03*
X296740Y189453D02*
D03*
Y171067D02*
D03*
X294772Y189453D02*
D03*
Y171067D02*
D03*
X292803Y189453D02*
D03*
Y171067D02*
D03*
X290835Y189453D02*
D03*
Y171067D02*
D03*
X288866Y189453D02*
D03*
Y171067D02*
D03*
X286898Y189453D02*
D03*
Y171067D02*
D03*
X284929Y189453D02*
D03*
Y171067D02*
D03*
X282961Y189453D02*
D03*
Y171067D02*
D03*
X280992Y189453D02*
D03*
Y171067D02*
D03*
X308551Y189453D02*
D03*
Y171067D02*
D03*
X306583Y189453D02*
D03*
Y171067D02*
D03*
X304614Y189453D02*
D03*
Y171067D02*
D03*
X302646Y189453D02*
D03*
Y171067D02*
D03*
X300677Y189453D02*
D03*
Y171067D02*
D03*
Y322248D02*
D03*
Y340634D02*
D03*
X302646Y322248D02*
D03*
Y340634D02*
D03*
X304614Y322248D02*
D03*
Y340634D02*
D03*
X306583Y322248D02*
D03*
Y340634D02*
D03*
X308551Y322248D02*
D03*
Y340634D02*
D03*
X280992Y322248D02*
D03*
Y340634D02*
D03*
X282961Y322248D02*
D03*
Y340634D02*
D03*
X284929Y322248D02*
D03*
Y340634D02*
D03*
X286898Y322248D02*
D03*
Y340634D02*
D03*
X288866Y322248D02*
D03*
Y340634D02*
D03*
X290835Y322248D02*
D03*
Y340634D02*
D03*
X292803Y322248D02*
D03*
Y340634D02*
D03*
X294772Y322248D02*
D03*
Y340634D02*
D03*
X296740Y322248D02*
D03*
Y340634D02*
D03*
X298709Y322248D02*
D03*
Y340634D02*
D03*
X261307Y322248D02*
D03*
Y340634D02*
D03*
X263276Y322248D02*
D03*
Y340634D02*
D03*
X265244Y322248D02*
D03*
Y340634D02*
D03*
X267213Y322248D02*
D03*
Y340634D02*
D03*
X269181Y322248D02*
D03*
Y340634D02*
D03*
X271150Y322248D02*
D03*
Y340634D02*
D03*
X273118Y322248D02*
D03*
Y340634D02*
D03*
X275087Y322248D02*
D03*
Y340634D02*
D03*
X277055Y322248D02*
D03*
Y340634D02*
D03*
X279024Y322248D02*
D03*
Y340634D02*
D03*
X160913D02*
D03*
Y322248D02*
D03*
X158945Y340634D02*
D03*
Y322248D02*
D03*
X156976Y340634D02*
D03*
Y322248D02*
D03*
X155008Y340634D02*
D03*
Y322248D02*
D03*
X153039Y340634D02*
D03*
Y322248D02*
D03*
X180598Y340634D02*
D03*
Y322248D02*
D03*
X178630Y340634D02*
D03*
Y322248D02*
D03*
X176661Y340634D02*
D03*
Y322248D02*
D03*
X174693Y340634D02*
D03*
Y322248D02*
D03*
X172724Y340634D02*
D03*
Y322248D02*
D03*
X170756Y340634D02*
D03*
Y322248D02*
D03*
X168787Y340634D02*
D03*
Y322248D02*
D03*
X166819Y340634D02*
D03*
Y322248D02*
D03*
X164850Y340634D02*
D03*
Y322248D02*
D03*
X162882Y340634D02*
D03*
Y322248D02*
D03*
X200283Y340634D02*
D03*
Y322248D02*
D03*
X198315Y340634D02*
D03*
Y322248D02*
D03*
X196346Y340634D02*
D03*
Y322248D02*
D03*
X194378Y340634D02*
D03*
Y322248D02*
D03*
X192409Y340634D02*
D03*
Y322248D02*
D03*
X190441Y340634D02*
D03*
Y322248D02*
D03*
X188472Y340634D02*
D03*
Y322248D02*
D03*
X186504Y340634D02*
D03*
Y322248D02*
D03*
X184535Y340634D02*
D03*
Y322248D02*
D03*
X182567Y340634D02*
D03*
Y322248D02*
D03*
X202252D02*
D03*
Y340634D02*
D03*
X204220Y322248D02*
D03*
Y340634D02*
D03*
X206189Y322248D02*
D03*
Y340634D02*
D03*
X208157Y322248D02*
D03*
Y340634D02*
D03*
X210126Y322248D02*
D03*
Y340634D02*
D03*
X212094Y322248D02*
D03*
Y340634D02*
D03*
X214063Y322248D02*
D03*
Y340634D02*
D03*
X216032Y322248D02*
D03*
Y340634D02*
D03*
X218000Y322248D02*
D03*
Y340634D02*
D03*
X219969Y322248D02*
D03*
Y340634D02*
D03*
X221937Y322248D02*
D03*
Y340634D02*
D03*
X223905Y322248D02*
D03*
Y340634D02*
D03*
X225874Y322248D02*
D03*
Y340634D02*
D03*
X227842Y322248D02*
D03*
Y340634D02*
D03*
X229811Y322248D02*
D03*
Y340634D02*
D03*
X231780Y322248D02*
D03*
Y340634D02*
D03*
X233748Y322248D02*
D03*
Y340634D02*
D03*
X235717Y322248D02*
D03*
Y340634D02*
D03*
X237685Y322248D02*
D03*
Y340634D02*
D03*
X239653Y322248D02*
D03*
Y340634D02*
D03*
X241622Y322248D02*
D03*
Y340634D02*
D03*
X243590Y322248D02*
D03*
Y340634D02*
D03*
X245559Y322248D02*
D03*
Y340634D02*
D03*
X247528Y322248D02*
D03*
Y340634D02*
D03*
X249496Y322248D02*
D03*
Y340634D02*
D03*
X251465Y322248D02*
D03*
Y340634D02*
D03*
X253433Y322248D02*
D03*
Y340634D02*
D03*
X255401Y322248D02*
D03*
Y340634D02*
D03*
X257370Y322248D02*
D03*
Y340634D02*
D03*
X259338Y322248D02*
D03*
Y340634D02*
D03*
D179*
X87402Y474016D02*
D03*
X112598D02*
D03*
D180*
X281915Y437832D02*
D03*
X278175Y445706D02*
D03*
X285655D02*
D03*
X224350Y446064D02*
D03*
X216869D02*
D03*
X220609Y438190D02*
D03*
D181*
X149113Y112205D02*
D03*
X143404D02*
D03*
X154821D02*
D03*
X699453Y393700D02*
D03*
X710870D02*
D03*
X705161D02*
D03*
X196750Y73622D02*
D03*
X191042D02*
D03*
X202459D02*
D03*
X196750Y78684D02*
D03*
X191042D02*
D03*
X202459D02*
D03*
X191042Y83746D02*
D03*
X202459D02*
D03*
X196750D02*
D03*
Y88808D02*
D03*
X191042D02*
D03*
X202459D02*
D03*
X196750Y93870D02*
D03*
X191042D02*
D03*
X202459D02*
D03*
X196750Y98931D02*
D03*
X191042D02*
D03*
X202459D02*
D03*
X196750Y103993D02*
D03*
X191042D02*
D03*
X202459D02*
D03*
X196750Y109055D02*
D03*
X202459D02*
D03*
X191042D02*
D03*
X699453Y400200D02*
D03*
X710870D02*
D03*
X705161D02*
D03*
X699453Y387200D02*
D03*
X710870D02*
D03*
X705161D02*
D03*
X705512Y380709D02*
D03*
X711221D02*
D03*
X699803D02*
D03*
X154821Y107480D02*
D03*
X143404D02*
D03*
X149113D02*
D03*
X154821Y57874D02*
D03*
X143404D02*
D03*
X149113D02*
D03*
X155215Y53150D02*
D03*
X143798D02*
D03*
X149506D02*
D03*
X143604Y102756D02*
D03*
X155021D02*
D03*
X149313D02*
D03*
X143604Y98163D02*
D03*
X155021D02*
D03*
X149313D02*
D03*
X143504Y48425D02*
D03*
X154921D02*
D03*
X149213D02*
D03*
X143504Y43307D02*
D03*
X154921D02*
D03*
X149213D02*
D03*
X699453Y367700D02*
D03*
X710870D02*
D03*
X705161D02*
D03*
Y374200D02*
D03*
X710870D02*
D03*
X699453D02*
D03*
X773662Y393646D02*
D03*
X762245D02*
D03*
X767953D02*
D03*
Y400200D02*
D03*
X762245D02*
D03*
X773662D02*
D03*
Y380539D02*
D03*
X762245D02*
D03*
X767953D02*
D03*
Y387093D02*
D03*
X762245D02*
D03*
X773662D02*
D03*
Y373986D02*
D03*
X762245D02*
D03*
X767953D02*
D03*
Y367432D02*
D03*
X762245D02*
D03*
X773662D02*
D03*
X520867Y198900D02*
D03*
X509450D02*
D03*
X515158D02*
D03*
X515158Y194257D02*
D03*
X509450D02*
D03*
X520867D02*
D03*
X277919Y314703D02*
D03*
X272210D02*
D03*
X283627D02*
D03*
X409498Y406839D02*
D03*
X420915D02*
D03*
X415206D02*
D03*
X235243Y111679D02*
D03*
X240951D02*
D03*
X229534D02*
D03*
Y106396D02*
D03*
X240951D02*
D03*
X235243D02*
D03*
X235236Y101181D02*
D03*
X240945D02*
D03*
X229528D02*
D03*
Y95669D02*
D03*
X240945D02*
D03*
X235236D02*
D03*
X235243Y90600D02*
D03*
X240951D02*
D03*
X229534D02*
D03*
Y85369D02*
D03*
X240951D02*
D03*
X235243D02*
D03*
X883272Y315766D02*
D03*
X871854D02*
D03*
X877563D02*
D03*
D182*
X63386Y437008D02*
D03*
X57087D02*
D03*
X516096Y72693D02*
D03*
X522395D02*
D03*
X418642Y50409D02*
D03*
X412343D02*
D03*
X173555Y427650D02*
D03*
X179854D02*
D03*
Y421154D02*
D03*
X173555D02*
D03*
X173561Y414713D02*
D03*
X179861D02*
D03*
X179883Y408262D02*
D03*
X173584D02*
D03*
X234135Y427620D02*
D03*
X240434D02*
D03*
Y421120D02*
D03*
X234135D02*
D03*
Y414620D02*
D03*
X240434D02*
D03*
X240421Y408153D02*
D03*
X234122D02*
D03*
X294677Y427614D02*
D03*
X300976D02*
D03*
Y421114D02*
D03*
X294677D02*
D03*
Y414614D02*
D03*
X300976D02*
D03*
X300964Y408047D02*
D03*
X294665D02*
D03*
X618270Y72695D02*
D03*
X624569D02*
D03*
D183*
X50000Y446850D02*
D03*
X68110D02*
D03*
D184*
X59055Y471063D02*
D03*
D185*
X287500Y119685D02*
D03*
Y125984D02*
D03*
X278839Y126181D02*
D03*
Y119882D02*
D03*
X849606Y230315D02*
D03*
X217323Y409449D02*
D03*
Y403150D02*
D03*
X156693Y440945D02*
D03*
Y434646D02*
D03*
X50000Y431890D02*
D03*
Y438189D02*
D03*
X715446Y413474D02*
D03*
Y407175D02*
D03*
X488500Y228550D02*
D03*
Y234850D02*
D03*
X931344Y50265D02*
D03*
Y56564D02*
D03*
X709446Y413474D02*
D03*
Y407175D02*
D03*
X756346Y406975D02*
D03*
Y413274D02*
D03*
X762346D02*
D03*
Y406975D02*
D03*
X748036Y415989D02*
D03*
Y409690D02*
D03*
X475194Y400393D02*
D03*
Y406693D02*
D03*
X338846Y128854D02*
D03*
Y122555D02*
D03*
Y97555D02*
D03*
Y103854D02*
D03*
Y77854D02*
D03*
Y71555D02*
D03*
Y46555D02*
D03*
Y52854D02*
D03*
X58560Y117565D02*
D03*
Y111266D02*
D03*
X52560Y117565D02*
D03*
Y111266D02*
D03*
X468003Y450090D02*
D03*
Y443790D02*
D03*
X371503Y450190D02*
D03*
Y443890D02*
D03*
X537603Y405991D02*
D03*
Y412290D02*
D03*
X543903Y405991D02*
D03*
Y412290D02*
D03*
X235241Y117513D02*
D03*
Y123812D02*
D03*
X241430D02*
D03*
Y117513D02*
D03*
X163831Y451232D02*
D03*
Y457532D02*
D03*
X163634Y439075D02*
D03*
Y445374D02*
D03*
X193098Y432382D02*
D03*
Y426083D02*
D03*
X165746Y398637D02*
D03*
Y404936D02*
D03*
Y392936D02*
D03*
Y386637D02*
D03*
X165768Y374724D02*
D03*
Y381023D02*
D03*
X186949Y426035D02*
D03*
Y432335D02*
D03*
X221451Y432557D02*
D03*
Y426258D02*
D03*
X227559Y425984D02*
D03*
Y432283D02*
D03*
X254272Y426303D02*
D03*
Y432602D02*
D03*
X248351Y426358D02*
D03*
Y432657D02*
D03*
X281894Y432451D02*
D03*
Y426152D02*
D03*
X287927Y426095D02*
D03*
Y432394D02*
D03*
X314914Y426598D02*
D03*
Y432897D02*
D03*
X308894Y426552D02*
D03*
Y432851D02*
D03*
X612831Y65635D02*
D03*
Y71935D02*
D03*
X510658Y71933D02*
D03*
Y65634D02*
D03*
X64345Y266825D02*
D03*
Y273124D02*
D03*
X20953Y283539D02*
D03*
Y289839D02*
D03*
X64653Y278577D02*
D03*
Y284876D02*
D03*
X261482Y308398D02*
D03*
Y314698D02*
D03*
X201787Y349867D02*
D03*
Y356166D02*
D03*
X236298Y349545D02*
D03*
Y355844D02*
D03*
X269817Y349483D02*
D03*
Y355782D02*
D03*
X257320Y196948D02*
D03*
Y203247D02*
D03*
X170469Y350000D02*
D03*
Y356299D02*
D03*
X288117Y313183D02*
D03*
Y306884D02*
D03*
X867503Y327762D02*
D03*
Y321462D02*
D03*
X875472D02*
D03*
Y327762D02*
D03*
X883935Y327762D02*
D03*
Y321462D02*
D03*
X17714Y271260D02*
D03*
Y264960D02*
D03*
D186*
X283071Y23622D02*
D03*
X276772D02*
D03*
X153937Y5512D02*
D03*
X147638D02*
D03*
X1335433Y230315D02*
D03*
X1329134D02*
D03*
X1217717D02*
D03*
X1211417D02*
D03*
X1095669D02*
D03*
X1089370D02*
D03*
X979528D02*
D03*
X973228D02*
D03*
X855906D02*
D03*
X790551D02*
D03*
X784252D02*
D03*
X622835Y196850D02*
D03*
X629134D02*
D03*
X629134Y209974D02*
D03*
X622835D02*
D03*
X629134Y203412D02*
D03*
X622835D02*
D03*
X622835Y216535D02*
D03*
X629134D02*
D03*
X532283Y196850D02*
D03*
X538583D02*
D03*
X532283Y216535D02*
D03*
X538583D02*
D03*
X538583Y209974D02*
D03*
X532283D02*
D03*
X538583Y203412D02*
D03*
X532283D02*
D03*
X217323Y397244D02*
D03*
X223622D02*
D03*
X162992Y433465D02*
D03*
X169291D02*
D03*
X57087Y430315D02*
D03*
X63386D02*
D03*
X150394Y63779D02*
D03*
X144095D02*
D03*
X638976Y375984D02*
D03*
X632677D02*
D03*
X499213Y196850D02*
D03*
X492913D02*
D03*
X499213Y203412D02*
D03*
X492913D02*
D03*
X499213Y209974D02*
D03*
X492913D02*
D03*
X885194Y53414D02*
D03*
X891494D02*
D03*
Y47414D02*
D03*
X885194D02*
D03*
Y41414D02*
D03*
X891494D02*
D03*
Y35414D02*
D03*
X885194D02*
D03*
X879494D02*
D03*
X873195D02*
D03*
Y41414D02*
D03*
X879494D02*
D03*
Y47414D02*
D03*
X873195D02*
D03*
X879494Y53414D02*
D03*
X873195D02*
D03*
X430408Y406569D02*
D03*
X436707D02*
D03*
X436707Y401550D02*
D03*
X430408D02*
D03*
X480813Y395498D02*
D03*
X474513D02*
D03*
X338996Y135705D02*
D03*
X332697D02*
D03*
Y110705D02*
D03*
X338996D02*
D03*
Y84705D02*
D03*
X332697D02*
D03*
Y59705D02*
D03*
X338996D02*
D03*
X123762Y438462D02*
D03*
X130061D02*
D03*
X123850Y450000D02*
D03*
X130150D02*
D03*
X47066Y97998D02*
D03*
X53365D02*
D03*
Y81998D02*
D03*
X47066D02*
D03*
Y65998D02*
D03*
X53365D02*
D03*
X53387Y50195D02*
D03*
X47088D02*
D03*
X81365Y88998D02*
D03*
X75066D02*
D03*
Y72998D02*
D03*
X81365D02*
D03*
Y56998D02*
D03*
X75066D02*
D03*
X75088Y41195D02*
D03*
X81387D02*
D03*
X53365Y91998D02*
D03*
X47066D02*
D03*
Y75998D02*
D03*
X53365D02*
D03*
Y59998D02*
D03*
X47066D02*
D03*
X47088Y44195D02*
D03*
X53387D02*
D03*
X481853Y456440D02*
D03*
X475554D02*
D03*
X500353Y401340D02*
D03*
X494054D02*
D03*
X531353Y402340D02*
D03*
X525054D02*
D03*
X379154Y456440D02*
D03*
X385453D02*
D03*
X543853Y399740D02*
D03*
X537554D02*
D03*
X400654Y455340D02*
D03*
X406953D02*
D03*
X400654Y449240D02*
D03*
X406953D02*
D03*
X419153D02*
D03*
X412854D02*
D03*
X416053Y400840D02*
D03*
X409754D02*
D03*
X412343Y43909D02*
D03*
X418642D02*
D03*
X412343Y37909D02*
D03*
X418642D02*
D03*
X263607Y120546D02*
D03*
X257308D02*
D03*
X239170Y71562D02*
D03*
X232871D02*
D03*
X624969Y66382D02*
D03*
X618670D02*
D03*
X516496Y66380D02*
D03*
X522795D02*
D03*
X637757Y81620D02*
D03*
X631458D02*
D03*
X529284Y81618D02*
D03*
X535583D02*
D03*
X649757Y81620D02*
D03*
X643458D02*
D03*
X541284Y81618D02*
D03*
X547583D02*
D03*
X1326575Y155638D02*
D03*
X1320276D02*
D03*
X1200276Y155638D02*
D03*
X1206575D02*
D03*
X1086575D02*
D03*
X1080276D02*
D03*
X960276D02*
D03*
X966575D02*
D03*
X846575D02*
D03*
X840276D02*
D03*
X1326575Y161638D02*
D03*
X1320276D02*
D03*
X1200276Y161638D02*
D03*
X1206575D02*
D03*
X1086575D02*
D03*
X1080276D02*
D03*
X960276D02*
D03*
X966575D02*
D03*
X846575D02*
D03*
X840276D02*
D03*
X102203Y227638D02*
D03*
X95904D02*
D03*
X84004D02*
D03*
X90303D02*
D03*
X90196Y248205D02*
D03*
X83897D02*
D03*
X95897D02*
D03*
X102196D02*
D03*
X718724Y183110D02*
D03*
X725024D02*
D03*
X605024D02*
D03*
X598724D02*
D03*
X679176Y181902D02*
D03*
X672876D02*
D03*
X485024Y183111D02*
D03*
X478724D02*
D03*
X559376Y181502D02*
D03*
X553076D02*
D03*
X1335557Y176272D02*
D03*
X1329258D02*
D03*
X439368Y181644D02*
D03*
X433069D02*
D03*
X1215557Y176272D02*
D03*
X1209258D02*
D03*
X1279150Y167000D02*
D03*
X1272850D02*
D03*
X1095557Y176272D02*
D03*
X1089258D02*
D03*
X1159150Y167000D02*
D03*
X1152850D02*
D03*
X975558Y176272D02*
D03*
X969258D02*
D03*
X1039150Y167000D02*
D03*
X1032850D02*
D03*
X855558Y176272D02*
D03*
X849258D02*
D03*
X919150Y167000D02*
D03*
X912850D02*
D03*
X792850D02*
D03*
X799150D02*
D03*
X271836Y308334D02*
D03*
X278135D02*
D03*
X255833Y308587D02*
D03*
X249534D02*
D03*
Y314487D02*
D03*
X255833D02*
D03*
X219984Y363684D02*
D03*
X213685D02*
D03*
X254544Y363702D02*
D03*
X248245D02*
D03*
X288261Y363649D02*
D03*
X281961D02*
D03*
X181496Y363383D02*
D03*
X187795D02*
D03*
D187*
X158268Y451181D02*
D03*
Y445669D02*
D03*
X214173Y421654D02*
D03*
Y416142D02*
D03*
X526300Y218444D02*
D03*
Y223956D02*
D03*
X521600Y218444D02*
D03*
Y223956D02*
D03*
X165354Y60236D02*
D03*
Y65748D02*
D03*
X75216Y99754D02*
D03*
Y94243D02*
D03*
Y78242D02*
D03*
Y83754D02*
D03*
Y67754D02*
D03*
Y62243D02*
D03*
X75238Y46439D02*
D03*
Y51951D02*
D03*
X61560Y123660D02*
D03*
Y129172D02*
D03*
X66560Y129172D02*
D03*
Y123660D02*
D03*
X81960Y109354D02*
D03*
Y103842D02*
D03*
X131560Y78148D02*
D03*
Y72636D02*
D03*
X81560Y34148D02*
D03*
Y28636D02*
D03*
X131560Y34148D02*
D03*
Y28636D02*
D03*
X525703Y413196D02*
D03*
Y407684D02*
D03*
X530503D02*
D03*
Y413196D02*
D03*
X487403Y405996D02*
D03*
Y400484D02*
D03*
X486703Y418896D02*
D03*
Y413384D02*
D03*
X491703Y416984D02*
D03*
Y422496D02*
D03*
X412283Y123165D02*
D03*
Y117653D02*
D03*
X462188Y67833D02*
D03*
Y73345D02*
D03*
X462792Y113165D02*
D03*
Y107653D02*
D03*
X434992Y118153D02*
D03*
Y123665D02*
D03*
X439492Y118153D02*
D03*
Y123665D02*
D03*
X198752Y432303D02*
D03*
Y426791D02*
D03*
X203468Y426791D02*
D03*
Y432303D02*
D03*
X259851Y428051D02*
D03*
Y433563D02*
D03*
X264451D02*
D03*
Y428051D02*
D03*
X320294Y433757D02*
D03*
Y428246D02*
D03*
X324894D02*
D03*
Y433757D02*
D03*
X616908Y142882D02*
D03*
Y137370D02*
D03*
X514734Y137369D02*
D03*
Y142880D02*
D03*
X59053Y268945D02*
D03*
Y263433D02*
D03*
X872357Y295445D02*
D03*
Y300957D02*
D03*
X860643Y334837D02*
D03*
Y329325D02*
D03*
X860445Y343990D02*
D03*
Y349502D02*
D03*
X885853Y332671D02*
D03*
Y338183D02*
D03*
X884670Y352258D02*
D03*
Y346746D02*
D03*
D188*
X23625Y260140D02*
D03*
Y271557D02*
D03*
Y265848D02*
D03*
X513700Y230109D02*
D03*
Y218691D02*
D03*
Y224400D02*
D03*
X508700D02*
D03*
Y218691D02*
D03*
Y230109D02*
D03*
X445892Y123809D02*
D03*
Y129517D02*
D03*
Y118100D02*
D03*
X451292D02*
D03*
Y129517D02*
D03*
Y123809D02*
D03*
X456892D02*
D03*
Y118100D02*
D03*
Y129517D02*
D03*
X462392Y118100D02*
D03*
Y129517D02*
D03*
Y123809D02*
D03*
X75605Y338839D02*
D03*
Y333130D02*
D03*
Y344547D02*
D03*
D189*
X92386Y448866D02*
D03*
D190*
X116598Y457921D02*
D03*
Y439811D02*
D03*
D191*
X119240Y284394D02*
D03*
X137626D02*
D03*
X119240Y282425D02*
D03*
X137626D02*
D03*
X119240Y280457D02*
D03*
X137626D02*
D03*
X119240Y278488D02*
D03*
X137626D02*
D03*
X119240Y276520D02*
D03*
X137626D02*
D03*
X119240Y274551D02*
D03*
X137626D02*
D03*
X119240Y272583D02*
D03*
X137626D02*
D03*
X119240Y270614D02*
D03*
X137626D02*
D03*
X119240Y268646D02*
D03*
X137626D02*
D03*
X119240Y266677D02*
D03*
X137626D02*
D03*
X119240Y264709D02*
D03*
X137626D02*
D03*
X119240Y262740D02*
D03*
X137626D02*
D03*
X119240Y260772D02*
D03*
X137626D02*
D03*
X119240Y258803D02*
D03*
X137626D02*
D03*
X119240Y256835D02*
D03*
X137626D02*
D03*
X119240Y254866D02*
D03*
X137626D02*
D03*
X119240Y252898D02*
D03*
X137626D02*
D03*
X119240Y250929D02*
D03*
X137626D02*
D03*
X119240Y248961D02*
D03*
X137626D02*
D03*
X119240Y246992D02*
D03*
X137626D02*
D03*
X119240Y245024D02*
D03*
X137626D02*
D03*
X119240Y243055D02*
D03*
X137626D02*
D03*
X119240Y241087D02*
D03*
X137626D02*
D03*
X119240Y239118D02*
D03*
X137626D02*
D03*
X119240Y237150D02*
D03*
X137626D02*
D03*
X119240Y235181D02*
D03*
X137626D02*
D03*
X119240Y233213D02*
D03*
X137626D02*
D03*
X119240Y231244D02*
D03*
X137626D02*
D03*
X119240Y229276D02*
D03*
X137626D02*
D03*
X119240Y227307D02*
D03*
X137626D02*
D03*
Y207622D02*
D03*
X119240D02*
D03*
X137626Y209591D02*
D03*
X119240D02*
D03*
X137626Y211559D02*
D03*
X119240D02*
D03*
X137626Y213528D02*
D03*
X119240D02*
D03*
X137626Y215496D02*
D03*
X119240D02*
D03*
X137626Y217465D02*
D03*
X119240D02*
D03*
X137626Y219433D02*
D03*
X119240D02*
D03*
X137626Y221402D02*
D03*
X119240D02*
D03*
X137626Y223370D02*
D03*
X119240D02*
D03*
X137626Y225339D02*
D03*
X119240D02*
D03*
X137626Y187937D02*
D03*
X119240D02*
D03*
X137626Y189906D02*
D03*
X119240D02*
D03*
X137626Y191874D02*
D03*
X119240D02*
D03*
X137626Y193842D02*
D03*
X119240D02*
D03*
X137626Y195811D02*
D03*
X119240D02*
D03*
X137626Y197780D02*
D03*
X119240D02*
D03*
X137626Y199748D02*
D03*
X119240D02*
D03*
X137626Y201716D02*
D03*
X119240D02*
D03*
X137626Y203685D02*
D03*
X119240D02*
D03*
X137626Y205654D02*
D03*
X119240D02*
D03*
X137626Y178094D02*
D03*
X119240D02*
D03*
X137626Y180063D02*
D03*
X119240D02*
D03*
X137626Y182032D02*
D03*
X119240D02*
D03*
X137626Y184000D02*
D03*
X119240D02*
D03*
X137626Y185968D02*
D03*
X119240D02*
D03*
Y304079D02*
D03*
X137626D02*
D03*
X119240Y302110D02*
D03*
X137626D02*
D03*
X119240Y300142D02*
D03*
X137626D02*
D03*
X119240Y298173D02*
D03*
X137626D02*
D03*
X119240Y296205D02*
D03*
X137626D02*
D03*
X119240Y294236D02*
D03*
X137626D02*
D03*
X119240Y292268D02*
D03*
X137626D02*
D03*
X119240Y290299D02*
D03*
X137626D02*
D03*
X119240Y288331D02*
D03*
X137626D02*
D03*
X119240Y286362D02*
D03*
X137626D02*
D03*
X119240Y323764D02*
D03*
X137626D02*
D03*
X119240Y321795D02*
D03*
X137626D02*
D03*
X119240Y319827D02*
D03*
X137626D02*
D03*
X119240Y317858D02*
D03*
X137626D02*
D03*
X119240Y315890D02*
D03*
X137626D02*
D03*
X119240Y313921D02*
D03*
X137626D02*
D03*
X119240Y311953D02*
D03*
X137626D02*
D03*
X119240Y309984D02*
D03*
X137626D02*
D03*
X119240Y308016D02*
D03*
X137626D02*
D03*
X119240Y306047D02*
D03*
X137626D02*
D03*
X119240Y333606D02*
D03*
X137626D02*
D03*
X119240Y331638D02*
D03*
X137626D02*
D03*
X119240Y329669D02*
D03*
X137626D02*
D03*
X119240Y327701D02*
D03*
X137626D02*
D03*
X119240Y325732D02*
D03*
X137626D02*
D03*
X342350D02*
D03*
X323965D02*
D03*
X342350Y327701D02*
D03*
X323965D02*
D03*
X342350Y329669D02*
D03*
X323965D02*
D03*
X342350Y331638D02*
D03*
X323965D02*
D03*
X342350Y333606D02*
D03*
X323965D02*
D03*
X342350Y306047D02*
D03*
X323965D02*
D03*
X342350Y308016D02*
D03*
X323965D02*
D03*
X342350Y309984D02*
D03*
X323965D02*
D03*
X342350Y311953D02*
D03*
X323965D02*
D03*
X342350Y313921D02*
D03*
X323965D02*
D03*
X342350Y315890D02*
D03*
X323965D02*
D03*
X342350Y317858D02*
D03*
X323965D02*
D03*
X342350Y319827D02*
D03*
X323965D02*
D03*
X342350Y321795D02*
D03*
X323965D02*
D03*
X342350Y323764D02*
D03*
X323965D02*
D03*
X342350Y286362D02*
D03*
X323965D02*
D03*
X342350Y288331D02*
D03*
X323965D02*
D03*
X342350Y290299D02*
D03*
X323965D02*
D03*
X342350Y292268D02*
D03*
X323965D02*
D03*
X342350Y294236D02*
D03*
X323965D02*
D03*
X342350Y296205D02*
D03*
X323965D02*
D03*
X342350Y298173D02*
D03*
X323965D02*
D03*
X342350Y300142D02*
D03*
X323965D02*
D03*
X342350Y302110D02*
D03*
X323965D02*
D03*
X342350Y304079D02*
D03*
X323965D02*
D03*
Y185968D02*
D03*
X342350D02*
D03*
X323965Y184000D02*
D03*
X342350D02*
D03*
X323965Y182032D02*
D03*
X342350D02*
D03*
X323965Y180063D02*
D03*
X342350D02*
D03*
X323965Y178094D02*
D03*
X342350D02*
D03*
X323965Y205654D02*
D03*
X342350D02*
D03*
X323965Y203685D02*
D03*
X342350D02*
D03*
X323965Y201716D02*
D03*
X342350D02*
D03*
X323965Y199748D02*
D03*
X342350D02*
D03*
X323965Y197780D02*
D03*
X342350D02*
D03*
X323965Y195811D02*
D03*
X342350D02*
D03*
X323965Y193842D02*
D03*
X342350D02*
D03*
X323965Y191874D02*
D03*
X342350D02*
D03*
X323965Y189906D02*
D03*
X342350D02*
D03*
X323965Y187937D02*
D03*
X342350D02*
D03*
X323965Y225339D02*
D03*
X342350D02*
D03*
X323965Y223370D02*
D03*
X342350D02*
D03*
X323965Y221402D02*
D03*
X342350D02*
D03*
X323965Y219433D02*
D03*
X342350D02*
D03*
X323965Y217465D02*
D03*
X342350D02*
D03*
X323965Y215496D02*
D03*
X342350D02*
D03*
X323965Y213528D02*
D03*
X342350D02*
D03*
X323965Y211559D02*
D03*
X342350D02*
D03*
X323965Y209591D02*
D03*
X342350D02*
D03*
X323965Y207622D02*
D03*
X342350D02*
D03*
Y227307D02*
D03*
X323965D02*
D03*
X342350Y229276D02*
D03*
X323965D02*
D03*
X342350Y231244D02*
D03*
X323965D02*
D03*
X342350Y233213D02*
D03*
X323965D02*
D03*
X342350Y235181D02*
D03*
X323965D02*
D03*
X342350Y237150D02*
D03*
X323965D02*
D03*
X342350Y239118D02*
D03*
X323965D02*
D03*
X342350Y241087D02*
D03*
X323965D02*
D03*
X342350Y243055D02*
D03*
X323965D02*
D03*
X342350Y245024D02*
D03*
X323965D02*
D03*
X342350Y246992D02*
D03*
X323965D02*
D03*
X342350Y248961D02*
D03*
X323965D02*
D03*
X342350Y250929D02*
D03*
X323965D02*
D03*
X342350Y252898D02*
D03*
X323965D02*
D03*
X342350Y254866D02*
D03*
X323965D02*
D03*
X342350Y256835D02*
D03*
X323965D02*
D03*
X342350Y258803D02*
D03*
X323965D02*
D03*
X342350Y260772D02*
D03*
X323965D02*
D03*
X342350Y262740D02*
D03*
X323965D02*
D03*
X342350Y264709D02*
D03*
X323965D02*
D03*
X342350Y266677D02*
D03*
X323965D02*
D03*
X342350Y268646D02*
D03*
X323965D02*
D03*
X342350Y270614D02*
D03*
X323965D02*
D03*
X342350Y272583D02*
D03*
X323965D02*
D03*
X342350Y274551D02*
D03*
X323965D02*
D03*
X342350Y276520D02*
D03*
X323965D02*
D03*
X342350Y278488D02*
D03*
X323965D02*
D03*
X342350Y280457D02*
D03*
X323965D02*
D03*
X342350Y282425D02*
D03*
X323965D02*
D03*
X342350Y284394D02*
D03*
X323965D02*
D03*
D192*
X441575Y207968D02*
D03*
X561575Y207968D02*
D03*
X681575D02*
D03*
X433575Y202969D02*
D03*
X553575Y202969D02*
D03*
X673575D02*
D03*
X441575Y198969D02*
D03*
X561575Y198969D02*
D03*
X681575D02*
D03*
X433575Y193968D02*
D03*
X553575Y193968D02*
D03*
X673575D02*
D03*
X441575Y188969D02*
D03*
X561575Y188969D02*
D03*
X681575D02*
D03*
X931344Y43414D02*
D03*
X53560Y124416D02*
D03*
X480503Y403740D02*
D03*
X521003Y440840D02*
D03*
X423403Y400140D02*
D03*
X425638Y410968D02*
D03*
X441303Y434040D02*
D03*
X405992Y38909D02*
D03*
X48998Y329443D02*
D03*
X213752Y430020D02*
D03*
X273895Y428740D02*
D03*
X334537Y429528D02*
D03*
X652326Y59269D02*
D03*
X550152Y59268D02*
D03*
X1271213Y174969D02*
D03*
X1151213Y174969D02*
D03*
X1031213D02*
D03*
X911213D02*
D03*
X791213D02*
D03*
X1323110Y183071D02*
D03*
X1203110Y183071D02*
D03*
X1083110D02*
D03*
X963110D02*
D03*
X843110D02*
D03*
X1276213Y179969D02*
D03*
X1156213Y179969D02*
D03*
X1036213D02*
D03*
X916213D02*
D03*
X796213D02*
D03*
X1321213Y199969D02*
D03*
X1201213Y199969D02*
D03*
X1081213D02*
D03*
X961213D02*
D03*
X841213D02*
D03*
X1276213Y199969D02*
D03*
X1156213Y199969D02*
D03*
X1036213D02*
D03*
X916213D02*
D03*
X796213D02*
D03*
X716669Y192968D02*
D03*
X596669D02*
D03*
X476669Y192968D02*
D03*
X723669Y196968D02*
D03*
X603669D02*
D03*
X483669Y196968D02*
D03*
X716669Y202969D02*
D03*
X596669D02*
D03*
X476669Y202969D02*
D03*
X723669Y205968D02*
D03*
X603669D02*
D03*
X483669Y205968D02*
D03*
X717669Y212968D02*
D03*
X597669D02*
D03*
X477669Y212968D02*
D03*
X674575Y212968D02*
D03*
X554575D02*
D03*
X434575Y212968D02*
D03*
X724669Y215968D02*
D03*
X604669D02*
D03*
X484669Y215968D02*
D03*
X9453Y286989D02*
D03*
X19828Y277076D02*
D03*
X718610Y177855D02*
D03*
X598524Y177559D02*
D03*
X478611Y177720D02*
D03*
X1323005Y176659D02*
D03*
X1203005D02*
D03*
X1083005D02*
D03*
X963005D02*
D03*
X843005Y176659D02*
D03*
X432831Y174765D02*
D03*
X801375Y185039D02*
D03*
X921375D02*
D03*
X1041375D02*
D03*
X1161375D02*
D03*
X1281375Y185039D02*
D03*
X837005Y184842D02*
D03*
X957005D02*
D03*
X1077005D02*
D03*
X1197005D02*
D03*
X1317005Y184842D02*
D03*
X855039Y354029D02*
D03*
X78740Y187008D02*
D03*
X77953Y218110D02*
D03*
D193*
X124276Y72892D02*
D03*
Y77892D02*
D03*
Y82892D02*
D03*
Y87892D02*
D03*
Y92892D02*
D03*
Y97892D02*
D03*
Y102892D02*
D03*
Y107892D02*
D03*
X88843Y72892D02*
D03*
Y77892D02*
D03*
Y82892D02*
D03*
Y87892D02*
D03*
Y92892D02*
D03*
Y97892D02*
D03*
Y102892D02*
D03*
Y107892D02*
D03*
Y63892D02*
D03*
Y58892D02*
D03*
Y53892D02*
D03*
Y48892D02*
D03*
Y43892D02*
D03*
Y38892D02*
D03*
Y33892D02*
D03*
Y28892D02*
D03*
X124276Y63892D02*
D03*
Y58892D02*
D03*
Y53892D02*
D03*
Y48892D02*
D03*
Y43892D02*
D03*
Y38892D02*
D03*
Y33892D02*
D03*
Y28892D02*
D03*
D194*
X65560Y111266D02*
D03*
Y117565D02*
D03*
X480997Y412810D02*
D03*
Y419109D02*
D03*
D195*
X405466Y440640D02*
D03*
X413340D02*
D03*
D196*
X509803Y442028D02*
D03*
Y453052D02*
D03*
X496503D02*
D03*
Y442028D02*
D03*
D197*
X13942Y323199D02*
D03*
X24966D02*
D03*
D198*
X78153Y302584D02*
D03*
Y296994D02*
D03*
D199*
X426854Y126763D02*
D03*
D200*
X478803Y449758D02*
D03*
X482543Y439522D02*
D03*
X475063D02*
D03*
X378863Y439422D02*
D03*
X386343D02*
D03*
X382603Y449658D02*
D03*
D201*
X88068Y136341D02*
D03*
X124052D02*
D03*
Y116341D02*
D03*
Y126341D02*
D03*
X88068Y116341D02*
D03*
Y126183D02*
D03*
D202*
X463272Y412753D02*
D03*
X473509D02*
D03*
X396021Y411140D02*
D03*
X385785D02*
D03*
D203*
X331846Y128854D02*
D03*
Y122555D02*
D03*
Y97555D02*
D03*
Y103854D02*
D03*
Y77854D02*
D03*
Y71555D02*
D03*
Y46555D02*
D03*
Y52854D02*
D03*
D204*
X80950Y136035D02*
D03*
X72170D02*
D03*
Y115597D02*
D03*
X80950D02*
D03*
D205*
X141465Y130081D02*
D03*
Y126341D02*
D03*
Y122601D02*
D03*
X130639D02*
D03*
Y126341D02*
D03*
Y130081D02*
D03*
D206*
X81284Y122676D02*
D03*
Y126416D02*
D03*
Y130156D02*
D03*
X71835D02*
D03*
Y122676D02*
D03*
D207*
X310114Y457025D02*
D03*
X188933Y456978D02*
D03*
X249272Y456928D02*
D03*
D208*
X310113Y486709D02*
D03*
X188932Y486661D02*
D03*
X249273Y486614D02*
D03*
D209*
X65376Y238057D02*
D03*
X55376D02*
D03*
X45376D02*
D03*
X35376D02*
D03*
X25376D02*
D03*
X60376Y248058D02*
D03*
X50376D02*
D03*
X40376D02*
D03*
X30376D02*
D03*
D210*
X20376D02*
D03*
D211*
X58999Y171876D02*
D03*
X26754D02*
D03*
X68998D02*
D03*
X16754D02*
D03*
D212*
X73880Y203373D02*
D03*
X11873D02*
D03*
D213*
X20376Y188057D02*
D03*
X65376D02*
D03*
D214*
X90961Y412425D02*
D03*
Y422425D02*
D03*
X100961Y412425D02*
D03*
Y422425D02*
D03*
X15256Y412165D02*
D03*
Y422165D02*
D03*
Y432165D02*
D03*
Y442165D02*
D03*
Y452165D02*
D03*
X25256Y412165D02*
D03*
Y422165D02*
D03*
Y432165D02*
D03*
Y442165D02*
D03*
Y452165D02*
D03*
X26740Y126491D02*
D03*
Y66491D02*
D03*
Y56491D02*
D03*
X16740Y126491D02*
D03*
Y116491D02*
D03*
Y106491D02*
D03*
Y56491D02*
D03*
Y66491D02*
D03*
Y76491D02*
D03*
Y86491D02*
D03*
Y96491D02*
D03*
X26740Y76491D02*
D03*
Y86491D02*
D03*
Y96491D02*
D03*
Y106491D02*
D03*
Y116491D02*
D03*
X451992Y43609D02*
D03*
X441992D02*
D03*
X431992D02*
D03*
X451992Y53609D02*
D03*
X441992D02*
D03*
X431992D02*
D03*
X505250Y45051D02*
D03*
X515250D02*
D03*
X525250D02*
D03*
X535250D02*
D03*
X637424Y45053D02*
D03*
X627424D02*
D03*
X617424D02*
D03*
X607424D02*
D03*
D215*
X819213Y153347D02*
D03*
Y350591D02*
D03*
X699213Y334842D02*
D03*
Y169095D02*
D03*
X459213Y334842D02*
D03*
Y169095D02*
D03*
X579213Y169095D02*
D03*
Y334842D02*
D03*
X1299213Y153346D02*
D03*
Y350590D02*
D03*
X1179213Y350591D02*
D03*
Y153347D02*
D03*
X1059213D02*
D03*
Y350591D02*
D03*
X939213D02*
D03*
Y153347D02*
D03*
D216*
X819213Y162598D02*
D03*
X813307Y341339D02*
D03*
X693307Y325591D02*
D03*
X699213Y178347D02*
D03*
X453307Y325590D02*
D03*
X459213Y178347D02*
D03*
X579213Y178347D02*
D03*
X573307Y325591D02*
D03*
X1299213Y162598D02*
D03*
X1293307Y341339D02*
D03*
X1173307Y341339D02*
D03*
X1179213Y162598D02*
D03*
X1059213D02*
D03*
X1053307Y341339D02*
D03*
X933307D02*
D03*
X939213Y162598D02*
D03*
D217*
X1105049Y64838D02*
D03*
X194432Y57074D02*
D03*
D218*
X1130048Y69837D02*
D03*
X219432Y62074D02*
D03*
D219*
X1358268Y19685D02*
D03*
X19685Y484252D02*
D03*
X728346D02*
D03*
X1358268D02*
D03*
X19685Y19685D02*
D03*
X728346D02*
D03*
D220*
X99213Y494095D02*
D03*
X339213Y494094D02*
D03*
X579213D02*
D03*
X819213D02*
D03*
X1059213D02*
D03*
X1299213D02*
D03*
Y9843D02*
D03*
X1059213D02*
D03*
X819213D02*
D03*
X579213D02*
D03*
X339213D02*
D03*
X99213D02*
D03*
D221*
X231102Y123622D02*
D03*
X872455Y340939D02*
D03*
Y345073D02*
D03*
X876589Y340939D02*
D03*
X868322D02*
D03*
X872455Y336805D02*
D03*
X161777Y56299D02*
D03*
X868504Y51181D02*
D03*
X863386Y29134D02*
D03*
X866929Y40945D02*
D03*
X866534Y25984D02*
D03*
X868898Y46063D02*
D03*
X864959Y27559D02*
D03*
X451575Y170276D02*
D03*
X759600Y212200D02*
D03*
X756988Y216339D02*
D03*
X762340Y207294D02*
D03*
X760532Y206201D02*
D03*
X264000Y87900D02*
D03*
X266142Y88976D02*
D03*
X287402Y23622D02*
D03*
X285433Y29528D02*
D03*
X241339Y33071D02*
D03*
X233071Y29921D02*
D03*
X271598Y86102D02*
D03*
X276772Y11909D02*
D03*
Y19587D02*
D03*
Y17028D02*
D03*
Y14469D02*
D03*
X266535Y22441D02*
D03*
X251575Y66535D02*
D03*
X264567Y24803D02*
D03*
X262992Y27559D02*
D03*
X261023Y32677D02*
D03*
X237795Y11811D02*
D03*
X239764Y14567D02*
D03*
X242126Y16929D02*
D03*
X254724Y22441D02*
D03*
X255512Y24803D02*
D03*
X258268Y27165D02*
D03*
X258661Y32677D02*
D03*
X220866Y96850D02*
D03*
X158661Y5512D02*
D03*
X643701Y375984D02*
D03*
X888189Y346850D02*
D03*
X857480Y334744D02*
D03*
X857087Y344193D02*
D03*
X690650Y170472D02*
D03*
X670100Y402300D02*
D03*
X162598Y39370D02*
D03*
X159055Y53150D02*
D03*
X139322D02*
D03*
X162598D02*
D03*
X159055Y48294D02*
D03*
X139322Y48425D02*
D03*
Y43701D02*
D03*
X159055D02*
D03*
X50000Y427165D02*
D03*
X130610Y38878D02*
D03*
X133760Y18012D02*
D03*
X131201Y43996D02*
D03*
X131890Y48819D02*
D03*
X133563Y52854D02*
D03*
X132480Y82579D02*
D03*
X133169Y87205D02*
D03*
X133858Y92913D02*
D03*
X134350Y97835D02*
D03*
X138287Y87303D02*
D03*
X137008Y84547D02*
D03*
X148425Y74410D02*
D03*
X138189Y10531D02*
D03*
X155512Y396457D02*
D03*
X181890Y377165D02*
D03*
X284252Y381496D02*
D03*
X114961Y398031D02*
D03*
X135039Y396457D02*
D03*
X96063Y401181D02*
D03*
X104528Y399606D02*
D03*
X142900Y280100D02*
D03*
X774803Y227559D02*
D03*
X799606Y230315D02*
D03*
X841339D02*
D03*
X869685D02*
D03*
X961417D02*
D03*
X989764D02*
D03*
X1081890D02*
D03*
X1109449D02*
D03*
X1201968D02*
D03*
X1234252D02*
D03*
X1321653D02*
D03*
X1200157Y227362D02*
D03*
X1198189Y228740D02*
D03*
X721654Y408268D02*
D03*
X183465Y12205D02*
D03*
X155905Y77165D02*
D03*
X154724Y117323D02*
D03*
X139370Y57874D02*
D03*
X139764Y63779D02*
D03*
X159055Y57874D02*
D03*
X161300Y74500D02*
D03*
Y77000D02*
D03*
X161400Y79600D02*
D03*
X169685Y73228D02*
D03*
X184252Y111811D02*
D03*
X181890Y99606D02*
D03*
X171260Y70866D02*
D03*
X175591Y100394D02*
D03*
X172835Y73228D02*
D03*
X177165Y88189D02*
D03*
X174409Y70866D02*
D03*
Y83465D02*
D03*
X175984Y73228D02*
D03*
X177559Y70866D02*
D03*
X183071Y93701D02*
D03*
X179134Y73228D02*
D03*
Y78740D02*
D03*
X202362Y113779D02*
D03*
X186172Y73622D02*
D03*
Y78740D02*
D03*
Y83858D02*
D03*
Y88583D02*
D03*
Y93701D02*
D03*
Y98819D02*
D03*
Y103937D02*
D03*
X186221Y109055D02*
D03*
X157480Y150787D02*
D03*
X149212Y159449D02*
D03*
X161411Y82228D02*
D03*
Y84684D02*
D03*
X115000Y279800D02*
D03*
X124016Y294488D02*
D03*
X147638Y149606D02*
D03*
X161511Y87246D02*
D03*
X124016Y299213D02*
D03*
X161500Y92500D02*
D03*
X145669Y149212D02*
D03*
X149606Y149606D02*
D03*
X161500Y89700D02*
D03*
X715700Y393700D02*
D03*
X695100D02*
D03*
X465200Y173800D02*
D03*
X575500Y172500D02*
D03*
X677165Y381102D02*
D03*
X707600Y174000D02*
D03*
X497638Y168504D02*
D03*
X494095D02*
D03*
X485700Y179200D02*
D03*
X908029Y204300D02*
D03*
X416600Y185400D02*
D03*
X529100Y272400D02*
D03*
X505800Y364400D02*
D03*
X380315Y211024D02*
D03*
X715700Y400200D02*
D03*
Y387200D02*
D03*
Y367700D02*
D03*
Y374200D02*
D03*
Y380700D02*
D03*
X695100Y400200D02*
D03*
Y387200D02*
D03*
Y367700D02*
D03*
Y374200D02*
D03*
Y380700D02*
D03*
X704700Y414000D02*
D03*
X1280800Y205300D02*
D03*
X1266800Y204800D02*
D03*
X1147000Y205100D02*
D03*
X1026600Y205400D02*
D03*
X765566Y223000D02*
D03*
X786800Y205300D02*
D03*
X153500Y329100D02*
D03*
Y282000D02*
D03*
X126969Y245100D02*
D03*
X767534Y223000D02*
D03*
X155600Y284000D02*
D03*
X155500Y331300D02*
D03*
X125000Y245100D02*
D03*
X463600Y178000D02*
D03*
X467100Y177200D02*
D03*
X472900Y179100D02*
D03*
X572700Y169400D02*
D03*
X469800Y177800D02*
D03*
X492600Y176100D02*
D03*
X490500Y168300D02*
D03*
X481400D02*
D03*
X752049Y218504D02*
D03*
X710600Y179800D02*
D03*
X677165Y394751D02*
D03*
X588000Y175900D02*
D03*
X677165Y401575D02*
D03*
X707400Y176800D02*
D03*
X582400Y175000D02*
D03*
X677165Y398163D02*
D03*
Y404000D02*
D03*
X704000Y175197D02*
D03*
X576200Y175000D02*
D03*
X618600Y178600D02*
D03*
X663173Y178527D02*
D03*
X553100Y176800D02*
D03*
X667900Y179400D02*
D03*
X907874Y57087D02*
D03*
X677165Y384514D02*
D03*
Y387927D02*
D03*
Y391339D02*
D03*
X746635Y224700D02*
D03*
X748603D02*
D03*
X750572D02*
D03*
X141732Y275984D02*
D03*
X143307Y274409D02*
D03*
X284800Y218900D02*
D03*
Y282200D02*
D03*
X532087Y177500D02*
D03*
X534055D02*
D03*
X537992D02*
D03*
X536024D02*
D03*
X616800Y180500D02*
D03*
X614100D02*
D03*
X611500D02*
D03*
X608900D02*
D03*
X546100Y180400D02*
D03*
X384800Y221000D02*
D03*
X286800Y222000D02*
D03*
X379500Y228000D02*
D03*
Y225800D02*
D03*
X378346Y211024D02*
D03*
X376378D02*
D03*
X379500Y223800D02*
D03*
X347441Y227953D02*
D03*
X308700Y224100D02*
D03*
X316732Y220472D02*
D03*
X329331Y226378D02*
D03*
X317638Y222441D02*
D03*
X293701Y211417D02*
D03*
X295669Y213386D02*
D03*
X293701Y213386D02*
D03*
X270866Y200000D02*
D03*
X272835Y201969D02*
D03*
X268600Y198000D02*
D03*
X261600Y203000D02*
D03*
X266500Y196000D02*
D03*
X261700Y200509D02*
D03*
X310200Y249753D02*
D03*
Y251800D02*
D03*
X330300Y271557D02*
D03*
Y269510D02*
D03*
X308200Y254700D02*
D03*
X310255Y255200D02*
D03*
X307200Y225600D02*
D03*
X329200Y247900D02*
D03*
Y245800D02*
D03*
X867520Y318701D02*
D03*
X857874Y329331D02*
D03*
X888681Y333366D02*
D03*
X882087Y341929D02*
D03*
X880709Y350590D02*
D03*
X857480Y349508D02*
D03*
X879626Y322441D02*
D03*
X888681Y338189D02*
D03*
X877756Y352854D02*
D03*
X857185Y346752D02*
D03*
X887598Y344094D02*
D03*
X889468Y340650D02*
D03*
X857185Y337992D02*
D03*
Y341929D02*
D03*
X367323Y418898D02*
D03*
X159449Y150787D02*
D03*
X1267714Y312598D02*
D03*
X1269291Y311024D02*
D03*
X1270866Y312598D02*
D03*
X1272438Y311023D02*
D03*
X1274013Y312598D02*
D03*
X1275588Y311023D02*
D03*
X1278738D02*
D03*
X1277165Y312598D02*
D03*
X1280312Y312598D02*
D03*
X1283462D02*
D03*
X1281887Y311023D02*
D03*
X1285039Y311024D02*
D03*
X1155669Y253819D02*
D03*
X1275669D02*
D03*
X220866Y181523D02*
D03*
X222441Y179921D02*
D03*
X223228Y177559D02*
D03*
X197244Y186221D02*
D03*
X201575Y185433D02*
D03*
X205906Y184646D02*
D03*
X210236Y183858D02*
D03*
X214567Y183071D02*
D03*
X218898Y182283D02*
D03*
X225984Y180512D02*
D03*
X228346Y182283D02*
D03*
X216732Y182677D02*
D03*
X208071Y184252D02*
D03*
X915746Y253937D02*
D03*
X795668D02*
D03*
X249606Y329921D02*
D03*
X268110Y332677D02*
D03*
X685039Y257283D02*
D03*
Y259331D02*
D03*
X907874Y42520D02*
D03*
X164173Y151181D02*
D03*
X162205D02*
D03*
X1275866Y248032D02*
D03*
X267323Y129528D02*
D03*
X1275866Y246063D02*
D03*
X269291Y127953D02*
D03*
X1275669Y257874D02*
D03*
X126575Y229134D02*
D03*
X1275669Y255905D02*
D03*
X125197Y230906D02*
D03*
X157087Y200197D02*
D03*
X154921Y200591D02*
D03*
X152756Y200984D02*
D03*
X150984Y202362D02*
D03*
X123622Y217323D02*
D03*
X1286693Y276969D02*
D03*
X149606Y203937D02*
D03*
X1284724Y276969D02*
D03*
X148228Y205709D02*
D03*
X1282756Y276969D02*
D03*
X146850Y224213D02*
D03*
X1280787Y276969D02*
D03*
X144685Y224606D02*
D03*
X123819Y223425D02*
D03*
X1275669Y269685D02*
D03*
X142717Y225000D02*
D03*
X1275669Y267717D02*
D03*
X134252Y225591D02*
D03*
X1275669Y265748D02*
D03*
X132480Y227165D02*
D03*
X1275669Y263779D02*
D03*
X130118Y227165D02*
D03*
X1275669Y259843D02*
D03*
X128740Y228937D02*
D03*
X1155669Y257874D02*
D03*
X1155669Y255905D02*
D03*
X191535Y194291D02*
D03*
X131890Y197638D02*
D03*
X189370Y194291D02*
D03*
X1155866Y248032D02*
D03*
X187402Y194882D02*
D03*
X1155866Y246063D02*
D03*
X185236Y195276D02*
D03*
X1155866Y244094D02*
D03*
X183071Y195669D02*
D03*
X1155866Y242126D02*
D03*
X131890Y201181D02*
D03*
X180906Y195866D02*
D03*
X1155669Y238386D02*
D03*
X178740Y196653D02*
D03*
X123425Y213386D02*
D03*
X159252Y199803D02*
D03*
X161417Y199409D02*
D03*
X1165905Y229134D02*
D03*
X163583Y199016D02*
D03*
X1163543Y229134D02*
D03*
X165748Y198622D02*
D03*
X1162756Y227165D02*
D03*
X123425Y209449D02*
D03*
X167913Y198228D02*
D03*
X1160787Y227165D02*
D03*
X170079Y197835D02*
D03*
X1155669Y232283D02*
D03*
X172244Y197441D02*
D03*
X1155669Y234252D02*
D03*
X174409Y197047D02*
D03*
X1155669Y236220D02*
D03*
X132874Y203346D02*
D03*
X176575Y196654D02*
D03*
X129921Y181496D02*
D03*
Y183465D02*
D03*
X1166693Y276969D02*
D03*
X212402Y183465D02*
D03*
X1164724Y276969D02*
D03*
X129921Y185433D02*
D03*
X1162756Y276969D02*
D03*
X1160787D02*
D03*
X129921Y187402D02*
D03*
X1155669Y269685D02*
D03*
X203740Y185039D02*
D03*
X1155669Y267717D02*
D03*
X129921Y189370D02*
D03*
X1155669Y265748D02*
D03*
X199409Y185827D02*
D03*
X1155669Y263779D02*
D03*
X1155669Y259843D02*
D03*
X241929Y184646D02*
D03*
X1035866Y248032D02*
D03*
X241732Y178543D02*
D03*
X1035866Y246063D02*
D03*
Y244094D02*
D03*
X236614Y183858D02*
D03*
X1035866Y242126D02*
D03*
X1035669Y238386D02*
D03*
X233858Y183858D02*
D03*
X1045905Y229134D02*
D03*
X1043543D02*
D03*
X1042756Y227165D02*
D03*
X1040787D02*
D03*
X1035669Y232283D02*
D03*
Y234252D02*
D03*
X231693Y182087D02*
D03*
X1035669Y236220D02*
D03*
X274803Y203937D02*
D03*
X272835D02*
D03*
X270866Y184646D02*
D03*
Y201969D02*
D03*
X268504Y184646D02*
D03*
X1046693Y276969D02*
D03*
X266142Y184646D02*
D03*
X1044724Y276969D02*
D03*
X1042756D02*
D03*
X263779Y184646D02*
D03*
X1040787Y276969D02*
D03*
X1035669Y269685D02*
D03*
X261417Y184646D02*
D03*
X1035669Y267717D02*
D03*
X1035669Y265748D02*
D03*
X247638Y184646D02*
D03*
X1035669Y263779D02*
D03*
X244882Y184646D02*
D03*
X222834Y96850D02*
D03*
X293701Y316929D02*
D03*
X290551D02*
D03*
X287401Y316929D02*
D03*
X429134Y436614D02*
D03*
X516536Y422441D02*
D03*
X494488D02*
D03*
X143701Y261023D02*
D03*
X151919Y266571D02*
D03*
X101969Y231496D02*
D03*
Y251969D02*
D03*
X71653Y303937D02*
D03*
X131496Y315748D02*
D03*
X30315Y310630D02*
D03*
X131496Y311811D02*
D03*
X34252Y310630D02*
D03*
X41339Y314173D02*
D03*
X131496Y307874D02*
D03*
X44882Y314173D02*
D03*
X36220Y312598D02*
D03*
X69685Y306299D02*
D03*
X551575Y304921D02*
D03*
Y302874D02*
D03*
X305906Y266717D02*
D03*
Y264669D02*
D03*
X600787Y301772D02*
D03*
Y299724D02*
D03*
X308268Y260811D02*
D03*
Y258764D02*
D03*
X551575Y298622D02*
D03*
Y296575D02*
D03*
X600787Y295472D02*
D03*
Y293425D02*
D03*
X551575Y292323D02*
D03*
Y290276D02*
D03*
X312992Y243094D02*
D03*
Y241047D02*
D03*
X600787Y289173D02*
D03*
Y287126D02*
D03*
X310630Y237598D02*
D03*
Y235551D02*
D03*
X551575Y286024D02*
D03*
Y283976D02*
D03*
X312992Y232402D02*
D03*
Y234449D02*
D03*
X600787Y282087D02*
D03*
Y280039D02*
D03*
X332283Y231283D02*
D03*
X315354D02*
D03*
X332283Y229236D02*
D03*
X315354D02*
D03*
X551575Y278937D02*
D03*
Y276890D02*
D03*
X600787Y275394D02*
D03*
Y273346D02*
D03*
X334567Y227165D02*
D03*
X336614D02*
D03*
X331378Y226378D02*
D03*
X319685Y222441D02*
D03*
X349488Y227953D02*
D03*
X314685Y220472D02*
D03*
X330709Y218110D02*
D03*
X328346Y218110D02*
D03*
X352638Y224016D02*
D03*
X350590D02*
D03*
X338386Y214961D02*
D03*
X336339D02*
D03*
X333268Y211024D02*
D03*
X335315D02*
D03*
X330118Y214567D02*
D03*
X332165D02*
D03*
X427953Y300984D02*
D03*
Y298937D02*
D03*
X480709Y279331D02*
D03*
Y277284D02*
D03*
X475197Y286102D02*
D03*
Y284055D02*
D03*
X427953Y293898D02*
D03*
Y291850D02*
D03*
Y286811D02*
D03*
Y284764D02*
D03*
Y280337D02*
D03*
Y278290D02*
D03*
X478346Y275394D02*
D03*
Y273346D02*
D03*
X845276Y240158D02*
D03*
Y238189D02*
D03*
Y236221D02*
D03*
Y234252D02*
D03*
X795669Y238386D02*
D03*
X802756Y227165D02*
D03*
X795669Y236220D02*
D03*
X803543Y229134D02*
D03*
X795669Y234252D02*
D03*
X800787Y227165D02*
D03*
X805906Y229134D02*
D03*
X795669Y263779D02*
D03*
Y255905D02*
D03*
X846654Y205118D02*
D03*
X805906Y190354D02*
D03*
X795669Y232283D02*
D03*
X795866Y242126D02*
D03*
Y244094D02*
D03*
Y246063D02*
D03*
Y248032D02*
D03*
X289764Y209449D02*
D03*
X795669Y257874D02*
D03*
Y259843D02*
D03*
Y265748D02*
D03*
X795669Y267717D02*
D03*
Y269685D02*
D03*
X800787Y276969D02*
D03*
X802756D02*
D03*
X804724D02*
D03*
X372441Y211024D02*
D03*
X370472D02*
D03*
X368504D02*
D03*
X366535D02*
D03*
X274803Y205906D02*
D03*
X276969D02*
D03*
Y208071D02*
D03*
X834252Y227362D02*
D03*
X836417D02*
D03*
X838189Y228740D02*
D03*
X840157Y227362D02*
D03*
X772244Y278740D02*
D03*
Y276378D02*
D03*
Y274016D02*
D03*
Y271654D02*
D03*
X843307Y288583D02*
D03*
X840945D02*
D03*
X863780Y269685D02*
D03*
X862598Y273425D02*
D03*
X861417Y276575D02*
D03*
X125591Y219488D02*
D03*
X273228Y184646D02*
D03*
X294882D02*
D03*
X296850Y185827D02*
D03*
X275787Y184646D02*
D03*
X285039D02*
D03*
X290945D02*
D03*
X279921Y197638D02*
D03*
Y199606D02*
D03*
X281890Y201575D02*
D03*
X283858Y203543D02*
D03*
X287008Y184646D02*
D03*
X285827Y205512D02*
D03*
X287795D02*
D03*
Y207480D02*
D03*
X289764D02*
D03*
X292913Y185827D02*
D03*
X291732Y209449D02*
D03*
Y211417D02*
D03*
X374410Y211024D02*
D03*
X845669Y288583D02*
D03*
X848032D02*
D03*
X772441Y254331D02*
D03*
X774409D02*
D03*
X776378D02*
D03*
X778346D02*
D03*
X1045906Y190354D02*
D03*
X1086654Y205118D02*
D03*
X1012244Y278740D02*
D03*
Y276378D02*
D03*
Y274016D02*
D03*
Y271654D02*
D03*
X1080945Y288583D02*
D03*
X1083307D02*
D03*
X1085669Y288583D02*
D03*
X1088031D02*
D03*
X1101417Y276575D02*
D03*
X1102598Y273425D02*
D03*
X1103780Y269685D02*
D03*
X1085276Y240158D02*
D03*
Y238189D02*
D03*
Y236221D02*
D03*
Y234252D02*
D03*
X1080157Y227362D02*
D03*
X1078189Y228740D02*
D03*
X1076417Y227362D02*
D03*
X1074252D02*
D03*
X1018347Y254331D02*
D03*
X1016378D02*
D03*
X1014409D02*
D03*
X1012441D02*
D03*
X1165906Y190354D02*
D03*
X1206654Y205118D02*
D03*
X1132244Y278740D02*
D03*
Y276378D02*
D03*
Y274016D02*
D03*
Y271654D02*
D03*
X1200945Y288583D02*
D03*
X1203307D02*
D03*
X1205669Y288583D02*
D03*
X1208031D02*
D03*
X1221417Y276575D02*
D03*
X1222598Y273425D02*
D03*
X1223780Y269685D02*
D03*
X1205276Y240158D02*
D03*
Y238189D02*
D03*
Y236221D02*
D03*
Y234252D02*
D03*
X1196417Y227362D02*
D03*
X1194252D02*
D03*
X1138346Y254331D02*
D03*
X1136378D02*
D03*
X1134409D02*
D03*
X1132441D02*
D03*
X1285906Y190354D02*
D03*
X1326654Y205118D02*
D03*
X1252244Y278740D02*
D03*
Y276378D02*
D03*
Y274016D02*
D03*
Y271654D02*
D03*
X1320945Y288583D02*
D03*
X1323307D02*
D03*
X1325669Y288583D02*
D03*
X1328032D02*
D03*
X1341417Y276575D02*
D03*
X1342598Y273425D02*
D03*
X1343780Y269685D02*
D03*
X1325276Y240158D02*
D03*
Y238189D02*
D03*
Y236221D02*
D03*
Y234252D02*
D03*
X1320157Y227362D02*
D03*
X1318189Y228740D02*
D03*
X1316417Y227362D02*
D03*
X1314252D02*
D03*
X1258346Y254331D02*
D03*
X1256378D02*
D03*
X1254409D02*
D03*
X1252441D02*
D03*
X925906Y190354D02*
D03*
X966654Y205118D02*
D03*
X915669Y232283D02*
D03*
Y234252D02*
D03*
Y236220D02*
D03*
Y238386D02*
D03*
X915866Y242126D02*
D03*
Y244094D02*
D03*
Y246063D02*
D03*
Y248032D02*
D03*
X915669Y255905D02*
D03*
X915669Y257874D02*
D03*
Y259843D02*
D03*
X915669Y263779D02*
D03*
X915669Y265748D02*
D03*
X915669Y267717D02*
D03*
Y269685D02*
D03*
X920787Y276969D02*
D03*
X922756D02*
D03*
X924724D02*
D03*
X926693D02*
D03*
X892244Y278740D02*
D03*
Y276378D02*
D03*
Y274016D02*
D03*
Y271654D02*
D03*
X960945Y288583D02*
D03*
X963307D02*
D03*
X965669Y288583D02*
D03*
X968032D02*
D03*
X981417Y276575D02*
D03*
X982598Y273425D02*
D03*
X983780Y269685D02*
D03*
X965276Y240158D02*
D03*
Y238189D02*
D03*
Y236221D02*
D03*
Y234252D02*
D03*
X960157Y227362D02*
D03*
X958189Y228740D02*
D03*
X956417Y227362D02*
D03*
X954252D02*
D03*
X898347Y254331D02*
D03*
X896378D02*
D03*
X894409D02*
D03*
X892441D02*
D03*
X925906Y229134D02*
D03*
X923543D02*
D03*
X922756Y227165D02*
D03*
X920787D02*
D03*
X75590Y317717D02*
D03*
X125984Y296850D02*
D03*
Y301575D02*
D03*
X124016Y303937D02*
D03*
X1035669Y259843D02*
D03*
Y257874D02*
D03*
X844488Y264567D02*
D03*
X1275866Y244094D02*
D03*
Y242126D02*
D03*
X1275669Y238386D02*
D03*
Y236220D02*
D03*
Y234252D02*
D03*
Y232283D02*
D03*
X1280787Y227165D02*
D03*
X1282756D02*
D03*
X1283543Y229134D02*
D03*
X1285905D02*
D03*
X1212598Y433071D02*
D03*
X1214567D02*
D03*
X1222441D02*
D03*
X1224409D02*
D03*
X1232283D02*
D03*
X1234252D02*
D03*
X1242126D02*
D03*
X1244094D02*
D03*
X1251968D02*
D03*
X1253937D02*
D03*
X1261811D02*
D03*
X1263780D02*
D03*
X148031Y187402D02*
D03*
X298300Y213300D02*
D03*
X300500Y211100D02*
D03*
X285827Y203543D02*
D03*
X281890Y199606D02*
D03*
X283858Y201575D02*
D03*
X282677Y184646D02*
D03*
X280709D02*
D03*
X277953D02*
D03*
X247638Y194882D02*
D03*
X130700Y205600D02*
D03*
X147400Y272600D02*
D03*
X140400Y290300D02*
D03*
X130300Y304200D02*
D03*
X141500Y329700D02*
D03*
X125400Y329500D02*
D03*
X268701Y334800D02*
D03*
X261400Y312100D02*
D03*
X329500Y325700D02*
D03*
X328400Y321800D02*
D03*
X338400Y325700D02*
D03*
X337600Y321900D02*
D03*
X337400Y315900D02*
D03*
X328400Y316000D02*
D03*
X328200Y310000D02*
D03*
X336600Y310100D02*
D03*
X336700Y304100D02*
D03*
X328000D02*
D03*
X328200Y298200D02*
D03*
X337900D02*
D03*
X338500Y290300D02*
D03*
X329400D02*
D03*
Y288000D02*
D03*
X327800Y272500D02*
D03*
X338500Y286400D02*
D03*
X336700Y272200D02*
D03*
X346700Y262700D02*
D03*
X353543Y211024D02*
D03*
X319842Y210827D02*
D03*
X832000Y227400D02*
D03*
X844200Y242100D02*
D03*
X845500Y251900D02*
D03*
X866000Y251000D02*
D03*
X986000D02*
D03*
X965500Y251900D02*
D03*
X964200Y242100D02*
D03*
X952000Y227400D02*
D03*
X1106000Y251000D02*
D03*
X1085500Y251900D02*
D03*
X1084200Y242100D02*
D03*
X1072000Y227400D02*
D03*
X1226000Y251000D02*
D03*
X1205500Y251900D02*
D03*
X1204200Y242100D02*
D03*
X1192000Y227400D02*
D03*
X1346000Y251000D02*
D03*
X1325500Y251900D02*
D03*
X1324200Y242100D02*
D03*
X798600Y242300D02*
D03*
X798000Y252600D02*
D03*
X797100Y261700D02*
D03*
X795000Y286500D02*
D03*
X787300Y277700D02*
D03*
X907300D02*
D03*
X915000Y286500D02*
D03*
X917100Y261700D02*
D03*
X918000Y252600D02*
D03*
X918600Y242300D02*
D03*
X1027300Y277700D02*
D03*
X1035000Y286500D02*
D03*
X1037100Y261700D02*
D03*
X1038000Y252600D02*
D03*
X1038600Y242300D02*
D03*
X1147300Y277700D02*
D03*
X1155000Y286500D02*
D03*
X1157100Y261700D02*
D03*
X1158000Y252600D02*
D03*
X1158600Y242300D02*
D03*
X1267300Y277700D02*
D03*
X1275000Y286500D02*
D03*
X1277100Y261700D02*
D03*
X1278000Y252600D02*
D03*
X804700Y288000D02*
D03*
X839900Y291000D02*
D03*
X959900D02*
D03*
X924700Y288000D02*
D03*
X927800Y291800D02*
D03*
X1079900Y291000D02*
D03*
X1044700Y288000D02*
D03*
X1199900Y291000D02*
D03*
X1164700Y288000D02*
D03*
X1167800Y291800D02*
D03*
X1319900Y291000D02*
D03*
X1284700Y288000D02*
D03*
X1278400Y245500D02*
D03*
X1286800Y291100D02*
D03*
X844600Y262000D02*
D03*
X1324600Y262000D02*
D03*
X1202300Y263700D02*
D03*
X1204300Y261800D02*
D03*
X1084600Y262000D02*
D03*
X1082800Y263700D02*
D03*
X964600Y262000D02*
D03*
X963200Y263900D02*
D03*
X1322400Y263800D02*
D03*
X430100Y228200D02*
D03*
X433800D02*
D03*
X426700Y220800D02*
D03*
X428700Y185200D02*
D03*
X950700Y290500D02*
D03*
X831600Y275400D02*
D03*
X952000Y275800D02*
D03*
X1071700Y275600D02*
D03*
X1191800Y275700D02*
D03*
X1314000D02*
D03*
Y269300D02*
D03*
X1314200Y261700D02*
D03*
X281496Y287300D02*
D03*
X1150775Y222847D02*
D03*
X1270775Y223320D02*
D03*
X1030709Y223622D02*
D03*
X910775Y224265D02*
D03*
X790775Y224186D02*
D03*
X1035669Y255905D02*
D03*
X1035669Y253740D02*
D03*
X433858Y399114D02*
D03*
X477362Y395472D02*
D03*
X147146Y268996D02*
D03*
X148819Y267717D02*
D03*
X150007Y265663D02*
D03*
X348900Y264000D02*
D03*
X351000Y263800D02*
D03*
X475000Y289343D02*
D03*
Y291390D02*
D03*
X481200Y284400D02*
D03*
X479752Y282952D02*
D03*
X379400Y221800D02*
D03*
D222*
X506032Y414702D02*
D03*
Y409978D02*
D03*
X509575D02*
D03*
Y414702D02*
D03*
X507803Y412340D02*
D03*
X411903Y424340D02*
D03*
X409935Y422372D02*
D03*
X413872D02*
D03*
Y426309D02*
D03*
X409935D02*
D03*
D223*
X114961Y321654D02*
D03*
X286221Y461496D02*
D03*
X268721Y476496D02*
D03*
X233720D02*
D03*
X326220Y481496D02*
D03*
X276220Y461496D02*
D03*
X231221Y471496D02*
D03*
X283720Y466496D02*
D03*
X271220Y471496D02*
D03*
X263720Y456496D02*
D03*
X271220Y461496D02*
D03*
X331221D02*
D03*
X333720Y476496D02*
D03*
X293721Y456496D02*
D03*
X288720Y476496D02*
D03*
X208720Y466496D02*
D03*
X296220Y471496D02*
D03*
X271220Y481496D02*
D03*
X211221Y461496D02*
D03*
X221220D02*
D03*
X216220Y471496D02*
D03*
X288720Y456496D02*
D03*
X171221Y461496D02*
D03*
X283720Y476496D02*
D03*
X328720Y466496D02*
D03*
X293721Y476496D02*
D03*
X333720Y466496D02*
D03*
X266220Y471496D02*
D03*
X233720Y456496D02*
D03*
X278720Y476496D02*
D03*
X203720Y456496D02*
D03*
X278720D02*
D03*
X283720D02*
D03*
X288720Y466496D02*
D03*
X168720Y476496D02*
D03*
X173721D02*
D03*
X216220Y481496D02*
D03*
X223721Y476496D02*
D03*
X263720Y466496D02*
D03*
X291220Y471496D02*
D03*
X281221Y461496D02*
D03*
X223721Y466496D02*
D03*
X171221Y481496D02*
D03*
X281221D02*
D03*
X228720Y466496D02*
D03*
X233720D02*
D03*
X266220Y461496D02*
D03*
X208720Y456496D02*
D03*
X273721D02*
D03*
X333720D02*
D03*
X203720Y476496D02*
D03*
X278720Y466496D02*
D03*
X231221Y461496D02*
D03*
X273721Y476496D02*
D03*
X331221Y471496D02*
D03*
X293721Y466496D02*
D03*
X336221Y461496D02*
D03*
X231221Y481496D02*
D03*
X213720Y456496D02*
D03*
X173721Y466496D02*
D03*
X213720D02*
D03*
X266220Y481496D02*
D03*
X168720Y456496D02*
D03*
X281221Y471496D02*
D03*
X223721Y456496D02*
D03*
X211221Y481496D02*
D03*
X286221Y471496D02*
D03*
X206221D02*
D03*
X228720Y456496D02*
D03*
X328720D02*
D03*
X216220Y461496D02*
D03*
X336221Y481496D02*
D03*
X263720Y476496D02*
D03*
X336221Y471496D02*
D03*
X323721Y456496D02*
D03*
X296220Y461496D02*
D03*
X213720Y476496D02*
D03*
X328720D02*
D03*
X326220Y471496D02*
D03*
X273721Y466496D02*
D03*
X221220Y481496D02*
D03*
X226220Y471496D02*
D03*
Y481496D02*
D03*
X323721Y476496D02*
D03*
X268721Y456496D02*
D03*
X171221Y471496D02*
D03*
X296220Y481496D02*
D03*
X228720Y476496D02*
D03*
X286221Y481496D02*
D03*
X211221Y471496D02*
D03*
X226220Y461496D02*
D03*
X206221Y481496D02*
D03*
X268721Y466496D02*
D03*
X326220Y461496D02*
D03*
X208720Y476496D02*
D03*
X218721Y456496D02*
D03*
X331221Y481496D02*
D03*
X168720Y466496D02*
D03*
X291220Y481496D02*
D03*
X218721Y476496D02*
D03*
X291220Y461496D02*
D03*
X276220Y481496D02*
D03*
X218721Y466496D02*
D03*
X323721D02*
D03*
X221220Y471496D02*
D03*
X203720Y466496D02*
D03*
X206221Y461496D02*
D03*
X276220Y471496D02*
D03*
X173721Y456496D02*
D03*
X521850Y463484D02*
D03*
Y466535D02*
D03*
Y469488D02*
D03*
X512008Y460630D02*
D03*
X510039Y463583D02*
D03*
X339764Y359842D02*
D03*
X308268Y353150D02*
D03*
X426378Y456693D02*
D03*
X125984Y129134D02*
D03*
X68898Y358853D02*
D03*
X300984Y289469D02*
D03*
X300886Y279724D02*
D03*
X250590Y199803D02*
D03*
X148721Y218898D02*
D03*
X292815Y334941D02*
D03*
X288878D02*
D03*
X115748Y333563D02*
D03*
X111417Y339370D02*
D03*
X302756Y312992D02*
D03*
X302658Y315945D02*
D03*
X306594Y346457D02*
D03*
X302559Y346358D02*
D03*
X302756Y185039D02*
D03*
X309448Y185039D02*
D03*
X306693Y185039D02*
D03*
X299606D02*
D03*
X276378Y301181D02*
D03*
X244094Y70079D02*
D03*
X115200Y325800D02*
D03*
X329134Y280315D02*
D03*
X338583Y244882D02*
D03*
X124969Y457811D02*
D03*
X129693D02*
D03*
X134417D02*
D03*
X139142D02*
D03*
X143866D02*
D03*
X127331Y461354D02*
D03*
X132055D02*
D03*
X136779D02*
D03*
X141504D02*
D03*
X146228D02*
D03*
X143866Y464898D02*
D03*
X139142D02*
D03*
X134417D02*
D03*
X129693D02*
D03*
X124969D02*
D03*
X128346Y191732D02*
D03*
X98425Y238976D02*
D03*
X32283Y261811D02*
D03*
X40157Y258661D02*
D03*
X68504Y301181D02*
D03*
X62598Y297637D02*
D03*
X62992Y290945D02*
D03*
X65354Y288976D02*
D03*
X18504Y294094D02*
D03*
X21654Y295276D02*
D03*
X50787Y265748D02*
D03*
X21654Y298425D02*
D03*
X38327Y294114D02*
D03*
X43051Y289390D02*
D03*
X38327Y284665D02*
D03*
X43051D02*
D03*
X47776D02*
D03*
X38327Y289390D02*
D03*
X47776D02*
D03*
Y294114D02*
D03*
X43051D02*
D03*
X338386Y280512D02*
D03*
X330260Y262740D02*
D03*
X257874Y185039D02*
D03*
X900394Y170866D02*
D03*
X1020079Y176378D02*
D03*
X1140158D02*
D03*
X1259842D02*
D03*
X1226772Y267717D02*
D03*
X1106693D02*
D03*
X986614D02*
D03*
X866535D02*
D03*
X860630Y284252D02*
D03*
X980709Y283465D02*
D03*
X1100787D02*
D03*
X1220866D02*
D03*
X1354331Y263779D02*
D03*
X1340945Y283465D02*
D03*
X471260Y450000D02*
D03*
X485039Y439370D02*
D03*
X511024Y434646D02*
D03*
Y430709D02*
D03*
Y426772D02*
D03*
Y422835D02*
D03*
X491339Y434646D02*
D03*
Y430709D02*
D03*
Y427165D02*
D03*
X488189Y432677D02*
D03*
Y428740D02*
D03*
X485039Y430709D02*
D03*
Y426772D02*
D03*
X481496Y428740D02*
D03*
Y432677D02*
D03*
Y424803D02*
D03*
X477953Y426772D02*
D03*
Y430709D02*
D03*
X465748Y416929D02*
D03*
X461811D02*
D03*
X457874D02*
D03*
X459842Y420472D02*
D03*
X463779D02*
D03*
X468110D02*
D03*
X465748Y423622D02*
D03*
X461811D02*
D03*
X457874D02*
D03*
X500984Y460630D02*
D03*
X497047D02*
D03*
X493110D02*
D03*
X495079Y463583D02*
D03*
X499016D02*
D03*
X497047Y466535D02*
D03*
X500984D02*
D03*
X493110D02*
D03*
X512008D02*
D03*
X510039Y469488D02*
D03*
X513976D02*
D03*
X517913D02*
D03*
X506890Y395669D02*
D03*
X500000D02*
D03*
X493110D02*
D03*
X486221D02*
D03*
X448032Y444488D02*
D03*
Y441339D02*
D03*
Y438189D02*
D03*
Y447638D02*
D03*
X451181Y446063D02*
D03*
Y442913D02*
D03*
Y439764D02*
D03*
X405512Y409055D02*
D03*
X369685Y454331D02*
D03*
X282015Y421880D02*
D03*
X133465Y350787D02*
D03*
X163917Y408583D02*
D03*
X138100Y122700D02*
D03*
X1032800Y163400D02*
D03*
X949900Y171700D02*
D03*
X803300Y189300D02*
D03*
X832100Y186200D02*
D03*
X952100D02*
D03*
X923300Y189300D02*
D03*
X1072100Y186200D02*
D03*
X1043300Y189300D02*
D03*
X1192100Y186200D02*
D03*
X1163300Y189300D02*
D03*
X1283300Y189300D02*
D03*
X862200Y226700D02*
D03*
Y221200D02*
D03*
X846400Y222200D02*
D03*
X966400D02*
D03*
X982200Y221200D02*
D03*
Y226700D02*
D03*
X1086400Y222200D02*
D03*
X1102200Y221200D02*
D03*
Y226700D02*
D03*
X1206400Y222200D02*
D03*
X1222200Y221200D02*
D03*
Y226700D02*
D03*
X1326400Y222200D02*
D03*
X1342200Y221200D02*
D03*
Y226700D02*
D03*
X126378Y205512D02*
D03*
M02*
