G04*
G04 #@! TF.GenerationSoftware,Altium Limited,Altium Designer,19.1.9 (167)*
G04*
G04 Layer_Color=8421504*
%FSLAX25Y25*%
%MOIN*%
G70*
G01*
G75*
G04:AMPARAMS|DCode=26|XSize=61.02mil|YSize=61.02mil|CornerRadius=1.83mil|HoleSize=0mil|Usage=FLASHONLY|Rotation=270.000|XOffset=0mil|YOffset=0mil|HoleType=Round|Shape=RoundedRectangle|*
%AMROUNDEDRECTD26*
21,1,0.06102,0.05736,0,0,270.0*
21,1,0.05736,0.06102,0,0,270.0*
1,1,0.00366,-0.02868,-0.02868*
1,1,0.00366,-0.02868,0.02868*
1,1,0.00366,0.02868,0.02868*
1,1,0.00366,0.02868,-0.02868*
%
%ADD26ROUNDEDRECTD26*%
%ADD27O,0.05512X0.01772*%
G04:AMPARAMS|DCode=28|XSize=35.43mil|YSize=31.5mil|CornerRadius=3.15mil|HoleSize=0mil|Usage=FLASHONLY|Rotation=180.000|XOffset=0mil|YOffset=0mil|HoleType=Round|Shape=RoundedRectangle|*
%AMROUNDEDRECTD28*
21,1,0.03543,0.02520,0,0,180.0*
21,1,0.02913,0.03150,0,0,180.0*
1,1,0.00630,-0.01457,0.01260*
1,1,0.00630,0.01457,0.01260*
1,1,0.00630,0.01457,-0.01260*
1,1,0.00630,-0.01457,-0.01260*
%
%ADD28ROUNDEDRECTD28*%
%ADD29R,0.04724X0.01968*%
%ADD30R,0.05000X0.15500*%
G04:AMPARAMS|DCode=31|XSize=61.81mil|YSize=74.02mil|CornerRadius=1.85mil|HoleSize=0mil|Usage=FLASHONLY|Rotation=0.000|XOffset=0mil|YOffset=0mil|HoleType=Round|Shape=RoundedRectangle|*
%AMROUNDEDRECTD31*
21,1,0.06181,0.07031,0,0,0.0*
21,1,0.05810,0.07402,0,0,0.0*
1,1,0.00371,0.02905,-0.03515*
1,1,0.00371,-0.02905,-0.03515*
1,1,0.00371,-0.02905,0.03515*
1,1,0.00371,0.02905,0.03515*
%
%ADD31ROUNDEDRECTD31*%
G04:AMPARAMS|DCode=32|XSize=11.81mil|YSize=53.15mil|CornerRadius=1.95mil|HoleSize=0mil|Usage=FLASHONLY|Rotation=90.000|XOffset=0mil|YOffset=0mil|HoleType=Round|Shape=RoundedRectangle|*
%AMROUNDEDRECTD32*
21,1,0.01181,0.04925,0,0,90.0*
21,1,0.00791,0.05315,0,0,90.0*
1,1,0.00390,0.02463,0.00396*
1,1,0.00390,0.02463,-0.00396*
1,1,0.00390,-0.02463,-0.00396*
1,1,0.00390,-0.02463,0.00396*
%
%ADD32ROUNDEDRECTD32*%
G04:AMPARAMS|DCode=33|XSize=9.84mil|YSize=23.62mil|CornerRadius=1.97mil|HoleSize=0mil|Usage=FLASHONLY|Rotation=0.000|XOffset=0mil|YOffset=0mil|HoleType=Round|Shape=RoundedRectangle|*
%AMROUNDEDRECTD33*
21,1,0.00984,0.01968,0,0,0.0*
21,1,0.00591,0.02362,0,0,0.0*
1,1,0.00394,0.00295,-0.00984*
1,1,0.00394,-0.00295,-0.00984*
1,1,0.00394,-0.00295,0.00984*
1,1,0.00394,0.00295,0.00984*
%
%ADD33ROUNDEDRECTD33*%
G04:AMPARAMS|DCode=34|XSize=9.84mil|YSize=23.62mil|CornerRadius=1.97mil|HoleSize=0mil|Usage=FLASHONLY|Rotation=270.000|XOffset=0mil|YOffset=0mil|HoleType=Round|Shape=RoundedRectangle|*
%AMROUNDEDRECTD34*
21,1,0.00984,0.01968,0,0,270.0*
21,1,0.00591,0.02362,0,0,270.0*
1,1,0.00394,-0.00984,-0.00295*
1,1,0.00394,-0.00984,0.00295*
1,1,0.00394,0.00984,0.00295*
1,1,0.00394,0.00984,-0.00295*
%
%ADD34ROUNDEDRECTD34*%
%ADD35O,0.02362X0.07874*%
%ADD36R,0.10039X0.10039*%
%ADD37O,0.03347X0.01181*%
%ADD38O,0.01181X0.03347*%
%ADD39R,0.21063X0.33622*%
%ADD40O,0.03504X0.12047*%
G04:AMPARAMS|DCode=41|XSize=23.62mil|YSize=39.37mil|CornerRadius=2.01mil|HoleSize=0mil|Usage=FLASHONLY|Rotation=180.000|XOffset=0mil|YOffset=0mil|HoleType=Round|Shape=RoundedRectangle|*
%AMROUNDEDRECTD41*
21,1,0.02362,0.03535,0,0,180.0*
21,1,0.01961,0.03937,0,0,180.0*
1,1,0.00402,-0.00980,0.01768*
1,1,0.00402,0.00980,0.01768*
1,1,0.00402,0.00980,-0.01768*
1,1,0.00402,-0.00980,-0.01768*
%
%ADD41ROUNDEDRECTD41*%
%ADD42R,0.02598X0.05000*%
%ADD43R,0.02559X0.03543*%
%ADD44O,0.02559X0.08268*%
%ADD45R,0.03543X0.01378*%
%ADD46R,0.17205X0.17205*%
%ADD47O,0.01024X0.03307*%
%ADD48O,0.03307X0.01024*%
G04:AMPARAMS|DCode=49|XSize=43.31mil|YSize=39.37mil|CornerRadius=3.94mil|HoleSize=0mil|Usage=FLASHONLY|Rotation=90.000|XOffset=0mil|YOffset=0mil|HoleType=Round|Shape=RoundedRectangle|*
%AMROUNDEDRECTD49*
21,1,0.04331,0.03150,0,0,90.0*
21,1,0.03543,0.03937,0,0,90.0*
1,1,0.00787,0.01575,0.01772*
1,1,0.00787,0.01575,-0.01772*
1,1,0.00787,-0.01575,-0.01772*
1,1,0.00787,-0.01575,0.01772*
%
%ADD49ROUNDEDRECTD49*%
%ADD50R,0.05709X0.04528*%
%ADD51R,0.04331X0.02953*%
%ADD52R,0.04331X0.02165*%
%ADD53R,0.18504X0.04646*%
%ADD54R,0.13386X0.03858*%
%ADD55R,0.03937X0.05512*%
%ADD56R,0.04528X0.06102*%
G04:AMPARAMS|DCode=57|XSize=27.56mil|YSize=37.4mil|CornerRadius=4.55mil|HoleSize=0mil|Usage=FLASHONLY|Rotation=180.000|XOffset=0mil|YOffset=0mil|HoleType=Round|Shape=RoundedRectangle|*
%AMROUNDEDRECTD57*
21,1,0.02756,0.02831,0,0,180.0*
21,1,0.01846,0.03740,0,0,180.0*
1,1,0.00909,-0.00923,0.01415*
1,1,0.00909,0.00923,0.01415*
1,1,0.00909,0.00923,-0.01415*
1,1,0.00909,-0.00923,-0.01415*
%
%ADD57ROUNDEDRECTD57*%
G04:AMPARAMS|DCode=58|XSize=61.02mil|YSize=53.15mil|CornerRadius=5.32mil|HoleSize=0mil|Usage=FLASHONLY|Rotation=270.000|XOffset=0mil|YOffset=0mil|HoleType=Round|Shape=RoundedRectangle|*
%AMROUNDEDRECTD58*
21,1,0.06102,0.04252,0,0,270.0*
21,1,0.05039,0.05315,0,0,270.0*
1,1,0.01063,-0.02126,-0.02520*
1,1,0.01063,-0.02126,0.02520*
1,1,0.01063,0.02126,0.02520*
1,1,0.01063,0.02126,-0.02520*
%
%ADD58ROUNDEDRECTD58*%
G04:AMPARAMS|DCode=59|XSize=70.87mil|YSize=46.06mil|CornerRadius=4.61mil|HoleSize=0mil|Usage=FLASHONLY|Rotation=180.000|XOffset=0mil|YOffset=0mil|HoleType=Round|Shape=RoundedRectangle|*
%AMROUNDEDRECTD59*
21,1,0.07087,0.03685,0,0,180.0*
21,1,0.06165,0.04606,0,0,180.0*
1,1,0.00921,-0.03083,0.01843*
1,1,0.00921,0.03083,0.01843*
1,1,0.00921,0.03083,-0.01843*
1,1,0.00921,-0.03083,-0.01843*
%
%ADD59ROUNDEDRECTD59*%
G04:AMPARAMS|DCode=60|XSize=29.53mil|YSize=43.31mil|CornerRadius=2.95mil|HoleSize=0mil|Usage=FLASHONLY|Rotation=270.000|XOffset=0mil|YOffset=0mil|HoleType=Round|Shape=RoundedRectangle|*
%AMROUNDEDRECTD60*
21,1,0.02953,0.03740,0,0,270.0*
21,1,0.02362,0.04331,0,0,270.0*
1,1,0.00591,-0.01870,-0.01181*
1,1,0.00591,-0.01870,0.01181*
1,1,0.00591,0.01870,0.01181*
1,1,0.00591,0.01870,-0.01181*
%
%ADD60ROUNDEDRECTD60*%
G04:AMPARAMS|DCode=61|XSize=47.24mil|YSize=39.37mil|CornerRadius=3.94mil|HoleSize=0mil|Usage=FLASHONLY|Rotation=270.000|XOffset=0mil|YOffset=0mil|HoleType=Round|Shape=RoundedRectangle|*
%AMROUNDEDRECTD61*
21,1,0.04724,0.03150,0,0,270.0*
21,1,0.03937,0.03937,0,0,270.0*
1,1,0.00787,-0.01575,-0.01968*
1,1,0.00787,-0.01575,0.01968*
1,1,0.00787,0.01575,0.01968*
1,1,0.00787,0.01575,-0.01968*
%
%ADD61ROUNDEDRECTD61*%
G04:AMPARAMS|DCode=62|XSize=74.8mil|YSize=53.15mil|CornerRadius=5.32mil|HoleSize=0mil|Usage=FLASHONLY|Rotation=270.000|XOffset=0mil|YOffset=0mil|HoleType=Round|Shape=RoundedRectangle|*
%AMROUNDEDRECTD62*
21,1,0.07480,0.04252,0,0,270.0*
21,1,0.06417,0.05315,0,0,270.0*
1,1,0.01063,-0.02126,-0.03209*
1,1,0.01063,-0.02126,0.03209*
1,1,0.01063,0.02126,0.03209*
1,1,0.01063,0.02126,-0.03209*
%
%ADD62ROUNDEDRECTD62*%
G04:AMPARAMS|DCode=63|XSize=81.1mil|YSize=80.32mil|CornerRadius=8.03mil|HoleSize=0mil|Usage=FLASHONLY|Rotation=0.000|XOffset=0mil|YOffset=0mil|HoleType=Round|Shape=RoundedRectangle|*
%AMROUNDEDRECTD63*
21,1,0.08110,0.06425,0,0,0.0*
21,1,0.06504,0.08032,0,0,0.0*
1,1,0.01606,0.03252,-0.03213*
1,1,0.01606,-0.03252,-0.03213*
1,1,0.01606,-0.03252,0.03213*
1,1,0.01606,0.03252,0.03213*
%
%ADD63ROUNDEDRECTD63*%
%ADD64R,0.03543X0.03150*%
%ADD65R,0.09055X0.09055*%
%ADD66R,0.03268X0.02480*%
%ADD67R,0.03937X0.02165*%
%ADD68R,0.04724X0.02756*%
%ADD69R,0.02756X0.03543*%
%ADD70R,0.06102X0.05315*%
%ADD71R,0.03543X0.06299*%
%ADD72R,0.16535X0.07480*%
%ADD73R,0.15500X0.05000*%
G04:AMPARAMS|DCode=74|XSize=59.06mil|YSize=59.06mil|CornerRadius=14.76mil|HoleSize=0mil|Usage=FLASHONLY|Rotation=180.000|XOffset=0mil|YOffset=0mil|HoleType=Round|Shape=RoundedRectangle|*
%AMROUNDEDRECTD74*
21,1,0.05906,0.02953,0,0,180.0*
21,1,0.02953,0.05906,0,0,180.0*
1,1,0.02953,-0.01476,0.01476*
1,1,0.02953,0.01476,0.01476*
1,1,0.02953,0.01476,-0.01476*
1,1,0.02953,-0.01476,-0.01476*
%
%ADD74ROUNDEDRECTD74*%
%ADD75C,0.05906*%
%ADD76R,0.03150X0.03150*%
%ADD77O,0.04331X0.02362*%
G04:AMPARAMS|DCode=78|XSize=43.31mil|YSize=70.87mil|CornerRadius=4.33mil|HoleSize=0mil|Usage=FLASHONLY|Rotation=180.000|XOffset=0mil|YOffset=0mil|HoleType=Round|Shape=RoundedRectangle|*
%AMROUNDEDRECTD78*
21,1,0.04331,0.06221,0,0,180.0*
21,1,0.03465,0.07087,0,0,180.0*
1,1,0.00866,-0.01732,0.03110*
1,1,0.00866,0.01732,0.03110*
1,1,0.00866,0.01732,-0.03110*
1,1,0.00866,-0.01732,-0.03110*
%
%ADD78ROUNDEDRECTD78*%
G04:AMPARAMS|DCode=79|XSize=102.36mil|YSize=102.36mil|CornerRadius=2.56mil|HoleSize=0mil|Usage=FLASHONLY|Rotation=180.000|XOffset=0mil|YOffset=0mil|HoleType=Round|Shape=RoundedRectangle|*
%AMROUNDEDRECTD79*
21,1,0.10236,0.09724,0,0,180.0*
21,1,0.09724,0.10236,0,0,180.0*
1,1,0.00512,-0.04862,0.04862*
1,1,0.00512,0.04862,0.04862*
1,1,0.00512,0.04862,-0.04862*
1,1,0.00512,-0.04862,-0.04862*
%
%ADD79ROUNDEDRECTD79*%
G04:AMPARAMS|DCode=80|XSize=9.84mil|YSize=23.62mil|CornerRadius=2.46mil|HoleSize=0mil|Usage=FLASHONLY|Rotation=180.000|XOffset=0mil|YOffset=0mil|HoleType=Round|Shape=RoundedRectangle|*
%AMROUNDEDRECTD80*
21,1,0.00984,0.01870,0,0,180.0*
21,1,0.00492,0.02362,0,0,180.0*
1,1,0.00492,-0.00246,0.00935*
1,1,0.00492,0.00246,0.00935*
1,1,0.00492,0.00246,-0.00935*
1,1,0.00492,-0.00246,-0.00935*
%
%ADD80ROUNDEDRECTD80*%
G04:AMPARAMS|DCode=81|XSize=9.84mil|YSize=23.62mil|CornerRadius=2.46mil|HoleSize=0mil|Usage=FLASHONLY|Rotation=270.000|XOffset=0mil|YOffset=0mil|HoleType=Round|Shape=RoundedRectangle|*
%AMROUNDEDRECTD81*
21,1,0.00984,0.01870,0,0,270.0*
21,1,0.00492,0.02362,0,0,270.0*
1,1,0.00492,-0.00935,-0.00246*
1,1,0.00492,-0.00935,0.00246*
1,1,0.00492,0.00935,0.00246*
1,1,0.00492,0.00935,-0.00246*
%
%ADD81ROUNDEDRECTD81*%
G04:AMPARAMS|DCode=82|XSize=25.59mil|YSize=7.87mil|CornerRadius=0.79mil|HoleSize=0mil|Usage=FLASHONLY|Rotation=90.000|XOffset=0mil|YOffset=0mil|HoleType=Round|Shape=RoundedRectangle|*
%AMROUNDEDRECTD82*
21,1,0.02559,0.00630,0,0,90.0*
21,1,0.02402,0.00787,0,0,90.0*
1,1,0.00158,0.00315,0.01201*
1,1,0.00158,0.00315,-0.01201*
1,1,0.00158,-0.00315,-0.01201*
1,1,0.00158,-0.00315,0.01201*
%
%ADD82ROUNDEDRECTD82*%
G04:AMPARAMS|DCode=83|XSize=25.59mil|YSize=7.87mil|CornerRadius=0.79mil|HoleSize=0mil|Usage=FLASHONLY|Rotation=0.000|XOffset=0mil|YOffset=0mil|HoleType=Round|Shape=RoundedRectangle|*
%AMROUNDEDRECTD83*
21,1,0.02559,0.00630,0,0,0.0*
21,1,0.02402,0.00787,0,0,0.0*
1,1,0.00158,0.01201,-0.00315*
1,1,0.00158,-0.01201,-0.00315*
1,1,0.00158,-0.01201,0.00315*
1,1,0.00158,0.01201,0.00315*
%
%ADD83ROUNDEDRECTD83*%
G04:AMPARAMS|DCode=84|XSize=29.53mil|YSize=7.87mil|CornerRadius=0.79mil|HoleSize=0mil|Usage=FLASHONLY|Rotation=180.000|XOffset=0mil|YOffset=0mil|HoleType=Round|Shape=RoundedRectangle|*
%AMROUNDEDRECTD84*
21,1,0.02953,0.00630,0,0,180.0*
21,1,0.02795,0.00787,0,0,180.0*
1,1,0.00158,-0.01398,0.00315*
1,1,0.00158,0.01398,0.00315*
1,1,0.00158,0.01398,-0.00315*
1,1,0.00158,-0.01398,-0.00315*
%
%ADD84ROUNDEDRECTD84*%
%ADD85O,0.03937X0.01181*%
%ADD86R,0.03937X0.01181*%
G04:AMPARAMS|DCode=87|XSize=36.61mil|YSize=11.81mil|CornerRadius=1.18mil|HoleSize=0mil|Usage=FLASHONLY|Rotation=270.000|XOffset=0mil|YOffset=0mil|HoleType=Round|Shape=RoundedRectangle|*
%AMROUNDEDRECTD87*
21,1,0.03661,0.00945,0,0,270.0*
21,1,0.03425,0.01181,0,0,270.0*
1,1,0.00236,-0.00472,-0.01713*
1,1,0.00236,-0.00472,0.01713*
1,1,0.00236,0.00472,0.01713*
1,1,0.00236,0.00472,-0.01713*
%
%ADD87ROUNDEDRECTD87*%
%ADD88R,0.16693X0.15000*%
%ADD89R,0.03150X0.03543*%
%ADD90R,0.03347X0.03347*%
%ADD91R,0.03740X0.05315*%
%ADD92R,0.05906X0.06299*%
%ADD93R,0.25591X0.26378*%
%ADD94R,0.03937X0.03543*%
%ADD95R,0.03543X0.03937*%
%ADD96R,0.03543X0.02756*%
%ADD97R,0.03347X0.03347*%
%ADD98R,0.26378X0.25591*%
%ADD99R,0.06299X0.05906*%
G04:AMPARAMS|DCode=100|XSize=36.61mil|YSize=11.81mil|CornerRadius=1.18mil|HoleSize=0mil|Usage=FLASHONLY|Rotation=0.000|XOffset=0mil|YOffset=0mil|HoleType=Round|Shape=RoundedRectangle|*
%AMROUNDEDRECTD100*
21,1,0.03661,0.00945,0,0,0.0*
21,1,0.03425,0.01181,0,0,0.0*
1,1,0.00236,0.01713,-0.00472*
1,1,0.00236,-0.01713,-0.00472*
1,1,0.00236,-0.01713,0.00472*
1,1,0.00236,0.01713,0.00472*
%
%ADD100ROUNDEDRECTD100*%
%ADD101O,0.07874X0.02362*%
%ADD102R,0.05315X0.03740*%
%ADD103R,0.05315X0.06102*%
%ADD104R,0.10630X0.05118*%
%ADD105R,0.05118X0.10630*%
G04:AMPARAMS|DCode=106|XSize=27.56mil|YSize=37.4mil|CornerRadius=4.55mil|HoleSize=0mil|Usage=FLASHONLY|Rotation=270.000|XOffset=0mil|YOffset=0mil|HoleType=Round|Shape=RoundedRectangle|*
%AMROUNDEDRECTD106*
21,1,0.02756,0.02831,0,0,270.0*
21,1,0.01846,0.03740,0,0,270.0*
1,1,0.00909,-0.01415,-0.00923*
1,1,0.00909,-0.01415,0.00923*
1,1,0.00909,0.01415,0.00923*
1,1,0.00909,0.01415,-0.00923*
%
%ADD106ROUNDEDRECTD106*%
G04:AMPARAMS|DCode=107|XSize=29.53mil|YSize=7.87mil|CornerRadius=0.79mil|HoleSize=0mil|Usage=FLASHONLY|Rotation=90.000|XOffset=0mil|YOffset=0mil|HoleType=Round|Shape=RoundedRectangle|*
%AMROUNDEDRECTD107*
21,1,0.02953,0.00630,0,0,90.0*
21,1,0.02795,0.00787,0,0,90.0*
1,1,0.00158,0.00315,0.01398*
1,1,0.00158,0.00315,-0.01398*
1,1,0.00158,-0.00315,-0.01398*
1,1,0.00158,-0.00315,0.01398*
%
%ADD107ROUNDEDRECTD107*%
%ADD108O,0.02362X0.04331*%
%ADD109R,0.05000X0.02598*%
%ADD110R,0.05512X0.03937*%
%ADD111R,0.03150X0.03150*%
%ADD112R,0.02480X0.03268*%
G04:AMPARAMS|DCode=113|XSize=23.62mil|YSize=39.37mil|CornerRadius=2.01mil|HoleSize=0mil|Usage=FLASHONLY|Rotation=90.000|XOffset=0mil|YOffset=0mil|HoleType=Round|Shape=RoundedRectangle|*
%AMROUNDEDRECTD113*
21,1,0.02362,0.03535,0,0,90.0*
21,1,0.01961,0.03937,0,0,90.0*
1,1,0.00402,0.01768,0.00980*
1,1,0.00402,0.01768,-0.00980*
1,1,0.00402,-0.01768,-0.00980*
1,1,0.00402,-0.01768,0.00980*
%
%ADD113ROUNDEDRECTD113*%
%ADD114R,0.03543X0.02559*%
%ADD115R,0.25197X0.03937*%
%ADD116R,0.25197X0.03937*%
G36*
X417091Y429528D02*
X418567D01*
Y428740D01*
X416303D01*
Y431004D01*
X417091D01*
Y429528D01*
D02*
G37*
G36*
X407502Y428740D02*
X405234D01*
Y429528D01*
X406714D01*
Y431004D01*
X407502D01*
Y428740D01*
D02*
G37*
G36*
X418567Y419153D02*
X417091D01*
Y417676D01*
X416303D01*
Y419940D01*
X418567D01*
Y419153D01*
D02*
G37*
G36*
X407502Y417676D02*
X406714D01*
Y419153D01*
X405234D01*
Y419940D01*
X407502D01*
Y417676D01*
D02*
G37*
G36*
X50376Y290649D02*
X44313D01*
Y296712D01*
X50376D01*
Y290649D01*
D02*
G37*
G36*
X41793D02*
X35730D01*
Y296712D01*
X41793D01*
Y290649D01*
D02*
G37*
G36*
X50376Y282066D02*
X44313D01*
Y288129D01*
X50376D01*
Y282066D01*
D02*
G37*
G36*
X41793D02*
X35730D01*
Y288129D01*
X41793D01*
Y282066D01*
D02*
G37*
D26*
X411903Y424340D02*
D03*
D27*
X248031Y114567D02*
D03*
Y112008D02*
D03*
Y109449D02*
D03*
Y106890D02*
D03*
Y104331D02*
D03*
Y101772D02*
D03*
Y99213D02*
D03*
Y96653D02*
D03*
Y94095D02*
D03*
Y91535D02*
D03*
X271260Y114567D02*
D03*
Y112008D02*
D03*
Y109449D02*
D03*
Y106890D02*
D03*
Y104331D02*
D03*
Y101772D02*
D03*
Y99213D02*
D03*
Y96653D02*
D03*
Y94095D02*
D03*
Y91535D02*
D03*
X724606Y404429D02*
D03*
Y401870D02*
D03*
Y399311D02*
D03*
Y396752D02*
D03*
Y394193D02*
D03*
Y391634D02*
D03*
Y389075D02*
D03*
Y386516D02*
D03*
Y383957D02*
D03*
Y381398D02*
D03*
X747835Y404429D02*
D03*
Y401870D02*
D03*
Y399311D02*
D03*
Y396752D02*
D03*
Y394193D02*
D03*
Y391634D02*
D03*
Y389075D02*
D03*
Y386516D02*
D03*
Y383957D02*
D03*
Y381398D02*
D03*
X626886Y404216D02*
D03*
Y401657D02*
D03*
Y399098D02*
D03*
Y396539D02*
D03*
Y393980D02*
D03*
Y391421D02*
D03*
Y388862D02*
D03*
Y386303D02*
D03*
Y383744D02*
D03*
Y381185D02*
D03*
X650114Y404216D02*
D03*
Y401657D02*
D03*
Y399098D02*
D03*
Y396539D02*
D03*
Y393980D02*
D03*
Y391421D02*
D03*
Y388862D02*
D03*
Y386303D02*
D03*
Y383744D02*
D03*
Y381185D02*
D03*
X165574Y69376D02*
D03*
Y71935D02*
D03*
Y74494D02*
D03*
Y77053D02*
D03*
Y79613D02*
D03*
Y82172D02*
D03*
Y84731D02*
D03*
Y87290D02*
D03*
Y89849D02*
D03*
Y92408D02*
D03*
X142346Y69376D02*
D03*
Y71935D02*
D03*
Y74494D02*
D03*
Y77053D02*
D03*
Y79613D02*
D03*
Y82172D02*
D03*
Y84731D02*
D03*
Y87290D02*
D03*
Y89849D02*
D03*
Y92408D02*
D03*
X165551Y10531D02*
D03*
Y13091D02*
D03*
Y15650D02*
D03*
Y18209D02*
D03*
Y20768D02*
D03*
Y23327D02*
D03*
Y25886D02*
D03*
Y28445D02*
D03*
Y31004D02*
D03*
Y33563D02*
D03*
X142323Y10531D02*
D03*
Y13091D02*
D03*
Y15650D02*
D03*
Y18209D02*
D03*
Y20768D02*
D03*
Y23327D02*
D03*
Y25886D02*
D03*
Y28445D02*
D03*
Y31004D02*
D03*
Y33563D02*
D03*
X248031Y32382D02*
D03*
Y29823D02*
D03*
Y27264D02*
D03*
Y24705D02*
D03*
Y22146D02*
D03*
Y19587D02*
D03*
Y17028D02*
D03*
Y14469D02*
D03*
Y11909D02*
D03*
Y9350D02*
D03*
X271260Y32382D02*
D03*
Y29823D02*
D03*
Y27264D02*
D03*
Y24705D02*
D03*
Y22146D02*
D03*
Y19587D02*
D03*
Y17028D02*
D03*
Y14469D02*
D03*
Y11909D02*
D03*
Y9350D02*
D03*
D28*
X77362Y281105D02*
D03*
X71456D02*
D03*
Y285830D02*
D03*
X77362D02*
D03*
D29*
X825906Y168504D02*
D03*
X812520D02*
D03*
X825906Y171653D02*
D03*
X812520D02*
D03*
X825906Y174803D02*
D03*
X812520D02*
D03*
X825906Y177953D02*
D03*
X812520D02*
D03*
X825906Y181102D02*
D03*
X812520D02*
D03*
X825906Y184252D02*
D03*
X812520D02*
D03*
X825906Y187402D02*
D03*
X812520D02*
D03*
X825906Y190551D02*
D03*
X812520D02*
D03*
X825906Y193701D02*
D03*
X812520D02*
D03*
X825906Y196850D02*
D03*
X812520D02*
D03*
X825906Y200000D02*
D03*
X812520D02*
D03*
X825906Y203150D02*
D03*
X812520D02*
D03*
X825906Y206299D02*
D03*
X812520D02*
D03*
X825906Y209449D02*
D03*
X812520D02*
D03*
X825906Y212598D02*
D03*
X812520D02*
D03*
X825906Y215748D02*
D03*
X812520D02*
D03*
X825906Y218898D02*
D03*
X812520D02*
D03*
X825906Y222047D02*
D03*
X812520D02*
D03*
X825906Y225197D02*
D03*
X812520D02*
D03*
X825906Y228346D02*
D03*
X812520D02*
D03*
X825906Y231496D02*
D03*
X812520D02*
D03*
X825906Y234646D02*
D03*
X812520D02*
D03*
X825906Y237795D02*
D03*
X812520D02*
D03*
X825906Y253543D02*
D03*
X812520D02*
D03*
X825906Y256693D02*
D03*
X812520D02*
D03*
X825906Y259842D02*
D03*
X812520D02*
D03*
X825906Y262992D02*
D03*
X812520D02*
D03*
X825906Y266142D02*
D03*
X812520D02*
D03*
X825906Y269291D02*
D03*
X812520D02*
D03*
X825906Y272441D02*
D03*
X812520D02*
D03*
X825906Y275591D02*
D03*
X812520D02*
D03*
X825906Y278740D02*
D03*
X812520D02*
D03*
X825906Y281890D02*
D03*
X812520D02*
D03*
X825906Y285039D02*
D03*
X812520D02*
D03*
X825906Y288189D02*
D03*
X812520D02*
D03*
X825906Y291339D02*
D03*
X812520D02*
D03*
X825906Y294488D02*
D03*
X812520D02*
D03*
X825906Y297638D02*
D03*
X812520D02*
D03*
X825906Y300787D02*
D03*
X812520D02*
D03*
X825906Y303937D02*
D03*
X812520D02*
D03*
X825906Y307087D02*
D03*
X812520D02*
D03*
X825906Y310236D02*
D03*
X812520D02*
D03*
X825906Y313386D02*
D03*
X812520D02*
D03*
X825906Y316535D02*
D03*
X812520D02*
D03*
X825906Y319685D02*
D03*
X812520D02*
D03*
X825906Y322835D02*
D03*
X812520D02*
D03*
X825906Y325984D02*
D03*
X812520D02*
D03*
X825906Y329134D02*
D03*
X812520D02*
D03*
X825906Y332283D02*
D03*
X812520D02*
D03*
X825906Y335433D02*
D03*
X812520D02*
D03*
X692520Y319685D02*
D03*
X705905D02*
D03*
X692520Y316535D02*
D03*
X705905D02*
D03*
X692520Y313386D02*
D03*
X705905D02*
D03*
X692520Y310236D02*
D03*
X705905D02*
D03*
X692520Y307087D02*
D03*
X705905D02*
D03*
X692520Y303937D02*
D03*
X705905D02*
D03*
X692520Y300787D02*
D03*
X705905D02*
D03*
X692520Y297638D02*
D03*
X705905D02*
D03*
X692520Y294488D02*
D03*
X705905D02*
D03*
X692520Y291339D02*
D03*
X705905D02*
D03*
X692520Y288189D02*
D03*
X705905D02*
D03*
X692520Y285039D02*
D03*
X705905D02*
D03*
X692520Y281890D02*
D03*
X705905D02*
D03*
X692520Y278740D02*
D03*
X705905D02*
D03*
X692520Y275591D02*
D03*
X705905D02*
D03*
X692520Y272441D02*
D03*
X705905D02*
D03*
X692520Y269291D02*
D03*
X705905D02*
D03*
X692520Y266142D02*
D03*
X705905D02*
D03*
X692520Y262992D02*
D03*
X705905D02*
D03*
X692520Y259842D02*
D03*
X705905D02*
D03*
X692520Y256693D02*
D03*
X705905D02*
D03*
X692520Y253543D02*
D03*
X705905D02*
D03*
X692520Y237795D02*
D03*
X705905D02*
D03*
X692520Y234646D02*
D03*
X705905D02*
D03*
X692520Y231496D02*
D03*
X705905D02*
D03*
X692520Y228346D02*
D03*
X705905D02*
D03*
X692520Y225197D02*
D03*
X705905D02*
D03*
X692520Y222047D02*
D03*
X705905D02*
D03*
X692520Y218898D02*
D03*
X705905D02*
D03*
X692520Y215748D02*
D03*
X705905D02*
D03*
X692520Y212598D02*
D03*
X705905D02*
D03*
X692520Y209449D02*
D03*
X705905D02*
D03*
X692520Y206299D02*
D03*
X705905D02*
D03*
X692520Y203150D02*
D03*
X705905D02*
D03*
X692520Y200000D02*
D03*
X705905D02*
D03*
X692520Y196850D02*
D03*
X705905D02*
D03*
X692520Y193701D02*
D03*
X705905D02*
D03*
X692520Y190551D02*
D03*
X705905D02*
D03*
X692520Y187402D02*
D03*
X705905D02*
D03*
X692520Y184252D02*
D03*
X705905D02*
D03*
X452520Y319685D02*
D03*
X465906D02*
D03*
X452520Y316535D02*
D03*
X465906D02*
D03*
X452520Y313386D02*
D03*
X465906D02*
D03*
X452520Y310236D02*
D03*
X465906D02*
D03*
X452520Y307087D02*
D03*
X465906D02*
D03*
X452520Y303937D02*
D03*
X465906D02*
D03*
X452520Y300787D02*
D03*
X465906D02*
D03*
X452520Y297638D02*
D03*
X465906D02*
D03*
X452520Y294488D02*
D03*
X465906D02*
D03*
X452520Y291339D02*
D03*
X465906D02*
D03*
X452520Y288189D02*
D03*
X465906D02*
D03*
X452520Y285039D02*
D03*
X465906D02*
D03*
X452520Y281890D02*
D03*
X465906D02*
D03*
X452520Y278740D02*
D03*
X465906D02*
D03*
X452520Y275590D02*
D03*
X465906D02*
D03*
X452520Y272441D02*
D03*
X465906D02*
D03*
X452520Y269291D02*
D03*
X465906D02*
D03*
X452520Y266142D02*
D03*
X465906D02*
D03*
X452520Y262992D02*
D03*
X465906D02*
D03*
X452520Y259842D02*
D03*
X465906D02*
D03*
X452520Y256693D02*
D03*
X465906D02*
D03*
X452520Y253543D02*
D03*
X465906D02*
D03*
X452520Y237795D02*
D03*
X465906D02*
D03*
X452520Y234646D02*
D03*
X465906D02*
D03*
X452520Y231496D02*
D03*
X465906D02*
D03*
X452520Y228346D02*
D03*
X465906D02*
D03*
X452520Y225197D02*
D03*
X465906D02*
D03*
X452520Y222047D02*
D03*
X465906D02*
D03*
X452520Y218898D02*
D03*
X465906D02*
D03*
X452520Y215748D02*
D03*
X465906D02*
D03*
X452520Y212598D02*
D03*
X465906D02*
D03*
X452520Y209449D02*
D03*
X465906D02*
D03*
X452520Y206299D02*
D03*
X465906D02*
D03*
X452520Y203150D02*
D03*
X465906D02*
D03*
X452520Y200000D02*
D03*
X465906D02*
D03*
X452520Y196850D02*
D03*
X465906D02*
D03*
X452520Y193701D02*
D03*
X465906D02*
D03*
X452520Y190551D02*
D03*
X465906D02*
D03*
X452520Y187402D02*
D03*
X465906D02*
D03*
X452520Y184252D02*
D03*
X465906D02*
D03*
X585906Y184252D02*
D03*
X572520D02*
D03*
X585906Y187402D02*
D03*
X572520D02*
D03*
X585906Y190551D02*
D03*
X572520D02*
D03*
X585906Y193701D02*
D03*
X572520D02*
D03*
X585906Y196850D02*
D03*
X572520D02*
D03*
X585906Y200000D02*
D03*
X572520D02*
D03*
X585906Y203150D02*
D03*
X572520D02*
D03*
X585906Y206299D02*
D03*
X572520D02*
D03*
X585906Y209449D02*
D03*
X572520D02*
D03*
X585906Y212598D02*
D03*
X572520D02*
D03*
X585906Y215748D02*
D03*
X572520D02*
D03*
X585906Y218898D02*
D03*
X572520D02*
D03*
X585906Y222047D02*
D03*
X572520D02*
D03*
X585906Y225197D02*
D03*
X572520D02*
D03*
X585906Y228346D02*
D03*
X572520D02*
D03*
X585906Y231496D02*
D03*
X572520D02*
D03*
X585906Y234646D02*
D03*
X572520D02*
D03*
X585906Y237795D02*
D03*
X572520D02*
D03*
X585906Y253543D02*
D03*
X572520D02*
D03*
X585906Y256693D02*
D03*
X572520D02*
D03*
X585906Y259842D02*
D03*
X572520D02*
D03*
X585906Y262992D02*
D03*
X572520D02*
D03*
X585906Y266142D02*
D03*
X572520D02*
D03*
X585906Y269291D02*
D03*
X572520D02*
D03*
X585906Y272441D02*
D03*
X572520D02*
D03*
X585906Y275591D02*
D03*
X572520D02*
D03*
X585906Y278740D02*
D03*
X572520D02*
D03*
X585906Y281890D02*
D03*
X572520D02*
D03*
X585906Y285039D02*
D03*
X572520D02*
D03*
X585906Y288189D02*
D03*
X572520D02*
D03*
X585906Y291339D02*
D03*
X572520D02*
D03*
X585906Y294488D02*
D03*
X572520D02*
D03*
X585906Y297638D02*
D03*
X572520D02*
D03*
X585906Y300787D02*
D03*
X572520D02*
D03*
X585906Y303937D02*
D03*
X572520D02*
D03*
X585906Y307087D02*
D03*
X572520D02*
D03*
X585906Y310236D02*
D03*
X572520D02*
D03*
X585906Y313386D02*
D03*
X572520D02*
D03*
X585906Y316535D02*
D03*
X572520D02*
D03*
X585906Y319685D02*
D03*
X572520D02*
D03*
X1305906Y168504D02*
D03*
X1292520D02*
D03*
X1305906Y171653D02*
D03*
X1292520D02*
D03*
X1305906Y174803D02*
D03*
X1292520D02*
D03*
X1305906Y177953D02*
D03*
X1292520D02*
D03*
X1305906Y181102D02*
D03*
X1292520D02*
D03*
X1305906Y184252D02*
D03*
X1292520D02*
D03*
X1305906Y187401D02*
D03*
X1292520D02*
D03*
X1305906Y190551D02*
D03*
X1292520D02*
D03*
X1305906Y193701D02*
D03*
X1292520D02*
D03*
X1305906Y196850D02*
D03*
X1292520D02*
D03*
X1305906Y200000D02*
D03*
X1292520D02*
D03*
X1305906Y203150D02*
D03*
X1292520D02*
D03*
X1305906Y206299D02*
D03*
X1292520D02*
D03*
X1305906Y209449D02*
D03*
X1292520D02*
D03*
X1305906Y212598D02*
D03*
X1292520D02*
D03*
X1305906Y215748D02*
D03*
X1292520D02*
D03*
X1305906Y218898D02*
D03*
X1292520D02*
D03*
X1305906Y222047D02*
D03*
X1292520D02*
D03*
X1305906Y225197D02*
D03*
X1292520D02*
D03*
X1305906Y228346D02*
D03*
X1292520D02*
D03*
X1305906Y231496D02*
D03*
X1292520D02*
D03*
X1305906Y234646D02*
D03*
X1292520D02*
D03*
X1305906Y237795D02*
D03*
X1292520D02*
D03*
X1305906Y253543D02*
D03*
X1292520D02*
D03*
X1305906Y256693D02*
D03*
X1292520D02*
D03*
X1305906Y259842D02*
D03*
X1292520D02*
D03*
X1305906Y262992D02*
D03*
X1292520D02*
D03*
X1305906Y266142D02*
D03*
X1292520D02*
D03*
X1305906Y269291D02*
D03*
X1292520D02*
D03*
X1305906Y272441D02*
D03*
X1292520D02*
D03*
X1305906Y275590D02*
D03*
X1292520D02*
D03*
X1305906Y278740D02*
D03*
X1292520D02*
D03*
X1305906Y281890D02*
D03*
X1292520D02*
D03*
X1305906Y285039D02*
D03*
X1292520D02*
D03*
X1305906Y288189D02*
D03*
X1292520D02*
D03*
X1305906Y291339D02*
D03*
X1292520D02*
D03*
X1305906Y294488D02*
D03*
X1292520D02*
D03*
X1305906Y297638D02*
D03*
X1292520D02*
D03*
X1305906Y300787D02*
D03*
X1292520D02*
D03*
X1305906Y303937D02*
D03*
X1292520D02*
D03*
X1305906Y307087D02*
D03*
X1292520D02*
D03*
X1305906Y310236D02*
D03*
X1292520D02*
D03*
X1305906Y313386D02*
D03*
X1292520D02*
D03*
X1305906Y316535D02*
D03*
X1292520D02*
D03*
X1305906Y319685D02*
D03*
X1292520D02*
D03*
X1305906Y322835D02*
D03*
X1292520D02*
D03*
X1305906Y325984D02*
D03*
X1292520D02*
D03*
X1305906Y329134D02*
D03*
X1292520D02*
D03*
X1305906Y332283D02*
D03*
X1292520D02*
D03*
X1305906Y335433D02*
D03*
X1292520D02*
D03*
X1172520Y335433D02*
D03*
X1185905D02*
D03*
X1172520Y332283D02*
D03*
X1185905D02*
D03*
X1172520Y329134D02*
D03*
X1185905D02*
D03*
X1172520Y325984D02*
D03*
X1185905D02*
D03*
X1172520Y322835D02*
D03*
X1185905D02*
D03*
X1172520Y319685D02*
D03*
X1185905D02*
D03*
X1172520Y316535D02*
D03*
X1185905D02*
D03*
X1172520Y313386D02*
D03*
X1185905D02*
D03*
X1172520Y310236D02*
D03*
X1185905D02*
D03*
X1172520Y307087D02*
D03*
X1185905D02*
D03*
X1172520Y303937D02*
D03*
X1185905D02*
D03*
X1172520Y300787D02*
D03*
X1185905D02*
D03*
X1172520Y297638D02*
D03*
X1185905D02*
D03*
X1172520Y294488D02*
D03*
X1185905D02*
D03*
X1172520Y291339D02*
D03*
X1185905D02*
D03*
X1172520Y288189D02*
D03*
X1185905D02*
D03*
X1172520Y285039D02*
D03*
X1185905D02*
D03*
X1172520Y281890D02*
D03*
X1185905D02*
D03*
X1172520Y278740D02*
D03*
X1185905D02*
D03*
X1172520Y275591D02*
D03*
X1185905D02*
D03*
X1172520Y272441D02*
D03*
X1185905D02*
D03*
X1172520Y269291D02*
D03*
X1185905D02*
D03*
X1172520Y266142D02*
D03*
X1185905D02*
D03*
X1172520Y262992D02*
D03*
X1185905D02*
D03*
X1172520Y259842D02*
D03*
X1185905D02*
D03*
X1172520Y256693D02*
D03*
X1185905D02*
D03*
X1172520Y253543D02*
D03*
X1185905D02*
D03*
X1172520Y237795D02*
D03*
X1185905D02*
D03*
X1172520Y234646D02*
D03*
X1185905D02*
D03*
X1172520Y231496D02*
D03*
X1185905D02*
D03*
X1172520Y228346D02*
D03*
X1185905D02*
D03*
X1172520Y225197D02*
D03*
X1185905D02*
D03*
X1172520Y222047D02*
D03*
X1185905D02*
D03*
X1172520Y218898D02*
D03*
X1185905D02*
D03*
X1172520Y215748D02*
D03*
X1185905D02*
D03*
X1172520Y212598D02*
D03*
X1185905D02*
D03*
X1172520Y209449D02*
D03*
X1185905D02*
D03*
X1172520Y206299D02*
D03*
X1185905D02*
D03*
X1172520Y203150D02*
D03*
X1185905D02*
D03*
X1172520Y200000D02*
D03*
X1185905D02*
D03*
X1172520Y196850D02*
D03*
X1185905D02*
D03*
X1172520Y193701D02*
D03*
X1185905D02*
D03*
X1172520Y190551D02*
D03*
X1185905D02*
D03*
X1172520Y187402D02*
D03*
X1185905D02*
D03*
X1172520Y184252D02*
D03*
X1185905D02*
D03*
X1172520Y181102D02*
D03*
X1185905D02*
D03*
X1172520Y177953D02*
D03*
X1185905D02*
D03*
X1172520Y174803D02*
D03*
X1185905D02*
D03*
X1172520Y171653D02*
D03*
X1185905D02*
D03*
X1172520Y168504D02*
D03*
X1185905D02*
D03*
X1065905D02*
D03*
X1052520D02*
D03*
X1065905Y171653D02*
D03*
X1052520D02*
D03*
X1065905Y174803D02*
D03*
X1052520D02*
D03*
X1065905Y177953D02*
D03*
X1052520D02*
D03*
X1065905Y181102D02*
D03*
X1052520D02*
D03*
X1065905Y184252D02*
D03*
X1052520D02*
D03*
X1065905Y187402D02*
D03*
X1052520D02*
D03*
X1065905Y190551D02*
D03*
X1052520D02*
D03*
X1065905Y193701D02*
D03*
X1052520D02*
D03*
X1065905Y196850D02*
D03*
X1052520D02*
D03*
X1065905Y200000D02*
D03*
X1052520D02*
D03*
X1065905Y203150D02*
D03*
X1052520D02*
D03*
X1065905Y206299D02*
D03*
X1052520D02*
D03*
X1065905Y209449D02*
D03*
X1052520D02*
D03*
X1065905Y212598D02*
D03*
X1052520D02*
D03*
X1065905Y215748D02*
D03*
X1052520D02*
D03*
X1065905Y218898D02*
D03*
X1052520D02*
D03*
X1065905Y222047D02*
D03*
X1052520D02*
D03*
X1065905Y225197D02*
D03*
X1052520D02*
D03*
X1065905Y228346D02*
D03*
X1052520D02*
D03*
X1065905Y231496D02*
D03*
X1052520D02*
D03*
X1065905Y234646D02*
D03*
X1052520D02*
D03*
X1065905Y237795D02*
D03*
X1052520D02*
D03*
X1065905Y253543D02*
D03*
X1052520D02*
D03*
X1065905Y256693D02*
D03*
X1052520D02*
D03*
X1065905Y259842D02*
D03*
X1052520D02*
D03*
X1065905Y262992D02*
D03*
X1052520D02*
D03*
X1065905Y266142D02*
D03*
X1052520D02*
D03*
X1065905Y269291D02*
D03*
X1052520D02*
D03*
X1065905Y272441D02*
D03*
X1052520D02*
D03*
X1065905Y275591D02*
D03*
X1052520D02*
D03*
X1065905Y278740D02*
D03*
X1052520D02*
D03*
X1065905Y281890D02*
D03*
X1052520D02*
D03*
X1065905Y285039D02*
D03*
X1052520D02*
D03*
X1065905Y288189D02*
D03*
X1052520D02*
D03*
X1065905Y291339D02*
D03*
X1052520D02*
D03*
X1065905Y294488D02*
D03*
X1052520D02*
D03*
X1065905Y297638D02*
D03*
X1052520D02*
D03*
X1065905Y300787D02*
D03*
X1052520D02*
D03*
X1065905Y303937D02*
D03*
X1052520D02*
D03*
X1065905Y307087D02*
D03*
X1052520D02*
D03*
X1065905Y310236D02*
D03*
X1052520D02*
D03*
X1065905Y313386D02*
D03*
X1052520D02*
D03*
X1065905Y316535D02*
D03*
X1052520D02*
D03*
X1065905Y319685D02*
D03*
X1052520D02*
D03*
X1065905Y322835D02*
D03*
X1052520D02*
D03*
X1065905Y325984D02*
D03*
X1052520D02*
D03*
X1065905Y329134D02*
D03*
X1052520D02*
D03*
X1065905Y332283D02*
D03*
X1052520D02*
D03*
X1065905Y335433D02*
D03*
X1052520D02*
D03*
X932520D02*
D03*
X945905D02*
D03*
X932520Y332283D02*
D03*
X945905D02*
D03*
X932520Y329134D02*
D03*
X945905D02*
D03*
X932520Y325984D02*
D03*
X945905D02*
D03*
X932520Y322835D02*
D03*
X945905D02*
D03*
X932520Y319685D02*
D03*
X945905D02*
D03*
X932520Y316535D02*
D03*
X945905D02*
D03*
X932520Y313386D02*
D03*
X945905D02*
D03*
X932520Y310236D02*
D03*
X945905D02*
D03*
X932520Y307087D02*
D03*
X945905D02*
D03*
X932520Y303937D02*
D03*
X945905D02*
D03*
X932520Y300787D02*
D03*
X945905D02*
D03*
X932520Y297638D02*
D03*
X945905D02*
D03*
X932520Y294488D02*
D03*
X945905D02*
D03*
X932520Y291339D02*
D03*
X945905D02*
D03*
X932520Y288189D02*
D03*
X945905D02*
D03*
X932520Y285039D02*
D03*
X945905D02*
D03*
X932520Y281890D02*
D03*
X945905D02*
D03*
X932520Y278740D02*
D03*
X945905D02*
D03*
X932520Y275591D02*
D03*
X945905D02*
D03*
X932520Y272441D02*
D03*
X945905D02*
D03*
X932520Y269291D02*
D03*
X945905D02*
D03*
X932520Y266142D02*
D03*
X945905D02*
D03*
X932520Y262992D02*
D03*
X945905D02*
D03*
X932520Y259842D02*
D03*
X945905D02*
D03*
X932520Y256693D02*
D03*
X945905D02*
D03*
X932520Y253543D02*
D03*
X945905D02*
D03*
X932520Y237795D02*
D03*
X945905D02*
D03*
X932520Y234646D02*
D03*
X945905D02*
D03*
X932520Y231496D02*
D03*
X945905D02*
D03*
X932520Y228346D02*
D03*
X945905D02*
D03*
X932520Y225197D02*
D03*
X945905D02*
D03*
X932520Y222047D02*
D03*
X945905D02*
D03*
X932520Y218898D02*
D03*
X945905D02*
D03*
X932520Y215748D02*
D03*
X945905D02*
D03*
X932520Y212598D02*
D03*
X945905D02*
D03*
X932520Y209449D02*
D03*
X945905D02*
D03*
X932520Y206299D02*
D03*
X945905D02*
D03*
X932520Y203150D02*
D03*
X945905D02*
D03*
X932520Y200000D02*
D03*
X945905D02*
D03*
X932520Y196850D02*
D03*
X945905D02*
D03*
X932520Y193701D02*
D03*
X945905D02*
D03*
X932520Y190551D02*
D03*
X945905D02*
D03*
X932520Y187402D02*
D03*
X945905D02*
D03*
X932520Y184252D02*
D03*
X945905D02*
D03*
X932520Y181102D02*
D03*
X945905D02*
D03*
X932520Y177953D02*
D03*
X945905D02*
D03*
X932520Y174803D02*
D03*
X945905D02*
D03*
X932520Y171653D02*
D03*
X945905D02*
D03*
X932520Y168504D02*
D03*
X945905D02*
D03*
D30*
X1193139Y446496D02*
D03*
X1203139D02*
D03*
X1213139D02*
D03*
X1223139D02*
D03*
X1233139D02*
D03*
X1243139D02*
D03*
X1253139D02*
D03*
X1263139D02*
D03*
X1273139D02*
D03*
X1283139D02*
D03*
X1193139Y421996D02*
D03*
X1203139D02*
D03*
X1213139D02*
D03*
X1223139D02*
D03*
X1233139D02*
D03*
X1243139D02*
D03*
X1253139D02*
D03*
X1263139D02*
D03*
X1273139D02*
D03*
X1283139D02*
D03*
D31*
X507803Y412340D02*
D03*
D32*
X516563Y408403D02*
D03*
Y410372D02*
D03*
Y412340D02*
D03*
Y414309D02*
D03*
X499043Y408403D02*
D03*
Y410372D02*
D03*
Y412340D02*
D03*
Y414309D02*
D03*
Y416277D02*
D03*
X516563D02*
D03*
D33*
X414856Y429852D02*
D03*
X412887D02*
D03*
X410919D02*
D03*
X408950D02*
D03*
Y418828D02*
D03*
X410919D02*
D03*
X412887D02*
D03*
X414856D02*
D03*
D34*
X406391Y427293D02*
D03*
Y425324D02*
D03*
Y423356D02*
D03*
Y421387D02*
D03*
X417415D02*
D03*
Y423356D02*
D03*
Y425324D02*
D03*
Y427293D02*
D03*
D35*
X456992Y108125D02*
D03*
X451992D02*
D03*
X446992D02*
D03*
X441992D02*
D03*
X436992D02*
D03*
X431992D02*
D03*
X426992D02*
D03*
X421992D02*
D03*
X456992Y72692D02*
D03*
X451992D02*
D03*
X446992D02*
D03*
X441992D02*
D03*
X436992D02*
D03*
X431992D02*
D03*
X426992D02*
D03*
X421992D02*
D03*
D36*
X83761Y357869D02*
D03*
D37*
X76084Y352947D02*
D03*
Y354916D02*
D03*
Y356884D02*
D03*
Y358853D02*
D03*
Y360821D02*
D03*
Y362790D02*
D03*
X91439D02*
D03*
Y360821D02*
D03*
Y358853D02*
D03*
Y356884D02*
D03*
Y354916D02*
D03*
Y352947D02*
D03*
D38*
X78840Y365546D02*
D03*
X80809D02*
D03*
X82777D02*
D03*
X84746D02*
D03*
X86714D02*
D03*
X88683D02*
D03*
Y350191D02*
D03*
X86714D02*
D03*
X84746D02*
D03*
X82777D02*
D03*
X80809D02*
D03*
X78840D02*
D03*
D39*
X310114Y471866D02*
D03*
X188933Y471819D02*
D03*
X249272Y471772D02*
D03*
D40*
X325114Y443106D02*
D03*
X320114D02*
D03*
X315114D02*
D03*
X310114D02*
D03*
X305114D02*
D03*
X300114D02*
D03*
X295114D02*
D03*
X203933Y443059D02*
D03*
X198933D02*
D03*
X193933D02*
D03*
X188933D02*
D03*
X183933D02*
D03*
X178933D02*
D03*
X173933D02*
D03*
X234272Y443012D02*
D03*
X239272D02*
D03*
X244272D02*
D03*
X249272D02*
D03*
X254272D02*
D03*
X259272D02*
D03*
X264272D02*
D03*
D41*
X500994Y134711D02*
D03*
X504734D02*
D03*
X508474D02*
D03*
Y145538D02*
D03*
X504734D02*
D03*
X500994D02*
D03*
X399252Y114995D02*
D03*
X402992D02*
D03*
X406732D02*
D03*
Y125822D02*
D03*
X402992D02*
D03*
X399252D02*
D03*
X603168Y145539D02*
D03*
X606908D02*
D03*
X610648D02*
D03*
Y134713D02*
D03*
X606908D02*
D03*
X603168D02*
D03*
D42*
X504891Y92740D02*
D03*
X514734D02*
D03*
X504734Y128724D02*
D03*
X514734D02*
D03*
X494734D02*
D03*
Y92740D02*
D03*
X403150Y71924D02*
D03*
X412992D02*
D03*
X402992Y107909D02*
D03*
X412992D02*
D03*
X392992D02*
D03*
Y71924D02*
D03*
X596908Y92742D02*
D03*
Y128726D02*
D03*
X616908D02*
D03*
X606908D02*
D03*
X616908Y92742D02*
D03*
X607065D02*
D03*
D43*
X508474Y77000D02*
D03*
X500994D02*
D03*
Y86449D02*
D03*
X504734D02*
D03*
X508474D02*
D03*
X406732Y55184D02*
D03*
X399252D02*
D03*
Y64633D02*
D03*
X402992D02*
D03*
X406732D02*
D03*
X610648Y86450D02*
D03*
X606908D02*
D03*
X603168D02*
D03*
Y77002D02*
D03*
X610648D02*
D03*
D44*
X525234Y90630D02*
D03*
X530234D02*
D03*
X535234D02*
D03*
X540234D02*
D03*
X545234D02*
D03*
X550234D02*
D03*
X555234D02*
D03*
X560234D02*
D03*
X525234Y128819D02*
D03*
X530234D02*
D03*
X535234D02*
D03*
X540234D02*
D03*
X545234D02*
D03*
X550234D02*
D03*
X555234D02*
D03*
X560234D02*
D03*
X662408Y128821D02*
D03*
X657408D02*
D03*
X652408D02*
D03*
X647408D02*
D03*
X642408D02*
D03*
X637408D02*
D03*
X632408D02*
D03*
X627408D02*
D03*
X662408Y90632D02*
D03*
X657408D02*
D03*
X652408D02*
D03*
X647408D02*
D03*
X642408D02*
D03*
X637408D02*
D03*
X632408D02*
D03*
X627408D02*
D03*
D45*
X859665Y161528D02*
D03*
Y156410D02*
D03*
X852185D02*
D03*
Y158968D02*
D03*
Y161528D02*
D03*
X1339665Y161528D02*
D03*
Y156410D02*
D03*
X1332185D02*
D03*
Y158969D02*
D03*
Y161528D02*
D03*
X1212185Y161528D02*
D03*
Y158968D02*
D03*
Y156410D02*
D03*
X1219665D02*
D03*
Y161528D02*
D03*
X1099665D02*
D03*
Y156410D02*
D03*
X1092185D02*
D03*
Y158968D02*
D03*
Y161528D02*
D03*
X972185D02*
D03*
Y158968D02*
D03*
Y156410D02*
D03*
X979665D02*
D03*
Y161528D02*
D03*
D46*
X43053Y289389D02*
D03*
D47*
X30257Y304901D02*
D03*
X32226D02*
D03*
X34194D02*
D03*
X36163D02*
D03*
X38131D02*
D03*
X40100D02*
D03*
X42068D02*
D03*
X44037D02*
D03*
X46005D02*
D03*
X47974D02*
D03*
X49942D02*
D03*
X51911D02*
D03*
X53879D02*
D03*
X55848D02*
D03*
Y273877D02*
D03*
X53879D02*
D03*
X51911D02*
D03*
X49942D02*
D03*
X47974D02*
D03*
X46005D02*
D03*
X44037D02*
D03*
X42068D02*
D03*
X40100D02*
D03*
X38131D02*
D03*
X36163D02*
D03*
X34194D02*
D03*
X32226D02*
D03*
X30257D02*
D03*
D48*
X58565Y302184D02*
D03*
Y300216D02*
D03*
Y298247D02*
D03*
Y296279D02*
D03*
Y294310D02*
D03*
Y292342D02*
D03*
Y290373D02*
D03*
Y288405D02*
D03*
Y286436D02*
D03*
Y284468D02*
D03*
Y282499D02*
D03*
Y280531D02*
D03*
Y278562D02*
D03*
Y276594D02*
D03*
X27541D02*
D03*
Y278562D02*
D03*
Y280531D02*
D03*
Y282499D02*
D03*
Y284468D02*
D03*
Y286436D02*
D03*
Y288405D02*
D03*
Y290373D02*
D03*
Y292342D02*
D03*
Y294310D02*
D03*
Y296279D02*
D03*
Y298247D02*
D03*
Y300216D02*
D03*
Y302184D02*
D03*
D49*
X883442Y296766D02*
D03*
Y304246D02*
D03*
X877536D02*
D03*
Y296766D02*
D03*
D50*
X61238Y50526D02*
D03*
Y41865D02*
D03*
X61216Y89668D02*
D03*
Y98329D02*
D03*
Y82329D02*
D03*
Y73668D02*
D03*
Y57668D02*
D03*
Y66329D02*
D03*
D51*
X857087Y208850D02*
D03*
Y219087D02*
D03*
X850000Y208850D02*
D03*
Y219087D02*
D03*
X1330000Y305087D02*
D03*
Y294850D02*
D03*
X1337087Y305087D02*
D03*
Y294850D02*
D03*
X1217087Y294850D02*
D03*
Y305087D02*
D03*
X1210000Y294850D02*
D03*
Y305087D02*
D03*
X1090000D02*
D03*
Y294850D02*
D03*
X1097087Y305087D02*
D03*
Y294850D02*
D03*
X977087D02*
D03*
Y305087D02*
D03*
X970000Y294850D02*
D03*
Y305087D02*
D03*
X850000D02*
D03*
Y294850D02*
D03*
X857087Y305087D02*
D03*
Y294850D02*
D03*
X1337087Y269850D02*
D03*
Y280087D02*
D03*
X1330000Y269850D02*
D03*
Y280087D02*
D03*
X1210000Y280087D02*
D03*
Y269850D02*
D03*
X1217087Y280087D02*
D03*
Y269850D02*
D03*
X1097087D02*
D03*
Y280087D02*
D03*
X1090000Y269850D02*
D03*
Y280087D02*
D03*
X970000D02*
D03*
Y269850D02*
D03*
X977087Y280087D02*
D03*
Y269850D02*
D03*
X857087D02*
D03*
Y280087D02*
D03*
X850000Y269850D02*
D03*
Y280087D02*
D03*
X1270945Y294850D02*
D03*
Y305087D02*
D03*
X1263858Y294850D02*
D03*
Y305087D02*
D03*
X1143858Y305087D02*
D03*
Y294850D02*
D03*
X1150945Y305087D02*
D03*
Y294850D02*
D03*
X1030945D02*
D03*
Y305087D02*
D03*
X1023858Y294850D02*
D03*
Y305087D02*
D03*
X903858D02*
D03*
Y294850D02*
D03*
X910945Y305087D02*
D03*
Y294850D02*
D03*
X790945D02*
D03*
Y305087D02*
D03*
X783858Y294850D02*
D03*
Y305087D02*
D03*
X1263858Y280087D02*
D03*
Y269850D02*
D03*
X1270945Y280087D02*
D03*
Y269850D02*
D03*
X1150945Y269850D02*
D03*
Y280087D02*
D03*
X1143858Y269850D02*
D03*
Y280087D02*
D03*
X1023858D02*
D03*
Y269850D02*
D03*
X1030945Y280087D02*
D03*
Y269850D02*
D03*
X910945D02*
D03*
Y280087D02*
D03*
X903858Y269850D02*
D03*
Y280087D02*
D03*
X783858D02*
D03*
Y269850D02*
D03*
X790945Y280087D02*
D03*
Y269850D02*
D03*
X1270945Y239850D02*
D03*
Y250087D02*
D03*
X1263858Y239850D02*
D03*
Y250087D02*
D03*
X1143858Y250087D02*
D03*
Y239850D02*
D03*
X1150945Y250087D02*
D03*
Y239850D02*
D03*
X1030945D02*
D03*
Y250087D02*
D03*
X1023858Y239850D02*
D03*
Y250087D02*
D03*
X903858D02*
D03*
Y239850D02*
D03*
X910945Y250087D02*
D03*
Y239850D02*
D03*
X790945D02*
D03*
Y250087D02*
D03*
X783858Y239850D02*
D03*
Y250087D02*
D03*
X1263858Y219087D02*
D03*
Y208850D02*
D03*
X1270945Y219087D02*
D03*
Y208850D02*
D03*
X1150945Y208850D02*
D03*
Y219087D02*
D03*
X1143858Y208850D02*
D03*
Y219087D02*
D03*
X1023858D02*
D03*
Y208850D02*
D03*
X1030945Y219087D02*
D03*
Y208850D02*
D03*
X910945D02*
D03*
Y219087D02*
D03*
X903858Y208850D02*
D03*
Y219087D02*
D03*
X783858D02*
D03*
Y208850D02*
D03*
X790945Y219087D02*
D03*
Y208850D02*
D03*
X1330000Y250087D02*
D03*
Y239850D02*
D03*
X1337087Y250087D02*
D03*
Y239850D02*
D03*
X1217087Y239850D02*
D03*
Y250087D02*
D03*
X1210000Y239850D02*
D03*
Y250087D02*
D03*
X1090000D02*
D03*
Y239850D02*
D03*
X1097087Y250087D02*
D03*
Y239850D02*
D03*
X977087D02*
D03*
Y250087D02*
D03*
X970000Y239850D02*
D03*
Y250087D02*
D03*
X850000D02*
D03*
Y239850D02*
D03*
X857087Y250087D02*
D03*
Y239850D02*
D03*
X1337087Y208850D02*
D03*
Y219087D02*
D03*
X1330000Y208850D02*
D03*
Y219087D02*
D03*
X1210000Y219087D02*
D03*
Y208850D02*
D03*
X1217087Y219087D02*
D03*
Y208850D02*
D03*
X1097087D02*
D03*
Y219087D02*
D03*
X1090000Y208850D02*
D03*
Y219087D02*
D03*
X970000D02*
D03*
Y208850D02*
D03*
X977087Y219087D02*
D03*
Y208850D02*
D03*
D52*
X857087Y212394D02*
D03*
Y215543D02*
D03*
X850000Y212394D02*
D03*
Y215543D02*
D03*
X1330000Y301543D02*
D03*
Y298394D02*
D03*
X1337087Y301543D02*
D03*
Y298394D02*
D03*
X1217087Y298394D02*
D03*
Y301543D02*
D03*
X1210000Y298394D02*
D03*
Y301543D02*
D03*
X1090000D02*
D03*
Y298394D02*
D03*
X1097087Y301543D02*
D03*
Y298394D02*
D03*
X977087D02*
D03*
Y301543D02*
D03*
X970000Y298394D02*
D03*
Y301543D02*
D03*
X850000D02*
D03*
Y298394D02*
D03*
X857087Y301543D02*
D03*
Y298394D02*
D03*
X1337087Y273394D02*
D03*
Y276543D02*
D03*
X1330000Y273394D02*
D03*
Y276543D02*
D03*
X1210000Y276543D02*
D03*
Y273394D02*
D03*
X1217087Y276543D02*
D03*
Y273394D02*
D03*
X1097087D02*
D03*
Y276543D02*
D03*
X1090000Y273394D02*
D03*
Y276543D02*
D03*
X970000D02*
D03*
Y273394D02*
D03*
X977087Y276543D02*
D03*
Y273394D02*
D03*
X857087D02*
D03*
Y276543D02*
D03*
X850000Y273394D02*
D03*
Y276543D02*
D03*
X1270945Y298394D02*
D03*
Y301543D02*
D03*
X1263858Y298394D02*
D03*
Y301543D02*
D03*
X1143858Y301543D02*
D03*
Y298394D02*
D03*
X1150945Y301543D02*
D03*
Y298394D02*
D03*
X1030945D02*
D03*
Y301543D02*
D03*
X1023858Y298394D02*
D03*
Y301543D02*
D03*
X903858D02*
D03*
Y298394D02*
D03*
X910945Y301543D02*
D03*
Y298394D02*
D03*
X790945D02*
D03*
Y301543D02*
D03*
X783858Y298394D02*
D03*
Y301543D02*
D03*
X1263858Y276543D02*
D03*
Y273394D02*
D03*
X1270945Y276543D02*
D03*
Y273394D02*
D03*
X1150945Y273394D02*
D03*
Y276543D02*
D03*
X1143858Y273394D02*
D03*
Y276543D02*
D03*
X1023858D02*
D03*
Y273394D02*
D03*
X1030945Y276543D02*
D03*
Y273394D02*
D03*
X910945D02*
D03*
Y276543D02*
D03*
X903858Y273394D02*
D03*
Y276543D02*
D03*
X783858D02*
D03*
Y273394D02*
D03*
X790945Y276543D02*
D03*
Y273394D02*
D03*
X1270945Y243394D02*
D03*
Y246543D02*
D03*
X1263858Y243394D02*
D03*
Y246543D02*
D03*
X1143858Y246543D02*
D03*
Y243394D02*
D03*
X1150945Y246543D02*
D03*
Y243394D02*
D03*
X1030945D02*
D03*
Y246543D02*
D03*
X1023858Y243394D02*
D03*
Y246543D02*
D03*
X903858D02*
D03*
Y243394D02*
D03*
X910945Y246543D02*
D03*
Y243394D02*
D03*
X790945D02*
D03*
Y246543D02*
D03*
X783858Y243394D02*
D03*
Y246543D02*
D03*
X1263858Y215543D02*
D03*
Y212394D02*
D03*
X1270945Y215543D02*
D03*
Y212394D02*
D03*
X1150945Y212394D02*
D03*
Y215543D02*
D03*
X1143858Y212394D02*
D03*
Y215543D02*
D03*
X1023858D02*
D03*
Y212394D02*
D03*
X1030945Y215543D02*
D03*
Y212394D02*
D03*
X910945D02*
D03*
Y215543D02*
D03*
X903858Y212394D02*
D03*
Y215543D02*
D03*
X783858D02*
D03*
Y212394D02*
D03*
X790945Y215543D02*
D03*
Y212394D02*
D03*
X1330000Y246543D02*
D03*
Y243394D02*
D03*
X1337087Y246543D02*
D03*
Y243394D02*
D03*
X1217087Y243394D02*
D03*
Y246543D02*
D03*
X1210000Y243394D02*
D03*
Y246543D02*
D03*
X1090000D02*
D03*
Y243394D02*
D03*
X1097087Y246543D02*
D03*
Y243394D02*
D03*
X977087D02*
D03*
Y246543D02*
D03*
X970000Y243394D02*
D03*
Y246543D02*
D03*
X850000D02*
D03*
Y243394D02*
D03*
X857087Y246543D02*
D03*
Y243394D02*
D03*
X1337087Y212394D02*
D03*
Y215543D02*
D03*
X1330000Y212394D02*
D03*
Y215543D02*
D03*
X1210000Y215543D02*
D03*
Y212394D02*
D03*
X1217087Y215543D02*
D03*
Y212394D02*
D03*
X1097087D02*
D03*
Y215543D02*
D03*
X1090000Y212394D02*
D03*
Y215543D02*
D03*
X970000D02*
D03*
Y212394D02*
D03*
X977087Y215543D02*
D03*
Y212394D02*
D03*
D53*
X539603Y420924D02*
D03*
Y433956D02*
D03*
D54*
X429403Y433505D02*
D03*
Y424175D02*
D03*
D55*
X285696Y418679D02*
D03*
Y408442D02*
D03*
X164161Y426429D02*
D03*
Y416193D02*
D03*
X225472Y408531D02*
D03*
Y418767D02*
D03*
D56*
X548098Y66343D02*
D03*
Y75201D02*
D03*
X533728Y66343D02*
D03*
Y75203D02*
D03*
X635902Y75204D02*
D03*
Y66344D02*
D03*
X650273Y75202D02*
D03*
Y66344D02*
D03*
D57*
X872099Y290484D02*
D03*
X877690D02*
D03*
D58*
X25258Y334573D02*
D03*
D59*
X26143Y379140D02*
D03*
D60*
X24765Y344061D02*
D03*
Y348392D02*
D03*
Y352723D02*
D03*
Y357053D02*
D03*
Y361384D02*
D03*
Y365715D02*
D03*
Y370046D02*
D03*
Y374376D02*
D03*
D61*
X49273Y333884D02*
D03*
X63840D02*
D03*
D62*
X67679Y370774D02*
D03*
Y348058D02*
D03*
D63*
X127949Y472512D02*
D03*
X144760D02*
D03*
D64*
X127356Y428977D02*
D03*
X119482Y425237D02*
D03*
Y432717D02*
D03*
X156368Y467662D02*
D03*
X164242Y471402D02*
D03*
Y463921D02*
D03*
D65*
X520290Y430096D02*
D03*
X502573D02*
D03*
D66*
X515734Y77835D02*
D03*
Y86614D02*
D03*
X69216Y99388D02*
D03*
Y90609D02*
D03*
Y74609D02*
D03*
Y83388D02*
D03*
Y67388D02*
D03*
Y58609D02*
D03*
X69238Y42805D02*
D03*
Y51585D02*
D03*
X392992Y65798D02*
D03*
Y57019D02*
D03*
X412992Y56519D02*
D03*
Y65298D02*
D03*
X596408Y86616D02*
D03*
Y77836D02*
D03*
X494234Y77835D02*
D03*
Y86614D02*
D03*
X617908Y86616D02*
D03*
Y77836D02*
D03*
D67*
X555451Y72941D02*
D03*
Y65067D02*
D03*
X563522Y69004D02*
D03*
X665696Y69006D02*
D03*
X657625Y65069D02*
D03*
Y72943D02*
D03*
D68*
X840831Y169075D02*
D03*
X855398D02*
D03*
X1320831Y169075D02*
D03*
X1335398D02*
D03*
X1215398Y169075D02*
D03*
X1200831D02*
D03*
X1080831D02*
D03*
X1095398D02*
D03*
X975398D02*
D03*
X960831D02*
D03*
D69*
X405347Y412240D02*
D03*
X410859D02*
D03*
X281890Y29528D02*
D03*
X276378D02*
D03*
X918588Y57414D02*
D03*
X924100D02*
D03*
X857588D02*
D03*
X863100D02*
D03*
X241732Y29921D02*
D03*
X236221D02*
D03*
X658268Y402362D02*
D03*
X663779D02*
D03*
X619685Y401181D02*
D03*
X614173D02*
D03*
X132972Y12894D02*
D03*
X127461D02*
D03*
X172441Y12205D02*
D03*
X177953D02*
D03*
X160236Y63779D02*
D03*
X154724D02*
D03*
X737358Y409051D02*
D03*
X742870D02*
D03*
X733514Y409031D02*
D03*
X728002D02*
D03*
X124112Y444690D02*
D03*
X129624D02*
D03*
X137808Y136341D02*
D03*
X132296D02*
D03*
X406748Y44909D02*
D03*
X401236D02*
D03*
X401236Y49909D02*
D03*
X406748D02*
D03*
X246702Y121291D02*
D03*
X252213D02*
D03*
X268499Y119595D02*
D03*
X274011D02*
D03*
X93321Y344865D02*
D03*
X87809D02*
D03*
X179350Y433280D02*
D03*
X173839D02*
D03*
X234583Y433240D02*
D03*
X240094D02*
D03*
X300437Y433335D02*
D03*
X294925D02*
D03*
X602414Y67995D02*
D03*
X607926D02*
D03*
X505752Y67993D02*
D03*
X500240D02*
D03*
X607926Y72501D02*
D03*
X602414D02*
D03*
X500240Y72499D02*
D03*
X505752D02*
D03*
X662664Y77826D02*
D03*
X657152D02*
D03*
X554978Y77824D02*
D03*
X560490D02*
D03*
X662664Y82413D02*
D03*
X657152D02*
D03*
X554978Y82412D02*
D03*
X560490D02*
D03*
X662664Y137226D02*
D03*
X657152D02*
D03*
X554978Y137224D02*
D03*
X560490D02*
D03*
X1333791Y150756D02*
D03*
X1339303D02*
D03*
X1219303Y150756D02*
D03*
X1213791D02*
D03*
X1093791D02*
D03*
X1099303D02*
D03*
X979303D02*
D03*
X973791D02*
D03*
X853791D02*
D03*
X859303D02*
D03*
X1326181Y150138D02*
D03*
X1320669D02*
D03*
X1200669Y150138D02*
D03*
X1206181D02*
D03*
X1086181D02*
D03*
X1080669D02*
D03*
X960669D02*
D03*
X966181D02*
D03*
X846181D02*
D03*
X840669D02*
D03*
X71597Y292089D02*
D03*
X77109D02*
D03*
X875203Y353173D02*
D03*
X880715D02*
D03*
D70*
X396003Y420203D02*
D03*
Y428077D02*
D03*
D71*
X326161Y411047D02*
D03*
X313956D02*
D03*
X193169Y410366D02*
D03*
X205374D02*
D03*
X205409Y418734D02*
D03*
X193204D02*
D03*
X253020Y410453D02*
D03*
X265224D02*
D03*
Y418853D02*
D03*
X253020D02*
D03*
X313956Y419547D02*
D03*
X326161D02*
D03*
D72*
X301447Y387014D02*
D03*
X329006D02*
D03*
X180342Y387366D02*
D03*
X207902D02*
D03*
X268364Y387420D02*
D03*
X240805D02*
D03*
D73*
X313822Y106102D02*
D03*
Y96102D02*
D03*
Y86102D02*
D03*
Y76102D02*
D03*
Y66102D02*
D03*
Y56102D02*
D03*
X289322Y106102D02*
D03*
Y96102D02*
D03*
Y86102D02*
D03*
Y76102D02*
D03*
Y66102D02*
D03*
Y56102D02*
D03*
D74*
X647674Y140602D02*
D03*
X545500Y140600D02*
D03*
D75*
X637831Y140602D02*
D03*
X535658Y140600D02*
D03*
D76*
X175197Y363383D02*
D03*
X168898D02*
D03*
X469053Y456540D02*
D03*
X462754D02*
D03*
X366554D02*
D03*
X372853D02*
D03*
X152001Y401822D02*
D03*
X158300D02*
D03*
X158158Y391551D02*
D03*
X151859D02*
D03*
X152001Y381222D02*
D03*
X158300D02*
D03*
X201616Y363816D02*
D03*
X207915D02*
D03*
X242255Y363698D02*
D03*
X235956D02*
D03*
X269718Y363617D02*
D03*
X276017D02*
D03*
D77*
X176769Y356890D02*
D03*
Y349409D02*
D03*
X187005Y353149D02*
D03*
X355965Y126705D02*
D03*
X345728Y122965D02*
D03*
Y130445D02*
D03*
Y105445D02*
D03*
Y97965D02*
D03*
X355965Y101705D02*
D03*
Y75705D02*
D03*
X345728Y71965D02*
D03*
Y79445D02*
D03*
Y54445D02*
D03*
Y46965D02*
D03*
X355965Y50705D02*
D03*
X88135Y237838D02*
D03*
X98372Y241578D02*
D03*
Y234098D02*
D03*
X98465Y254965D02*
D03*
Y262446D02*
D03*
X88228Y258705D02*
D03*
X218331Y352921D02*
D03*
X208095Y349180D02*
D03*
Y356661D02*
D03*
X242543Y356550D02*
D03*
Y349069D02*
D03*
X252780Y352810D02*
D03*
X286517Y352557D02*
D03*
X276281Y348817D02*
D03*
Y356298D02*
D03*
D78*
X516713Y462509D02*
D03*
X528524D02*
D03*
X504902D02*
D03*
X441009Y442640D02*
D03*
X429198D02*
D03*
D79*
X872455Y340939D02*
D03*
D80*
X877377Y333459D02*
D03*
X875408D02*
D03*
X873440D02*
D03*
X871471D02*
D03*
X869503D02*
D03*
X867534D02*
D03*
Y348419D02*
D03*
X869503D02*
D03*
X871471D02*
D03*
X873440D02*
D03*
X875408D02*
D03*
X877377D02*
D03*
D81*
X864975Y336018D02*
D03*
Y337986D02*
D03*
Y339955D02*
D03*
Y341923D02*
D03*
Y343892D02*
D03*
Y345861D02*
D03*
X879936D02*
D03*
Y343892D02*
D03*
Y341923D02*
D03*
Y339955D02*
D03*
Y337986D02*
D03*
Y336018D02*
D03*
D82*
X516337Y213426D02*
D03*
X517912D02*
D03*
X519487D02*
D03*
X521062D02*
D03*
Y204174D02*
D03*
X519487D02*
D03*
X517912D02*
D03*
X516337D02*
D03*
X426854Y120858D02*
D03*
X425279D02*
D03*
X423704D02*
D03*
X422130D02*
D03*
Y126960D02*
D03*
X423704D02*
D03*
X425279D02*
D03*
D83*
X521751Y211162D02*
D03*
Y209587D02*
D03*
Y208012D02*
D03*
Y206437D02*
D03*
X515649D02*
D03*
Y208012D02*
D03*
Y209587D02*
D03*
X429118Y126271D02*
D03*
Y124696D02*
D03*
Y123122D02*
D03*
Y121547D02*
D03*
X419866D02*
D03*
Y123122D02*
D03*
Y124696D02*
D03*
Y126271D02*
D03*
D84*
X515845Y211162D02*
D03*
D85*
X924572Y37060D02*
D03*
Y39619D02*
D03*
Y42178D02*
D03*
Y44737D02*
D03*
Y47296D02*
D03*
Y49855D02*
D03*
Y52414D02*
D03*
X900557Y37060D02*
D03*
Y39619D02*
D03*
Y42178D02*
D03*
Y44737D02*
D03*
Y47296D02*
D03*
Y49855D02*
D03*
X839557D02*
D03*
Y47296D02*
D03*
Y44737D02*
D03*
Y42178D02*
D03*
Y39619D02*
D03*
Y37060D02*
D03*
X863572Y52414D02*
D03*
Y49855D02*
D03*
Y47296D02*
D03*
Y44737D02*
D03*
Y42178D02*
D03*
Y39619D02*
D03*
Y37060D02*
D03*
D86*
X900557Y52414D02*
D03*
X839557D02*
D03*
D87*
X259338Y189453D02*
D03*
Y171067D02*
D03*
X257370Y189453D02*
D03*
Y171067D02*
D03*
X255401Y189453D02*
D03*
Y171067D02*
D03*
X253433Y189453D02*
D03*
Y171067D02*
D03*
X251465Y189453D02*
D03*
Y171067D02*
D03*
X249496Y189453D02*
D03*
Y171067D02*
D03*
X247528Y189453D02*
D03*
Y171067D02*
D03*
X245559Y189453D02*
D03*
Y171067D02*
D03*
X243590Y189453D02*
D03*
Y171067D02*
D03*
X241622Y189453D02*
D03*
Y171067D02*
D03*
X239653Y189453D02*
D03*
Y171067D02*
D03*
X237685Y189453D02*
D03*
Y171067D02*
D03*
X235717Y189453D02*
D03*
Y171067D02*
D03*
X233748Y189453D02*
D03*
Y171067D02*
D03*
X231780Y189453D02*
D03*
Y171067D02*
D03*
X229811Y189453D02*
D03*
Y171067D02*
D03*
X227842Y189453D02*
D03*
Y171067D02*
D03*
X225874Y189453D02*
D03*
Y171067D02*
D03*
X223905Y189453D02*
D03*
Y171067D02*
D03*
X221937Y189453D02*
D03*
Y171067D02*
D03*
X219969Y189453D02*
D03*
Y171067D02*
D03*
X218000Y189453D02*
D03*
Y171067D02*
D03*
X216032Y189453D02*
D03*
Y171067D02*
D03*
X214063Y189453D02*
D03*
Y171067D02*
D03*
X212094Y189453D02*
D03*
Y171067D02*
D03*
X210126Y189453D02*
D03*
Y171067D02*
D03*
X208157Y189453D02*
D03*
Y171067D02*
D03*
X206189Y189453D02*
D03*
Y171067D02*
D03*
X204220Y189453D02*
D03*
Y171067D02*
D03*
X202252Y189453D02*
D03*
Y171067D02*
D03*
X182567D02*
D03*
Y189453D02*
D03*
X184535Y171067D02*
D03*
Y189453D02*
D03*
X186504Y171067D02*
D03*
Y189453D02*
D03*
X188472Y171067D02*
D03*
Y189453D02*
D03*
X190441Y171067D02*
D03*
Y189453D02*
D03*
X192409Y171067D02*
D03*
Y189453D02*
D03*
X194378Y171067D02*
D03*
Y189453D02*
D03*
X196346Y171067D02*
D03*
Y189453D02*
D03*
X198315Y171067D02*
D03*
Y189453D02*
D03*
X200283Y171067D02*
D03*
Y189453D02*
D03*
X162882Y171067D02*
D03*
Y189453D02*
D03*
X164850Y171067D02*
D03*
Y189453D02*
D03*
X166819Y171067D02*
D03*
Y189453D02*
D03*
X168787Y171067D02*
D03*
Y189453D02*
D03*
X170756Y171067D02*
D03*
Y189453D02*
D03*
X172724Y171067D02*
D03*
Y189453D02*
D03*
X174693Y171067D02*
D03*
Y189453D02*
D03*
X176661Y171067D02*
D03*
Y189453D02*
D03*
X178630Y171067D02*
D03*
Y189453D02*
D03*
X180598Y171067D02*
D03*
Y189453D02*
D03*
X153039Y171067D02*
D03*
Y189453D02*
D03*
X155008Y171067D02*
D03*
Y189453D02*
D03*
X156976Y171067D02*
D03*
Y189453D02*
D03*
X158945Y171067D02*
D03*
Y189453D02*
D03*
X160913Y171067D02*
D03*
Y189453D02*
D03*
X279024D02*
D03*
Y171067D02*
D03*
X277055Y189453D02*
D03*
Y171067D02*
D03*
X275087Y189453D02*
D03*
Y171067D02*
D03*
X273118Y189453D02*
D03*
Y171067D02*
D03*
X271150Y189453D02*
D03*
Y171067D02*
D03*
X269181Y189453D02*
D03*
Y171067D02*
D03*
X267213Y189453D02*
D03*
Y171067D02*
D03*
X265244Y189453D02*
D03*
Y171067D02*
D03*
X263276Y189453D02*
D03*
Y171067D02*
D03*
X261307Y189453D02*
D03*
Y171067D02*
D03*
X298709Y189453D02*
D03*
Y171067D02*
D03*
X296740Y189453D02*
D03*
Y171067D02*
D03*
X294772Y189453D02*
D03*
Y171067D02*
D03*
X292803Y189453D02*
D03*
Y171067D02*
D03*
X290835Y189453D02*
D03*
Y171067D02*
D03*
X288866Y189453D02*
D03*
Y171067D02*
D03*
X286898Y189453D02*
D03*
Y171067D02*
D03*
X284929Y189453D02*
D03*
Y171067D02*
D03*
X282961Y189453D02*
D03*
Y171067D02*
D03*
X280992Y189453D02*
D03*
Y171067D02*
D03*
X308551Y189453D02*
D03*
Y171067D02*
D03*
X306583Y189453D02*
D03*
Y171067D02*
D03*
X304614Y189453D02*
D03*
Y171067D02*
D03*
X302646Y189453D02*
D03*
Y171067D02*
D03*
X300677Y189453D02*
D03*
Y171067D02*
D03*
Y322248D02*
D03*
Y340634D02*
D03*
X302646Y322248D02*
D03*
Y340634D02*
D03*
X304614Y322248D02*
D03*
Y340634D02*
D03*
X306583Y322248D02*
D03*
Y340634D02*
D03*
X308551Y322248D02*
D03*
Y340634D02*
D03*
X280992Y322248D02*
D03*
Y340634D02*
D03*
X282961Y322248D02*
D03*
Y340634D02*
D03*
X284929Y322248D02*
D03*
Y340634D02*
D03*
X286898Y322248D02*
D03*
Y340634D02*
D03*
X288866Y322248D02*
D03*
Y340634D02*
D03*
X290835Y322248D02*
D03*
Y340634D02*
D03*
X292803Y322248D02*
D03*
Y340634D02*
D03*
X294772Y322248D02*
D03*
Y340634D02*
D03*
X296740Y322248D02*
D03*
Y340634D02*
D03*
X298709Y322248D02*
D03*
Y340634D02*
D03*
X261307Y322248D02*
D03*
Y340634D02*
D03*
X263276Y322248D02*
D03*
Y340634D02*
D03*
X265244Y322248D02*
D03*
Y340634D02*
D03*
X267213Y322248D02*
D03*
Y340634D02*
D03*
X269181Y322248D02*
D03*
Y340634D02*
D03*
X271150Y322248D02*
D03*
Y340634D02*
D03*
X273118Y322248D02*
D03*
Y340634D02*
D03*
X275087Y322248D02*
D03*
Y340634D02*
D03*
X277055Y322248D02*
D03*
Y340634D02*
D03*
X279024Y322248D02*
D03*
Y340634D02*
D03*
X160913D02*
D03*
Y322248D02*
D03*
X158945Y340634D02*
D03*
Y322248D02*
D03*
X156976Y340634D02*
D03*
Y322248D02*
D03*
X155008Y340634D02*
D03*
Y322248D02*
D03*
X153039Y340634D02*
D03*
Y322248D02*
D03*
X180598Y340634D02*
D03*
Y322248D02*
D03*
X178630Y340634D02*
D03*
Y322248D02*
D03*
X176661Y340634D02*
D03*
Y322248D02*
D03*
X174693Y340634D02*
D03*
Y322248D02*
D03*
X172724Y340634D02*
D03*
Y322248D02*
D03*
X170756Y340634D02*
D03*
Y322248D02*
D03*
X168787Y340634D02*
D03*
Y322248D02*
D03*
X166819Y340634D02*
D03*
Y322248D02*
D03*
X164850Y340634D02*
D03*
Y322248D02*
D03*
X162882Y340634D02*
D03*
Y322248D02*
D03*
X200283Y340634D02*
D03*
Y322248D02*
D03*
X198315Y340634D02*
D03*
Y322248D02*
D03*
X196346Y340634D02*
D03*
Y322248D02*
D03*
X194378Y340634D02*
D03*
Y322248D02*
D03*
X192409Y340634D02*
D03*
Y322248D02*
D03*
X190441Y340634D02*
D03*
Y322248D02*
D03*
X188472Y340634D02*
D03*
Y322248D02*
D03*
X186504Y340634D02*
D03*
Y322248D02*
D03*
X184535Y340634D02*
D03*
Y322248D02*
D03*
X182567Y340634D02*
D03*
Y322248D02*
D03*
X202252D02*
D03*
Y340634D02*
D03*
X204220Y322248D02*
D03*
Y340634D02*
D03*
X206189Y322248D02*
D03*
Y340634D02*
D03*
X208157Y322248D02*
D03*
Y340634D02*
D03*
X210126Y322248D02*
D03*
Y340634D02*
D03*
X212094Y322248D02*
D03*
Y340634D02*
D03*
X214063Y322248D02*
D03*
Y340634D02*
D03*
X216032Y322248D02*
D03*
Y340634D02*
D03*
X218000Y322248D02*
D03*
Y340634D02*
D03*
X219969Y322248D02*
D03*
Y340634D02*
D03*
X221937Y322248D02*
D03*
Y340634D02*
D03*
X223905Y322248D02*
D03*
Y340634D02*
D03*
X225874Y322248D02*
D03*
Y340634D02*
D03*
X227842Y322248D02*
D03*
Y340634D02*
D03*
X229811Y322248D02*
D03*
Y340634D02*
D03*
X231780Y322248D02*
D03*
Y340634D02*
D03*
X233748Y322248D02*
D03*
Y340634D02*
D03*
X235717Y322248D02*
D03*
Y340634D02*
D03*
X237685Y322248D02*
D03*
Y340634D02*
D03*
X239653Y322248D02*
D03*
Y340634D02*
D03*
X241622Y322248D02*
D03*
Y340634D02*
D03*
X243590Y322248D02*
D03*
Y340634D02*
D03*
X245559Y322248D02*
D03*
Y340634D02*
D03*
X247528Y322248D02*
D03*
Y340634D02*
D03*
X249496Y322248D02*
D03*
Y340634D02*
D03*
X251465Y322248D02*
D03*
Y340634D02*
D03*
X253433Y322248D02*
D03*
Y340634D02*
D03*
X255401Y322248D02*
D03*
Y340634D02*
D03*
X257370Y322248D02*
D03*
Y340634D02*
D03*
X259338Y322248D02*
D03*
Y340634D02*
D03*
D88*
X87402Y474016D02*
D03*
X112598D02*
D03*
D89*
X281915Y437832D02*
D03*
X278175Y445706D02*
D03*
X285655D02*
D03*
X224350Y446064D02*
D03*
X216869D02*
D03*
X220609Y438190D02*
D03*
D90*
X149113Y112205D02*
D03*
X143404D02*
D03*
X154821D02*
D03*
X699453Y393700D02*
D03*
X710870D02*
D03*
X705161D02*
D03*
X196750Y73622D02*
D03*
X191042D02*
D03*
X202459D02*
D03*
X196750Y78684D02*
D03*
X191042D02*
D03*
X202459D02*
D03*
X191042Y83746D02*
D03*
X202459D02*
D03*
X196750D02*
D03*
Y88808D02*
D03*
X191042D02*
D03*
X202459D02*
D03*
X196750Y93870D02*
D03*
X191042D02*
D03*
X202459D02*
D03*
X196750Y98931D02*
D03*
X191042D02*
D03*
X202459D02*
D03*
X196750Y103993D02*
D03*
X191042D02*
D03*
X202459D02*
D03*
X196750Y109055D02*
D03*
X202459D02*
D03*
X191042D02*
D03*
X699453Y400200D02*
D03*
X710870D02*
D03*
X705161D02*
D03*
X699453Y387200D02*
D03*
X710870D02*
D03*
X705161D02*
D03*
X705512Y380709D02*
D03*
X711221D02*
D03*
X699803D02*
D03*
X154821Y107480D02*
D03*
X143404D02*
D03*
X149113D02*
D03*
X154821Y57874D02*
D03*
X143404D02*
D03*
X149113D02*
D03*
X155215Y53150D02*
D03*
X143798D02*
D03*
X149506D02*
D03*
X143604Y102756D02*
D03*
X155021D02*
D03*
X149313D02*
D03*
X143604Y98163D02*
D03*
X155021D02*
D03*
X149313D02*
D03*
X143504Y48425D02*
D03*
X154921D02*
D03*
X149213D02*
D03*
X143504Y43307D02*
D03*
X154921D02*
D03*
X149213D02*
D03*
X699453Y367700D02*
D03*
X710870D02*
D03*
X705161D02*
D03*
Y374200D02*
D03*
X710870D02*
D03*
X699453D02*
D03*
X773662Y393646D02*
D03*
X762245D02*
D03*
X767953D02*
D03*
Y400200D02*
D03*
X762245D02*
D03*
X773662D02*
D03*
Y380539D02*
D03*
X762245D02*
D03*
X767953D02*
D03*
Y387093D02*
D03*
X762245D02*
D03*
X773662D02*
D03*
Y373986D02*
D03*
X762245D02*
D03*
X767953D02*
D03*
Y367432D02*
D03*
X762245D02*
D03*
X773662D02*
D03*
X520867Y198900D02*
D03*
X509450D02*
D03*
X515158D02*
D03*
X515158Y194257D02*
D03*
X509450D02*
D03*
X520867D02*
D03*
X277919Y314703D02*
D03*
X272210D02*
D03*
X283627D02*
D03*
X409498Y406839D02*
D03*
X420915D02*
D03*
X415206D02*
D03*
X235243Y111679D02*
D03*
X240951D02*
D03*
X229534D02*
D03*
Y106396D02*
D03*
X240951D02*
D03*
X235243D02*
D03*
X235236Y101181D02*
D03*
X240945D02*
D03*
X229528D02*
D03*
Y95669D02*
D03*
X240945D02*
D03*
X235236D02*
D03*
X235243Y90600D02*
D03*
X240951D02*
D03*
X229534D02*
D03*
Y85369D02*
D03*
X240951D02*
D03*
X235243D02*
D03*
X883272Y315766D02*
D03*
X871854D02*
D03*
X877563D02*
D03*
D91*
X63386Y437008D02*
D03*
X57087D02*
D03*
X516096Y72693D02*
D03*
X522395D02*
D03*
X418642Y50409D02*
D03*
X412343D02*
D03*
X173555Y427650D02*
D03*
X179854D02*
D03*
Y421154D02*
D03*
X173555D02*
D03*
X173561Y414713D02*
D03*
X179861D02*
D03*
X179883Y408262D02*
D03*
X173584D02*
D03*
X234135Y427620D02*
D03*
X240434D02*
D03*
Y421120D02*
D03*
X234135D02*
D03*
Y414620D02*
D03*
X240434D02*
D03*
X240421Y408153D02*
D03*
X234122D02*
D03*
X294677Y427614D02*
D03*
X300976D02*
D03*
Y421114D02*
D03*
X294677D02*
D03*
Y414614D02*
D03*
X300976D02*
D03*
X300964Y408047D02*
D03*
X294665D02*
D03*
X618270Y72695D02*
D03*
X624569D02*
D03*
D92*
X50000Y446850D02*
D03*
X68110D02*
D03*
D93*
X59055Y471063D02*
D03*
D94*
X287500Y119685D02*
D03*
Y125984D02*
D03*
X278839Y126181D02*
D03*
Y119882D02*
D03*
X849606Y230315D02*
D03*
X217323Y409449D02*
D03*
Y403150D02*
D03*
X156693Y440945D02*
D03*
Y434646D02*
D03*
X50000Y431890D02*
D03*
Y438189D02*
D03*
X715446Y413474D02*
D03*
Y407175D02*
D03*
X488500Y228550D02*
D03*
Y234850D02*
D03*
X931344Y50265D02*
D03*
Y56564D02*
D03*
X709446Y413474D02*
D03*
Y407175D02*
D03*
X756346Y406975D02*
D03*
Y413274D02*
D03*
X762346D02*
D03*
Y406975D02*
D03*
X748036Y415989D02*
D03*
Y409690D02*
D03*
X475194Y400393D02*
D03*
Y406693D02*
D03*
X338846Y128854D02*
D03*
Y122555D02*
D03*
Y97555D02*
D03*
Y103854D02*
D03*
Y77854D02*
D03*
Y71555D02*
D03*
Y46555D02*
D03*
Y52854D02*
D03*
X58560Y117565D02*
D03*
Y111266D02*
D03*
X52560Y117565D02*
D03*
Y111266D02*
D03*
X468003Y450090D02*
D03*
Y443790D02*
D03*
X371503Y450190D02*
D03*
Y443890D02*
D03*
X537603Y405991D02*
D03*
Y412290D02*
D03*
X543903Y405991D02*
D03*
Y412290D02*
D03*
X235241Y117513D02*
D03*
Y123812D02*
D03*
X241430D02*
D03*
Y117513D02*
D03*
X163831Y451232D02*
D03*
Y457532D02*
D03*
X163634Y439075D02*
D03*
Y445374D02*
D03*
X193098Y432382D02*
D03*
Y426083D02*
D03*
X165746Y398637D02*
D03*
Y404936D02*
D03*
Y392936D02*
D03*
Y386637D02*
D03*
X165768Y374724D02*
D03*
Y381023D02*
D03*
X186949Y426035D02*
D03*
Y432335D02*
D03*
X221451Y432557D02*
D03*
Y426258D02*
D03*
X227559Y425984D02*
D03*
Y432283D02*
D03*
X254272Y426303D02*
D03*
Y432602D02*
D03*
X248351Y426358D02*
D03*
Y432657D02*
D03*
X281894Y432451D02*
D03*
Y426152D02*
D03*
X287927Y426095D02*
D03*
Y432394D02*
D03*
X314914Y426598D02*
D03*
Y432897D02*
D03*
X308894Y426552D02*
D03*
Y432851D02*
D03*
X612831Y65635D02*
D03*
Y71935D02*
D03*
X510658Y71933D02*
D03*
Y65634D02*
D03*
X64345Y266825D02*
D03*
Y273124D02*
D03*
X20953Y283539D02*
D03*
Y289839D02*
D03*
X64653Y278577D02*
D03*
Y284876D02*
D03*
X261482Y308398D02*
D03*
Y314698D02*
D03*
X201787Y349867D02*
D03*
Y356166D02*
D03*
X236298Y349545D02*
D03*
Y355844D02*
D03*
X269817Y349483D02*
D03*
Y355782D02*
D03*
X257320Y196948D02*
D03*
Y203247D02*
D03*
X170469Y350000D02*
D03*
Y356299D02*
D03*
X288117Y313183D02*
D03*
Y306884D02*
D03*
X867503Y327762D02*
D03*
Y321462D02*
D03*
X875472D02*
D03*
Y327762D02*
D03*
X883935Y327762D02*
D03*
Y321462D02*
D03*
X17714Y271260D02*
D03*
Y264960D02*
D03*
D95*
X283071Y23622D02*
D03*
X276772D02*
D03*
X153937Y5512D02*
D03*
X147638D02*
D03*
X1335433Y230315D02*
D03*
X1329134D02*
D03*
X1217717D02*
D03*
X1211417D02*
D03*
X1095669D02*
D03*
X1089370D02*
D03*
X979528D02*
D03*
X973228D02*
D03*
X855906D02*
D03*
X790551D02*
D03*
X784252D02*
D03*
X622835Y196850D02*
D03*
X629134D02*
D03*
X629134Y209974D02*
D03*
X622835D02*
D03*
X629134Y203412D02*
D03*
X622835D02*
D03*
X622835Y216535D02*
D03*
X629134D02*
D03*
X532283Y196850D02*
D03*
X538583D02*
D03*
X532283Y216535D02*
D03*
X538583D02*
D03*
X538583Y209974D02*
D03*
X532283D02*
D03*
X538583Y203412D02*
D03*
X532283D02*
D03*
X217323Y397244D02*
D03*
X223622D02*
D03*
X162992Y433465D02*
D03*
X169291D02*
D03*
X57087Y430315D02*
D03*
X63386D02*
D03*
X150394Y63779D02*
D03*
X144095D02*
D03*
X638976Y375984D02*
D03*
X632677D02*
D03*
X499213Y196850D02*
D03*
X492913D02*
D03*
X499213Y203412D02*
D03*
X492913D02*
D03*
X499213Y209974D02*
D03*
X492913D02*
D03*
X885194Y53414D02*
D03*
X891494D02*
D03*
Y47414D02*
D03*
X885194D02*
D03*
Y41414D02*
D03*
X891494D02*
D03*
Y35414D02*
D03*
X885194D02*
D03*
X879494D02*
D03*
X873195D02*
D03*
Y41414D02*
D03*
X879494D02*
D03*
Y47414D02*
D03*
X873195D02*
D03*
X879494Y53414D02*
D03*
X873195D02*
D03*
X430408Y406569D02*
D03*
X436707D02*
D03*
X436707Y401550D02*
D03*
X430408D02*
D03*
X480813Y395498D02*
D03*
X474513D02*
D03*
X338996Y135705D02*
D03*
X332697D02*
D03*
Y110705D02*
D03*
X338996D02*
D03*
Y84705D02*
D03*
X332697D02*
D03*
Y59705D02*
D03*
X338996D02*
D03*
X123762Y438462D02*
D03*
X130061D02*
D03*
X123850Y450000D02*
D03*
X130150D02*
D03*
X47066Y97998D02*
D03*
X53365D02*
D03*
Y81998D02*
D03*
X47066D02*
D03*
Y65998D02*
D03*
X53365D02*
D03*
X53387Y50195D02*
D03*
X47088D02*
D03*
X81365Y88998D02*
D03*
X75066D02*
D03*
Y72998D02*
D03*
X81365D02*
D03*
Y56998D02*
D03*
X75066D02*
D03*
X75088Y41195D02*
D03*
X81387D02*
D03*
X53365Y91998D02*
D03*
X47066D02*
D03*
Y75998D02*
D03*
X53365D02*
D03*
Y59998D02*
D03*
X47066D02*
D03*
X47088Y44195D02*
D03*
X53387D02*
D03*
X481853Y456440D02*
D03*
X475554D02*
D03*
X500353Y401340D02*
D03*
X494054D02*
D03*
X531353Y402340D02*
D03*
X525054D02*
D03*
X379154Y456440D02*
D03*
X385453D02*
D03*
X543853Y399740D02*
D03*
X537554D02*
D03*
X400654Y455340D02*
D03*
X406953D02*
D03*
X400654Y449240D02*
D03*
X406953D02*
D03*
X419153D02*
D03*
X412854D02*
D03*
X416053Y400840D02*
D03*
X409754D02*
D03*
X412343Y43909D02*
D03*
X418642D02*
D03*
X412343Y37909D02*
D03*
X418642D02*
D03*
X263607Y120546D02*
D03*
X257308D02*
D03*
X239170Y71562D02*
D03*
X232871D02*
D03*
X624969Y66382D02*
D03*
X618670D02*
D03*
X516496Y66380D02*
D03*
X522795D02*
D03*
X637757Y81620D02*
D03*
X631458D02*
D03*
X529284Y81618D02*
D03*
X535583D02*
D03*
X649757Y81620D02*
D03*
X643458D02*
D03*
X541284Y81618D02*
D03*
X547583D02*
D03*
X1326575Y155638D02*
D03*
X1320276D02*
D03*
X1200276Y155638D02*
D03*
X1206575D02*
D03*
X1086575D02*
D03*
X1080276D02*
D03*
X960276D02*
D03*
X966575D02*
D03*
X846575D02*
D03*
X840276D02*
D03*
X1326575Y161638D02*
D03*
X1320276D02*
D03*
X1200276Y161638D02*
D03*
X1206575D02*
D03*
X1086575D02*
D03*
X1080276D02*
D03*
X960276D02*
D03*
X966575D02*
D03*
X846575D02*
D03*
X840276D02*
D03*
X102203Y227638D02*
D03*
X95904D02*
D03*
X84004D02*
D03*
X90303D02*
D03*
X90196Y248205D02*
D03*
X83897D02*
D03*
X95897D02*
D03*
X102196D02*
D03*
X718724Y183110D02*
D03*
X725024D02*
D03*
X605024D02*
D03*
X598724D02*
D03*
X679176Y181902D02*
D03*
X672876D02*
D03*
X485024Y183111D02*
D03*
X478724D02*
D03*
X559376Y181502D02*
D03*
X553076D02*
D03*
X1335557Y176272D02*
D03*
X1329258D02*
D03*
X439368Y181644D02*
D03*
X433069D02*
D03*
X1215557Y176272D02*
D03*
X1209258D02*
D03*
X1279150Y167000D02*
D03*
X1272850D02*
D03*
X1095557Y176272D02*
D03*
X1089258D02*
D03*
X1159150Y167000D02*
D03*
X1152850D02*
D03*
X975558Y176272D02*
D03*
X969258D02*
D03*
X1039150Y167000D02*
D03*
X1032850D02*
D03*
X855558Y176272D02*
D03*
X849258D02*
D03*
X919150Y167000D02*
D03*
X912850D02*
D03*
X792850D02*
D03*
X799150D02*
D03*
X271836Y308334D02*
D03*
X278135D02*
D03*
X255833Y308587D02*
D03*
X249534D02*
D03*
Y314487D02*
D03*
X255833D02*
D03*
X219984Y363684D02*
D03*
X213685D02*
D03*
X254544Y363702D02*
D03*
X248245D02*
D03*
X288261Y363649D02*
D03*
X281961D02*
D03*
X181496Y363383D02*
D03*
X187795D02*
D03*
D96*
X158268Y451181D02*
D03*
Y445669D02*
D03*
X214173Y421654D02*
D03*
Y416142D02*
D03*
X526300Y218444D02*
D03*
Y223956D02*
D03*
X521600Y218444D02*
D03*
Y223956D02*
D03*
X165354Y60236D02*
D03*
Y65748D02*
D03*
X75216Y99754D02*
D03*
Y94243D02*
D03*
Y78242D02*
D03*
Y83754D02*
D03*
Y67754D02*
D03*
Y62243D02*
D03*
X75238Y46439D02*
D03*
Y51951D02*
D03*
X61560Y123660D02*
D03*
Y129172D02*
D03*
X66560Y129172D02*
D03*
Y123660D02*
D03*
X81960Y109354D02*
D03*
Y103842D02*
D03*
X131560Y78148D02*
D03*
Y72636D02*
D03*
X81560Y34148D02*
D03*
Y28636D02*
D03*
X131560Y34148D02*
D03*
Y28636D02*
D03*
X525703Y413196D02*
D03*
Y407684D02*
D03*
X530503D02*
D03*
Y413196D02*
D03*
X487403Y405996D02*
D03*
Y400484D02*
D03*
X486703Y418896D02*
D03*
Y413384D02*
D03*
X491703Y416984D02*
D03*
Y422496D02*
D03*
X412283Y123165D02*
D03*
Y117653D02*
D03*
X462188Y67833D02*
D03*
Y73345D02*
D03*
X462792Y113165D02*
D03*
Y107653D02*
D03*
X434992Y118153D02*
D03*
Y123665D02*
D03*
X439492Y118153D02*
D03*
Y123665D02*
D03*
X198752Y432303D02*
D03*
Y426791D02*
D03*
X203468Y426791D02*
D03*
Y432303D02*
D03*
X259851Y428051D02*
D03*
Y433563D02*
D03*
X264451D02*
D03*
Y428051D02*
D03*
X320294Y433757D02*
D03*
Y428246D02*
D03*
X324894D02*
D03*
Y433757D02*
D03*
X616908Y142882D02*
D03*
Y137370D02*
D03*
X514734Y137369D02*
D03*
Y142880D02*
D03*
X59053Y268945D02*
D03*
Y263433D02*
D03*
X872357Y295445D02*
D03*
Y300957D02*
D03*
X860643Y334837D02*
D03*
Y329325D02*
D03*
X860445Y343990D02*
D03*
Y349502D02*
D03*
X885853Y332671D02*
D03*
Y338183D02*
D03*
X884670Y352258D02*
D03*
Y346746D02*
D03*
D97*
X23625Y260140D02*
D03*
Y271557D02*
D03*
Y265848D02*
D03*
X513700Y230109D02*
D03*
Y218691D02*
D03*
Y224400D02*
D03*
X508700D02*
D03*
Y218691D02*
D03*
Y230109D02*
D03*
X445892Y123809D02*
D03*
Y129517D02*
D03*
Y118100D02*
D03*
X451292D02*
D03*
Y129517D02*
D03*
Y123809D02*
D03*
X456892D02*
D03*
Y118100D02*
D03*
Y129517D02*
D03*
X462392Y118100D02*
D03*
Y129517D02*
D03*
Y123809D02*
D03*
X75605Y338839D02*
D03*
Y333130D02*
D03*
Y344547D02*
D03*
D98*
X92386Y448866D02*
D03*
D99*
X116598Y457921D02*
D03*
Y439811D02*
D03*
D100*
X119240Y284394D02*
D03*
X137626D02*
D03*
X119240Y282425D02*
D03*
X137626D02*
D03*
X119240Y280457D02*
D03*
X137626D02*
D03*
X119240Y278488D02*
D03*
X137626D02*
D03*
X119240Y276520D02*
D03*
X137626D02*
D03*
X119240Y274551D02*
D03*
X137626D02*
D03*
X119240Y272583D02*
D03*
X137626D02*
D03*
X119240Y270614D02*
D03*
X137626D02*
D03*
X119240Y268646D02*
D03*
X137626D02*
D03*
X119240Y266677D02*
D03*
X137626D02*
D03*
X119240Y264709D02*
D03*
X137626D02*
D03*
X119240Y262740D02*
D03*
X137626D02*
D03*
X119240Y260772D02*
D03*
X137626D02*
D03*
X119240Y258803D02*
D03*
X137626D02*
D03*
X119240Y256835D02*
D03*
X137626D02*
D03*
X119240Y254866D02*
D03*
X137626D02*
D03*
X119240Y252898D02*
D03*
X137626D02*
D03*
X119240Y250929D02*
D03*
X137626D02*
D03*
X119240Y248961D02*
D03*
X137626D02*
D03*
X119240Y246992D02*
D03*
X137626D02*
D03*
X119240Y245024D02*
D03*
X137626D02*
D03*
X119240Y243055D02*
D03*
X137626D02*
D03*
X119240Y241087D02*
D03*
X137626D02*
D03*
X119240Y239118D02*
D03*
X137626D02*
D03*
X119240Y237150D02*
D03*
X137626D02*
D03*
X119240Y235181D02*
D03*
X137626D02*
D03*
X119240Y233213D02*
D03*
X137626D02*
D03*
X119240Y231244D02*
D03*
X137626D02*
D03*
X119240Y229276D02*
D03*
X137626D02*
D03*
X119240Y227307D02*
D03*
X137626D02*
D03*
Y207622D02*
D03*
X119240D02*
D03*
X137626Y209591D02*
D03*
X119240D02*
D03*
X137626Y211559D02*
D03*
X119240D02*
D03*
X137626Y213528D02*
D03*
X119240D02*
D03*
X137626Y215496D02*
D03*
X119240D02*
D03*
X137626Y217465D02*
D03*
X119240D02*
D03*
X137626Y219433D02*
D03*
X119240D02*
D03*
X137626Y221402D02*
D03*
X119240D02*
D03*
X137626Y223370D02*
D03*
X119240D02*
D03*
X137626Y225339D02*
D03*
X119240D02*
D03*
X137626Y187937D02*
D03*
X119240D02*
D03*
X137626Y189906D02*
D03*
X119240D02*
D03*
X137626Y191874D02*
D03*
X119240D02*
D03*
X137626Y193842D02*
D03*
X119240D02*
D03*
X137626Y195811D02*
D03*
X119240D02*
D03*
X137626Y197780D02*
D03*
X119240D02*
D03*
X137626Y199748D02*
D03*
X119240D02*
D03*
X137626Y201716D02*
D03*
X119240D02*
D03*
X137626Y203685D02*
D03*
X119240D02*
D03*
X137626Y205654D02*
D03*
X119240D02*
D03*
X137626Y178094D02*
D03*
X119240D02*
D03*
X137626Y180063D02*
D03*
X119240D02*
D03*
X137626Y182032D02*
D03*
X119240D02*
D03*
X137626Y184000D02*
D03*
X119240D02*
D03*
X137626Y185968D02*
D03*
X119240D02*
D03*
Y304079D02*
D03*
X137626D02*
D03*
X119240Y302110D02*
D03*
X137626D02*
D03*
X119240Y300142D02*
D03*
X137626D02*
D03*
X119240Y298173D02*
D03*
X137626D02*
D03*
X119240Y296205D02*
D03*
X137626D02*
D03*
X119240Y294236D02*
D03*
X137626D02*
D03*
X119240Y292268D02*
D03*
X137626D02*
D03*
X119240Y290299D02*
D03*
X137626D02*
D03*
X119240Y288331D02*
D03*
X137626D02*
D03*
X119240Y286362D02*
D03*
X137626D02*
D03*
X119240Y323764D02*
D03*
X137626D02*
D03*
X119240Y321795D02*
D03*
X137626D02*
D03*
X119240Y319827D02*
D03*
X137626D02*
D03*
X119240Y317858D02*
D03*
X137626D02*
D03*
X119240Y315890D02*
D03*
X137626D02*
D03*
X119240Y313921D02*
D03*
X137626D02*
D03*
X119240Y311953D02*
D03*
X137626D02*
D03*
X119240Y309984D02*
D03*
X137626D02*
D03*
X119240Y308016D02*
D03*
X137626D02*
D03*
X119240Y306047D02*
D03*
X137626D02*
D03*
X119240Y333606D02*
D03*
X137626D02*
D03*
X119240Y331638D02*
D03*
X137626D02*
D03*
X119240Y329669D02*
D03*
X137626D02*
D03*
X119240Y327701D02*
D03*
X137626D02*
D03*
X119240Y325732D02*
D03*
X137626D02*
D03*
X342350D02*
D03*
X323965D02*
D03*
X342350Y327701D02*
D03*
X323965D02*
D03*
X342350Y329669D02*
D03*
X323965D02*
D03*
X342350Y331638D02*
D03*
X323965D02*
D03*
X342350Y333606D02*
D03*
X323965D02*
D03*
X342350Y306047D02*
D03*
X323965D02*
D03*
X342350Y308016D02*
D03*
X323965D02*
D03*
X342350Y309984D02*
D03*
X323965D02*
D03*
X342350Y311953D02*
D03*
X323965D02*
D03*
X342350Y313921D02*
D03*
X323965D02*
D03*
X342350Y315890D02*
D03*
X323965D02*
D03*
X342350Y317858D02*
D03*
X323965D02*
D03*
X342350Y319827D02*
D03*
X323965D02*
D03*
X342350Y321795D02*
D03*
X323965D02*
D03*
X342350Y323764D02*
D03*
X323965D02*
D03*
X342350Y286362D02*
D03*
X323965D02*
D03*
X342350Y288331D02*
D03*
X323965D02*
D03*
X342350Y290299D02*
D03*
X323965D02*
D03*
X342350Y292268D02*
D03*
X323965D02*
D03*
X342350Y294236D02*
D03*
X323965D02*
D03*
X342350Y296205D02*
D03*
X323965D02*
D03*
X342350Y298173D02*
D03*
X323965D02*
D03*
X342350Y300142D02*
D03*
X323965D02*
D03*
X342350Y302110D02*
D03*
X323965D02*
D03*
X342350Y304079D02*
D03*
X323965D02*
D03*
Y185968D02*
D03*
X342350D02*
D03*
X323965Y184000D02*
D03*
X342350D02*
D03*
X323965Y182032D02*
D03*
X342350D02*
D03*
X323965Y180063D02*
D03*
X342350D02*
D03*
X323965Y178094D02*
D03*
X342350D02*
D03*
X323965Y205654D02*
D03*
X342350D02*
D03*
X323965Y203685D02*
D03*
X342350D02*
D03*
X323965Y201716D02*
D03*
X342350D02*
D03*
X323965Y199748D02*
D03*
X342350D02*
D03*
X323965Y197780D02*
D03*
X342350D02*
D03*
X323965Y195811D02*
D03*
X342350D02*
D03*
X323965Y193842D02*
D03*
X342350D02*
D03*
X323965Y191874D02*
D03*
X342350D02*
D03*
X323965Y189906D02*
D03*
X342350D02*
D03*
X323965Y187937D02*
D03*
X342350D02*
D03*
X323965Y225339D02*
D03*
X342350D02*
D03*
X323965Y223370D02*
D03*
X342350D02*
D03*
X323965Y221402D02*
D03*
X342350D02*
D03*
X323965Y219433D02*
D03*
X342350D02*
D03*
X323965Y217465D02*
D03*
X342350D02*
D03*
X323965Y215496D02*
D03*
X342350D02*
D03*
X323965Y213528D02*
D03*
X342350D02*
D03*
X323965Y211559D02*
D03*
X342350D02*
D03*
X323965Y209591D02*
D03*
X342350D02*
D03*
X323965Y207622D02*
D03*
X342350D02*
D03*
Y227307D02*
D03*
X323965D02*
D03*
X342350Y229276D02*
D03*
X323965D02*
D03*
X342350Y231244D02*
D03*
X323965D02*
D03*
X342350Y233213D02*
D03*
X323965D02*
D03*
X342350Y235181D02*
D03*
X323965D02*
D03*
X342350Y237150D02*
D03*
X323965D02*
D03*
X342350Y239118D02*
D03*
X323965D02*
D03*
X342350Y241087D02*
D03*
X323965D02*
D03*
X342350Y243055D02*
D03*
X323965D02*
D03*
X342350Y245024D02*
D03*
X323965D02*
D03*
X342350Y246992D02*
D03*
X323965D02*
D03*
X342350Y248961D02*
D03*
X323965D02*
D03*
X342350Y250929D02*
D03*
X323965D02*
D03*
X342350Y252898D02*
D03*
X323965D02*
D03*
X342350Y254866D02*
D03*
X323965D02*
D03*
X342350Y256835D02*
D03*
X323965D02*
D03*
X342350Y258803D02*
D03*
X323965D02*
D03*
X342350Y260772D02*
D03*
X323965D02*
D03*
X342350Y262740D02*
D03*
X323965D02*
D03*
X342350Y264709D02*
D03*
X323965D02*
D03*
X342350Y266677D02*
D03*
X323965D02*
D03*
X342350Y268646D02*
D03*
X323965D02*
D03*
X342350Y270614D02*
D03*
X323965D02*
D03*
X342350Y272583D02*
D03*
X323965D02*
D03*
X342350Y274551D02*
D03*
X323965D02*
D03*
X342350Y276520D02*
D03*
X323965D02*
D03*
X342350Y278488D02*
D03*
X323965D02*
D03*
X342350Y280457D02*
D03*
X323965D02*
D03*
X342350Y282425D02*
D03*
X323965D02*
D03*
X342350Y284394D02*
D03*
X323965D02*
D03*
D101*
X124276Y72892D02*
D03*
Y77892D02*
D03*
Y82892D02*
D03*
Y87892D02*
D03*
Y92892D02*
D03*
Y97892D02*
D03*
Y102892D02*
D03*
Y107892D02*
D03*
X88843Y72892D02*
D03*
Y77892D02*
D03*
Y82892D02*
D03*
Y87892D02*
D03*
Y92892D02*
D03*
Y97892D02*
D03*
Y102892D02*
D03*
Y107892D02*
D03*
Y63892D02*
D03*
Y58892D02*
D03*
Y53892D02*
D03*
Y48892D02*
D03*
Y43892D02*
D03*
Y38892D02*
D03*
Y33892D02*
D03*
Y28892D02*
D03*
X124276Y63892D02*
D03*
Y58892D02*
D03*
Y53892D02*
D03*
Y48892D02*
D03*
Y43892D02*
D03*
Y38892D02*
D03*
Y33892D02*
D03*
Y28892D02*
D03*
D102*
X65560Y111266D02*
D03*
Y117565D02*
D03*
X480997Y412810D02*
D03*
Y419109D02*
D03*
D103*
X405466Y440640D02*
D03*
X413340D02*
D03*
D104*
X509803Y442028D02*
D03*
Y453052D02*
D03*
X496503D02*
D03*
Y442028D02*
D03*
D105*
X13942Y323199D02*
D03*
X24966D02*
D03*
D106*
X78153Y302584D02*
D03*
Y296994D02*
D03*
D107*
X426854Y126763D02*
D03*
D108*
X478803Y449758D02*
D03*
X482543Y439522D02*
D03*
X475063D02*
D03*
X378863Y439422D02*
D03*
X386343D02*
D03*
X382603Y449658D02*
D03*
D109*
X88068Y136341D02*
D03*
X124052D02*
D03*
Y116341D02*
D03*
Y126341D02*
D03*
X88068Y116341D02*
D03*
Y126183D02*
D03*
D110*
X463272Y412753D02*
D03*
X473509D02*
D03*
X396021Y411140D02*
D03*
X385785D02*
D03*
D111*
X331846Y128854D02*
D03*
Y122555D02*
D03*
Y97555D02*
D03*
Y103854D02*
D03*
Y77854D02*
D03*
Y71555D02*
D03*
Y46555D02*
D03*
Y52854D02*
D03*
D112*
X80950Y136035D02*
D03*
X72170D02*
D03*
Y115597D02*
D03*
X80950D02*
D03*
D113*
X141465Y130081D02*
D03*
Y126341D02*
D03*
Y122601D02*
D03*
X130639D02*
D03*
Y126341D02*
D03*
Y130081D02*
D03*
D114*
X81284Y122676D02*
D03*
Y126416D02*
D03*
Y130156D02*
D03*
X71835D02*
D03*
Y122676D02*
D03*
D115*
X310114Y457025D02*
D03*
X188933Y456978D02*
D03*
X249272Y456928D02*
D03*
D116*
X310113Y486709D02*
D03*
X188932Y486661D02*
D03*
X249273Y486614D02*
D03*
M02*
